<svg fill="none" xmlns="http://www.w3.org/2000/svg" viewBox="0 0 20 20" class="design-iconfont">
  <path d="M17.9918 18.0954C17.9928 18.3479 17.8874 18.5903 17.6992 18.7681C17.5118 18.9464 17.2578 19.0467 16.9929 19.047H2.9981C2.73292 19.0481 2.4784 18.9476 2.29175 18.7681C2.10466 18.5896 1.99941 18.3477 1.99903 18.0954V0.954022C1.99807 0.701333 2.10352 0.458832 2.29175 0.280823C2.47888 0.101794 2.73291 0.000807671 2.9981 2.33091e-05H11.5831C11.8491 -0.00174876 12.1048 0.0975848 12.2937 0.276023L17.7026 5.43052C17.8895 5.61067 17.9936 5.85427 17.9918 6.10762V18.0954Z" fill="#EBECF0"/>
  <path d="M17.9918 18.0955V19.048C17.9928 19.3006 17.8874 19.5431 17.6992 19.7212C17.5117 19.8995 17.2577 19.9998 16.9928 20.0001H2.99805C2.44552 19.9995 1.99793 19.5725 1.99793 19.0461V18.0945C1.99686 18.347 2.10233 18.5894 2.29065 18.7672C2.47811 18.9455 2.7321 19.0458 2.997 19.0461H16.9907C17.5426 19.0453 17.9898 18.6191 17.9905 18.0933L17.9918 18.0955Z" fill="#C1C7D0"/>
  <path d="M0 10.4771H19.9898V15.2397C19.989 15.7653 19.5427 16.1916 18.9911 16.1937H1.00128C0.73609 16.1946 0.481597 16.0942 0.294715 15.9149C0.106249 15.7361 0.000211124 15.4932 0 15.2397L0 10.4771Z" fill="#FF8FC9"/>
  <path d="M15.2501 13.6956L16.3163 14.0178C16.2447 14.3168 16.1319 14.5666 15.9779 14.7671C15.8239 14.9676 15.6324 15.1189 15.4032 15.2209C15.1758 15.323 14.8858 15.374 14.5331 15.374C14.1052 15.374 13.7552 15.3123 13.483 15.1887C13.2127 15.0634 12.979 14.8441 12.7821 14.5308C12.5852 14.2174 12.4867 13.8164 12.4867 13.3276C12.4867 12.6759 12.6595 12.1755 13.005 11.8264C13.3523 11.4755 13.8429 11.3 14.4767 11.3C14.9726 11.3 15.362 11.4003 15.6449 11.6008C15.9296 11.8014 16.1408 12.1093 16.2787 12.5247L15.2045 12.7637C15.1669 12.6437 15.1275 12.556 15.0863 12.5005C15.0183 12.4074 14.935 12.3358 14.8365 12.2856C14.7381 12.2355 14.628 12.2104 14.5062 12.2104C14.2305 12.2104 14.0192 12.3215 13.8724 12.5435C13.7614 12.7082 13.7059 12.9669 13.7059 13.3196C13.7059 13.7564 13.7722 14.0563 13.9047 14.2192C14.0372 14.3804 14.2233 14.4609 14.4633 14.4609C14.696 14.4609 14.8715 14.3956 14.9896 14.2649C15.1096 14.1342 15.1964 13.9444 15.2501 13.6956Z" fill="#fff"/>
  <path d="M10.7706 14.6543H9.38489L9.19421 15.3042H7.95081L9.43054 11.3672H10.7572L12.2369 15.3042H10.964L10.7706 14.6543ZM10.5155 13.803L10.0804 12.3877L9.64807 13.803H10.5155Z" fill="#fff"/>
  <path d="M6.48987 14.6543H5.10413L4.91345 15.3042H3.67004L5.14978 11.3672H6.47644L7.95618 15.3042H6.68323L6.48987 14.6543ZM6.23474 13.803L5.79968 12.3877L5.36731 13.803H6.23474Z" fill="#fff"/>
  <path fill-rule="evenodd" clip-rule="evenodd" d="M2.00003 8.57141V10.4768H0L2.00003 8.57141ZM18.0108 8.57141L17.9918 10.4768H20L18.0108 8.57141Z" fill="#995679"/>
  <path d="M17.9918 6.10602V6.24002H12.5834C12.0304 6.24002 11.5822 5.8129 11.5822 5.28602V2.60677e-05C11.8481 -0.00184785 12.1038 0.0973786 12.2927 0.275726L17.71 5.42712C17.8931 5.6097 17.994 5.85337 17.9908 6.10592L17.9918 6.10602Z" fill="#C1C7D0"/>
</svg>
