<svg fill="none" xmlns="http://www.w3.org/2000/svg" viewBox="0 0 20 20" class="design-iconfont">
  <path d="M17.9918 18.0954C17.9928 18.3479 17.8874 18.5903 17.6992 18.7681C17.5118 18.9464 17.2578 19.0467 16.9929 19.047H2.9981C2.73292 19.0481 2.4784 18.9476 2.29175 18.7681C2.10466 18.5896 1.99941 18.3477 1.99903 18.0954V0.954022C1.99807 0.701333 2.10352 0.458832 2.29175 0.280823C2.47888 0.101794 2.73291 0.000807671 2.9981 2.33091e-05H11.5831C11.8491 -0.00174876 12.1048 0.0975848 12.2937 0.276023L17.7026 5.43052C17.8895 5.61067 17.9936 5.85427 17.9918 6.10762V18.0954Z" fill="#EBECF0"/>
  <path d="M17.9917 18.0955V19.048C17.9926 19.3006 17.8872 19.5431 17.699 19.7212C17.5116 19.8995 17.2576 19.9998 16.9927 20.0001H2.99793C2.44539 19.9995 1.99781 19.5725 1.99781 19.0461V18.0945C1.99673 18.347 2.10221 18.5894 2.29053 18.7672C2.47799 18.9455 2.73198 19.0458 2.99688 19.0461H16.9906C17.5425 19.0453 17.9897 18.6191 17.9904 18.0933L17.9917 18.0955Z" fill="#C1C7D0"/>
  <path d="M0 10.4771H19.9898V15.2397C19.989 15.7653 19.5427 16.1916 18.9911 16.1937H1.00128C0.73609 16.1946 0.481597 16.0942 0.294715 15.9149C0.106249 15.7361 0.000211124 15.4932 0 15.2397L0 10.4771Z" fill="#6AE5B9"/>
  <path d="M13.7451 11.3601H16.7529V12.2061H14.967V12.8936H16.4924V13.6885H14.967V15.2971H13.7451V11.3601Z" fill="#fff"/>
  <path d="M10.0767 11.3601H13.0845V12.2061H11.2986V12.8936H12.824V13.6885H11.2986V15.2971H10.0767V11.3601Z" fill="#fff"/>
  <path d="M7.97656 11.3601H9.1958V15.2971H7.97656V11.3601Z" fill="#fff"/>
  <path d="M6.06982 14.6472H4.68408L4.49341 15.2971H3.25L4.72974 11.3601H6.0564L7.53613 15.2971H6.26318L6.06982 14.6472ZM5.8147 13.7959L5.37964 12.3806L4.94727 13.7959H5.8147Z" fill="#fff"/>
  <path fill-rule="evenodd" clip-rule="evenodd" d="M2.00003 8.57153V10.4769H0L2.00003 8.57153ZM18.0108 8.57153L17.9918 10.4769H20L18.0108 8.57153Z" fill="#3F896F"/>
  <path d="M17.9917 6.10602V6.24002H12.5833C12.0303 6.24002 11.582 5.8129 11.582 5.28602V2.60677e-05C11.848 -0.00184785 12.1037 0.0973786 12.2926 0.275726L17.7099 5.42712C17.893 5.6097 17.9938 5.85337 17.9907 6.10592L17.9917 6.10602Z" fill="#C1C7D0"/>
</svg>
