<svg fill="none" xmlns="http://www.w3.org/2000/svg" viewBox="0 0 20 20" class="design-iconfont">
  <path d="M17.9918 18.0954C17.9928 18.3479 17.8874 18.5903 17.6992 18.7681C17.5118 18.9464 17.2578 19.0467 16.9929 19.047H2.9981C2.73292 19.0481 2.4784 18.9476 2.29175 18.7681C2.10466 18.5896 1.99941 18.3477 1.99903 18.0954V0.954022C1.99807 0.701333 2.10352 0.458832 2.29175 0.280823C2.47888 0.101794 2.73291 0.000807671 2.9981 2.33091e-05H11.5831C11.8491 -0.00174876 12.1048 0.0975848 12.2937 0.276023L17.7026 5.43052C17.8895 5.61067 17.9936 5.85427 17.9918 6.10762V18.0954Z" fill="#EBECF0"/>
  <path d="M17.9919 18.0955V19.048C17.9929 19.3006 17.8875 19.5431 17.6993 19.7212C17.5118 19.8995 17.2578 19.9998 16.9929 20.0001H2.99818C2.44564 19.9995 1.99805 19.5725 1.99806 19.0461V18.0945C1.99698 18.347 2.10245 18.5894 2.29078 18.7672C2.47823 18.9455 2.73222 19.0458 2.99713 19.0461H16.9908C17.5428 19.0453 17.99 18.6191 17.9906 18.0933L17.9919 18.0955Z" fill="#C1C7D0"/>
  <path d="M0 10.4771H19.9898V15.2397C19.989 15.7653 19.5427 16.1916 18.9911 16.1937H1.00128C0.73609 16.1946 0.481597 16.0942 0.294715 15.9149C0.106249 15.7361 0.000211124 15.4932 0 15.2397L0 10.4771Z" fill="#FF8FC9"/>
  <path fill-rule="evenodd" clip-rule="evenodd" d="M4.83463 14.7092H6.15682L6.34131 15.3H7.55589L6.14401 11.7209H4.87819L3.46631 15.3H4.6527L4.83463 14.7092ZM5.49829 12.6487L5.91339 13.9353H5.08574L5.49829 12.6487Z" fill="#fff"/>
  <path d="M7.91455 11.7209H9.44174L10.0311 13.8987L10.6179 11.7209H12.1399V15.3H11.1919V12.5706L10.4564 15.3H9.59804L8.8652 12.5706V15.3H7.91455V11.7209Z" fill="#fff"/>
  <path fill-rule="evenodd" clip-rule="evenodd" d="M12.896 11.7209V15.3H14.0619V13.8474H14.1644C14.2703 13.8474 14.3651 13.8751 14.4488 13.9304C14.5103 13.9727 14.5803 14.0647 14.6589 14.2063L15.279 15.3H16.591L16.0298 14.2625C16.0025 14.2104 15.9482 14.1363 15.8671 14.0403C15.7859 13.9443 15.724 13.8816 15.6813 13.8523C15.6181 13.8083 15.5173 13.7644 15.379 13.7205C15.5515 13.683 15.6873 13.6358 15.7864 13.5789C15.9418 13.4893 16.064 13.3726 16.1528 13.2285C16.2416 13.0845 16.286 12.9132 16.286 12.7146C16.286 12.4867 16.228 12.2935 16.1118 12.1348C15.9956 11.9761 15.8427 11.8674 15.6531 11.8088C15.4635 11.7502 15.1893 11.7209 14.8306 11.7209H12.896ZM14.5513 13.1711H14.0619V12.4436H14.5718C14.7836 12.4436 14.928 12.4745 15.0048 12.5364C15.0817 12.5982 15.1202 12.6869 15.1202 12.8025C15.1202 12.8806 15.0958 12.9498 15.0471 13.01C14.9984 13.0702 14.9357 13.1077 14.8588 13.1223C14.7068 13.1549 14.6043 13.1711 14.5513 13.1711Z" fill="#fff"/>
  <path fill-rule="evenodd" clip-rule="evenodd" d="M2.00003 8.57129V10.4767H0L2.00003 8.57129ZM18.0108 8.57129L17.9918 10.4767H20L18.0108 8.57129Z" fill="#995679"/>
  <path d="M17.9917 6.10602V6.24002H12.5833C12.0303 6.24002 11.582 5.8129 11.582 5.28602V2.60677e-05C11.848 -0.00184785 12.1037 0.0973786 12.2926 0.275726L17.7099 5.42712C17.893 5.6097 17.9938 5.85337 17.9907 6.10592L17.9917 6.10602Z" fill="#C1C7D0"/>
</svg>
