<svg fill="none" xmlns="http://www.w3.org/2000/svg" viewBox="0 0 20 20" class="design-iconfont">
  <path d="M17.9918 18.0954C17.9928 18.3479 17.8874 18.5903 17.6992 18.7681C17.5118 18.9464 17.2578 19.0467 16.9929 19.047H2.9981C2.73292 19.0481 2.4784 18.9476 2.29175 18.7681C2.10466 18.5896 1.99941 18.3477 1.99903 18.0954V0.954022C1.99807 0.701333 2.10352 0.458832 2.29175 0.280823C2.47888 0.101794 2.73291 0.000807671 2.9981 2.33091e-05H11.5831C11.8491 -0.00174876 12.1048 0.0975848 12.2937 0.276023L17.7026 5.43052C17.8895 5.61067 17.9936 5.85427 17.9918 6.10762V18.0954Z" fill="#EBECF0"/>
  <path d="M17.9917 18.0955V19.048C17.9926 19.3006 17.8872 19.5431 17.699 19.7212C17.5116 19.8995 17.2576 19.9998 16.9927 20.0001H2.99793C2.44539 19.9995 1.99781 19.5725 1.99781 19.0461V18.0945C1.99673 18.347 2.10221 18.5894 2.29053 18.7672C2.47799 18.9455 2.73198 19.0458 2.99688 19.0461H16.9906C17.5425 19.0453 17.9897 18.6191 17.9904 18.0933L17.9917 18.0955Z" fill="#C1C7D0"/>
  <path d="M0 10.4771H19.9898V15.2397C19.989 15.7653 19.5427 16.1916 18.9911 16.1937H1.00128C0.73609 16.1946 0.481597 16.0942 0.294715 15.9149C0.106249 15.7361 0.000211124 15.4932 0 15.2397L0 10.4771Z" fill="#85BDFF"/>
  <path d="M13.0667 11.3601H15.0889C15.5293 11.3601 15.8587 11.4648 16.0771 11.6743C16.2974 11.8838 16.4075 12.1819 16.4075 12.5686C16.4075 12.9661 16.2875 13.2767 16.0476 13.5005C15.8095 13.7243 15.4451 13.8362 14.9546 13.8362H14.2886V15.2971H13.0667V11.3601ZM14.2886 13.0386H14.5867C14.8212 13.0386 14.9859 12.9983 15.0808 12.9177C15.1757 12.8354 15.2231 12.7306 15.2231 12.6035C15.2231 12.48 15.182 12.3752 15.0996 12.2893C15.0173 12.2034 14.8624 12.1604 14.635 12.1604H14.2886V13.0386Z" fill="#fff"/>
  <path d="M7.86475 11.3601H9.46533L10.083 13.7556L10.698 11.3601H12.2932V15.2971H11.2996V12.2947L10.5288 15.2971H9.62915L8.86108 12.2947V15.2971H7.86475V11.3601Z" fill="#fff"/>
  <path d="M3.6001 11.3601H5.87744C6.257 11.3601 6.54793 11.4541 6.75024 11.6421C6.95435 11.8301 7.0564 12.0628 7.0564 12.3403C7.0564 12.5731 6.98389 12.7727 6.83887 12.9392C6.74219 13.0502 6.60075 13.1379 6.41455 13.2024C6.69743 13.2704 6.90511 13.3877 7.0376 13.5542C7.17188 13.7189 7.23901 13.9266 7.23901 14.1772C7.23901 14.3813 7.19157 14.5649 7.09668 14.7278C7.00179 14.8907 6.87199 15.0196 6.70728 15.1145C6.60522 15.1736 6.45125 15.2166 6.24536 15.2434C5.97144 15.2792 5.78971 15.2971 5.7002 15.2971H3.6001V11.3601ZM4.82739 12.9043H5.35645C5.54622 12.9043 5.67782 12.8721 5.75122 12.8076C5.82642 12.7414 5.86401 12.6465 5.86401 12.5229C5.86401 12.4084 5.82642 12.3188 5.75122 12.2544C5.67782 12.1899 5.54891 12.1577 5.3645 12.1577H4.82739V12.9043ZM4.82739 14.4512H5.44775C5.65723 14.4512 5.80493 14.4145 5.89087 14.3411C5.97681 14.2659 6.01978 14.1656 6.01978 14.0403C6.01978 13.9239 5.97681 13.8308 5.89087 13.761C5.80672 13.6894 5.65812 13.6536 5.44507 13.6536H4.82739V14.4512Z" fill="#fff"/>
  <path fill-rule="evenodd" clip-rule="evenodd" d="M2.00003 8.57129V10.4767H0L2.00003 8.57129ZM18.0108 8.57129L17.9918 10.4767H20.0001L18.0108 8.57129Z" fill="#4F7199"/>
  <path d="M17.9917 6.10602V6.24002H12.5833C12.0303 6.24002 11.582 5.8129 11.582 5.28602V2.60677e-05C11.848 -0.00184785 12.1037 0.0973786 12.2926 0.275726L17.7099 5.42712C17.893 5.6097 17.9938 5.85337 17.9907 6.10592L17.9917 6.10602Z" fill="#C1C7D0"/>
</svg>
