<svg fill="none" xmlns="http://www.w3.org/2000/svg" viewBox="0 0 20 20" class="design-iconfont">
  <path d="M17.9853 18.1C17.9853 18.35 17.8804 18.59 17.6915 18.77C17.5026 18.95 17.2508 19.05 16.9885 19.05H3.00106C2.73873 19.05 2.4764 18.95 2.29802 18.77C2.10914 18.59 2.00421 18.35 2.00421 18.1V0.95C2.00421 0.7 2.10914 0.45 2.29802 0.28C2.4764 0.1 2.73873 0 3.00106 0H11.5845C11.8468 0 12.1091 0.1 12.298 0.28L17.702 5.43C17.8909 5.61 17.9958 5.85 17.9958 6.11V18.1H17.9853Z" fill="#EBECF0"/>
  <path d="M17.9853 18.1V19.05C17.9853 19.3 17.8804 19.55 17.6915 19.72C17.5026 19.9 17.2508 20 16.9885 20H3.00106C2.44492 20 2.00421 19.57 2.00421 19.05V18.1C2.00421 18.35 2.10914 18.59 2.29802 18.77C2.4869 18.95 2.73873 19.05 3.00106 19.05H16.9885C17.5446 19.05 17.9853 18.62 17.9853 18.1Z" fill="#C1C7D0"/>
  <path d="M0 10.48H19.9895V15.24C19.9895 15.77 19.5383 16.19 18.9927 16.19H1.00735C0.745016 16.19 0.482686 16.09 0.304302 15.91C0.115425 15.73 0.0104932 15.49 0.0104932 15.23V10.48H0Z" fill="#3980FC"/>
  <path fill-rule="evenodd" clip-rule="evenodd" d="M5.71153 11.561H3.98743V15.1401H5.71153C5.91818 15.1401 6.14874 15.1076 6.40321 15.0425C6.58937 14.9953 6.76358 14.9005 6.92582 14.7581C7.08807 14.6156 7.21488 14.439 7.30625 14.2283C7.39762 14.0175 7.44331 13.7209 7.44331 13.3384C7.44331 13.0942 7.41257 12.8631 7.35109 12.645C7.2896 12.4269 7.19054 12.2357 7.05392 12.0713C6.91728 11.9069 6.74436 11.7808 6.53515 11.6929C6.32593 11.605 6.05139 11.561 5.71153 11.561ZM5.14793 14.3271V12.3716H5.43741C5.738 12.3716 5.95319 12.4416 6.08299 12.5815C6.21279 12.7215 6.27769 12.9811 6.27769 13.3604C6.27769 13.6468 6.24865 13.8539 6.19058 13.9817C6.13252 14.1095 6.05225 14.199 5.94977 14.2502C5.8473 14.3015 5.67481 14.3271 5.43229 14.3271H5.14793Z" fill="#fff"/>
  <path fill-rule="evenodd" clip-rule="evenodd" d="M8.41934 11.9883C8.07777 12.3138 7.90698 12.7687 7.90698 13.353C7.90698 13.7713 7.99323 14.1196 8.16573 14.3979C8.33822 14.6763 8.56323 14.8797 8.84076 15.0083C9.11829 15.1369 9.46883 15.2012 9.89239 15.2012C10.3091 15.2012 10.6571 15.1267 10.9363 14.9778C11.2156 14.8289 11.429 14.6205 11.5768 14.3528C11.7245 14.085 11.7984 13.742 11.7984 13.3237C11.7984 12.7476 11.6293 12.2996 11.2911 11.9797C10.953 11.6599 10.4714 11.5 9.84627 11.5C9.23656 11.5 8.76092 11.6628 8.41934 11.9883ZM9.27883 14.1367C9.13793 13.9788 9.06748 13.7192 9.06748 13.3579C9.06748 12.9933 9.13836 12.7321 9.28011 12.5742C9.42187 12.4163 9.60973 12.3374 9.84371 12.3374C10.0879 12.3374 10.2814 12.4151 10.424 12.5706C10.5666 12.726 10.6379 12.9722 10.6379 13.3091C10.6379 13.7095 10.5696 13.987 10.4329 14.1416C10.2963 14.2962 10.1033 14.3735 9.85396 14.3735C9.61144 14.3735 9.41973 14.2946 9.27883 14.1367Z" fill="#fff"/>
  <path d="M14.9238 13.6777L15.9409 13.9707C15.8725 14.2425 15.765 14.4696 15.6181 14.6519C15.4712 14.8341 15.2889 14.9717 15.0711 15.0645C14.8534 15.1572 14.5763 15.2036 14.2398 15.2036C13.8316 15.2036 13.4982 15.1471 13.2394 15.0339C12.9807 14.9208 12.7574 14.7218 12.5695 14.437C12.3817 14.1522 12.2877 13.7876 12.2877 13.3433C12.2877 12.7508 12.453 12.2955 12.7834 11.9773C13.1139 11.6591 13.5814 11.5 14.186 11.5C14.6591 11.5 15.031 11.5911 15.3017 11.7734C15.5724 11.9557 15.7735 12.2357 15.905 12.6133L14.8803 12.8306C14.8444 12.7215 14.8068 12.6418 14.7676 12.5913C14.7027 12.5067 14.6232 12.4416 14.5293 12.396C14.4354 12.3504 14.3303 12.3276 14.2142 12.3276C13.9512 12.3276 13.7497 12.4285 13.6096 12.6304C13.5037 12.7801 13.4508 13.0153 13.4508 13.3359C13.4508 13.7331 13.514 14.0053 13.6404 14.1526C13.7667 14.2999 13.9444 14.3735 14.1732 14.3735C14.3952 14.3735 14.563 14.3141 14.6766 14.1953C14.7902 14.0765 14.8726 13.904 14.9238 13.6777Z" fill="#fff"/>
  <path fill-rule="evenodd" clip-rule="evenodd" d="M2.0042 8.56995V10.4799H0L2.0042 8.56995ZM18.0063 8.56995L17.9853 10.4799H20L18.0063 8.56995Z" fill="#224C97"/>
  <path d="M17.9853 6.11V6.24H12.5813C12.0252 6.24 11.5845 5.81 11.5845 5.29V0C11.8468 0 12.1091 0.1 12.298 0.28L17.7125 5.43C17.8909 5.61 17.9958 5.85 17.9853 6.11V6.11Z" fill="#C1C7D0"/>
</svg>
