<svg fill="none" xmlns="http://www.w3.org/2000/svg" viewBox="0 0 20 20" class="design-iconfont">
  <path d="M17.9853 18.1C17.9853 18.35 17.8804 18.59 17.6915 18.77C17.5026 18.95 17.2508 19.05 16.9885 19.05H3.00106C2.73873 19.05 2.4764 18.95 2.29802 18.77C2.10914 18.59 2.00421 18.35 2.00421 18.1V0.95C2.00421 0.7 2.10914 0.45 2.29802 0.28C2.4764 0.1 2.73873 0 3.00106 0H11.5845C11.8468 0 12.1091 0.1 12.298 0.28L17.702 5.43C17.8909 5.61 17.9958 5.85 17.9958 6.11V18.1H17.9853Z" fill="#EBECF0"/>
  <path d="M17.9853 18.1V19.05C17.9853 19.3 17.8804 19.55 17.6915 19.72C17.5026 19.9 17.2508 20 16.9885 20H3.00106C2.44492 20 2.00421 19.57 2.00421 19.05V18.1C2.00421 18.35 2.10914 18.59 2.29802 18.77C2.4869 18.95 2.73873 19.05 3.00106 19.05H16.9885C17.5446 19.05 17.9853 18.62 17.9853 18.1Z" fill="#C1C7D0"/>
  <path d="M0 10.48H19.9895V15.24C19.9895 15.77 19.5383 16.19 18.9927 16.19H1.00735C0.745016 16.19 0.482686 16.09 0.304302 15.91C0.115425 15.73 0.0104932 15.49 0.0104932 15.23V10.48H0Z" fill="#3980FC"/>
  <path fill-rule="evenodd" clip-rule="evenodd" d="M3.61289 11.561H1.88879V15.1401H3.61289C3.81955 15.1401 4.05011 15.1076 4.30458 15.0425C4.49074 14.9953 4.66494 14.9005 4.82719 14.7581C4.98944 14.6156 5.11625 14.439 5.20762 14.2283C5.29899 14.0175 5.34468 13.7209 5.34468 13.3384C5.34468 13.0942 5.31394 12.8631 5.25245 12.645C5.19097 12.4269 5.09191 12.2357 4.95528 12.0713C4.81865 11.9069 4.64573 11.7808 4.43652 11.6929C4.2273 11.605 3.95276 11.561 3.61289 11.561ZM3.04929 14.3271V12.3716H3.33878C3.63936 12.3716 3.85456 12.4416 3.98435 12.5815C4.11415 12.7215 4.17905 12.9811 4.17905 13.3604C4.17905 13.6468 4.15002 13.8539 4.09195 13.9817C4.03388 14.1095 3.95361 14.199 3.85114 14.2502C3.74867 14.3015 3.57617 14.3271 3.33365 14.3271H3.04929Z" fill="#fff"/>
  <path fill-rule="evenodd" clip-rule="evenodd" d="M6.32071 11.9883C5.97914 12.3138 5.80835 12.7687 5.80835 13.353C5.80835 13.7713 5.8946 14.1196 6.06709 14.3979C6.23959 14.6763 6.4646 14.8797 6.74213 15.0083C7.01966 15.1369 7.3702 15.2012 7.79375 15.2012C8.21047 15.2012 8.55845 15.1267 8.83769 14.9778C9.11693 14.8289 9.33041 14.6205 9.47814 14.3528C9.62588 14.085 9.69974 13.742 9.69974 13.3237C9.69974 12.7476 9.53066 12.2996 9.1925 11.9797C8.85434 11.6599 8.37272 11.5 7.74764 11.5C7.13793 11.5 6.66229 11.6628 6.32071 11.9883ZM7.1802 14.1367C7.0393 13.9788 6.96885 13.7192 6.96885 13.3579C6.96885 12.9933 7.03973 12.7321 7.18148 12.5742C7.32323 12.4163 7.5111 12.3374 7.74508 12.3374C7.9893 12.3374 8.18272 12.4151 8.32533 12.5706C8.46794 12.726 8.53924 12.9722 8.53924 13.3091C8.53924 13.7095 8.47092 13.987 8.3343 14.1416C8.19766 14.2962 8.00468 14.3735 7.75533 14.3735C7.51281 14.3735 7.3211 14.2946 7.1802 14.1367Z" fill="#fff"/>
  <path d="M12.8252 13.6777L13.8422 13.9707C13.7739 14.2425 13.6663 14.4696 13.5194 14.6519C13.3726 14.8341 13.1902 14.9717 12.9725 15.0645C12.7547 15.1572 12.4776 15.2036 12.1412 15.2036C11.733 15.2036 11.3995 15.1471 11.1408 15.0339C10.8821 14.9208 10.6588 14.7218 10.4709 14.437C10.283 14.1522 10.1891 13.7876 10.1891 13.3433C10.1891 12.7508 10.3543 12.2955 10.6848 11.9773C11.0153 11.6591 11.4828 11.5 12.0874 11.5C12.5605 11.5 12.9324 11.5911 13.2031 11.7734C13.4738 11.9557 13.6749 12.2357 13.8064 12.6133L12.7816 12.8306C12.7458 12.7215 12.7082 12.6418 12.6689 12.5913C12.604 12.5067 12.5246 12.4416 12.4307 12.396C12.3367 12.3504 12.2317 12.3276 12.1156 12.3276C11.8526 12.3276 11.651 12.4285 11.511 12.6304C11.4051 12.7801 11.3521 13.0153 11.3521 13.3359C11.3521 13.7331 11.4153 14.0053 11.5417 14.1526C11.6681 14.2999 11.8457 14.3735 12.0746 14.3735C12.2966 14.3735 12.4644 14.3141 12.578 14.1953C12.6915 14.0765 12.774 13.904 12.8252 13.6777Z" fill="#fff"/>
  <path d="M14.1471 11.561H15.4254L16.0915 12.6621L16.7371 11.561H18.0026L16.8344 13.2944L18.1128 15.1401H16.8088L16.0684 13.9902L15.3255 15.1401H14.0292L15.3255 13.2749L14.1471 11.561Z" fill="#fff"/>
  <path fill-rule="evenodd" clip-rule="evenodd" d="M2.0042 8.56995V10.4799H0L2.0042 8.56995ZM18.0063 8.56995L17.9853 10.4799H20L18.0063 8.56995Z" fill="#224C97"/>
  <path d="M17.9853 6.11V6.24H12.5813C12.0252 6.24 11.5845 5.81 11.5845 5.29V0C11.8468 0 12.1091 0.1 12.298 0.28L17.7125 5.43C17.8909 5.61 17.9958 5.85 17.9853 6.11V6.11Z" fill="#C1C7D0"/>
</svg>
