<svg fill="none" xmlns="http://www.w3.org/2000/svg" viewBox="0 0 20 20" class="design-iconfont">
  <path d="M17.9918 18.0954C17.9928 18.3479 17.8874 18.5903 17.6992 18.7681C17.5118 18.9464 17.2578 19.0467 16.9929 19.047H2.9981C2.73292 19.0481 2.4784 18.9476 2.29175 18.7681C2.10466 18.5896 1.99941 18.3477 1.99903 18.0954V0.954022C1.99807 0.701333 2.10352 0.458832 2.29175 0.280823C2.47888 0.101794 2.73291 0.000807671 2.9981 2.33091e-05H11.5831C11.8491 -0.00174876 12.1048 0.0975848 12.2937 0.276023L17.7026 5.43052C17.8895 5.61067 17.9936 5.85427 17.9918 6.10762V18.0954Z" fill="#EBECF0"/>
  <path d="M17.9918 18.0955V19.048C17.9928 19.3006 17.8874 19.5431 17.6992 19.7212C17.5117 19.8995 17.2577 19.9998 16.9928 20.0001H2.99805C2.44552 19.9995 1.99793 19.5725 1.99793 19.0461V18.0945C1.99686 18.347 2.10233 18.5894 2.29065 18.7672C2.47811 18.9455 2.7321 19.0458 2.997 19.0461H16.9907C17.5426 19.0453 17.9898 18.6191 17.9905 18.0933L17.9918 18.0955Z" fill="#C1C7D0"/>
  <path d="M0 10.4771H19.9898V15.2397C19.989 15.7653 19.5427 16.1916 18.9911 16.1937H1.00128C0.73609 16.1946 0.481597 16.0942 0.294715 15.9149C0.106249 15.7361 0.000211124 15.4932 0 15.2397L0 10.4771Z" fill="#6AE5B9"/>
  <path d="M16.5734 13.6956L17.6395 14.0178C17.5679 14.3168 17.4551 14.5666 17.3011 14.7671C17.1472 14.9676 16.9556 15.1189 16.7264 15.2209C16.4991 15.323 16.209 15.374 15.8563 15.374C15.4284 15.374 15.0784 15.3123 14.8063 15.1887C14.5359 15.0634 14.3023 14.8441 14.1053 14.5308C13.9084 14.2174 13.8099 13.8164 13.8099 13.3276C13.8099 12.6759 13.9827 12.1755 14.3282 11.8264C14.6756 11.4755 15.1661 11.3 15.7999 11.3C16.2959 11.3 16.6853 11.4003 16.9681 11.6008C17.2528 11.8014 17.4641 12.1093 17.6019 12.5247L16.5277 12.7637C16.4901 12.6437 16.4507 12.556 16.4095 12.5005C16.3415 12.4074 16.2583 12.3358 16.1598 12.2856C16.0613 12.2355 15.9512 12.2104 15.8295 12.2104C15.5538 12.2104 15.3425 12.3215 15.1957 12.5435C15.0847 12.7082 15.0292 12.9669 15.0292 13.3196C15.0292 13.7564 15.0954 14.0563 15.2279 14.2192C15.3604 14.3804 15.5466 14.4609 15.7865 14.4609C16.0192 14.4609 16.1947 14.3956 16.3129 14.2649C16.4328 14.1342 16.5197 13.9444 16.5734 13.6956Z" fill="#fff"/>
  <path d="M12.0939 14.6543H10.7081L10.5175 15.3042H9.27405L10.7538 11.3672H12.0804L13.5602 15.3042H12.2872L12.0939 14.6543ZM11.8387 13.803L11.4037 12.3877L10.9713 13.803H11.8387Z" fill="#fff"/>
  <path d="M6.00305 11.3672H7.2196V14.3347H9.11829V15.3042H6.00305V11.3672Z" fill="#fff"/>
  <path d="M2.33997 11.3672H5.34778V12.2131H3.56189V12.9006H5.08728V13.6956H3.56189V15.3042H2.33997V11.3672Z" fill="#fff"/>
  <path fill-rule="evenodd" clip-rule="evenodd" d="M2.00003 8.57141V10.4768H0L2.00003 8.57141ZM18.0108 8.57141L17.9918 10.4768H20L18.0108 8.57141Z" fill="#3F896F"/>
  <path d="M17.9918 6.10602V6.24002H12.5834C12.0304 6.24002 11.5822 5.8129 11.5822 5.28602V2.60677e-05C11.8481 -0.00184785 12.1038 0.0973786 12.2927 0.275726L17.71 5.42712C17.8931 5.6097 17.994 5.85337 17.9908 6.10592L17.9918 6.10602Z" fill="#C1C7D0"/>
</svg>
