<svg fill="none" xmlns="http://www.w3.org/2000/svg" viewBox="0 0 16 16" class="design-iconfont">
  <path fill="#626262" d="M8 0A8 8 0 1 0 8 16A8 8 0 1 0 8 0Z"/>
  <path fill-rule="evenodd" clip-rule="evenodd" d="M11.4281 5.1888C11.5978 5.01909 11.5978 4.74148 11.4281 4.57177C11.2584 4.40206 10.9808 4.40206 10.8123 4.57056L7.99983 7.38305L5.18877 4.57199C5.01906 4.40227 4.74146 4.40227 4.57174 4.57199C4.40203 4.7417 4.40203 5.0193 4.57174 5.18901L7.3828 8.00007L4.57174 10.8111C4.40203 10.9808 4.40203 11.2584 4.57174 11.4282C4.74146 11.5979 5.01906 11.5979 5.18877 11.4282L7.99983 8.6171L10.8111 11.4284C10.9808 11.5981 11.2584 11.5981 11.4281 11.4284C11.5978 11.2587 11.5978 10.9811 11.4293 10.8126L8.61686 8.00007L11.4281 5.1888Z" fill="#fff"/>
</svg>
