<svg fill="none" xmlns="http://www.w3.org/2000/svg" viewBox="0 0 20 20" class="design-iconfont">
  <path d="M17.9853 18.1C17.9853 18.35 17.8803 18.59 17.6915 18.77C17.5026 18.95 17.2507 19.05 16.9884 19.05H3.001C2.73867 19.05 2.47634 18.95 2.29796 18.77C2.10908 18.59 2.00415 18.35 2.00415 18.1V0.95C2.00415 0.7 2.10908 0.45 2.29796 0.28C2.47634 0.1 2.73867 0 3.001 0H11.5844C11.8468 0 12.1091 0.1 12.298 0.28L17.7019 5.43C17.8908 5.61 17.9958 5.85 17.9958 6.11V18.1H17.9853Z" fill="#EBECF0"/>
  <path d="M17.9853 18.1001V19.0501C17.9853 19.3001 17.8803 19.5501 17.6915 19.7201C17.5026 19.9001 17.2507 20.0001 16.9884 20.0001H3.001C2.44486 20.0001 2.00415 19.5701 2.00415 19.0501V18.1001C2.00415 18.3501 2.10908 18.5901 2.29796 18.7701C2.48684 18.9501 2.73867 19.0501 3.001 19.0501H16.9884C17.5445 19.0501 17.9853 18.6201 17.9853 18.1001Z" fill="#C1C7D0"/>
  <path d="M0 10.48H19.9895V15.24C19.9895 15.77 19.5383 16.19 18.9927 16.19H1.00735C0.745016 16.19 0.482686 16.09 0.304302 15.91C0.115425 15.73 0.0104932 15.49 0.0104932 15.23V10.48H0Z" fill="#26B99A"/>
  <path fill-rule="evenodd" clip-rule="evenodd" d="M2.0042 8.57007V10.4801H0L2.0042 8.57007ZM18.0063 8.57007L17.9853 10.4801H20L18.0063 8.57007Z" fill="#109978"/>
  <path d="M17.9853 6.11V6.24H12.5813C12.0252 6.24 11.5845 5.81 11.5845 5.29V0C11.8468 0 12.1091 0.1 12.298 0.28L17.7125 5.43C17.8909 5.61 17.9958 5.85 17.9853 6.11V6.11Z" fill="#C1C7D0"/>
  <path fill-rule="evenodd" clip-rule="evenodd" d="M17.5347 15.1999V13.1699V13.1599H15.8033V13.9599H16.3699C16.2755 14.1999 16.0551 14.3399 15.7193 14.3799C15.1842 14.3799 14.9114 14.0499 14.9009 13.3799C14.9114 12.6699 15.1527 12.3099 15.6354 12.2999C15.9817 12.2999 16.202 12.4499 16.286 12.7599H17.5032C17.3038 11.8799 16.6847 11.4299 15.6459 11.3999C14.3657 11.4599 13.6942 12.1199 13.6207 13.3899C13.6627 14.5799 14.2923 15.2099 15.499 15.2599C16.0236 15.2599 16.4224 15.1199 16.6742 14.8399L16.7162 15.1999H17.5347ZM2.21461 13.5899H3.34788C3.3164 14.1399 3.43182 14.4099 3.68366 14.3899C3.89352 14.3799 3.99845 14.2199 3.99845 13.9299V11.4999H5.25764V13.7699C5.25764 14.7599 4.75396 15.2599 3.73612 15.2599C2.63434 15.2399 2.12018 14.6899 2.21461 13.5899ZM7.23035 15.1999H5.97117V11.5099H7.82846C8.90926 11.5199 9.4654 11.9399 9.49688 12.7499C9.48639 13.6099 8.94074 14.0399 7.87044 14.0499H7.24085V15.1999H7.23035ZM7.75501 13.1899H7.23035V12.3699H7.58712C8.03833 12.3699 8.25869 12.4999 8.25869 12.7499C8.25869 13.0399 8.09079 13.1899 7.75501 13.1899ZM13.1695 15.1999H9.9271V11.5099H13.1065V12.3699H11.2073V12.8899H12.8127V13.7499H11.2073V14.3299H13.1695V15.1999Z" fill="#fff"/>
</svg>
