<svg fill="none" xmlns="http://www.w3.org/2000/svg" viewBox="0 0 20 20" class="design-iconfont">
  <path d="M17.9918 18.0954C17.9928 18.3479 17.8874 18.5903 17.6992 18.7681C17.5118 18.9464 17.2578 19.0467 16.9929 19.047H2.9981C2.73292 19.0481 2.4784 18.9476 2.29175 18.7681C2.10466 18.5896 1.99941 18.3477 1.99903 18.0954V0.954022C1.99807 0.701333 2.10352 0.458832 2.29175 0.280823C2.47888 0.101794 2.73291 0.000807671 2.9981 2.33091e-05H11.5831C11.8491 -0.00174876 12.1048 0.0975848 12.2937 0.276023L17.7026 5.43052C17.8895 5.61067 17.9936 5.85427 17.9918 6.10762V18.0954Z" fill="#EBECF0"/>
  <path d="M17.9917 18.0955V19.048C17.9926 19.3006 17.8872 19.5431 17.699 19.7212C17.5116 19.8995 17.2576 19.9998 16.9927 20.0001H2.99793C2.44539 19.9995 1.99781 19.5725 1.99781 19.0461V18.0945C1.99673 18.347 2.10221 18.5894 2.29053 18.7672C2.47799 18.9455 2.73198 19.0458 2.99688 19.0461H16.9906C17.5425 19.0453 17.9897 18.6191 17.9904 18.0933L17.9917 18.0955Z" fill="#C1C7D0"/>
  <path d="M0 10.4771H19.9898V15.2397C19.989 15.7653 19.5427 16.1916 18.9911 16.1937H1.00128C0.73609 16.1946 0.481597 16.0942 0.294715 15.9149C0.106249 15.7361 0.000211124 15.4932 0 15.2397L0 10.4771Z" fill="#26B99A"/>
  <path d="M6.26594 11.561H7.42926V13.5068C7.42926 13.9154 7.39126 14.2262 7.31524 14.4395C7.23922 14.6527 7.08633 14.8333 6.85657 14.9814C6.62681 15.1296 6.33256 15.2036 5.97383 15.2036C5.59459 15.2036 5.30077 15.1548 5.09236 15.0571C4.88395 14.9595 4.72295 14.8167 4.60935 14.6287C4.49575 14.4407 4.4287 14.2083 4.4082 13.9316L5.51772 13.7876C5.51943 13.9455 5.53395 14.0627 5.56128 14.1392C5.58861 14.2157 5.63474 14.2775 5.69965 14.3247C5.74406 14.3556 5.80727 14.3711 5.88927 14.3711C6.01909 14.3711 6.11433 14.3251 6.17497 14.2332C6.23562 14.1412 6.26594 13.9862 6.26594 13.7681V11.561Z" fill="#fff"/>
  <path fill-rule="evenodd" clip-rule="evenodd" d="M10.1275 11.561H8.198V15.1401H9.36389V13.812H9.99936C10.4674 13.812 10.8155 13.7103 11.0435 13.5068C11.2716 13.3034 11.3856 13.021 11.3856 12.6597C11.3856 12.3081 11.281 12.0371 11.0717 11.8467C10.8625 11.6562 10.5477 11.561 10.1275 11.561ZM9.64831 13.0869H9.36389V12.2886H9.69444C9.91139 12.2886 10.0591 12.3276 10.1377 12.4058C10.2163 12.4839 10.2556 12.5791 10.2556 12.6914C10.2556 12.807 10.2103 12.9018 10.1198 12.9758C10.0293 13.0499 9.8721 13.0869 9.64831 13.0869Z" fill="#fff"/>
  <path d="M13.8813 13.8438V13.0991H15.675V14.625C15.3317 14.848 15.028 14.9998 14.7641 15.0803C14.5002 15.1609 14.1871 15.2012 13.825 15.2012C13.3791 15.2012 13.0157 15.1287 12.7347 14.9839C12.4537 14.839 12.2359 14.6234 12.0813 14.3369C11.9267 14.0505 11.8494 13.7217 11.8494 13.3506C11.8494 12.96 11.9339 12.6202 12.103 12.3313C12.2722 12.0424 12.5199 11.8231 12.8461 11.6733C13.1007 11.5578 13.4432 11.5 13.8737 11.5C14.2888 11.5 14.5992 11.5358 14.8051 11.6074C15.0109 11.679 15.1818 11.7901 15.3176 11.9407C15.4534 12.0912 15.5554 12.2821 15.6238 12.5132L14.504 12.7036C14.4579 12.5685 14.3797 12.4652 14.2695 12.3936C14.1594 12.3219 14.0189 12.2861 13.848 12.2861C13.5935 12.2861 13.3906 12.3704 13.2395 12.5388C13.0883 12.7073 13.0127 12.9738 13.0127 13.3384C13.0127 13.7257 13.0891 14.0024 13.242 14.1685C13.3949 14.3345 13.608 14.4175 13.8813 14.4175C14.0112 14.4175 14.135 14.3996 14.2529 14.3638C14.3708 14.328 14.5057 14.2669 14.6577 14.1807V13.8438H13.8813Z" fill="#fff"/>
  <path fill-rule="evenodd" clip-rule="evenodd" d="M2.00003 8.57153V10.4769H0L2.00003 8.57153ZM18.0108 8.57153L17.9918 10.4769H20L18.0108 8.57153Z" fill="#0C8C73"/>
  <path d="M17.9917 6.10602V6.24002H12.5833C12.0303 6.24002 11.582 5.8129 11.582 5.28602V2.60677e-05C11.848 -0.00184785 12.1037 0.0973786 12.2926 0.275726L17.7099 5.42712C17.893 5.6097 17.9938 5.85337 17.9907 6.10592L17.9917 6.10602Z" fill="#C1C7D0"/>
</svg>
