<svg xmlns="http://www.w3.org/2000/svg" fill="none" viewBox="0 0 20.00030518 20.00018311" class="design-iconfont">
  <path d="M10.0002 0.000183105C15.523 0.000183105 20.0002 4.47734 20.0002 10.0002C20.0002 15.523 15.523 20.0002 10.0002 20.0002C4.47734 20.0002 0.000183105 15.523 0.000183105 10.0002C0.000183105 4.47734 4.47734 0.000183105 10.0002 0.000183105ZM10.0002 3.33335C13.6821 3.33335 16.6669 6.31812 16.6669 10C16.6669 13.6819 13.6821 16.6667 10.0002 16.6667C6.31832 16.6667 3.33355 13.6819 3.33355 10C3.33355 6.31812 6.31832 3.33335 10.0002 3.33335Z" fill-rule="evenodd" fill="#D8D8D8"/>
  <path d="M10 16.6667C10.9205 16.6667 11.6667 17.4129 11.6667 18.3333C11.6667 19.2538 10.9205 20 10 20C4.47717 20 2.00272e-05 15.5228 2.00272e-05 10C2.00272e-05 9.07952 0.746212 8.33333 1.66669 8.33333C2.58716 8.33333 3.33335 9.07952 3.33335 10C3.33335 13.6819 6.31812 16.6667 10 16.6667Z" fill-rule="evenodd" fill="#0091FF"/>
</svg>
