<svg fill="none" xmlns="http://www.w3.org/2000/svg" viewBox="0 0 20 20" class="design-iconfont">
  <path d="M17.9853 18.1C17.9853 18.35 17.8804 18.59 17.6915 18.77C17.5026 18.95 17.2508 19.05 16.9885 19.05H3.00106C2.73873 19.05 2.4764 18.95 2.29802 18.77C2.10914 18.59 2.00421 18.35 2.00421 18.1V0.95C2.00421 0.7 2.10914 0.45 2.29802 0.28C2.4764 0.1 2.73873 0 3.00106 0H11.5845C11.8468 0 12.1091 0.1 12.298 0.28L17.702 5.43C17.8909 5.61 17.9958 5.85 17.9958 6.11V18.1H17.9853Z" fill="#EBECF0"/>
  <path d="M17.9853 18.1V19.05C17.9853 19.3 17.8804 19.55 17.6915 19.72C17.5026 19.9 17.2508 20 16.9885 20H3.00106C2.44492 20 2.00421 19.57 2.00421 19.05V18.1C2.00421 18.35 2.10914 18.59 2.29802 18.77C2.4869 18.95 2.73873 19.05 3.00106 19.05H16.9885C17.5446 19.05 17.9853 18.62 17.9853 18.1Z" fill="#C1C7D0"/>
  <path d="M0 10.48H19.9895V15.24C19.9895 15.77 19.5383 16.19 18.9927 16.19H1.00735C0.745016 16.19 0.482686 16.09 0.304302 15.91C0.115425 15.73 0.0104932 15.49 0.0104932 15.23V10.48H0Z" fill="#F0BA43"/>
  <path d="M4.19727 11.561H5.72411L6.31332 13.7388L6.89998 11.561H8.42169V15.1401H7.47382V12.4106L6.73858 15.1401H5.88038L5.1477 12.4106V15.1401H4.19727V11.561Z" fill="#fff"/>
  <path fill-rule="evenodd" clip-rule="evenodd" d="M11.086 11.561H9.15692V15.1401H10.3225V13.812H10.9579C11.4258 13.812 11.7738 13.7103 12.0018 13.5068C12.2298 13.3034 12.3438 13.021 12.3438 12.6597C12.3438 12.3081 12.2392 12.0371 12.03 11.8467C11.8208 11.6562 11.5061 11.561 11.086 11.561ZM10.6069 13.0869H10.3225V12.2886H10.653C10.8699 12.2886 11.0177 12.3276 11.0962 12.4058C11.1748 12.4839 11.2141 12.5791 11.2141 12.6914C11.2141 12.807 11.1688 12.9018 11.0783 12.9758C10.9878 13.0499 10.8306 13.0869 10.6069 13.0869Z" fill="#fff"/>
  <path d="M13.7938 12.5962L12.8075 12.4277C12.8895 12.1283 13.047 11.8988 13.2802 11.7393C13.5133 11.5798 13.8433 11.5 14.2703 11.5C14.7605 11.5 15.1149 11.5871 15.3335 11.7612C15.5521 11.9354 15.6614 12.1543 15.6614 12.418C15.6614 12.5726 15.617 12.7126 15.5282 12.8379C15.4394 12.9632 15.3053 13.0731 15.126 13.1675C15.2711 13.2017 15.3821 13.2415 15.459 13.2871C15.5837 13.3604 15.6806 13.4568 15.7498 13.5764C15.8189 13.696 15.8535 13.8389 15.8535 14.0049C15.8535 14.2132 15.7963 14.413 15.6819 14.6042C15.5674 14.7955 15.4026 14.9428 15.1874 15.0461C14.9722 15.1495 14.6896 15.2012 14.3395 15.2012C13.9979 15.2012 13.7285 15.1629 13.5312 15.0864C13.334 15.0099 13.1717 14.898 13.0445 14.7507C12.9173 14.6034 12.8195 14.4183 12.7512 14.1953L13.7938 14.0635C13.8348 14.2637 13.8984 14.4024 13.9847 14.4797C14.0709 14.557 14.1807 14.5957 14.3139 14.5957C14.4539 14.5957 14.5705 14.5469 14.6636 14.4492C14.7566 14.3516 14.8032 14.2214 14.8032 14.0586C14.8032 13.8926 14.7583 13.764 14.6687 13.6729C14.579 13.5817 14.4573 13.5361 14.3036 13.5361C14.2216 13.5361 14.1089 13.5557 13.9655 13.5947L14.0193 12.8843C14.0773 12.8924 14.1226 12.8965 14.155 12.8965C14.2917 12.8965 14.4057 12.855 14.497 12.772C14.5884 12.689 14.6341 12.5905 14.6341 12.4766C14.6341 12.3675 14.5999 12.2804 14.5316 12.2153C14.4633 12.1502 14.3694 12.1177 14.2498 12.1177C14.1269 12.1177 14.0269 12.1531 13.9501 12.2239C13.8732 12.2947 13.8211 12.4188 13.7938 12.5962Z" fill="#fff"/>
  <path fill-rule="evenodd" clip-rule="evenodd" d="M2.0042 8.56995V10.4799H0L2.0042 8.56995ZM18.0063 8.56995L17.9853 10.4799H20L18.0063 8.56995Z" fill="#906F28"/>
  <path d="M17.9853 6.11V6.24H12.5813C12.0252 6.24 11.5845 5.81 11.5845 5.29V0C11.8468 0 12.1091 0.1 12.298 0.28L17.7125 5.43C17.8909 5.61 17.9958 5.85 17.9853 6.11V6.11Z" fill="#C1C7D0"/>
</svg>
