<svg fill="none" xmlns="http://www.w3.org/2000/svg" viewBox="0 0 20 20" class="design-iconfont">
  <path d="M17.9918 18.0954C17.9928 18.3479 17.8874 18.5903 17.6992 18.7681C17.5118 18.9464 17.2578 19.0467 16.9929 19.047H2.9981C2.73292 19.0481 2.4784 18.9476 2.29175 18.7681C2.10466 18.5896 1.99941 18.3477 1.99903 18.0954V0.954022C1.99807 0.701333 2.10352 0.458832 2.29175 0.280823C2.47888 0.101794 2.73291 0.000807671 2.9981 2.33091e-05H11.5831C11.8491 -0.00174876 12.1048 0.0975848 12.2937 0.276023L17.7026 5.43052C17.8895 5.61067 17.9936 5.85427 17.9918 6.10762V18.0954Z" fill="#EBECF0"/>
  <path d="M17.9917 18.0955V19.048C17.9926 19.3006 17.8872 19.5431 17.699 19.7212C17.5116 19.8995 17.2576 19.9998 16.9927 20.0001H2.99793C2.44539 19.9995 1.99781 19.5725 1.99781 19.0461V18.0945C1.99673 18.347 2.10221 18.5894 2.29053 18.7672C2.47799 18.9455 2.73198 19.0458 2.99688 19.0461H16.9906C17.5425 19.0453 17.9897 18.6191 17.9904 18.0933L17.9917 18.0955Z" fill="#C1C7D0"/>
  <path d="M0 10.4771H19.9898V15.2397C19.989 15.7653 19.5427 16.1916 18.9911 16.1937H1.00128C0.73609 16.1946 0.481597 16.0942 0.294715 15.9149C0.106249 15.7361 0.000211124 15.4932 0 15.2397L0 10.4771Z" fill="#FF8FC9"/>
  <path d="M14.6953 13.8782V13.0591H16.5752V14.7375C16.2153 14.9828 15.8966 15.1502 15.6191 15.2397C15.3434 15.3275 15.0158 15.3713 14.6362 15.3713C14.1689 15.3713 13.7876 15.2917 13.4922 15.1323C13.1986 14.973 12.9703 14.7358 12.8074 14.4207C12.6462 14.1056 12.5657 13.7439 12.5657 13.3357C12.5657 12.906 12.6543 12.5327 12.8315 12.2158C13.0088 11.8971 13.2684 11.6554 13.6104 11.4907C13.8771 11.3636 14.2361 11.3 14.6873 11.3C15.1223 11.3 15.4473 11.3394 15.6621 11.4182C15.8787 11.497 16.0578 11.6196 16.1992 11.7861C16.3424 11.9508 16.4499 12.1603 16.5215 12.4146L15.3479 12.624C15.2996 12.4754 15.2172 12.3617 15.1008 12.283C14.9862 12.2042 14.8394 12.1648 14.6604 12.1648C14.3936 12.1648 14.1806 12.2579 14.0212 12.4441C13.8637 12.6285 13.7849 12.9212 13.7849 13.3223C13.7849 13.7484 13.8646 14.0527 14.0239 14.2354C14.1851 14.418 14.4089 14.5093 14.6953 14.5093C14.8314 14.5093 14.9612 14.4896 15.0847 14.4502C15.2083 14.4108 15.3497 14.3437 15.509 14.2488V13.8782H14.6953Z" fill="#fff"/>
  <path d="M10.1138 13.8782V13.0591H11.9937V14.7375C11.6338 14.9828 11.3151 15.1502 11.0376 15.2397C10.7619 15.3275 10.4342 15.3713 10.0547 15.3713C9.5874 15.3713 9.20605 15.2917 8.91064 15.1323C8.61702 14.973 8.38875 14.7358 8.22583 14.4207C8.0647 14.1056 7.98413 13.7439 7.98413 13.3357C7.98413 12.906 8.07275 12.5327 8.25 12.2158C8.42725 11.8971 8.68685 11.6554 9.02881 11.4907C9.29557 11.3636 9.65454 11.3 10.1057 11.3C10.5408 11.3 10.8657 11.3394 11.0806 11.4182C11.2972 11.497 11.4762 11.6196 11.6177 11.7861C11.7609 11.9508 11.8683 12.1603 11.9399 12.4146L10.7664 12.624C10.718 12.4754 10.6357 12.3617 10.5193 12.283C10.4047 12.2042 10.2579 12.1648 10.0789 12.1648C9.81209 12.1648 9.59904 12.2579 9.4397 12.4441C9.28215 12.6285 9.20337 12.9212 9.20337 13.3223C9.20337 13.7484 9.28304 14.0527 9.44238 14.2354C9.60352 14.418 9.82731 14.5093 10.1138 14.5093C10.2498 14.5093 10.3796 14.4896 10.5032 14.4502C10.6267 14.4108 10.7681 14.3437 10.9275 14.2488V13.8782H10.1138Z" fill="#fff"/>
  <path d="M3.3999 13.3384C3.3999 12.6956 3.57894 12.1952 3.93701 11.8372C4.29508 11.4791 4.7937 11.3 5.43286 11.3C6.08813 11.3 6.59302 11.4764 6.94751 11.8291C7.302 12.18 7.47925 12.6724 7.47925 13.3062C7.47925 13.7663 7.40137 14.144 7.24561 14.4395C7.09163 14.7331 6.86784 14.9622 6.57422 15.127C6.28239 15.2899 5.91805 15.3713 5.4812 15.3713C5.03719 15.3713 4.66927 15.3006 4.37744 15.1592C4.0874 15.0177 3.85197 14.7939 3.67114 14.4878C3.49032 14.1816 3.3999 13.7985 3.3999 13.3384ZM4.61646 13.3438C4.61646 13.7412 4.68986 14.0268 4.83667 14.2004C4.98527 14.3741 5.18669 14.4609 5.44092 14.4609C5.70231 14.4609 5.90462 14.3759 6.04785 14.2058C6.19108 14.0357 6.2627 13.7305 6.2627 13.29C6.2627 12.9194 6.1875 12.6491 6.03711 12.479C5.88851 12.3071 5.6862 12.2212 5.43018 12.2212C5.1849 12.2212 4.98796 12.308 4.83936 12.4817C4.69076 12.6554 4.61646 12.9427 4.61646 13.3438Z" fill="#fff"/>
  <path fill-rule="evenodd" clip-rule="evenodd" d="M2.00003 8.57153V10.4769H0L2.00003 8.57153ZM18.0108 8.57153L17.9918 10.4769H20L18.0108 8.57153Z" fill="#995679"/>
  <path d="M17.9917 6.10602V6.24002H12.5833C12.0303 6.24002 11.582 5.8129 11.582 5.28602V2.60677e-05C11.848 -0.00184785 12.1037 0.0973786 12.2926 0.275726L17.7099 5.42712C17.893 5.6097 17.9938 5.85337 17.9907 6.10592L17.9917 6.10602Z" fill="#C1C7D0"/>
</svg>
