<svg fill="none" xmlns="http://www.w3.org/2000/svg" viewBox="0 0 20 20" class="design-iconfont">
  <path d="M17.9853 18.1C17.9819 18.6233 17.5376 19.0467 16.9885 19.05H3.00108C2.73658 19.0514 2.48282 18.9504 2.29804 18.77C2.11057 18.5927 2.00486 18.3517 2.00423 18.1V0.950014C2.00273 0.697943 2.10877 0.456111 2.29804 0.280015C2.48282 0.0996477 2.73658 -0.0014163 3.00108 1.49985e-05H11.5845C11.8517 0.000478072 12.108 0.101047 12.298 0.280015L17.702 5.43001C17.8916 5.61002 17.9974 5.85499 17.9958 6.11001V18.1H17.9853Z" fill="#EBECF0"/>
  <path d="M17.9853 18.1V19.05C17.9868 19.302 17.8808 19.5439 17.6915 19.72C17.5055 19.8986 17.2526 19.9994 16.9885 20H3.00106C2.45052 20 2.00421 19.5746 2.00421 19.05V18.1C2.00765 18.6233 2.45195 19.0467 3.00106 19.05H16.9885C17.539 19.05 17.9853 18.6246 17.9853 18.1V18.1Z" fill="#C1C7D0"/>
  <path d="M0 10.48H19.9895V15.24C19.9895 15.7646 19.5432 16.19 18.9927 16.19H1.00735C0.742842 16.1914 0.489083 16.0903 0.304302 15.91C0.114747 15.73 0.00890388 15.485 0.0104932 15.23V10.48H0Z" fill="#FF5630"/>
  <path fill-rule="evenodd" clip-rule="evenodd" d="M6.54605 11.5H4.617V15.0791H5.78263V13.751H6.41796C6.88592 13.751 7.2339 13.6493 7.4619 13.4458C7.6899 13.2424 7.8039 12.96 7.8039 12.5986C7.8039 12.2471 7.69929 11.9761 7.49008 11.7856C7.28086 11.5952 6.96619 11.5 6.54605 11.5ZM6.06699 13.0259H5.78263V12.2275H6.1131C6.33 12.2275 6.47773 12.2666 6.5563 12.3447C6.63486 12.4229 6.67414 12.5181 6.67414 12.6304C6.67414 12.7459 6.62888 12.8407 6.53836 12.9148C6.44785 12.9889 6.29072 13.0259 6.06699 13.0259Z" fill="#fff"/>
  <path fill-rule="evenodd" clip-rule="evenodd" d="M10.1505 11.5H8.42639V15.0791H10.1505C10.3571 15.0791 10.5877 15.0465 10.8422 14.9814C11.0283 14.9342 11.2025 14.8394 11.3648 14.697C11.527 14.5546 11.6538 14.378 11.7452 14.1672C11.8366 13.9565 11.8823 13.6598 11.8823 13.2773C11.8823 13.0332 11.8515 12.8021 11.7901 12.584C11.7286 12.3659 11.6295 12.1746 11.4929 12.0103C11.3563 11.8459 11.1833 11.7197 10.9741 11.6318C10.7649 11.5439 10.4904 11.5 10.1505 11.5ZM9.58689 14.2661V12.3105H9.87638C10.177 12.3105 10.3922 12.3805 10.522 12.5205C10.6518 12.6605 10.7167 12.9201 10.7167 13.2993C10.7167 13.5858 10.6876 13.7929 10.6296 13.9207C10.5715 14.0484 10.4912 14.1379 10.3887 14.1892C10.2863 14.2405 10.1138 14.2661 9.87126 14.2661H9.58689Z" fill="#fff"/>
  <path d="M12.4971 11.5H15.3664V12.269H13.6628V12.894H15.1179V13.6167H13.6628V15.0791H12.4971V11.5Z" fill="#fff"/>
  <path fill-rule="evenodd" clip-rule="evenodd" d="M2.0042 8.57007V10.4801H0L2.0042 8.57007ZM18.0063 8.57007L17.9853 10.4801H20L18.0063 8.57007Z" fill="#DE350B"/>
  <path d="M17.9853 6.11V6.24H12.5813C12.0308 6.24 11.5845 5.81467 11.5845 5.29V0C11.8517 0.000463073 12.1079 0.101032 12.298 0.28L17.7125 5.43C17.8961 5.61223 17.9945 5.85751 17.9853 6.11Z" fill="#C1C7D0"/>
</svg>
