<svg fill="none" xmlns="http://www.w3.org/2000/svg" viewBox="0 0 20 20" class="design-iconfont">
  <path d="M17.9918 18.0954C17.9928 18.3479 17.8874 18.5903 17.6992 18.7681C17.5118 18.9464 17.2578 19.0467 16.9929 19.047H2.9981C2.73292 19.0481 2.4784 18.9476 2.29175 18.7681C2.10466 18.5896 1.99941 18.3477 1.99903 18.0954V0.954022C1.99807 0.701333 2.10352 0.458832 2.29175 0.280823C2.47888 0.101794 2.73291 0.000807671 2.9981 2.33091e-05H11.5831C11.8491 -0.00174876 12.1048 0.0975848 12.2937 0.276023L17.7026 5.43052C17.8895 5.61067 17.9936 5.85427 17.9918 6.10762V18.0954Z" fill="#EBECF0"/>
  <path d="M17.9917 18.0955V19.048C17.9926 19.3006 17.8872 19.5431 17.699 19.7212C17.5116 19.8995 17.2576 19.9998 16.9927 20.0001H2.99793C2.44539 19.9995 1.99781 19.5725 1.99781 19.0461V18.0945C1.99673 18.347 2.10221 18.5894 2.29053 18.7672C2.47799 18.9455 2.73198 19.0458 2.99688 19.0461H16.9906C17.5425 19.0453 17.9897 18.6191 17.9904 18.0933L17.9917 18.0955Z" fill="#C1C7D0"/>
  <path d="M0 10.4771H19.9898V15.2397C19.989 15.7653 19.5427 16.1916 18.9911 16.1937H1.00128C0.73609 16.1946 0.481597 16.0942 0.294715 15.9149C0.106249 15.7361 0.000211124 15.4932 0 15.2397L0 10.4771Z" fill="#85BDFF"/>
  <path fill-rule="evenodd" clip-rule="evenodd" d="M2.00003 8.57129V10.4767H0L2.00003 8.57129ZM18.0108 8.57129L17.9918 10.4767H20.0001L18.0108 8.57129Z" fill="#4F7199"/>
  <path d="M17.9917 6.10602V6.24002H12.5833C12.0303 6.24002 11.582 5.8129 11.582 5.28602V2.60677e-05C11.848 -0.00184785 12.1037 0.0973786 12.2926 0.275726L17.7099 5.42712C17.893 5.6097 17.9938 5.85337 17.9907 6.10592L17.9917 6.10602Z" fill="#C1C7D0"/>
  <path fill-rule="evenodd" clip-rule="evenodd" d="M6.02274 11.561H4.09326V15.1401H5.25915V13.812H5.89462C6.36269 13.812 6.71075 13.7103 6.9388 13.5068C7.16685 13.3034 7.28088 13.021 7.28088 12.6597C7.28088 12.3081 7.17625 12.0371 6.96699 11.8467C6.75772 11.6562 6.44298 11.561 6.02274 11.561ZM5.54361 13.0869H5.25918V12.2886H5.58973C5.80668 12.2886 5.95445 12.3276 6.03303 12.4058C6.11161 12.4839 6.1509 12.5791 6.1509 12.6914C6.1509 12.807 6.10563 12.9018 6.01509 12.9758C5.92455 13.0499 5.76739 13.0869 5.54361 13.0869Z" fill="#fff"/>
  <path d="M7.896 11.561H8.97989L10.3943 13.541V11.561H11.4885V15.1401H10.3943L8.98758 13.1748V15.1401H7.896V11.561Z" fill="#fff"/>
  <path d="M14.1482 13.8438V13.0991H15.9419V14.625C15.5985 14.848 15.2949 14.9998 15.0309 15.0803C14.767 15.1609 14.454 15.2012 14.0918 15.2012C13.646 15.2012 13.2825 15.1287 13.0015 14.9839C12.7205 14.839 12.5027 14.6234 12.3481 14.3369C12.1935 14.0505 12.1162 13.7217 12.1162 13.3506C12.1162 12.96 12.2008 12.6202 12.3699 12.3313C12.539 12.0424 12.7867 11.8231 13.113 11.6733C13.3675 11.5578 13.71 11.5 14.1405 11.5C14.5556 11.5 14.8661 11.5358 15.0719 11.6074C15.2778 11.679 15.4486 11.7901 15.5844 11.9407C15.7202 12.0912 15.8223 12.2821 15.8906 12.5132L14.7708 12.7036C14.7247 12.5685 14.6466 12.4652 14.5364 12.3936C14.4262 12.3219 14.2857 12.2861 14.1149 12.2861C13.8603 12.2861 13.6575 12.3704 13.5063 12.5388C13.3551 12.7073 13.2795 12.9738 13.2795 13.3384C13.2795 13.7257 13.356 14.0024 13.5089 14.1685C13.6618 14.3345 13.8749 14.4175 14.1482 14.4175C14.278 14.4175 14.4019 14.3996 14.5197 14.3638C14.6376 14.328 14.7726 14.2669 14.9246 14.1807V13.8438H14.1482Z" fill="#fff"/>
</svg>
