<svg fill="none" xmlns="http://www.w3.org/2000/svg" viewBox="0 0 20 20" class="design-iconfont">
  <path d="M17.9918 18.0954C17.9928 18.3479 17.8873 18.5903 17.6992 18.7681C17.5117 18.9464 17.2577 19.0467 16.9928 19.047H2.99804C2.73286 19.0481 2.47834 18.9476 2.29169 18.7681C2.1046 18.5896 1.99935 18.3477 1.99897 18.0954V0.954022C1.99801 0.701333 2.10345 0.458832 2.29169 0.280823C2.47882 0.101794 2.73285 0.000807671 2.99804 2.33091e-05H11.5831C11.849 -0.00174876 12.1048 0.0975848 12.2936 0.276023L17.7025 5.43052C17.8895 5.61067 17.9935 5.85427 17.9918 6.10762V18.0954Z" fill="#EBECF0"/>
  <path d="M17.9918 18.0955V19.048C17.9928 19.3006 17.8874 19.5431 17.6992 19.7212C17.5117 19.8995 17.2577 19.9998 16.9928 20.0001H2.99805C2.44552 19.9995 1.99793 19.5725 1.99793 19.0461V18.0945C1.99686 18.347 2.10233 18.5894 2.29065 18.7672C2.47811 18.9455 2.7321 19.0458 2.997 19.0461H16.9907C17.5426 19.0453 17.9898 18.6191 17.9905 18.0933L17.9918 18.0955Z" fill="#C1C7D0"/>
  <path d="M0 10.4771H19.9898V15.2397C19.989 15.7653 19.5427 16.1916 18.9911 16.1937H1.00128C0.73609 16.1946 0.481597 16.0942 0.294715 15.9149C0.106249 15.7361 0.000211124 15.4932 0 15.2397L0 10.4771Z" fill="#F16C41"/>
  <path fill-rule="evenodd" clip-rule="evenodd" d="M6.54752 11.5H4.61804V15.0791H5.78393V13.751H6.4194C6.88747 13.751 7.23553 13.6493 7.46358 13.4458C7.69163 13.2424 7.80566 12.96 7.80566 12.5986C7.80566 12.2471 7.70103 11.9761 7.49177 11.7856C7.2825 11.5952 6.96776 11.5 6.54752 11.5ZM6.06836 13.0259H5.78393V12.2275H6.11448C6.33143 12.2275 6.47919 12.2666 6.55777 12.3447C6.63635 12.4229 6.67564 12.5181 6.67564 12.6304C6.67564 12.7459 6.63038 12.8407 6.53984 12.9148C6.4493 12.9889 6.29214 13.0259 6.06836 13.0259Z" fill="#fff"/>
  <path fill-rule="evenodd" clip-rule="evenodd" d="M10.3373 11.5H8.40784V15.0791H9.57373V13.751H10.2092C10.6773 13.751 11.0253 13.6493 11.2534 13.4458C11.4814 13.2424 11.5955 12.96 11.5955 12.5986C11.5955 12.2471 11.4908 11.9761 11.2816 11.7856C11.0723 11.5952 10.7576 11.5 10.3373 11.5ZM9.85815 13.0259H9.57373V12.2275H9.90427C10.1212 12.2275 10.269 12.2666 10.3476 12.3447C10.4261 12.4229 10.4654 12.5181 10.4654 12.6304C10.4654 12.7459 10.4202 12.8407 10.3296 12.9148C10.2391 12.9889 10.0819 13.0259 9.85815 13.0259Z" fill="#fff"/>
  <path d="M11.9388 11.5H15.4672V12.3838H14.2834V15.0791H13.1226V12.3838H11.9388V11.5Z" fill="#fff"/>
  <path fill-rule="evenodd" clip-rule="evenodd" d="M2.00003 8.57141V10.4768H0L2.00003 8.57141ZM18.0108 8.57141L17.9918 10.4768H20L18.0108 8.57141Z" fill="#904027"/>
  <path d="M17.9918 6.10602V6.24002H12.5834C12.0304 6.24002 11.5822 5.8129 11.5822 5.28602V2.60677e-05C11.8481 -0.00184785 12.1038 0.0973786 12.2927 0.275726L17.71 5.42712C17.8931 5.6097 17.994 5.85337 17.9908 6.10592L17.9918 6.10602Z" fill="#C1C7D0"/>
</svg>
