<svg fill="none" xmlns="http://www.w3.org/2000/svg" viewBox="0 0 20 20" class="design-iconfont">
  <path d="M17.9853 18.1C17.9853 18.35 17.8804 18.59 17.6915 18.77C17.5026 18.95 17.2508 19.05 16.9885 19.05H3.00106C2.73873 19.05 2.4764 18.95 2.29802 18.77C2.10914 18.59 2.00421 18.35 2.00421 18.1V0.95C2.00421 0.7 2.10914 0.45 2.29802 0.28C2.4764 0.1 2.73873 0 3.00106 0H11.5845C11.8468 0 12.1091 0.1 12.298 0.28L17.702 5.43C17.8909 5.61 17.9958 5.85 17.9958 6.11V18.1H17.9853Z" fill="#EBECF0"/>
  <path d="M17.9853 18.1V19.05C17.9853 19.3 17.8804 19.55 17.6915 19.72C17.5026 19.9 17.2508 20 16.9885 20H3.00106C2.44492 20 2.00421 19.57 2.00421 19.05V18.1C2.00421 18.35 2.10914 18.59 2.29802 18.77C2.4869 18.95 2.73873 19.05 3.00106 19.05H16.9885C17.5446 19.05 17.9853 18.62 17.9853 18.1Z" fill="#C1C7D0"/>
  <path d="M0 10.48H19.9895V15.24C19.9895 15.77 19.5383 16.19 18.9927 16.19H1.00735C0.745016 16.19 0.482686 16.09 0.304302 15.91C0.115425 15.73 0.0104932 15.49 0.0104932 15.23V10.48H0Z" fill="#F16C41"/>
  <path fill-rule="evenodd" clip-rule="evenodd" d="M4.3425 11.5H2.41345V15.0791H3.57908V13.751H4.21441C4.68236 13.751 5.03034 13.6493 5.25834 13.4458C5.48634 13.2424 5.60035 12.96 5.60035 12.5986C5.60035 12.2471 5.49574 11.9761 5.28652 11.7856C5.07731 11.5952 4.76263 11.5 4.3425 11.5ZM3.86344 13.0259H3.57908V12.2275H3.90955C4.12645 12.2275 4.27418 12.2666 4.35274 12.3447C4.43131 12.4229 4.47059 12.5181 4.47059 12.6304C4.47059 12.7459 4.42533 12.8407 4.33481 12.9148C4.24429 12.9889 4.08717 13.0259 3.86344 13.0259Z" fill="#fff"/>
  <path fill-rule="evenodd" clip-rule="evenodd" d="M8.13144 11.5H6.20239V15.0791H7.36802V13.751H8.00335C8.4713 13.751 8.81928 13.6493 9.04728 13.4458C9.27529 13.2424 9.38929 12.96 9.38929 12.5986C9.38929 12.2471 9.28468 11.9761 9.07546 11.7856C8.86625 11.5952 8.55157 11.5 8.13144 11.5ZM7.65238 13.0259H7.36802V12.2275H7.69849C7.91539 12.2275 8.06312 12.2666 8.14168 12.3447C8.22025 12.4229 8.25953 12.5181 8.25953 12.6304C8.25953 12.7459 8.21427 12.8407 8.12375 12.9148C8.03323 12.9889 7.87611 13.0259 7.65238 13.0259Z" fill="#fff"/>
  <path d="M9.73254 11.5H13.2602V12.3838H12.0766V15.0791H10.9161V12.3838H9.73254V11.5Z" fill="#fff"/>
  <path d="M13.5266 11.5H14.8049L15.471 12.6011L16.1166 11.5H17.3821L16.2139 13.2334L17.4923 15.0791H16.1883L15.448 13.9292L14.705 15.0791H13.4088L14.705 13.2139L13.5266 11.5Z" fill="#fff"/>
  <path fill-rule="evenodd" clip-rule="evenodd" d="M2.0042 8.56995V10.4799H0L2.0042 8.56995ZM18.0063 8.56995L17.9853 10.4799H20L18.0063 8.56995Z" fill="#904027"/>
  <path d="M17.9853 6.11V6.24H12.5813C12.0252 6.24 11.5845 5.81 11.5845 5.29V0C11.8468 0 12.1091 0.1 12.298 0.28L17.7125 5.43C17.8909 5.61 17.9958 5.85 17.9853 6.11V6.11Z" fill="#C1C7D0"/>
</svg>
