<svg fill="none" xmlns="http://www.w3.org/2000/svg" viewBox="0 0 20 20" class="design-iconfont">
  <path d="M17.9853 18.1C17.9853 18.35 17.8803 18.59 17.6915 18.77C17.5026 18.95 17.2507 19.05 16.9884 19.05H3.001C2.73867 19.05 2.47634 18.95 2.29796 18.77C2.10908 18.59 2.00415 18.35 2.00415 18.1V0.95C2.00415 0.7 2.10908 0.45 2.29796 0.28C2.47634 0.1 2.73867 0 3.001 0H11.5844C11.8468 0 12.1091 0.1 12.298 0.28L17.7019 5.43C17.8908 5.61 17.9958 5.85 17.9958 6.11V18.1H17.9853Z" fill="#EBECF0"/>
  <path d="M17.9853 18.1V19.05C17.9853 19.3 17.8803 19.55 17.6915 19.72C17.5026 19.9 17.2507 20 16.9884 20H3.001C2.44486 20 2.00415 19.57 2.00415 19.05V18.1C2.00415 18.35 2.10908 18.59 2.29796 18.77C2.48684 18.95 2.73867 19.05 3.001 19.05H16.9884C17.5445 19.05 17.9853 18.62 17.9853 18.1Z" fill="#C1C7D0"/>
  <path d="M0 10.48H19.9895V15.24C19.9895 15.77 19.5383 16.19 18.9927 16.19H1.00735C0.745016 16.19 0.482686 16.09 0.304302 15.91C0.115425 15.73 0.0104932 15.49 0.0104932 15.23V10.48H0Z" fill="#0092D3"/>
  <path fill-rule="evenodd" clip-rule="evenodd" d="M2.0042 8.56995V10.4799H0L2.0042 8.56995ZM18.0063 8.56995L17.9853 10.4799H20L18.0063 8.56995Z" fill="#007199"/>
  <path d="M17.9853 6.11V6.24H12.5813C12.0252 6.24 11.5845 5.81 11.5845 5.29V0C11.8468 0 12.1091 0.1 12.298 0.28L17.7125 5.43C17.8909 5.61 17.9958 5.85 17.9853 6.11V6.11Z" fill="#C1C7D0"/>
  <path d="M12.7969 11.33H14.0698L14.9561 14.1632L15.8289 11.33H17.0642L15.6033 15.267H14.2847L12.7969 11.33Z" fill="#fff"/>
  <path d="M11.3279 14.6171H9.94214L9.75146 15.267H8.50806L9.98779 11.33H11.3145L12.7942 15.267H11.5212L11.3279 14.6171ZM11.0728 13.7657L10.6377 12.3505L10.2053 13.7657H11.0728Z" fill="#fff"/>
  <path d="M3 11.33H4.15479L4.57104 13.5294L5.17798 11.33H6.33008L6.9397 13.5294L7.35596 11.33H8.50537L7.63794 15.267H6.44556L5.75537 12.7882L5.06787 15.267H3.87549L3 11.33Z" fill="#fff"/>
</svg>
