<svg fill="none" xmlns="http://www.w3.org/2000/svg" viewBox="0 0 20 20" class="design-iconfont">
  <path d="M17.1399 18.1C17.1399 18.35 17.0399 18.59 16.8599 18.77C16.6799 18.95 16.4399 19.05 16.1899 19.05H2.85991C2.60991 19.05 2.35991 18.95 2.18991 18.77C2.00991 18.59 1.90991 18.35 1.90991 18.1V0.95C1.90991 0.7 2.00991 0.45 2.18991 0.28C2.35991 0.1 2.60991 0 2.85991 0H11.0399C11.2899 0 11.5399 0.1 11.7199 0.28L16.8699 5.43C17.0499 5.61 17.1499 5.85 17.1499 6.11V18.1H17.1399Z" fill="#EBECF0"/>
  <path d="M17.1399 18.1001V19.0501C17.1399 19.3001 17.0399 19.5501 16.8599 19.7201C16.6799 19.9001 16.4399 20.0001 16.1899 20.0001H2.85991C2.32991 20.0001 1.90991 19.5701 1.90991 19.0501V18.1001C1.90991 18.3501 2.00991 18.5901 2.18991 18.7701C2.36991 18.9501 2.60991 19.0501 2.85991 19.0501H16.1899C16.7199 19.0501 17.1399 18.6201 17.1399 18.1001Z" fill="#C1C7D0"/>
  <path d="M0 10.48H19.05V15.24C19.05 15.77 18.62 16.19 18.1 16.19H0.96C0.71 16.19 0.46 16.09 0.29 15.91C0.11 15.73 0.01 15.49 0.01 15.23V10.48H0Z" fill="#31A8FF"/>
  <path d="M14.6174 11.3H16.8948C17.2743 11.3 17.5653 11.394 17.7676 11.582C17.9717 11.77 18.0737 12.0028 18.0737 12.2803C18.0737 12.513 18.0012 12.7126 17.8562 12.8792C17.7595 12.9902 17.6181 13.0779 17.4319 13.1423C17.7148 13.2104 17.9224 13.3276 18.0549 13.4941C18.1892 13.6589 18.2563 13.8665 18.2563 14.1172C18.2563 14.3213 18.2089 14.5048 18.114 14.6677C18.0191 14.8306 17.8893 14.9596 17.7246 15.0544C17.6226 15.1135 17.4686 15.1565 17.2627 15.1833C16.9888 15.2192 16.807 15.2371 16.7175 15.2371H14.6174V11.3ZM15.8447 12.8442H16.3738C16.5636 12.8442 16.6951 12.812 16.7686 12.7476C16.8438 12.6813 16.8813 12.5864 16.8813 12.4629C16.8813 12.3483 16.8438 12.2588 16.7686 12.1943C16.6951 12.1299 16.5662 12.0977 16.3818 12.0977H15.8447V12.8442ZM15.8447 14.3911H16.4651C16.6746 14.3911 16.8223 14.3544 16.9082 14.281C16.9941 14.2058 17.0371 14.1056 17.0371 13.9802C17.0371 13.8639 16.9941 13.7708 16.9082 13.7009C16.8241 13.6293 16.6755 13.5935 16.4624 13.5935H15.8447V14.3911Z" fill="#fff"/>
  <path d="M10.6348 11.3H12.657C13.0974 11.3 13.4268 11.4048 13.6453 11.6143C13.8655 11.8237 13.9756 12.1218 13.9756 12.5085C13.9756 12.906 13.8556 13.2166 13.6157 13.4404C13.3776 13.6642 13.0133 13.7761 12.5227 13.7761H11.8567V15.2371H10.6348V11.3ZM11.8567 12.9785H12.1548C12.3893 12.9785 12.554 12.9382 12.6489 12.8577C12.7438 12.7753 12.7913 12.6706 12.7913 12.5435C12.7913 12.4199 12.7501 12.3152 12.6677 12.2292C12.5854 12.1433 12.4305 12.1003 12.2031 12.1003H11.8567V12.9785Z" fill="#fff"/>
  <path d="M6.66284 11.3H9.9231V12.1406H7.88208V12.7664H9.77539V13.5693H7.88208V14.3455H9.98218V15.2371H6.66284V11.3Z" fill="#fff"/>
  <path d="M0.76001 11.3H1.91479L2.33105 13.4995L2.93799 11.3H4.09009L4.69971 13.4995L5.11597 11.3H6.26538L5.39795 15.2371H4.20557L3.51538 12.7583L2.82788 15.2371H1.6355L0.76001 11.3Z" fill="#fff"/>
  <path fill-rule="evenodd" clip-rule="evenodd" d="M1.91 8.57007V10.4801H0L1.91 8.57007ZM17.16 8.57007L17.14 10.4801H19.06L17.16 8.57007Z" fill="#1D6499"/>
  <path d="M17.14 6.11V6.24H11.99C11.46 6.24 11.04 5.81 11.04 5.29V0C11.29 0 11.54 0.1 11.72 0.28L16.88 5.43C17.05 5.61 17.15 5.85 17.14 6.11V6.11Z" fill="#C1C7D0"/>
</svg>
