<svg fill="none" xmlns="http://www.w3.org/2000/svg" viewBox="0 0 20 20" class="design-iconfont">
  <path d="M17.9853 18.1C17.9853 18.35 17.8803 18.59 17.6915 18.77C17.5026 18.95 17.2507 19.05 16.9884 19.05H3.001C2.73867 19.05 2.47634 18.95 2.29796 18.77C2.10908 18.59 2.00415 18.35 2.00415 18.1V0.95C2.00415 0.7 2.10908 0.45 2.29796 0.28C2.47634 0.1 2.73867 0 3.001 0H11.5844C11.8468 0 12.1091 0.1 12.298 0.28L17.7019 5.43C17.8908 5.61 17.9958 5.85 17.9958 6.11V18.1H17.9853Z" fill="#EBECF0"/>
  <path d="M17.9853 18.1001V19.0501C17.9853 19.3001 17.8803 19.5501 17.6915 19.7201C17.5026 19.9001 17.2507 20.0001 16.9884 20.0001H3.001C2.44486 20.0001 2.00415 19.5701 2.00415 19.0501V18.1001C2.00415 18.3501 2.10908 18.5901 2.29796 18.7701C2.48684 18.9501 2.73867 19.0501 3.001 19.0501H16.9884C17.5445 19.0501 17.9853 18.6201 17.9853 18.1001Z" fill="#C1C7D0"/>
  <path d="M0 10.48H19.9895V15.24C19.9895 15.77 19.5383 16.19 18.9927 16.19H1.00735C0.745016 16.19 0.482686 16.09 0.304302 15.91C0.115425 15.73 0.0104932 15.49 0.0104932 15.23V10.48H0Z" fill="#0092D3"/>
  <path d="M16.0217 14.6572H14.636L14.4453 15.3071H13.2019L14.6816 11.3701H16.0083L17.488 15.3071H16.2151L16.0217 14.6572ZM15.7666 13.8059L15.3315 12.3906L14.8992 13.8059H15.7666Z" fill="#fff"/>
  <path d="M8.39209 11.3701H9.99268L10.6104 13.7656L11.2253 11.3701H12.8206V15.3071H11.8269V12.3047L11.0562 15.3071H10.1565L9.38843 12.3047V15.3071H8.39209V11.3701Z" fill="#fff"/>
  <path d="M2.5 11.3701H3.65479L4.07104 13.5696L4.67798 11.3701H5.83008L6.4397 13.5696L6.85596 11.3701H8.00537L7.13794 15.3071H5.94556L5.25537 12.8284L4.56787 15.3071H3.37549L2.5 11.3701Z" fill="#fff"/>
  <path fill-rule="evenodd" clip-rule="evenodd" d="M2.0042 8.57007V10.4801H0L2.0042 8.57007ZM18.0063 8.57007L17.9853 10.4801H20L18.0063 8.57007Z" fill="#007199"/>
  <path d="M17.9853 6.11V6.24H12.5813C12.0252 6.24 11.5845 5.81 11.5845 5.29V0C11.8468 0 12.1091 0.1 12.298 0.28L17.7125 5.43C17.8909 5.61 17.9958 5.85 17.9853 6.11V6.11Z" fill="#C1C7D0"/>
</svg>
