<svg fill="none" xmlns="http://www.w3.org/2000/svg" viewBox="0 0 20 20" class="design-iconfont">
  <path d="M17.9853 18.1C17.9853 18.35 17.8804 18.59 17.6915 18.77C17.5026 18.95 17.2508 19.05 16.9885 19.05H3.00106C2.73873 19.05 2.4764 18.95 2.29802 18.77C2.10914 18.59 2.00421 18.35 2.00421 18.1V0.95C2.00421 0.7 2.10914 0.45 2.29802 0.28C2.4764 0.1 2.73873 0 3.00106 0H11.5845C11.8468 0 12.1091 0.1 12.298 0.28L17.702 5.43C17.8909 5.61 17.9958 5.85 17.9958 6.11V18.1H17.9853Z" fill="#EBECF0"/>
  <path d="M17.9853 18.1V19.05C17.9853 19.3 17.8804 19.55 17.6915 19.72C17.5026 19.9 17.2508 20 16.9885 20H3.00106C2.44492 20 2.00421 19.57 2.00421 19.05V18.1C2.00421 18.35 2.10914 18.59 2.29802 18.77C2.4869 18.95 2.73873 19.05 3.00106 19.05H16.9885C17.5446 19.05 17.9853 18.62 17.9853 18.1Z" fill="#C1C7D0"/>
  <path d="M0 10.48H19.9895V15.24C19.9895 15.77 19.5383 16.19 18.9927 16.19H1.00735C0.745016 16.19 0.482686 16.09 0.304302 15.91C0.115425 15.73 0.0104932 15.49 0.0104932 15.23V10.48H0Z" fill="#47B347"/>
  <path d="M4.52495 11.561H5.80329L6.46936 12.6621L7.11494 11.561H8.38047L7.21229 13.2944L8.49063 15.1401H7.18667L6.44631 13.9902L5.70338 15.1401H4.4071L5.70338 13.2749L4.52495 11.561Z" fill="#fff"/>
  <path d="M8.86462 11.561H10.0251V14.2588H11.8363V15.1401H8.86462V11.561Z" fill="#fff"/>
  <path d="M12.1617 13.9561L13.2658 13.8901C13.2897 14.061 13.3384 14.1912 13.4118 14.2808C13.5314 14.4256 13.7022 14.498 13.9242 14.498C14.0899 14.498 14.2175 14.461 14.3072 14.387C14.3969 14.3129 14.4417 14.2271 14.4417 14.1294C14.4417 14.0366 14.399 13.9536 14.3136 13.8804C14.2282 13.8071 14.0301 13.738 13.7193 13.6729C13.2103 13.5638 12.8474 13.4189 12.6305 13.2383C12.4119 13.0576 12.3026 12.8273 12.3026 12.5474C12.3026 12.3634 12.3585 12.1897 12.4704 12.0261C12.5822 11.8625 12.7505 11.734 12.9751 11.6404C13.1996 11.5468 13.5075 11.5 13.8986 11.5C14.3785 11.5 14.7444 11.585 14.9963 11.7551C15.2482 11.9252 15.3981 12.1958 15.4459 12.5669L14.352 12.6279C14.323 12.4668 14.2619 12.3496 14.1689 12.2764C14.0758 12.2031 13.9473 12.1665 13.7833 12.1665C13.6484 12.1665 13.5468 12.1938 13.4785 12.2483C13.4101 12.3028 13.376 12.3691 13.376 12.4473C13.376 12.5042 13.4042 12.5555 13.4605 12.6011C13.5152 12.6483 13.645 12.6922 13.8499 12.7329C14.3572 12.8371 14.7205 12.9425 14.94 13.0491C15.1594 13.1557 15.3191 13.2879 15.419 13.4458C15.5189 13.6037 15.5689 13.7803 15.5689 13.9756C15.5689 14.2051 15.5023 14.4167 15.3691 14.6104C15.2359 14.804 15.0497 14.9509 14.8106 15.051C14.5715 15.1511 14.2701 15.2012 13.9063 15.2012C13.2675 15.2012 12.8252 15.084 12.5793 14.8496C12.3333 14.6152 12.1941 14.3174 12.1617 13.9561Z" fill="#fff"/>
  <path fill-rule="evenodd" clip-rule="evenodd" d="M2.0042 8.56995V10.4799H0L2.0042 8.56995ZM18.0063 8.56995L17.9853 10.4799H20L18.0063 8.56995Z" fill="#2A932A"/>
  <path d="M17.9853 6.11V6.24H12.5813C12.0252 6.24 11.5845 5.81 11.5845 5.29V0C11.8468 0 12.1091 0.1 12.298 0.28L17.7125 5.43C17.8909 5.61 17.9958 5.85 17.9853 6.11V6.11Z" fill="#C1C7D0"/>
</svg>
