<svg fill="none" xmlns="http://www.w3.org/2000/svg" viewBox="0 0 20 20" class="design-iconfont">
  <path d="M17.9853 18.1C17.9853 18.35 17.8804 18.59 17.6915 18.77C17.5026 18.95 17.2508 19.05 16.9885 19.05H3.00106C2.73873 19.05 2.4764 18.95 2.29802 18.77C2.10914 18.59 2.00421 18.35 2.00421 18.1V0.95C2.00421 0.7 2.10914 0.45 2.29802 0.28C2.4764 0.1 2.73873 0 3.00106 0H11.5845C11.8468 0 12.1091 0.1 12.298 0.28L17.702 5.43C17.8909 5.61 17.9958 5.85 17.9958 6.11V18.1H17.9853Z" fill="#EBECF0"/>
  <path d="M17.9853 18.1V19.05C17.9853 19.3 17.8804 19.55 17.6915 19.72C17.5026 19.9 17.2508 20 16.9885 20H3.00106C2.44492 20 2.00421 19.57 2.00421 19.05V18.1C2.00421 18.35 2.10914 18.59 2.29802 18.77C2.4869 18.95 2.73873 19.05 3.00106 19.05H16.9885C17.5446 19.05 17.9853 18.62 17.9853 18.1Z" fill="#C1C7D0"/>
  <path d="M0 10.48H19.9895V15.24C19.9895 15.77 19.5383 16.19 18.9927 16.19H1.00735C0.745016 16.19 0.482686 16.09 0.304302 15.91C0.115425 15.73 0.0104932 15.49 0.0104932 15.23V10.48H0Z" fill="#47B347"/>
  <path d="M2.42631 11.561H3.70466L4.37073 12.6621L5.01631 11.561H6.28184L5.11365 13.2944L6.392 15.1401H5.08804L4.34767 13.9902L3.60475 15.1401H2.30847L3.60475 13.2749L2.42631 11.561Z" fill="#fff"/>
  <path d="M6.76605 11.561H7.92655V14.2588H9.73775V15.1401H6.76605V11.561Z" fill="#fff"/>
  <path d="M10.063 13.9561L11.1672 13.8901C11.1911 14.061 11.2398 14.1912 11.3132 14.2808C11.4328 14.4256 11.6036 14.498 11.8256 14.498C11.9912 14.498 12.1189 14.461 12.2086 14.387C12.2982 14.3129 12.3431 14.2271 12.3431 14.1294C12.3431 14.0366 12.3004 13.9536 12.215 13.8804C12.1296 13.8071 11.9315 13.738 11.6206 13.6729C11.1117 13.5638 10.7488 13.4189 10.5319 13.2383C10.3133 13.0576 10.2039 12.8273 10.2039 12.5474C10.2039 12.3634 10.2599 12.1897 10.3717 12.0261C10.4836 11.8625 10.6518 11.734 10.8764 11.6404C11.101 11.5468 11.4089 11.5 11.8 11.5C12.2799 11.5 12.6458 11.585 12.8977 11.7551C13.1496 11.9252 13.2995 12.1958 13.3473 12.5669L12.2534 12.6279C12.2244 12.4668 12.1633 12.3496 12.0702 12.2764C11.9771 12.2031 11.8486 12.1665 11.6847 12.1665C11.5498 12.1665 11.4481 12.1938 11.3798 12.2483C11.3115 12.3028 11.2773 12.3691 11.2773 12.4473C11.2773 12.5042 11.3055 12.5555 11.3619 12.6011C11.4165 12.6483 11.5463 12.6922 11.7513 12.7329C12.2585 12.8371 12.6219 12.9425 12.8413 13.0491C13.0608 13.1557 13.2205 13.2879 13.3204 13.4458C13.4203 13.6037 13.4703 13.7803 13.4703 13.9756C13.4703 14.2051 13.4037 14.4167 13.2704 14.6104C13.1372 14.804 12.9511 14.9509 12.712 15.051C12.4729 15.1511 12.1714 15.2012 11.8076 15.2012C11.1689 15.2012 10.7266 15.084 10.4806 14.8496C10.2347 14.6152 10.0955 14.3174 10.063 13.9561Z" fill="#fff"/>
  <path d="M13.7956 11.561H15.074L15.7401 12.6621L16.3856 11.561H17.6512L16.483 13.2944L17.7613 15.1401H16.4574L15.717 13.9902L14.9741 15.1401H13.6778L14.9741 13.2749L13.7956 11.561Z" fill="#fff"/>
  <path fill-rule="evenodd" clip-rule="evenodd" d="M2.0042 8.56995V10.4799H0L2.0042 8.56995ZM18.0063 8.56995L17.9853 10.4799H20L18.0063 8.56995Z" fill="#2A932A"/>
  <path d="M17.9853 6.11V6.24H12.5813C12.0252 6.24 11.5845 5.81 11.5845 5.29V0C11.8468 0 12.1091 0.1 12.298 0.28L17.7125 5.43C17.8909 5.61 17.9958 5.85 17.9853 6.11V6.11Z" fill="#C1C7D0"/>
</svg>
