<svg width="83" height="83" viewBox="0 0 83 83" fill="none" xmlns="http://www.w3.org/2000/svg">
<rect width="83" height="83" fill="white"/>
<path d="M40.9731 27.0915C41.0519 22.7982 40.9731 18.5049 41.0519 14.2115H49.7983C49.7194 14.9271 49.8771 15.7215 50.0368 16.437H43.5968V51.3416C43.6725 52.8274 43.2831 54.2998 42.483 55.5541C41.8951 56.54 41.0867 57.3762 40.1211 57.9969C39.1556 58.6177 38.0593 59.0062 36.9183 59.1318C35.4572 59.2835 33.985 58.9793 32.7037 58.2607C31.7497 57.7028 30.8765 56.9872 30.2397 56.0332C32.4652 57.2258 35.4083 57.2258 37.555 55.7947C39.7017 54.5233 41.0519 52.0593 41.0519 49.5144C40.9731 42.0415 40.9731 34.5665 40.9731 27.0936V27.0915ZM55.4439 24.6275C56.6365 25.3431 58.0676 25.9778 59.4178 26.2972C60.2143 26.5357 61.0874 26.5357 61.9627 26.5357V28.5227C59.4987 27.9668 57.1923 26.5357 55.4439 24.6275Z" fill="#25F4EE"/>
<path d="M25.152 35.5994C28.3251 33.6141 32.1017 32.8244 35.8044 33.3719V35.5185C32.4652 35.5185 29.1259 36.7111 26.4234 38.7002C24.2767 40.2889 22.7668 42.3568 21.653 44.7419C20.5392 46.9674 20.0622 49.4335 20.0622 51.9763C20.0691 54.7085 20.7814 57.3925 22.1301 59.7686C22.7668 60.8824 23.4015 61.9941 24.3555 62.7905C22.5283 61.5171 20.9375 59.7686 19.7449 57.7816C18.1541 55.1579 17.4385 52.136 17.5215 49.0353C17.677 46.2519 18.3926 43.3896 19.9046 41.0045C21.1842 38.7999 22.9863 36.9438 25.152 35.5994Z" fill="#25F4EE"/>
<path d="M43.5967 16.437H50.1155C50.3541 17.6296 50.8311 18.9031 51.3081 20.0148C52.1862 21.7781 53.535 23.264 55.2053 24.3082C55.3629 24.389 55.4438 24.4679 55.4438 24.5467C57.1923 26.4548 59.4986 27.8859 62.0415 28.4439C62.1223 30.6693 62.0415 33.0545 62.0415 35.3609C57.7069 35.429 53.4671 34.0899 49.9579 31.5446C49.9579 37.0305 49.9579 42.5164 50.0367 47.9215C50.0367 48.637 50.1155 49.3526 50.0367 50.149C49.8027 52.8103 48.9886 55.3879 47.6515 57.7007C46.4589 59.6898 44.949 61.517 43.0409 62.8693C40.6118 64.646 37.7009 65.644 34.6927 65.7316C33.1712 65.7966 31.6477 65.6628 30.1609 65.3333C28.0142 64.8563 26.1061 64.0619 24.3555 62.7905L24.1979 62.6308C23.3 61.7479 22.5481 60.7279 21.9703 59.6089C20.6989 57.3046 19.9046 54.5212 19.9046 51.8187C19.8321 49.3127 20.3778 46.8274 21.4933 44.5822C22.6071 42.2779 24.1979 40.0504 26.2637 38.5405C28.9703 36.4726 32.3096 35.363 35.7256 35.28C35.8044 36.1553 35.7256 37.0305 35.8044 37.9037V42.3567C34.6927 41.9585 33.5001 41.9585 32.3075 42.197C30.9552 42.4356 29.6029 43.0723 28.6489 44.0264C27.9937 44.5777 27.4538 45.2529 27.0601 46.0133C26.3446 47.2868 26.1849 48.7967 26.3446 50.2279C26.5022 51.659 27.0601 53.0113 28.0142 54.0442C28.6489 54.7597 29.4453 55.3156 30.2397 55.8735C30.8764 56.7467 31.7496 57.5431 32.7037 58.099C33.9772 58.8145 35.4871 59.053 36.9182 58.9742C39.1437 58.8145 41.2903 57.3834 42.4829 55.3964C43.2025 54.1075 43.5856 52.6581 43.5967 51.1819V16.437Z" fill="black"/>
<path d="M50.1156 16.437C50.8312 16.5179 51.6276 16.437 52.422 16.437C52.4268 18.9918 53.2024 21.4857 54.6475 23.5926C54.886 23.8311 55.0457 24.0696 55.2054 24.3082C53.5357 23.2753 52.1835 21.6844 51.3082 20.0148C50.7523 18.9819 50.3541 17.7105 50.1156 16.437ZM62.0415 28.5227C62.838 28.7612 63.7112 28.7612 64.5864 28.7612V37.5864C60.2931 37.6652 55.9209 36.1553 52.422 33.6104V51.1819C52.4869 52.5197 52.3526 53.8596 52.0237 55.1579C51.2294 59.1319 48.8442 62.6308 45.5837 65.016C43.8353 66.2086 41.9272 67.1627 39.8593 67.6397C37.3165 68.1956 34.6928 68.1956 32.3076 67.48C29.3645 66.7644 26.662 65.0948 24.5941 62.8693C26.3446 64.0619 28.2528 65.016 30.3994 65.4142C31.9094 65.7316 33.4193 65.8104 34.9313 65.8104C37.9371 65.71 40.8443 64.7132 43.2795 62.9482C45.1067 61.5979 46.6187 59.7686 47.8901 57.7816C49.1615 55.4753 50.1156 52.8516 50.1965 50.2279C50.276 49.4882 50.276 48.7421 50.1965 48.0024C50.1156 42.5164 50.1156 37.0305 50.1156 31.6234C53.6253 34.1692 57.866 35.5083 62.2012 35.4397C62.0415 33.1333 62.0415 30.829 62.0415 28.5227Z" fill="#FE2C55"/>
<path d="M35.8854 35.3609C36.6797 35.3609 37.6338 35.4397 38.4282 35.5185V44.5822C37.2356 44.1861 35.8045 44.1052 34.6119 44.4246C33.4278 44.7076 32.3308 45.2755 31.4163 46.0791C30.5018 46.8826 29.7974 47.8975 29.3645 49.0353C28.5701 51.2608 28.8874 53.9653 30.3186 55.9523C29.4903 55.4561 28.7403 54.8396 28.0931 54.123C27.2178 53.0113 26.5832 51.659 26.4234 50.3067C26.2579 48.8631 26.5061 47.4022 27.139 46.0942C27.5372 45.3787 28.0931 44.6631 28.7298 44.1052C29.8083 43.2484 31.0537 42.626 32.3864 42.2779C33.579 42.0394 34.6928 42.0394 35.8854 42.4356V35.363V35.3609Z" fill="#FE2C55"/>
</svg>
