<?xml version="1.0" encoding="UTF-8"?>
<svg width="48px" height="48px" viewBox="0 0 48 48" version="1.1" xmlns="http://www.w3.org/2000/svg" xmlns:xlink="http://www.w3.org/1999/xlink">
    <title>抖音</title>
    <defs>
        <linearGradient x1="79.8852203%" y1="92.7783179%" x2="34.5709623%" y2="40.7089673%" id="linearGradient-1">
            <stop stop-color="#8FFFFE" offset="0%"></stop>
            <stop stop-color="#57FEFC" offset="100%"></stop>
        </linearGradient>
    </defs>
    <g id="一键发布" stroke="none" stroke-width="1" fill="none" fill-rule="evenodd">
        <g id="4-成品视频-抖音-未编辑" transform="translate(-1228.000000, -236.000000)">
            <g id="编组-52" transform="translate(1212.000000, 155.000000)">
                <g id="抖音-未编辑" transform="translate(0.000000, 65.000000)">
                    <g id="抖音" transform="translate(16.000000, 16.000000)">
                        <rect id="矩形" fill="#333333" x="0" y="0" width="48" height="48" rx="8"></rect>
                        <g id="douyin" fill-rule="nonzero">
                            <path d="M39.6000001,17.6484379 L39.6000001,22.7193754 L39.5628736,22.7221879 C36.9640221,22.7221879 34.4363296,21.9543754 32.3572484,20.5340629 L32.3572484,30.4425004 C32.3572484,35.5021879 28.0691434,39.6000004 22.7786242,39.6000004 C18.1909088,39.6000004 14.3569715,36.5185978 13.4193144,32.4006449 L19.0432026,32.400545 C19.7624543,33.6900436 21.1837807,34.5684379 22.8188446,34.5684379 C25.1763742,34.5684379 27.0914802,32.7375004 27.0914802,30.4818754 L27.0910868,23.5004695 L27.9179163,19.6161082 L33.2333464,13.9454695 C34.4255191,16.1453645 36.829212,17.6484379 39.6000001,17.6484379 Z" id="形状结合" fill="#F31E59"></path>
                            <path d="M24.691,10.8 L27.0914801,10.8 L29.957,20.261 L29.9572483,28.0425 C29.9572483,33.1021875 25.6691433,37.2 20.3786242,37.2 C15.088105,37.2 10.8,33.1021875 10.8,28.0425 C10.8,22.9828125 15.088105,18.885 20.3786242,18.885 C20.9076761,18.885 21.4212586,18.9271875 21.9224657,19.0059375 L21.9224657,24.2540625 C21.4429157,24.0825 20.932427,23.9953125 20.4188445,23.9953125 C18.058221,23.9953125 16.143115,25.8234375 16.143115,28.081875 C16.143115,30.3375 18.058221,32.1684375 20.4188445,32.1684375 C22.7763741,32.1684375 24.6914801,30.3375 24.6914801,28.081875 L24.691,10.8 Z" id="形状结合" fill="url(#linearGradient-1)"></path>
                            <path d="M38.3628735,21.5221875 C35.764022,21.5221875 33.2363295,20.754375 31.1572483,19.3340625 L31.1572483,29.2425 C31.1572483,34.3021875 26.8691433,38.4 21.5786242,38.4 C16.288105,38.4 12,34.3021875 12,29.2425 C12,24.1828125 16.288105,20.085 21.5786242,20.085 C22.1076761,20.085 22.6212586,20.1271875 23.1224657,20.2059375 L23.1224657,25.4540625 C22.6429157,25.2825 22.132427,25.1953125 21.6188445,25.1953125 C19.258221,25.1953125 17.343115,27.0234375 17.343115,29.281875 C17.343115,31.5375 19.258221,33.3684375 21.6188445,33.3684375 C23.9763741,33.3684375 25.8914801,31.5375 25.8914801,29.281875 L25.8914801,9.6 L31.2345951,9.6 C31.2345951,13.3828125 34.4429392,16.4484375 38.4,16.4484375 L38.4,21.519375 L38.3628735,21.5221875" id="路径" fill="#FFFFFF"></path>
                        </g>
                    </g>
                </g>
            </g>
        </g>
    </g>
</svg>