<?xml version="1.0" encoding="UTF-8"?>
<svg width="48px" height="48px" viewBox="0 0 48 48" version="1.1" xmlns="http://www.w3.org/2000/svg" xmlns:xlink="http://www.w3.org/1999/xlink">
    <title>B站</title>
    <g id="一键发布" stroke="none" stroke-width="1" fill="none" fill-rule="evenodd">
        <g id="4-成品视频-抖音-未编辑" transform="translate(-1228.000000, -556.000000)">
            <g id="编组-52" transform="translate(1212.000000, 155.000000)">
                <g id="抖音-未编辑" transform="translate(0.000000, 65.000000)">
                    <g id="b站-未选中" transform="translate(0.000000, 320.000000)">
                        <g id="B站" transform="translate(16.000000, 16.000000)">
                            <rect id="矩形" fill="#EC5D85" x="0" y="0" width="48" height="48" rx="8"></rect>
                            <g id="哔哩哔哩" transform="translate(3.600000, 4.800000)" fill-rule="nonzero">
                                <g id="编组-13">
                                    <g id="编组-17" transform="translate(1.200000, 0.000000)">
                                        <path d="M19.2,5.6118015 L21.6789873,5.6118015 L24.7675139,1.19318607 C27.1235241,-1.1152422 29.0226228,1.21291622 27.7986835,3.2902198 L26.169843,5.65314087 C38.4,5.88379579 38.4,7.62615648 38.4,20.5644412 C38.4,35.5175507 38.4,36 19.2,36 C0,36 0,35.5175507 0,20.5644412 C0,7.82486734 0,5.93922814 12.0162835,5.656899 L10.1444051,2.97923496 C8.66041519,0.460351697 11.916638,-1.16832571 13.2149468,1.03534482 L16.0827949,5.61415033 C16.9460658,5.6118015 18.0377924,5.6118015 19.2,5.6118015 Z" id="路径" fill="#EF85A7"></path>
                                        <path d="M20.4,7.2 C36,7.2 36,7.2 36,19.009787 C36,30.8195741 36,31.2 20.4,31.2 C4.8,31.2 4.8,30.8195741 4.8,19.009787 C4.8,7.2 4.8,7.2 20.4,7.2 Z" id="路径" fill="#EC5D85"></path>
                                        <path d="M8.58483747,18.3646142 C8.06047687,18.3646142 7.58111571,18.0241722 7.34655173,17.4852393 C7.00450621,16.6993276 7.28159651,15.7435713 7.96546383,15.3504511 L13.5038272,12.168158 C13.8322994,11.9794352 14.2125579,11.9484026 14.5609413,12.0818877 C14.9093248,12.2153728 15.1972919,12.50244 15.3614865,12.8799309 C15.5257102,13.2574051 15.5527143,13.6943913 15.4365576,14.0947472 C15.3204009,14.4951031 15.0705996,14.8260297 14.7421129,15.0147192 L9.20374957,18.1970122 C9.01162297,18.3075201 8.79968564,18.3649125 8.58483747,18.3646142 L8.58483747,18.3646142 Z M29.8152303,18.364613 C29.6151708,18.3644858 29.4175291,18.3143551 29.2360098,18.2176971 L23.2361162,15.0354041 C22.5416793,14.6676111 22.2381437,13.7225506 22.5581282,12.924483 C22.7119882,12.5413049 22.9920053,12.2440611 23.336577,12.098144 C23.6811487,11.9522269 24.0620484,11.9695896 24.3954802,12.1464123 L30.3953738,15.3287054 C30.9858165,15.6417915 31.3071138,16.3848693 31.1676375,17.1147526 C31.0281612,17.8446358 30.4654976,18.364613 29.8152303,18.364613 Z M16.3846992,23.9999236 C16.1663873,23.9992986 15.961122,23.8803721 15.8308628,23.6790424 C15.6017707,23.3276275 15.6637401,22.8293665 15.9693219,22.5657702 L19.0569595,19.92871 L21.3263039,22.6543441 C21.5906312,22.9718715 21.5809194,23.4755246 21.3046119,23.7792847 C21.0283045,24.0830448 20.5900335,24.0718841 20.3257062,23.7543567 L18.9018853,22.0438742 L16.7963842,23.8424001 C16.6774979,23.9444856 16.5331082,23.9997336 16.3846992,23.9999236 L16.3846992,23.9999236 Z" id="形状" fill="#EF85A7"></path>
                                    </g>
                                    <g id="编组-15" transform="translate(0.000000, 8.400000)">
                                        <path d="M0,1.4639514 C0.675719217,6.5332779 1.47663982,8.78523655 2.0023015,19.1393563 C2.66006904,19.2478537 9.99033372,19.6390558 11.1746835,15.4270119 C11.2558282,15.2618445 11.2820531,15.0704135 11.2487917,14.8860528 C9.87295742,10.8899851 3.64234753,11.8807246 3.64234753,11.8807246 C3.64234753,11.8807246 3.17652474,4.59305839 3.12543153,0 L0,1.4639514 Z M13.3376295,2.14651747 L14.9026467,17.2276619 L16.4598389,17.2276619 L15.2699655,2.05177323 L13.3376295,2.14651747 Z M10.9675489,9.76986357 L13.0121979,9.76986357 L13.7357883,17.6601236 L12.3051784,17.7523209 L10.9675489,9.76986357 Z M17.1410817,10.1029966 L19.2,10.1029966 L19.2,18.17867 L17.6773303,18.17867 L17.1410817,10.1029966 Z M10.3866513,5.87414321 L11.3482163,5.87414321 L11.5852704,8.80866792 L10.7350978,8.92124039 L10.3866513,5.87414321 Z M11.7528193,5.87414321 L12.7143843,5.87414321 L12.8285386,8.65025147 L12.0460299,8.73073314 L11.7528193,5.87414321 Z M18.2089758,5.96939683 L19.0835443,5.96939683 L19.0835443,9.06743178 L18.2089758,9.06743178 L18.2089758,5.96939683 Z M16.8432681,5.96939683 L17.8411968,5.96939683 L17.8411968,9.06743178 L17.0936709,9.06743178 L16.8432681,5.96939683 Z" id="形状" fill="#FFFFFF"></path>
                                        <path d="M6.19597928,16.1830182 C5.87699259,16.4053078 5.54273963,16.6046093 5.19572978,16.7794263 C5.16898976,16.8012388 5.13233306,16.8061264 5.10085906,16.7920757 C5.06938505,16.778025 5.04841784,16.7474129 5.0465941,16.7128489 C4.9694471,16.3809465 4.91154508,16.0448212 4.87318053,15.7061707 C4.82531838,15.2913691 4.80693654,14.8319501 4.8,14.4683887 C4.8,14.4579316 4.8,14.3829884 4.90196718,14.4035542 C5.29564717,14.4839583 5.68302369,14.5928811 6.06106352,14.7294697 C6.43787224,14.8758974 6.80408197,15.0485095 7.15703731,15.2460546 C7.17472549,15.2547689 7.24235679,15.2965977 7.16015875,15.374678 C6.85719119,15.6655793 6.53506874,15.9356375 6.19597928,16.1830182 Z" id="路径" fill="#EB5480"></path>
                                        <path d="M21.6,1.4639514 C22.2757192,6.5332779 23.0766398,8.78523655 23.6023015,19.1393563 C24.260069,19.2478537 31.5903337,19.6390558 32.7746835,15.4270119 C32.8558282,15.2618445 32.8820531,15.0704135 32.8487917,14.8860528 C31.4729574,10.8899851 25.2423475,11.8807246 25.2423475,11.8807246 C25.2423475,11.8807246 24.7765247,4.59305839 24.7254315,0 L21.6,1.4639514 Z M34.9376295,2.14651747 L36.5026467,17.2276619 L38.0598389,17.2276619 L36.8699655,2.05177323 L34.9376295,2.14651747 Z M32.5675489,9.76986357 L34.6121979,9.76986357 L35.3357883,17.6601236 L33.9051784,17.7523209 L32.5675489,9.76986357 Z M38.7410817,10.1029966 L40.8,10.1029966 L40.8,18.17867 L39.2773303,18.17867 L38.7410817,10.1029966 Z M31.9866513,5.87414321 L32.9482163,5.87414321 L33.1852704,8.80866792 L32.3350978,8.92124039 L31.9866513,5.87414321 Z M33.3528193,5.87414321 L34.3143843,5.87414321 L34.4285386,8.65025147 L33.6460299,8.73073314 L33.3528193,5.87414321 Z M39.8089758,5.96939683 L40.6835443,5.96939683 L40.6835443,9.06743178 L39.8089758,9.06743178 L39.8089758,5.96939683 Z M38.4432681,5.96939683 L39.4411968,5.96939683 L39.4411968,9.06743178 L38.6936709,9.06743178 L38.4432681,5.96939683 Z" id="形状" fill="#FFFFFF"></path>
                                        <path d="M28.7601588,15.374678 C28.4571912,15.6655793 28.1350687,15.9356375 27.7959793,16.1830182 C27.4769926,16.4053078 27.1427396,16.6046093 26.7957298,16.7794263 C26.7689898,16.8012388 26.7323331,16.8061264 26.7008591,16.7920757 C26.669385,16.778025 26.6484178,16.7474129 26.6465941,16.7128489 C26.5694471,16.3809465 26.5115451,16.0448212 26.4731805,15.7061707 C26.4253184,15.2913691 26.4069365,14.8319501 26.4,14.4683887 C26.4,14.4579316 26.4,14.3829884 26.5019672,14.4035542 C26.8956472,14.4839583 27.2830237,14.5928811 27.6610635,14.7294697 C28.0378722,14.8758974 28.404082,15.0485095 28.7570373,15.2460546 C28.7747255,15.2547689 28.8423568,15.2965977 28.7601588,15.374678 L28.7601588,15.374678 Z" id="路径" fill="#EB5480"></path>
                                    </g>
                                </g>
                            </g>
                        </g>
                    </g>
                </g>
            </g>
        </g>
    </g>
</svg>