<?xml version="1.0" encoding="UTF-8"?>
<svg width="48px" height="48px" viewBox="0 0 48 48" version="1.1" xmlns="http://www.w3.org/2000/svg" xmlns:xlink="http://www.w3.org/1999/xlink">
    <title>小红书</title>
    <g id="一键发布" stroke="none" stroke-width="1" fill="none" fill-rule="evenodd">
        <g id="4-成品视频-抖音-未编辑" transform="translate(-1228.000000, -476.000000)">
            <g id="编组-52" transform="translate(1212.000000, 155.000000)">
                <g id="抖音-未编辑" transform="translate(0.000000, 65.000000)">
                    <g id="小红书-未选中" transform="translate(0.000000, 240.000000)">
                        <g id="小红书" transform="translate(16.000000, 16.000000)">
                            <rect id="矩形" fill="#EC404A" x="0" y="0" width="48" height="48" rx="8"></rect>
                            <g transform="translate(4.800000, 18.000000)" fill="#FFFFFF" fill-rule="nonzero">
                                <path d="M5.42774108,0.181634712 L7.40607662,0.181634712 L7.40607662,9.3481332 C7.40607662,10.1432896 7.27608983,10.7295661 7.01611625,11.1069627 C6.75614267,11.4843592 6.42219287,11.7073663 6.01426684,11.7759839 C5.60634082,11.8446014 4.67529723,11.8789102 3.22113606,11.8789102 C3.09431968,11.1927346 2.93791281,10.554995 2.75191546,9.96569122 C3.42826948,10.0383451 4.02007926,10.074672 4.52734478,10.074672 C5.12760898,10.074672 5.42774108,9.73965691 5.42774108,9.06962664 L5.42774108,0.181634712 Z M10.335535,2.79717457 C11.1387054,4.56508577 11.9165125,6.42583249 12.6689564,8.37941473 L10.6652576,9.11806256 C9.97199472,7.02724521 9.2660502,5.10998991 8.54742404,3.36629667 L10.335535,2.79717457 Z M1.94029062,2.80928355 L3.84253633,3.24520686 C3.22536328,5.4086781 2.57014531,7.39051463 1.87688243,9.19071645 L0,8.51261352 C0.743989432,6.67204844 1.39075297,4.77093845 1.94029062,2.80928355 Z" id="小"></path>
                                <path d="M14.9389696,3.71745711 C15.2221929,3.71342079 15.5645971,3.70131181 15.9661823,3.68113017 C16.2451783,3.22906155 16.5199472,2.7568113 16.7904888,2.26437941 L18.4137384,3.02724521 C17.6951123,4.23814329 16.7439894,5.56205853 15.5603699,6.99899092 C16.3128137,6.91826438 17.0441215,6.82946519 17.7542933,6.73259334 C17.669749,7.3864783 17.6190225,7.91927346 17.6021136,8.33097881 C15.5561427,8.49243189 14.2795244,8.66195762 13.7722589,8.839556 L13.0874505,7.21695257 C13.5101717,7.08779011 14.14214,6.40161453 14.9833554,5.15842583 C14.2774108,5.20282543 13.7595773,5.26337033 13.4298547,5.34006054 L12.9099075,3.87487386 C13.3833554,3.5358224 14.1527081,2.24419778 15.2179657,0 L16.9680317,0.678102926 C16.1564069,1.9778002 15.4800528,2.99091826 14.9389696,3.71745711 Z M13.2903567,11.3097881 L12.9859974,9.6024218 C14.5754293,9.41675076 16.1268164,9.21089808 17.6401585,8.98486377 L17.6021136,9.83249243 L20.6203435,9.83249243 L20.6203435,2.61553986 L17.9571995,2.61553986 L17.9571995,0.992936428 L25.0842801,0.992936428 L25.0842801,2.61553986 L22.4464993,2.61553986 L22.4464993,9.83249243 L25.4266843,9.83249243 L25.4266843,11.4550959 L17.5006605,11.4550959 L17.5006605,10.7043391 C16.0169089,10.8859738 14.6134742,11.0877901 13.2903567,11.3097881 Z" id="红"></path>
                                <path d="M26.8850727,1.98587286 L30.1822985,1.98587286 L30.1822985,0.0968718466 L32.0211361,0.0968718466 L32.0211361,1.98587286 L35.5149273,1.98587286 C35.1556143,1.73158426 34.7815059,1.47729566 34.3926024,1.22300706 L35.4832232,0.108980827 C36.5400264,0.762865792 37.5122853,1.42078708 38.4,2.0827447 L37.2206077,3.29364279 C36.9627477,3.07971746 36.6922061,2.86377397 36.4089828,2.64581231 L36.1870542,5.66700303 L38.0449141,5.66700303 C37.9857332,7.33804238 37.9202114,8.47124117 37.8483487,9.06659939 C37.7764861,9.66195762 37.5450462,10.1321897 37.1540291,10.4772957 C36.7630119,10.8224016 36.193395,10.9949546 35.4451783,10.9949546 C34.6504624,10.9949546 34.0586526,10.9828456 33.669749,10.9586276 C33.6021136,10.4661958 33.4752972,9.88900101 33.2892999,9.22704339 C33.8388375,9.29969728 34.3926024,9.33602422 34.9505945,9.33602422 C35.2845443,9.33602422 35.543461,9.26740666 35.7273448,9.13017154 C35.9112285,8.99293643 36.0232497,8.79919273 36.0634082,8.54894046 C36.1035667,8.29868819 36.134214,7.83854692 36.1553501,7.16851665 L32.0211361,7.16851665 L32.0211361,12 L30.1822985,12 L30.1822985,7.16851665 L25.997358,7.16851665 L25.997358,5.66700303 L30.1822985,5.66700303 L30.1822985,3.46316852 L26.8850727,3.46316852 L26.8850727,1.98587286 Z M34.544782,3.46316852 L32.0211361,3.46316852 L32.0211361,5.66700303 L34.3799207,5.66700303 L34.544782,3.46316852 Z" id="书"></path>
                            </g>
                        </g>
                    </g>
                </g>
            </g>
        </g>
    </g>
</svg>