<?xml version="1.0" encoding="UTF-8"?>
<svg width="48px" height="48px" viewBox="0 0 48 48" version="1.1" xmlns="http://www.w3.org/2000/svg" xmlns:xlink="http://www.w3.org/1999/xlink">
    <title>快手</title>
    <g id="一键发布" stroke="none" stroke-width="1" fill="none" fill-rule="evenodd">
        <g id="4-成品视频-抖音-未编辑" transform="translate(-1228.000000, -396.000000)">
            <g id="编组-52" transform="translate(1212.000000, 155.000000)">
                <g id="抖音-未编辑" transform="translate(0.000000, 65.000000)">
                    <g id="快手-未选中" transform="translate(0.000000, 160.000000)">
                        <g id="快手" transform="translate(16.000000, 16.000000)">
                            <rect id="矩形" fill="#FF4905" x="0" y="0" width="48" height="48" rx="8"></rect>
                            <g id="编组" transform="translate(12.000000, 9.600000)" fill="#FFFFFF" fill-rule="nonzero">
                                <path d="M10.1708987,15.8071641 C10.2980791,15.7999635 19.2642968,15.0546992 19.861338,15.1501074 C20.4566129,15.2473158 22.8447781,15.1753096 22.9631265,16.1221913 C23.0814749,17.0582721 22.9631265,17.9709509 22.9631265,17.9709509 C22.9631265,17.9709509 17.6639435,18.9178326 17.5455951,19.0420433 C17.4272466,19.1626537 16.9962464,19.6018916 17.0209759,20.2571481 C17.0457055,20.916005 17.0457055,23.4686253 17.0669022,23.5424317 C17.0933981,23.6144379 17.2117465,24.10228 18.1196732,24.0032715 C18.7011612,23.9268991 19.2716222,23.7800472 19.8189446,23.5658337 C19.8889846,23.5398204 19.9326757,23.4685785 19.9249282,23.3930188 L19.8754692,22.7359621 C19.8718237,22.6872573 19.8479159,22.6424657 19.8097752,22.6128835 C19.7716345,22.5833013 19.7229016,22.5717521 19.6758666,22.5811487 L18.3104438,22.8583726 L18.3104438,20.2337461 L22.7370281,19.4182758 C22.830647,19.4002742 22.9189667,19.4722804 22.9224995,19.5694888 L23.0673438,24.0194728 C23.0673438,24.0194728 23.3199382,25.1247682 21.4599249,25.5154019 C19.5981453,25.9078358 15.1362332,27.0491343 14.7052329,27.0707362 C14.0721048,27.1119449 13.4365157,27.0542738 12.8204902,26.8997214 C12.3130844,26.7548535 11.813657,26.5823916 11.3243542,26.3830768 C11.271067,26.3611704 11.2307517,26.3153312 11.2151948,26.2589606 C11.199638,26.2025901 11.2105964,26.1420545 11.2448664,26.095052 L12.8717156,23.8394573 C12.9319514,23.7573953 12.9642077,23.6575126 12.9635681,23.5550328 L12.9635681,21.0708184 C12.9635456,20.9420673 12.9148322,20.8182784 12.8275558,20.7251886 L9.34245969,16.9898662 C9.24908618,16.8892841 9.20612007,16.7506243 9.22587766,16.6136337 C9.26827112,16.3184082 9.45374254,15.852168 10.1708987,15.8089643 L10.1708987,15.8071641 Z" id="路径"></path>
                                <path d="M7.81099581,17.335496 C7.75035892,17.2718257 7.67095991,17.2301031 7.58489732,17.2166858 L1.32126295,16.280605 C1.23428842,16.2626946 1.14397915,16.2734111 1.06336938,16.3112076 C0.789578261,16.4408188 0.19253696,16.8224518 0,17.7693335 L0,25.2687806 C0,25.2687806 0.0883197306,26.7665099 2.11084124,27.4577696 C4.13512917,28.1490292 6.60454846,28.771883 6.60454846,28.771883 C6.60454846,28.771883 7.98233606,29.0437064 8.53875027,27.8970075 C9.09339808,26.744908 11.7429896,23.4632248 11.7429896,23.4632248 L11.7429896,21.4758533 L7.81099581,17.335496 L7.81099581,17.335496 Z M6.17708102,26.2732673 C5.5305807,26.2552658 2.90571868,25.8880341 2.07904613,25.1229681 C1.32832855,24.4317084 1.70280415,18.9754376 1.70280415,18.9754376 C1.70280415,18.9754376 1.71693531,18.3417829 2.07904613,18.4101888 L6.24773681,19.1752548 C6.24773681,19.1752548 6.76705676,19.4830813 6.76705673,19.9223192 L6.76705673,25.8160279 C6.76705673,25.817828 6.82181496,26.2930691 6.17708102,26.2732673 L6.17708102,26.2732673 Z M24,8.83156215 C24,5.92071096 21.7955399,3.55710698 19.0735262,3.55710698 C17.5226319,3.55710698 16.1377788,4.32577332 15.2351512,5.52647693 C14.5109296,2.35100288 11.9266946,0 8.84610289,0 C5.20733055,0 2.25745196,3.27988305 2.25745196,7.32483211 C2.25745196,11.3697812 5.20733052,14.6478641 8.84610289,14.6478641 C9.03687349,14.6478641 9.22587766,14.6370631 9.41488187,14.6172615 L19.2589976,14.1006169 L19.3897108,14.0952164 L19.5274895,14.0862156 L19.5239567,14.0826153 C22.0322367,13.8377942 24,11.5803994 24,8.83156215 L24,8.83156215 Z M10.1037757,11.4399872 C8.26319275,11.4399872 6.77058954,9.69023625 6.77058954,7.53004984 C6.77058954,5.36986341 8.26319275,3.62011241 10.1037757,3.62011241 C11.9443586,3.62011241 13.4387282,5.36986341 13.4387282,7.53004984 C13.4387282,9.69023628 11.9443586,11.4399872 10.1037757,11.4399872 Z M19.8542725,11.2599717 C18.6407596,11.2599717 17.6551115,10.1078723 17.6551115,8.68034909 C17.6551115,7.25462604 18.6407595,6.10072649 19.8560389,6.10072649 C21.0695518,6.10072649 22.0551998,7.25282592 22.0551998,8.68034909 C22.0551998,10.1060721 21.0695518,11.2599717 19.8560389,11.2599717 L19.8542725,11.2599717 Z" id="形状"></path>
                            </g>
                        </g>
                    </g>
                </g>
            </g>
        </g>
    </g>
</svg>