<?xml version="1.0" encoding="UTF-8"?>
<svg width="48px" height="48px" viewBox="0 0 48 48" version="1.1" xmlns="http://www.w3.org/2000/svg" xmlns:xlink="http://www.w3.org/1999/xlink">
    <title>视频号</title>
    <defs>
        <polygon id="path-1" points="0 0 33.6 0 33.6 28.8 0 28.8"></polygon>
    </defs>
    <g id="一键发布" stroke="none" stroke-width="1" fill="none" fill-rule="evenodd">
        <g id="4-成品视频-抖音-未编辑" transform="translate(-1228.000000, -316.000000)">
            <g id="编组-52" transform="translate(1212.000000, 155.000000)">
                <g id="抖音-未编辑" transform="translate(0.000000, 65.000000)">
                    <g id="视频号-未选中" transform="translate(0.000000, 80.000000)">
                        <g id="视频号" transform="translate(16.000000, 16.000000)">
                            <rect id="矩形" fill="#FA9D3B" x="0" y="0" width="48" height="48" rx="8"></rect>
                            <g id="编组" transform="translate(7.200000, 9.600000)">
                                <mask id="mask-2" fill="white">
                                    <use xlink:href="#path-1"></use>
                                </mask>
                                <g id="Clip-2"></g>
                                <path d="M14.8172569,17.7628981 C14.3367639,18.669825 13.501995,20.1616205 12.4939281,21.6153515 C10.8851615,23.934635 9.7719137,24.8226952 9.13181291,25.1613033 C8.84097943,25.3148851 8.48403224,25.2212134 8.30205263,24.9488044 C7.5764715,23.864464 6.18608042,21.0086372 4.90187195,15.9487133 C3.53218315,10.5521671 3.07439588,5.58823177 3.78862415,3.87698646 C3.901151,3.60722536 4.22604305,3.49667295 4.47947889,3.64462782 C5.447143,4.20897467 7.85127742,6.264786 12.3974288,13.74594 C13.4208555,15.4303747 14.3023715,16.9009865 14.8172569,17.7628981 M28.698128,15.9487133 C27.4396305,20.9090077 26.0782893,23.7509327 25.346364,24.8799574 C25.1249833,25.2212134 24.6678638,25.3155471 24.320266,25.1013932 C22.9595927,24.2629823 20.7224121,21.5276377 18.7777345,17.771173 C19.2916182,16.9105854 20.1758054,15.4360017 21.2025712,13.74594 C25.7630806,6.24128534 28.1692185,4.19639685 29.128201,3.63933189 C29.3876472,3.48906006 29.6935065,3.59464754 29.8090385,3.86937357 L29.8120437,3.87731746 C30.5256041,5.58823177 30.0678169,10.5521671 28.698128,15.9487133 M33.0105442,2.56591438 C32.1400472,0.478658504 30.6845441,0.0682244267 29.8931832,0.00930727688 C26.9414404,-0.208156585 23.464461,3.37354273 18.2371381,11.9757776 C17.7112337,12.8409991 17.222727,13.6506134 16.8,14.3529853 C16.3796104,13.6542544 15.8917714,12.845964 15.3628619,11.9757776 C10.1345373,3.37122576 6.64253206,-0.206832604 3.70648289,0.00930727688 C2.91578979,0.0682244267 1.46028674,0.478658504 0.589455829,2.56591438 C-0.61160966,5.44424885 0.290942472,11.0754706 0.936051875,14.1759028 C1.91006022,18.8578303 3.47842403,23.52056 4.93192363,26.0556524 C5.89858602,27.7414111 6.86491449,28.6013367 7.97281977,28.7615384 C8.15045859,28.787356 8.33143649,28.8002648 8.51074485,28.8002648 C11.7833728,28.8002648 14.8997321,24.5638569 16.7996661,21.3356605 C18.6996001,24.5638569 21.8156254,28.8002648 25.0892552,28.8002648 C25.2685635,28.8002648 25.4498753,28.787356 25.627848,28.7615384 C26.7350855,28.6013367 27.701414,27.7414111 28.6680764,26.0556524 C30.121576,23.520891 31.6899398,18.8578303 32.6639481,14.1759028 C33.3090575,11.0754706 34.2116097,5.44457984 33.0105442,2.56591438" id="Fill-1" fill="#FFFFFF" mask="url(#mask-2)"></path>
                            </g>
                        </g>
                    </g>
                </g>
            </g>
        </g>
    </g>
</svg>