<?xml version="1.0" encoding="UTF-8"?>
<svg width="80px" height="80px" viewBox="0 0 80 80" version="1.1" xmlns="http://www.w3.org/2000/svg" xmlns:xlink="http://www.w3.org/1999/xlink">
    <title>视频下载</title>
    <g id="自媒体2.1.1" stroke="none" stroke-width="1" fill="none" fill-rule="evenodd">
        <g id="一键发布-下载中" transform="translate(-682.000000, -339.000000)" fill-rule="nonzero">
            <g id="编组-16" transform="translate(252.000000, 89.000000)">
                <g id="编组-63" transform="translate(0.000000, 64.000000)">
                    <g id="编组-62" transform="translate(0.000000, 20.000000)">
                        <g id="编组-46" transform="translate(290.000000, 166.000000)">
                            <g id="视频下载" transform="translate(140.000000, 0.000000)">
                                <rect id="矩形" x="0" y="0" width="80" height="80"></rect>
                                <path d="M21.8181819,40 C21.8181819,39.0355764 21.4350661,38.110653 20.7531156,37.4287026 C20.0711652,36.7467521 19.1462418,36.3636363 18.1818182,36.3636363 L3.63636366,36.3636363 C1.62805547,36.3636363 0,37.9916918 0,40 C0,42.0083082 1.62805547,43.6363636 3.63636366,43.6363636 L18.1818182,43.6363636 C20.1901264,43.6363636 21.8181819,42.0083082 21.8181819,40 L21.8181819,40 Z M76.3636364,36.3636363 L61.8181819,36.3636363 C59.8098737,36.3636363 58.1818182,37.9916918 58.1818182,40 C58.1818182,42.0083082 59.8098737,43.6363636 61.8181819,43.6363636 L76.3636364,43.6363636 C78.3719446,43.6363636 80.0000001,42.0083082 80.0000001,40 C80.0000001,37.9916918 78.3719446,36.3636363 76.3636364,36.3636363 L76.3636364,36.3636363 Z M40,0 C37.9916919,0 36.3636364,1.62805542 36.3636364,3.63636358 L36.3636364,18.1818181 C36.3636364,20.1901263 37.9916918,21.8181818 40,21.8181818 C42.0083082,21.8181818 43.6363637,20.1901263 43.6363637,18.1818181 L43.6363637,3.63636358 C43.6363637,1.62805542 42.0083082,0 40,0 L40,0 Z M40,58.1818181 C37.9916918,58.1818181 36.3636364,59.8098736 36.3636364,61.8181818 L36.3636364,76.3636363 C36.3636364,78.3719445 37.9916918,80 40,80 C42.0083082,80 43.6363637,78.3719445 43.6363637,76.3636363 L43.6363637,61.8181818 C43.6363637,59.8098736 42.0083082,58.1818181 40,58.1818181 L40,58.1818181 Z M22,52.8581817 L11.7163637,63.1418182 C10.7710654,64.0548159 10.3919513,65.4068291 10.7247345,66.6782099 C11.0575177,67.9495907 12.0504093,68.9424823 13.3217901,69.2752655 C14.5931709,69.6080487 15.9451841,69.2289346 16.8581818,68.2836363 L27.1418183,58 C28.0871151,57.0870019 28.4662281,55.7349894 28.1334447,54.4636095 C27.8006613,53.1922296 26.8077704,52.1993387 25.5363905,51.8665553 C24.2650106,51.5337719 22.9129981,51.9128849 22,52.8581817 L22,52.8581817 Z M58,27.1418182 L68.2836364,16.8581818 C69.2289347,15.945184 69.6080488,14.5931708 69.2752656,13.32179 C68.9424824,12.0504092 67.9495908,11.0575176 66.67821,10.7247344 C65.4068292,10.3919512 64.054816,10.7710653 63.1418182,11.7163636 L52.8581818,22 C51.9128849,22.912998 51.533772,24.2650106 51.8665554,25.5363904 C52.1993388,26.8077703 53.1922297,27.8006612 54.4636096,28.1334446 C55.7349894,28.466228 57.087002,28.0871151 58,27.1418182 L58,27.1418182 Z M16.8581818,11.7163636 C15.9451841,10.7710653 14.5931709,10.3919512 13.3217901,10.7247344 C12.0504093,11.0575176 11.0575177,12.0504092 10.7247345,13.32179 C10.3919513,14.5931708 10.7710654,15.945184 11.7163637,16.8581818 L22,27.1418182 C22.9129981,28.0871151 24.2650106,28.466228 25.5363905,28.1334446 C26.8077704,27.8006612 27.8006613,26.8077703 28.1334447,25.5363904 C28.4662281,24.2650106 28.0871151,22.912998 27.1418183,22 L16.8581818,11.7163636 Z M58,52.8581817 C57.087002,51.9128849 55.7349894,51.5337719 54.4636096,51.8665553 C53.1922297,52.1993387 52.1993388,53.1922296 51.8665554,54.4636095 C51.533772,55.7349894 51.9128849,57.0870019 52.8581818,58 L63.1418182,68.2836363 C64.054816,69.2289346 65.4068292,69.6080487 66.67821,69.2752655 C67.9495908,68.9424823 68.9424824,67.9495907 69.2752656,66.6782099 C69.6080488,65.4068291 69.2289347,64.0548159 68.2836364,63.1418182 L58,52.8581817 Z" id="形状" fill="#FFFFFF"></path>
                            </g>
                        </g>
                    </g>
                </g>
            </g>
        </g>
    </g>
</svg>