<?xml version="1.0" encoding="UTF-8"?>
<svg width="32px" height="32px" viewBox="0 0 32 32" version="1.1" xmlns="http://www.w3.org/2000/svg" xmlns:xlink="http://www.w3.org/1999/xlink">
    <title>抖音</title>
    <defs>
        <linearGradient x1="79.8852203%" y1="92.7783179%" x2="34.5709623%" y2="40.7089673%" id="linearGradient-1">
            <stop stop-color="#8FFFFE" offset="0%"></stop>
            <stop stop-color="#57FEFC" offset="100%"></stop>
        </linearGradient>
    </defs>
    <g id="订单机构入驻" stroke="none" stroke-width="1" fill="none" fill-rule="evenodd">
        <g id="订单数据看板--抖音小程序" transform="translate(-298.000000, -318.000000)">
            <g id="编组-71" transform="translate(272.000000, 108.000000)">
                <g id="编组-10" transform="translate(0.000000, 40.000000)">
                    <g id="编组-56备份-6" transform="translate(16.000000, 160.000000)">
                        <g id="抖音" transform="translate(10.000000, 10.000000)">
                            <rect id="矩形" stroke="#FFFFFF" stroke-width="0.8" fill="#333333" x="0.4" y="0.4" width="31.2" height="31.2" rx="15.6"></rect>
                            <g id="douyin" fill-rule="nonzero">
                                <path d="M26.4000001,11.7656253 L26.4000001,15.1462503 L26.3752491,15.1481253 C24.6426814,15.1481253 22.9575531,14.6362503 21.5714989,13.6893753 L21.5714989,20.2950003 C21.5714989,23.6681253 18.7127623,26.4000003 15.1857495,26.4000003 C12.1271652,26.4000003 9.571135,24.3455877 8.94614384,21.600141 L12.6960738,21.6014482 C13.1757669,22.4605217 14.1229791,23.0456253 15.212563,23.0456253 C16.7842494,23.0456253 18.0609868,21.8250003 18.0609868,20.3212503 L18.0600579,15.6689797 L18.6119442,13.0774055 L22.1552109,9.2963275 C22.949871,10.7632792 24.5525342,11.7656253 26.4000001,11.7656253 Z" id="形状结合" fill="#F31E59"></path>
                                <path d="M16.46,7.2 L18.0609868,7.2 L19.971,13.508 L19.9714989,18.695 C19.9714989,22.068125 17.1127622,24.8 13.5857494,24.8 C10.0587367,24.8 7.2,22.068125 7.2,18.695 C7.2,15.321875 10.0587367,12.59 13.5857494,12.59 C13.9384507,12.59 14.2808391,12.618125 14.6149771,12.670625 L14.6149771,16.169375 C14.2952772,16.055 13.9549514,15.996875 13.612563,15.996875 C12.038814,15.996875 10.7620766,17.215625 10.7620766,18.72125 C10.7620766,20.225 12.038814,21.445625 13.612563,21.445625 C15.1842494,21.445625 16.4609868,20.225 16.4609868,18.72125 L16.46,7.2 Z" id="形状结合" fill="url(#linearGradient-1)"></path>
                                <path d="M25.575249,14.348125 C23.8426814,14.348125 22.157553,13.83625 20.7714989,12.889375 L20.7714989,19.495 C20.7714989,22.868125 17.9127622,25.6 14.3857494,25.6 C10.8587367,25.6 8,22.868125 8,19.495 C8,16.121875 10.8587367,13.39 14.3857494,13.39 C14.7384507,13.39 15.0808391,13.418125 15.4149771,13.470625 L15.4149771,16.969375 C15.0952772,16.855 14.7549514,16.796875 14.412563,16.796875 C12.838814,16.796875 11.5620766,18.015625 11.5620766,19.52125 C11.5620766,21.025 12.838814,22.245625 14.412563,22.245625 C15.9842494,22.245625 17.2609868,21.025 17.2609868,19.52125 L17.2609868,6.4 L20.8230634,6.4 C20.8230634,8.921875 22.9619595,10.965625 25.6,10.965625 L25.6,14.34625 L25.575249,14.348125" id="路径" fill="#FFFFFF"></path>
                            </g>
                        </g>
                    </g>
                </g>
            </g>
        </g>
    </g>
</svg>