<?xml version="1.0" encoding="UTF-8"?>
<svg width="32px" height="32px" viewBox="0 0 32 32" version="1.1" xmlns="http://www.w3.org/2000/svg" xmlns:xlink="http://www.w3.org/1999/xlink">
    <title>doudian_icon</title>
    <defs>
        <polygon id="path-1" points="0 0 20 0 20 18 0 18"></polygon>
    </defs>
    <g id="订单机构入驻" stroke="none" stroke-width="1" fill="none" fill-rule="evenodd">
        <g id="订单数据看板" transform="translate(-304.000000, -1371.000000)">
            <g id="编组-16" transform="translate(252.000000, 89.000000)">
                <g id="编组-25" transform="translate(20.000000, 1216.000000)">
                    <g id="编组-10" transform="translate(0.000000, 40.000000)">
                        <g id="编组-56" transform="translate(16.000000, 16.000000)">
                            <g id="编组-25" transform="translate(16.000000, 10.000000)">
                                <circle id="椭圆形" stroke="#FFFFFF" fill="#0051FF" cx="16" cy="16" r="15.5"></circle>
                                <g id="编组-10" transform="translate(6.000000, 7.000000)">
                                    <polygon id="路径" fill-opacity="0.6" fill="#FFFFFF" points="7.90505602 12.751375 5.20109164 12.751375 6.31355932 6.41873256 9.0175237 6.41873256 7.90433783 12.751375"></polygon>
                                    <polygon id="路径" fill-opacity="0.8" fill="#FFFFFF" points="12.8289285 12.751375 10.1249641 12.751375 11.6834243 3.89198884 14.3873887 3.89198884 12.8289285 12.7520925"></polygon>
                                    <g id="Clipped" transform="translate(0.000000, 0.000000)">
                                        <mask id="mask-2" fill="white">
                                            <use xlink:href="#path-1"></use>
                                        </mask>
                                        <g id="路径"></g>
                                        <path d="M17.2967538,0 L17.040362,1.39394181 L16.2912956,5.66185731 L16.2446136,5.92730171 L16.1814134,6.28529295 L14.9597817,13.2428059 C14.762281,14.3662814 13.679977,15.2860104 12.5553002,15.2860104 L4.58345303,15.2860104 C3.45805803,15.2860104 2.69893709,14.3662814 2.89643781,13.2428059 L4.18198793,5.92801913 C4.37877047,4.80382623 5.46035622,3.88481467 6.58575122,3.88481467 L9.44987073,3.88481467 L9.92674519,1.17082503 L6.32145935,1.17082503 C4.11663315,1.17082503 1.99655271,2.97225986 1.61016949,5.17401355 L0.0610456765,13.9968115 C-0.325337547,16.1992826 1.16130422,18 3.36613042,18 L12.8203103,18 C15.0251365,18 17.1444987,16.1992826 17.5316001,13.9968115 L18.99526,5.66257473 L19.0814421,5.17473097 L20.0007182,0.000717417298 L17.2967538,0.000717417298 L17.2967538,0 Z" id="路径" fill="#FFFFFF" mask="url(#mask-2)"></path>
                                    </g>
                                </g>
                            </g>
                        </g>
                    </g>
                </g>
            </g>
        </g>
    </g>
</svg>