<?xml version="1.0" encoding="UTF-8"?>
<svg width="32px" height="32px" viewBox="0 0 32 32" version="1.1" xmlns="http://www.w3.org/2000/svg" xmlns:xlink="http://www.w3.org/1999/xlink">
    <title>枫页小店</title>
    <defs>
        <polygon id="path-1" points="5.13598896e-23 0 27.2 0 27.2 24 5.13598896e-23 24"></polygon>
    </defs>
    <g id="订单机构入驻" stroke="none" stroke-width="1" fill="none" fill-rule="evenodd">
        <g id="订单数据看板" transform="translate(-298.000000, -1663.000000)">
            <g id="编组-16" transform="translate(252.000000, 89.000000)">
                <g id="编组-71" transform="translate(20.000000, 1220.000000)">
                    <g id="编组-10" transform="translate(0.000000, 40.000000)">
                        <g id="编组-56备份-4" transform="translate(16.000000, 304.000000)">
                            <g id="编组" transform="translate(10.000000, 10.000000)">
                                <circle id="椭圆形" stroke="#0099FF" stroke-width="0.8" fill="#FFFFFF" cx="16" cy="16" r="15.6"></circle>
                                <g id="枫页小店" transform="translate(2.880000, 3.200000)">
                                    <g id="蒙版" opacity="0" fill="#D8D8D8" fill-rule="nonzero">
                                        <polygon id="path-1" points="5.13598896e-23 0 27.2 0 27.2 24 5.13598896e-23 24"></polygon>
                                    </g>
                                    <g id="Clipped">
                                        <mask id="mask-2" fill="white">
                                            <use xlink:href="#path-1"></use>
                                        </mask>
                                        <g id="path-1"></g>
                                        <g id="编组" mask="url(#mask-2)">
                                            <g transform="translate(-0.074606, 1.309091)">
                                                <path d="M10.9342713,0 L16.4106055,0 C16.7203188,0 16.971391,0.242190068 16.971391,0.540946656 C16.971391,0.560904964 16.970246,0.580847983 16.9679611,0.600684223 L15.9710091,9.25583075 C15.9394535,9.52978381 15.6994013,9.73703983 15.4136534,9.73703983 L11.9312233,9.73703983 C11.6454755,9.73703983 11.4054233,9.52978381 11.3738677,9.25583075 L10.3769156,0.600684223 C10.3427135,0.303754907 10.5645239,0.0363007193 10.8723429,0.00330857328 C10.8929066,0.00110454669 10.913581,0 10.9342713,0 Z" id="矩形" fill="#FEA602" fill-rule="nonzero"></path>
                                                <path d="M12.9887154,17.310293 L14.3561613,17.310293 C14.6134877,17.310293 14.8377924,17.4792292 14.9002032,17.7200408 L15.7413815,20.9657208 C15.816498,21.2555572 15.6338161,21.5492558 15.3333501,21.6217149 C15.2888682,21.632442 15.2431905,21.6378663 15.1973396,21.6378663 L12.1475371,21.6378663 C11.8378239,21.6378663 11.5867516,21.3956762 11.5867516,21.0969196 C11.5867516,21.0526908 11.5923748,21.008629 11.6034953,20.9657208 L12.4446735,17.7200408 C12.5070844,17.4792292 12.7313891,17.310293 12.9887154,17.310293 Z" id="矩形" fill="#8ED2FF" fill-rule="nonzero"></path>
                                                <g id="编组-2" stroke-width="1" fill="none" fill-rule="evenodd" transform="translate(13.619048, 12.697965) scale(-1, 1) translate(-13.619048, -12.697965) translate(0.000000, 5.692934)">
                                                    <g id="编组-4" fill="#296AEF" fill-rule="nonzero">
                                                        <path d="M5.19979793,0.0444393699 L8.50498213,-0.0151682033 C8.80921593,-0.0205554029 9.05140513,0.221634306 9.04592679,0.52586879 L8.85745791,10.9923088 L8.85745791,10.9923088 C6.42358743,11.0361355 4.48607419,9.09861782 4.52990092,6.66474196 L4.63901449,0.605224039 C4.64449283,0.300989555 4.89556413,0.0499177065 5.19979793,0.0444393699 Z" id="矩形" transform="translate(6.787595, 5.488935) scale(-1, 1) rotate(45.000000) translate(-6.787595, -5.488935) "></path>
                                                        <path d="M6.08826671,3.47002557 L6.08827862,3.47002536 C8.52215814,3.42619855 10.4596787,5.36371535 10.4158519,7.79759031 L10.346416,11.6536456 C10.3409376,11.95788 10.0898654,12.2089518 9.78563047,12.2144301 L6.46596446,12.2742072 C6.16526428,12.2796287 5.92446276,12.042906 5.92492235,11.7423366 C5.9261596,10.9332452 5.95415014,9.64532208 6.00889403,7.87856715 C6.04851862,6.59975833 5.44044031,5.24601853 4.50121936,4.5204778 C3.66519869,3.87465848 2.78477509,3.55125009 1.8599486,3.55025265 L6.08826671,3.47002557 Z" id="矩形" transform="translate(6.138265, 7.871797) rotate(45.000000) translate(-6.138265, -7.871797) "></path>
                                                    </g>
                                                    <g id="编组-4" transform="translate(21.099869, 7.005008) scale(-1, 1) translate(-21.099869, -7.005008) translate(14.961642, 0.000030)" fill="#296AEF" fill-rule="nonzero">
                                                        <path d="M5.19979008,0.0444397636 L8.5049434,-0.0151673258 C8.80917435,-0.0205544816 9.05136129,0.221632836 9.04588301,0.525864326 L8.85741622,10.9922013 L8.85741622,10.9922013 C6.42356848,11.0360277 4.48607329,9.09852912 4.52989954,6.66467722 L4.63901189,0.605218931 C4.64449017,0.300987441 4.89555912,0.0499180557 5.19979008,0.0444397636 Z" id="矩形" transform="translate(6.787572, 5.488882) scale(-1, 1) rotate(45.000000) translate(-6.787572, -5.488882) "></path>
                                                        <path d="M6.0882053,3.47003493 L6.08821721,3.47003471 C8.52207789,3.42620836 10.4595835,5.36370122 10.4157572,7.79754619 L10.3463219,11.653554 C10.3408436,11.9577846 10.0897733,12.2088533 9.78554076,12.2143316 L6.46590044,12.2741081 C6.1652026,12.2795295 5.92440292,12.0428098 5.9248625,11.742244 C5.92609971,10.9331626 5.95408999,9.64525536 6.0088334,7.8785222 C6.04845763,6.59972913 5.44038398,5.24600603 4.50117027,4.52047427 C3.66515604,3.87466294 2.78473925,3.55125857 1.85991992,3.55026118 L6.0882053,3.47003493 Z" id="矩形" transform="translate(6.138203, 7.871753) rotate(45.000000) translate(-6.138203, -7.871753) "></path>
                                                    </g>
                                                </g>
                                            </g>
                                        </g>
                                    </g>
                                </g>
                            </g>
                        </g>
                    </g>
                </g>
            </g>
        </g>
    </g>
</svg>