<?xml version="1.0" encoding="UTF-8"?>
<svg width="32px" height="32px" viewBox="0 0 32 32" version="1.1" xmlns="http://www.w3.org/2000/svg" xmlns:xlink="http://www.w3.org/1999/xlink">
    <title>快手</title>
    <g id="订单机构入驻" stroke="none" stroke-width="1" fill="none" fill-rule="evenodd">
        <g id="订单数据看板" transform="translate(-298.000000, -1591.000000)">
            <g id="编组-16" transform="translate(252.000000, 89.000000)">
                <g id="编组-71" transform="translate(20.000000, 1220.000000)">
                    <g id="编组-10" transform="translate(0.000000, 40.000000)">
                        <g id="编组-56备份-3" transform="translate(16.000000, 232.000000)">
                            <g id="编组-2" transform="translate(10.000000, 10.000000)">
                                <circle id="椭圆形" stroke="#FFFFFF" stroke-width="0.8" fill="#FF6931" cx="16" cy="16" r="15.6"></circle>
                                <g id="编组" transform="translate(8.000000, 6.400000)" fill="#FFFFFF" fill-rule="nonzero">
                                    <path d="M6.78059911,10.5381094 C6.86538604,10.533309 12.8428645,10.0364661 13.240892,10.1000716 C13.6377419,10.1648772 15.2298521,10.1168731 15.308751,10.7481275 C15.38765,11.3721814 15.308751,11.9806339 15.308751,11.9806339 C15.308751,11.9806339 11.7759623,12.6118884 11.6970634,12.6946955 C11.6181644,12.7751025 11.330831,13.0679277 11.3473173,13.5047654 C11.3638036,13.9440033 11.3638036,15.6457502 11.3779348,15.6949544 C11.3955987,15.7429586 11.4744977,16.0681866 12.0797821,16.002181 C12.4674408,15.9512661 12.8477481,15.8533648 13.2126297,15.7105558 C13.2593231,15.6932136 13.2884505,15.645719 13.2832855,15.5953459 L13.2503128,15.1573081 C13.2478824,15.1248382 13.2319439,15.0949771 13.2065168,15.0752557 C13.1810897,15.0555342 13.1486011,15.0478348 13.1172444,15.0540991 L12.2069625,15.2389151 L12.2069625,13.4891641 L15.1580187,12.9455172 C15.2204313,12.9335161 15.2793111,12.9815203 15.2816663,13.0463259 L15.3782292,16.0129819 C15.3782292,16.0129819 15.5466254,16.7498455 14.3066166,17.010268 C13.0654302,17.2718905 10.0908221,18.0327562 9.80348863,18.0471574 C9.3814032,18.0746299 8.95767712,18.0361825 8.54699346,17.9331476 C8.20872294,17.836569 7.87577132,17.7215944 7.54956944,17.5887179 C7.51404465,17.5741136 7.48716782,17.5435541 7.47679656,17.5059738 C7.46642531,17.4683934 7.47373094,17.4280363 7.49657761,17.3967013 L8.58114374,15.8929715 C8.62130094,15.8382635 8.64280512,15.7716751 8.64237875,15.7033552 L8.64237875,14.0472122 C8.64236376,13.9613782 8.60988812,13.8788522 8.55170384,13.8167924 L6.22830646,11.3265775 C6.16605745,11.2595227 6.13741338,11.1670828 6.15058511,11.0757558 C6.17884742,10.8789388 6.30249503,10.568112 6.78059911,10.5393095 L6.78059911,10.5381094 Z" id="路径"></path>
                                    <path d="M5.20733054,11.5569973 C5.16690595,11.5145505 5.11397327,11.4867354 5.05659821,11.4777905 L0.880841969,10.8537367 C0.822858944,10.8417964 0.762652768,10.8489407 0.708912923,10.8741384 C0.526385508,10.9605459 0.128357973,11.2149678 0,11.8462223 L0,16.8458538 C0,16.8458538 0.0588798204,17.8443399 1.4072275,18.3051797 C2.75675278,18.7660195 4.40303231,19.1812553 4.40303231,19.1812553 C4.40303231,19.1812553 5.32155738,19.3624709 5.69250018,18.598005 C6.06226539,17.8299387 7.82865974,15.6421499 7.82865974,15.6421499 L7.82865974,14.3172356 L5.20733054,11.5569973 L5.20733054,11.5569973 Z M4.11805402,17.5155116 C3.6870538,17.5035105 1.93714579,17.2586894 1.38603076,16.7486454 C0.885552366,16.2878056 1.13520276,12.6502917 1.13520276,12.6502917 C1.13520276,12.6502917 1.14462354,12.2278552 1.38603076,12.2734592 L4.16515787,12.7835032 C4.16515787,12.7835032 4.51137117,12.9887209 4.51137115,13.2815462 L4.51137115,17.2106853 C4.51137115,17.2118854 4.54787664,17.5287127 4.11805402,17.5155116 L4.11805402,17.5155116 Z M16,5.8877081 C16,3.94714064 14.5303599,2.37140465 12.7156841,2.37140465 C11.6817546,2.37140465 10.7585192,2.88384888 10.1567675,3.68431795 C9.67395304,1.56733525 7.95112976,0 5.89740193,0 C3.4715537,0 1.50496797,2.1865887 1.50496797,4.88322141 C1.50496797,7.57985412 3.47155368,9.76524272 5.89740193,9.76524272 C6.02458233,9.76524272 6.15058511,9.75804209 6.27658791,9.74484097 L12.8393317,9.40041124 L12.9264738,9.39681094 L13.0183263,9.39081041 L13.0159712,9.38841021 C14.6881578,9.22519613 16,7.72026624 16,5.8877081 L16,5.8877081 Z M6.73585044,7.62665817 C5.50879517,7.62665817 4.51372636,6.4601575 4.51372636,5.02003323 C4.51372636,3.57990894 5.50879517,2.41340827 6.73585044,2.41340827 C7.96290571,2.41340827 8.95915213,3.57990894 8.95915213,5.02003323 C8.95915213,6.46015752 7.96290571,7.62665817 6.73585044,7.62665817 Z M13.2361816,7.50664781 C12.427173,7.50664781 11.7700743,6.73858153 11.7700743,5.78689939 C11.7700743,4.83641736 12.427173,4.06715099 13.2373592,4.06715099 C14.0463679,4.06715099 14.7034666,4.83521728 14.7034666,5.78689939 C14.7034666,6.73738142 14.0463679,7.50664781 13.2373592,7.50664781 L13.2361816,7.50664781 Z" id="形状"></path>
                                </g>
                            </g>
                        </g>
                    </g>
                </g>
            </g>
        </g>
    </g>
</svg>