<?xml version="1.0" encoding="UTF-8"?>
<svg width="24px" height="24px" viewBox="0 0 24 24" version="1.1" xmlns="http://www.w3.org/2000/svg" xmlns:xlink="http://www.w3.org/1999/xlink">
    <title>选中角标</title>
    <defs>
        <path d="M0,0 L16,0 C20.418278,-8.11624501e-16 24,3.581722 24,8 L24,24 L24,24 L0,24 L0,0 Z" id="path-1"></path>
    </defs>
    <g id="订单机构入驻" stroke="none" stroke-width="1" fill="none" fill-rule="evenodd">
        <g id="订单数据看板" transform="translate(-611.000000, -265.000000)">
            <g id="编组-16" transform="translate(252.000000, 89.000000)">
                <g id="编组-9" transform="translate(20.000000, 176.000000)">
                    <g id="编组-65" transform="translate(1.000000, 0.000000)">
                        <g id="编组-66" transform="translate(338.000000, 0.000000)">
                            <mask id="mask-2" fill="white">
                                <use xlink:href="#path-1"></use>
                            </mask>
                            <g id="蒙版"></g>
                            <g mask="url(#mask-2)" id="编组-50">
                                <g>
                                    <path d="M0,0 L24,0 L24,24 C10.745166,24 1.623249e-15,13.254834 0,0 L0,0 L0,0 Z" id="矩形" fill="#0C6FFF"></path>
                                    <path d="M16.7781746,7 L18.1923882,8.41421356 L12.5355339,14.0710678 L11.1213203,12.6568542 L9,10.5355339 L10.4142136,9.12132034 L12.535,11.242 L16.7781746,7 Z" id="形状结合" fill="#FFFFFF"></path>
                                </g>
                            </g>
                        </g>
                    </g>
                </g>
            </g>
        </g>
    </g>
</svg>