<?xml version="1.0" encoding="UTF-8"?>
<svg width="32px" height="32px" viewBox="0 0 32 32" version="1.1" xmlns="http://www.w3.org/2000/svg" xmlns:xlink="http://www.w3.org/1999/xlink">
    <title>视频号</title>
    <defs>
        <polygon id="path-1" points="0 0 22.4 0 22.4 19.2 0 19.2"></polygon>
    </defs>
    <g id="订单机构入驻" stroke="none" stroke-width="1" fill="none" fill-rule="evenodd">
        <g id="订单数据看板" transform="translate(-304.000000, -1455.000000)">
            <g id="编组-16" transform="translate(252.000000, 89.000000)">
                <g id="编组-25" transform="translate(20.000000, 1216.000000)">
                    <g id="编组-10" transform="translate(0.000000, 40.000000)">
                        <g id="编组-56备份" transform="translate(16.000000, 100.000000)">
                            <g id="编组-2" transform="translate(16.000000, 10.000000)">
                                <circle id="椭圆形" stroke="#FFFFFF" stroke-width="0.8" fill="#FA9D3B" cx="16" cy="16" r="15.6"></circle>
                                <g id="编组" transform="translate(4.800000, 6.400000)">
                                    <mask id="mask-2" fill="white">
                                        <use xlink:href="#path-1"></use>
                                    </mask>
                                    <g id="Clip-2"></g>
                                    <path d="M9.87817128,11.8419321 C9.55784263,12.44655 9.00133003,13.4410803 8.32928541,14.4102343 C7.25677433,15.9564233 6.51460913,16.5484635 6.08787527,16.7742022 C5.89398628,16.8765901 5.6560215,16.8141423 5.53470175,16.6325363 C5.050981,15.9096427 4.12405362,14.0057582 3.26791464,10.6324755 C2.35478876,7.03477809 2.04959726,3.72548785 2.52574943,2.58465764 C2.60076733,2.4048169 2.81736204,2.3311153 2.98631926,2.42975188 C3.63142866,2.80598311 5.23418495,4.176524 8.26495256,9.16396003 C8.947237,10.2869165 9.53491431,11.2673243 9.87817128,11.8419321 M19.1320854,10.6324755 C18.293087,13.9393384 17.3855262,15.8339551 16.897576,16.5866382 C16.7499888,16.8141423 16.4452425,16.8770314 16.2135107,16.7342621 C15.3063952,16.1753215 13.8149414,14.3517585 12.5184896,11.8474486 C12.8610788,11.2737236 13.4505369,10.2906678 14.1350474,9.16396003 C17.1753871,4.1608569 18.779479,2.7975979 19.4188007,2.42622126 C19.5917648,2.32604004 19.795671,2.39643169 19.8726923,2.57958238 L19.8746958,2.58487831 C20.3504027,3.72548785 20.0452112,7.03477809 19.1320854,10.6324755 M22.0070294,1.71060959 C21.4266981,0.319105669 20.4563627,0.0454829511 19.9287888,0.00620485126 C17.9609603,-0.138771057 15.642974,2.24902849 12.1580921,7.98385173 C11.8074892,8.56066607 11.481818,9.10040895 11.2,9.56865686 C10.9197403,9.10283624 10.5945143,8.56397602 10.2419079,7.98385173 C6.75635821,2.24748384 4.4283547,-0.137888403 2.47098859,0.00620485126 C1.94385986,0.0454829511 0.973524495,0.319105669 0.392970553,1.71060959 C-0.407739774,3.62949923 0.193961648,7.38364705 0.624034584,9.45060189 C1.27337348,12.5718868 2.31894935,15.6803733 3.28794909,17.3704349 C3.93239068,18.4942741 4.57660966,19.0675578 5.31521318,19.1743589 C5.43363906,19.1915707 5.55429099,19.2001765 5.6738299,19.2001765 C7.85558189,19.2001765 9.93315472,16.3759046 11.1997774,14.2237737 C12.4664001,16.3759046 14.5437503,19.2001765 16.7261701,19.2001765 C16.845709,19.2001765 16.9665835,19.1915707 17.085232,19.1743589 C17.8233903,19.0675578 18.4676093,18.4942741 19.1120509,17.3704349 C20.0810506,15.680594 21.1266265,12.5718868 21.7759654,9.45060189 C22.2060384,7.38364705 22.8077398,3.62971989 22.0070294,1.71060959" id="Fill-1" fill="#FFFFFF" mask="url(#mask-2)"></path>
                                </g>
                            </g>
                        </g>
                    </g>
                </g>
            </g>
        </g>
    </g>
</svg>