<?xml version="1.0" encoding="UTF-8"?>
<svg width="32px" height="32px" viewBox="0 0 32 32" version="1.1" xmlns="http://www.w3.org/2000/svg" xmlns:xlink="http://www.w3.org/1999/xlink">
    <title>编组</title>
    <g id="订单机构入驻" stroke="none" stroke-width="1" fill="none" fill-rule="evenodd">
        <g id="订单数据看板" transform="translate(-298.000000, -1519.000000)">
            <g id="编组-16" transform="translate(252.000000, 89.000000)">
                <g id="编组-71" transform="translate(20.000000, 1220.000000)">
                    <g id="编组-10" transform="translate(0.000000, 40.000000)">
                        <g id="编组-56备份-2" transform="translate(16.000000, 160.000000)">
                            <g id="编组" transform="translate(10.000000, 10.000000)">
                                <circle id="椭圆形" stroke="#FFFFFF" stroke-width="0.8" fill="#1472FF" cx="16" cy="16" r="15.6"></circle>
                                <path d="M8.78279204,17.104855 L19.1147364,17.104855 C20.0615844,16.8756886 20.7027924,16.1658918 21.0383605,14.9754645 C21.0383605,13.7370504 21.0383605,11.2674287 21.0383605,7.56659949 C21.320431,6.88291556 21.8027147,6.5410736 22.4852117,6.5410736 C23.1677087,6.5410736 23.6336718,6.88291556 23.8831012,7.56659949 L23.8831012,7.56659949 C23.7909429,8.21230097 23.8462633,8.61370245 24.0490624,8.77080393 C24.2518615,8.92790541 24.6983671,9.00921157 25.3885793,9.01472241 C25.7704385,9.17343475 25.961368,9.44940092 25.961368,9.84262092 C25.961368,10.2358409 25.7704385,10.4874746 25.3885793,10.5975219 L23.8831012,10.5975219 C23.6640239,10.6243131 23.4869986,10.7429658 23.3520253,10.9534801 C23.217052,11.1639944 23.1170937,11.4538225 23.0521505,11.8229643 L23.0521505,17.3110117 C23.0521464,17.6943505 23.011148,18.07659 22.9298508,18.451209 C21.9723702,22.8632919 19.2661077,25.2441991 14.8110631,25.5939304 C10.3688153,25.9426572 7.51557921,23.7092352 6.25135476,18.8936645 C6.13436749,18.4480334 6.07514426,17.9892133 6.07514426,17.5284822 L6.07514426,16.536114 C6.07521207,16.158745 6.38113008,15.852827 6.75849908,15.852827 C6.95506804,15.852827 7.14211532,15.937483 7.27184548,16.0851632 C7.27184548,16.0851632 7.27184548,16.0851632 7.27184548,16.0851632 C7.72780432,16.6042106 8.23145318,16.9441079 8.78279204,17.104855 Z" id="路径-3" fill="#FFFFFF"></path>
                            </g>
                        </g>
                    </g>
                </g>
            </g>
        </g>
    </g>
</svg>