<svg xmlns="http://www.w3.org/2000/svg" fill="none" viewBox="0 0 20 20" class="design-iconfont">
  <path d="M9.59766 13.5996L12.2969 12.0312C12.1426 12.1211 12.0098 12.25 11.9043 12.4141L9.20508 13.9824C9.31055 13.8184 9.44336 13.6895 9.59766 13.5996Z" fill="#FFCD00"/>
  <path d="M9.20508 13.9824L11.9043 12.4141C11.873 12.4629 11.8457 12.5137 11.8184 12.5684L9.11914 14.1367C9.14648 14.082 9.17383 14.0312 9.20508 13.9824Z" fill="#FFCD00"/>
  <path d="M9.11914 14.1367L11.8184 12.5684C11.7988 12.6094 11.7812 12.6523 11.7637 12.6973L9.06445 14.2656C9.08203 14.2207 9.09961 14.1777 9.11914 14.1367ZM9.06641 14.2656L11.7656 12.6973C11.752 12.7363 11.7383 12.7754 11.7266 12.8164L9.02734 14.3848C9.03906 14.3438 9.05078 14.3047 9.06641 14.2656Z" fill="#FFCD00"/>
  <path d="M9.02539 14.3848L11.7246 12.8164C11.7129 12.8535 11.7031 12.8926 11.6953 12.9316L8.99609 14.5C9.00586 14.4609 9.01562 14.4219 9.02539 14.3848Z" fill="#FFCD00"/>
  <path d="M8.99609 14.5L11.6953 12.9316C11.6875 12.9668 11.6797 13.0039 11.6738 13.043L8.97461 14.6113C8.98047 14.5742 8.98828 14.5371 8.99609 14.5ZM8.97461 14.6113L11.6738 13.043C11.668 13.0781 11.6621 13.1152 11.6582 13.1504L8.95898 14.7188C8.96289 14.6836 8.9668 14.6465 8.97461 14.6113ZM8.95703 14.7207L11.6562 13.1523C11.6523 13.1875 11.6484 13.2246 11.6445 13.2617L8.94531 14.8301C8.94922 14.791 8.95312 14.7559 8.95703 14.7207Z" fill="#FFCD00"/>
  <path d="M8.94727 14.8281L11.6465 13.2598C11.6445 13.2949 11.6406 13.3301 11.6406 13.3672L8.94141 14.9355C8.94141 14.8984 8.94336 14.8633 8.94727 14.8281Z" fill="#FFCD00"/>
  <path d="M8.93945 14.9355L11.6406 13.3672C11.6387 13.4023 11.6387 13.4395 11.6387 13.4766L8.93945 15.0449C8.9375 15.0078 8.9375 14.9707 8.93945 14.9355Z" fill="#FFCD00"/>
  <path d="M8.9375 15.0449L11.6367 13.4766L11.6367 13.4824C11.6367 13.5156 11.6367 13.5488 11.6387 13.584L8.93945 15.1523C8.9375 15.1191 8.9375 15.084 8.9375 15.0508L8.9375 15.0449Z" fill="#FFCD00"/>
  <path d="M8.93945 15.1523L11.6387 13.584C11.6406 13.6191 11.6406 13.6562 11.6445 13.6914L8.94531 15.2598C8.94141 15.2246 8.93945 15.1875 8.93945 15.1523Z" fill="#FFCD00"/>
  <path d="M8.94336 15.2598L11.6426 13.6914C11.6445 13.7266 11.6484 13.7637 11.6504 13.8008L8.95117 15.3691C8.94922 15.332 8.94531 15.2969 8.94336 15.2598ZM8.95312 15.3691L11.6523 13.8008C11.6562 13.8379 11.6602 13.875 11.6641 13.9102L8.96484 15.4785C8.95898 15.4414 8.95508 15.4062 8.95312 15.3691ZM8.96484 15.4785L11.6641 13.9102C11.668 13.9473 11.6738 13.9844 11.6797 14.0234L8.98047 15.5918C8.97461 15.5547 8.96875 15.5156 8.96484 15.4785Z" fill="#FFCD00"/>
  <path d="M8.98047 15.5918L11.6797 14.0215C11.6855 14.0605 11.6914 14.0977 11.6992 14.1367L9 15.7051C8.99219 15.668 8.98633 15.6289 8.98047 15.5918ZM9 15.707L11.6992 14.1387L11.7227 14.2559L9.02344 15.8242L9 15.707ZM9.02344 15.8242L11.7227 14.2559C11.7305 14.2949 11.7402 14.3359 11.75 14.375L9.05078 15.9434C9.04297 15.9023 9.0332 15.8633 9.02344 15.8242ZM9.05273 15.9434L11.752 14.375C11.7617 14.416 11.7734 14.4551 11.7832 14.4961L9.08398 16.0645C9.07227 16.0234 9.0625 15.9824 9.05273 15.9434Z" fill="#FFCD00"/>
  <path d="M9.08398 16.0645L11.7832 14.4961C11.7949 14.5371 11.8066 14.5762 11.8184 14.6172L9.11914 16.1855C9.10742 16.1445 9.0957 16.1035 9.08398 16.0645ZM9.11914 16.1855L11.8184 14.6172C11.8301 14.6562 11.8438 14.6973 11.8574 14.7363L9.1582 16.3047C9.14453 16.2637 9.13086 16.2246 9.11914 16.1855Z" fill="#FFCD00"/>
  <path d="M9.15625 16.3027L11.8555 14.7344L11.8965 14.8516L9.19727 16.4199L9.15625 16.3027ZM9.19727 16.4199L11.8965 14.8516C11.9102 14.8887 11.9238 14.9277 11.9395 14.9648L9.24023 16.5332C9.22656 16.4961 9.21094 16.457 9.19727 16.4199Z" fill="#FFCD00"/>
  <path d="M9.24023 16.5332L11.9395 14.9648C11.9531 15.002 11.9688 15.0391 11.9844 15.0762L9.28516 16.6445C9.26953 16.6074 9.25391 16.5703 9.24023 16.5332Z" fill="#FFCD00"/>
  <path d="M9.28516 16.6426L11.9844 15.0742C12 15.1113 12.0156 15.1465 12.0312 15.1836L9.33203 16.752C9.31445 16.7168 9.30078 16.6797 9.28516 16.6426Z" fill="#FFCD00"/>
  <path d="M9.33203 16.752L12.0312 15.1836C12.0391 15.2031 12.0488 15.2207 12.0566 15.2402L9.35742 16.8086C9.34766 16.791 9.33984 16.7715 9.33203 16.752Z" fill="#FFCD00"/>
  <path d="M15.6426 15.7832C15.6426 15.7559 15.6406 15.7285 15.6387 15.7012L15.6328 15.6191C15.6309 15.5918 15.627 15.5645 15.623 15.5352C15.6191 15.5059 15.6152 15.4785 15.6113 15.4492L15.6113 15.4473L15.6113 15.4453C15.6074 15.418 15.6016 15.3906 15.5977 15.3633L15.5801 15.2754C15.5742 15.2461 15.5664 15.2168 15.5586 15.1855C15.5508 15.1562 15.543 15.125 15.5352 15.0957C15.5293 15.0723 15.5215 15.0488 15.5156 15.0254C15.5156 15.0234 15.5137 15.0215 15.5137 15.0195C15.5117 15.0156 15.5117 15.0098 15.5098 15.0059C15.5 14.9766 15.4922 14.9473 15.4824 14.918C15.4727 14.8887 15.4629 14.8594 15.4531 14.832C15.4434 14.8047 15.4336 14.7773 15.4219 14.748C15.4121 14.7207 15.4004 14.6934 15.3887 14.666C15.3809 14.6445 15.3711 14.625 15.3613 14.6035C15.3613 14.6016 15.3594 14.5996 15.3594 14.5977C15.3574 14.5938 15.3555 14.5898 15.3535 14.584C15.3418 14.5566 15.3281 14.5293 15.3164 14.502C15.3027 14.4727 15.2871 14.4414 15.2734 14.4121C15.2559 14.3789 15.2383 14.3438 15.2207 14.3105C15.2012 14.2734 15.1816 14.2383 15.1602 14.2031C15.1562 14.1973 15.1523 14.1914 15.1504 14.1836L15.1387 14.1602C15.0977 14.0918 15.0566 14.0254 15.0137 13.959C14.9785 13.9062 14.9434 13.8555 14.9062 13.8066L14.8301 13.707C14.8086 13.6797 14.7871 13.6523 14.7637 13.627C14.7422 13.6016 14.7207 13.5762 14.6973 13.5508C14.6758 13.5254 14.6543 13.502 14.6309 13.4785C14.627 13.4746 14.623 13.4688 14.6172 13.4648L14.6113 13.459C14.5938 13.4414 14.5781 13.4238 14.5605 13.4062C14.5371 13.3828 14.5137 13.3594 14.4883 13.3359C14.4629 13.3125 14.4395 13.2891 14.4141 13.2656C14.3887 13.2422 14.3633 13.2207 14.3379 13.1992C14.3262 13.1895 14.3125 13.1777 14.2988 13.168C14.2969 13.166 14.293 13.1641 14.291 13.1602L14.2617 13.1367C14.2363 13.1172 14.2129 13.0977 14.1875 13.0801C14.1621 13.0625 14.1387 13.0449 14.1133 13.0273C14.0898 13.0117 14.0645 12.9941 14.041 12.9805C14.0176 12.9648 13.9941 12.9512 13.9688 12.9355C13.9629 12.9316 13.957 12.9297 13.9512 12.9258C13.9336 12.916 13.916 12.9062 13.8965 12.8965C13.873 12.8848 13.8496 12.8711 13.8262 12.8613C13.8105 12.8535 13.7969 12.8477 13.7812 12.8398L13.7695 12.834C13.7656 12.832 13.7598 12.8301 13.7559 12.8281C13.7324 12.8184 13.7109 12.8086 13.6875 12.7988C13.6641 12.7891 13.6426 12.7812 13.6191 12.7734C13.6152 12.7715 13.6113 12.7715 13.6074 12.7695C13.6035 12.7676 13.5996 12.7676 13.5977 12.7656C13.582 12.7598 13.5664 12.7559 13.5508 12.75C13.5273 12.7422 13.5039 12.7363 13.4805 12.7305C13.4688 12.7285 13.459 12.7246 13.4473 12.7227C13.4434 12.7207 13.4375 12.7207 13.4336 12.7188C13.4258 12.7168 13.4199 12.7148 13.4121 12.7148C13.3867 12.709 13.3633 12.7051 13.3379 12.7031C13.3223 12.7012 13.3086 12.6992 13.293 12.6992C13.2871 12.6992 13.2832 12.6973 13.2773 12.6973C13.2715 12.6973 13.2676 12.6953 13.2617 12.6953C13.2344 12.6934 13.209 12.6934 13.1816 12.6934C13.1699 12.6934 13.1582 12.6953 13.1465 12.6953C13.1367 12.6953 13.1289 12.6953 13.1211 12.6973C13.1113 12.6973 13.1035 12.6973 13.0938 12.6992C13.0605 12.7031 13.0273 12.707 12.9961 12.7129L12.9941 12.7129C12.9883 12.7148 12.9805 12.7168 12.9746 12.7188C12.9414 12.7266 12.9082 12.7344 12.877 12.7461C12.875 12.7461 12.873 12.748 12.8691 12.75C12.8242 12.7656 12.7793 12.7871 12.7383 12.8105L10.0391 14.3789C10.0801 14.3555 10.123 14.3359 10.1699 14.3184C10.2031 14.3066 10.2383 14.2969 10.2754 14.2891C10.2812 14.2871 10.2891 14.2852 10.2949 14.2832C10.3359 14.2754 10.3789 14.2695 10.4219 14.2676C10.4316 14.2676 10.4395 14.2676 10.4492 14.2656C10.4902 14.2637 10.5332 14.2637 10.5781 14.2676C10.584 14.2676 10.5879 14.2695 10.5938 14.2695C10.6406 14.2734 10.6855 14.2812 10.7344 14.291C10.7383 14.293 10.7441 14.293 10.748 14.2949C10.7969 14.3066 10.8477 14.3203 10.8984 14.3359C10.9023 14.3379 10.9062 14.3379 10.9082 14.3398C10.9609 14.3574 11.0156 14.3789 11.0703 14.4043L11.082 14.4102C11.1367 14.4355 11.1934 14.4648 11.25 14.498C11.3652 14.5645 11.4785 14.6445 11.5879 14.7324C11.5898 14.7344 11.5938 14.7363 11.5957 14.7383C11.7031 14.8262 11.8086 14.9238 11.9062 15.0293L11.9121 15.0352C12.1113 15.248 12.293 15.4941 12.4434 15.7559C12.4473 15.7617 12.4492 15.7676 12.4531 15.7734C12.5273 15.9023 12.5938 16.0332 12.6523 16.168C12.6523 16.1699 12.6543 16.1719 12.6543 16.1719C12.7148 16.3086 12.7656 16.4492 12.8086 16.5879C12.8086 16.5898 12.8105 16.5918 12.8105 16.5938C12.8535 16.7344 12.8848 16.875 12.9082 17.0137L12.9082 17.0156C12.9297 17.1562 12.9414 17.293 12.9414 17.4277C12.9414 17.4922 12.9375 17.5547 12.9316 17.6152C12.9316 17.6211 12.9297 17.627 12.9297 17.6309C12.9238 17.6855 12.916 17.7383 12.9062 17.7891C12.9043 17.7949 12.9043 17.8027 12.9023 17.8086C12.8926 17.8574 12.8789 17.9062 12.8652 17.9512C12.8633 17.959 12.8594 17.9668 12.8574 17.9766C12.8438 18.0195 12.8281 18.0586 12.8105 18.0977C12.8086 18.1016 12.8066 18.1074 12.8047 18.1113C12.7852 18.1543 12.7617 18.1953 12.7363 18.2344C12.7012 18.2891 12.6621 18.3359 12.6191 18.3809L12.5879 18.4121C12.543 18.4531 12.4961 18.4922 12.4453 18.5215L15.1445 16.9531C15.1953 16.9238 15.2422 16.8848 15.2871 16.8438C15.2988 16.834 15.3086 16.8242 15.3184 16.8125C15.3613 16.7695 15.4004 16.7207 15.4355 16.668L15.4375 16.666C15.4609 16.6289 15.4824 16.5898 15.502 16.5488C15.502 16.5469 15.5039 16.5449 15.5039 16.5449C15.5059 16.541 15.5078 16.5352 15.5098 16.5312C15.5215 16.5059 15.5332 16.4805 15.543 16.4531C15.5488 16.4395 15.5527 16.4238 15.5566 16.4102C15.5586 16.4023 15.5625 16.3945 15.5645 16.3848C15.5664 16.377 15.5703 16.3711 15.5723 16.3633C15.5801 16.3359 15.5879 16.3066 15.5957 16.2754C15.5977 16.2656 15.5996 16.2539 15.6016 16.2422C15.6035 16.2363 15.6035 16.2285 15.6055 16.2227C15.6074 16.2129 15.6094 16.2031 15.6113 16.1914L15.623 16.1094C15.625 16.0938 15.627 16.0781 15.627 16.0625C15.627 16.0566 15.6289 16.0527 15.6289 16.0469C15.6289 16.041 15.6309 16.0332 15.6309 16.0273C15.6328 16.002 15.6348 15.9746 15.6367 15.9473C15.6387 15.9199 15.6387 15.8926 15.6387 15.8652L15.6387 15.8594C15.6445 15.834 15.6445 15.8086 15.6426 15.7832Z" fill="#E23007"/>
  <path d="M12.4492 18.7344C12.375 18.7344 12.3027 18.6953 12.2637 18.627C12.2031 18.5234 12.2383 18.3926 12.3418 18.334C12.375 18.3145 12.4082 18.2891 12.4473 18.252L12.4707 18.2285C12.5078 18.1895 12.5371 18.1543 12.5606 18.1172C12.5801 18.0879 12.5977 18.0547 12.6133 18.0215C12.6152 18.0156 12.6172 18.0117 12.6191 18.0078C12.6328 17.9766 12.6465 17.9434 12.6582 17.9062L12.6602 17.9004C12.6621 17.8965 12.6641 17.8906 12.6641 17.8867C12.6758 17.8477 12.6875 17.8066 12.6953 17.7656L12.6992 17.748C12.707 17.7031 12.7148 17.6562 12.7188 17.6094L12.7207 17.5957C12.7266 17.5391 12.7285 17.4824 12.7285 17.4277C12.7285 17.3066 12.7188 17.1797 12.6973 17.0488L12.6973 17.0469C12.6777 16.9219 12.6465 16.7891 12.6074 16.6562L12.6074 16.6543L12.6074 16.6523C12.5684 16.5215 12.5195 16.3887 12.4629 16.2578L12.4609 16.2539L12.4609 16.2559C12.4063 16.1309 12.3418 16.0059 12.2715 15.8809L12.2656 15.8691L12.2617 15.8633C12.1152 15.6113 11.9473 15.3828 11.7598 15.1816L11.7539 15.1758C11.6602 15.0762 11.5625 14.9863 11.4629 14.9043L11.4551 14.8984C11.3516 14.8145 11.248 14.7422 11.1445 14.6836C11.0957 14.6543 11.0449 14.6289 10.9941 14.6055L10.9844 14.6016C10.9375 14.5801 10.8887 14.5605 10.8437 14.5449L10.8359 14.543C10.793 14.5293 10.75 14.5156 10.707 14.5078L10.6953 14.5059C10.6562 14.498 10.6172 14.4922 10.5781 14.4883L10.5645 14.4863C10.5312 14.4844 10.4961 14.4824 10.4609 14.4844L10.4394 14.4844C10.4043 14.4863 10.375 14.4902 10.3477 14.4961C10.3398 14.498 10.334 14.5 10.3281 14.502C10.2969 14.5098 10.2715 14.5156 10.25 14.5254C10.2129 14.5391 10.1816 14.5527 10.1543 14.5703C10.0508 14.6309 9.91992 14.5957 9.86132 14.4922C9.80078 14.3887 9.83593 14.2578 9.93945 14.1992L9.9414 14.1992L12.6367 12.623C12.6836 12.5957 12.7344 12.5723 12.791 12.5508C12.7969 12.5488 12.8027 12.5449 12.8106 12.543C12.8516 12.5293 12.8906 12.5195 12.9277 12.5098C12.9336 12.5078 12.9395 12.5059 12.9473 12.5039C12.9512 12.5039 12.9551 12.502 12.957 12.502C12.9981 12.4941 13.0391 12.4883 13.0781 12.4844C13.0879 12.4844 13.0977 12.4824 13.1055 12.4824L13.1113 12.4824C13.1211 12.4824 13.1328 12.4805 13.1445 12.4805L13.1523 12.4805C13.1641 12.4805 13.1738 12.4785 13.1856 12.4785L13.1914 12.4785C13.2207 12.4785 13.252 12.4805 13.2813 12.4824C13.2871 12.4824 13.293 12.4844 13.2988 12.4844C13.3027 12.4844 13.3086 12.4844 13.3125 12.4863L13.3281 12.4883C13.3418 12.4902 13.3555 12.4902 13.3691 12.4922C13.3984 12.4961 13.4277 12.5 13.4551 12.5059C13.4609 12.5078 13.4688 12.5078 13.4746 12.5098L13.4805 12.5117C13.4844 12.5117 13.4883 12.5137 13.4922 12.5137L13.5059 12.5176L13.5352 12.5234C13.5606 12.5293 13.5879 12.5371 13.6152 12.5449C13.6309 12.5488 13.6465 12.5547 13.6602 12.5605L13.668 12.5625C13.6719 12.5645 13.6738 12.5645 13.6777 12.5664C13.6816 12.5684 13.6856 12.5684 13.6895 12.5703C13.7168 12.5801 13.7422 12.5898 13.7676 12.5996C13.793 12.6094 13.8184 12.6211 13.8438 12.6309L13.8555 12.6367L13.8789 12.6484C13.8926 12.6543 13.9063 12.6602 13.9199 12.668C13.9453 12.6816 13.9707 12.6934 13.9961 12.707C14.0156 12.7168 14.0352 12.7285 14.0547 12.7402C14.0606 12.7441 14.0664 12.748 14.0723 12.75C14.0977 12.7656 14.125 12.7812 14.1504 12.7988C14.1758 12.8145 14.2031 12.832 14.2285 12.8496C14.2559 12.8672 14.2813 12.8867 14.3086 12.9062C14.334 12.9258 14.3613 12.9453 14.3887 12.9668C14.3965 12.9727 14.4023 12.9785 14.4102 12.9844L14.4395 13.0078C14.4492 13.0156 14.459 13.0234 14.4688 13.0332C14.4961 13.0566 14.5234 13.0801 14.5488 13.1035C14.5762 13.127 14.6016 13.1523 14.6289 13.1777C14.6543 13.2012 14.6797 13.2266 14.7051 13.252C14.7227 13.2695 14.7402 13.2891 14.7578 13.3066L14.7695 13.3184C14.7734 13.3223 14.7773 13.3262 14.7793 13.3301C14.8027 13.3555 14.8262 13.3809 14.8496 13.4082C14.8731 13.4355 14.8965 13.4629 14.918 13.4902C14.9414 13.5176 14.9648 13.5469 14.9863 13.5762C15.0137 13.6094 15.0391 13.6445 15.0664 13.6816L15.0684 13.6836C15.1074 13.7363 15.1445 13.7891 15.1797 13.8438C15.2246 13.9121 15.2695 13.9824 15.3125 14.0547C15.3164 14.0605 15.3184 14.0664 15.3223 14.0723L15.3262 14.0781C15.3281 14.082 15.332 14.0859 15.334 14.0918L15.3398 14.1016C15.3594 14.1367 15.3809 14.1719 15.4004 14.2109C15.4199 14.2461 15.4375 14.2812 15.4551 14.3184C15.4707 14.3496 15.4863 14.3809 15.5 14.4121C15.5137 14.4414 15.5273 14.4688 15.5391 14.498L15.5469 14.5176C15.5566 14.5391 15.5664 14.5605 15.5742 14.584L15.6094 14.6719C15.6211 14.7012 15.6309 14.7305 15.6426 14.7598C15.6543 14.7891 15.6641 14.8203 15.6738 14.8516L15.7031 14.9453C15.7051 14.9492 15.7051 14.9531 15.707 14.957L15.709 14.9668C15.7168 14.9922 15.7246 15.0156 15.7305 15.041C15.7383 15.0723 15.7481 15.1055 15.7559 15.1367C15.7637 15.168 15.7715 15.1992 15.7773 15.2324C15.7852 15.2637 15.791 15.2969 15.7969 15.3281C15.8027 15.3574 15.8066 15.3867 15.8125 15.4141L15.8125 15.418C15.8184 15.4492 15.8223 15.4805 15.8262 15.5098C15.8301 15.5391 15.834 15.5703 15.8359 15.5996C15.8379 15.6289 15.8418 15.6582 15.8438 15.6895C15.8457 15.7207 15.8477 15.75 15.8477 15.7793C15.8477 15.8066 15.8496 15.8359 15.8496 15.8633L15.8496 15.8691C15.8496 15.8984 15.8496 15.9297 15.8477 15.959L15.8418 16.0469C15.8418 16.0527 15.8398 16.0586 15.8398 16.0645L15.8359 16.0996C15.834 16.1133 15.834 16.127 15.832 16.1387C15.8281 16.1699 15.8242 16.2012 15.8184 16.2305C15.8164 16.2402 15.8145 16.248 15.8125 16.2559L15.8106 16.2656C15.8086 16.2734 15.8066 16.2812 15.8066 16.2891L15.8047 16.2988C15.8027 16.3086 15.8008 16.3164 15.7988 16.3262C15.791 16.3594 15.7832 16.3926 15.7734 16.4258C15.7715 16.4336 15.7695 16.4414 15.7656 16.4473L15.7637 16.4512C15.7617 16.459 15.7598 16.4648 15.7559 16.4727L15.75 16.4922C15.7461 16.5039 15.7422 16.5176 15.7383 16.5293C15.7266 16.5625 15.7129 16.5918 15.7012 16.6191L15.6953 16.6309C15.6934 16.6348 15.6934 16.6367 15.6914 16.6406C15.6914 16.6406 15.6914 16.6426 15.6895 16.6426C15.666 16.6914 15.6406 16.7383 15.6133 16.7812C15.6113 16.7852 15.6094 16.7871 15.6074 16.791C15.5684 16.8496 15.5234 16.9062 15.4668 16.9629L15.4277 17.002C15.3652 17.0605 15.3066 17.1035 15.2461 17.1387L12.5469 18.707C12.5215 18.7246 12.4844 18.7344 12.4492 18.7344ZM10.9219 14.1172C10.9375 14.123 10.9551 14.127 10.9707 14.1328L10.9727 14.1328C10.9766 14.1348 10.9785 14.1348 10.9824 14.1367C11.041 14.1562 11.1035 14.1816 11.1621 14.209L11.1738 14.2148C11.2383 14.2441 11.2988 14.2773 11.3594 14.3105C11.4824 14.3809 11.6055 14.4668 11.7246 14.5645L11.7344 14.5723C11.8477 14.6641 11.959 14.7695 12.0664 14.8828L12.0723 14.8887C12.2813 15.1133 12.4707 15.3672 12.6328 15.6484C12.6348 15.6523 12.6387 15.6582 12.6406 15.6621L12.6445 15.668C12.7246 15.8066 12.7949 15.9453 12.8555 16.084L12.8574 16.0898C12.9199 16.2344 12.9746 16.3828 13.0195 16.5293L13.0215 16.5371C13.0664 16.6875 13.1016 16.8379 13.125 16.9844C13.1504 17.1387 13.1621 17.2891 13.1621 17.4336C13.1621 17.502 13.1582 17.5703 13.1523 17.6387C13.1523 17.6426 13.1523 17.6484 13.1504 17.6523L13.1504 17.6562C13.1445 17.7168 13.1348 17.7773 13.125 17.834C13.1231 17.8418 13.1211 17.8496 13.1211 17.8555C13.1191 17.8672 13.1172 17.877 13.1133 17.8887L15.0449 16.7676C15.0781 16.748 15.1113 16.7227 15.1504 16.6855L15.1738 16.6621C15.2109 16.623 15.2402 16.5879 15.2637 16.5508C15.2656 16.5488 15.2676 16.5449 15.2695 16.543C15.2852 16.5176 15.3008 16.4902 15.3145 16.4609C15.3145 16.459 15.3164 16.459 15.3164 16.457C15.3184 16.4512 15.3203 16.4453 15.3223 16.4414C15.332 16.4219 15.3418 16.3984 15.3496 16.377L15.3555 16.3594L15.3613 16.3418L15.3652 16.332C15.3672 16.3281 15.3672 16.3242 15.3691 16.3203C15.3711 16.3145 15.3731 16.3086 15.375 16.3047L15.377 16.3008C15.3828 16.2773 15.3906 16.2539 15.3965 16.2285C15.3965 16.2246 15.3984 16.2207 15.3984 16.2168C15.4004 16.2109 15.4004 16.2051 15.4023 16.1992C15.4043 16.1934 15.4043 16.1875 15.4063 16.1816C15.4082 16.1758 15.4082 16.1699 15.4102 16.166C15.4102 16.1621 15.4121 16.1582 15.4121 16.1543C15.416 16.1309 15.4199 16.1074 15.4219 16.082C15.4238 16.0742 15.4238 16.0645 15.4238 16.0547L15.4258 16.0254C15.4258 16.0215 15.4258 16.0176 15.4277 16.0137L15.4277 16.0078C15.4297 15.9844 15.4316 15.9609 15.4316 15.9355C15.4336 15.9121 15.4336 15.8867 15.4336 15.8613L15.4336 15.8594L15.4336 15.7871C15.4336 15.7637 15.4316 15.7383 15.4297 15.7129L15.4238 15.6367C15.4219 15.6113 15.418 15.5859 15.416 15.5605C15.4121 15.5352 15.4082 15.5078 15.4043 15.4824L15.4043 15.4805L15.4043 15.4766C15.4004 15.4512 15.3965 15.4258 15.3906 15.4004C15.3848 15.373 15.3809 15.3457 15.3731 15.3184C15.3672 15.291 15.3613 15.2637 15.3535 15.2363C15.3457 15.209 15.3398 15.1797 15.332 15.1523C15.3262 15.1309 15.3203 15.1074 15.3125 15.0859C15.3125 15.0859 15.3125 15.082 15.3106 15.082L15.3066 15.0664C15.2988 15.0391 15.2891 15.0117 15.2793 14.9844L15.25 14.9023C15.2402 14.877 15.2305 14.8496 15.2207 14.8242C15.2109 14.7988 15.1992 14.7715 15.1895 14.7461C15.1816 14.7266 15.1719 14.707 15.1641 14.6875L15.1621 14.6816L15.1621 14.6836L15.1563 14.6699C15.1445 14.6445 15.1328 14.6191 15.1211 14.5918C15.1074 14.5625 15.0938 14.5352 15.0801 14.5078C15.0645 14.4746 15.0469 14.4434 15.0293 14.4121C15.0117 14.3809 14.9941 14.3477 14.9746 14.3145L14.9727 14.3105L14.9668 14.2988L14.9629 14.293C14.959 14.2871 14.957 14.2832 14.9551 14.2773C14.9531 14.2754 14.9531 14.2734 14.9512 14.2695C14.9141 14.2051 14.8731 14.1406 14.832 14.0801C14.7988 14.0312 14.7656 13.9824 14.7305 13.9355L14.7285 13.9336C14.7051 13.9023 14.6816 13.8711 14.6582 13.8418C14.6387 13.8164 14.6172 13.791 14.5957 13.7656C14.5762 13.7422 14.5547 13.7168 14.5332 13.6934C14.5137 13.6699 14.4922 13.6465 14.4707 13.625L14.4512 13.6035C14.4356 13.5879 14.4199 13.5723 14.4063 13.5547L14.3398 13.4883L14.2695 13.4238C14.2461 13.4023 14.2227 13.3828 14.1992 13.3633C14.1914 13.3574 14.1836 13.3516 14.1777 13.3457L14.1445 13.3184C14.1406 13.3145 14.1348 13.3105 14.1309 13.3066C14.1074 13.2891 14.084 13.2715 14.0625 13.2539C14.0391 13.2383 14.0176 13.2207 13.9941 13.2051C13.9727 13.1895 13.9492 13.1758 13.9277 13.1621C13.9063 13.1484 13.8848 13.1348 13.8613 13.1211L13.8457 13.1133C13.8281 13.1035 13.8125 13.0938 13.7969 13.0859C13.7754 13.0742 13.7559 13.0645 13.7344 13.0527C13.7246 13.0469 13.7148 13.043 13.7051 13.0391L13.6856 13.0293C13.6816 13.0273 13.6797 13.0254 13.6758 13.0254L13.6738 13.0234C13.6543 13.0156 13.6348 13.0059 13.6152 12.998C13.5957 12.9902 13.5762 12.9824 13.5566 12.9766C13.5527 12.9746 13.5488 12.9746 13.5449 12.9727L13.5293 12.9668C13.5176 12.9629 13.5078 12.959 13.4961 12.9551C13.4766 12.9492 13.4551 12.9434 13.4356 12.9395C13.4297 12.9375 13.4258 12.9375 13.4219 12.9355L13.3965 12.9297C13.3926 12.9297 13.3867 12.9277 13.3828 12.9258L13.377 12.9238C13.3574 12.9199 13.3359 12.916 13.3164 12.9141C13.3086 12.9121 13.3008 12.9121 13.293 12.9121L13.2676 12.9102C13.2617 12.9102 13.2578 12.9102 13.2539 12.9082L13.2559 12.9082C13.2363 12.9062 13.2148 12.9062 13.1953 12.9062L13.1836 12.9062C13.1777 12.9062 13.1719 12.9062 13.1641 12.9082L13.1191 12.9082C13.0957 12.9102 13.0742 12.9141 13.0508 12.918C13.043 12.9199 13.0352 12.9219 13.0293 12.9238C13.0078 12.9297 12.9844 12.9336 12.9648 12.9414C12.9609 12.9434 12.9551 12.9453 12.9512 12.9473C12.916 12.9609 12.8848 12.9746 12.8555 12.9922L10.9219 14.1172Z" fill="#593389"/>
  <path d="M11.252 14.4961C12.1895 15.0371 12.9473 16.3496 12.9434 17.4278C12.9395 18.5078 12.1778 18.9414 11.2402 18.4004C10.3027 17.8594 9.54494 16.5469 9.54884 15.4668C9.5508 14.3906 10.3145 13.9551 11.252 14.4961Z" fill="#FF3600"/>
  <path d="M12.002 18.8496C11.7266 18.8496 11.4336 18.7617 11.1328 18.5879C10.6465 18.3066 10.1934 17.8301 9.85548 17.2441C9.51759 16.6582 9.33205 16.0273 9.334 15.4668C9.33595 15.0488 9.44337 14.6953 9.64455 14.4453C9.84962 14.1895 10.1504 14.0488 10.4902 14.0488C10.7656 14.0488 11.0586 14.1367 11.3594 14.3105C11.8457 14.5918 12.2988 15.0684 12.6367 15.6543C12.9746 16.2402 13.1602 16.8711 13.1582 17.4297C13.1563 17.8477 13.0488 18.2031 12.8477 18.4531C12.6426 18.709 12.3418 18.8496 12.002 18.8496ZM10.4902 14.4785C10.0371 14.4785 9.76564 14.8477 9.76369 15.4688C9.76173 16.4766 10.4727 17.709 11.3477 18.2148C11.5781 18.3477 11.8047 18.418 12.002 18.418C12.4551 18.418 12.7266 18.0469 12.7285 17.4258C12.7305 16.418 12.0196 15.1875 11.1445 14.6816C10.9141 14.5488 10.6875 14.4785 10.4902 14.4785Z" fill="#593389"/>
  <path d="M11.3809 6.57421C11.8789 6.86132 12.2852 7.56445 12.2832 8.13671L12.2637 14.668C11.9492 14.293 11.5898 13.9766 11.209 13.7559C9.95703 13.0332 8.94141 13.6152 8.9375 15.0508C8.93555 15.6152 9.09375 16.2285 9.35742 16.8086L5.25977 14.4434C4.75977 14.1543 4.35352 13.4512 4.35548 12.8769L4.38282 3.57421C4.38477 3.00194 4.79297 2.76952 5.29297 3.05858L11.3809 6.57421Z" fill="#FFF354"/>
  <path d="M9.35742 17.0234C9.32031 17.0234 9.2832 17.0137 9.25 16.9941L5.15235 14.6289C4.58399 14.3008 4.13868 13.5312 4.14063 12.877L4.16797 3.57422C4.16993 3.0625 4.45899 2.7207 4.88672 2.7207C5.05274 2.7207 5.22462 2.77148 5.4004 2.87305L11.4883 6.38867C12.0566 6.7168 12.5 7.48437 12.498 8.13867L12.4805 14.6699C12.4805 14.7598 12.4238 14.8398 12.3398 14.8711C12.2559 14.9023 12.1602 14.877 12.1016 14.8066C11.793 14.4395 11.4473 14.1406 11.1035 13.9434C10.7852 13.7598 10.4707 13.6621 10.1953 13.6621C9.89258 13.6621 9.63672 13.7793 9.45703 14.0039C9.25977 14.248 9.1543 14.6113 9.1543 15.0547C9.15234 15.5684 9.29102 16.1445 9.55469 16.7227C9.59375 16.8086 9.57227 16.9082 9.50391 16.9707C9.46094 17.0059 9.4082 17.0234 9.35742 17.0234ZM4.88672 3.15039C4.62696 3.15039 4.59766 3.44727 4.59766 3.57617L4.57032 12.8789C4.56837 13.377 4.9336 14.0078 5.36719 14.2578L8.93555 16.3184C8.79492 15.8809 8.7207 15.4512 8.72266 15.0508C8.72656 13.9453 9.30273 13.2305 10.1934 13.2305C10.5488 13.2305 10.9258 13.3438 11.3164 13.5703C11.5703 13.7168 11.8145 13.9023 12.0508 14.127L12.0684 8.13477C12.0703 7.63867 11.7051 7.00781 11.2734 6.75977L5.18555 3.24414C5.07813 3.18359 4.97462 3.15039 4.88672 3.15039Z" fill="#593389"/>
  <path d="M14.9824 6.52734C14.9824 6.51367 14.9805 6.49805 14.9805 6.48437C14.9805 6.4707 14.9785 6.45508 14.9766 6.44141C14.9746 6.42773 14.9727 6.41211 14.9727 6.39844C14.9707 6.38281 14.9687 6.36914 14.9668 6.35352L14.9668 6.35156L14.9668 6.34961C14.9648 6.33594 14.9629 6.32227 14.959 6.30859C14.9551 6.29297 14.9531 6.27734 14.9492 6.26172L14.9375 6.21484C14.9336 6.19922 14.9297 6.18359 14.9258 6.16602C14.9219 6.15234 14.918 6.13867 14.9141 6.12695L14.9141 6.125C14.9141 6.12305 14.9121 6.12109 14.9121 6.11914C14.9082 6.10352 14.9023 6.08789 14.8965 6.07227C14.8906 6.05664 14.8867 6.04102 14.8809 6.02539C14.875 6.00977 14.8691 5.99609 14.8633 5.98047C14.8574 5.96484 14.8516 5.95117 14.8457 5.93555C14.8418 5.92383 14.8359 5.91211 14.8301 5.90039C14.8301 5.90039 14.8301 5.89844 14.8281 5.89844C14.8281 5.89648 14.8262 5.89453 14.8262 5.89258C14.8203 5.87695 14.8125 5.86328 14.8066 5.84766C14.7988 5.83203 14.791 5.81641 14.7832 5.79883C14.7734 5.78125 14.7656 5.76172 14.7559 5.74414C14.7461 5.72461 14.7344 5.70508 14.7227 5.68555C14.7207 5.68164 14.7187 5.67773 14.7168 5.67578L14.7109 5.66406C14.6895 5.62695 14.666 5.5918 14.6426 5.55664C14.625 5.5293 14.6055 5.50391 14.5859 5.47656C14.5859 5.47656 14.5859 5.47461 14.584 5.47461L14.543 5.42187C14.5312 5.40625 14.5195 5.39258 14.5078 5.37891L14.4727 5.33789C14.4609 5.32422 14.4492 5.3125 14.4375 5.29883L14.4316 5.29297C14.4316 5.29102 14.4297 5.29102 14.4297 5.28906L14.4004 5.25977C14.3887 5.24609 14.375 5.23438 14.3613 5.22266C14.3477 5.21094 14.3359 5.19727 14.3223 5.18555C14.3086 5.17383 14.2949 5.16211 14.2832 5.15039C14.2773 5.14453 14.2715 5.14062 14.2637 5.13477C14.2617 5.13281 14.2598 5.13281 14.2598 5.13086C14.2539 5.12695 14.248 5.12109 14.2441 5.11719C14.2305 5.10742 14.2187 5.09766 14.2051 5.08789C14.1914 5.07812 14.1797 5.06836 14.166 5.06055C14.1543 5.05273 14.1406 5.04297 14.1289 5.03516C14.1172 5.02734 14.1035 5.01953 14.0918 5.01172C14.0898 5.00977 14.0859 5.00781 14.084 5.00586L7.99609 1.49023C7.98633 1.48438 7.97656 1.47852 7.9668 1.47461C7.95508 1.46875 7.94141 1.46094 7.92969 1.45508C7.91797 1.44922 7.90625 1.44336 7.89258 1.4375C7.88086 1.43164 7.86914 1.42773 7.85742 1.42188C7.8457 1.41602 7.83398 1.41211 7.82031 1.4082C7.81836 1.4082 7.81445 1.40625 7.8125 1.40625L7.81055 1.40625C7.80273 1.4043 7.79297 1.40039 7.78516 1.39844C7.77344 1.39453 7.75977 1.39062 7.74805 1.38867C7.73633 1.38477 7.72266 1.38281 7.71094 1.38086C7.69727 1.37891 7.68359 1.37695 7.67188 1.375C7.66211 1.37305 7.65234 1.37305 7.64453 1.37305L7.63281 1.37305C7.61914 1.37109 7.60352 1.37109 7.58984 1.37109C7.57422 1.37109 7.55859 1.37109 7.54297 1.37305C7.52539 1.375 7.50781 1.37695 7.49023 1.38086L7.48828 1.38086L7.48633 1.38086C7.4668 1.38477 7.44531 1.39062 7.42773 1.39648C7.40234 1.40625 7.37695 1.41797 7.35352 1.42969L4.6543 2.99805C4.69531 2.97461 4.74023 2.95703 4.78711 2.94727L4.78906 2.94727C4.83594 2.9375 4.88867 2.93555 4.94141 2.93945L4.94531 2.93945C4.99805 2.94336 5.05469 2.95703 5.11328 2.97656L5.11719 2.97656C5.17578 2.99609 5.23633 3.02344 5.29883 3.06055L11.3867 6.57617C11.4473 6.61133 11.5078 6.6543 11.5664 6.70117C11.5684 6.70312 11.5703 6.70312 11.5703 6.70508C11.627 6.75195 11.6836 6.80469 11.7363 6.86133L11.7383 6.86328C11.791 6.91992 11.8438 6.98242 11.8906 7.04687C11.9375 7.11133 11.9805 7.17773 12.0215 7.24805C12.0234 7.25195 12.0254 7.25586 12.0273 7.25781C12.0664 7.32617 12.1016 7.39648 12.1348 7.46875C12.1348 7.46875 12.1348 7.4707 12.1367 7.4707C12.168 7.54492 12.1973 7.61914 12.2188 7.69336L12.2188 7.69531C12.2422 7.76953 12.2598 7.8457 12.2715 7.91797L12.2715 7.91992C12.2832 7.99414 12.2891 8.06836 12.2891 8.13867L12.2637 14.668L14.9629 13.0996L14.9805 6.56836C14.9824 6.55469 14.9824 6.54102 14.9824 6.52734Z" fill="#FFCD00"/>
  <path d="M12.2637 14.8828C12.2266 14.8828 12.1894 14.873 12.1563 14.8535C12.0898 14.8145 12.0488 14.7441 12.0488 14.666L12.0664 8.13477C12.0664 8.07617 12.0625 8.01562 12.0508 7.95312L12.0508 7.94922C12.041 7.88672 12.0254 7.82031 12.0059 7.75391L12.0059 7.75195C11.9863 7.6875 11.9609 7.61914 11.9316 7.55469C11.9316 7.55469 11.9316 7.55273 11.9297 7.55078C11.9023 7.48828 11.8691 7.42383 11.834 7.36133L11.8281 7.35156C11.791 7.28906 11.752 7.22852 11.7109 7.17188L11.709 7.16992C11.666 7.11328 11.6211 7.05859 11.5742 7.00781L11.5723 7.00586C11.5254 6.95703 11.4765 6.91016 11.4277 6.86914L11.4238 6.86719C11.3731 6.82617 11.3203 6.78906 11.2715 6.76172L5.18359 3.24609C5.13476 3.21875 5.08593 3.19531 5.03906 3.17969L5.0371 3.17969C4.99609 3.16602 4.95703 3.15625 4.91992 3.1543L4.91601 3.1543C4.88476 3.15234 4.85742 3.15234 4.83203 3.1582L4.82812 3.1582L4.82617 3.1582C4.80078 3.16406 4.77734 3.17188 4.75781 3.18359C4.65429 3.24414 4.52343 3.20898 4.46484 3.10547C4.40429 3.00195 4.43945 2.87109 4.54296 2.8125L7.24219 1.24414C7.27735 1.22461 7.31446 1.20703 7.35157 1.19336C7.37696 1.18359 7.40235 1.17773 7.43165 1.16992C7.43555 1.16797 7.43946 1.16797 7.44336 1.16797L7.44532 1.16797C7.47071 1.16211 7.4961 1.16016 7.51954 1.15625C7.54102 1.1543 7.5625 1.15234 7.58594 1.15234L7.58985 1.15234C7.60743 1.15234 7.62696 1.15234 7.64454 1.1543C7.64844 1.1543 7.6543 1.1543 7.65821 1.15625L7.66407 1.15625C7.67579 1.1582 7.6875 1.1582 7.69922 1.16016C7.7168 1.16211 7.73438 1.16602 7.75196 1.16797C7.76758 1.17188 7.78321 1.17383 7.79883 1.17773C7.81446 1.18164 7.83008 1.18555 7.84571 1.19141C7.85547 1.19336 7.86329 1.19727 7.87305 1.20117L7.87696 1.20312L7.87891 1.20312C7.88282 1.20508 7.88672 1.20508 7.89063 1.20703C7.9043 1.21289 7.91993 1.2168 7.93555 1.22461C7.94922 1.23047 7.96485 1.23633 7.98047 1.24414C7.99415 1.25 8.00977 1.25781 8.02344 1.26562C8.03907 1.27344 8.05274 1.28125 8.06836 1.28906C8.08008 1.29492 8.0918 1.30078 8.10157 1.30859L14.1973 4.82422C14.2129 4.83203 14.2266 4.8418 14.2422 4.85156C14.2578 4.86133 14.2715 4.87109 14.2871 4.88086C14.3027 4.89062 14.3164 4.90234 14.332 4.91211C14.3476 4.92383 14.3613 4.93359 14.3769 4.94531C14.3828 4.94922 14.3867 4.95312 14.3926 4.95703L14.4082 4.96875C14.4141 4.97266 14.418 4.97656 14.4238 4.98242C14.4395 4.99609 14.4551 5.00781 14.4688 5.02148C14.4844 5.03516 14.4981 5.04883 14.5137 5.0625C14.5273 5.07617 14.543 5.08984 14.5566 5.10547C14.5684 5.11719 14.5781 5.12695 14.5879 5.13867L14.5898 5.14062L14.5977 5.14844C14.6094 5.16211 14.6231 5.17578 14.6367 5.19141C14.6504 5.20703 14.6621 5.2207 14.6758 5.23633C14.6894 5.25195 14.7012 5.26758 14.7148 5.28516C14.7305 5.30469 14.7441 5.32422 14.7598 5.34375C14.7598 5.3457 14.7617 5.3457 14.7617 5.34766C14.7832 5.37695 14.8027 5.40625 14.8223 5.43359C14.8477 5.47266 14.8731 5.51172 14.8965 5.55273L14.9023 5.56445L14.9043 5.56641C14.9063 5.56836 14.9082 5.57227 14.9102 5.57617L14.914 5.58203C14.9258 5.60156 14.9375 5.62109 14.9473 5.64258C14.957 5.66211 14.9688 5.68164 14.9785 5.70312C14.9863 5.7207 14.9961 5.73828 15.0039 5.75586C15.0117 5.77148 15.0195 5.78906 15.0254 5.80469L15.0273 5.81055C15.0273 5.81055 15.0293 5.8125 15.0293 5.81445C15.0352 5.82617 15.0391 5.83984 15.0449 5.85156C15.0508 5.86719 15.0586 5.88477 15.0645 5.90039C15.0703 5.91602 15.0762 5.93359 15.082 5.94922C15.0879 5.9668 15.0938 5.98242 15.0996 6L15.1172 6.05273C15.1172 6.05469 15.1191 6.05664 15.1191 6.05859L15.1191 6.0625C15.1231 6.07617 15.127 6.08984 15.1309 6.10547C15.1367 6.12305 15.1406 6.14062 15.1445 6.1582L15.1563 6.21094L15.168 6.26367C15.1699 6.2793 15.1738 6.29297 15.1758 6.30859L15.1758 6.31641C15.1777 6.33398 15.1816 6.35156 15.1836 6.36914C15.1856 6.38672 15.1875 6.40234 15.1895 6.41992C15.1914 6.4375 15.1934 6.45312 15.1934 6.4707C15.1953 6.48828 15.1953 6.50391 15.1953 6.52148L15.1953 6.56836L15.1777 13.0996C15.1777 13.1758 15.1367 13.2461 15.0703 13.2852L12.3711 14.8535C12.3379 14.873 12.3008 14.8828 12.2637 14.8828ZM12.4766 7.87891C12.4766 7.88086 12.4766 7.88086 12.4766 7.87891L12.4766 7.88281C12.4902 7.96875 12.4981 8.05469 12.4981 8.13672L12.4805 14.2949L14.75 12.9766L14.7676 6.56836L14.7676 6.53516C14.7676 6.52344 14.7676 6.51172 14.7656 6.5C14.7656 6.48828 14.7637 6.47656 14.7637 6.46289C14.7617 6.45117 14.7617 6.4375 14.7598 6.42578C14.7578 6.41406 14.7559 6.40039 14.7539 6.38867L14.7539 6.38281L14.748 6.34766C14.7461 6.33398 14.7422 6.32031 14.7402 6.30664C14.7363 6.29297 14.7344 6.2793 14.7305 6.26562C14.7266 6.25195 14.7227 6.23828 14.7187 6.22266C14.7148 6.21094 14.7129 6.19922 14.709 6.1875C14.709 6.1875 14.709 6.18555 14.707 6.18359C14.707 6.18164 14.707 6.17969 14.7051 6.17969C14.7012 6.16602 14.6973 6.15234 14.6914 6.13867C14.6875 6.125 14.6816 6.11133 14.6777 6.09766C14.6738 6.08398 14.668 6.07031 14.6621 6.05859C14.6563 6.04492 14.6523 6.03125 14.6465 6.01953C14.6426 6.00977 14.6367 5.99805 14.6328 5.98828C14.6328 5.98828 14.6308 5.98633 14.6308 5.98438L14.6289 5.97656C14.6231 5.96484 14.6172 5.95117 14.6113 5.9375C14.6055 5.92383 14.5977 5.9082 14.5898 5.89453C14.582 5.87891 14.5723 5.86133 14.5645 5.8457C14.5566 5.83008 14.5469 5.8125 14.5371 5.79688L14.5293 5.7832C14.5273 5.7793 14.5254 5.77734 14.5234 5.77344L14.5215 5.77148C14.502 5.74023 14.4824 5.70703 14.4609 5.67578C14.4453 5.65234 14.4277 5.62891 14.4102 5.60352C14.4102 5.60156 14.4082 5.60156 14.4062 5.59961L14.3711 5.55273C14.3613 5.53906 14.3496 5.52734 14.3398 5.51367C14.3301 5.50195 14.3183 5.48828 14.3086 5.47656C14.2988 5.46484 14.289 5.45312 14.2773 5.44141L14.2715 5.43555L14.2695 5.43359C14.2617 5.42383 14.252 5.41602 14.2441 5.40625L14.2109 5.37305C14.1992 5.36133 14.1875 5.35156 14.1758 5.33984L14.1406 5.31055C14.1387 5.30859 14.1348 5.30664 14.1328 5.30273L14.123 5.29492L14.1211 5.29297L14.1133 5.28711C14.1113 5.28516 14.1094 5.2832 14.1055 5.28125C14.0937 5.27344 14.084 5.26367 14.0723 5.25586C14.0606 5.24805 14.0508 5.24023 14.0391 5.23242C14.0293 5.22461 14.0176 5.21875 14.0078 5.21094C13.9981 5.20508 13.9863 5.19727 13.9765 5.19141L13.9688 5.1875L7.88086 1.67188C7.87305 1.66797 7.86524 1.66211 7.85743 1.6582C7.84766 1.65234 7.8379 1.64844 7.82813 1.64258C7.81836 1.63867 7.8086 1.63281 7.79883 1.62891C7.78907 1.625 7.7793 1.62109 7.77149 1.61719C7.76172 1.61328 7.75391 1.60938 7.7461 1.60742C7.74415 1.60742 7.74219 1.60547 7.74024 1.60547C7.73829 1.60547 7.73829 1.60547 7.73633 1.60352L7.73243 1.60156C7.72852 1.59961 7.72266 1.59766 7.71875 1.59766C7.70899 1.5957 7.69922 1.5918 7.69141 1.58984C7.6836 1.58789 7.67383 1.58594 7.66602 1.58398C7.65625 1.58203 7.64844 1.58008 7.63868 1.58008C7.63282 1.58008 7.62891 1.57812 7.62305 1.57812L7.61915 1.57812L7.61719 1.57812L7.58399 1.57812C7.57227 1.57812 7.5625 1.57812 7.55469 1.58008C7.54688 1.58008 7.53907 1.58203 7.5293 1.58398C7.52735 1.58398 7.52344 1.58594 7.52149 1.58594C7.50977 1.58789 7.49805 1.5918 7.49024 1.59375C7.47657 1.59766 7.46485 1.60352 7.45313 1.61133L5.33984 2.83984C5.35937 2.84961 5.3789 2.85938 5.39843 2.87109L11.4863 6.38672C11.5547 6.42578 11.625 6.47461 11.6934 6.53125L11.6973 6.53516C11.7617 6.58789 11.8242 6.64648 11.8848 6.71094L11.8887 6.71484C11.9473 6.77734 12.0039 6.8457 12.0566 6.91797L12.0586 6.91992C12.1094 6.98828 12.1563 7.0625 12.2012 7.13867L12.207 7.15039C12.252 7.22656 12.291 7.30469 12.3242 7.38086C12.3242 7.38086 12.3262 7.38281 12.3262 7.38477C12.3613 7.4668 12.3926 7.54883 12.416 7.62891L12.416 7.63281C12.4433 7.71484 12.4629 7.79883 12.4766 7.87891Z" fill="#593389"/>
  <path d="M6.01954 7.38086C5.70118 7.19727 5.44142 6.74609 5.44337 6.37891C5.44532 6.01367 5.70704 5.86523 6.02345 6.04883L10.3008 8.51954C10.6192 8.70313 10.8789 9.1543 10.877 9.51954C10.875 9.88672 10.6133 10.0371 10.2969 9.85352L6.01954 7.38086Z" fill="#FFF"/>
  <path d="M10.5547 10.1445C10.4355 10.1445 10.3125 10.1094 10.1895 10.0371L5.91212 7.56641C5.52735 7.34375 5.22657 6.82227 5.22853 6.37891C5.23048 6.01172 5.45118 5.75586 5.76563 5.75586C5.88478 5.75586 6.00782 5.79297 6.13087 5.86328L10.4082 8.33398C10.793 8.55664 11.0938 9.07812 11.0918 9.51953C11.0918 9.88867 10.8711 10.1445 10.5547 10.1445ZM5.76563 6.18555C5.67188 6.18555 5.65821 6.30859 5.65821 6.38086C5.65821 6.66992 5.87696 7.05078 6.12696 7.19531L10.4043 9.66602C10.459 9.69727 10.5137 9.71484 10.5547 9.71484C10.6484 9.71484 10.6621 9.5918 10.6621 9.51758C10.6621 9.23047 10.4434 8.84961 10.1934 8.70508L5.91603 6.23438C5.85938 6.20312 5.80665 6.18555 5.76563 6.18555Z" fill="#593389"/>
  <path d="M10.293 11.1074C10.6113 11.291 10.8711 11.7422 10.8692 12.1074C10.8672 12.4727 10.6055 12.6211 10.2891 12.4375L6.01173 9.9668C5.69337 9.7832 5.4336 9.33203 5.43556 8.9668C5.43751 8.60156 5.69923 8.45313 6.01564 8.63672L10.293 11.1074Z" fill="#FFF"/>
  <path d="M10.5488 12.7305C10.4297 12.7305 10.3067 12.6953 10.1836 12.623L5.90626 10.1523C5.52149 9.92969 5.22071 9.4082 5.22267 8.9668C5.22462 8.59961 5.44532 8.34375 5.75978 8.34375C5.87892 8.34375 6.00196 8.38086 6.12501 8.45117L10.4023 10.9219C10.7871 11.1445 11.0879 11.666 11.0859 12.1074C11.084 12.4746 10.8633 12.7305 10.5488 12.7305ZM5.75782 8.77344C5.66407 8.77344 5.6504 8.89648 5.6504 8.96875C5.6504 9.25586 5.86915 9.63672 6.11915 9.78125L10.3965 12.252C10.4512 12.2832 10.5059 12.3027 10.5469 12.3027C10.6406 12.3027 10.6543 12.1797 10.6543 12.1074C10.6543 11.8203 10.4355 11.4395 10.1855 11.2949L5.90821 8.82422C5.85157 8.79102 5.79884 8.77344 5.75782 8.77344Z" fill="#593389"/>
  <path d="M5.42774 11.5567C5.4297 11.1895 5.69142 11.0391 6.00782 11.2227L9.91994 13.4805C9.46877 13.5176 9.1133 13.7832 8.92385 14.2402L6.00587 12.5547C5.68556 12.3711 5.42579 11.9219 5.42774 11.5567Z" fill="#FFF"/>
  <path d="M8.92383 14.4551C8.88672 14.4551 8.84961 14.4453 8.81641 14.4258L5.89845 12.7402C5.51368 12.5176 5.2129 11.9961 5.21485 11.5547C5.21681 11.1855 5.43751 10.9277 5.75196 10.9277C5.8711 10.9277 5.99415 10.9629 6.1172 11.0352L10.0293 13.293C10.1113 13.3398 10.1523 13.4336 10.1309 13.5254C10.1094 13.6172 10.0332 13.6855 9.93945 13.6934C9.5625 13.7246 9.28127 13.9414 9.12305 14.3203C9.09961 14.377 9.05273 14.4219 8.99414 14.4414C8.9707 14.4512 8.94727 14.4551 8.92383 14.4551ZM5.75001 11.3594C5.65626 11.3594 5.64259 11.4824 5.64259 11.5566C5.64259 11.8438 5.86134 12.2246 6.11134 12.3691L8.83205 13.9395C8.96877 13.707 9.15432 13.5293 9.375 13.4141L5.9004 11.4082C5.84571 11.377 5.79103 11.3594 5.75001 11.3594Z" fill="#593389"/>
  <path d="M11.7734 15.752C11.8496 15.7969 11.9277 15.875 11.9863 15.9766C12.1016 16.1777 12.1016 16.3965 11.9844 16.4629L11.623 16.6719L11.9824 17.2949C12.0977 17.4961 12.0977 17.7149 11.9805 17.7813C11.9219 17.8145 11.8438 17.8047 11.7676 17.7598C11.6914 17.7149 11.6133 17.6367 11.5547 17.5352L11.1953 16.9141L10.834 17.1211C10.7754 17.1543 10.6973 17.1445 10.6211 17.0996C10.5449 17.0547 10.4668 16.9766 10.4082 16.875C10.293 16.6738 10.293 16.4551 10.4102 16.3887L10.7715 16.1816L10.4121 15.5566C10.2969 15.3555 10.2969 15.1367 10.4141 15.0703C10.4727 15.0371 10.5508 15.0469 10.627 15.0918C10.7031 15.1367 10.7813 15.2148 10.8398 15.3164L11.1992 15.9395L11.5605 15.7324C11.6191 15.6973 11.6953 15.707 11.7734 15.752Z" fill="#FFF"/>
  <path d="M11.9023 18.0176C11.8223 18.0176 11.7402 17.9941 11.6601 17.9473C11.5488 17.8828 11.4453 17.7754 11.3691 17.6445L11.1152 17.207L10.9394 17.3066C10.8828 17.3379 10.8203 17.3555 10.7539 17.3555C10.6738 17.3555 10.5918 17.332 10.5117 17.2852C10.3984 17.2207 10.2969 17.1133 10.2207 16.9824C10.1172 16.8027 10.0801 16.5996 10.123 16.4414C10.1523 16.3359 10.2148 16.252 10.3008 16.2012L10.4746 16.1016L10.2226 15.6641C10.1191 15.4844 10.082 15.2812 10.125 15.123C10.1543 15.0176 10.2168 14.9336 10.3027 14.8828C10.3594 14.8516 10.4219 14.834 10.4883 14.834C10.5683 14.834 10.6504 14.8574 10.7305 14.9043C10.8437 14.9688 10.9453 15.0762 11.0215 15.207L11.2734 15.6445L11.4492 15.5449C11.5058 15.5137 11.5683 15.4961 11.6348 15.4961C11.7148 15.4961 11.7969 15.5195 11.8769 15.5664C11.9902 15.6309 12.0918 15.7383 12.1679 15.8691C12.2715 16.0488 12.3086 16.252 12.2656 16.4102C12.2363 16.5156 12.1738 16.5996 12.0879 16.6504L11.9141 16.752L12.1679 17.1875C12.2715 17.3672 12.3086 17.5703 12.2656 17.7285C12.2363 17.834 12.1738 17.918 12.0879 17.9688C12.0312 18.002 11.9687 18.0176 11.9023 18.0176ZM11.1953 16.6992C11.2695 16.6992 11.3418 16.7383 11.3808 16.8066L11.7402 17.4297C11.7715 17.4844 11.8125 17.5312 11.8516 17.5605C11.8476 17.5215 11.832 17.4668 11.7949 17.4023L11.4355 16.7793C11.4062 16.7305 11.3984 16.6719 11.4141 16.6152C11.4297 16.5586 11.4648 16.5137 11.5137 16.4844L11.8555 16.2871C11.8594 16.2559 11.8535 16.1777 11.7988 16.082C11.7617 16.0176 11.7109 15.9629 11.6641 15.9355C11.6562 15.9316 11.6504 15.9277 11.6445 15.9258L11.3027 16.1211C11.1992 16.1797 11.0703 16.1445 11.0098 16.041L10.6504 15.418C10.6191 15.3633 10.5781 15.3164 10.539 15.2871C10.543 15.3262 10.5586 15.3809 10.5957 15.4453L10.9551 16.0703C10.9844 16.1191 10.9902 16.1777 10.9766 16.2344C10.9609 16.2891 10.9258 16.3359 10.875 16.3652L10.5351 16.5586C10.5312 16.5898 10.5371 16.668 10.5918 16.7637C10.6289 16.8281 10.6797 16.8828 10.7266 16.9102C10.7344 16.9141 10.7402 16.918 10.7461 16.9199L11.0879 16.7246C11.123 16.709 11.1582 16.6992 11.1953 16.6992Z" fill="#593389"/>
</svg>
