<svg xmlns="http://www.w3.org/2000/svg" fill="none" viewBox="0 0 24 24" class="design-iconfont">
  <path d="M16.6066 5.29289L11.6569 10.2426L6.70711 5.29289C6.31658 4.90237 5.68342 4.90237 5.29289 5.29289C4.90237 5.68342 4.90237 6.31658 5.29289 6.70711L10.2426 11.6569L5.29289 16.6066C4.90237 16.9971 4.90237 17.6303 5.29289 18.0208C5.68342 18.4113 6.31658 18.4113 6.70711 18.0208L11.6569 13.0711L16.6066 18.0208C16.9971 18.4113 17.6303 18.4113 18.0208 18.0208C18.4113 17.6303 18.4113 16.9971 18.0208 16.6066L13.0711 11.6569L18.0208 6.70711C18.4113 6.31658 18.4113 5.68342 18.0208 5.29289C17.6303 4.90237 16.9971 4.90237 16.6066 5.29289Z" fill="#67686B"/>
</svg>
