<svg xmlns="http://www.w3.org/2000/svg" fill="none" viewBox="0 0 20 20" class="design-iconfont">
  <path d="M1.56995 13.12L10.4712 13.12L11.9837 18.41L3.08245 18.41L1.56995 13.12Z" fill="#FFF"/>
  <path d="M10.4712 13.1213L17.1049 7.41125L18.4499 12.1125L11.9849 18.41L10.4724 13.12L10.4712 13.1213Z" fill="#E6E8EB"/>
  <path d="M17.4062 7.32499C17.4044 7.31872 17.4024 7.31251 17.4002 7.30636C17.398 7.3002 17.3956 7.29412 17.3931 7.28812C17.3905 7.28212 17.3877 7.27621 17.3848 7.27039C17.3819 7.26455 17.3787 7.25882 17.3754 7.25318C17.3721 7.24755 17.3687 7.24203 17.365 7.23662C17.3614 7.2312 17.3575 7.2259 17.3536 7.22072C17.3496 7.21555 17.3455 7.2105 17.3412 7.20558C17.3369 7.20066 17.3324 7.19588 17.3278 7.19125C17.3232 7.18661 17.3185 7.18212 17.3136 7.17777C17.3087 7.17343 17.3037 7.16925 17.2986 7.16523C17.2934 7.16119 17.2882 7.15733 17.2828 7.15363C17.2774 7.14993 17.2719 7.14641 17.2663 7.14306C17.2607 7.1397 17.255 7.13652 17.2492 7.13353C17.2434 7.13054 17.2375 7.12772 17.2315 7.12509C17.2256 7.12246 17.2195 7.12003 17.2134 7.11779C17.2072 7.11554 17.2011 7.11348 17.1948 7.11162C17.1886 7.10977 17.1822 7.10811 17.1759 7.10664C17.1695 7.10518 17.1631 7.10391 17.1566 7.10285C17.1502 7.10179 17.1437 7.10093 17.1372 7.10027C17.1308 7.09962 17.1242 7.09917 17.1177 7.09892C17.1112 7.09867 17.1047 7.09863 17.0981 7.09878C17.0916 7.09894 17.0851 7.09931 17.0786 7.09988C17.0721 7.10045 17.0656 7.10123 17.0592 7.1022C17.0527 7.10317 17.0463 7.10434 17.0399 7.10572C17.0335 7.1071 17.0272 7.10867 17.0209 7.11044C17.0146 7.11223 17.0084 7.1142 17.0022 7.11636C16.9961 7.11852 16.99 7.12088 16.9839 7.12343C16.9779 7.12597 16.972 7.1287 16.9662 7.13162C16.9603 7.13453 16.9546 7.13763 16.9489 7.14091C16.9433 7.14419 16.9378 7.14764 16.9323 7.15126C16.9269 7.1549 16.9216 7.15869 16.9164 7.16265C16.9112 7.16661 16.9061 7.17072 16.9012 7.17499L10.3575 12.8075L1.56995 12.8075C1.56393 12.8075 1.55791 12.8077 1.5519 12.808C1.54589 12.8084 1.53989 12.8089 1.53391 12.8096C1.52793 12.8103 1.52198 12.8112 1.51605 12.8122C1.51012 12.8133 1.50422 12.8145 1.49837 12.8159C1.4925 12.8173 1.48669 12.8188 1.48092 12.8206C1.47515 12.8223 1.46944 12.8242 1.46377 12.8262C1.45811 12.8283 1.45252 12.8305 1.44698 12.8329C1.44145 12.8352 1.43599 12.8378 1.43061 12.8405C1.42522 12.8432 1.41992 12.846 1.41469 12.849C1.40947 12.852 1.40434 12.8551 1.3993 12.8584C1.39426 12.8617 1.38932 12.8652 1.38448 12.8688C1.37964 12.8723 1.37491 12.876 1.37028 12.8799C1.36565 12.8838 1.36114 12.8877 1.35675 12.8919C1.35235 12.896 1.34808 12.9002 1.34393 12.9046C1.33977 12.9089 1.33575 12.9134 1.33186 12.918C1.32797 12.9226 1.32421 12.9273 1.32059 12.9321C1.31697 12.9369 1.3135 12.9418 1.31016 12.9469C1.30682 12.9519 1.30364 12.957 1.30059 12.9622C1.29755 12.9674 1.29466 12.9727 1.29193 12.978C1.28919 12.9834 1.28661 12.9888 1.28419 12.9943C1.28177 12.9998 1.27951 13.0054 1.27741 13.0111C1.27531 13.0167 1.27338 13.0224 1.27161 13.0282C1.26984 13.0339 1.26824 13.0397 1.2668 13.0456C1.26537 13.0514 1.26411 13.0573 1.26301 13.0632C1.26192 13.0691 1.261 13.0751 1.26025 13.0811C1.2595 13.0871 1.25892 13.093 1.25852 13.099C1.25811 13.1051 1.25788 13.1111 1.25783 13.1171C1.25777 13.1231 1.25789 13.1291 1.25818 13.1351C1.25847 13.1412 1.25894 13.1472 1.25957 13.1531C1.26021 13.1591 1.26102 13.1651 1.26201 13.171C1.26299 13.177 1.26415 13.1829 1.26547 13.1888C1.26679 13.1946 1.26829 13.2005 1.26995 13.2063L2.78245 18.4963C2.78361 18.5003 2.78485 18.5043 2.78616 18.5083C2.78749 18.5123 2.7889 18.5162 2.79038 18.5202C2.79185 18.5241 2.79341 18.528 2.79505 18.5319C2.79669 18.5357 2.7984 18.5396 2.80019 18.5434C2.80198 18.5471 2.80385 18.5509 2.80579 18.5546C2.80774 18.5583 2.80976 18.562 2.81185 18.5657C2.81394 18.5693 2.81611 18.5729 2.81835 18.5765C2.82059 18.58 2.82289 18.5835 2.82526 18.587C2.82765 18.5905 2.83009 18.5939 2.83261 18.5972C2.83513 18.6006 2.83772 18.6039 2.84036 18.6072C2.84302 18.6104 2.84573 18.6136 2.84851 18.6168C2.85128 18.6199 2.85412 18.623 2.85702 18.6261C2.85993 18.6291 2.86289 18.6321 2.86593 18.635C2.86895 18.6379 2.87203 18.6407 2.87517 18.6435C2.8783 18.6463 2.88149 18.649 2.88474 18.6517C2.88799 18.6544 2.89129 18.657 2.89464 18.6595C2.898 18.662 2.9014 18.6645 2.90485 18.6669C2.9083 18.6693 2.91181 18.6716 2.91536 18.6739C2.9189 18.6761 2.92249 18.6783 2.92612 18.6804C2.92976 18.6825 2.93343 18.6845 2.93714 18.6865C2.94086 18.6884 2.94462 18.6903 2.94841 18.6921C2.9522 18.6939 2.95603 18.6956 2.95989 18.6973C2.96375 18.6989 2.96764 18.7005 2.97157 18.702C2.97549 18.7035 2.97944 18.7049 2.98343 18.7063C2.98741 18.7076 2.99142 18.7089 2.99544 18.71C2.99948 18.7112 3.00353 18.7123 3.00761 18.7133C3.01168 18.7143 3.01578 18.7152 3.01989 18.7161C3.02401 18.7169 3.02813 18.7177 3.03228 18.7184C3.03643 18.7191 3.04059 18.7197 3.04476 18.7202C3.04892 18.7207 3.0531 18.7211 3.05728 18.7215C3.06147 18.7218 3.06566 18.7221 3.06985 18.7222C3.07405 18.7224 3.07825 18.7225 3.08245 18.7225L11.9487 18.7225C11.9544 18.7231 11.9602 18.7236 11.9659 18.7239C11.9716 18.7242 11.9774 18.7243 11.9831 18.7243C11.9889 18.7243 11.9947 18.7241 12.0004 18.7238C12.0061 18.7235 12.0119 18.723 12.0176 18.7223C12.0233 18.7217 12.029 18.7209 12.0347 18.7199C12.0404 18.719 12.046 18.7179 12.0516 18.7166C12.0572 18.7153 12.0628 18.7139 12.0683 18.7123C12.0738 18.7107 12.0793 18.709 12.0848 18.7071C12.0902 18.7052 12.0956 18.7032 12.1009 18.701C12.1062 18.6988 12.1115 18.6965 12.1167 18.694C12.1219 18.6915 12.127 18.6889 12.1321 18.6862C12.1371 18.6834 12.1421 18.6805 12.147 18.6775C12.1519 18.6745 12.1567 18.6713 12.1614 18.668C12.1661 18.6647 12.1707 18.6613 12.1753 18.6578C12.1798 18.6542 12.1842 18.6505 12.1886 18.6467C12.1929 18.6429 12.1971 18.639 12.2012 18.635L18.6674 12.3375C18.6725 12.3326 18.6773 12.3275 18.682 12.3223C18.6867 12.3171 18.6912 12.3117 18.6955 12.3062C18.6999 12.3007 18.704 12.295 18.708 12.2892C18.7119 12.2834 18.7157 12.2774 18.7192 12.2714C18.7228 12.2653 18.7261 12.2592 18.7292 12.2529C18.7324 12.2466 18.7353 12.2402 18.738 12.2337C18.7407 12.2272 18.7431 12.2207 18.7454 12.214C18.7477 12.2074 18.7497 12.2007 18.7515 12.1939C18.7533 12.1871 18.7549 12.1803 18.7562 12.1734C18.7576 12.1665 18.7587 12.1596 18.7596 12.1526C18.7604 12.1456 18.7611 12.1386 18.7615 12.1316C18.7619 12.1246 18.7621 12.1176 18.762 12.1106C18.7619 12.1036 18.7616 12.0966 18.7611 12.0896C18.7606 12.0826 18.7598 12.0756 18.7588 12.0686C18.7578 12.0617 18.7565 12.0548 18.7551 12.0479C18.7536 12.0411 18.7519 12.0342 18.7499 12.0275L17.4062 7.32499ZM10.2349 13.4325L11.5687 18.0975L3.31869 18.0975L1.98495 13.4325L10.2349 13.4325ZM12.1399 17.8225L10.8274 13.2275L16.9399 7.96624L18.0974 12.02L12.1399 17.8225Z" fill="#303133"/>
  <path d="M8.49754 7.32751L17.105 7.41001L10.4713 13.1213L1.57129 13.1213L8.49754 7.32751Z" fill="#FFF"/>
  <path d="M8.29753 7.0875C8.3046 7.08161 8.31191 7.07603 8.31949 7.07079C8.32705 7.06554 8.33482 7.06063 8.34283 7.05606C8.35081 7.0515 8.359 7.0473 8.36738 7.04346C8.37574 7.03962 8.38425 7.03616 8.39294 7.03307C8.40162 7.02998 8.41041 7.02728 8.41931 7.02497C8.42822 7.02266 8.43722 7.02075 8.4463 7.01924C8.45539 7.01772 8.46453 7.01661 8.47371 7.0159C8.48289 7.0152 8.49207 7.0149 8.50128 7.015L17.1088 7.09875C17.1127 7.09881 17.1166 7.09894 17.1206 7.09915C17.1245 7.09935 17.1284 7.09963 17.1323 7.09999C17.1362 7.10034 17.1401 7.10076 17.144 7.10125C17.1479 7.10176 17.1518 7.10234 17.1557 7.10297C17.1596 7.10362 17.1634 7.10435 17.1673 7.10514C17.1711 7.10594 17.175 7.1068 17.1788 7.10774C17.1826 7.10868 17.1864 7.10968 17.1902 7.11077C17.1939 7.11185 17.1977 7.11299 17.2014 7.1142C17.2052 7.11543 17.2089 7.11672 17.2126 7.11809C17.2162 7.11944 17.2199 7.12087 17.2235 7.12237C17.2272 7.12388 17.2308 7.12545 17.2344 7.12707C17.2379 7.12872 17.2414 7.13042 17.245 7.13219C17.2485 7.13396 17.2519 7.13579 17.2554 7.13768C17.2588 7.13958 17.2622 7.14155 17.2656 7.14358C17.269 7.14561 17.2723 7.1477 17.2756 7.14985C17.2789 7.15201 17.2821 7.15423 17.2853 7.15651C17.2885 7.15877 17.2917 7.1611 17.2948 7.1635C17.2979 7.1659 17.301 7.16835 17.304 7.17086C17.307 7.17338 17.31 7.17594 17.3129 7.17856C17.3158 7.18119 17.3187 7.18387 17.3215 7.18661C17.3243 7.18933 17.3271 7.19211 17.3298 7.19495C17.3326 7.19778 17.3352 7.20068 17.3378 7.20362C17.3404 7.20655 17.343 7.20953 17.3455 7.21256C17.348 7.2156 17.3504 7.21868 17.3528 7.2218C17.3552 7.22493 17.3575 7.2281 17.3598 7.23131C17.362 7.23452 17.3642 7.23777 17.3664 7.24106C17.3685 7.24437 17.3706 7.24771 17.3726 7.25108C17.3746 7.25445 17.3766 7.25786 17.3785 7.26131C17.3803 7.26475 17.3822 7.26823 17.3839 7.27174C17.3857 7.27526 17.3874 7.27881 17.389 7.28239C17.3906 7.28597 17.3921 7.28958 17.3936 7.29323C17.3951 7.29686 17.3965 7.30052 17.3979 7.3042C17.3992 7.3079 17.4005 7.31162 17.4017 7.31536C17.4029 7.31909 17.404 7.32285 17.4051 7.32664C17.4062 7.33042 17.4071 7.33422 17.4081 7.33805C17.409 7.34187 17.4098 7.3457 17.4106 7.34955C17.4114 7.35341 17.4121 7.35728 17.4127 7.36116C17.4134 7.36502 17.4139 7.36891 17.4144 7.37282C17.4149 7.37671 17.4153 7.38062 17.4156 7.38454C17.416 7.38845 17.4162 7.39237 17.4164 7.39629C17.4166 7.40021 17.4167 7.40414 17.4168 7.40807C17.4168 7.412 17.4168 7.41593 17.4167 7.41985C17.4165 7.42378 17.4164 7.42771 17.4161 7.43162C17.4158 7.43554 17.4155 7.43946 17.4151 7.44336C17.4147 7.44728 17.4142 7.45118 17.4137 7.45506C17.4131 7.45896 17.4125 7.46284 17.4118 7.4667C17.4111 7.47057 17.4103 7.47443 17.4095 7.47827C17.4086 7.48209 17.4077 7.48592 17.4068 7.48973C17.4058 7.49353 17.4047 7.49732 17.4036 7.50108C17.4024 7.50484 17.4012 7.50858 17.4 7.51229C17.3987 7.51601 17.3974 7.5197 17.396 7.52337C17.3945 7.52703 17.3931 7.53068 17.3915 7.53428C17.39 7.5379 17.3884 7.54148 17.3867 7.54502C17.385 7.54858 17.3832 7.5521 17.3814 7.55559C17.3796 7.55907 17.3777 7.56251 17.3758 7.56592C17.3738 7.56935 17.3718 7.57273 17.3698 7.57606C17.3677 7.57939 17.3655 7.58269 17.3634 7.58596C17.3611 7.58922 17.3589 7.59243 17.3566 7.59559C17.3543 7.59877 17.3519 7.6019 17.3494 7.60498C17.347 7.60806 17.3445 7.61109 17.342 7.61409C17.3394 7.61707 17.3368 7.62001 17.3342 7.62289C17.3315 7.62578 17.3288 7.62863 17.326 7.63143C17.3232 7.63422 17.3204 7.63695 17.3176 7.63963C17.3147 7.64232 17.3118 7.64494 17.3088 7.6475L10.675 13.3575C10.668 13.3636 10.6608 13.3693 10.6533 13.3747C10.6457 13.3801 10.638 13.3852 10.63 13.3899C10.6221 13.3947 10.6139 13.399 10.6056 13.4031C10.5972 13.4071 10.5887 13.4107 10.58 13.4139C10.5713 13.4172 10.5625 13.42 10.5536 13.4225C10.5446 13.425 10.5356 13.427 10.5265 13.4287C10.5174 13.4304 10.5082 13.4316 10.499 13.4324C10.4898 13.4333 10.4805 13.4337 10.4713 13.4338L1.57128 13.4338C1.56731 13.4338 1.56334 13.4337 1.55937 13.4335C1.5554 13.4334 1.55144 13.4331 1.54748 13.4328C1.54352 13.4325 1.53957 13.4321 1.53563 13.4317C1.53168 13.4312 1.52775 13.4307 1.52383 13.4301C1.5199 13.4295 1.51599 13.4288 1.51209 13.428C1.5082 13.4273 1.50432 13.4264 1.50045 13.4255C1.49658 13.4246 1.49274 13.4237 1.48891 13.4226C1.48508 13.4215 1.48127 13.4204 1.47749 13.4192C1.4737 13.418 1.46994 13.4168 1.4662 13.4154C1.46247 13.4141 1.45875 13.4127 1.45507 13.4112C1.45139 13.4097 1.44773 13.4082 1.44411 13.4065C1.44048 13.4049 1.43689 13.4032 1.43333 13.4015C1.42977 13.3997 1.42625 13.3979 1.42275 13.396C1.41926 13.3941 1.41581 13.3922 1.4124 13.3901C1.40898 13.3881 1.4056 13.386 1.40227 13.3839C1.39893 13.3817 1.39563 13.3795 1.39238 13.3772C1.38913 13.3749 1.38592 13.3726 1.38276 13.3702C1.3796 13.3678 1.37648 13.3653 1.37341 13.3628C1.37034 13.3603 1.36732 13.3577 1.36435 13.3551C1.36138 13.3525 1.35846 13.3498 1.35559 13.347C1.35272 13.3443 1.34991 13.3415 1.34715 13.3386C1.34439 13.3358 1.34168 13.3329 1.33903 13.3299C1.33638 13.327 1.33378 13.324 1.33125 13.3209C1.32871 13.3179 1.32623 13.3147 1.32382 13.3116C1.3214 13.3085 1.31904 13.3053 1.31674 13.302C1.31445 13.2988 1.31221 13.2955 1.31004 13.2922C1.30787 13.2889 1.30576 13.2855 1.30372 13.2821C1.30167 13.2787 1.2997 13.2752 1.29778 13.2718C1.29587 13.2683 1.29403 13.2648 1.29225 13.2612C1.29047 13.2577 1.28876 13.2541 1.28712 13.2505C1.28548 13.2469 1.28391 13.2432 1.2824 13.2395C1.2809 13.2359 1.27947 13.2322 1.27811 13.2284C1.27675 13.2247 1.27546 13.2209 1.27424 13.2172C1.27302 13.2134 1.27187 13.2096 1.2708 13.2058C1.26972 13.2019 1.26872 13.1981 1.2678 13.1942C1.26687 13.1904 1.26602 13.1865 1.26524 13.1826C1.26446 13.1787 1.26375 13.1748 1.26312 13.1709C1.26249 13.167 1.26194 13.163 1.26146 13.1591C1.26098 13.1552 1.26057 13.1512 1.26024 13.1472C1.25991 13.1433 1.25965 13.1393 1.25948 13.1354C1.2593 13.1314 1.25919 13.1274 1.25916 13.1235C1.25914 13.1195 1.25918 13.1155 1.25931 13.1115C1.25943 13.1076 1.25963 13.1036 1.2599 13.0997C1.26018 13.0957 1.26053 13.0917 1.26095 13.0878C1.26138 13.0839 1.26188 13.0799 1.26245 13.076C1.26303 13.0721 1.26368 13.0681 1.2644 13.0642C1.26513 13.0603 1.26593 13.0564 1.2668 13.0526C1.26767 13.0487 1.26862 13.0448 1.26964 13.041C1.27066 13.0372 1.27175 13.0333 1.27291 13.0296C1.27408 13.0257 1.27532 13.022 1.27662 13.0182C1.27793 13.0145 1.27931 13.0108 1.28076 13.0071C1.28221 13.0034 1.28374 12.9997 1.28533 12.9961C1.28692 12.9924 1.28858 12.9888 1.2903 12.9853C1.29203 12.9817 1.29383 12.9781 1.29569 12.9746C1.29755 12.9711 1.29948 12.9677 1.30148 12.9642C1.30347 12.9608 1.30553 12.9574 1.30766 12.954C1.30978 12.9507 1.31197 12.9474 1.31422 12.9441C1.31647 12.9408 1.31878 12.9376 1.32116 12.9344C1.32353 12.9312 1.32596 12.9281 1.32846 12.925C1.33095 12.9219 1.3335 12.9189 1.33611 12.9159C1.33872 12.9129 1.34138 12.91 1.34411 12.9071C1.34683 12.9042 1.3496 12.9014 1.35243 12.8986C1.35526 12.8958 1.35814 12.893 1.36108 12.8904C1.36401 12.8877 1.36699 12.8851 1.37003 12.8825L8.29753 7.0875ZM8.61003 7.64125L2.43128 12.8088L10.3563 12.8088L16.2725 7.715L8.61003 7.64L8.61003 7.64125Z" fill="#8AAEFF"/>
  <path d="M15.63 6.04749C15.8525 6.17874 16.08 6.24874 16.3075 6.25999C16.695 6.27624 17.03 6.11874 17.31 5.91124C17.3215 5.902 17.3328 5.89255 17.3439 5.88286C17.3551 5.87317 17.366 5.86329 17.3767 5.85317C17.3875 5.84305 17.398 5.83274 17.4083 5.8222C17.4186 5.81169 17.4287 5.80096 17.4387 5.79003C17.4486 5.77911 17.4583 5.768 17.4677 5.75669C17.4772 5.7454 17.4864 5.73391 17.4955 5.72223C17.5045 5.71057 17.5133 5.69874 17.5218 5.68671C17.5304 5.67471 17.5387 5.66253 17.5468 5.65018C17.5549 5.63784 17.5627 5.62536 17.5703 5.6127C17.5779 5.60007 17.5852 5.58727 17.5923 5.57434C17.5994 5.56141 17.6062 5.54833 17.6128 5.53512C17.6193 5.52192 17.6256 5.5086 17.6317 5.49514C17.6377 5.48171 17.6435 5.46813 17.649 5.45446C17.6545 5.44079 17.6598 5.427 17.6647 5.41311C17.6697 5.39925 17.6744 5.38526 17.6788 5.37118C17.6832 5.35712 17.6874 5.34298 17.6913 5.32874C17.7613 5.10374 17.7863 4.84749 17.7713 4.58874C17.7413 4.07875 17.5475 3.50625 17.145 3.10375C16.7388 2.69874 16.165 2.52124 15.6563 2.51874C15.1675 2.51749 14.6225 2.68124 14.3775 3.10875C14.1788 3.45375 14.1863 3.86875 14.295 4.25875L8.52501 9.35999C8.51209 9.37223 8.49947 9.38479 8.48714 9.39764C8.47482 9.4105 8.46282 9.42364 8.45112 9.43706C8.43943 9.4505 8.42807 9.46419 8.41704 9.47815C8.40601 9.49214 8.39532 9.50637 8.38497 9.52085C8.37462 9.53534 8.36463 9.55007 8.35499 9.56503C8.34534 9.58001 8.33607 9.5952 8.32716 9.61059C8.31824 9.62602 8.3097 9.64163 8.30155 9.65745C8.29339 9.67327 8.28561 9.68929 8.27821 9.70548C8.27082 9.72169 8.26381 9.73805 8.2572 9.75458C8.2506 9.7711 8.24439 9.78778 8.23858 9.80462C8.23278 9.82145 8.22737 9.83842 8.22237 9.8555C8.21739 9.87259 8.21281 9.88979 8.20864 9.9071C8.20448 9.9244 8.20073 9.9418 8.19739 9.95928C8.19406 9.97678 8.19115 9.99434 8.18866 10.012C8.18618 10.0296 8.18411 10.0473 8.18247 10.065C8.18082 10.0827 8.1796 10.1005 8.17882 10.1183C8.17802 10.1361 8.17767 10.1539 8.17774 10.1717C8.17781 10.1895 8.1783 10.2073 8.17921 10.225C8.18013 10.2428 8.18148 10.2606 8.18325 10.2783C8.18502 10.296 8.18722 10.3137 8.18985 10.3313C8.19247 10.3489 8.19551 10.3664 8.19897 10.3839C8.20244 10.4013 8.20632 10.4187 8.21062 10.436C8.21491 10.4533 8.21962 10.4704 8.22474 10.4875C8.22985 10.5045 8.23538 10.5215 8.24132 10.5382C8.24726 10.555 8.25359 10.5717 8.26032 10.5882C8.26705 10.6046 8.27418 10.6209 8.28169 10.6371C8.2892 10.6532 8.2971 10.6692 8.30538 10.6849C8.31366 10.7007 8.32232 10.7163 8.33134 10.7316C8.34036 10.7469 8.34975 10.7621 8.3595 10.777C8.36926 10.7918 8.37936 10.8065 8.38982 10.8209C8.40027 10.8353 8.41107 10.8495 8.42222 10.8634C8.43335 10.8773 8.44481 10.8909 8.45659 10.9042C8.46839 10.9176 8.48049 10.9306 8.4929 10.9434C8.50532 10.9561 8.51804 10.9686 8.53104 10.9807C8.54407 10.9929 8.55737 11.0047 8.57095 11.0162C8.58453 11.0277 8.59838 11.0389 8.61251 11.0498C8.62663 11.0606 8.64099 11.0711 8.65561 11.0813C8.67024 11.0914 8.6851 11.1012 8.70019 11.1107C8.71528 11.1201 8.73059 11.1292 8.74612 11.1379C8.76166 11.1466 8.77739 11.1549 8.79331 11.1629C8.80924 11.1708 8.82535 11.1784 8.84165 11.1856C8.85794 11.1927 8.87439 11.1995 8.89101 11.2059C8.90762 11.2123 8.92439 11.2183 8.9413 11.2239C8.9582 11.2295 8.97522 11.2346 8.99237 11.2394C9.00953 11.2442 9.02679 11.2485 9.04415 11.2524C9.06152 11.2564 9.07897 11.2599 9.09649 11.263C9.11403 11.2661 9.13163 11.2688 9.14929 11.271C9.16694 11.2733 9.18465 11.2751 9.20239 11.2765C9.22015 11.2779 9.23793 11.2789 9.25571 11.2795C9.27351 11.28 9.29131 11.2802 9.30911 11.2799C9.32691 11.2796 9.3447 11.2788 9.36247 11.2777C9.38023 11.2765 9.39796 11.2749 9.41565 11.2729C9.43334 11.2709 9.45097 11.2685 9.46854 11.2656C9.48612 11.2628 9.50362 11.2595 9.52103 11.2558C9.53845 11.2521 9.55577 11.248 9.57298 11.2435C9.59021 11.239 9.60731 11.234 9.62429 11.2287C9.64127 11.2233 9.65811 11.2176 9.67481 11.2114C9.69152 11.2053 9.70807 11.1987 9.72446 11.1918C9.74086 11.1848 9.75707 11.1775 9.77312 11.1698C9.78916 11.162 9.805 11.1539 9.82065 11.1454C9.83629 11.1369 9.85173 11.1281 9.86696 11.1189C9.88218 11.1096 9.89718 11.1 9.91194 11.0901C9.92671 11.0801 9.94123 11.0699 9.9555 11.0592C9.96977 11.0485 9.98377 11.0376 9.99751 11.0262L15.6288 6.04624L15.63 6.04749ZM15.655 3.13625C16.0375 3.1375 16.4425 3.27375 16.7088 3.54125C16.98 3.81 17.1313 4.225 17.155 4.62499C17.1675 4.82374 17.1463 5.00374 17.1025 5.14624C17.0994 5.15921 17.0959 5.17202 17.0918 5.18468C17.0877 5.19737 17.0832 5.20987 17.0782 5.22219C17.0731 5.23454 17.0677 5.24667 17.0617 5.25858C17.0558 5.2705 17.0494 5.28218 17.0426 5.2936C17.0357 5.30505 17.0285 5.3162 17.0208 5.32706C17.0131 5.33796 17.0051 5.34852 16.9966 5.35878C16.9881 5.36905 16.9793 5.37897 16.97 5.38856C16.9608 5.39815 16.9512 5.40737 16.9413 5.41624C16.7288 5.57374 16.5288 5.65124 16.335 5.64124C16.3003 5.63985 16.2659 5.63602 16.2318 5.62973C16.1977 5.62344 16.1642 5.61479 16.1313 5.60374L16.24 5.50749C16.2533 5.49577 16.2663 5.48372 16.2791 5.47135C16.2918 5.45899 16.3042 5.44634 16.3163 5.43339C16.3285 5.42044 16.3403 5.4072 16.3518 5.39368C16.3632 5.38016 16.3744 5.36637 16.3852 5.35231C16.3961 5.33827 16.4065 5.32397 16.4167 5.3094C16.4269 5.29487 16.4366 5.28009 16.4461 5.26505C16.4555 5.25003 16.4646 5.23479 16.4733 5.21932C16.482 5.20387 16.4903 5.18823 16.4983 5.17237C16.5063 5.15651 16.5138 5.14048 16.521 5.12427C16.5282 5.10805 16.535 5.09167 16.5414 5.07512C16.5479 5.05858 16.5538 5.0419 16.5595 5.02507C16.5651 5.00823 16.5703 4.99128 16.5751 4.97419C16.5799 4.95712 16.5843 4.93995 16.5883 4.92264C16.5922 4.90536 16.5958 4.88798 16.5989 4.87051C16.6021 4.85305 16.6048 4.83553 16.6071 4.81794C16.6094 4.80036 16.6113 4.78272 16.6128 4.76505C16.6142 4.74737 16.6153 4.72966 16.6159 4.71192C16.6165 4.69419 16.6167 4.67645 16.6165 4.65872C16.6162 4.64098 16.6156 4.62327 16.6145 4.60555C16.6134 4.58786 16.6119 4.57018 16.61 4.55253C16.6081 4.53491 16.6058 4.51733 16.603 4.49979C16.6002 4.48227 16.597 4.46483 16.5934 4.44746C16.5898 4.43009 16.5858 4.41281 16.5814 4.39562C16.577 4.37844 16.5721 4.36138 16.5669 4.34443C16.5617 4.32749 16.556 4.31068 16.55 4.294C16.5439 4.27732 16.5375 4.2608 16.5306 4.24443C16.5238 4.22805 16.5166 4.21185 16.509 4.19584C16.5013 4.17981 16.4934 4.16397 16.485 4.14834C16.4766 4.13268 16.4679 4.11725 16.4588 4.10203C16.4497 4.0868 16.4402 4.0718 16.4304 4.05703C16.4205 4.04226 16.4104 4.02774 16.3998 4.01345C16.3893 3.99917 16.3785 3.98514 16.3673 3.97138C16.3561 3.95762 16.3446 3.94413 16.3327 3.93091C16.3209 3.9177 16.3088 3.90477 16.2963 3.89214C16.2838 3.8795 16.2711 3.86717 16.258 3.85515C16.245 3.84313 16.2317 3.83143 16.2181 3.82003C16.2045 3.80865 16.1906 3.7976 16.1765 3.78687C16.1623 3.77615 16.1479 3.76578 16.1333 3.75574C16.1187 3.74571 16.1038 3.73604 16.0887 3.72671C16.0736 3.71738 16.0583 3.70842 16.0428 3.69984C16.0273 3.69125 16.0116 3.68303 15.9957 3.67519C15.9797 3.66735 15.9636 3.6599 15.9474 3.65283C15.9311 3.64576 15.9147 3.63908 15.8981 3.63281C15.8815 3.62652 15.8648 3.62063 15.8479 3.61515C15.831 3.60967 15.814 3.60459 15.7969 3.59992C15.7798 3.59526 15.7626 3.591 15.7453 3.58714C15.7279 3.5833 15.7105 3.57987 15.693 3.57685C15.6755 3.57384 15.658 3.57125 15.6404 3.56908C15.6228 3.5669 15.6052 3.56515 15.5875 3.56382C15.5698 3.5625 15.5521 3.56159 15.5343 3.56111C15.5166 3.56063 15.4988 3.56057 15.4811 3.56093C15.4634 3.5613 15.4457 3.56209 15.428 3.5633C15.4103 3.56452 15.3926 3.56616 15.375 3.56822C15.3574 3.57027 15.3398 3.57275 15.3223 3.57564C15.3048 3.57854 15.2874 3.58186 15.27 3.5856C15.2527 3.58932 15.2354 3.59346 15.2183 3.59802C15.2012 3.60258 15.1841 3.60755 15.1672 3.61293C15.1503 3.61829 15.1335 3.62406 15.1169 3.63025C15.1003 3.63642 15.0838 3.64299 15.0675 3.64996C15.0512 3.65691 15.035 3.66425 15.0191 3.67199C15.0031 3.67972 14.9873 3.68783 14.9717 3.69632C14.9562 3.70481 14.9408 3.71367 14.9256 3.72291C14.9105 3.73212 14.8956 3.7417 14.8809 3.75164C14.8662 3.76158 14.8517 3.77187 14.8375 3.7825C14.8363 3.76675 14.8356 3.75099 14.8355 3.73521C14.8354 3.71942 14.8359 3.70364 14.8369 3.68789C14.8379 3.67213 14.8394 3.65643 14.8415 3.64078C14.8436 3.62514 14.8462 3.60959 14.8494 3.59412C14.8525 3.57865 14.8562 3.56331 14.8605 3.5481C14.8647 3.53289 14.8695 3.51785 14.8747 3.50298C14.88 3.4881 14.8858 3.47343 14.8921 3.45896C14.8984 3.44448 14.9052 3.43024 14.9125 3.41625C14.9925 3.27625 15.2513 3.135 15.6538 3.13625L15.655 3.13625ZM15.6038 5.24624L9.59126 10.565C9.58519 10.5704 9.579 10.5756 9.57269 10.5806C9.56636 10.5857 9.55991 10.5906 9.55335 10.5954C9.54679 10.6001 9.54012 10.6047 9.53333 10.6091C9.52653 10.6135 9.51964 10.6178 9.51265 10.6219C9.50565 10.626 9.49856 10.6299 9.49138 10.6336C9.48419 10.6374 9.47691 10.6409 9.46954 10.6443C9.46219 10.6477 9.45474 10.6508 9.44722 10.6539C9.4397 10.6569 9.43211 10.6597 9.42444 10.6624C9.41679 10.665 9.40907 10.6674 9.4013 10.6697C9.39351 10.672 9.38568 10.674 9.3778 10.6759C9.36993 10.6778 9.362 10.6795 9.35403 10.6809C9.34608 10.6824 9.33808 10.6837 9.33005 10.6848C9.32203 10.6859 9.31398 10.6868 9.30591 10.6875C9.29784 10.6882 9.28975 10.6887 9.28165 10.689C9.27356 10.6893 9.26547 10.6894 9.25736 10.6893C9.24926 10.6892 9.24116 10.689 9.23308 10.6884C9.22499 10.688 9.21692 10.6873 9.20888 10.6864C9.20082 10.6855 9.19279 10.6844 9.1848 10.6831C9.1768 10.6818 9.16884 10.6804 9.16091 10.6787C9.15298 10.677 9.1451 10.6752 9.13728 10.6731C9.12944 10.671 9.12166 10.6688 9.11394 10.6663C9.1062 10.6639 9.09854 10.6613 9.09095 10.6584C9.08336 10.6556 9.07584 10.6526 9.06839 10.6494C9.06094 10.6463 9.05357 10.6429 9.04628 10.6393C9.039 10.6358 9.03181 10.6321 9.02472 10.6282C9.01762 10.6243 9.01062 10.6202 9.00372 10.6159C8.99682 10.6117 8.99003 10.6073 8.98335 10.6027C8.97666 10.5981 8.97009 10.5934 8.96364 10.5885C8.9572 10.5836 8.95087 10.5785 8.94466 10.5733C8.93846 10.5681 8.93239 10.5627 8.92645 10.5572C8.92052 10.5517 8.91472 10.5461 8.90905 10.5403C8.90339 10.5345 8.89787 10.5286 8.89251 10.5225C8.88715 10.5164 8.88193 10.5102 8.87687 10.5039C8.87179 10.4976 8.86688 10.4911 8.86214 10.4846C8.85739 10.478 8.8528 10.4714 8.84837 10.4646C8.84396 10.4578 8.83971 10.4509 8.83562 10.4439C8.83153 10.4369 8.82762 10.4298 8.8239 10.4226C8.82016 10.4154 8.8166 10.4082 8.81321 10.4008C8.80984 10.3934 8.80664 10.386 8.80362 10.3784C8.80062 10.3709 8.79779 10.3633 8.79515 10.3557C8.79252 10.348 8.79007 10.3403 8.7878 10.3325C8.78554 10.3248 8.78347 10.3169 8.78159 10.309C8.77972 10.3012 8.77804 10.2932 8.77655 10.2853C8.77507 10.2773 8.77377 10.2693 8.77267 10.2613C8.77157 10.2533 8.77068 10.2452 8.76999 10.2371C8.76929 10.2291 8.76879 10.221 8.76849 10.2129C8.76817 10.2048 8.76807 10.1967 8.76817 10.1886C8.76827 10.1805 8.76856 10.1724 8.76905 10.1643C8.76954 10.1562 8.77022 10.1482 8.7711 10.1401C8.772 10.1321 8.77309 10.124 8.77437 10.116C8.77565 10.108 8.77713 10.1001 8.7788 10.0921C8.78048 10.0842 8.78235 10.0763 8.7844 10.0685C8.78646 10.0607 8.78871 10.0529 8.79116 10.0452C8.7936 10.0374 8.79622 10.0298 8.79903 10.0222C8.80186 10.0146 8.80487 10.0071 8.80806 9.99962C8.81123 9.99218 8.8146 9.98481 8.81816 9.97751C8.82171 9.97024 8.82543 9.96305 8.82933 9.95595C8.83323 9.94885 8.83731 9.94186 8.84155 9.93495C8.8458 9.92805 8.85021 9.92126 8.85479 9.91458C8.85937 9.9079 8.86411 9.90132 8.86901 9.89487C8.87391 9.88843 8.87896 9.8821 8.88417 9.87589C8.88939 9.86969 8.89476 9.86362 8.90026 9.85768C8.90577 9.85175 8.91142 9.84595 8.91722 9.84028C8.92301 9.83462 8.92894 9.82911 8.93501 9.82374L15.175 4.3025C15.1811 4.29712 15.1873 4.2919 15.1936 4.28683C15.2 4.28175 15.2064 4.27684 15.213 4.27209C15.2196 4.26733 15.2262 4.26275 15.233 4.25834C15.2398 4.25391 15.2467 4.24965 15.2537 4.24556C15.2607 4.24147 15.2679 4.23756 15.2751 4.23382C15.2822 4.23009 15.2895 4.22653 15.2969 4.22316C15.3043 4.21977 15.3117 4.21658 15.3193 4.21357C15.3268 4.21055 15.3344 4.20772 15.3421 4.20509C15.3497 4.20245 15.3575 4.2 15.3653 4.19773C15.373 4.19548 15.3809 4.19341 15.3888 4.19154C15.3967 4.18966 15.4046 4.18798 15.4126 4.1865C15.4206 4.18502 15.4286 4.18373 15.4366 4.18263C15.4446 4.18154 15.4527 4.18064 15.4608 4.17994C15.4689 4.17925 15.477 4.17875 15.4851 4.17845C15.4932 4.17815 15.5013 4.17805 15.5094 4.17816C15.5175 4.17825 15.5256 4.17854 15.5337 4.17904C15.5418 4.17955 15.5499 4.18024 15.5579 4.18113C15.566 4.18203 15.574 4.18312 15.5821 4.18441C15.5901 4.1857 15.598 4.18718 15.606 4.18886C15.6139 4.19054 15.6218 4.19242 15.6296 4.19449C15.6375 4.19654 15.6453 4.1988 15.653 4.20127C15.6607 4.20371 15.6684 4.20635 15.676 4.20918C15.6836 4.212 15.6911 4.21501 15.6986 4.2182C15.706 4.2214 15.7134 4.22478 15.7207 4.22834C15.728 4.2319 15.7352 4.23564 15.7423 4.23955C15.7494 4.24345 15.7564 4.24753 15.7633 4.25179C15.7702 4.25605 15.777 4.26048 15.7837 4.26507C15.7904 4.26966 15.797 4.2744 15.8034 4.27931C15.8098 4.28423 15.8162 4.2893 15.8224 4.29453C15.8286 4.29975 15.8347 4.30512 15.8406 4.31064C15.8465 4.31616 15.8524 4.32182 15.858 4.32763C15.8637 4.33344 15.8692 4.33938 15.8746 4.34546C15.8799 4.35154 15.8852 4.35775 15.8902 4.36408C15.8953 4.37041 15.9002 4.37686 15.905 4.38343C15.9097 4.39001 15.9143 4.3967 15.9187 4.40351C15.9231 4.41031 15.9274 4.41721 15.9315 4.42421C15.9355 4.43123 15.9395 4.43834 15.9432 4.44554C15.9469 4.45274 15.9505 4.46003 15.9539 4.4674C15.9572 4.47477 15.9604 4.48223 15.9634 4.48975C15.9664 4.49729 15.9693 4.50489 15.9719 4.51257C15.9745 4.52024 15.977 4.52798 15.9792 4.53575C15.9815 4.54354 15.9836 4.55139 15.9854 4.55928C15.9873 4.56718 15.989 4.5751 15.9905 4.58307C15.9919 4.59106 15.9932 4.59907 15.9943 4.6071C15.9954 4.61514 15.9963 4.62319 15.997 4.63128C15.9977 4.63936 15.9982 4.64747 15.9985 4.65555C15.9987 4.66368 15.9988 4.67178 15.9987 4.67989C15.9986 4.68801 15.9983 4.6961 15.9979 4.70419C15.9973 4.71229 15.9966 4.72038 15.9958 4.72843C15.9949 4.73649 15.9937 4.74452 15.9925 4.75253C15.9912 4.76053 15.9897 4.76852 15.988 4.77645C15.9863 4.78438 15.9844 4.79227 15.9824 4.80011C15.9803 4.80796 15.978 4.81575 15.9756 4.82346C15.9731 4.8312 15.9705 4.83887 15.9677 4.84647C15.9648 4.85409 15.9618 4.86161 15.9586 4.86905C15.9554 4.87651 15.952 4.88389 15.9485 4.89116C15.9449 4.89846 15.9412 4.90565 15.9372 4.91274C15.9333 4.91985 15.9292 4.92686 15.925 4.93376C15.9207 4.94067 15.9163 4.94747 15.9117 4.95415C15.9071 4.96083 15.9024 4.96741 15.8974 4.97386C15.8925 4.9803 15.8875 4.98663 15.8822 4.99284C15.877 4.99905 15.8716 5.00511 15.8661 5.01104C15.8606 5.01698 15.8549 5.02278 15.8491 5.02844C15.8433 5.03411 15.8373 5.03964 15.8313 5.04499L15.6038 5.24499L15.6038 5.24624Z" fill="#303133"/>
  <path d="M14.9125 3.41751C14.9925 3.27751 15.2513 3.13501 15.6538 3.13751C16.0375 3.13751 16.4413 3.27501 16.7088 3.54127C16.9788 3.81126 17.1313 4.22626 17.155 4.62626C17.1675 4.82376 17.1463 5.00376 17.1013 5.14627C17.0982 5.1592 17.0947 5.17199 17.0906 5.18467C17.0866 5.19733 17.0821 5.20981 17.0772 5.22215C17.0722 5.23445 17.0668 5.24658 17.0609 5.2585C17.055 5.27041 17.0487 5.28207 17.0419 5.2935C17.0351 5.30492 17.0279 5.31608 17.0203 5.32697C17.0127 5.33785 17.0047 5.34844 16.9963 5.35871C16.9878 5.36899 16.979 5.37893 16.9698 5.38854C16.9607 5.39815 16.9511 5.40738 16.9413 5.41627C16.7288 5.57502 16.5288 5.65127 16.335 5.64252C16.1438 5.63502 15.9013 5.54252 15.6038 5.24627L9.59 10.5663C9.58391 10.5716 9.57771 10.5768 9.57138 10.5819C9.56505 10.587 9.5586 10.5919 9.55203 10.5966C9.54546 10.6013 9.53878 10.6059 9.53199 10.6104C9.52519 10.6148 9.51829 10.619 9.51128 10.6231C9.50428 10.6271 9.49718 10.6311 9.48998 10.6348C9.48278 10.6385 9.47549 10.6421 9.46812 10.6455C9.46075 10.6488 9.4533 10.652 9.44578 10.655C9.43825 10.658 9.43065 10.6608 9.42298 10.6635C9.41532 10.6661 9.40759 10.6685 9.3998 10.6708C9.39201 10.673 9.38418 10.6751 9.3763 10.677C9.36841 10.6788 9.36048 10.6805 9.35251 10.682C9.34455 10.6835 9.33655 10.6847 9.32851 10.6858C9.32048 10.6869 9.31242 10.6878 9.30435 10.6885C9.29628 10.6892 9.28819 10.6896 9.28007 10.69C9.27198 10.6902 9.26388 10.6903 9.25578 10.6902C9.24768 10.6901 9.23958 10.6898 9.23148 10.6893C9.22339 10.6888 9.21532 10.6881 9.20726 10.6872C9.19921 10.6863 9.19119 10.6852 9.18318 10.6839C9.17518 10.6826 9.16722 10.6811 9.15929 10.6794C9.15136 10.6778 9.14348 10.6759 9.13564 10.6738C9.12782 10.6717 9.12003 10.6695 9.1123 10.667C9.10458 10.6646 9.09692 10.6619 9.08933 10.6591C9.08174 10.6563 9.07422 10.6532 9.06677 10.65C9.05933 10.6468 9.05196 10.6434 9.04468 10.6399C9.03741 10.6363 9.03022 10.6326 9.02312 10.6287C9.01602 10.6247 9.00903 10.6207 9.00212 10.6164C8.99522 10.6121 8.98844 10.6077 8.98177 10.6031C8.97509 10.5985 8.96853 10.5938 8.96209 10.5889C8.95564 10.5839 8.94932 10.5789 8.94312 10.5737C8.93692 10.5684 8.93085 10.563 8.92492 10.5575C8.91899 10.552 8.91321 10.5463 8.90755 10.5405C8.90189 10.5347 8.89638 10.5288 8.89103 10.5227C8.88567 10.5166 8.88045 10.5104 8.87539 10.5041C8.87033 10.4978 8.86544 10.4913 8.8607 10.4847C8.85596 10.4781 8.85138 10.4715 8.84697 10.4647C8.84255 10.4579 8.83832 10.451 8.83425 10.444C8.83018 10.437 8.82628 10.4298 8.82255 10.4227C8.81883 10.4155 8.81528 10.4082 8.81191 10.4008C8.80855 10.3934 8.80537 10.386 8.80238 10.3784C8.79937 10.3709 8.79655 10.3633 8.79392 10.3556C8.7913 10.348 8.78887 10.3402 8.78662 10.3325C8.78438 10.3247 8.78233 10.3168 8.78046 10.3089C8.7786 10.3011 8.77693 10.2931 8.77544 10.2852C8.77397 10.2772 8.7727 10.2692 8.77162 10.2612C8.77055 10.2531 8.76967 10.2451 8.76898 10.237C8.7683 10.2289 8.76782 10.2208 8.76754 10.2127C8.76723 10.2046 8.76714 10.1965 8.76726 10.1884C8.76738 10.1803 8.76769 10.1722 8.7682 10.1641C8.76871 10.156 8.76941 10.148 8.77031 10.1399C8.77122 10.1319 8.77233 10.1238 8.77363 10.1158C8.77492 10.1078 8.77641 10.0999 8.7781 10.092C8.77979 10.084 8.78168 10.0761 8.78376 10.0683C8.78584 10.0604 8.7881 10.0527 8.79056 10.045C8.79302 10.0372 8.79567 10.0296 8.79851 10.022C8.80135 10.0144 8.80437 10.0069 8.80757 9.99943C8.81078 9.99199 8.81416 9.98463 8.81773 9.97736C8.8213 9.97008 8.82504 9.96289 8.82896 9.9558C8.83288 9.94869 8.83697 9.9417 8.84123 9.93483C8.8455 9.92791 8.84993 9.92113 8.85453 9.91445C8.85912 9.90777 8.86388 9.90123 8.8688 9.89479C8.87371 9.88834 8.87878 9.88201 8.88402 9.87584C8.88924 9.86963 8.89462 9.86357 8.90015 9.85766C8.90567 9.85172 8.91134 9.84592 8.91716 9.84027C8.92297 9.83463 8.92892 9.82912 8.935 9.82377L14.7825 4.65126L15.0213 4.43876C14.9865 4.36707 14.9557 4.29374 14.9288 4.21876C14.8025 3.86376 14.8138 3.58876 14.9125 3.41751Z" fill="#95D475"/>
  <path d="M17.34 5.36251C17.7275 4.48751 16.765 2.56876 15.1312 2.90501L18.3975 2.23126L17.34 5.36126L17.34 5.36251Z" fill="#95D475"/>
  <path d="M18.6325 2.025C18.6371 2.03011 18.6414 2.03538 18.6456 2.0408C18.6498 2.0462 18.6539 2.05174 18.6577 2.05742C18.6615 2.06309 18.6652 2.06889 18.6687 2.0748C18.6721 2.08071 18.6754 2.08673 18.6784 2.09287C18.6815 2.09899 18.6844 2.1052 18.687 2.11152C18.6897 2.11783 18.6921 2.12423 18.6943 2.13072C18.6966 2.13719 18.6986 2.14373 18.7004 2.15035C18.7022 2.15696 18.7038 2.16362 18.7051 2.17033C18.7065 2.17705 18.7077 2.1838 18.7086 2.19058C18.7095 2.19738 18.7102 2.20419 18.7107 2.21103C18.7111 2.21787 18.7114 2.22471 18.7114 2.23156C18.7114 2.23841 18.7112 2.24525 18.7108 2.25209C18.7104 2.25892 18.7097 2.26574 18.7088 2.27253C18.708 2.27933 18.7069 2.28609 18.7055 2.29281C18.7042 2.29953 18.7027 2.3062 18.7009 2.31283C18.6992 2.31944 18.6972 2.326 18.695 2.3325L17.6925 5.295C17.6757 5.361 17.6537 5.42516 17.6262 5.4875C17.6243 5.49217 17.6223 5.4968 17.6202 5.50139C17.618 5.50596 17.6158 5.51049 17.6134 5.51496C17.6111 5.51941 17.6086 5.52383 17.606 5.52818C17.6034 5.53252 17.6008 5.53682 17.598 5.54106C17.5952 5.54527 17.5923 5.54942 17.5893 5.5535C17.5864 5.55756 17.5833 5.56156 17.5801 5.56551C17.5769 5.56943 17.5737 5.57328 17.5703 5.57707C17.5669 5.58084 17.5635 5.58453 17.5599 5.58815C17.5564 5.59174 17.5527 5.59525 17.549 5.59869C17.5453 5.60211 17.5415 5.60545 17.5376 5.60869C17.5338 5.61193 17.5298 5.61508 17.5258 5.61815C17.5218 5.62119 17.5177 5.62414 17.5135 5.62699C17.5093 5.62984 17.5051 5.6326 17.5008 5.63525C17.4965 5.63789 17.4921 5.64043 17.4877 5.64287C17.4832 5.64529 17.4788 5.64764 17.4742 5.64986C17.4697 5.65207 17.4651 5.65418 17.4604 5.65617C17.4558 5.65816 17.4511 5.66006 17.4463 5.66182C17.4416 5.66358 17.4369 5.66524 17.432 5.66678C17.4272 5.6683 17.4224 5.66973 17.4175 5.67104C17.4126 5.67233 17.4077 5.67352 17.4027 5.67459C17.3978 5.67565 17.3928 5.67658 17.3878 5.6774C17.3829 5.67822 17.3779 5.67893 17.3728 5.67951C17.3678 5.68008 17.3628 5.68053 17.3577 5.68088C17.3527 5.68119 17.3476 5.68141 17.3426 5.68151C17.3375 5.68158 17.3325 5.68156 17.3274 5.68141C17.3224 5.68125 17.3173 5.68096 17.3123 5.68057C17.3072 5.68018 17.3022 5.67965 17.2972 5.679C17.2922 5.67836 17.2872 5.6776 17.2822 5.6767C17.2773 5.6758 17.2723 5.67481 17.2674 5.67369C17.2624 5.67256 17.2576 5.67131 17.2527 5.66994C17.2478 5.66858 17.243 5.66709 17.2382 5.66551C17.2334 5.66391 17.2287 5.66219 17.2239 5.66035C17.2192 5.65852 17.2146 5.65658 17.2099 5.65453C17.2053 5.65246 17.2008 5.65029 17.1962 5.64803C17.1917 5.64574 17.1873 5.64336 17.1829 5.64086C17.1785 5.63836 17.1741 5.63576 17.1699 5.63307C17.1656 5.63035 17.1614 5.62754 17.1573 5.62465C17.1531 5.62174 17.1491 5.61873 17.1451 5.61563C17.1411 5.61252 17.1372 5.60932 17.1333 5.60604C17.1295 5.60272 17.1258 5.59934 17.1221 5.59586C17.1184 5.59238 17.1148 5.58881 17.1113 5.58518C17.1079 5.58152 17.1045 5.57779 17.1011 5.57397C17.0978 5.57014 17.0946 5.56625 17.0915 5.56229C17.0883 5.5583 17.0853 5.55426 17.0824 5.55016C17.0795 5.54602 17.0766 5.54184 17.0739 5.53758C17.0712 5.53332 17.0686 5.52901 17.066 5.52463C17.0635 5.52024 17.0611 5.51578 17.0588 5.51129C17.0565 5.5068 17.0543 5.50225 17.0522 5.49764C17.0502 5.49303 17.0482 5.48836 17.0463 5.48367C17.0445 5.47897 17.0428 5.47422 17.0411 5.46943C17.0395 5.46465 17.038 5.45983 17.0366 5.45496C17.0352 5.4501 17.0339 5.44522 17.0328 5.44029C17.0316 5.43537 17.0306 5.43041 17.0297 5.42545C17.0288 5.42047 17.028 5.41549 17.0273 5.41049C17.0267 5.40547 17.0261 5.40045 17.0257 5.39541C17.0253 5.39037 17.025 5.38531 17.0248 5.38027C17.0246 5.37522 17.0245 5.37016 17.0246 5.36512C17.0247 5.36006 17.0248 5.355 17.0252 5.34996C17.0255 5.34492 17.0259 5.33988 17.0264 5.33486C17.027 5.32983 17.0277 5.32483 17.0285 5.31985C17.0293 5.31485 17.0302 5.30986 17.0312 5.30492C17.0323 5.29996 17.0334 5.29506 17.0347 5.29018C17.036 5.28527 17.0374 5.28041 17.0389 5.27561C17.0404 5.27076 17.042 5.26598 17.0438 5.26125L17.0912 5.12125C17.0992 5.08031 17.105 5.03906 17.1086 4.99752C17.1122 4.95598 17.1137 4.91436 17.1129 4.87266C17.1122 4.83096 17.1093 4.78942 17.1042 4.74803C17.0991 4.70664 17.0919 4.66563 17.0825 4.625C17.0751 4.5907 17.0667 4.55664 17.0575 4.52279C17.0483 4.48893 17.0382 4.45533 17.0272 4.42201C17.0162 4.38867 17.0044 4.35565 16.9917 4.32295C16.979 4.29022 16.9655 4.25785 16.9511 4.22586C16.9367 4.19385 16.9215 4.16223 16.9055 4.13102C16.8895 4.09981 16.8726 4.06902 16.855 4.03869C16.8374 4.00834 16.819 3.97848 16.7998 3.9491C16.7806 3.91971 16.7607 3.89084 16.74 3.8625C16.3963 3.3875 15.86 3.07375 15.195 3.21C15.19 3.21102 15.185 3.21193 15.1799 3.21271C15.1749 3.21349 15.1698 3.21415 15.1647 3.21468C15.1596 3.21522 15.1545 3.21563 15.1494 3.21591C15.1443 3.2162 15.1392 3.21636 15.1341 3.2164C15.1289 3.21643 15.1238 3.21634 15.1187 3.21613C15.1136 3.21591 15.1085 3.21556 15.1034 3.21509C15.0983 3.21462 15.0932 3.21403 15.0882 3.21332C15.0831 3.2126 15.0781 3.21176 15.073 3.2108C15.068 3.20982 15.063 3.20873 15.0581 3.20751C15.0531 3.20632 15.0481 3.20499 15.0432 3.20353C15.0383 3.20207 15.0335 3.2005 15.0286 3.1988C15.0238 3.19712 15.019 3.19532 15.0143 3.19339C15.0095 3.19147 15.0049 3.18942 15.0002 3.18726C14.9956 3.1851 14.991 3.18283 14.9865 3.18044C14.9819 3.17808 14.9775 3.17559 14.9731 3.17298C14.9687 3.17038 14.9643 3.16767 14.96 3.16486C14.9558 3.16205 14.9516 3.15913 14.9474 3.15611C14.9433 3.15309 14.9393 3.14997 14.9353 3.14675C14.9313 3.14354 14.9274 3.14022 14.9236 3.13681C14.9198 3.1334 14.9161 3.1299 14.9124 3.1263C14.9088 3.12271 14.9052 3.11903 14.9018 3.11527C14.8983 3.11149 14.8949 3.10764 14.8917 3.10371C14.8884 3.09977 14.8852 3.09576 14.8822 3.09168C14.8791 3.08759 14.8761 3.08343 14.8732 3.07919C14.8704 3.07496 14.8676 3.07066 14.8649 3.06628C14.8623 3.06192 14.8597 3.0575 14.8573 3.053C14.8548 3.0485 14.8525 3.04394 14.8503 3.03933C14.8481 3.03472 14.846 3.03006 14.844 3.02535C14.842 3.02063 14.8401 3.01587 14.8383 3.01107C14.8366 3.00626 14.835 3.00142 14.8334 2.99654C14.8319 2.99166 14.8305 2.98674 14.8292 2.98179C14.828 2.97683 14.8268 2.97184 14.8258 2.96683C14.8247 2.96183 14.8238 2.9568 14.8231 2.95173C14.8223 2.94668 14.8216 2.94161 14.8211 2.93652C14.8205 2.93144 14.8201 2.92634 14.8198 2.92123C14.8195 2.91612 14.8194 2.91101 14.8193 2.90589C14.8193 2.90078 14.8194 2.89567 14.8196 2.89056C14.8198 2.88544 14.8202 2.88034 14.8206 2.87525C14.8211 2.87016 14.8217 2.86508 14.8224 2.86001C14.8231 2.85495 14.824 2.8499 14.8249 2.84488C14.8259 2.83985 14.827 2.83485 14.8282 2.82988C14.8294 2.8249 14.8307 2.81997 14.8322 2.81507C14.8336 2.81016 14.8352 2.80529 14.8369 2.80046C14.8386 2.79563 14.8404 2.79085 14.8423 2.78611C14.8442 2.78137 14.8463 2.77668 14.8484 2.77205C14.8506 2.7674 14.8528 2.76281 14.8552 2.75828C14.8576 2.75376 14.8601 2.74929 14.8627 2.74488C14.8653 2.74048 14.868 2.73614 14.8708 2.73187C14.8736 2.72759 14.8765 2.72338 14.8795 2.71925C14.8826 2.71512 14.8857 2.71107 14.8889 2.70709C14.8921 2.70311 14.8954 2.69922 14.8988 2.69541C14.9022 2.69159 14.9057 2.68786 14.9093 2.68421C14.9129 2.68057 14.9166 2.67701 14.9204 2.67355C14.9241 2.67009 14.928 2.66672 14.9319 2.66345C14.9358 2.66017 14.9398 2.65699 14.9439 2.65392C14.948 2.65085 14.9522 2.64787 14.9564 2.645C14.9606 2.64212 14.9649 2.63935 14.9693 2.63669C14.9737 2.63404 14.9781 2.63149 14.9826 2.62904C14.9871 2.62659 14.9917 2.62425 14.9963 2.62203C15.0009 2.61981 15.0055 2.61771 15.0102 2.61572C15.015 2.61373 15.0197 2.61185 15.0245 2.61009C15.0293 2.60834 15.0342 2.60669 15.039 2.60517C15.0439 2.60365 15.0489 2.60225 15.0538 2.60097C15.0588 2.59968 15.0637 2.59852 15.0688 2.5975L18.335 1.92625C18.3417 1.92485 18.3485 1.92368 18.3552 1.92273C18.362 1.92178 18.3688 1.92106 18.3756 1.92055C18.3825 1.92005 18.3893 1.91977 18.3961 1.91972C18.403 1.91966 18.4098 1.91983 18.4166 1.92023C18.4235 1.92063 18.4303 1.92124 18.4371 1.92209C18.4439 1.92293 18.4506 1.92399 18.4573 1.92528C18.4641 1.92657 18.4707 1.92807 18.4773 1.9298C18.484 1.93152 18.4905 1.93346 18.497 1.93562C18.5035 1.93778 18.5099 1.94014 18.5163 1.94272C18.5226 1.9453 18.5289 1.94808 18.535 1.95107C18.5412 1.95405 18.5472 1.95723 18.5532 1.96062C18.5591 1.96401 18.565 1.96759 18.5707 1.97136C18.5764 1.97513 18.582 1.97908 18.5874 1.98322C18.5929 1.98735 18.5982 1.99166 18.6033 1.99615C18.6085 2.00063 18.6135 2.00528 18.6184 2.01009C18.6233 2.01491 18.628 2.01988 18.6325 2.025ZM16.65 2.91125C16.8862 3.07125 17.0863 3.27375 17.2463 3.49625C17.3438 3.63 17.4275 3.7725 17.4975 3.91875L17.9275 2.6475L16.65 2.91L16.65 2.91125Z" fill="#303133"/>
  <path d="M6.84004 3.70375C6.8571 3.69745 6.87431 3.69157 6.89167 3.6861C6.90902 3.68063 6.9265 3.67559 6.94409 3.67098C6.96169 3.66637 6.97939 3.6622 6.99719 3.65846C7.01499 3.65472 7.03288 3.65142 7.05085 3.64856C7.06881 3.64571 7.08683 3.64329 7.10491 3.64131C7.12299 3.63933 7.14112 3.6378 7.15928 3.6367C7.17743 3.63562 7.1956 3.63498 7.21379 3.63477C7.23198 3.63457 7.25017 3.63483 7.26835 3.63553C7.28654 3.63622 7.30469 3.63736 7.3228 3.63895C7.34092 3.64054 7.359 3.64256 7.37702 3.64502C7.39504 3.6475 7.41299 3.65041 7.43088 3.65377C7.44876 3.65712 7.46655 3.66091 7.48424 3.66514C7.50193 3.66936 7.5195 3.67401 7.53698 3.6791C7.55444 3.6842 7.57177 3.68971 7.58897 3.69565C7.60616 3.70158 7.6232 3.70794 7.64008 3.71471C7.65697 3.72148 7.67368 3.72866 7.6902 3.73625C7.70674 3.74384 7.72307 3.75184 7.73921 3.76024C7.75535 3.76864 7.77128 3.77742 7.78698 3.78658C7.80268 3.79576 7.81816 3.80532 7.8334 3.81526C7.84864 3.82519 7.86363 3.83549 7.87837 3.84616C7.89309 3.85683 7.90755 3.86786 7.92174 3.87924C7.93594 3.89062 7.94984 3.90234 7.96346 3.9144C7.97708 3.92645 7.9904 3.93884 8.0034 3.95157C8.01641 3.96427 8.0291 3.97729 8.04147 3.99063C8.05385 4.00397 8.06589 4.01761 8.07758 4.03153C8.0893 4.04546 8.10065 4.05966 8.11164 4.07414C8.12266 4.08864 8.1333 4.10338 8.14357 4.11838C8.15387 4.13339 8.16377 4.14865 8.1733 4.16414C8.18285 4.17962 8.19201 4.19534 8.20076 4.21129C8.20953 4.22723 8.21789 4.24337 8.22586 4.25973C8.23383 4.27608 8.24141 4.29262 8.24855 4.30934C8.25572 4.32606 8.26246 4.34295 8.26879 4.36L10.2888 9.80875C10.2959 9.82597 10.3026 9.84338 10.3088 9.86092C10.3151 9.87849 10.3208 9.89619 10.3262 9.91402C10.3315 9.93187 10.3364 9.94986 10.3409 9.96795C10.3453 9.98603 10.3493 10.0042 10.3528 10.0225C10.3563 10.0408 10.3594 10.0592 10.362 10.0776C10.3646 10.0961 10.3668 10.1146 10.3684 10.1331C10.3701 10.1517 10.3713 10.1703 10.3721 10.1889C10.3728 10.2075 10.3731 10.2262 10.3729 10.2448C10.3727 10.2634 10.372 10.282 10.3709 10.3006C10.3698 10.3192 10.3682 10.3378 10.3661 10.3563C10.3641 10.3748 10.3615 10.3933 10.3586 10.4117C10.3556 10.4301 10.3521 10.4484 10.3482 10.4666C10.3443 10.4848 10.3399 10.5029 10.3351 10.5209C10.3303 10.5389 10.325 10.5568 10.3193 10.5745C10.3136 10.5922 10.3074 10.6098 10.3008 10.6272C10.2942 10.6446 10.2872 10.6619 10.2797 10.679C10.2723 10.696 10.2644 10.7129 10.2561 10.7296C10.2478 10.7463 10.239 10.7627 10.2299 10.7789C10.2208 10.7952 10.2112 10.8112 10.2013 10.8269C10.1913 10.8427 10.181 10.8582 10.1703 10.8734C10.1596 10.8887 10.1485 10.9036 10.137 10.9183C10.1255 10.933 10.1137 10.9474 10.1015 10.9614C10.0893 10.9755 10.0767 10.9893 10.0638 11.0028C10.051 11.0162 10.0378 11.0294 10.0242 11.0421C10.0106 11.0549 9.9968 11.0674 9.98262 11.0795C9.96844 11.0916 9.95398 11.1033 9.93922 11.1146C9.92445 11.126 9.90941 11.137 9.8941 11.1476C9.87879 11.1582 9.86322 11.1685 9.84738 11.1783C9.83156 11.1881 9.81551 11.1975 9.7992 11.2066C9.78291 11.2156 9.76639 11.2242 9.74963 11.2324C9.73291 11.2406 9.71598 11.2484 9.69885 11.2557C9.68174 11.263 9.66443 11.2699 9.64695 11.2764C9.62949 11.2829 9.61186 11.2889 9.59408 11.2945C9.57631 11.3001 9.55842 11.3052 9.54037 11.3099C9.52236 11.3146 9.50422 11.3188 9.48596 11.3226C9.46771 11.3264 9.44939 11.3297 9.43098 11.3326C9.41258 11.3354 9.3941 11.3378 9.37557 11.3397C9.35705 11.3417 9.33848 11.3431 9.31986 11.3441C9.30127 11.3451 9.28264 11.3457 9.264 11.3457C9.24537 11.3458 9.22676 11.3454 9.20814 11.3445C9.18953 11.3436 9.17096 11.3423 9.1524 11.3404C9.13387 11.3386 9.11539 11.3364 9.09695 11.3336C9.07852 11.3309 9.06018 11.3277 9.04189 11.324C9.02363 11.3204 9.00547 11.3163 8.9874 11.3117C8.96936 11.3071 8.95141 11.3021 8.93359 11.2966C8.91578 11.2912 8.89812 11.2852 8.88061 11.2789C8.86311 11.2725 8.84576 11.2657 8.82859 11.2585C8.81143 11.2512 8.79445 11.2436 8.77766 11.2355C8.76088 11.2274 8.7443 11.2189 8.72793 11.21C8.71158 11.2011 8.69547 11.1918 8.67957 11.182C8.66367 11.1723 8.64805 11.1622 8.63266 11.1517C8.61728 11.1411 8.60217 11.1303 8.58732 11.119C8.5725 11.1077 8.55797 11.0961 8.54371 11.0841C8.52945 11.0721 8.51553 11.0597 8.50189 11.047C8.48826 11.0343 8.47496 11.0213 8.46199 11.0079C8.44902 10.9945 8.43639 10.9808 8.4241 10.9668C8.41182 10.9528 8.39988 10.9385 8.38832 10.9239C8.37676 10.9093 8.36555 10.8944 8.35473 10.8792C8.34391 10.8641 8.33348 10.8486 8.32344 10.8329C8.3134 10.8172 8.30377 10.8013 8.29451 10.7851C8.28527 10.769 8.27645 10.7526 8.26801 10.7359C8.25961 10.7193 8.2516 10.7025 8.24402 10.6855C8.23645 10.6685 8.22932 10.6512 8.2226 10.6339C8.2159 10.6165 8.20963 10.5989 8.20379 10.5812L6.18379 5.1325C6.17749 5.11545 6.17161 5.09824 6.16614 5.08088C6.16067 5.06354 6.15563 5.04606 6.15102 5.02846C6.14641 5.01085 6.14224 4.99315 6.1385 4.97536C6.13476 4.95755 6.13146 4.93967 6.1286 4.9217C6.12575 4.90373 6.12333 4.88571 6.12135 4.86764C6.11937 4.84955 6.11784 4.83143 6.11674 4.81327C6.11566 4.79511 6.11502 4.77694 6.11481 4.75875C6.11461 4.74056 6.11487 4.72238 6.11557 4.7042C6.11626 4.68601 6.1174 4.66786 6.11899 4.64975C6.12058 4.63162 6.1226 4.61355 6.12506 4.59553C6.12754 4.57751 6.13046 4.55955 6.13381 4.54166C6.13716 4.52378 6.14095 4.506 6.14518 4.4883C6.1494 4.47062 6.15405 4.45304 6.15915 4.43557C6.16424 4.41811 6.16975 4.40078 6.17569 4.38358C6.18163 4.36639 6.18798 4.34935 6.19475 4.33246C6.20152 4.31558 6.2087 4.29887 6.21629 4.28235C6.22389 4.26581 6.23188 4.24948 6.24028 4.23334C6.24868 4.2172 6.25746 4.20127 6.26663 4.18557C6.27581 4.16987 6.28536 4.15439 6.2953 4.13914C6.30523 4.12391 6.31553 4.10892 6.3262 4.09418C6.33687 4.07946 6.3479 4.065 6.35928 4.0508C6.37066 4.03661 6.38238 4.0227 6.39444 4.00909C6.4065 3.99546 6.41888 3.98215 6.43161 3.96914C6.44431 3.95614 6.45734 3.94344 6.47067 3.93106C6.48402 3.91869 6.49765 3.90666 6.51157 3.89496C6.5255 3.88326 6.53971 3.8719 6.55419 3.8609C6.56868 3.84989 6.58342 3.83924 6.59842 3.82897C6.61344 3.81868 6.62869 3.80877 6.64419 3.79924C6.65967 3.7897 6.67538 3.78054 6.69133 3.77178C6.70727 3.76302 6.72342 3.75465 6.73977 3.74668C6.75612 3.73871 6.77266 3.73115 6.78938 3.72399C6.8061 3.71683 6.82299 3.71008 6.84004 3.70375Z" fill="#B9CEFF"/>
  <path d="M7.68248 4.57751L9.70248 10.025C9.70523 10.0325 9.70779 10.04 9.71015 10.0476C9.71253 10.0552 9.71472 10.0628 9.71671 10.0705C9.71873 10.0782 9.72054 10.086 9.72216 10.0938C9.72378 10.1016 9.72521 10.1094 9.72644 10.1173C9.72769 10.1251 9.72873 10.133 9.72958 10.1409C9.73044 10.1488 9.73109 10.1567 9.73156 10.1647C9.73203 10.1726 9.7323 10.1806 9.73236 10.1885C9.73244 10.1965 9.73232 10.2044 9.73201 10.2124C9.73169 10.2203 9.73119 10.2283 9.73048 10.2362C9.72978 10.2441 9.72888 10.252 9.72779 10.2599C9.72669 10.2678 9.72542 10.2757 9.72394 10.2835C9.72248 10.2913 9.72082 10.2991 9.71896 10.3068C9.7171 10.3145 9.71505 10.3222 9.71283 10.3299C9.7106 10.3375 9.70818 10.3451 9.70556 10.3526C9.70298 10.3601 9.70019 10.3676 9.69722 10.375C9.69425 10.3823 9.69111 10.3896 9.68777 10.3969C9.68445 10.4041 9.68095 10.4112 9.67728 10.4183C9.67361 10.4254 9.66976 10.4323 9.66574 10.4392C9.66173 10.4461 9.65755 10.4528 9.6532 10.4595C9.64886 10.4661 9.64435 10.4727 9.63968 10.4792C9.63501 10.4856 9.63019 10.4919 9.62521 10.4981C9.62025 10.5043 9.61511 10.5104 9.60982 10.5164C9.60455 10.5223 9.59914 10.5281 9.59357 10.5338C9.58802 10.5395 9.58232 10.5451 9.57648 10.5505C9.57066 10.5559 9.56468 10.5612 9.55859 10.5663C9.55252 10.5714 9.5463 10.5764 9.53996 10.5812C9.53363 10.586 9.52718 10.5907 9.52062 10.5952C9.51406 10.5997 9.5074 10.604 9.50062 10.6082C9.49386 10.6124 9.48699 10.6164 9.47999 10.6202C9.47304 10.624 9.46597 10.6277 9.45882 10.6312C9.45167 10.6347 9.44445 10.638 9.43712 10.6411C9.42982 10.6443 9.42244 10.6472 9.41498 10.65L9.59998 11.1475L9.41623 10.6513C9.40876 10.654 9.40123 10.6566 9.39363 10.6589C9.38605 10.6613 9.37839 10.6635 9.3707 10.6655C9.363 10.6675 9.35525 10.6693 9.34746 10.6709C9.33968 10.6726 9.33185 10.674 9.32398 10.6752C9.31613 10.6765 9.30824 10.6775 9.30033 10.6784C9.29242 10.6792 9.28449 10.6799 9.27654 10.6803C9.26861 10.6808 9.26066 10.6811 9.25269 10.6811C9.24474 10.6812 9.23679 10.6811 9.22884 10.6808C9.22089 10.6805 9.21294 10.68 9.20502 10.6793C9.1971 10.6786 9.18919 10.6777 9.1813 10.6766C9.17343 10.6755 9.16558 10.6742 9.15777 10.6727C9.14996 10.6712 9.14216 10.6696 9.13443 10.6677C9.12669 10.6659 9.11902 10.6638 9.11136 10.6616C9.10375 10.6594 9.09617 10.6569 9.08863 10.6543C9.08113 10.6517 9.07367 10.649 9.06628 10.646C9.0589 10.643 9.0516 10.6399 9.04437 10.6366C9.03714 10.6332 9.03001 10.6297 9.02294 10.6261C9.01589 10.6224 9.00892 10.6185 9.00205 10.6145C8.99517 10.6105 8.98841 10.6063 8.98175 10.602C8.97509 10.5976 8.96853 10.5931 8.96208 10.5885C8.95564 10.5838 8.94931 10.579 8.9431 10.574C8.93691 10.569 8.93083 10.5639 8.92486 10.5586C8.91892 10.5533 8.9131 10.5479 8.9074 10.5424C8.90171 10.5368 8.89617 10.5311 8.89074 10.5253C8.88533 10.5194 8.88005 10.5135 8.87494 10.5074C8.86982 10.5013 8.86486 10.4951 8.86003 10.4887C8.85523 10.4824 8.85056 10.476 8.84607 10.4694C8.84158 10.4628 8.83722 10.4562 8.83304 10.4494C8.82888 10.4426 8.82488 10.4358 8.82103 10.4288C8.8172 10.4218 8.81353 10.4148 8.81003 10.4076C8.80656 10.4005 8.80324 10.3932 8.80009 10.3859C8.79697 10.3786 8.794 10.3712 8.79123 10.3638L6.76998 4.91376C6.76659 4.90616 6.76341 4.8985 6.76041 4.89075C6.75741 4.88299 6.75462 4.87516 6.75203 4.86727C6.74944 4.85938 6.74705 4.85143 6.74486 4.8434C6.74268 4.83538 6.74069 4.82731 6.73891 4.81919C6.73714 4.81107 6.73557 4.80292 6.73422 4.79471C6.73286 4.78652 6.73172 4.77829 6.73078 4.77003C6.72984 4.76177 6.72912 4.7535 6.72861 4.7452C6.72809 4.73691 6.72779 4.72861 6.7277 4.7203C6.72762 4.71199 6.72774 4.70368 6.72807 4.69538C6.72841 4.68707 6.72896 4.67878 6.72973 4.67051C6.73048 4.66223 6.73145 4.65398 6.73264 4.64575C6.73382 4.63752 6.73522 4.62933 6.73682 4.62118C6.73842 4.61303 6.74023 4.60492 6.74225 4.59686C6.74425 4.58879 6.74647 4.58078 6.74891 4.57284C6.75133 4.56488 6.75395 4.557 6.75678 4.54919C6.7596 4.54137 6.76263 4.53364 6.76586 4.52598C6.76909 4.51833 6.77251 4.51075 6.77611 4.50327C6.77972 4.49578 6.78352 4.48839 6.78752 4.4811C6.7915 4.47381 6.79568 4.46663 6.80004 4.45956C6.80439 4.45247 6.80892 4.44551 6.81363 4.43866C6.81835 4.43182 6.82324 4.4251 6.8283 4.4185C6.83335 4.41191 6.83858 4.40545 6.84397 4.39911C6.84934 4.39278 6.85488 4.38659 6.86059 4.38055C6.86629 4.37451 6.87215 4.36862 6.87817 4.36288C6.88417 4.35714 6.89031 4.35154 6.8966 4.3461C6.90289 4.34067 6.90932 4.3354 6.91588 4.3303C6.92244 4.32521 6.92913 4.32028 6.93594 4.31551C6.94275 4.31075 6.94967 4.30616 6.95672 4.30176C6.96376 4.29736 6.97092 4.29314 6.97818 4.28909C6.98545 4.28505 6.99281 4.2812 7.00027 4.27755C7.00774 4.27387 7.01528 4.2704 7.02291 4.26714C7.03055 4.26385 7.03827 4.26077 7.04606 4.2579C7.05385 4.25501 7.06172 4.25232 7.06965 4.24985C7.07758 4.24736 7.08557 4.24508 7.09361 4.24301C7.10167 4.24094 7.10977 4.23907 7.11791 4.23741C7.12606 4.23575 7.13424 4.23431 7.14246 4.23307C7.15068 4.23184 7.15892 4.23081 7.16719 4.22999C7.17546 4.22917 7.18374 4.22856 7.19205 4.22817C7.20034 4.22777 7.20865 4.22758 7.21695 4.22762C7.22527 4.22765 7.23358 4.22789 7.24188 4.22835C7.25017 4.2288 7.25845 4.22947 7.26672 4.23034C7.27499 4.23122 7.28322 4.23232 7.29143 4.23362C7.29964 4.23492 7.30781 4.23643 7.31594 4.23815C7.32406 4.23986 7.33214 4.24178 7.34018 4.24391C7.34821 4.24605 7.35618 4.24839 7.3641 4.25092C7.37202 4.25346 7.37986 4.2562 7.38764 4.25915C7.39541 4.26208 7.4031 4.26521 7.4107 4.26854C7.41832 4.27188 7.42585 4.2754 7.43328 4.27913C7.44072 4.28285 7.44805 4.28676 7.45527 4.29085C7.46251 4.29493 7.46964 4.29921 7.47664 4.30368C7.48366 4.30813 7.49056 4.31276 7.49734 4.31756C7.50411 4.32238 7.51076 4.32736 7.51729 4.33251C7.52381 4.33766 7.5302 4.34298 7.53645 4.34844C7.5427 4.35393 7.5488 4.35956 7.55477 4.36536C7.56073 4.37114 7.56654 4.37708 7.57221 4.38317C7.57786 4.38925 7.58335 4.39547 7.58869 4.40184C7.59403 4.40821 7.59921 4.41471 7.60422 4.42135C7.60923 4.42798 7.61407 4.43473 7.61873 4.44161C7.62339 4.4485 7.62787 4.45549 7.63217 4.4626C7.63648 4.46971 7.6406 4.47693 7.64453 4.48424C7.64848 4.49156 7.65223 4.49898 7.65578 4.50649C7.65934 4.514 7.6627 4.5216 7.66586 4.52928C7.66904 4.53697 7.67201 4.54472 7.67477 4.55255C7.67754 4.56038 7.68011 4.56829 7.68248 4.57626L7.68248 4.57751ZM8.26998 4.36001C8.26388 4.34264 8.25736 4.32544 8.25041 4.3084C8.24345 4.29136 8.23609 4.2745 8.2283 4.25782C8.22052 4.24114 8.21232 4.22467 8.20371 4.2084C8.19511 4.19214 8.18613 4.17609 8.17671 4.16026C8.16732 4.14444 8.15753 4.12886 8.14734 4.11352C8.13718 4.0982 8.12664 4.08313 8.1157 4.06831C8.10478 4.05349 8.09349 4.03896 8.08185 4.02471C8.07021 4.01046 8.05823 3.9965 8.0459 3.98284C8.03356 3.96918 8.02089 3.95584 8.00789 3.94282C7.9949 3.92979 7.98158 3.91708 7.96795 3.90471C7.95432 3.89234 7.94039 3.88032 7.92617 3.86864C7.91194 3.85697 7.89743 3.84566 7.88266 3.83469C7.86786 3.82374 7.85281 3.81316 7.8375 3.80294C7.82219 3.79273 7.80663 3.7829 7.79084 3.77346C7.77503 3.76402 7.75901 3.75499 7.74277 3.74635C7.72652 3.73771 7.71007 3.72947 7.69342 3.72165C7.67675 3.71382 7.65991 3.70641 7.64289 3.69942C7.62586 3.69243 7.60867 3.68586 7.59133 3.67971C7.57397 3.67358 7.55648 3.66788 7.53885 3.6626C7.52122 3.65734 7.50346 3.65251 7.48559 3.64811C7.46772 3.64372 7.44975 3.63979 7.43168 3.6363C7.41361 3.63279 7.39546 3.62975 7.37725 3.62715C7.35903 3.62455 7.34075 3.62241 7.32242 3.62073C7.3041 3.61904 7.28575 3.6178 7.26736 3.61702C7.24897 3.61624 7.23057 3.61592 7.21217 3.61606C7.19377 3.61619 7.17538 3.61678 7.15701 3.61782C7.13863 3.61887 7.12029 3.62038 7.10199 3.62233C7.0837 3.62428 7.06546 3.62669 7.04727 3.62956C7.02909 3.63242 7.011 3.63574 6.99299 3.6395C6.97497 3.64326 6.95705 3.64747 6.93924 3.65212C6.92144 3.65676 6.90376 3.66185 6.88621 3.66737C6.86865 3.6729 6.85124 3.67886 6.83399 3.68524C6.81672 3.69163 6.79963 3.69845 6.78272 3.70569C6.76579 3.71293 6.74906 3.72059 6.73252 3.72866C6.71598 3.73672 6.69966 3.74519 6.68354 3.75407C6.66742 3.76295 6.65152 3.77223 6.63586 3.7819C6.6202 3.79156 6.60479 3.80161 6.58963 3.81206C6.57447 3.82249 6.55958 3.83329 6.54494 3.84446C6.53032 3.85563 6.51598 3.86716 6.50193 3.87905C6.48788 3.89092 6.47413 3.90315 6.46068 3.91571C6.44723 3.92827 6.43411 3.94117 6.42131 3.9544C6.4085 3.96762 6.39602 3.98114 6.38389 3.99497C6.37175 4.00881 6.35997 4.02294 6.34854 4.03735C6.3371 4.05178 6.32604 4.06648 6.31533 4.08145C6.30463 4.09641 6.2943 4.11164 6.28436 4.12714C6.27441 4.14262 6.26485 4.15833 6.25568 4.17428C6.2465 4.19025 6.23773 4.20643 6.22938 4.22282C6.221 4.23921 6.21305 4.2558 6.20551 4.27258C6.19797 4.28937 6.19085 4.30633 6.18414 4.32348C6.17745 4.34062 6.17118 4.35791 6.16533 4.37536C6.15949 4.39282 6.15408 4.41041 6.14912 4.42813C6.14415 4.44585 6.13962 4.46368 6.13553 4.48163C6.13145 4.49957 6.12782 4.5176 6.12463 4.53573C6.12144 4.55385 6.1187 4.57204 6.11641 4.5903C6.11412 4.60857 6.11229 4.62688 6.11092 4.64522C6.10954 4.66358 6.10861 4.68196 6.10815 4.70036C6.10768 4.71876 6.10767 4.73715 6.10813 4.75555C6.10857 4.77395 6.10947 4.79232 6.11082 4.81067C6.11219 4.82903 6.114 4.84734 6.11627 4.86561C6.11854 4.88387 6.12126 4.90206 6.12443 4.9202C6.1276 4.93833 6.13121 4.95636 6.13527 4.9743C6.13935 4.99226 6.14386 5.0101 6.14881 5.02782C6.15376 5.04554 6.15914 5.06313 6.16496 5.08059C6.17079 5.09805 6.17705 5.11536 6.18373 5.13251L8.20373 10.5825C8.20966 10.6001 8.21601 10.6175 8.22279 10.6348C8.22958 10.6521 8.23681 10.6692 8.24445 10.6861C8.2521 10.703 8.26017 10.7197 8.26865 10.7363C8.27714 10.7528 8.28603 10.7691 8.29533 10.7851C8.30462 10.8012 8.31433 10.817 8.32441 10.8326C8.33451 10.8482 8.34498 10.8635 8.35583 10.8786C8.36669 10.8936 8.37792 10.9084 8.38953 10.9229C8.40113 10.9374 8.41308 10.9516 8.42539 10.9655C8.43771 10.9794 8.45037 10.9929 8.46334 11.0062C8.47634 11.0195 8.48964 11.0324 8.50328 11.045C8.51691 11.0576 8.53085 11.0698 8.54511 11.0818C8.55937 11.0936 8.5739 11.1052 8.58873 11.1164C8.60357 11.1275 8.61867 11.1383 8.63402 11.1487C8.64939 11.1592 8.66501 11.1692 8.68087 11.1788C8.69675 11.1884 8.71285 11.1977 8.72917 11.2065C8.7455 11.2153 8.76205 11.2237 8.7788 11.2318C8.79556 11.2397 8.81251 11.2473 8.82962 11.2545C8.84677 11.2616 8.86408 11.2683 8.88154 11.2746C8.899 11.2809 8.91662 11.2868 8.93437 11.2922C8.95214 11.2976 8.97001 11.3025 8.98802 11.307C9.00605 11.3115 9.02416 11.3156 9.04236 11.3192C9.06058 11.3228 9.07888 11.3259 9.09724 11.3286C9.1156 11.3313 9.13404 11.3335 9.15251 11.3353C9.17099 11.337 9.18951 11.3384 9.20804 11.3392C9.2266 11.34 9.24517 11.3404 9.26373 11.3403C9.28228 11.3402 9.30083 11.3396 9.31937 11.3386C9.33792 11.3376 9.35642 11.3361 9.37486 11.3342C9.39334 11.3322 9.41173 11.3298 9.43007 11.327C9.44843 11.3241 9.46667 11.3208 9.48484 11.317C9.50302 11.3132 9.52109 11.309 9.53906 11.3043C9.55703 11.2996 9.57486 11.2944 9.59255 11.2889C9.61027 11.2833 9.62783 11.2773 9.64523 11.2708C9.66265 11.2643 9.67988 11.2575 9.69693 11.2501C9.714 11.2428 9.73085 11.2351 9.74751 11.2269C9.76419 11.2187 9.78066 11.2102 9.79689 11.2012C9.81314 11.1922 9.82915 11.1828 9.84492 11.173C9.8607 11.1632 9.87621 11.153 9.89148 11.1425C9.90675 11.1319 9.92173 11.1209 9.93644 11.1096C9.95117 11.0983 9.96558 11.0866 9.9797 11.0746C9.99384 11.0626 10.0077 11.0502 10.0212 11.0374C10.0347 11.0247 10.0479 11.0116 10.0607 10.9983C10.0736 10.9849 10.0861 10.9711 10.0983 10.9571C10.1104 10.9431 10.1223 10.9288 10.1337 10.9142C10.1452 10.8996 10.1562 10.8847 10.1669 10.8695C10.1777 10.8543 10.188 10.8389 10.1979 10.8233C10.2078 10.8076 10.2174 10.7917 10.2265 10.7755C10.2357 10.7593 10.2444 10.743 10.2527 10.7264C10.261 10.7098 10.2689 10.693 10.2764 10.676C10.2839 10.659 10.291 10.6418 10.2976 10.6245C10.3042 10.6071 10.3103 10.5896 10.3161 10.572C10.3218 10.5543 10.3271 10.5365 10.332 10.5186C10.3369 10.5007 10.3412 10.4826 10.3452 10.4645C10.3492 10.4464 10.3527 10.4282 10.3557 10.4099C10.3587 10.3915 10.3613 10.3732 10.3634 10.3547C10.3655 10.3363 10.3672 10.3178 10.3684 10.2992C10.3696 10.2807 10.3703 10.2622 10.3706 10.2436C10.3708 10.2251 10.3706 10.2065 10.37 10.1879C10.3693 10.1694 10.3682 10.1509 10.3666 10.1324C10.365 10.1139 10.3629 10.0954 10.3604 10.077C10.3579 10.0586 10.3549 10.0403 10.3515 10.0221C10.348 10.0038 10.3442 9.98569 10.3398 9.96765C10.3355 9.94958 10.3307 9.93165 10.3254 9.91386C10.3202 9.89605 10.3145 9.87837 10.3084 9.86085C10.3023 9.84331 10.2957 9.82595 10.2887 9.80876L8.26873 4.36001L8.26998 4.36001Z" fill="#303133"/>
  <path d="M8.70502 3.4625C8.30751 4.59125 6.17251 5.19125 5.26501 4.81375L5.85876 1.56375L8.70502 3.46375L8.70502 3.4625Z" fill="#B9CEFF"/>
  <path d="M5.73755 1.2775C5.74348 1.27499 5.74947 1.27266 5.75554 1.27052C5.76161 1.26838 5.76773 1.26643 5.77392 1.26467C5.7801 1.26291 5.78634 1.26134 5.79263 1.25996C5.79891 1.25858 5.80522 1.2574 5.81157 1.25641C5.81794 1.25543 5.82432 1.25464 5.83071 1.25404C5.83712 1.25345 5.84354 1.25306 5.84997 1.25286C5.85641 1.25267 5.86284 1.25267 5.86927 1.25287C5.8757 1.25307 5.88212 1.25347 5.88853 1.25407C5.89492 1.25466 5.9013 1.25546 5.90767 1.25645C5.91402 1.25744 5.92034 1.25862 5.92661 1.26001C5.9329 1.26139 5.93914 1.26296 5.94533 1.26473C5.95151 1.26649 5.95764 1.26845 5.9637 1.27059C5.96976 1.27274 5.97575 1.27507 5.98167 1.27758C5.9876 1.2801 5.99344 1.28279 5.99919 1.28567C6.00495 1.28854 6.01061 1.29159 6.01616 1.29482C6.02174 1.29804 6.0272 1.30143 6.03255 1.305L8.87881 3.20375C8.88236 3.20613 8.88586 3.20858 8.88934 3.21111C8.89279 3.21363 8.89619 3.21623 8.89955 3.21891C8.90291 3.22156 8.90621 3.22432 8.90945 3.22713C8.91269 3.22992 8.91586 3.23279 8.91898 3.23572C8.92211 3.23865 8.92516 3.24166 8.92816 3.24473C8.93117 3.24777 8.9341 3.2509 8.93697 3.25408C8.93984 3.25725 8.94266 3.26049 8.94539 3.26381C8.94812 3.26709 8.95078 3.27045 8.9534 3.27385C8.95598 3.27725 8.95852 3.28072 8.96098 3.28424C8.96344 3.28774 8.96582 3.29129 8.96812 3.2949C8.97043 3.2985 8.97268 3.30217 8.97484 3.30588C8.97699 3.30957 8.97906 3.31332 8.98107 3.31711C8.98309 3.32088 8.98502 3.32471 8.98688 3.32858C8.98871 3.33244 8.99049 3.33635 8.99217 3.34029C8.99385 3.34422 8.99547 3.34818 8.99699 3.35221C8.99852 3.35619 8.99996 3.36024 9.00133 3.3643C9.00268 3.36836 9.00395 3.37244 9.00514 3.37656C9.00633 3.38067 9.00744 3.38481 9.00846 3.38899C9.00947 3.39315 9.01041 3.39733 9.01127 3.40152C9.01211 3.40572 9.01287 3.40994 9.01355 3.41418C9.01422 3.4184 9.0148 3.42266 9.01531 3.42692C9.01582 3.43115 9.01623 3.43541 9.01656 3.43969C9.01687 3.44397 9.01711 3.44824 9.01727 3.45252C9.01742 3.4568 9.01748 3.46108 9.01746 3.46537C9.01742 3.46967 9.0173 3.47395 9.01711 3.47822C9.01689 3.4825 9.0166 3.48678 9.01623 3.49106C9.01584 3.49531 9.01539 3.49957 9.01484 3.50383C9.01428 3.50807 9.01363 3.51231 9.01291 3.51652C9.01217 3.52074 9.01137 3.52496 9.01047 3.52914C9.00957 3.53332 9.00857 3.5375 9.0075 3.54166C9.00643 3.5458 9.00527 3.54992 9.00404 3.55402C9.00279 3.55813 9.00146 3.56219 9.00006 3.56625C8.75256 4.26875 8.00381 4.745 7.28006 4.99875C6.90505 5.12875 6.5138 5.21125 6.1488 5.2325C5.7888 5.255 5.43255 5.2225 5.14505 5.1025C5.14098 5.1008 5.13695 5.09902 5.13296 5.09717C5.12896 5.09529 5.12501 5.09334 5.12109 5.09131C5.11718 5.08928 5.11331 5.08717 5.10949 5.08498C5.10567 5.08277 5.10189 5.08049 5.09816 5.07815C5.09443 5.07578 5.09076 5.07336 5.08714 5.07086C5.08352 5.06834 5.07995 5.06574 5.07644 5.06309C5.07292 5.06043 5.06947 5.0577 5.06607 5.05488C5.06267 5.05207 5.05933 5.04918 5.05605 5.04625C5.05278 5.04328 5.04957 5.04027 5.04642 5.03719C5.04327 5.0341 5.04018 5.03094 5.03716 5.02774C5.03415 5.02451 5.03121 5.02123 5.02833 5.01791C5.02545 5.01455 5.02265 5.01115 5.01991 5.00772C5.01718 5.00424 5.01452 5.00072 5.01195 4.99717C5.00935 4.99358 5.00685 4.98996 5.00443 4.98629C5.00199 4.9826 4.99963 4.97887 4.99736 4.9751C4.99509 4.97131 4.9929 4.9675 4.99079 4.96363C4.98868 4.95977 4.98665 4.95584 4.9847 4.9519C4.98276 4.94793 4.9809 4.94393 4.97911 4.9399C4.97734 4.93586 4.97566 4.9318 4.97406 4.9277C4.97245 4.92359 4.97094 4.91945 4.9695 4.91527C4.96807 4.91109 4.96673 4.9069 4.96548 4.90268C4.96423 4.89846 4.96307 4.8942 4.962 4.88992C4.96092 4.88565 4.95994 4.88135 4.95906 4.87703C4.95817 4.87272 4.95738 4.86838 4.95667 4.86402C4.95596 4.85967 4.95534 4.85531 4.95482 4.85094C4.9543 4.84656 4.95387 4.84217 4.95353 4.83777C4.9532 4.83338 4.95296 4.82899 4.95281 4.82457C4.95266 4.82016 4.95261 4.81576 4.95265 4.81135C4.95269 4.80693 4.95282 4.80254 4.95304 4.79815C4.95326 4.79373 4.95357 4.78932 4.95398 4.78494C4.95439 4.78055 4.9549 4.77617 4.9555 4.77182C4.95609 4.76744 4.95677 4.76309 4.95755 4.75875L5.5513 1.50875C5.55247 1.50241 5.55384 1.49611 5.5554 1.48985C5.55697 1.4836 5.55872 1.47739 5.56068 1.47125C5.56262 1.4651 5.56475 1.45902 5.56708 1.45301C5.5694 1.44699 5.57191 1.44105 5.5746 1.43519C5.57729 1.42933 5.58016 1.42356 5.58321 1.41788C5.58626 1.4122 5.58948 1.40662 5.59286 1.40113C5.59626 1.39565 5.59982 1.39028 5.60355 1.38501C5.60727 1.37975 5.61116 1.37461 5.61521 1.36959C5.61926 1.36457 5.62346 1.35967 5.6278 1.35491C5.63214 1.35015 5.63663 1.34553 5.64126 1.34104C5.6459 1.33656 5.65067 1.33222 5.65558 1.32803C5.66047 1.32384 5.6655 1.31981 5.67066 1.31593C5.6758 1.31206 5.68107 1.30834 5.68646 1.30479C5.69184 1.30124 5.69732 1.29785 5.7029 1.29464C5.7085 1.29143 5.71419 1.28839 5.71997 1.28553C5.72574 1.28267 5.7316 1.27999 5.73755 1.2775ZM6.0813 2.08875L5.6238 4.59125C5.7613 4.61375 5.92505 4.62125 6.11005 4.60875C6.41255 4.59 6.7488 4.52125 7.07256 4.40875C7.63006 4.21375 8.08131 3.9125 8.30381 3.57125L6.0813 2.08875Z" fill="#303133"/>
  <path d="M8.15002 10.2037C8.15002 10.1855 8.15047 10.1673 8.15137 10.1492C8.15226 10.131 8.15359 10.1128 8.15538 10.0947C8.15716 10.0766 8.15939 10.0585 8.16208 10.0405C8.16474 10.0225 8.16785 10.0046 8.17139 9.98672C8.17495 9.96885 8.17894 9.95109 8.18336 9.93344C8.18779 9.91577 8.19265 9.89822 8.19793 9.8808C8.20322 9.86338 8.20893 9.8461 8.21506 9.82896C8.2212 9.81181 8.22775 9.79483 8.23471 9.77801C8.24168 9.76118 8.24905 9.74454 8.25684 9.72808C8.26463 9.71162 8.27281 9.69537 8.28139 9.67931C8.28997 9.66326 8.29894 9.64743 8.30831 9.63181C8.31767 9.61619 8.3274 9.60081 8.33751 9.58568C8.34762 9.57054 8.3581 9.55566 8.36895 9.54103C8.3798 9.52641 8.391 9.51206 8.40254 9.49799C8.41409 9.48391 8.42598 9.47013 8.43821 9.45664C8.45043 9.44315 8.46299 9.42996 8.47586 9.41709C8.48874 9.40421 8.50192 9.39166 8.51542 9.37943C8.5289 9.3672 8.54269 9.35532 8.55676 9.34377C8.57084 9.33222 8.58519 9.32102 8.59981 9.31017C8.61443 9.29933 8.62932 9.28885 8.64446 9.27875C8.65959 9.26863 8.67497 9.25889 8.69059 9.24953C8.7062 9.24017 8.72204 9.2312 8.73809 9.22262C8.75415 9.21403 8.7704 9.20585 8.78686 9.19806C8.80332 9.19028 8.81996 9.1829 8.83678 9.17594C8.8536 9.16897 8.87059 9.16242 8.88774 9.15629C8.90487 9.15015 8.92215 9.14444 8.93958 9.13916C8.957 9.13387 8.97454 9.12901 8.99221 9.12459C9.00987 9.12016 9.02763 9.11617 9.04549 9.11262C9.06334 9.10907 9.08127 9.10597 9.09928 9.1033C9.11729 9.10062 9.13536 9.09838 9.15348 9.0966C9.17159 9.09482 9.18974 9.09348 9.20793 9.0926C9.22612 9.0917 9.24432 9.09125 9.26252 9.09125L15.7588 9.09125C15.777 9.09124 15.7952 9.09167 15.8134 9.09256C15.8315 9.09344 15.8497 9.09477 15.8678 9.09654C15.8859 9.09831 15.904 9.10053 15.922 9.1032C15.94 9.10586 15.958 9.10896 15.9758 9.1125C15.9937 9.11604 16.0114 9.12002 16.0291 9.12443C16.0468 9.12885 16.0643 9.13369 16.0817 9.13896C16.0992 9.14425 16.1164 9.14995 16.1336 9.15607C16.1507 9.16219 16.1677 9.16873 16.1846 9.1757C16.2014 9.18265 16.218 9.19002 16.2345 9.19779C16.251 9.20556 16.2672 9.21374 16.2833 9.22232C16.2993 9.23089 16.3152 9.23985 16.3308 9.2492C16.3464 9.25855 16.3618 9.26828 16.377 9.2784C16.3921 9.2885 16.407 9.29897 16.4216 9.3098C16.4362 9.32065 16.4506 9.33184 16.4647 9.34338C16.4788 9.35491 16.4925 9.36679 16.506 9.37902C16.5195 9.39123 16.5327 9.40378 16.5456 9.41666C16.5585 9.42952 16.571 9.44269 16.5833 9.45617C16.5955 9.46966 16.6074 9.48343 16.619 9.4975C16.6305 9.51157 16.6417 9.52592 16.6526 9.54052C16.6634 9.55515 16.6739 9.57002 16.6841 9.58515C16.6942 9.60028 16.7039 9.61566 16.7133 9.63127C16.7227 9.64688 16.7316 9.66271 16.7402 9.67877C16.7488 9.69482 16.757 9.71108 16.7648 9.72754C16.7726 9.74398 16.78 9.76062 16.787 9.77744C16.7939 9.79425 16.8005 9.81123 16.8067 9.82838C16.8128 9.84551 16.8185 9.86279 16.8238 9.88021C16.8291 9.89763 16.834 9.91517 16.8384 9.93283C16.8428 9.95049 16.8468 9.96824 16.8504 9.98609C16.854 10.004 16.8571 10.0219 16.8598 10.0399C16.8624 10.0579 16.8647 10.076 16.8665 10.0941C16.8683 10.1122 16.8696 10.1304 16.8705 10.1485C16.8714 10.1667 16.8719 10.1849 16.8719 10.2031C16.8719 10.2213 16.8715 10.2395 16.8706 10.2577C16.8697 10.2759 16.8684 10.2941 16.8666 10.3122C16.8648 10.3303 16.8626 10.3484 16.8599 10.3664C16.8573 10.3844 16.8542 10.4023 16.8506 10.4202C16.8471 10.438 16.8431 10.4558 16.8387 10.4735C16.8343 10.4911 16.8295 10.5087 16.8242 10.5261C16.8189 10.5435 16.8132 10.5608 16.8071 10.5779C16.801 10.5951 16.7944 10.6121 16.7874 10.6289C16.7805 10.6457 16.7731 10.6624 16.7654 10.6788C16.7576 10.6953 16.7494 10.7116 16.7408 10.7276C16.7323 10.7437 16.7233 10.7595 16.7139 10.7752C16.7046 10.7908 16.6948 10.8062 16.6847 10.8213C16.6747 10.8365 16.6642 10.8513 16.6533 10.866C16.6425 10.8806 16.6313 10.8949 16.6198 10.909C16.6082 10.9231 16.5964 10.9369 16.5841 10.9504C16.5719 10.9639 16.5594 10.9771 16.5465 10.99C16.5336 11.0028 16.5205 11.0154 16.507 11.0276C16.4935 11.0399 16.4797 11.0518 16.4656 11.0633C16.4516 11.0749 16.4372 11.0861 16.4226 11.097C16.408 11.1078 16.3931 11.1183 16.378 11.1284C16.3629 11.1385 16.3475 11.1483 16.3319 11.1577C16.3163 11.167 16.3004 11.176 16.2844 11.1846C16.2683 11.1932 16.2521 11.2014 16.2356 11.2092C16.2192 11.217 16.2025 11.2244 16.1857 11.2313C16.1689 11.2383 16.1519 11.2449 16.1348 11.251C16.1176 11.2571 16.1004 11.2629 16.0829 11.2682C16.0655 11.2735 16.048 11.2783 16.0303 11.2828C16.0127 11.2872 15.9949 11.2912 15.9771 11.2947C15.9592 11.2983 15.9413 11.3014 15.9232 11.3041C15.9052 11.3068 15.8872 11.309 15.8691 11.3108C15.851 11.3126 15.8328 11.314 15.8146 11.3149C15.7964 11.3158 15.7782 11.3162 15.76 11.3162L9.26252 11.3162C9.24432 11.3162 9.22612 11.3158 9.20793 11.3149C9.18974 11.314 9.17159 11.3127 9.15348 11.3109C9.13536 11.3091 9.11729 11.3069 9.09928 11.3042C9.08127 11.3015 9.06334 11.2984 9.04549 11.2949C9.02763 11.2913 9.00987 11.2873 8.99221 11.2829C8.97454 11.2785 8.957 11.2736 8.93958 11.2683C8.92215 11.263 8.90487 11.2573 8.88774 11.2512C8.87059 11.2451 8.8536 11.2385 8.83678 11.2316C8.81996 11.2246 8.80332 11.2172 8.78686 11.2094C8.7704 11.2016 8.75415 11.1935 8.73809 11.1849C8.72204 11.1763 8.7062 11.1673 8.69059 11.158C8.67497 11.1486 8.65959 11.1389 8.64446 11.1287C8.62932 11.1186 8.61443 11.1082 8.59981 11.0973C8.58519 11.0865 8.57084 11.0753 8.55676 11.0637C8.54269 11.0522 8.5289 11.0403 8.51542 11.0281C8.50192 11.0158 8.48874 11.0033 8.47586 10.9904C8.46299 10.9775 8.45043 10.9643 8.43821 10.9509C8.42598 10.9374 8.41409 10.9236 8.40254 10.9095C8.391 10.8954 8.3798 10.8811 8.36895 10.8665C8.3581 10.8518 8.34762 10.837 8.33751 10.8218C8.3274 10.8067 8.31767 10.7913 8.30831 10.7757C8.29894 10.7601 8.28997 10.7442 8.28139 10.7282C8.27281 10.7121 8.26463 10.6959 8.25684 10.6794C8.24905 10.6629 8.24168 10.6463 8.23471 10.6295C8.22775 10.6127 8.2212 10.5957 8.21506 10.5785C8.20893 10.5614 8.20322 10.5441 8.19793 10.5267C8.19265 10.5093 8.18779 10.4917 8.18336 10.4741C8.17894 10.4564 8.17495 10.4386 8.17139 10.4208C8.16785 10.4029 8.16474 10.385 8.16206 10.367C8.15939 10.349 8.15716 10.3309 8.15538 10.3128C8.15359 10.2947 8.15226 10.2765 8.15137 10.2583C8.15047 10.2401 8.15002 10.222 8.15002 10.2037Z" fill="#FAB5B5"/>
  <path d="M9.26252 9.71625L15.7588 9.71625C15.7668 9.71624 15.7747 9.71642 15.7827 9.71681C15.7906 9.7172 15.7986 9.71778 15.8065 9.71855C15.8145 9.71933 15.8224 9.7203 15.8303 9.72146C15.8382 9.72262 15.846 9.72398 15.8539 9.72552C15.8617 9.72708 15.8695 9.72882 15.8772 9.73076C15.8849 9.73269 15.8926 9.7348 15.9003 9.73711C15.9079 9.73943 15.9155 9.74192 15.923 9.74459C15.9305 9.74727 15.9379 9.75013 15.9453 9.75318C15.9527 9.75623 15.96 9.75945 15.9672 9.76285C15.9744 9.76626 15.9815 9.76984 15.9886 9.77359C15.9956 9.77734 16.0025 9.78127 16.0094 9.78537C16.0162 9.78946 16.023 9.79371 16.0296 9.79814C16.0362 9.80257 16.0428 9.80715 16.0492 9.81189C16.0556 9.81665 16.0619 9.82155 16.0681 9.8266C16.0742 9.83165 16.0803 9.83685 16.0862 9.8422C16.0921 9.84756 16.0979 9.85304 16.1035 9.85867C16.1092 9.86431 16.1147 9.87008 16.12 9.87597C16.1254 9.88189 16.1306 9.88792 16.1357 9.89408C16.1407 9.90024 16.1456 9.90652 16.1504 9.91293C16.1552 9.91932 16.1598 9.92583 16.1642 9.93246C16.1686 9.93909 16.1729 9.94582 16.177 9.95265C16.1811 9.95949 16.1851 9.96642 16.1888 9.97345C16.1926 9.98049 16.1962 9.9876 16.1996 9.9948C16.203 10.002 16.2063 10.0093 16.2093 10.0167C16.2124 10.024 16.2153 10.0315 16.218 10.039C16.2207 10.0465 16.2232 10.054 16.2255 10.0617C16.2278 10.0693 16.23 10.077 16.2319 10.0847C16.2339 10.0925 16.2356 10.1002 16.2372 10.1081C16.2388 10.1159 16.2401 10.1237 16.2413 10.1316C16.2425 10.1395 16.2435 10.1474 16.2443 10.1553C16.245 10.1633 16.2456 10.1712 16.246 10.1792C16.2464 10.1872 16.2466 10.1951 16.2467 10.2031C16.2467 10.2111 16.2465 10.2191 16.2461 10.227C16.2457 10.235 16.2451 10.243 16.2444 10.2509C16.2436 10.2588 16.2426 10.2668 16.2415 10.2746C16.2403 10.2825 16.239 10.2904 16.2374 10.2982C16.2359 10.306 16.2341 10.3138 16.2322 10.3216C16.2303 10.3293 16.2282 10.337 16.2259 10.3446C16.2236 10.3523 16.2211 10.3598 16.2184 10.3673C16.2157 10.3749 16.2129 10.3823 16.2098 10.3897C16.2068 10.397 16.2036 10.4043 16.2002 10.4116C16.1968 10.4188 16.1932 10.4259 16.1894 10.4329C16.1857 10.44 16.1818 10.4469 16.1777 10.4538C16.1736 10.4606 16.1693 10.4674 16.1649 10.474C16.1605 10.4806 16.1559 10.4872 16.1512 10.4936C16.1464 10.5 16.1415 10.5063 16.1365 10.5125C16.1314 10.5186 16.1262 10.5247 16.1209 10.5306C16.1155 10.5365 16.11 10.5423 16.1044 10.5479C16.0988 10.5536 16.093 10.5591 16.0871 10.5645C16.0812 10.5698 16.0752 10.575 16.069 10.5801C16.0629 10.5852 16.0566 10.5901 16.0502 10.5949C16.0438 10.5996 16.0373 10.6042 16.0306 10.6087C16.024 10.6131 16.0173 10.6174 16.0105 10.6215C16.0036 10.6256 15.9967 10.6295 15.9897 10.6333C15.9826 10.6371 15.9755 10.6407 15.9683 10.6441C15.9611 10.6475 15.9538 10.6508 15.9465 10.6538C15.9391 10.6569 15.9317 10.6598 15.9242 10.6625C15.9166 10.6652 15.9091 10.6677 15.9015 10.67C15.8938 10.6723 15.8862 10.6745 15.8784 10.6764C15.8707 10.6784 15.8629 10.6802 15.8551 10.6817C15.8473 10.6833 15.8394 10.6847 15.8315 10.6858C15.8236 10.687 15.8157 10.688 15.8078 10.6888C15.7998 10.6896 15.7919 10.6902 15.7839 10.6906C15.776 10.691 15.768 10.6912 15.76 10.6912L9.26252 10.6912C9.25454 10.6912 9.24657 10.6911 9.2386 10.6907C9.23063 10.6903 9.22268 10.6897 9.21475 10.6889C9.20681 10.6881 9.19889 10.6871 9.191 10.686C9.1831 10.6848 9.17524 10.6834 9.16743 10.6819C9.1596 10.6803 9.15182 10.6786 9.14407 10.6766C9.13633 10.6747 9.12864 10.6726 9.121 10.6703C9.11337 10.6679 9.1058 10.6654 9.09829 10.6628C9.09077 10.6601 9.08333 10.6572 9.07596 10.6541C9.06859 10.6511 9.0613 10.6478 9.05409 10.6444C9.04687 10.641 9.03975 10.6375 9.03272 10.6337C9.02569 10.6299 9.01875 10.626 9.0119 10.6219C9.00505 10.6178 8.99831 10.6135 8.99168 10.6091C8.98504 10.6047 8.97852 10.6001 8.97211 10.5953C8.96571 10.5906 8.95942 10.5856 8.95327 10.5806C8.94709 10.5755 8.94105 10.5703 8.93514 10.565C8.92923 10.5596 8.92346 10.5541 8.91782 10.5485C8.91217 10.5428 8.90666 10.537 8.90131 10.5311C8.89595 10.5252 8.89074 10.5192 8.88569 10.513C8.88062 10.5068 8.87571 10.5006 8.87096 10.4942C8.86621 10.4877 8.86161 10.4812 8.85717 10.4746C8.85275 10.4679 8.84848 10.4612 8.84438 10.4544C8.84028 10.4475 8.83635 10.4406 8.83258 10.4336C8.82882 10.4265 8.82523 10.4194 8.82182 10.4122C8.81841 10.405 8.81518 10.3977 8.81213 10.3903C8.80907 10.3829 8.8062 10.3755 8.80352 10.368C8.80084 10.3605 8.79834 10.3529 8.79602 10.3453C8.7937 10.3376 8.79157 10.3299 8.78963 10.3222C8.78769 10.3145 8.78595 10.3067 8.7844 10.2988C8.78284 10.291 8.78147 10.2832 8.7803 10.2753C8.77913 10.2674 8.77815 10.2595 8.77737 10.2515C8.77659 10.2436 8.776 10.2356 8.77561 10.2277C8.77522 10.2197 8.77502 10.2117 8.77502 10.2037C8.77502 10.1958 8.77522 10.1878 8.77561 10.1798C8.776 10.1719 8.77659 10.1639 8.77737 10.156C8.77815 10.148 8.77913 10.1401 8.7803 10.1322C8.78147 10.1243 8.78284 10.1165 8.7844 10.1086C8.78595 10.1008 8.78769 10.093 8.78963 10.0853C8.79157 10.0776 8.7937 10.0699 8.79602 10.0622C8.79834 10.0546 8.80084 10.047 8.80352 10.0395C8.8062 10.032 8.80907 10.0246 8.81213 10.0172C8.81518 10.0098 8.81841 10.0025 8.82182 9.99531C8.82523 9.9881 8.82882 9.98097 8.83258 9.97394C8.83635 9.9669 8.84028 9.95996 8.84438 9.95312C8.84848 9.94627 8.85275 9.93954 8.85717 9.93291C8.86161 9.92627 8.86621 9.91974 8.87096 9.91334C8.87571 9.90693 8.88062 9.90065 8.88569 9.89449C8.89074 9.88832 8.89595 9.88228 8.90131 9.87636C8.90666 9.87045 8.91217 9.86468 8.91782 9.85904C8.92346 9.85339 8.92923 9.84789 8.93514 9.84254C8.94105 9.83717 8.94709 9.83196 8.95325 9.82691C8.95942 9.82185 8.96571 9.81694 8.97211 9.81219C8.97852 9.80743 8.98504 9.80284 8.99168 9.7984C8.99831 9.79397 9.00505 9.7897 9.0119 9.7856C9.01875 9.7815 9.02569 9.77757 9.03272 9.77381C9.03975 9.77004 9.04687 9.76646 9.05409 9.76304C9.0613 9.75963 9.06859 9.7564 9.07596 9.75336C9.08333 9.7503 9.09077 9.74743 9.09829 9.74474C9.1058 9.74206 9.11337 9.73956 9.121 9.73724C9.12864 9.73493 9.13633 9.7328 9.14407 9.73086C9.15182 9.72892 9.15959 9.72717 9.16741 9.72562C9.17523 9.72406 9.1831 9.72269 9.191 9.72152C9.19889 9.72035 9.20681 9.71937 9.21475 9.71859C9.22268 9.71781 9.23063 9.71722 9.2386 9.71683C9.24657 9.71644 9.25454 9.71625 9.26252 9.71625ZM9.26252 9.09125C9.24432 9.09125 9.22612 9.0917 9.20793 9.0926C9.18974 9.09348 9.17159 9.09482 9.15348 9.0966C9.13536 9.09838 9.11729 9.10061 9.09928 9.10328C9.08127 9.10596 9.06334 9.10907 9.04549 9.11262C9.02763 9.11617 9.00987 9.12016 8.99221 9.12459C8.97454 9.12901 8.957 9.13387 8.93958 9.13916C8.92215 9.14444 8.90487 9.15015 8.88774 9.15629C8.87059 9.16242 8.8536 9.16897 8.83678 9.17594C8.81996 9.1829 8.80332 9.19028 8.78686 9.19806C8.7704 9.20585 8.75415 9.21403 8.73809 9.22262C8.72204 9.2312 8.7062 9.24017 8.69059 9.24953C8.67497 9.25889 8.65959 9.26862 8.64446 9.27873C8.62932 9.28885 8.61443 9.29933 8.59981 9.31017C8.58519 9.32102 8.57084 9.33222 8.55676 9.34377C8.54269 9.35532 8.5289 9.3672 8.51542 9.37943C8.50192 9.39166 8.48874 9.40421 8.47586 9.41709C8.46299 9.42996 8.45043 9.44315 8.43821 9.45664C8.42598 9.47013 8.41409 9.48391 8.40254 9.49799C8.391 9.51206 8.3798 9.52641 8.36895 9.54103C8.3581 9.55566 8.34762 9.57054 8.33751 9.58568C8.3274 9.60081 8.31767 9.61619 8.30831 9.63181C8.29894 9.64743 8.28997 9.66326 8.28139 9.67931C8.2728 9.69537 8.26461 9.71162 8.25684 9.72808C8.24905 9.74454 8.24168 9.76118 8.23471 9.77801C8.22775 9.79483 8.2212 9.81181 8.21506 9.82896C8.20893 9.8461 8.20322 9.86338 8.19793 9.8808C8.19265 9.89822 8.18779 9.91577 8.18336 9.93344C8.17894 9.95109 8.17495 9.96885 8.17139 9.98672C8.16785 10.0046 8.16474 10.0225 8.16206 10.0405C8.15939 10.0585 8.15716 10.0766 8.15538 10.0947C8.15359 10.1128 8.15226 10.131 8.15137 10.1492C8.15047 10.1673 8.15002 10.1855 8.15002 10.2037C8.15002 10.222 8.15047 10.2401 8.15137 10.2583C8.15226 10.2765 8.15359 10.2947 8.15538 10.3128C8.15716 10.3309 8.15939 10.349 8.16206 10.367C8.16474 10.385 8.16785 10.4029 8.17139 10.4208C8.17495 10.4386 8.17894 10.4564 8.18336 10.4741C8.18779 10.4917 8.19265 10.5093 8.19793 10.5267C8.20321 10.5441 8.20892 10.5614 8.21506 10.5785C8.2212 10.5957 8.22775 10.6127 8.23471 10.6295C8.24168 10.6463 8.24905 10.6629 8.25684 10.6794C8.26461 10.6959 8.2728 10.7121 8.28139 10.7282C8.28997 10.7442 8.29894 10.7601 8.30831 10.7757C8.31767 10.7913 8.3274 10.8067 8.33751 10.8218C8.34762 10.837 8.3581 10.8518 8.36895 10.8665C8.3798 10.8811 8.391 10.8954 8.40254 10.9095C8.41409 10.9236 8.42598 10.9374 8.43821 10.9509C8.45043 10.9643 8.46299 10.9775 8.47586 10.9904C8.48874 11.0033 8.50192 11.0158 8.51542 11.0281C8.5289 11.0403 8.54269 11.0522 8.55676 11.0637C8.57084 11.0753 8.58519 11.0865 8.59981 11.0973C8.61443 11.1082 8.62932 11.1186 8.64446 11.1287C8.65959 11.1389 8.67497 11.1486 8.69059 11.158C8.7062 11.1673 8.72204 11.1763 8.73809 11.1849C8.75415 11.1935 8.7704 11.2016 8.78686 11.2094C8.80332 11.2172 8.81996 11.2246 8.83678 11.2316C8.8536 11.2385 8.87059 11.2451 8.88774 11.2512C8.90487 11.2573 8.92215 11.263 8.93958 11.2683C8.957 11.2736 8.97454 11.2785 8.99221 11.2829C9.00987 11.2873 9.02763 11.2913 9.04549 11.2949C9.06334 11.2984 9.08127 11.3015 9.09928 11.3042C9.11729 11.3069 9.13536 11.3091 9.15348 11.3109C9.17159 11.3127 9.18974 11.314 9.20793 11.3149C9.22612 11.3158 9.24432 11.3162 9.26252 11.3162L15.76 11.3162C15.7782 11.3162 15.7964 11.3158 15.8146 11.3149C15.8328 11.314 15.8509 11.3127 15.8691 11.3109C15.8872 11.3091 15.9053 11.3069 15.9233 11.3042C15.9413 11.3015 15.9592 11.2984 15.9771 11.2949C15.9949 11.2913 16.0127 11.2873 16.0303 11.2829C16.048 11.2785 16.0655 11.2736 16.083 11.2683C16.1004 11.263 16.1177 11.2573 16.1348 11.2512C16.152 11.2451 16.1689 11.2385 16.1857 11.2316C16.2026 11.2246 16.2192 11.2172 16.2357 11.2094C16.2521 11.2016 16.2684 11.1935 16.2845 11.1849C16.3005 11.1763 16.3164 11.1673 16.332 11.158C16.3476 11.1486 16.363 11.1389 16.3781 11.1287C16.3932 11.1186 16.4081 11.1082 16.4227 11.0973C16.4374 11.0865 16.4517 11.0753 16.4658 11.0637C16.4799 11.0522 16.4936 11.0403 16.5071 11.0281C16.5206 11.0158 16.5338 11.0033 16.5467 10.9904C16.5596 10.9775 16.5721 10.9643 16.5843 10.9509C16.5966 10.9374 16.6085 10.9236 16.62 10.9095C16.6315 10.8954 16.6428 10.8811 16.6536 10.8665C16.6644 10.8518 16.6749 10.837 16.685 10.8218C16.6951 10.8067 16.7049 10.7913 16.7142 10.7757C16.7236 10.7601 16.7326 10.7442 16.7412 10.7282C16.7497 10.7121 16.7579 10.6959 16.7657 10.6794C16.7735 10.6629 16.7809 10.6463 16.7878 10.6295C16.7948 10.6127 16.8014 10.5957 16.8075 10.5785C16.8136 10.5614 16.8193 10.5441 16.8246 10.5267C16.8299 10.5093 16.8348 10.4917 16.8392 10.4741C16.8436 10.4564 16.8476 10.4386 16.8511 10.4208C16.8547 10.4029 16.8578 10.385 16.8605 10.367C16.8631 10.349 16.8654 10.3309 16.8672 10.3128C16.8689 10.2947 16.8703 10.2765 16.8712 10.2583C16.8721 10.2401 16.8725 10.222 16.8725 10.2037C16.8725 10.1855 16.8721 10.1673 16.8712 10.1492C16.8703 10.131 16.8689 10.1128 16.8672 10.0947C16.8654 10.0766 16.8631 10.0585 16.8605 10.0405C16.8578 10.0225 16.8547 10.0046 16.8511 9.98672C16.8476 9.96885 16.8436 9.95109 16.8392 9.93344C16.8348 9.91577 16.8299 9.89822 16.8246 9.8808C16.8193 9.86338 16.8136 9.8461 16.8075 9.82896C16.8014 9.81181 16.7948 9.79483 16.7878 9.77801C16.7809 9.76118 16.7735 9.74454 16.7657 9.72808C16.7579 9.71162 16.7497 9.69537 16.7412 9.67931C16.7326 9.66326 16.7236 9.64743 16.7142 9.63181C16.7049 9.61619 16.6951 9.60081 16.685 9.58568C16.6749 9.57054 16.6644 9.55566 16.6536 9.54103C16.6428 9.52641 16.6315 9.51206 16.62 9.49799C16.6085 9.48391 16.5966 9.47013 16.5843 9.45664C16.5721 9.44315 16.5596 9.42996 16.5467 9.41709C16.5338 9.40421 16.5206 9.39166 16.5071 9.37943C16.4936 9.3672 16.4799 9.35532 16.4658 9.34377C16.4517 9.33222 16.4374 9.32102 16.4227 9.31017C16.4081 9.29933 16.3932 9.28885 16.3781 9.27873C16.363 9.26862 16.3476 9.25889 16.332 9.24953C16.3164 9.24017 16.3005 9.2312 16.2845 9.22262C16.2684 9.21403 16.2522 9.20585 16.2357 9.19806C16.2192 9.19028 16.2026 9.1829 16.1858 9.17594C16.1689 9.16897 16.152 9.16242 16.1348 9.15629C16.1177 9.15015 16.1004 9.14444 16.083 9.13916C16.0655 9.13387 16.048 9.12901 16.0303 9.12459C16.0127 9.12016 15.9949 9.11617 15.9771 9.11262C15.9592 9.10907 15.9413 9.10596 15.9233 9.10328C15.9053 9.10061 15.8872 9.09838 15.8691 9.0966C15.8509 9.09482 15.8328 9.09348 15.8146 9.0926C15.7964 9.0917 15.7782 9.09125 15.76 9.09125L9.26252 9.09125Z" fill="#303133"/>
  <path d="M15.24 11.8812C14.44 11.0162 15.015 8.92499 15.8237 8.33374L18.415 10.3575L15.24 11.8812Z" fill="#FAB5B5"/>
  <path d="M15.6388 8.08124C15.6422 8.07874 15.6456 8.07631 15.6491 8.07396C15.6526 8.07162 15.6562 8.06934 15.6598 8.06712C15.6634 8.06491 15.667 8.06277 15.6707 8.06072C15.6744 8.05865 15.6781 8.05665 15.6819 8.05474C15.6857 8.05283 15.6895 8.05099 15.6933 8.04923C15.6971 8.04747 15.701 8.04579 15.7049 8.04419C15.7088 8.04259 15.7128 8.04107 15.7167 8.03964C15.7207 8.0382 15.7247 8.03684 15.7287 8.03556C15.7328 8.03427 15.7368 8.03307 15.7409 8.03197C15.745 8.03085 15.749 8.02981 15.7532 8.02886C15.7573 8.02791 15.7614 8.02704 15.7656 8.02626C15.7697 8.02548 15.7739 8.02479 15.7781 8.02417C15.7822 8.02356 15.7864 8.02303 15.7906 8.02259C15.7948 8.02215 15.799 8.02179 15.8032 8.02152C15.8075 8.02124 15.8117 8.02106 15.8159 8.02097C15.8201 8.02087 15.8243 8.02085 15.8286 8.02091C15.8328 8.02099 15.837 8.02115 15.8412 8.02138C15.8454 8.02163 15.8497 8.02195 15.8539 8.02236C15.8581 8.02277 15.8623 8.02327 15.8664 8.02384C15.8706 8.02443 15.8748 8.0251 15.8789 8.02585C15.8831 8.0266 15.8872 8.02743 15.8914 8.02835C15.8955 8.02928 15.8996 8.03028 15.9037 8.03136C15.9077 8.03244 15.9118 8.03361 15.9158 8.03486C15.9199 8.03611 15.9239 8.03744 15.9279 8.03886C15.9318 8.04027 15.9358 8.04176 15.9397 8.04333C15.9436 8.0449 15.9475 8.04654 15.9514 8.04827C15.9552 8.05001 15.959 8.05182 15.9628 8.05371C15.9666 8.05559 15.9703 8.05755 15.974 8.05958C15.9777 8.06161 15.9814 8.06372 15.985 8.06591C15.9886 8.0681 15.9922 8.07036 15.9957 8.07269C15.9992 8.07501 16.0027 8.0774 16.0062 8.07988C16.0096 8.08235 16.0129 8.08489 16.0163 8.08749L18.6075 10.1112C18.6127 10.1153 18.6178 10.1195 18.6227 10.1239C18.6276 10.1283 18.6324 10.1328 18.6371 10.1375C18.6417 10.1422 18.6462 10.147 18.6506 10.152C18.6549 10.157 18.6591 10.1621 18.6631 10.1674C18.6671 10.1726 18.671 10.1779 18.6746 10.1834C18.6783 10.1889 18.6818 10.1945 18.6851 10.2002C18.6884 10.2059 18.6916 10.2117 18.6945 10.2176C18.6975 10.2235 18.7003 10.2295 18.7028 10.2356C18.7054 10.2417 18.7078 10.2478 18.71 10.2541C18.7122 10.2603 18.7141 10.2666 18.7159 10.2729C18.7177 10.2793 18.7193 10.2857 18.7207 10.2922C18.7221 10.2986 18.7232 10.3051 18.7242 10.3117C18.7252 10.3182 18.7259 10.3247 18.7265 10.3313C18.727 10.3379 18.7274 10.3445 18.7275 10.3511C18.7277 10.3577 18.7276 10.3643 18.7273 10.3709C18.727 10.3775 18.7265 10.384 18.7258 10.3906C18.7251 10.3972 18.7242 10.4037 18.7231 10.4102C18.722 10.4167 18.7207 10.4232 18.7192 10.4296C18.7176 10.436 18.7159 10.4424 18.714 10.4487C18.7121 10.455 18.7099 10.4613 18.7076 10.4675C18.7053 10.4736 18.7028 10.4797 18.7 10.4858C18.6973 10.4918 18.6944 10.4977 18.6913 10.5035C18.6883 10.5094 18.685 10.5151 18.6815 10.5207C18.6781 10.5264 18.6745 10.5319 18.6707 10.5373C18.6669 10.5427 18.6629 10.548 18.6588 10.5531C18.6546 10.5583 18.6504 10.5633 18.6459 10.5681C18.6415 10.573 18.6369 10.5777 18.6321 10.5823C18.6274 10.5869 18.6225 10.5913 18.6174 10.5956C18.6124 10.5999 18.6072 10.604 18.6019 10.608C18.5967 10.6119 18.5913 10.6157 18.5857 10.6193C18.5802 10.6229 18.5745 10.6263 18.5688 10.6296C18.5631 10.6328 18.5572 10.6359 18.5513 10.6387L15.3763 12.1637C15.3725 12.1655 15.3688 12.1673 15.365 12.1689C15.3611 12.1705 15.3573 12.1721 15.3534 12.1736C15.3496 12.1751 15.3457 12.1765 15.3417 12.1778C15.3378 12.1792 15.3339 12.1804 15.3299 12.1816C15.3259 12.1828 15.3219 12.1839 15.3179 12.1849C15.3139 12.1859 15.3098 12.1869 15.3058 12.1877C15.3017 12.1886 15.2977 12.1894 15.2936 12.1901C15.2895 12.1908 15.2854 12.1914 15.2813 12.1919C15.2772 12.1924 15.273 12.1929 15.2689 12.1933C15.2648 12.1936 15.2606 12.1939 15.2565 12.1941C15.2524 12.1943 15.2482 12.1944 15.2441 12.1945C15.2399 12.1945 15.2358 12.1945 15.2316 12.1944C15.2275 12.1942 15.2233 12.194 15.2192 12.1937C15.2151 12.1934 15.2109 12.1931 15.2068 12.1926C15.2027 12.1922 15.1986 12.1916 15.1945 12.191C15.1904 12.1904 15.1863 12.1897 15.1822 12.1889C15.1782 12.1881 15.1741 12.1873 15.1701 12.1863C15.166 12.1854 15.162 12.1844 15.158 12.1833C15.154 12.1821 15.15 12.181 15.1461 12.1797C15.1421 12.1784 15.1382 12.1771 15.1343 12.1757C15.1304 12.1743 15.1266 12.1728 15.1227 12.1712C15.1189 12.1696 15.1151 12.168 15.1113 12.1663C15.1075 12.1645 15.1038 12.1627 15.1001 12.1609C15.0964 12.159 15.0927 12.1571 15.0891 12.1551C15.0855 12.153 15.0819 12.151 15.0784 12.1488C15.0748 12.1466 15.0713 12.1444 15.0679 12.1421C15.0644 12.1398 15.061 12.1374 15.0577 12.135C15.0543 12.1326 15.051 12.1301 15.0478 12.1275C15.0445 12.1249 15.0413 12.1223 15.0381 12.1196C15.035 12.1169 15.0319 12.1142 15.0288 12.1113C15.0258 12.1085 15.0228 12.1057 15.0199 12.1027C15.017 12.0998 15.0141 12.0968 15.0113 12.0937C14.5063 11.5475 14.4713 10.6775 14.6238 9.94249C14.7013 9.56249 14.8325 9.18999 15.0025 8.86999C15.17 8.55249 15.385 8.26749 15.64 8.08124L15.6388 8.08124ZM15.34 11.4862L17.8263 10.2937L15.8388 8.74249C15.7425 8.85124 15.645 8.99249 15.555 9.16249C15.518 9.23373 15.4835 9.30617 15.4515 9.37982C15.4195 9.45345 15.3902 9.52812 15.3634 9.60382C15.3366 9.67951 15.3125 9.75604 15.2911 9.83341C15.2697 9.91079 15.251 9.98882 15.235 10.0675C15.1188 10.63 15.155 11.145 15.34 11.4862Z" fill="#303133"/>
  <path d="M15.6388 8.08124C15.6422 8.07874 15.6456 8.07631 15.6491 8.07396C15.6526 8.07162 15.6562 8.06934 15.6598 8.06712C15.6634 8.06491 15.667 8.06277 15.6707 8.06072C15.6744 8.05865 15.6781 8.05665 15.6819 8.05474C15.6857 8.05283 15.6895 8.05099 15.6933 8.04923C15.6971 8.04747 15.701 8.04579 15.7049 8.04419C15.7088 8.04259 15.7128 8.04107 15.7167 8.03964C15.7207 8.0382 15.7247 8.03684 15.7287 8.03556C15.7328 8.03427 15.7368 8.03307 15.7409 8.03197C15.745 8.03085 15.749 8.02981 15.7532 8.02886C15.7573 8.02791 15.7614 8.02704 15.7656 8.02626C15.7697 8.02548 15.7739 8.02479 15.7781 8.02417C15.7822 8.02356 15.7864 8.02303 15.7906 8.02259C15.7948 8.02215 15.799 8.02179 15.8032 8.02152C15.8075 8.02124 15.8117 8.02106 15.8159 8.02097C15.8201 8.02087 15.8243 8.02085 15.8286 8.02091C15.8328 8.02099 15.837 8.02115 15.8412 8.02138C15.8454 8.02163 15.8497 8.02195 15.8539 8.02236C15.8581 8.02277 15.8623 8.02327 15.8664 8.02384C15.8706 8.02443 15.8748 8.0251 15.8789 8.02585C15.8831 8.0266 15.8872 8.02743 15.8914 8.02835C15.8955 8.02928 15.8996 8.03028 15.9037 8.03136C15.9077 8.03244 15.9118 8.03361 15.9158 8.03486C15.9199 8.03611 15.9239 8.03744 15.9279 8.03886C15.9318 8.04027 15.9358 8.04176 15.9397 8.04333C15.9436 8.0449 15.9475 8.04654 15.9514 8.04827C15.9552 8.05001 15.959 8.05182 15.9628 8.05371C15.9666 8.05559 15.9703 8.05755 15.974 8.05958C15.9777 8.06161 15.9814 8.06372 15.985 8.06591C15.9886 8.0681 15.9922 8.07036 15.9957 8.07269C15.9992 8.07501 16.0027 8.0774 16.0062 8.07988C16.0096 8.08235 16.0129 8.08489 16.0163 8.08749L18.6075 10.1112C18.6127 10.1153 18.6178 10.1195 18.6227 10.1239C18.6276 10.1283 18.6324 10.1328 18.6371 10.1375C18.6417 10.1422 18.6462 10.147 18.6506 10.152C18.6549 10.157 18.6591 10.1621 18.6631 10.1674C18.6671 10.1726 18.671 10.1779 18.6746 10.1834C18.6783 10.1889 18.6818 10.1945 18.6851 10.2002C18.6884 10.2059 18.6916 10.2117 18.6945 10.2176C18.6975 10.2235 18.7003 10.2295 18.7028 10.2356C18.7054 10.2417 18.7078 10.2478 18.71 10.2541C18.7122 10.2603 18.7141 10.2666 18.7159 10.2729C18.7177 10.2793 18.7193 10.2857 18.7207 10.2922C18.7221 10.2986 18.7232 10.3051 18.7242 10.3117C18.7252 10.3182 18.7259 10.3247 18.7265 10.3313C18.727 10.3379 18.7274 10.3445 18.7275 10.3511C18.7277 10.3577 18.7276 10.3643 18.7273 10.3709C18.727 10.3775 18.7265 10.384 18.7258 10.3906C18.7251 10.3972 18.7242 10.4037 18.7231 10.4102C18.722 10.4167 18.7207 10.4232 18.7192 10.4296C18.7176 10.436 18.7159 10.4424 18.714 10.4487C18.7121 10.455 18.7099 10.4613 18.7076 10.4675C18.7053 10.4736 18.7028 10.4797 18.7 10.4858C18.6973 10.4918 18.6944 10.4977 18.6913 10.5035C18.6883 10.5094 18.685 10.5151 18.6815 10.5207C18.6781 10.5264 18.6745 10.5319 18.6707 10.5373C18.6669 10.5427 18.6629 10.548 18.6588 10.5531C18.6546 10.5583 18.6504 10.5633 18.6459 10.5681C18.6415 10.573 18.6369 10.5777 18.6321 10.5823C18.6274 10.5869 18.6225 10.5913 18.6174 10.5956C18.6124 10.5999 18.6072 10.604 18.6019 10.608C18.5967 10.6119 18.5913 10.6157 18.5857 10.6193C18.5802 10.6229 18.5745 10.6263 18.5688 10.6296C18.5631 10.6328 18.5572 10.6359 18.5513 10.6387L15.3763 12.1637C15.3725 12.1655 15.3688 12.1673 15.365 12.1689C15.3611 12.1705 15.3573 12.1721 15.3534 12.1736C15.3496 12.1751 15.3457 12.1765 15.3417 12.1778C15.3378 12.1792 15.3339 12.1804 15.3299 12.1816C15.3259 12.1828 15.3219 12.1839 15.3179 12.1849C15.3139 12.1859 15.3098 12.1869 15.3058 12.1877C15.3017 12.1886 15.2977 12.1894 15.2936 12.1901C15.2895 12.1908 15.2854 12.1914 15.2813 12.1919C15.2772 12.1924 15.273 12.1929 15.2689 12.1933C15.2648 12.1936 15.2606 12.1939 15.2565 12.1941C15.2524 12.1943 15.2482 12.1944 15.2441 12.1945C15.2399 12.1945 15.2358 12.1945 15.2316 12.1944C15.2275 12.1942 15.2233 12.194 15.2192 12.1937C15.2151 12.1934 15.2109 12.1931 15.2068 12.1926C15.2027 12.1922 15.1986 12.1916 15.1945 12.191C15.1904 12.1904 15.1863 12.1897 15.1822 12.1889C15.1782 12.1881 15.1741 12.1873 15.1701 12.1863C15.166 12.1854 15.162 12.1844 15.158 12.1833C15.154 12.1821 15.15 12.181 15.1461 12.1797C15.1421 12.1784 15.1382 12.1771 15.1343 12.1757C15.1304 12.1743 15.1266 12.1728 15.1227 12.1712C15.1189 12.1696 15.1151 12.168 15.1113 12.1663C15.1075 12.1645 15.1038 12.1627 15.1001 12.1609C15.0964 12.159 15.0927 12.1571 15.0891 12.1551C15.0855 12.153 15.0819 12.151 15.0784 12.1488C15.0748 12.1466 15.0713 12.1444 15.0679 12.1421C15.0644 12.1398 15.061 12.1374 15.0577 12.135C15.0543 12.1326 15.051 12.1301 15.0478 12.1275C15.0445 12.1249 15.0413 12.1223 15.0381 12.1196C15.035 12.1169 15.0319 12.1142 15.0288 12.1113C15.0258 12.1085 15.0228 12.1057 15.0199 12.1027C15.017 12.0998 15.0141 12.0968 15.0113 12.0937C14.5063 11.5475 14.4713 10.6775 14.6238 9.94249C14.7013 9.56249 14.8325 9.18999 15.0025 8.86999C15.17 8.55249 15.385 8.26749 15.64 8.08124L15.6388 8.08124ZM15.34 11.4862L17.8263 10.2937L15.8388 8.74249C15.7425 8.85124 15.645 8.99249 15.555 9.16249C15.518 9.23373 15.4835 9.30617 15.4515 9.37982C15.4195 9.45345 15.3902 9.52812 15.3634 9.60382C15.3366 9.67951 15.3125 9.75604 15.2911 9.83341C15.2697 9.91079 15.251 9.98882 15.235 10.0675C15.1188 10.63 15.155 11.145 15.34 11.4862Z" fill="#303133"/>
</svg>
