<svg xmlns="http://www.w3.org/2000/svg" fill="none" viewBox="0 0 24 24" class="design-iconfont">
  <path d="M12 24C5.37258 24 0 18.6274 0 12C0 5.37258 5.37258 0 12 0C18.6274 0 24 5.37258 24 12C24 18.6274 18.6274 24 12 24ZM12 20C7.58172 20 4 16.4183 4 12C4 7.58172 7.58172 4 12 4C16.4183 4 20 7.58172 20 12C20 16.4183 16.4183 20 12 20Z" fill-rule="evenodd" fill="#5696FF"/>
  <path d="M12.4286 3.85714C11.3635 3.85714 10.5 2.99369 10.5 1.92857C10.5 0.863451 11.3635 0 12.4286 0C18.8193 0 24 5.18071 24 11.5714C24 12.6365 23.1365 13.5 22.0714 13.5C21.0063 13.5 20.1429 12.6365 20.1429 11.5714C20.1429 7.31095 16.6891 3.85714 12.4286 3.85714Z" fill-rule="evenodd" fill="#FFF"/>
</svg>
