<?xml version="1.0" encoding="UTF-8"?>
<svg width="12px" height="12px" viewBox="0 0 12 12" version="1.1" xmlns="http://www.w3.org/2000/svg" xmlns:xlink="http://www.w3.org/1999/xlink">
    <g id="师资管理" stroke="none" stroke-width="1" fill="none" fill-rule="evenodd">
        <g id="寻找师资视频弹窗" transform="translate(-690.000000, -956.000000)" fill="#333333">
            <g id="4.Input输入/9.Select选择器/多选" transform="translate(672.000000, 802.000000)">
                <g id="编组-3" transform="translate(0.000000, 140.000000)">
                    <g transform="translate(17.000000, 13.000000)">
                        <g id="16px/面性/通用/icon-minus" transform="translate(1.666769, 1.499979)">
                            <path d="M4.66665514,0 C4.39051602,0 4.16665673,0.223857287 4.16665673,0.5 L4.16665673,4.16665673 L0.5,4.16665673 C0.223857287,4.16665673 0,4.39050602 0,4.66665514 L0,5.99998089 C0,6.27612001 0.223857287,6.4999793 0.5,6.4999793 L4.16665673,6.4999793 L4.16665673,10.1666676 C4.16665673,10.4427667 4.39051602,10.666666 4.66665514,10.666666 L6,10.666666 C6.27613001,10.666666 6.4999893,10.4427667 6.4999893,10.1666676 L6.4999893,6.4999793 L10.1666676,6.4999793 C10.4427667,6.4999793 10.666666,6.27612001 10.666666,5.99998089 L10.666666,4.66665514 C10.666666,4.39050602 10.4427667,4.16665673 10.1666676,4.16665673 L6.4999893,4.16665673 L6.4999893,0.5 C6.4999893,0.223857287 6.27613001,0 6,0 L4.66665514,0 Z" id="形状结合"></path>
                        </g>
                    </g>
                </g>
            </g>
        </g>
    </g>
</svg>