<svg xmlns="http://www.w3.org/2000/svg" fill="none" viewBox="0 0 24 24" class="design-iconfont">
  <path d="M3 7.41838C3 5.99707 4.26072 5 5.61491 5L18.3851 5C19.7393 5 21 5.99707 21 7.41838L21 15.6538C21 17.0751 19.7393 18.0746 18.3851 18.0746L17.3305 18.0746C17.0381 18.0746 16.7672 17.9188 16.621 17.6647C16.4748 17.4107 16.4748 17.0991 16.621 16.8474C16.7672 16.5934 17.0381 16.4376 17.3305 16.4376L18.3851 16.4376C19.0154 16.4376 19.363 16.0013 19.363 15.6538L19.363 7.41838C19.363 7.07085 19.0154 6.63463 18.3851 6.63463L5.61491 6.63463C4.98456 6.63463 4.63702 7.07085 4.63702 7.41838L4.63702 15.6538C4.63702 16.0013 4.98456 16.4376 5.61491 16.4376L6.66951 16.4376C6.96191 16.4376 7.23276 16.5934 7.37895 16.8474C7.52517 17.1015 7.52517 17.4131 7.37895 17.6647C7.23276 17.9188 6.96191 18.0746 6.66951 18.0746L5.61491 18.0746C4.26072 18.0722 3 17.0727 3 15.6514L3 7.41838ZM10.363 7.86178C10.6913 7.86178 10.9862 8.05592 11.1156 8.35793L13.5699 14.0839C13.7473 14.4985 13.5555 14.9803 13.1385 15.1601C12.7238 15.3374 12.2421 15.1457 12.0623 14.7286L10.3606 10.7571L9.84767 11.9531L9.95073 11.9531C10.2432 11.9531 10.514 12.1089 10.6602 12.363C10.8064 12.617 10.8064 12.9286 10.6602 13.1803C10.514 13.4343 10.2432 13.5901 9.95073 13.5901L9.1454 13.5901L8.65645 14.731C8.47431 15.1385 7.99734 15.3254 7.58749 15.1505C7.17523 14.9731 6.98349 14.5009 7.15366 14.0863L9.60799 8.36032C9.73981 8.05592 10.037 7.86178 10.363 7.86178ZM15.2716 7.86178C15.7246 7.86178 16.089 8.22849 16.089 8.6791L16.089 14.4051C16.089 14.6975 15.9332 14.9683 15.6791 15.1145C15.425 15.2607 15.1135 15.2607 14.8618 15.1145C14.6077 14.9683 14.4519 14.6975 14.4519 14.4051L14.4519 8.6791C14.4543 8.22849 14.821 7.86178 15.2716 7.86178ZM12.4794 17.7222C12.1917 17.5137 11.8059 17.5137 11.5183 17.7222L8.97283 19.5678C8.60612 19.8338 8.0956 19.7523 7.82957 19.3856C7.56352 19.0189 7.645 18.5084 8.01171 18.2423L10.5571 16.3968C11.4176 15.7736 12.58 15.7736 13.4381 16.3968L15.9835 18.2423C16.2208 18.4149 16.3478 18.6977 16.3166 18.9901C16.2855 19.2802 16.1033 19.5342 15.8373 19.6517C15.5712 19.7715 15.2596 19.7379 15.0224 19.5678L12.4794 17.7222Z" fill="#FFF"/>
</svg>
