<?xml version="1.0" encoding="UTF-8"?>
<svg width="24px" height="24px" viewBox="0 0 24 24" version="1.1" xmlns="http://www.w3.org/2000/svg" xmlns:xlink="http://www.w3.org/1999/xlink">
    <g id="师资管理" stroke="none" stroke-width="1" fill="none" fill-rule="evenodd">
        <g id="师资授权--编辑上传" transform="translate(-1130.000000, -355.000000)">
            <g id="编组-9" transform="translate(242.000000, 90.000000)">
                <g id="编组-15备份" transform="translate(618.000000, 132.000000)">
                    <g id="编组-21" transform="translate(78.000000, 0.000000)">
                        <g id="编组-84备份-4" transform="translate(144.000000, 115.000000)">
                            <g id="编组-12" transform="translate(32.000000, 18.000000)">
                                <g id="编组-14" transform="translate(16.000000, 0.000000)">
                                    <rect id="矩形" x="0" y="0" width="24" height="24"></rect>
                                    <g id="编组" transform="translate(2.000000, 3.000000)" stroke="#0C6FFF" stroke-linecap="round" stroke-linejoin="round" stroke-width="1.45833333">
                                        <path d="M3.86470488,6.17949634 C1.64840785,6.70680061 0,8.70024338 0,11.0788786 C0,13.86008 2.25365193,16.1147325 5.03367529,16.1147325 C5.51056568,16.1147325 5.97195236,16.0484103 6.40912706,15.9244276" id="路径"></path>
                                        <path d="M16.1352951,6.17949634 C18.3516224,6.70680061 20,8.70024338 20,11.0788786 C20,13.86008 17.7463732,16.1147325 14.9663247,16.1147325 C14.4894343,16.1147325 14.0280476,16.0484103 13.5908729,15.9244276" id="路径"></path>
                                        <path d="M16.1077609,6.0430247 C16.1077609,2.70556288 13.4033685,0 10.0673506,0 C6.73133262,0 4.02694023,2.70556288 4.02694023,6.0430247" id="路径"></path>
                                        <polyline id="路径" points="6.57669811 12.9042698 10.0673002 9.40062478 13.6572671 12.9641964"></polyline>
                                        <line x1="10.0673506" y1="18" x2="10.0673506" y2="11.1823603" id="路径"></line>
                                    </g>
                                </g>
                            </g>
                        </g>
                    </g>
                </g>
            </g>
        </g>
    </g>
</svg>