<?xml version="1.0" encoding="UTF-8"?>
<svg width="14px" height="14px" viewBox="0 0 14 14" version="1.1" xmlns="http://www.w3.org/2000/svg" xmlns:xlink="http://www.w3.org/1999/xlink">
    <g id="订单管理" stroke="none" stroke-width="1" fill="none" fill-rule="evenodd">
        <g id="赠送订单审核" transform="translate(-782.000000, -1378.000000)">
            <g id="编组-10备份-5" transform="translate(272.000000, 1110.000000)">
                <g id="编组-9" transform="translate(0.000000, 40.000000)">
                    <g id="编组-11备份-3" transform="translate(0.000000, 223.000000)">
                        <g id="标签/中标签/复审" transform="translate(500.000000, 0.000000)">
                            <g id="编组-57" transform="translate(10.000000, 1.000000)">
                                <g id="time" transform="translate(0.000000, 4.000000)">
                                    <path d="M0,0 L14,0 L14,14 L0,14 L0,0 Z" id="time-(Background)"></path>
                                    <path d="M7,13.125 C3.6172559,13.125 0.875,10.3827443 0.875,7 C0.875,3.6172559 3.6172559,0.875 7,0.875 C10.3827443,0.875 13.125,3.6172559 13.125,7 C13.125,10.3827443 10.3827443,13.125 7,13.125 Z" fill="#FFC000"></path>
                                    <g id="history" transform="translate(1.000000, 1.000000)">
                                        <path d="M0,0 L12,0 L12,12 L0,12 L0,0 Z" id="history-(Background)"></path>
                                        <g id="编组" transform="translate(3.000000, 3.000000)" stroke="#FFFFFF" stroke-linecap="round" stroke-linejoin="round">
                                            <path d="M0.878683333,5.12131667 C1.42156667,5.66421667 2.17156667,6 3,6 C4.65685,6 6,4.65685 6,3 C6,1.34315 4.65685,0 3,0 C2.17156667,0 1.42156667,0.335786667 0.878683333,0.878683333 C0.602345,1.15501667 0,1.83333333 0,1.83333333" id="路径"></path>
                                            <polyline id="路径" points="0 0.5 0 1.83333333 1.33333333 1.83333333"></polyline>
                                        </g>
                                    </g>
                                </g>
                            </g>
                        </g>
                    </g>
                </g>
            </g>
        </g>
    </g>
</svg>