<?xml version="1.0" encoding="UTF-8"?>
<svg width="24px" height="24px" viewBox="0 0 24 24" version="1.1" xmlns="http://www.w3.org/2000/svg" xmlns:xlink="http://www.w3.org/1999/xlink">
    <title>24gf-playCircle (1)</title>
    <g id="页面-1" stroke="none" stroke-width="1" fill="none" fill-rule="evenodd">
        <g id="4-5-学员详情-学员动态" transform="translate(-870.000000, -614.000000)" fill="#0C6FFF" fill-rule="nonzero">
            <g id="编组-5" transform="translate(712.000000, 0.000000)">
                <g id="编组-72备份" transform="translate(20.000000, 546.000000)">
                    <g id="24gf-playCircle-(1)" transform="translate(138.000000, 68.000000)">
                        <path d="M12,8.30504497e-16 C5.3725568,8.30504497e-16 8.30504497e-16,5.3725568 8.30504497e-16,12 C8.30504497e-16,18.6274432 5.37255683,24 12,24 C18.6274432,24 24,18.6274432 24,12 C24,5.37255683 18.6274432,8.30504497e-16 12,8.30504497e-16 Z M17.0253409,12.7967045 L10.2071591,17.2967045 C9.91402321,17.4899298 9.53847648,17.5066401 9.22933758,17.3402136 C8.92019868,17.173787 8.72737329,16.8510906 8.72727272,16.5 L8.72727272,7.50085226 C8.72727272,7.14964805 8.92016354,6.82682106 9.22941842,6.66037043 C9.5386733,6.49391979 9.91435201,6.51073454 10.2075,6.70414771 L17.0256818,11.2041477 C17.2933868,11.3808097 17.4544717,11.6801103 17.4544717,12.0008523 C17.4544717,12.3215943 17.2933868,12.6208948 17.0256818,12.7975568 L17.0253409,12.7967045 Z" id="形状"></path>
                    </g>
                </g>
            </g>
        </g>
    </g>
</svg>