<?xml version="1.0" encoding="UTF-8"?>
<svg width="41px" height="42px" viewBox="0 0 41 42" version="1.1" xmlns="http://www.w3.org/2000/svg" xmlns:xlink="http://www.w3.org/1999/xlink">
    <g id="产品管理" stroke="none" stroke-width="1" fill="none" fill-rule="evenodd">
        <g id="上传文件状态" transform="translate(-602.000000, -1178.000000)" fill-rule="nonzero">
            <g id="编组-4" transform="translate(368.000000, 1107.000000)">
                <g id="编组-3" transform="translate(165.000000, 71.000000)">
                    <g id="png备份" transform="translate(69.000000, 0.000000)">
                        <path d="M36.8831985,38.0003452 C36.8851757,38.5306549 36.6690724,39.0395752 36.2832906,39.4130134 C35.8990012,39.7875109 35.378321,39.9981137 34.8352724,39.9987204 L6.14600881,39.9987204 C5.60238309,40.0009557 5.08062827,39.7899182 4.69799064,39.4130134 C4.31445069,39.0380929 4.09868698,38.5301545 4.09789968,38.0003452 L4.09789968,2.00345215 C4.09594846,1.47280412 4.31210873,0.963553897 4.69799064,0.589734002 C5.08161141,0.213773061 5.60237399,0.00170190135 6.14600881,5.79293855e-06 L23.7453466,5.79293855e-06 C24.2905726,-0.00366661263 24.8148186,0.204933886 25.2019711,0.579654002 L36.2901757,11.4040899 C36.6734348,11.7824088 36.886776,12.2939824 36.8831985,12.825998 L36.8831985,38.0003452 Z" id="路径" fill="#EBECF0"></path>
                        <path d="M36.8831671,38.0003452 L36.8831671,40.0005926 C36.8851744,40.5312102 36.6690935,41.0404561 36.2832906,41.4143108 C35.8990012,41.7888083 35.378321,41.9994111 34.8352724,42 L6.14600881,42 C5.01330567,41.9987253 4.09574462,41.1021469 4.09574462,39.9966026 L4.09574462,37.9982452 C4.09355364,38.5286319 4.30977349,39.0376441 4.69583905,39.4109134 C5.08012841,39.7854109 5.60080858,39.9960137 6.14385722,39.9966026 L34.8309692,39.9966026 C35.962413,39.9949828 36.8791491,39.10004 36.8805712,37.9957252 L36.8831671,38.0003452 Z" id="路径" fill="#C1C7D0"></path>
                        <path d="M-9.78429846e-14,22.0017261 L40.9791296,22.0017261 L40.9791296,32.003383 C40.9773637,33.1071487 40.0625527,34.0022766 38.9316792,34.0067925 L2.0526142,34.0067925 C1.50898483,34.0086356 0.987273129,33.7977539 0.604165669,33.4213012 C0.217809797,33.0457475 0.000432803208,32.5355848 -9.78429846e-14,32.003383 L-9.78429846e-14,22.0017261 Z" id="路径" fill="#6AE5B9"></path>
                        <g id="AVI" transform="translate(10.542791, 24.150000)" fill="#FFFFFF">
                            <path d="M5.5155505,6.2753906 L2.8050514,6.2753906 L2.43209513,7.51611325 L0,7.51611325 L2.89435079,0 L5.48928597,0 L8.38363676,7.51611325 L5.89375968,7.51611325 L5.5155505,6.2753906 Z M5.0165245,4.65014647 L4.16555385,1.94824218 L3.31983611,4.65014647 L5.0165245,4.65014647 Z" id="A"></path>
                            <polygon id="V" points="8.38363676 0 10.8735138 0 12.6069726 5.40893553 14.3141668 0 16.7305032 0 13.8729227 7.51611325 11.2937463 7.51611325"></polygon>
                            <polygon id="I" points="17.6077384 0 19.9925573 0 19.9925573 7.51611325 17.6077384 7.51611325"></polygon>
                        </g>
                        <path d="M4.10006454,22.0013061 L4.10006454,17.9999713 L-9.78429846e-14,22.0013061 L4.10006454,22.0013061 Z M36.8831531,22.0013061 L36.9220968,17.9999713 L41,22.0013061 L36.8831531,22.0013061 Z" id="形状" fill="#3F896F"></path>
                        <path d="M36.8831531,12.822638 L36.8831531,13.1040377 L25.7960243,13.1040377 C24.6623968,13.1040377 23.7434101,12.2070861 23.7434101,11.1006403 L23.7434101,0 C24.2885527,-0.00388048753 24.8128033,0.204495112 25.2000347,0.579024002 L36.3054519,11.3969499 C36.6809216,11.7803746 36.8876027,12.2920757 36.8812166,12.822428 L36.8831531,12.822638 Z" id="路径" fill="#C1C7D0"></path>
                    </g>
                </g>
            </g>
        </g>
    </g>
</svg>