<?xml version="1.0" encoding="UTF-8"?>
<svg width="32px" height="32px" viewBox="0 0 32 32" version="1.1" xmlns="http://www.w3.org/2000/svg" xmlns:xlink="http://www.w3.org/1999/xlink">
    <title></title>
    <g id="师资管理" stroke="none" stroke-width="1" fill="none" fill-rule="evenodd">
        <g id="老师行程表" transform="translate(-652.000000, -608.000000)" fill-rule="nonzero">
            <g id="编组-4" transform="translate(252.000000, 88.000000)">
                <g id="编组-3备份-51" transform="translate(336.000000, 456.000000)">
                    <g id="编辑备份" transform="translate(64.000000, 64.000000)">
                        <rect id="矩形" fill="#000000" opacity="0" x="0" y="1.84926193e-07" width="31.9999998" height="31.9999998"></rect>
                        <path d="M30.2547329,4.58918269 L28.8955879,6.03107262 C28.8051438,6.12700762 28.6709756,6.14743124 28.5959179,6.07667068 L25.2723554,2.46810826 C25.1972976,2.39734767 25.2097594,2.26221264 25.3001917,2.16627764 L26.5720557,0.78975293 C27.3859932,-0.0737337521 28.5934947,-0.257486845 29.2690744,0.379322495 L30.533096,1.57081693 C31.2837334,2.27838683 31.1591027,3.62976101 30.2547329,4.58918269 Z M16.3509248,19.2712854 L12.8151164,15.3841331 L23.4935171,4.05569716 L27.1558185,7.80866939 L16.3509248,19.2712854 Z M8.45972436,23.7420573 L10.4504026,18.6960931 C10.4504026,18.6960931 10.6103063,17.6929116 11.0962361,17.1395635 L11.1319267,16.9927782 L14.794049,20.8548516 L14.6822144,20.9462746 C14.6822144,20.9462746 14.140206,21.4635859 13.2266092,21.5918693 L8.45972436,23.7420573 Z M18.7164145,4.22333572 L2.86227417,4.22333572 L2.86227417,30.1140063 L27.8337854,30.1140063 L27.8337854,13.7846433 L29.7197791,13.7846433 L29.7197791,30.1567993 C29.7197791,30.8756255 29.3082505,31.498266 28.7079912,31.8021855 C28.4621078,31.9286068 28.1832911,32 27.8877869,32 L2.77241492,32 C1.78044193,32 0.976280463,31.1958386 0.976280463,30.2038536 L0.976280463,30.2038059 C0.976280463,30.2006785 0.976280463,30.1975869 0.976757932,30.194543 C0.976280463,30.1819737 0.976280463,30.1694163 0.976280463,30.1567993 L0.976280463,3.3935582 C0.976280463,2.81024898 1.44913968,2.33734205 2.0324608,2.33734205 L2.80946633,2.33734205 C2.8216298,2.33734205 2.83269508,2.34166311 2.84163567,2.34857445 C2.90893461,2.34123339 2.97727201,2.33734205 3.04651664,2.33734205 L18.7164145,2.33734205 C18.7283631,2.33734205 18.7380438,2.34702267 18.7380438,2.35895936 L18.7380438,4.20170647 C18.7380438,4.21364316 18.7283631,4.22333572 18.7164145,4.22333572 Z" id="形状" fill="#999999"></path>
                    </g>
                </g>
            </g>
        </g>
    </g>
</svg>