<?xml version="1.0" encoding="UTF-8"?>
<svg width="24px" height="24px" viewBox="0 0 24 24" version="1.1" xmlns="http://www.w3.org/2000/svg" xmlns:xlink="http://www.w3.org/1999/xlink">
    <g id="运营直播间" stroke="none" stroke-width="1" fill="none" fill-rule="evenodd">
        <g id="图标/状态" transform="translate(-348.000000, -172.000000)" fill-rule="nonzero">
            <g id="表情" transform="translate(348.000000, 172.000000)">
                <circle id="椭圆形" stroke="currentColor" stroke-width="2" cx="12" cy="12" r="11"></circle>
                <path d="M7.73706637,15.275111 C7.73706637,15.275111 9.14340414,17.5226667 11.9998069,17.5226667 C14.8562096,17.5226667 16.7294126,15.275111 16.7294126,15.275111 C16.7294126,15.275111 17.791233,15.2715555 17.7907914,16.3986667 C17.7907914,16.3986667 15.9498316,19.0208889 11.9998069,19.0208889 C8.04978219,19.0208889 6.76402552,16.3986667 6.76402552,16.3986667 C6.76402552,16.3986667 6.72515689,15.275111 7.73706637,15.275111 C7.73706637,15.275111 7.73706637,15.275111 7.73706637,15.275111 C7.73706637,15.275111 7.73706637,15.275111 7.73706637,15.275111 Z" id="路径" fill="currentColor"></path>
                <path d="M8.51223056,8.14133334 C7.70305632,8.14133334 7.0422896,8.79955556 7.0422896,9.61111111 C7.0422896,10.4217778 7.70261463,11.08 8.51223056,11.08 C9.32538001,11.08 9.98217155,10.4217778 9.98217155,9.61111111 C9.98217155,8.79955556 9.32538001,8.14133334 8.51223056,8.14133334 C8.51223056,8.14133334 8.51223056,8.14133334 8.51223056,8.14133334 C8.51223056,8.14133334 8.51223056,8.14133334 8.51223056,8.14133334 C8.51223056,8.14133334 8.51223056,8.14133334 8.51223056,8.14133334 Z" id="路径" fill="currentColor"></path>
                <path d="M16.0434696,8.14133334 C15.2329703,8.14133334 14.574412,8.79955556 14.574412,9.61111111 C14.574412,10.4217778 15.2329703,11.08 16.0434696,11.08 C16.8557357,11.08 17.5134106,10.4217778 17.5134106,9.61111111 C17.5134106,8.79955556 16.8557357,8.14133334 16.0434696,8.14133334 C16.0434696,8.14133334 16.0434696,8.14133334 16.0434696,8.14133334 C16.0434696,8.14133334 16.0434696,8.14133334 16.0434696,8.14133334 C16.0434696,8.14133334 16.0434696,8.14133334 16.0434696,8.14133334 Z" id="路径" fill="currentColor"></path>
            </g>
        </g>
    </g>
</svg>