<?xml version="1.0" encoding="UTF-8"?>
<svg width="24px" height="24px" viewBox="0 0 24 24" version="1.1" xmlns="http://www.w3.org/2000/svg" xmlns:xlink="http://www.w3.org/1999/xlink">
    <g id="新直播" stroke="none" stroke-width="1" fill="none" fill-rule="evenodd">
        <g id="直播-摄像头" transform="translate(-1067.000000, -724.000000)">
            <g id="编组-18" transform="translate(1057.000000, 708.000000)">
                <g id="编组" transform="translate(10.000000, 16.000000)">
                    <rect id="矩形" fill-rule="nonzero" x="0" y="0" width="24" height="24"></rect>
                    <path d="M12,22 C17.52285,22 22,17.52285 22,12 C22,6.47715 17.52285,2 12,2 C6.47715,2 2,6.47715 2,12 C2,17.52285 6.47715,22 12,22 Z" id="路径" stroke="currentColor" stroke-width="1.5" stroke-linejoin="round"></path>
                    <path d="M15.5,15.5 C15.5,15.5 14.5,17.5 12,17.5 C9.5,17.5 8.5,15.5 8.5,15.5" id="路径" stroke="currentColor" stroke-width="1.5" stroke-linecap="round" stroke-linejoin="round"></path>
                    <path d="M10.5,10.5 C10.5,10.5 10,8.5 8.5,8.5 C7,8.5 6.5,10.5 6.5,10.5" id="路径" stroke="currentColor" stroke-width="1.5" stroke-linecap="round" stroke-linejoin="round"></path>
                    <path d="M17.5,10.5 C17.5,10.5 17,8.5 15.5,8.5 C14,8.5 13.5,10.5 13.5,10.5" id="路径" stroke="currentColor" stroke-width="1.5" stroke-linecap="round" stroke-linejoin="round"></path>
                </g>
            </g>
        </g>
    </g>
</svg>