<svg fill="none" xmlns="http://www.w3.org/2000/svg" viewBox="0 0 16 16" class="design-iconfont">
  <g clip-path="url(#ieg9z5rl3__clip0_23_139)">
    <path fill-rule="evenodd" clip-rule="evenodd" d="M11.4501 11.0438C11.6307 10.8631 11.6307 10.5702 11.4501 10.3895L8.8535 7.79286L11.4502 5.19627C11.6309 5.0156 11.6309 4.72268 11.4502 4.54201L11.0438 4.13562C10.8631 3.95494 10.5702 3.95494 10.3895 4.13561L7.79286 6.73218L5.1963 4.13551C5.01564 3.95483 4.72271 3.95483 4.54204 4.1355L4.13565 4.54189C3.95498 4.72256 3.95498 5.01549 4.13564 5.19617L6.73218 7.79282L4.13551 10.3894C3.95483 10.57 3.95483 10.863 4.1355 11.0436L4.54189 11.45C4.72256 11.6307 5.01549 11.6307 5.19617 11.45L7.79282 8.8535L10.3894 11.4502C10.5701 11.6309 10.863 11.6309 11.0437 11.4502L11.4501 11.0438Z" fill="#161616"/>
  </g>
  <defs>
    <clipPath id="ieg9z5rl3__clip0_23_139">
      <path fill="#fff" d="M0 0H16V16H0z"/>
    </clipPath>
  </defs>
</svg>
