<?xml version="1.0" encoding="UTF-8"?>
<svg width="42px" height="42px" viewBox="0 0 42 42" version="1.1" xmlns="http://www.w3.org/2000/svg" xmlns:xlink="http://www.w3.org/1999/xlink">
    <g id="页面-1" stroke="none" stroke-width="1" fill="none" fill-rule="evenodd">
        <g id="格式图标-" transform="translate(-297.000000, -194.000000)">
            <rect fill="#FFFFFF" x="0" y="0" width="890" height="438"></rect>
            <g id="编组-41" transform="translate(114.000000, 124.000000)" fill-rule="nonzero">
                <g id="编组-40" transform="translate(0.000000, 70.000000)">
                    <g id="bmp" transform="translate(183.000000, 0.000000)">
                        <path d="M37.6951073,38.0003454 C37.6971281,38.530655 37.4762678,39.0395753 37.0819937,39.4130135 C36.689245,39.787511 36.1571031,39.9981139 35.6021003,39.9987206 L6.28130074,39.9987206 C5.7257082,40.0009558 5.19246801,39.7899183 4.80140739,39.4130135 C4.40942458,39.0380931 4.18891126,38.5301546 4.18810663,38.0003454 L4.18810663,2.00345216 C4.18611247,1.47280413 4.40703107,0.963553901 4.80140739,0.589734004 C5.19347279,0.213773062 5.7256989,0.00170190136 6.28130074,5.79293857e-06 L24.2680522,5.79293857e-06 C24.8252804,-0.00366661265 25.3610666,0.204933887 25.7567414,0.579654004 L37.0890303,11.4040899 C37.4807262,11.7824088 37.6987637,12.2939824 37.6951073,12.8259981 L37.6951073,38.0003454 Z" id="路径" fill="#EBECF0"></path>
                        <path d="M37.6950753,38.0003454 L37.6950753,40.0005927 C37.6971268,40.5312104 37.4762893,41.0404563 37.0819937,41.4143109 C36.689245,41.7888084 36.1571031,41.9994113 35.6021003,42.0000002 L6.28130074,42.0000002 C5.12366344,41.9987254 4.18590414,41.1021471 4.18590414,39.9966027 L4.18590414,37.9982454 C4.18366493,38.528632 4.40464442,39.0376443 4.79920843,39.4109135 C5.19195715,39.785411 5.72409903,39.9960139 6.27910179,39.9966027 L35.5977024,39.9966027 C36.7540526,39.994983 37.6909689,39.1000401 37.6924222,37.9957254 L37.6950753,38.0003454 Z" id="路径" fill="#C1C7D0"></path>
                        <path d="M0,22.05 L41.8812021,22.05 L41.8812021,32.051657 C41.8793973,33.1554227 40.9444486,34.0505505 39.7886813,34.0550665 L2.09779834,34.0550665 C1.54220207,34.0569096 1.00900595,33.8460279 0.617465153,33.4695752 C0.222604439,33.0940215 0.000442330493,32.5838588 0,32.051657 L0,22.05 Z" id="路径" fill="#85BDFF"></path>
                        <g id="RMVB" transform="translate(8.136126, 24.150000)" fill="#FFFFFF">
                            <polygon id="M" points="8.30534195 0 11.5049902 0 12.7397538 4.57324219 13.9691488 0 17.15806 0 17.15806 7.51611328 15.1717012 7.51611328 15.1717012 1.78417969 13.630931 7.51611328 11.832471 7.51611328 10.2970693 1.78417969 10.2970693 7.51611328 8.30534195 7.51611328"></polygon>
                            <path d="M19.0016157,0.128173828 L23.0441243,0.128173828 C23.9245644,0.128173828 24.5839997,0.328125 25.0224303,0.728027344 C25.4608608,1.12792969 25.6800761,1.69702148 25.6800761,2.43530273 C25.6800761,3.1940918 25.4411762,3.78710938 24.9633763,4.21435547 C24.4855765,4.64160156 23.7563502,4.85522461 22.7756974,4.85522461 L21.4443001,4.85522461 L21.4443001,7.64428711 L19.0016157,7.64428711 L19.0016157,0.128173828 Z M21.4443001,3.33251953 L22.0402078,3.33251953 C22.50906,3.33251953 22.8383303,3.25476074 23.0280187,3.09924316 C23.217707,2.94372559 23.3125511,2.74462891 23.3125511,2.50195312 C23.3125511,2.26611328 23.2302336,2.06616211 23.0655984,1.90209961 C22.9009633,1.73803711 22.5913776,1.65600586 22.1368415,1.65600586 L21.4443001,1.65600586 L21.4443001,3.33251953 Z" id="P"></path>
                            <path d="M0,0 L4.55251963,0 C5.31127291,0 5.8937592,0.179443359 6.29997853,0.538330078 C6.70619785,0.897216797 6.90930751,1.34155273 6.90930751,1.87133789 C6.90930751,2.31567383 6.764357,2.69677734 6.47445599,3.01464844 C6.28118865,3.2265625 5.99844568,3.39404297 5.62622709,3.51708984 C6.19171302,3.64697266 6.60777466,3.86999512 6.87441202,4.18615723 C7.14104937,4.50231934 7.27436805,4.8996582 7.27436805,5.37817383 C7.27436805,5.76782227 7.17952389,6.11816406 6.98983557,6.42919922 C6.80014725,6.74023438 6.54066795,6.98632812 6.21139766,7.16748047 C6.00739324,7.28027344 5.6995971,7.36230469 5.28800924,7.41357422 C4.74041844,7.48193359 4.37714741,7.51611328 4.19819617,7.51611328 L0,7.51611328 L0,0 Z M2.45342155,2.94799805 L3.5110234,2.94799805 C3.89040003,2.94799805 4.15435312,2.88562012 4.30288265,2.76086426 C4.45141218,2.6361084 4.52567695,2.45581055 4.52567695,2.2199707 C4.52567695,2.0012207 4.45141218,1.83032227 4.30288265,1.70727539 C4.15435312,1.58422852 3.89576857,1.52270508 3.52712901,1.52270508 L2.45342155,1.52270508 L2.45342155,2.94799805 Z M2.45342155,5.90112305 L3.69355366,5.90112305 C4.11229957,5.90112305 4.40756913,5.8302002 4.57936232,5.68835449 C4.75115551,5.54650879 4.83705211,5.35595703 4.83705211,5.11669922 C4.83705211,4.89453125 4.75205027,4.71594238 4.58204659,4.58093262 C4.41204291,4.44592285 4.11408909,4.37841797 3.68818513,4.37841797 L2.45342155,4.37841797 L2.45342155,5.90112305 Z" id="B"></path>
                        </g>
                        <path d="M4.19031915,22.0013062 L4.19031915,17.9999714 L0,22.0013062 L4.19031915,22.0013062 Z M37.6950609,22.0013062 L37.7348619,17.9999714 L41.9025319,22.0013062 L37.6950609,22.0013062 Z" id="形状" fill="#4F7199"></path>
                        <path d="M37.6950609,12.8226381 L37.6950609,13.1040377 L26.3638715,13.1040377 C25.2052895,13.1040377 24.2660732,12.2070861 24.2660732,11.1006403 L24.2660732,0 C24.823216,-0.00388048754 25.3590069,0.204495113 25.7547624,0.579024004 L37.1046429,11.3969499 C37.4883778,11.7803746 37.6996086,12.2920758 37.6930819,12.8224281 L37.6950609,12.8226381 Z" id="路径" fill="#C1C7D0"></path>
                    </g>
                </g>
            </g>
        </g>
    </g>
</svg>