<?xml version="1.0" encoding="UTF-8"?>
<svg width="30px" height="30px" viewBox="0 0 30 30" version="1.1" xmlns="http://www.w3.org/2000/svg" xmlns:xlink="http://www.w3.org/1999/xlink">
    <g id="师资管理" stroke="none" stroke-width="1" fill="none" fill-rule="evenodd">
        <g id="师资档案详情" transform="translate(-355.000000, -1042.000000)">
            <g id="编组-11" transform="translate(272.000000, 954.000000)">
                <g id="编组-20" transform="translate(0.000000, 48.000000)">
                    <g id="编组-2" transform="translate(83.000000, 40.000000)">
                        <circle id="椭圆形" fill="#333333" opacity="0.600000024" cx="15" cy="15" r="15"></circle>
                        <path d="M18.6959966,9.71359457 L25.0875013,19.9400021 C25.672922,20.8766752 25.3881757,22.1105759 24.4515026,22.6959966 C24.1336394,22.8946611 23.7663442,23 23.3915047,23 L10.6084953,23 C9.50392578,23 8.60849528,22.1045695 8.60849528,21 C8.60849528,20.6251606 8.71383417,20.2578653 8.91249868,19.9400021 L15.3040034,9.71359457 C15.8894241,8.77692151 17.1233248,8.49217518 18.0599979,9.07759584 C18.3175361,9.23855726 18.5350352,9.45605631 18.6959966,9.71359457 Z" id="三角形" fill="#FFFFFF" transform="translate(17.000000, 15.000000) rotate(-270.000000) translate(-17.000000, -15.000000) "></path>
                    </g>
                </g>
            </g>
        </g>
    </g>
</svg>