<?xml version="1.0" encoding="UTF-8"?>
<svg width="20px" height="20px" viewBox="0 0 20 20" version="1.1" xmlns="http://www.w3.org/2000/svg" xmlns:xlink="http://www.w3.org/1999/xlink">
    <g id="产品管理" stroke="none" stroke-width="1" fill="none" fill-rule="evenodd">
        <g id="编组-145">
            <rect id="矩形" x="0" y="0" width="20" height="20"></rect>
            <g id="编组" transform="translate(1.000000, 2.000000)" stroke-linejoin="round">
                <path d="M15.75,0 L2.25,0 C1.007361,0 0,0.987608824 0,2.20588235 L0,12.7941176 C0,14.0123824 1.007361,15 2.25,15 L15.75,15 C16.99263,15 18,14.0123824 18,12.7941176 L18,2.20588235 C18,0.987608824 16.99263,0 15.75,0 Z" id="路径" stroke="#333333"></path>
                <polyline id="路径" stroke="#0C6FFF" stroke-linecap="round" points="6.3 3.52941176 9 6.17647059 11.7 3.52941176"></polyline>
                <line x1="5.85" y1="7.05882353" x2="12.15" y2="7.05882353" id="路径" stroke="#0C6FFF" stroke-linecap="round"></line>
                <line x1="5.85" y1="9.70588235" x2="12.15" y2="9.70588235" id="路径" stroke="#0C6FFF" stroke-linecap="round"></line>
                <line x1="9" y1="7.05882353" x2="9" y2="11.9117647" id="路径" stroke="#0C6FFF" stroke-linecap="round"></line>
            </g>
        </g>
    </g>
</svg>