<?xml version="1.0" encoding="UTF-8"?>
<svg width="20px" height="20px" viewBox="0 0 20 20" version="1.1" xmlns="http://www.w3.org/2000/svg" xmlns:xlink="http://www.w3.org/1999/xlink">
    <g id="产品管理" stroke="none" stroke-width="1" fill="none" fill-rule="evenodd">
        <g id="课程产品" transform="translate(-585.000000, -391.000000)">
            <g id="编组-22" transform="translate(272.000000, 178.000000)">
                <g id="编组-5备份-3" transform="translate(21.000000, 208.000000)">
                    <g id="编组-25" transform="translate(292.000000, 5.000000)">
                        <rect id="矩形" x="0" y="0" width="20" height="20"></rect>
                        <g id="16px/线性/通用/icon-delete" transform="translate(3.000000, 3.000000)" fill="#F53F3F">
                            <path d="M9.1,0 C9.48659833,0 9.8,0.3134005 9.8,0.7 L9.79965,1.39965 L13.5513,1.4 C13.7072833,1.4 13.7638667,1.41624 13.8209167,1.44674833 C13.8779667,1.47725667 13.9227667,1.52201 13.9532167,1.57904833 C13.9837833,1.63608667 14,1.69267 14,1.84867667 L14,2.35132333 C14,2.50734167 13.9837833,2.56391333 13.9532167,2.62095167 C13.9227667,2.67799 13.8779667,2.72274333 13.8209167,2.75325167 C13.7638667,2.78376 13.7072833,2.8 13.5513,2.8 L12.59965,2.79965 L12.6,13.3 C12.6,13.6866333 12.2866333,14 11.9,14 L2.1,14 C1.71340167,14 1.4,13.6866333 1.4,13.3 L1.39965,2.79965 L0.448680167,2.8 C0.292664167,2.8 0.236089,2.78376 0.179051833,2.75325167 C0.122014667,2.72274333 0.077252,2.67799 0.0467482167,2.62095167 C0.01624455,2.56391333 0,2.50734167 0,2.35132333 L0,1.84867667 C0,1.69267 0.01624455,1.63608667 0.0467482167,1.57904833 C0.077252,1.52201 0.122014667,1.47725667 0.179051833,1.44674833 C0.236089,1.41624 0.292664167,1.4 0.448680167,1.4 L4.19965,1.39965 L4.2,0.7 C4.2,0.3134005 4.51340167,0 4.9,0 L9.1,0 Z M11.19965,2.79965 L2.79965,2.79965 L2.8,12.6 L11.2,12.6 L11.19965,2.79965 Z M5.95,4.9 C6.143305,4.9 6.3,5.056695 6.3,5.25 L6.3,10.15 C6.3,10.343305 6.143305,10.5 5.95,10.5 L5.25,10.5 C5.056695,10.5 4.9,10.343305 4.9,10.15 L4.9,5.25 C4.9,5.056695 5.056695,4.9 5.25,4.9 L5.95,4.9 Z M8.75,4.9 C8.943305,4.9 9.1,5.056695 9.1,5.25 L9.1,10.15 C9.1,10.343305 8.943305,10.5 8.75,10.5 L8.05,10.5 C7.856695,10.5 7.7,10.343305 7.7,10.15 L7.7,5.25 C7.7,5.056695 7.856695,4.9 8.05,4.9 L8.75,4.9 Z" id="形状"></path>
                        </g>
                    </g>
                </g>
            </g>
        </g>
    </g>
</svg>