<?xml version="1.0" encoding="UTF-8"?>
<svg width="14px" height="14px" viewBox="0 0 14 14" version="1.1" xmlns="http://www.w3.org/2000/svg" xmlns:xlink="http://www.w3.org/1999/xlink">
    <g id="运营直播间" stroke="none" stroke-width="1" fill="none" fill-rule="evenodd">
        <g id="右键" transform="translate(-1013.000000, -401.000000)">
            <g id="编组-6" transform="translate(339.000000, 340.000000)">
                <g id="右键功能备份-3" transform="translate(654.000000, 0.000000)">
                    <g id="编组备份" transform="translate(10.000000, 52.000000)">
                        <g id="编组-27" transform="translate(10.000000, 9.000000)">
                            <rect id="矩形" x="0" y="0" width="14" height="14"></rect>
                            <g id="撤回" transform="translate(1.500000, 2.000000)" fill="#333333" fill-rule="nonzero">
                                <path d="M6.6,2.29058361 L1.925,2.29058361 L3.245,0.949815542 C3.465,0.726354198 3.465,0.391162181 3.245,0.167700836 C3.14468512,0.0606159342 3.0055258,0 2.86,0 C2.7144742,0 2.57531488,0.0606159342 2.475,0.167700836 L0.165,2.51404495 C0.055,2.62577563 0,2.79337164 0,2.90510231 C0,3.07269832 0.055,3.18442899 0.165,3.29615966 L2.475,5.64250378 C2.695,5.86596512 3.025,5.86596512 3.245,5.64250378 C3.465,5.41904244 3.465,5.08385042 3.245,4.86038907 L1.65,3.24029432 L6.6,3.24029432 C8.47,3.24029432 10.01,4.52519706 10.01,6.08942647 C10.01,7.65365588 8.47,8.93855861 6.6,8.93855861 L2.695,8.93855861 C2.42,8.99442395 2.2,9.21788529 2.2,9.49721197 C2.2,9.77653866 2.42,10 2.695,10 L6.6,10 C9.02,10 11,8.26817458 11,6.14529181 C11,4.02240903 9.02,2.29058361 6.6,2.29058361 Z" id="路径"></path>
                            </g>
                        </g>
                    </g>
                </g>
            </g>
        </g>
    </g>
</svg>