<?xml version="1.0" encoding="UTF-8"?>
<svg width="20px" height="20px" viewBox="0 0 20 20" version="1.1" xmlns="http://www.w3.org/2000/svg" xmlns:xlink="http://www.w3.org/1999/xlink">
    <title>编组 67</title>
    <g id="视频管理V2.2.7" stroke="none" stroke-width="1" fill="none" fill-rule="evenodd">
        <g id="素材数据看板视频组（脱敏数据）" transform="translate(-1761.000000, -162.000000)">
            <g id="编组-67" transform="translate(1761.000000, 162.000000)">
                <rect id="矩形" x="0" y="0" width="20" height="20"></rect>
                <g id="编组" transform="translate(2.000000, 3.000000)" fill="#0C6FFF" fill-rule="nonzero">
                    <path d="M3.13977698,14.691482 L0.10627462,10.173536 C-0.022426009,9.97645814 -0.035094382,9.72536449 0.0731169427,9.51633379 C0.185287849,9.30916095 0.402057293,9.18020924 0.63764764,9.18050553 L15.3596564,9.18050553 C15.7118194,9.18050553 15.997304,9.46599061 15.997304,9.81815368 C15.997304,10.1703167 15.7118194,10.4558013 15.3596564,10.4558013 L1.83132402,10.4558013 L4.20082265,13.9841183 C4.39588511,14.2772648 4.31720388,14.6729516 4.02483191,14.8691732 C3.92079134,14.9405645 3.7973242,14.9782576 3.67115002,14.977172 C3.45706161,14.9781233 3.25704917,14.8705966 3.13977698,14.691482 L3.13977698,14.691482 Z M0.63764764,5.79417198 C0.285484573,5.79417198 0,5.50868741 0,5.15652434 C0,4.80436127 0.285484573,4.5188767 0.63764764,4.5188767 L14.16598,4.5188767 L11.8015825,0.990559749 C11.6057799,0.698968729 11.6834317,0.303858081 11.9750227,0.108055415 C12.2666137,-0.0877472503 12.6617244,-0.0100954465 12.857527,0.281495573 L15.8910294,4.79944166 C16.0231299,4.99516892 16.0360775,5.24792539 15.9246685,5.45612657 C15.8132594,5.66432775 15.5957876,5.79378614 15.3596564,5.79247157 L0.63764764,5.79417198 Z" id="形状"></path>
                </g>
            </g>
        </g>
    </g>
</svg>