<?xml version="1.0" encoding="UTF-8"?>
<svg width="20px" height="20px" viewBox="0 0 20 20" version="1.1" xmlns="http://www.w3.org/2000/svg" xmlns:xlink="http://www.w3.org/1999/xlink">
    <g id="讲师管理" stroke="none" stroke-width="1" fill="none" fill-rule="evenodd">
        <g id="师资评估-左滑" transform="translate(-28.000000, -457.000000)">
            <g id="编组-144备份" transform="translate(0.000000, 69.000000)">
                <g id="Group-13备份-3" transform="translate(8.000000, 379.000000)">
                    <g id="编组-19" transform="translate(20.000000, 9.000000)">
                        <g id="编组" transform="translate(-1.000000, -5.000000)">
                            <path d="M4.77612789,4.29655038 C4.94223663,4.24414763 5.12080048,4.24659724 5.28540922,4.3035369 L5.28540922,4.3035369 L14.326757,7.43102129 C14.5657455,7.5136896 14.7525159,7.70307346 14.8318555,7.94318761 L14.8318555,7.94318761 L17.7519485,16.7805875 C17.8222344,16.9933013 17.7996469,17.2143665 17.7063096,17.3998247 C17.6129723,17.5852829 17.448885,17.7351341 17.2361712,17.80542 L17.2361712,17.80542 L7.71653909,15.1275372 C7.45832419,15.0507864 7.25504665,14.8508699 7.1740019,14.5939704 L7.1740019,14.5939704 L4.2465224,5.31430575 C4.17912297,5.1006598 4.20470136,4.87992067 4.3005411,4.69574318 C4.39638085,4.51156568 4.56248193,4.36394981 4.77612789,4.29655038 Z" id="矩形" stroke="#979797" stroke-width="0.695371627" transform="translate(11.000000, 11.000000) rotate(-45.000000) translate(-11.000000, -11.000000) "></path>
                            <path d="M14.8082776,7.38122828 L20.0181453,10.0025729 C20.589891,10.2903209 20.8201167,10.9870781 20.5323687,11.5588238 C20.425947,11.7702803 20.2573237,11.9440763 20.0491784,12.0568368 L14.8382776,14.8792283 L9.00920307,11.8455442 C8.55496514,11.6091742 8.37834833,11.0493258 8.6147184,10.5950878 C8.70660672,10.4185039 8.85288768,10.2761821 9.03192583,10.1891723 L14.8082776,7.38122828 Z" id="形状结合" fill="#0C6FFF"></path>
                            <path d="M4.8219526,4.44180776 L14.2769649,7.57496696 C14.4710837,7.64211441 14.6227882,7.79594173 14.6872319,7.9909748 L14.6872319,7.9909748 L17.6073249,16.8283747 C17.6644147,17.0011518 17.646068,17.1807123 17.5702546,17.331351 C17.4944412,17.4819897 17.3611611,17.6037066 17.188384,17.6607964 C17.060583,17.7030249 16.9229154,17.7051046 16.7938972,17.6667557 L16.7938972,17.6667557 L7.7599359,14.9815361 C7.55020047,14.9191952 7.385088,14.7568127 7.31925928,14.5481456 L7.31925928,14.5481456 L4.39177978,5.26848103 C4.33703449,5.0949468 4.35781058,4.91565112 4.43565655,4.76605269 C4.51350252,4.61645425 4.64841837,4.49655305 4.8219526,4.44180776 L4.8219526,4.44180776 Z" id="矩形备份-5" stroke="#333333" transform="translate(11.000000, 11.000000) rotate(-45.000000) translate(-11.000000, -11.000000) "></path>
                            <path d="M17.4215642,21.5472148 L8.38779211,18.8620514 C8.01269341,18.7505585 7.71631595,18.4590566 7.59856653,18.0858088 L4.67115923,8.80637308" id="路径" stroke="#333333" stroke-linecap="round" stroke-linejoin="round" transform="translate(11.046362, 15.176794) rotate(-45.000000) translate(-11.046362, -15.176794) "></path>
                            <path d="M17.4215642,25.3627859 L8.38779211,22.6776225 C8.01269341,22.5661296 7.71631595,22.2746276 7.59856653,21.9013799 L4.67115923,12.6219442" id="路径备份" stroke="#333333" stroke-linecap="round" stroke-linejoin="round" transform="translate(11.046362, 18.992365) rotate(-45.000000) translate(-11.046362, -18.992365) "></path>
                        </g>
                    </g>
                </g>
            </g>
        </g>
    </g>
</svg>