<svg xmlns="http://www.w3.org/2000/svg" fill="none" viewBox="0 0 20 20" class="design-iconfont">
  <path stroke="rgba(233, 111, 36, 1)" stroke-width="1.33333333" stroke-linejoin="round" stroke-linecap="round" d="M17.5 15.8367C17.5 15.8367 15 13.75 15 7.91666C15 5.15524 12.5 2.91666 10 2.91666C8.94167 2.91666 4.99 3.49998 4.99 7.91666M17.5 15.8367L2.5 15.8367C2.5 15.8367 4.82029 13.2746 4.99 7.91666"/>
  <path d="M7.5 15.8333L12.5 15.8333C12.5 17.2141 11.3807 18.3333 10 18.3333C8.61929 18.3333 7.5 17.2141 7.5 15.8333Z" stroke="rgba(233, 111, 36, 1)" stroke-width="1.33333333"/>
  <path d="M9.99998 0.833344C9.07952 0.833344 8.33331 1.57954 8.33331 2.50001L11.6666 2.50001C11.6666 1.57954 10.9204 0.833344 9.99998 0.833344Z" fill-rule="evenodd" fill="#E96F24"/>
</svg>
