<svg xmlns="http://www.w3.org/2000/svg" fill="none" viewBox="0 0 18 18" class="design-iconfont">
  <path d="M16.4924 2.28C16.4924 1.94999 16.2224 1.67999 15.8924 1.67999C15.7799 1.67999 15.6824 1.70999 15.5924 1.7625L2.18237 8.8425C1.98738 8.94 1.85986 9.1575 1.85986 9.3825C1.85986 9.6075 1.98738 9.81 2.18987 9.91499L5.66987 11.82C5.75987 11.8575 5.85737 11.88 5.93987 11.88C6.17237 11.88 6.37487 11.7525 6.47987 11.55C6.62237 11.2575 6.50237 10.89 6.20987 10.74L3.77987 9.3675L13.5149 4.2075L7.39486 11.6475C7.30486 11.7675 7.25237 11.9025 7.25237 12.0375L7.25237 15.72C7.25237 16.0425 7.52986 16.32 7.85237 16.32C8.17487 16.32 8.45236 16.0425 8.45236 15.72L8.45236 12.2625L14.9699 4.3275L13.7099 14.4225L10.0499 12.675C9.97487 12.63 9.88487 12.615 9.78737 12.615C9.55486 12.615 9.35236 12.7425 9.24737 12.9525C9.17987 13.095 9.16487 13.26 9.21736 13.41C9.26987 13.5675 9.37486 13.6875 9.51737 13.755L13.9349 15.84C14.0099 15.885 14.0999 15.9 14.1974 15.9C14.2874 15.9 14.3849 15.8775 14.4749 15.8325C14.6474 15.7425 14.7674 15.5775 14.7899 15.39L16.4924 2.35499L16.4924 2.33249L16.4924 2.28Z" fill="#FFF"/>
</svg>
