<svg xmlns="http://www.w3.org/2000/svg" xmlns:xlink="http://www.w3.org/1999/xlink" width="24" height="24" viewBox="0 0 24 24" fill="none">
<path d="M4.38461 12C4.38461 7.79413 7.79413 4.38461 12 4.38461C13.3882 4.38461 14.6878 4.75544 15.8072 5.40299C17.4117 6.33117 18.6459 7.82777 19.2348 9.61531C19.4815 10.3646 19.6154 11.1659 19.6154 12C19.6154 12.194 19.6082 12.3861 19.5939 12.5762C19.5654 12.9575 19.8514 13.2897 20.2327 13.3181C20.614 13.3467 20.9461 13.0607 20.9747 12.6794C20.9915 12.455 21 12.2284 21 12C21 11.0169 20.8421 10.0694 20.5498 9.18211C19.8531 7.06714 18.395 5.30034 16.5004 4.20446C15.176 3.43829 13.6382 3 12 3C7.02943 3 3 7.02943 3 12C3 16.9705 7.02943 21 12 21C12.675 21 13.3335 20.9255 13.9674 20.7841C14.3406 20.7008 14.5756 20.3308 14.4924 19.9576C14.4091 19.5845 14.0391 19.3494 13.6659 19.4327C13.1304 19.5521 12.5729 19.6154 12 19.6154C7.79413 19.6154 4.38461 16.2058 4.38461 12ZM18.923 16.6154C18.923 17.38 18.3031 18 17.5384 18C16.7738 18 16.1538 17.38 16.1538 16.6154C16.1538 15.8506 16.7738 15.2307 17.5384 15.2307C18.3031 15.2307 18.923 15.8506 18.923 16.6154ZM20.3077 16.6154C20.3077 18.1447 19.0679 19.3846 17.5384 19.3846C16.009 19.3846 14.7692 18.1447 14.7692 16.6154C14.7692 15.0859 16.009 13.8461 17.5384 13.8461C19.0679 13.8461 20.3077 15.0859 20.3077 16.6154ZM9.44201 8.08412C9.73574 7.83935 10.1723 7.87903 10.4171 8.17276L12.0006 10.073L13.5842 8.17276C13.8289 7.87903 14.2655 7.83935 14.5592 8.08412C14.8529 8.3289 14.8926 8.76544 14.6478 9.05918L13.4787 10.4621L14.5384 10.4621C14.9208 10.4621 15.2307 10.7721 15.2307 11.1544C15.2307 11.5368 14.9208 11.8467 14.5384 11.8467L12.6923 11.8467L12.6923 13.0005L14.5384 13.0005C14.9208 13.0005 15.2307 13.3105 15.2307 13.6928C15.2307 14.0752 14.9208 14.3851 14.5384 14.3851L12.6923 14.3851L12.6923 16.2313C12.6923 16.6137 12.3823 16.9236 12 16.9236C11.6176 16.9236 11.3077 16.6137 11.3077 16.2313L11.3077 14.3851L9.46152 14.3851C9.07918 14.3851 8.76922 14.0752 8.76922 13.6928C8.76922 13.3105 9.07918 13.0005 9.46152 13.0005L11.3077 13.0005L11.3077 11.8467L9.46152 11.8467C9.07918 11.8467 8.76922 11.5368 8.76922 11.1544C8.76922 10.7721 9.07918 10.4621 9.46152 10.4621L10.5225 10.4621L9.35338 9.05918C9.1086 8.76544 9.14829 8.3289 9.44201 8.08412Z" fill-rule="evenodd" fill="currentColor" >
</path>
</svg>
