<?xml version="1.0" encoding="UTF-8"?>
<svg width="14px" height="14px" viewBox="0 0 14 14" version="1.1" xmlns="http://www.w3.org/2000/svg" xmlns:xlink="http://www.w3.org/1999/xlink">
    <g id="在线剪辑" stroke="none" stroke-width="1" fill="none" fill-rule="evenodd">
        <g id="在线剪辑-产品" transform="translate(-58.000000, -285.000000)">
            <g id="编组-14" transform="translate(0.000000, 68.000000)">
                <g id="编组-13" transform="translate(10.000000, 10.000000)">
                    <g id="编组-9备份-9" transform="translate(0.000000, 171.000000)">
                        <g id="标签/中标签/普通标签" transform="translate(38.000000, 31.000000)">
                            <g id="编组-57" transform="translate(10.000000, 1.000000)">
                                <g id="编组-23" transform="translate(0.000000, 4.000000)">
                                    <rect id="矩形" x="0" y="0" width="14" height="14"></rect>
                                    <g id="编组-80" transform="translate(1.000000, 1.000000)" fill-rule="nonzero">
                                        <path d="M0,6.125 C4.14266673e-16,9.50774409 2.74225591,12.25 6.125,12.25 C9.50774409,12.25 12.25,9.50774409 12.25,6.125 C12.25,2.74225591 9.50774409,-6.21400009e-16 6.125,0 C2.74225591,6.21400009e-16 -4.14266673e-16,2.74225591 0,6.125 Z" id="路径" fill="#0C6FFF"></path>
                                        <g id="编组-79" transform="translate(3.200000, 3.000000)" fill="#FFFFFF">
                                            <path d="M1.03925015,1.86815784 L2.86467487,0.0554305986 C2.93848858,-0.0180893909 3.05916813,-0.0180893909 3.13298184,0.0531330989 L3.13532513,0.0554305986 L4.96074985,1.86815784 C5.03456356,1.94167783 5.03339192,2.05999906 4.95840656,2.13122155 C4.92325718,2.16568405 4.87521968,2.18406404 4.82601054,2.18406404 L3.76098418,2.18406404 L3.76098418,4.26330124 C3.76098418,4.36668873 3.67545401,4.44939872 3.5711775,4.44939872 L2.44288225,4.44939872 C2.33743409,4.44939872 2.25307557,4.36553998 2.25307557,4.26330124 L2.25307557,2.18406404 L1.17633275,2.18406404 C1.07088459,2.18406404 0.986526069,2.1002053 0.986526069,1.99796657 C0.985354423,1.94857033 1.00410076,1.90262033 1.03925015,1.86815784 Z" id="路径"></path>
                                            <path d="M5.81136497,5.97838475 L0.187463386,5.97838475 C0.0843585237,5.97838475 0,5.89682351 0,5.79688227 L0,5.42468733 C0,5.32474609 0.0843585237,5.24318485 0.187463386,5.24318485 L5.81253661,5.24318485 C5.91564148,5.24318485 6,5.32474609 6,5.42468733 L6,5.79688227 C5.99882835,5.89682351 5.91446983,5.97838475 5.81136497,5.97838475 Z" id="路径"></path>
                                        </g>
                                    </g>
                                </g>
                            </g>
                        </g>
                    </g>
                </g>
            </g>
        </g>
    </g>
</svg>