<?xml version="1.0" encoding="UTF-8"?>
<svg width="20px" height="20px" viewBox="0 0 20 20" version="1.1" xmlns="http://www.w3.org/2000/svg" xmlns:xlink="http://www.w3.org/1999/xlink">
    <title>编组 2</title>
    <g id="智慧直播1.4" stroke="none" stroke-width="1" fill="none" fill-rule="evenodd">
        <g id="12-5-6中奖结果" transform="translate(-1094.000000, -768.000000)">
            <g id="编组-3" transform="translate(220.000000, 215.000000)">
                <g id="编组" transform="translate(854.000000, 547.000000)">
                    <g id="编组-2" transform="translate(20.000000, 6.000000)">
                        <rect id="矩形" x="0" y="0" width="20" height="20"></rect>
                        <path d="M6.5,7.33431457 C6.77614237,7.33431457 7,7.5581722 7,7.83431457 C7,8.11045695 6.77614237,8.33431457 6.5,8.33431457 L4,8.33431457 C3.22030388,8.33431457 2.57955132,8.92920266 2.50686658,9.68985456 L2.5,9.83431457 L2.5,15.8343146 C2.5,16.6627417 3.17157288,17.3343146 4,17.3343146 L16,17.3343146 C16.8284271,17.3343146 17.5,16.6627417 17.5,15.8343146 L17.5,9.83431457 C17.5,9.00588745 16.8284271,8.33431457 16,8.33431457 L13.5,8.33431457 C13.2238576,8.33431457 13,8.11045695 13,7.83431457 C13,7.5581722 13.2238576,7.33431457 13.5,7.33431457 L16,7.33431457 C17.3807119,7.33431457 18.5,8.4536027 18.5,9.83431457 L18.5,15.8343146 C18.5,17.2150264 17.3807119,18.3343146 16,18.3343146 L4,18.3343146 C2.61928813,18.3343146 1.5,17.2150264 1.5,15.8343146 L1.5,9.83431457 C1.5,8.4536027 2.61928813,7.33431457 4,7.33431457 L6.5,7.33431457 Z M10.2828427,2.11715729 L13.3171573,5.15147185 C13.473367,5.30768157 13.473367,5.56094756 13.3171573,5.71715728 C13.2421427,5.79217184 13.1404012,5.83431457 13.0343146,5.83431457 L11,5.83431457 L11,12.8343146 C11,13.3865993 10.5522847,13.8343146 10,13.8343146 C9.44771525,13.8343146 9,13.3865993 9,12.8343146 L9,5.83431457 L6.96568544,5.83431457 C6.74477154,5.83431457 6.56568543,5.65522847 6.56568543,5.43431457 C6.56568543,5.32822797 6.60782817,5.2264864 6.68284272,5.15147185 L9.71715728,2.11715729 C9.873367,1.96094757 10.126633,1.96094757 10.2828427,2.11715729 Z" id="形状结合" fill="#FFF9F9" fill-rule="nonzero"></path>
                    </g>
                </g>
            </g>
        </g>
    </g>
</svg>