<?xml version="1.0" encoding="UTF-8"?>
<svg width="20px" height="20px" viewBox="0 0 20 20" version="1.1" xmlns="http://www.w3.org/2000/svg" xmlns:xlink="http://www.w3.org/1999/xlink">
    <title>删除</title>
    <g id="智慧直播1.4" stroke="none" stroke-width="1" fill="none" fill-rule="evenodd">
        <g id="12-5-2公共聊天室" transform="translate(-738.000000, -459.000000)">
            <g id="未点中时" transform="translate(637.000000, 453.000000)">
                <g id="编组-42备份" transform="translate(85.000000, 0.000000)">
                    <g id="删除" transform="translate(16.000000, 6.000000)">
                        <rect id="矩形" x="0" y="0" width="20" height="20"></rect>
                        <g id="编组-60" transform="translate(4.000000, 3.000000)">
                            <path d="M3,2 C3,0.8954305 3.8954305,2.02906125e-16 5,0 L7,0 C8.1045695,-2.02906125e-16 9,0.8954305 9,2 L9,2 L9,2" id="路径" stroke="#333333" stroke-linecap="round" stroke-linejoin="round"></path>
                            <rect id="矩形" fill="#333333" x="0" y="3" width="12" height="1" rx="0.5"></rect>
                            <path d="M11,5 L11,11.5999999 C11,12.9254834 9.92548336,14 8.5999999,14 L3,14 C1.8954305,14 1,13.1045695 1,12 L1,5 L1,5" id="路径" stroke="#333333" stroke-linecap="round" stroke-linejoin="round"></path>
                            <rect id="矩形" fill="#333333" x="4" y="6" width="1" height="5" rx="0.5"></rect>
                            <rect id="矩形备份" fill="#333333" x="7" y="6" width="1" height="5" rx="0.5"></rect>
                        </g>
                    </g>
                </g>
            </g>
        </g>
    </g>
</svg>