<?xml version="1.0" encoding="UTF-8"?>
<svg width="14px" height="14px" viewBox="0 0 14 14" version="1.1" xmlns="http://www.w3.org/2000/svg" xmlns:xlink="http://www.w3.org/1999/xlink">
    <g id="在线剪辑" stroke="none" stroke-width="1" fill="none" fill-rule="evenodd">
        <g id="在线剪辑-产品" transform="translate(-225.000000, -154.000000)">
            <g id="编组-14" transform="translate(0.000000, 68.000000)">
                <g id="编组-13" transform="translate(10.000000, 10.000000)">
                    <g id="编组-9备份-2" transform="translate(167.000000, 40.000000)">
                        <g id="标签/中标签/普通标签" transform="translate(38.000000, 31.000000)">
                            <g id="编组-57" transform="translate(10.000000, 1.000000)">
                                <g id="check-circle-filled" transform="translate(0.000000, 4.000000)">
                                    <path d="M0,0 L14,0 L14,14 L0,14 L0,0 Z" id="check-circle-filled-(Background)"></path>
                                    <path d="M13.125,7 C13.125,3.6172559 10.3827443,0.875 7,0.875 C3.6172559,0.875 0.875,3.6172559 0.875,7 C0.875,10.3827443 3.6172559,13.125 7,13.125 C10.3827443,13.125 13.125,10.3827443 13.125,7 Z M6.125,9.36862481 L10.0625,5.43156248 L9.4434371,4.8125 L6.125,8.13137519 L4.55568755,6.5625 L3.9375,7.18068755 L6.125,9.36862481 Z" fill="#00B42A"></path>
                                </g>
                            </g>
                        </g>
                    </g>
                </g>
            </g>
        </g>
    </g>
</svg>