<svg xmlns="http://www.w3.org/2000/svg" fill="none" viewBox="0 0 24 24" class="design-iconfont">
  <path d="M9.29289 2.28124L9.21519 2.365C8.90436 2.7419 8.93026 3.291 9.29289 3.63921L10.5332 4.83014C6.26029 5.50268 3 9.06473 3 13.358C3 17.0281 5.38254 20.1638 8.74346 21.4169L9.3625 19.5861C6.80377 18.586 5 16.1742 5 13.358C5 10.253 7.19253 7.63975 10.172 6.86787L9.29289 7.7131C8.90237 8.08809 8.90237 8.69608 9.29289 9.07107C9.68342 9.44606 10.3166 9.44606 10.7071 9.07107L13.5355 6.35514C13.9261 5.98015 13.9261 5.37216 13.5355 4.99717L10.7071 2.28124C10.3166 1.90625 9.68342 1.90625 9.29289 2.28124ZM12.0039 16.2355C13.6608 16.2355 15.0039 14.9457 15.0039 13.3548C15.0039 11.7638 13.6608 10.4741 12.0039 10.4741C10.347 10.4741 9.0039 11.7638 9.0039 13.3548C9.0039 14.9457 10.347 16.2355 12.0039 16.2355ZM20.0001 12.3977C19.4478 12.3977 19.0001 12.8276 19.0001 13.3579C19.0001 13.7927 18.9571 14.2177 18.875 14.6295L20.7893 15.226C20.9273 14.6244 21.0001 13.9993 21.0001 13.3579C21.0001 12.8276 20.5524 12.3977 20.0001 12.3977ZM20.1428 17.0434L18.2199 16.4443C17.9861 16.878 17.7045 17.2841 17.3818 17.6562L18.6832 19.1459C19.2706 18.5211 19.7642 17.8134 20.1428 17.0434ZM14.625 19.5908L14.9783 21.5155C15.7708 21.2486 16.5126 20.8784 17.1862 20.4215L15.894 18.9441C15.4978 19.1993 15.0729 19.4167 14.625 19.5908ZM11.9995 20.0796C11.7669 20.0796 11.537 20.0687 11.3102 20.0474L10.6797 21.9078C11.1105 21.9686 11.5512 22 11.9995 22C12.3467 22 12.6893 21.9812 13.0262 21.9444L12.6782 20.0484C12.4549 20.069 12.2285 20.0796 11.9995 20.0796Z" fill-rule="evenodd" fill="#333"/>
  <path fill="#5696FF" d="M12.5 10.08508301A3.5 3.36079168 0 1 0 12.5 16.806666370000002A3.5 3.36079168 0 1 0 12.5 10.08508301Z"/>
</svg>
