<svg xmlns="http://www.w3.org/2000/svg" fill="none" viewBox="0 0 20 20" class="design-iconfont">
  <path stroke="currentColor" d="M14.5 17.5C15.1 17.5 16.5 17.5 17 15.5C17.5 13.5 17.8875 10.9 18 10C18 9.55 18 8.5 17 8C16 7.5 14.525 7.4625 14 7.5C14.5002 5.99999 14.5 3 11.5 3C8.5 3 9.00039 7.5 7 7.5L4.5 7.5C2.99961 7.5 2 8 2 10.5C2 13 2 14.975 2 15.5C2 16 2.5 17.5 4 17.5L14.5 17.5Z" stroke="rgba(151, 151, 151, 1)" stroke-width="2"/>
  <path stroke="currentColor" stroke="rgba(151, 151, 151, 1)" stroke-width="2" d="M6 8.24377L6 16.8532"/>
</svg>
