<svg xmlns="http://www.w3.org/2000/svg" fill="none" viewBox="0 0 20 20" class="design-iconfont">
  <path fill-rule="evenodd" fill="#FFD8C5" d="M13.1849 5.62857C12.9852 7.17143 12.6857 8.02857 12.6857 8.02857L14.9823 8.02857C16.8795 8.02857 17.0792 8.88571 16.9793 9.82857L16.1805 13.9429C15.9808 15.1429 15.5814 16 14.0836 16L3.99852 16C3.39941 16 3 15.6571 3 15.2286L3 8.8C3 8.37143 3.39941 8.02857 3.99852 8.02857L5.99557 8.02857C6.09542 8.02857 7.5932 8.02857 7.99261 7.85714Q8.44195 7.6 9.19084 6.31429L9.78995 5.02857C10.0895 4.42857 10.5888 4 11.3876 4L11.5873 4C12.5858 4.08571 13.2848 4.85714 13.1849 5.62857Z"/>
  <path fill-rule="evenodd" fill="rgba(255, 140, 87, 1)" d="M15.1492 6.03038Q15.1589 5.95844 15.1683 5.88542L15.1684 5.88527Q15.3672 4.34923 14.243 3.1744Q13.2486 2.13526 11.7583 2.00733L11.673 2L11.3876 2Q9.0666 2 8.00057 4.13519L7.98851 4.15935L7.4178 5.38413Q7.18481 5.77878 7.00552 6.02516Q6.71417 6.02857 5.99557 6.02857L3.99852 6.02857Q1 6.02857 1 8.8L1 15.2286Q1 18 3.99852 18L14.0836 18Q17.5198 18 18.1486 14.2994L18.9591 10.1251L18.9682 10.0393Q19.1462 8.3591 18.2712 7.30066Q17.2591 6.07649 15.1492 6.03038ZM14.7728 8.02857L12.6857 8.02857C12.6857 8.02857 12.9337 7.31885 13.1288 6.02857C13.1482 5.90088 13.1669 5.76751 13.1849 5.62857C13.2848 4.85714 12.5858 4.08571 11.5873 4L11.3876 4C10.5888 4 10.0895 4.42857 9.78995 5.02857L9.19084 6.31429Q8.44195 7.6 7.99261 7.85714C7.5932 8.02857 6.09542 8.02857 5.99557 8.02857L3.99852 8.02857C3.39941 8.02857 3 8.37143 3 8.8L3 15.2286C3 15.6571 3.39941 16 3.99852 16L14.0836 16C15.5814 16 15.9808 15.1429 16.1805 13.9429L16.9793 9.82857C17.0792 8.88571 16.8795 8.02857 14.9823 8.02857L14.7728 8.02857Z"/>
  <path fill="#FF8C57" d="M5 8H7V16H5z"/>
</svg>
