<?xml version="1.0" encoding="UTF-8"?>
<svg width="20px" height="20px" viewBox="0 0 20 20" version="1.1" xmlns="http://www.w3.org/2000/svg" xmlns:xlink="http://www.w3.org/1999/xlink">
    <defs>
        <rect id="path-1" x="0" y="0" width="20" height="20"></rect>
    </defs>
    <g id="Page-1" stroke="none" stroke-width="1" fill="none" fill-rule="evenodd">
        <g id="其他状态" transform="translate(-189.000000, -211.000000)">
            <g id="编组" transform="translate(189.000000, 211.000000)">
                <mask id="mask-2" fill="white">
                    <use xlink:href="#path-1"></use>
                </mask>
                <g id="订单icon-(Background/Mask)"></g>
                <path d="M4,3 L16,3 C17.1045695,3 18,3.8954305 18,5 L18,17 C18,18.1045695 17.1045695,19 16,19 L4,19 C2.8954305,19 2,18.1045695 2,17 L2,5 C2,3.8954305 2.8954305,3 4,3 Z" id="Rectangle-256" stroke="#333333" stroke-dasharray="0,0" mask="url(#mask-2)"></path>
                <path d="M10,0 C10.7402524,0 11.3865739,0.40216612 11.7323937,0.999927519 L13,1 C14.1045695,1 15,1.8954305 15,3 L15,5 L5,5 L5,3 C5,1.8954305 5.8954305,1 7,1 L8.26760632,0.999927519 C8.61342606,0.40216612 9.25974756,0 10,0 Z" id="Union" fill="#0C6FFF" mask="url(#mask-2)"></path>
                <path d="M5.5,8 L14.5,8 C14.7761424,8 15,8.22385763 15,8.5 C15,8.77614237 14.7761424,9 14.5,9 L5.5,9 C5.22385763,9 5,8.77614237 5,8.5 C5,8.22385763 5.22385763,8 5.5,8 Z" id="Rectangle-258" fill="#0C6FFF" mask="url(#mask-2)"></path>
                <path d="M5.5,11 L12.5,11 C12.7761424,11 13,11.2238576 13,11.5 C13,11.7761424 12.7761424,12 12.5,12 L5.5,12 C5.22385763,12 5,11.7761424 5,11.5 C5,11.2238576 5.22385763,11 5.5,11 Z" id="Rectangle-259" fill="#0C6FFF" mask="url(#mask-2)"></path>
                <path d="M5.5,14 L10.5,14 C10.7761424,14 11,14.2238576 11,14.5 C11,14.7761424 10.7761424,15 10.5,15 L5.5,15 C5.22385763,15 5,14.7761424 5,14.5 C5,14.2238576 5.22385763,14 5.5,14 Z" id="Rectangle-260" fill="#0C6FFF" mask="url(#mask-2)"></path>
            </g>
        </g>
    </g>
</svg>