<svg xmlns="http://www.w3.org/2000/svg" fill="none" viewBox="0 0 24 24" class="design-iconfont">
  <path stroke="rgba(255, 255, 255, 1)" stroke-width="1.5" d="M14.7849 6.57591C17.2652 7.65262 19 10.1237 19 13C19 13.9588 18.8072 14.8726 18.4584 15.7046M14.894 19.3757C14.012 19.7767 13.0321 20 12 20C11.0524 20 10.1487 19.8117 9.32442 19.4705M5.48404 15.5629C5.17161 14.7692 5 13.9047 5 13C5 10.0735 6.79594 7.56639 9.34583 6.52075"/>
  <path stroke="rgba(255, 255, 255, 1)" stroke-width="1.5" d="M12 3A3 3 0 1 0 12 9A3 3 0 1 0 12 3Z"/>
  <path stroke="rgba(255, 255, 255, 1)" stroke-width="1.5" d="M7 15A3 3 0 1 0 7 21A3 3 0 1 0 7 15Z"/>
  <path stroke="rgba(255, 255, 255, 1)" stroke-width="1.5" d="M17 15A3 3 0 1 0 17 21A3 3 0 1 0 17 15Z"/>
</svg>
