<?xml version="1.0" encoding="UTF-8"?>
<svg width="32px" height="32px" viewBox="0 0 32 32" version="1.1" xmlns="http://www.w3.org/2000/svg" xmlns:xlink="http://www.w3.org/1999/xlink">
    <title>切片</title>
    <g id="页面-1" stroke="none" stroke-width="1" fill="none" fill-rule="evenodd">
        <g id="学员管理-我的学员-上传作业" transform="translate(-1093.000000, -382.000000)" fill-rule="nonzero">
            <g id="编组-4" transform="translate(712.000000, 0.000000)">
                <g id="编组-2备份" transform="translate(20.000000, 74.000000)">
                    <g id="编组-3备份-5" transform="translate(351.000000, 298.000000)">
                        <g id="文件图标/docx" transform="translate(10.000000, 10.000000)">
                            <path d="M28.7764953,28.96 C28.7764953,29.36 28.6086044,29.744 28.3064008,30.032 C28.0041973,30.32 27.6012592,30.48 27.181532,30.48 L4.80167891,30.48 C4.38195173,30.48 3.96222455,30.32 3.67681007,30.032 C3.37460651,29.744 3.20671563,29.36 3.20671563,28.96 L3.20671563,1.52 C3.20671563,1.12 3.37460651,0.72 3.67681007,0.448 C3.96222455,0.16 4.38195173,0 4.80167891,0 L18.5351522,0 C18.9548793,0 19.3746065,0.16 19.6768101,0.448 L28.3231899,8.688 C28.6253935,8.976 28.7932844,9.36 28.7932844,9.776 L28.7932844,28.96 L28.7764953,28.96 Z" id="路径" fill="#EBECF0"></path>
                            <path d="M28.7764953,28.96 L28.7764953,30.48 C28.7764953,30.88 28.6086044,31.28 28.3064008,31.552 C28.0041973,31.84 27.6012592,32 27.181532,32 L4.80167891,32 C3.91185729,32 3.20671563,31.312 3.20671563,30.48 L3.20671563,28.96 C3.20671563,29.36 3.37460651,29.744 3.67681007,30.032 C3.97901364,30.32 4.38195173,30.48 4.80167891,30.48 L27.181532,30.48 C28.0713536,30.48 28.7764953,29.792 28.7764953,28.96 Z" id="路径" fill="#C1C7D0"></path>
                            <path d="M0,16.768 L31.9832109,16.768 L31.9832109,24.384 C31.9832109,25.232 31.2612802,25.904 30.3882476,25.904 L1.61175236,25.904 C1.19202518,25.904 0.772298006,25.744 0.486883526,25.456 C0.184679958,25.168 0.0167890871,24.784 0.0167890871,24.368 L0.0167890871,16.768 L0,16.768 Z" id="路径" fill="#3980FC"></path>
                            <g id="DOCX" transform="translate(3.022036, 18.400000)" fill="#FFFFFF">
                                <path d="M0,0.09765625 L2.7585585,0.09765625 C3.30234566,0.09765625 3.74161092,0.16796875 4.07635428,0.30859375 C4.41109763,0.44921875 4.68777326,0.651041667 4.90638116,0.9140625 C5.12498907,1.17708333 5.2834798,1.48307292 5.38185336,1.83203125 C5.48022692,2.18098958 5.52941369,2.55078125 5.52941369,2.94140625 C5.52941369,3.55338542 5.45631668,4.02799479 5.31012264,4.36523438 C5.1639286,4.70247396 4.96103314,4.98502604 4.70143625,5.21289062 C4.44183937,5.44075521 4.16311429,5.59244792 3.86526102,5.66796875 C3.4581038,5.77213542 3.08920296,5.82421875 2.7585585,5.82421875 L0,5.82421875 L0,0.09765625 Z M1.85680089,1.39453125 L1.85680089,4.5234375 L2.31177859,4.5234375 C2.69980763,4.5234375 2.9758001,4.48242188 3.13975603,4.40039062 C3.30371196,4.31835938 3.43214411,4.17513021 3.52505247,3.97070312 C3.61796083,3.76627604 3.66441501,3.43489583 3.66441501,2.9765625 C3.66441501,2.36979167 3.56057625,1.95442708 3.35289874,1.73046875 C3.14522123,1.50651042 2.80091378,1.39453125 2.31997639,1.39453125 L1.85680089,1.39453125 Z" id="D"></path>
                                <path d="M6.27131427,2.96484375 C6.27131427,2.02994792 6.54457415,1.30208333 7.09109391,0.78125 C7.63761368,0.260416667 8.39864244,0 9.37418022,0 C10.3743114,0 11.1449042,0.255859375 11.6859588,0.767578125 C12.2270134,1.27929688 12.4975407,1.99609375 12.4975407,2.91796875 C12.4975407,3.58723958 12.3793558,4.13606771 12.142986,4.56445312 C11.9066162,4.99283854 11.5650413,5.32617188 11.1182614,5.56445312 C10.6714815,5.80273438 10.1147145,5.921875 9.44796039,5.921875 C8.77027588,5.921875 8.20940998,5.81901042 7.76536267,5.61328125 C7.32131536,5.40755208 6.96129547,5.08203125 6.68530299,4.63671875 C6.40931051,4.19140625 6.27131427,3.63411458 6.27131427,2.96484375 Z M8.12811516,2.97265625 C8.12811516,3.55078125 8.24083486,3.96614583 8.46627427,4.21875 C8.69171367,4.47135417 8.99844788,4.59765625 9.38647692,4.59765625 C9.78543634,4.59765625 10.09422,4.47395833 10.3128279,4.2265625 C10.5314358,3.97916667 10.6407398,3.53515625 10.6407398,2.89453125 C10.6407398,2.35546875 10.5266538,1.96158854 10.2984818,1.71289062 C10.0703098,1.46419271 9.76084295,1.33984375 9.37008132,1.33984375 C8.99571529,1.33984375 8.69512942,1.46614583 8.46832371,1.71875 C8.24151801,1.97135417 8.12811516,2.38932292 8.12811516,2.97265625 Z" id="O"></path>
                                <path d="M17.4981965,3.484375 L19.1254591,3.953125 C19.0161551,4.38802083 18.8440014,4.75130208 18.6089979,5.04296875 C18.3739944,5.33463542 18.0822895,5.5546875 17.7338831,5.703125 C17.3854768,5.8515625 16.9421126,5.92578125 16.4037907,5.92578125 C15.7506995,5.92578125 15.2171596,5.83528646 14.8031709,5.65429688 C14.3891822,5.47330729 14.0318949,5.15494792 13.731309,4.69921875 C13.4307232,4.24348958 13.2804302,3.66015625 13.2804302,2.94921875 C13.2804302,2.00130208 13.5448092,1.27278646 14.073567,0.763671875 C14.6023249,0.254557292 15.3503738,0 16.3177138,0 C17.0746437,0 17.6696671,0.145833333 18.102784,0.4375 C18.5359009,0.729166667 18.8576644,1.17708333 19.0680745,1.78125 L17.4285152,2.12890625 C17.3711306,1.95442708 17.3110135,1.82682292 17.2481637,1.74609375 C17.1443249,1.61067708 17.0172591,1.50651042 16.8669662,1.43359375 C16.7166732,1.36067708 16.5486184,1.32421875 16.3628017,1.32421875 C15.9419815,1.32421875 15.6195348,1.48567708 15.3954617,1.80859375 C15.2260406,2.04817708 15.14133,2.42447917 15.14133,2.9375 C15.14133,3.57291667 15.2424362,4.00846354 15.4446485,4.24414062 C15.6468608,4.47981771 15.9310511,4.59765625 16.2972193,4.59765625 C16.6524572,4.59765625 16.920935,4.50260417 17.1026528,4.3125 C17.2843706,4.12239583 17.4162185,3.84635417 17.4981965,3.484375 Z" id="C"></path>
                                <polygon id="X" points="19.613228 0.09765625 21.6585782 0.09765625 22.7242917 1.859375 23.7572141 0.09765625 25.7820698 0.09765625 23.9129722 2.87109375 25.9583224 5.82421875 23.8719832 5.82421875 22.6874016 3.984375 21.4987211 5.82421875 19.4246786 5.82421875 21.4987211 2.83984375"></polygon>
                            </g>
                            <path d="M3.20671563,16.768 L3.20671563,13.712 L0,16.768 L3.20671563,16.768 Z M28.7764953,16.768 L28.8100735,13.712 L32,16.768 L28.7764953,16.768 Z" id="形状" fill="#224C97"></path>
                            <path d="M28.7764953,9.776 L28.7764953,9.984 L20.1301154,9.984 C19.2402938,9.984 18.5351522,9.296 18.5351522,8.464 L18.5351522,0 C18.9548793,0 19.3746065,0.16 19.6768101,0.448 L28.339979,8.688 C28.6253935,8.976 28.7932844,9.36 28.7764953,9.776 L28.7764953,9.776 Z" id="路径" fill="#C1C7D0"></path>
                        </g>
                    </g>
                </g>
            </g>
        </g>
    </g>
</svg>