<?xml version="1.0" encoding="UTF-8"?>
<svg width="41px" height="42px" viewBox="0 0 41 42" version="1.1" xmlns="http://www.w3.org/2000/svg" xmlns:xlink="http://www.w3.org/1999/xlink">
    <g id="产品管理" stroke="none" stroke-width="1" fill="none" fill-rule="evenodd">
        <g id="上传文件状态" transform="translate(-740.000000, -1178.000000)" fill-rule="nonzero">
            <g id="编组-4" transform="translate(368.000000, 1107.000000)">
                <g id="编组-3" transform="translate(165.000000, 71.000000)">
                    <g id="png备份-3" transform="translate(207.000000, 0.000000)">
                        <path d="M36.8698846,38.01 C36.8698846,38.535 36.6547744,39.039 36.2675761,39.417 C35.8803778,39.795 35.3641133,40.005 34.8263379,40.005 L6.1521511,40.005 C5.61437566,40.005 5.07660021,39.795 4.71091291,39.417 C4.32371459,39.039 4.10860441,38.535 4.10860441,38.01 L4.10860441,1.995 C4.10860441,1.47 4.32371459,0.945 4.71091291,0.588 C5.07660021,0.21 5.61437566,0 6.1521511,0 L23.7481637,0 C24.2859391,0 24.8237146,0.21 25.2109129,0.588 L36.2890871,11.403 C36.6762854,11.781 36.8913956,12.285 36.8913956,12.831 L36.8913956,38.01 L36.8698846,38.01 Z" id="路径" fill="#EBECF0"></path>
                        <path d="M36.8698846,38.01 L36.8698846,40.005 C36.8698846,40.53 36.6547744,41.055 36.2675761,41.412 C35.8803778,41.79 35.3641133,42 34.8263379,42 L6.1521511,42 C5.01206716,42 4.10860441,41.097 4.10860441,40.005 L4.10860441,38.01 C4.10860441,38.535 4.32371459,39.039 4.71091291,39.417 C5.09811123,39.795 5.61437566,40.005 6.1521511,40.005 L34.8263379,40.005 C35.9664218,40.005 36.8698846,39.102 36.8698846,38.01 Z" id="路径" fill="#C1C7D0"></path>
                        <path d="M0,22.008 L40.978489,22.008 L40.978489,32.004 C40.978489,33.117 40.0535152,33.999 38.9349423,33.999 L2.06505771,33.999 C1.52728227,33.999 0.989506821,33.789 0.623819517,33.411 C0.236621196,33.033 0.0215110178,32.529 0.0215110178,31.983 L0.0215110178,22.008 L0,22.008 Z" id="路径" fill="#3980FC"></path>
                        <g id="DOCX" transform="translate(3.871983, 24.150000)" fill="#FFFFFF">
                            <path d="M0,0.128173828 L3.53440308,0.128173828 C4.23113038,0.128173828 4.79393899,0.220458984 5.22282892,0.405029297 C5.65171884,0.589599609 6.00620949,0.854492188 6.28630087,1.19970703 C6.56639225,1.54492188 6.76945849,1.9465332 6.89549961,2.40454102 C7.02154073,2.86254883 7.08456129,3.34790039 7.08456129,3.8605957 C7.08456129,4.66381836 6.99090574,5.28674316 6.80359463,5.72937012 C6.61628352,6.17199707 6.35632371,6.54284668 6.0237152,6.84191895 C5.69110669,7.14099121 5.33399018,7.34008789 4.95236568,7.43920898 C4.43069549,7.57592773 3.95804129,7.64428711 3.53440308,7.64428711 L0,7.64428711 L0,0.128173828 Z M2.37902614,1.83032227 L2.37902614,5.93701172 L2.96196632,5.93701172 C3.45912852,5.93701172 3.81274388,5.88317871 4.02281242,5.7755127 C4.23288095,5.66784668 4.39743464,5.4798584 4.51647347,5.21154785 C4.63551231,4.9432373 4.69503173,4.50830078 4.69503173,3.90673828 C4.69503173,3.11035156 4.56198832,2.56518555 4.29590151,2.27124023 C4.0298147,1.97729492 3.58867078,1.83032227 2.97246975,1.83032227 L2.37902614,1.83032227 Z" id="D"></path>
                            <path d="M8.03512141,3.89135742 C8.03512141,2.66430664 8.38523563,1.70898438 9.08546408,1.02539062 C9.78569252,0.341796875 10.7607606,0 12.0106684,0 C13.2920865,0 14.2794086,0.33581543 14.9726347,1.00744629 C15.6658609,1.67907715 16.012474,2.61987305 16.012474,3.82983398 C16.012474,4.70825195 15.8610496,5.42858887 15.5582008,5.99084473 C15.255352,6.55310059 14.8177092,6.99060059 14.2452724,7.30334473 C13.6728357,7.61608887 12.959478,7.77246094 12.1051992,7.77246094 C11.236916,7.77246094 10.5183065,7.63745117 9.94937092,7.36743164 C9.38043531,7.09741211 8.91915982,6.67016602 8.56554446,6.08569336 C8.21192909,5.5012207 8.03512141,4.76977539 8.03512141,3.89135742 Z M10.4141476,3.90161133 C10.4141476,4.66040039 10.5585697,5.20556641 10.8474139,5.53710938 C11.1362581,5.86865234 11.5292614,6.03442383 12.0264235,6.03442383 C12.5375903,6.03442383 12.9332194,5.87207031 13.2133108,5.54736328 C13.4934021,5.22265625 13.6334478,4.63989258 13.6334478,3.79907227 C13.6334478,3.09155273 13.4872751,2.57458496 13.1949298,2.24816895 C12.9025844,1.92175293 12.50608,1.75854492 12.0054167,1.75854492 C11.5257602,1.75854492 11.1406346,1.92431641 10.8500398,2.25585938 C10.559445,2.58740234 10.4141476,3.13598633 10.4141476,3.90161133 Z" id="O"></path>
                            <path d="M22.4195642,4.57324219 L24.5044944,5.18847656 C24.3644488,5.75927734 24.1438768,6.23608398 23.8427786,6.61889648 C23.5416803,7.00170898 23.1679334,7.29052734 22.7215378,7.48535156 C22.2751421,7.68017578 21.7070818,7.77758789 21.0173568,7.77758789 C20.1805838,7.77758789 19.4969858,7.65881348 18.9665627,7.42126465 C18.4361397,7.18371582 17.9783653,6.76586914 17.5932397,6.16772461 C17.208114,5.56958008 17.0155512,4.80395508 17.0155512,3.87084961 C17.0155512,2.62670898 17.3542867,1.67053223 18.0317578,1.00231934 C18.7092288,0.334106445 19.6676665,0 20.9070708,0 C21.8768872,0 22.6392609,0.19140625 23.194192,0.57421875 C23.749123,0.95703125 24.1613825,1.54492187 24.4309705,2.33789062 L22.3302851,2.79418945 C22.2567611,2.56518555 22.179736,2.39770508 22.0992097,2.29174805 C21.9661663,2.11401367 21.8033632,1.97729492 21.6108004,1.8815918 C21.4182376,1.78588867 21.2029173,1.73803711 20.9648397,1.73803711 C20.4256637,1.73803711 20.012529,1.94995117 19.7254353,2.3737793 C19.5083645,2.68823242 19.3998291,3.18212891 19.3998291,3.85546875 C19.3998291,4.68945313 19.5293713,5.2611084 19.7884559,5.57043457 C20.0475404,5.87976074 20.4116592,6.03442383 20.8808122,6.03442383 C21.3359607,6.03442383 21.679948,5.90966797 21.9127739,5.66015625 C22.1455999,5.41064453 22.31453,5.04833984 22.4195642,4.57324219 Z" id="C"></path>
                            <polygon id="X" points="25.1294483 0.128173828 27.7500533 0.128173828 29.1154988 2.44042969 30.4389305 0.128173828 33.0332769 0.128173828 30.6384956 3.76831055 33.2591006 7.64428711 30.5859785 7.64428711 29.0682333 5.22949219 27.5452365 7.64428711 24.8878695 7.64428711 27.5452365 3.72729492"></polygon>
                        </g>
                        <path d="M4.10860441,22.008 L4.10860441,17.997 L0,22.008 L4.10860441,22.008 Z M36.8698846,22.008 L36.9129066,17.997 L41,22.008 L36.8698846,22.008 Z" id="形状" fill="#224C97"></path>
                        <path d="M36.8698846,12.831 L36.8698846,13.104 L25.7917104,13.104 C24.6516264,13.104 23.7481637,12.201 23.7481637,11.109 L23.7481637,0 C24.2859391,0 24.8237146,0.21 25.2109129,0.588 L36.3105981,11.403 C36.6762854,11.781 36.8913956,12.285 36.8698846,12.831 L36.8698846,12.831 Z" id="路径" fill="#C1C7D0"></path>
                    </g>
                </g>
            </g>
        </g>
    </g>
</svg>