<?xml version="1.0" encoding="UTF-8"?>
<svg width="20px" height="20px" viewBox="0 0 20 20" version="1.1" xmlns="http://www.w3.org/2000/svg" xmlns:xlink="http://www.w3.org/1999/xlink">
    <defs>
        <linearGradient x1="79.8852203%" y1="92.7783179%" x2="34.5709623%" y2="40.7089673%" id="linearGradient-1">
            <stop stop-color="#8FFFFE" offset="0%"></stop>
            <stop stop-color="#57FEFC" offset="100%"></stop>
        </linearGradient>
    </defs>
    <g id="订单机构入驻" stroke="none" stroke-width="1" fill="none" fill-rule="evenodd">
        <g id="直播排班管理" transform="translate(-790.000000, -353.000000)">
            <g id="编组-136" transform="translate(247.000000, 89.000000)">
                <g id="编组-10备份" transform="translate(20.000000, 196.000000)">
                    <g id="编组-4" transform="translate(0.000000, 41.000000)">
                        <g id="编组-7" transform="translate(523.000000, 26.000000)">
                            <g id="编组" transform="translate(0.000000, 1.000000)">
                                <circle id="椭圆形" stroke="#FFFFFF" stroke-width="0.5" fill="#333333" cx="10" cy="10" r="9.75"></circle>
                                <path d="M16.5,7.3535158 L16.5,9.46640643 L16.4845307,9.4675783 C15.4016759,9.4675783 14.3484707,9.14765643 13.4821868,8.55585955 L13.4821868,12.6843752 C13.4821868,14.7925783 11.6954764,16.5000002 9.49109343,16.5000002 C7.57975934,16.5000002 5.98242916,15.2163699 5.59151228,13.500845 L7.93479345,13.5004524 C8.23452155,14.0376205 8.82667053,14.4035158 9.5078519,14.4035158 C10.4901559,14.4035158 11.2881168,13.6406252 11.2881168,12.7007814 L11.287341,9.794846 L11.6324651,8.17337841 L13.8470215,5.81023179 C14.3436891,6.72706187 15.3453453,7.3535158 16.5,7.3535158 Z" id="形状结合" fill="#F31E59" fill-rule="nonzero"></path>
                                <path d="M10.288,4.5 L11.2881167,4.5 L12.482,8.444 L12.4821868,11.684375 C12.4821868,13.7925781 10.6954764,15.5 8.4910934,15.5 C6.28671042,15.5 4.5,13.7925781 4.5,11.684375 C4.5,9.57617188 6.28671042,7.86875 8.4910934,7.86875 C8.7115317,7.86875 8.92552443,7.88632812 9.13436072,7.91914062 L9.13436072,10.1058594 C8.93454822,10.034375 8.7218446,9.99804687 8.50785187,9.99804687 C7.52425876,9.99804687 6.7262979,10.7597656 6.7262979,11.7007812 C6.7262979,12.640625 7.52425876,13.4035156 8.50785187,13.4035156 C9.49015587,13.4035156 10.2881167,12.640625 10.2881167,11.7007812 L10.288,4.5 Z" id="形状结合" fill="url(#linearGradient-1)" fill-rule="nonzero"></path>
                                <path d="M15.9845306,8.96757812 C14.9016758,8.96757812 13.8484706,8.64765625 12.9821868,8.05585938 L12.9821868,12.184375 C12.9821868,14.2925781 11.1954764,16 8.9910934,16 C6.78671042,16 5,14.2925781 5,12.184375 C5,10.0761719 6.78671042,8.36875 8.9910934,8.36875 C9.2115317,8.36875 9.42552443,8.38632812 9.63436072,8.41914063 L9.63436072,10.6058594 C9.43454822,10.534375 9.2218446,10.4980469 9.00785187,10.4980469 C8.02425876,10.4980469 7.2262979,11.2597656 7.2262979,12.2007812 C7.2262979,13.140625 8.02425876,13.9035156 9.00785187,13.9035156 C9.99015587,13.9035156 10.7881167,13.140625 10.7881167,12.2007812 L10.7881167,4 L13.0144146,4 C13.0144146,5.57617188 14.3512247,6.85351562 16,6.85351562 L16,8.96640625 L15.9845306,8.96757812" id="路径" fill="#FFFFFF" fill-rule="nonzero"></path>
                            </g>
                        </g>
                    </g>
                </g>
            </g>
        </g>
    </g>
</svg>