<?xml version="1.0" encoding="UTF-8"?>
<svg width="18px" height="18px" viewBox="0 0 18 18" version="1.1" xmlns="http://www.w3.org/2000/svg" xmlns:xlink="http://www.w3.org/1999/xlink">
    <title>下载</title>
    <g id="直播列表-原型修改" stroke="none" stroke-width="1" fill="none" fill-rule="evenodd">
        <g id="3-4.1-导入脚本-上传文档" transform="translate(-667.000000, -460.000000)">
            <g id="编组-7" transform="translate(450.000000, 292.000000)">
                <g id="编组-2" transform="translate(20.000000, 128.000000)">
                    <g id="中按钮备份" transform="translate(0.000000, 38.000000)">
                        <g id="下载" transform="translate(198.000000, 3.000000)">
                            <rect id="矩形" x="0" y="0" width="16" height="16"></rect>
                            <path d="M8.51391639,6.93342185 L8.51391639,14.1663157 L10.213343,12.459376 L10.939841,13.1889784 L8.00005011,16.1417333 L5.06024328,13.1889834 L5.7866518,12.4593716 L7.48610355,14.1663176 L7.48610355,6.93342185 L8.51391639,6.93342185 Z M8.00004986,-0.1 C9.15957454,-0.1 10.2295867,0.335672895 11.04486,1.06031438 C11.8430874,1.76980487 12.3970881,2.75629512 12.551801,3.88183767 C13.6149868,4.10061197 14.4602178,4.51240843 15.0902539,5.18459494 C15.7413468,5.87927353 16.1,6.78757971 16.1,7.74226119 C16.1,8.77316257 15.6824938,9.70797764 15.008381,10.3850631 C14.3341125,11.062305 13.4031652,11.4816763 12.3765637,11.4816763 L12.3765637,11.4816763 L10.4038127,11.4816763 L10.4038127,10.4501328 L12.3765836,10.4501328 C13.1197233,10.4501328 13.7935399,10.1464425 14.2816006,9.65624349 C14.7698187,9.16588641 15.0722071,8.4888784 15.0722071,7.74226119 C15.0722071,7.03262518 14.7959191,6.38159833 14.3433732,5.8962827 C13.8909598,5.41110916 13.2623211,5.09149198 12.5571313,5.04478259 L12.5571313,5.04478259 L11.6511114,4.98394738 L11.5407346,4.07835669 C11.4314699,3.18133286 10.9962406,2.39459921 10.3633,1.83211962 C9.73049182,1.26975781 8.90002479,0.931543486 8.0000698,0.931543486 C7.10008331,0.931543486 6.26958987,1.26976402 5.63676374,1.83214034 C5.00380761,2.39463219 4.56856987,3.18138454 4.45930429,4.0784445 L4.45930429,4.0784445 L4.3489274,4.98401439 L3.44269811,5.04478864 C2.73768647,5.0914829 2.10909049,5.41110469 1.65670166,5.89628898 C1.20419206,6.3816028 0.927912539,7.03262591 0.927912539,7.74226119 C0.927912539,8.48887923 1.23029159,9.16588809 1.71849611,9.65624552 C2.20654156,10.1464432 2.88033737,10.4501328 3.62345623,10.4501328 L3.62345623,10.4501328 L5.59620723,10.4501328 L5.59620723,11.4816763 L3.62343631,11.4816763 C2.59683342,11.4816763 1.66588509,11.0623089 0.991616456,10.3850706 C0.317505195,9.70799036 -0.1,8.7731814 -0.1,7.74228122 C-0.1,6.78759906 0.258633986,5.8792722 0.909727497,5.18461351 C1.53991686,4.51226477 2.38505569,4.10110262 3.29682934,4.02124272 C3.5278235,2.82619503 4.11922381,1.80624149 4.93422378,1.08014945 C5.76967557,0.335836666 6.84012428,-0.1 8.00004986,-0.1 Z" id="形状" stroke="#0C6FFF" stroke-width="0.2" fill="#0C6FFF" fill-rule="nonzero"></path>
                        </g>
                    </g>
                </g>
            </g>
        </g>
    </g>
</svg>