<?xml version="1.0" encoding="UTF-8"?>
<svg width="20px" height="20px" viewBox="0 0 20 20" version="1.1" xmlns="http://www.w3.org/2000/svg" xmlns:xlink="http://www.w3.org/1999/xlink">
    <title>下载</title>
    <g id="直播列表" stroke="none" stroke-width="1" fill="none" fill-rule="evenodd">
        <g id="直播间详情-推流设置" transform="translate(-360.000000, -470.000000)">
            <g id="下" transform="translate(252.000000, 343.000000)">
                <g id="编组-10" transform="translate(0.000000, 20.000000)">
                    <g id="编组-7" transform="translate(20.000000, 101.000000)">
                        <g id="中按钮" transform="translate(68.000000, 0.000000)">
                            <g id="下载" transform="translate(20.000000, 6.000000)">
                                <rect id="矩形" x="0" y="0" width="20" height="20"></rect>
                                <path d="M6.50169347,16.4862289 L7.23331475,15.7513813 L9.48262944,18.0106151 L9.48262944,8.79177731 L10.5173955,8.79177731 L10.5173955,18.0106151 L12.7666852,15.7513813 L13.4984062,16.4862289 L10.0000623,20 L6.50169347,16.4862289 Z M13.1297658,14.2270953 L13.1297658,13.187666 L15.4707295,13.187666 C17.3976272,13.187666 18.9652589,11.6131714 18.9652589,9.67782649 C18.9652589,7.83824089 17.5331062,6.30236056 15.7047885,6.18125907 L14.6754576,6.11214408 L14.5500012,5.08283156 C14.2692201,2.77772145 12.3131773,1.03942936 10.0000872,1.03942936 C7.68692243,1.03942936 5.73082968,2.77774648 5.45004866,5.08293172 L5.32459225,6.11221921 L4.29511175,6.18125907 C2.46704336,6.3023355 1.03489067,7.83821583 1.03489067,9.67782649 C1.03489067,11.6131714 2.60247246,13.187666 4.52932029,13.187666 L6.87025904,13.187666 L6.87025904,14.2270953 L4.52929539,14.2270953 C2.03183532,14.2270953 0,12.1862999 0,9.67785152 C0,8.5164192 0.436255196,7.41135564 1.22836083,6.56624959 C2.01660204,5.72527541 3.08128614,5.22016004 4.22632515,5.14388314 L4.40144555,5.13221372 L4.42273724,4.95722257 C4.76667027,2.13114568 7.16440349,6.21724894e-14 10.0000623,6.21724894e-14 C12.8356713,6.21724894e-14 15.2333297,2.13114568 15.5772628,4.95719754 L15.5985545,5.13218868 L15.7736748,5.1438581 C16.9187139,5.22013501 17.983398,5.72527544 18.7716142,6.56622456 C19.5637199,7.41135564 20,8.51639414 20,9.67782649 C20,12.1862749 17.9681647,14.2270953 15.4707046,14.2270953 L13.1297658,14.2270953 L13.1297658,14.2270953 Z" id="形状" fill="#FFFFFF" fill-rule="nonzero"></path>
                            </g>
                        </g>
                    </g>
                </g>
            </g>
        </g>
    </g>
</svg>