<svg xmlns="http://www.w3.org/2000/svg" xmlns:xlink="http://www.w3.org/1999/xlink" version="1.1" width="24" height="24" viewBox="0 0 24 24"><g><g><g></g></g><g><g><g><path d="M19.8188,9.55442L19.1312,7.64921L18.4128,4.775603C18.305999999999997,4.346801,17.860799999999998,4,17.4192,4L6.61118,4C6.16958,4,5.72438,4.349201,5.61757,4.776003L4.963973,7.39001L4.939972,7.45441L4.18037,9.56002C3.630368,11.08563,4.38037,12.80723,5.8567800000000005,13.45484C7.1875800000000005,13.94204,8.66479,13.41964,9.40719,12.24963C9.89688,13.23396,10.90139,13.85644,12.0008,13.85684C13.10028,13.85704,14.105,13.23436,14.594,12.24963C15.3491,13.43308,16.8245,13.93394,18.144,13.45484C19.619999999999997,12.80363,20.3704,11.082830000000001,19.8188,9.55482L19.8188,9.55442ZM15.2701,11.82128C15.8181,12.68251,16.8876,13.05221,17.8505,12.71328C18.9269,12.22088,19.4717,10.94847,19.0669,9.82607L18.3557,7.84326L17.6373,4.969649C17.619300000000003,4.8964490000000005,17.4949,4.800049,17.4197,4.800049L6.61204,4.800049C6.53844,4.800049,6.41204,4.898449,6.3944399999999995,4.969649L5.69284,7.726459999999999L4.933634,9.831669999999999C4.528833,10.95327,5.07323,12.22408,6.150040000000001,12.71328C7.11341,13.0551,8.18511,12.68486,8.732050000000001,11.82128L9.49165,10.62367L10.12365,11.89328C10.47606,12.60784,11.20453,13.05944,12.00126,13.05728C12.7979,13.05981,13.5263,12.60805,13.87807,11.89328L14.5097,10.62367L15.2701,11.82128ZM18.0002,18.3964C18.0013,18.5034,17.9595,18.606299999999997,17.8842,18.6822C17.8089,18.7581,17.706400000000002,18.8007,17.5994,18.8004L6.401,18.8004C6.1787,18.799300000000002,5.9993099999999995,18.618299999999998,6.0001999999999995,18.396L6.0001999999999995,14.4L5.2002,14.4L5.2002,18.396C5.19953,19.060000000000002,5.73702,19.5989,6.401,19.6L17.5994,19.6C17.9185,19.6003,18.224600000000002,19.473399999999998,18.4499,19.2474C18.6752,19.0215,18.801299999999998,18.7151,18.8002,18.396L18.8002,14.4L18.0002,14.4L18.0002,18.3964Z" fill-rule="evenodd" fill-opacity="1"/></g><g><path d="M16.39961104057312,8.800017833709717L7.60038204057312,8.800017833709717C7.37946804057312,8.800017833709719,7.20038104057312,8.979104833709716,7.20038104057312,9.200018833709716C7.20038104057312,9.420933833709716,7.37946804057312,9.600020833709717,7.60038204057312,9.600020833709717L16.39961104057312,9.600020833709717C16.62053104057312,9.600020833709717,16.799621040573122,9.420933833709716,16.799621040573122,9.200018833709716C16.799621040573122,8.979104833709716,16.62053104057312,8.800017833709719,16.39961104057312,8.800017833709719L16.39961104057312,8.800017833709717Z" fill-opacity="1"/></g></g></g></g></svg>
