<svg xmlns="http://www.w3.org/2000/svg" fill="none" viewBox="0 0 14 14" class="design-iconfont">
  <path d="M0.875 7C0.874998 10.3827 3.61725 13.125 7 13.125C10.3827 13.125 13.125 10.3827 13.125 7C13.125 3.61726 10.3827 0.875001 7 0.875C3.61726 0.874998 0.875001 3.61725 0.875 7Z" fill="#B729FF"/>
  <path stroke="rgba(255, 255, 255, 1)" stroke-linecap="round" d="M8.4168 8.99986C8.4168 8.99986 9.99888 8.4632 9.99888 7.12196C9.99888 5.78071 8.4168 5.57129 8.4168 5.57129L6.57031 5.57129"/>
  <path fill="#FFF" d="M4.35355 5.9247L5.71788 7.28902C6.03286 7.60401 6.57143 7.38092 6.57143 6.93547L6.57143 4.20686C6.57143 3.7614 6.0328 3.53828 5.71783 3.85328L4.35359 5.21765C4.15833 5.41291 4.15829 5.72944 4.35355 5.9247Z"/>
</svg>
