<?xml version="1.0" encoding="UTF-8"?>
<svg width="13px" height="13px" viewBox="0 0 13 13" version="1.1" xmlns="http://www.w3.org/2000/svg" xmlns:xlink="http://www.w3.org/1999/xlink">
    <title>编组</title>
    <g id="视频管理V2.2.3" stroke="none" stroke-width="1" fill="none" fill-rule="evenodd">
        <g id="视频导出增加筛选" transform="translate(-801.000000, -305.000000)" fill="#00B42A" fill-rule="nonzero">
            <g id="编组" transform="translate(801.000000, 305.000000)">
                <path d="M6.5,13.0015414 C2.9162912,13.0015414 0,10.0852502 0,6.50154138 C0,2.91783258 2.9162912,0 6.5,0 C10.0837088,0 13,2.9162912 13,6.5 C13,10.0837088 10.0837088,13.0015414 6.5,13.0015414 Z M6.5,1.03272469 C3.48506047,1.03272469 1.03272469,3.48506047 1.03272469,6.5 C1.03272469,9.51493953 3.48506047,11.9672753 6.5,11.9672753 C9.51493953,11.9672753 11.9672753,9.51493953 11.9672753,6.5 C11.9672753,3.48506047 9.51493953,1.03272469 6.5,1.03272469 Z" id="形状"></path>
                <path d="M6.00984112,8.8737254 C5.87728243,8.8737254 5.74472374,8.82285985 5.64453403,8.72267014 L3.16599478,6.24567228 C2.96407399,6.04375148 2.96407399,5.71697889 3.16599478,5.5150581 C3.36791558,5.3131373 3.69468817,5.3131373 3.89660896,5.5150581 L6.00984112,7.62674887 L9.47178089,4.16326773 C9.67370168,3.96134693 10.0004743,3.96134693 10.2023951,4.16326773 C10.4043159,4.36518852 10.4043159,4.69196111 10.2023951,4.89388191 L6.37360683,8.72267014 C6.27341712,8.82440123 6.14085843,8.8737254 6.00984112,8.8737254 Z" id="路径"></path>
            </g>
        </g>
    </g>
</svg>