<?xml version="1.0" encoding="UTF-8"?>
<svg width="20px" height="20px" viewBox="0 0 20 20" version="1.1" xmlns="http://www.w3.org/2000/svg" xmlns:xlink="http://www.w3.org/1999/xlink">
    <title>切片</title>
    <defs>
        <polygon id="path-1" points="3.2099931e-23 0 17 0 17 15 3.2099931e-23 15"></polygon>
    </defs>
    <g id="订单机构入驻" stroke="none" stroke-width="1" fill="none" fill-rule="evenodd">
        <g id="直播排班管理" transform="translate(-790.000000, -661.000000)">
            <g id="编组-136" transform="translate(247.000000, 89.000000)">
                <g id="编组-10备份" transform="translate(20.000000, 196.000000)">
                    <g id="编组-4备份-4" transform="translate(0.000000, 349.000000)">
                        <g id="编组-7" transform="translate(523.000000, 26.000000)">
                            <g id="编组" transform="translate(0.000000, 1.000000)">
                                <circle id="椭圆形" stroke="#FFFFFF" stroke-width="0.5" fill="#E7F0FF" cx="10" cy="10" r="9.75"></circle>
                                <g id="枫页小店" transform="translate(1.800000, 2.000000)">
                                    <g id="蒙版" opacity="0" fill="#D8D8D8" fill-rule="nonzero">
                                        <polygon id="path-1" points="3.2099931e-23 0 17 0 17 15 3.2099931e-23 15"></polygon>
                                    </g>
                                    <g id="Clipped">
                                        <mask id="mask-2" fill="white">
                                            <use xlink:href="#path-1"></use>
                                        </mask>
                                        <g id="path-1"></g>
                                        <g id="编组" mask="url(#mask-2)">
                                            <g transform="translate(-0.046629, 0.818182)">
                                                <path d="M6.83391954,0 L10.2566284,0 C10.4501993,0 10.6071194,0.151368792 10.6071194,0.33809166 C10.6071194,0.350565603 10.6064037,0.363029989 10.6049757,0.375427639 L9.98188067,5.78489422 C9.96215843,5.95611488 9.8121258,6.08564989 9.6335334,6.08564989 L7.45701456,6.08564989 C7.27842217,6.08564989 7.12838954,5.95611488 7.1086673,5.78489422 L6.48557228,0.375427639 C6.46419596,0.189846817 6.60282741,0.0226879496 6.79521429,0.0020678583 C6.8080666,0.000690341678 6.82098812,0 6.83391954,0 Z" id="矩形" fill="#FEA602" fill-rule="nonzero"></path>
                                                <path d="M8.11794714,10.8189331 L8.97260082,10.8189331 C9.13342978,10.8189331 9.27362024,10.9245183 9.312627,11.0750255 L9.83836342,13.1035755 C9.88531126,13.2847233 9.77113507,13.4682849 9.58334382,13.5135718 C9.55554264,13.5202763 9.52699405,13.5236664 9.49833728,13.5236664 L7.59221072,13.5236664 C7.39863991,13.5236664 7.24171977,13.3722976 7.24171977,13.1855747 C7.24171977,13.1579318 7.24523426,13.1303931 7.25218454,13.1035755 L7.77792097,11.0750255 C7.81692772,10.9245183 7.95711818,10.8189331 8.11794714,10.8189331 Z" id="矩形" fill="#8ED2FF" fill-rule="nonzero"></path>
                                                <g id="编组-2" stroke-width="1" fill="none" fill-rule="evenodd" transform="translate(8.511905, 7.936228) scale(-1, 1) translate(-8.511905, -7.936228) translate(0.000000, 3.558084)">
                                                    <g id="编组-4" fill="#296AEF" fill-rule="nonzero">
                                                        <path d="M3.2498737,0.0277746062 L5.31561383,-0.00948012704 C5.50575996,-0.0128471268 5.65712821,0.138521441 5.65370424,0.328667994 L5.53591119,6.87019299 L5.53591119,6.87019299 C4.01474214,6.89758468 2.80379637,5.68663614 2.83118808,4.16546373 L2.89938405,0.378265024 C2.90280802,0.188118472 3.05972758,0.0311985665 3.2498737,0.0277746062 Z" id="矩形" transform="translate(4.242247, 3.430584) scale(-1, 1) rotate(45.000000) translate(-4.242247, -3.430584) "></path>
                                                        <path d="M3.80516669,2.16876598 L3.80517413,2.16876585 C5.32634884,2.1413741 6.53729919,3.3523221 6.50990746,4.87349395 L6.46650999,7.28352852 C6.46308602,7.473675 6.30616588,7.63059485 6.11601904,7.63401882 L4.04122779,7.67137953 C3.85329018,7.67476796 3.70278922,7.52681627 3.70307647,7.33896037 C3.70384975,6.83327828 3.72134384,6.0283263 3.75555877,4.92410447 C3.78032414,4.12484896 3.4002752,3.27876158 2.8132621,2.82529863 C2.29074918,2.42166155 1.74048443,2.21953131 1.16246787,2.21890791 L3.80516669,2.16876598 Z" id="矩形" transform="translate(3.836416, 4.919873) rotate(45.000000) translate(-3.836416, -4.919873) "></path>
                                                    </g>
                                                    <g id="编组-4" transform="translate(13.187418, 4.378130) scale(-1, 1) translate(-13.187418, -4.378130) translate(9.351026, 0.000019)" fill="#296AEF" fill-rule="nonzero">
                                                        <path d="M3.2498688,0.0277748523 L5.31558962,-0.00947957865 C5.50573397,-0.012846551 5.65710081,0.138520523 5.65367688,0.328665204 L5.53588514,6.87012582 L5.53588514,6.87012582 C4.0147303,6.89751729 2.80379581,5.6865807 2.83118721,4.16542326 L2.89938243,0.378261832 C2.90280636,0.188117151 3.05972445,0.0311987848 3.2498688,0.0277748523 Z" id="矩形" transform="translate(4.242233, 3.430551) scale(-1, 1) rotate(45.000000) translate(-4.242233, -3.430551) "></path>
                                                        <path d="M3.80512831,2.16877183 L3.80513575,2.1687717 C5.32629868,2.14138023 6.53723971,3.35231326 6.50984825,4.87346637 L6.46645119,7.28347125 C6.46302726,7.47361539 6.30610834,7.63053331 6.11596298,7.63395724 L4.04118778,7.67131757 C3.85325162,7.67470597 3.70275183,7.5267561 3.70303907,7.33890252 C3.70381232,6.83322666 3.72130625,6.0282846 3.75552087,4.92407637 C3.78028602,4.1248307 3.40023999,3.27875377 2.81323142,2.82529642 C2.29072253,2.42166434 1.74046203,2.2195366 1.16244995,2.21891324 L3.80512831,2.16877183 Z" id="矩形" transform="translate(3.836377, 4.919845) rotate(45.000000) translate(-3.836377, -4.919845) "></path>
                                                    </g>
                                                </g>
                                            </g>
                                        </g>
                                    </g>
                                </g>
                            </g>
                        </g>
                    </g>
                </g>
            </g>
        </g>
    </g>
</svg>