<svg xmlns="http://www.w3.org/2000/svg" xmlns:xlink="http://www.w3.org/1999/xlink" width="60" height="60" viewBox="0 0 60 60" fill="none">
<rect x="0" y="0" width="60" height="60" rx="6" fill="#E3EDFF">
</rect>
<rect x="0" y="57" width="60" height="3" rx="1.5" fill="#9EC5FF">

                                    <animate attributeName="y" values="57;0;57" begin="0s" dur="2s" repeatCount="indefinite" fill="freeze" calcMode="linear" keyTimes="0;0.5;1"/>
                                    <animate attributeName="height" values="3;60.000091552734375;3" begin="0s" dur="2s" repeatCount="indefinite" fill="freeze" calcMode="linear" keyTimes="0;0.5;1"/>
                                    <animate attributeName="rx" values="1.5;6;1.5" begin="0s" dur="2s" repeatCount="indefinite" fill="freeze" calcMode="linear" keyTimes="0;0.5;1"/></rect>
<path d="M41.4536 38.3057L42.4214 38.3057C42.8868 38.3057 43.2821 37.7627 43.2821 37.12L43.2819 29.3016L43.16 29.4161C42.8756 29.6304 42.5431 29.7745 42.1921 29.8151C42.0961 29.8262 42.0001 29.8299 41.9004 29.8299L38.96 29.8299L38.9602 39.4656L40.29 39.4656C40.29 38.8266 40.8108 38.3057 41.4536 38.3057Z" fill="#78C0FF">
</path>
<path d="M18.9973 44.131L35.4502 44.131C36.104 44.131 36.6396 43.5991 36.6396 42.9416L36.6396 34.5544C36.4882 35.042 36.0413 35.3966 35.502 35.3966L18.9751 35.3966C18.4062 35.3966 17.9297 34.9977 17.8115 34.462L17.8115 42.9379C17.8078 43.5991 18.3435 44.131 18.9973 44.131Z" fill="#78C0FF">
</path>
<path d="M42.4212 13.4048L27.7156 13.4048C26.3045 13.4048 25.0781 14.4022 24.6718 15.8908C24.5019 16.5077 24.8639 17.1468 25.4845 17.3167C26.1013 17.4866 26.7404 17.1246 26.9103 16.504C27.0359 16.046 27.3684 15.7246 27.7156 15.7246L42.4212 15.7246C42.8867 15.7246 43.2819 16.2676 43.2819 16.9103L43.2819 37.12C43.2819 37.7627 42.8867 38.3057 42.4212 38.3057L41.4534 38.3057C40.8144 38.3057 40.2935 38.8266 40.2935 39.4656C40.2935 40.1047 40.8144 40.6255 41.4534 40.6255L42.4212 40.6255C44.1758 40.6255 45.6017 39.0519 45.6017 37.12L45.6017 16.9103C45.6017 14.9784 44.1722 13.4048 42.4212 13.4048Z" fill="url(#linear_fill_136_155)">
</path>
<path d="M38.9597 27.0613C38.9597 27.0392 38.956 27.0207 38.9523 26.9985C38.9486 26.9431 38.9449 26.8914 38.9375 26.836C38.9301 26.8028 38.919 26.7695 38.9079 26.7363C38.8969 26.6993 38.8858 26.6587 38.871 26.6218C38.8562 26.5848 38.8341 26.5516 38.8156 26.5183C38.7971 26.4851 38.7824 26.4518 38.7639 26.4223C38.7343 26.378 38.7011 26.341 38.6678 26.3041C38.6531 26.2856 38.642 26.2671 38.6235 26.2487L31.328 18.8497C31.328 18.8497 31.3243 18.8497 31.3243 18.846L31.3206 18.8423C31.291 18.8127 31.2541 18.7869 31.2208 18.761C31.0731 18.6428 30.9032 18.5615 30.7258 18.5246C30.7185 18.5246 30.7111 18.5246 30.7037 18.5209C30.6372 18.5098 30.567 18.5024 30.5005 18.5024L18.9975 18.5024C17.0619 18.5024 15.4883 20.0761 15.4883 22.0117L15.4883 23.5669C15.4883 24.2059 16.0091 24.7268 16.6482 24.7268C17.2872 24.7268 17.8081 24.2059 17.8081 23.5669L17.8081 22.0117C17.8081 21.3579 18.34 20.8222 18.9975 20.8222L29.3406 20.8222L29.3406 24.8819C29.3406 25.8793 29.3406 28.2212 32.2441 28.2212L36.6399 28.2212L36.6399 42.9453C36.6399 43.5992 36.1079 44.1348 35.4504 44.1348L18.9975 44.1348C18.3437 44.1348 17.8081 43.6029 17.8081 42.9453L17.8081 30.3083C17.8081 29.6693 17.2872 29.1484 16.6482 29.1484C16.0091 29.1484 15.4883 29.6693 15.4883 30.3083L15.4883 42.9453C15.4883 44.881 17.0619 46.4546 18.9975 46.4546L35.4504 46.4546C37.386 46.4546 38.9597 44.881 38.9597 42.9453L38.9597 27.0613ZM32.2441 25.9014C31.9448 25.9014 31.8082 25.8645 31.7601 25.846C31.7306 25.7758 31.6604 25.5468 31.6604 24.8819L31.6604 22.4919L35.0219 25.9014L32.2441 25.9014Z" fill="url(#linear_fill_136_156)">
</path>
<path d="M16.6482 28.2285C17.2872 28.2285 17.8081 27.7077 17.8081 27.0686L17.8081 26.9209C17.8081 26.2818 17.2872 25.761 16.6482 25.761C16.0091 25.761 15.4883 26.2818 15.4883 26.9209L15.4883 27.0686C15.4883 27.7077 16.0091 28.2285 16.6482 28.2285Z" fill="url(#linear_fill_136_157)">
</path>
<defs>
<linearGradient id="linear_fill_136_155" x1="34.5009765625" y1="27.7056884765625" x2="45.6015625" y2="13.40478515625" gradientUnits="userSpaceOnUse">
<stop offset="0" stop-color="#6467FB"/>
<stop offset="1" stop-color="#5AC1FE"/>

                                    </linearGradient>
<linearGradient id="linear_fill_136_156" x1="15.48828125" y1="46.45458984375" x2="42.8642578125" y2="14.0784912109375" gradientUnits="userSpaceOnUse">
<stop offset="0" stop-color="#6467FB"/>
<stop offset="1" stop-color="#5AC1FE"/>

                                    </linearGradient>
<linearGradient id="linear_fill_136_157" x1="15.48828125" y1="26.9947509765625" x2="17.8076171875" y2="26.9947509765625" gradientUnits="userSpaceOnUse">
<stop offset="0.0002" stop-color="#6467FB"/>
<stop offset="1" stop-color="#5AC1FE"/>

                                    </linearGradient>
</defs>
</svg>