<svg xmlns="http://www.w3.org/2000/svg" fill="none" viewBox="0 0 60 60" class="design-iconfont">
  <rect width="60" height="60" rx="6" fill="#E3EDFF"/>
  <path d="M41.5405 38.3927L42.5083 38.3927C42.9737 38.3927 43.369 37.8496 43.369 37.2069L43.3688 29.3885L43.2469 29.5031C42.9625 29.7173 42.63 29.8614 42.2791 29.902C42.183 29.9131 42.087 29.9168 41.9873 29.9168L39.0469 29.9168L39.0471 39.5526L40.3769 39.5526C40.3769 38.9135 40.8977 38.3927 41.5405 38.3927Z" fill="#78C0FF"/>
  <path d="M19.0842 44.2179L35.5371 44.2179C36.1909 44.2179 36.7266 43.686 36.7266 43.0285L36.7266 34.6413C36.5751 35.1289 36.1282 35.4835 35.5889 35.4835L19.062 35.4835C18.4931 35.4835 18.0166 35.0846 17.8984 34.549L17.8985 43.0248C17.8948 43.686 18.4304 44.2179 19.0842 44.2179Z" fill="#78C0FF"/>
  <path d="M42.5081 13.4917L27.8025 13.4917C26.3914 13.4917 25.165 14.4891 24.7587 15.9777C24.5888 16.5946 24.9508 17.2337 25.5714 17.4036C26.1883 17.5735 26.8273 17.2115 26.9972 16.5909C27.1228 16.1329 27.4553 15.8115 27.8025 15.8115L42.5081 15.8115C42.9736 15.8115 43.3688 16.3545 43.3688 16.9973L43.3688 37.2069C43.3688 37.8496 42.9736 38.3926 42.5081 38.3926L41.5403 38.3926C40.9013 38.3926 40.3804 38.9135 40.3804 39.5525C40.3804 40.1916 40.9013 40.7124 41.5403 40.7124L42.5081 40.7124C44.2628 40.7124 45.6886 39.1388 45.6886 37.2069L45.6886 16.9973C45.6886 15.0653 44.2591 13.4917 42.5081 13.4917Z" fill="url(#9xhcjmwfw__linear_fill_119_2093)"/>
  <path d="M39.0466 27.1482C39.0466 27.1261 39.0429 27.1076 39.0392 27.0855C39.0355 27.03 39.0318 26.9783 39.0244 26.9229C39.017 26.8897 39.0059 26.8564 38.9949 26.8232C38.9838 26.7862 38.9727 26.7456 38.9579 26.7087C38.9431 26.6717 38.921 26.6385 38.9025 26.6052C38.884 26.572 38.8693 26.5387 38.8508 26.5092C38.8212 26.4649 38.788 26.4279 38.7548 26.391C38.74 26.3725 38.7289 26.354 38.7104 26.3356L31.4149 18.9366C31.4149 18.9366 31.4112 18.9366 31.4112 18.9329L31.4075 18.9292C31.3779 18.8996 31.341 18.8738 31.3077 18.8479C31.16 18.7297 30.9901 18.6485 30.8128 18.6115C30.8054 18.6115 30.798 18.6115 30.7906 18.6078C30.7241 18.5967 30.6539 18.5894 30.5874 18.5894L19.0845 18.5894C17.1488 18.5894 15.5752 20.163 15.5752 22.0986L15.5752 23.6538C15.5752 24.2928 16.096 24.8137 16.7351 24.8137C17.3742 24.8137 17.895 24.2928 17.895 23.6538L17.895 22.0986C17.895 21.4448 18.4269 20.9092 19.0845 20.9092L29.4275 20.9092L29.4275 24.9688C29.4275 25.9662 29.4275 28.3081 32.331 28.3081L36.7268 28.3081L36.7268 43.0322C36.7268 43.6861 36.1948 44.2217 35.5373 44.2217L19.0845 44.2217C18.4306 44.2217 17.895 43.6898 17.895 43.0322L17.895 30.3952C17.895 29.7562 17.3742 29.2353 16.7351 29.2353C16.096 29.2353 15.5752 29.7562 15.5752 30.3952L15.5752 43.0322C15.5752 44.9679 17.1488 46.5415 19.0845 46.5415L35.5373 46.5415C37.473 46.5415 39.0466 44.9679 39.0466 43.0322L39.0466 27.1482ZM32.331 25.9883C32.0318 25.9883 31.8951 25.9514 31.8471 25.9329C31.8175 25.8628 31.7473 25.6337 31.7473 24.9688L31.7473 22.5788L35.1088 25.9883L32.331 25.9883Z" fill="url(#9xhcjmwfw__linear_fill_119_2094)"/>
  <path d="M16.7351 28.3155C17.3742 28.3155 17.895 27.7946 17.895 27.1556L17.895 27.0078C17.895 26.3687 17.3742 25.8479 16.7351 25.8479C16.096 25.8479 15.5752 26.3687 15.5752 27.0078L15.5752 27.1556C15.5752 27.7946 16.096 28.3155 16.7351 28.3155Z" fill="url(#9xhcjmwfw__linear_fill_119_2095)"/>
  <defs>
    <linearGradient id="9xhcjmwfw__linear_fill_119_2093" x1="34.58789063" y1="27.79260254" x2="45.68847656" y2="13.49169922" gradientUnits="userSpaceOnUse">
      <stop offset="0" stop-color="#6467FB"/>
      <stop offset="1" stop-color="#5AC1FE"/>
    </linearGradient>
    <linearGradient id="9xhcjmwfw__linear_fill_119_2094" x1="15.57519531" y1="46.54150391" x2="42.95117188" y2="14.16540527" gradientUnits="userSpaceOnUse">
      <stop offset="0" stop-color="#6467FB"/>
      <stop offset="1" stop-color="#5AC1FE"/>
    </linearGradient>
    <linearGradient id="9xhcjmwfw__linear_fill_119_2095" x1="15.57519531" y1="27.08166504" x2="17.89453125" y2="27.08166504" gradientUnits="userSpaceOnUse">
      <stop offset=".0002" stop-color="#6467FB"/>
      <stop offset="1" stop-color="#5AC1FE"/>
    </linearGradient>
  </defs>
</svg>
