<svg xmlns="http://www.w3.org/2000/svg" fill="none" viewBox="0 0 60 60" class="design-iconfont">
  <rect width="60" height="60" rx="6" fill="#E3EDFF"/>
  <path d="M34.0531 40.4695L34.2465 40.4695L33.1566 39.334L34.0531 40.4695ZM44.2238 19.9031L43.0426 19.9031L42.4098 21.6434C42.3957 21.682 42.3676 21.7137 42.3289 21.7313C42.2902 21.7488 42.248 21.7488 42.2094 21.7348L37.175 19.9031L36.6617 19.9031L42.0301 21.8578L35.2555 40.4695L44.2238 40.4695C44.5894 40.4695 44.8848 40.1742 44.8848 39.8086L44.8848 20.5641C44.8812 20.1985 44.5859 19.9031 44.2238 19.9031ZM31.7539 19.9031L15.7859 19.9031C15.4203 19.9031 15.125 20.1985 15.125 20.5641L15.125 39.8121C15.125 40.1777 15.4203 40.4731 15.7859 40.4731L25.8617 40.4731L25.1551 38.0824C25.1551 38.0824 30.0383 24.5789 31.7539 19.9031Z" fill="#C5EAFF"/>
  <path d="M42.4066 21.6434L43.0394 19.9032L43.5562 18.4793C44.0308 17.1645 43.3523 15.716 42.0445 15.2344L36.9679 13.3887C35.5195 12.8649 33.9199 13.6102 33.389 15.0586L32.3273 17.9766C32.3132 18.0153 32.3168 18.0575 32.3308 18.0961C32.3484 18.1348 32.38 18.1629 32.4187 18.177L37.1754 19.9067L42.2097 21.7383C42.2871 21.7664 42.3785 21.7243 42.4066 21.6434Z" fill="#EF6A6A"/>
  <path d="M36.659 19.9032L32.3418 18.3317C32.3348 18.3282 32.1133 18.9223 31.7547 19.9032C30.0391 24.5789 25.1523 38.0789 25.1523 38.0789L28.116 37.4145L30.1621 39.7348L33.1574 39.3375L34.2473 40.4731L34.9785 41.2324L35.2562 40.4731L42.0309 21.8614L36.659 19.9032Z" fill="#FFD524"/>
  <path d="M30.165 39.7348L28.1189 37.418L25.1553 38.0824L25.8619 40.473L27.69 46.6605L34.992 41.6613L34.0533 40.4695L33.1604 39.334L30.165 39.7348Z" fill="#FFEBD7"/>
  <path d="M44.2246 19.4004L43.7113 19.4004L43.9996 18.6094C44.527 17.1574 43.7781 15.5543 42.3297 15.0234L36.6977 12.9773C36.0016 12.7242 35.2316 12.7559 34.5602 13.0688C33.8887 13.3816 33.3684 13.9512 33.1152 14.6473L31.3855 19.4004L15.7867 19.4004C15.1434 19.4039 14.623 19.9207 14.623 20.5641L14.623 39.8121C14.6266 40.4555 15.1434 40.9758 15.7867 40.9758L25.2824 40.9758L27.1141 47.2828C27.1492 47.4059 27.2406 47.5043 27.3637 47.5465C27.4832 47.5887 27.6168 47.5711 27.7223 47.5008L35.1789 42.4102C35.316 42.3152 35.4215 42.1781 35.4777 42.0234L35.8574 40.9758L44.2211 40.9758C44.8644 40.9723 45.3848 40.4555 45.3848 39.8121L45.3848 20.5641C45.3848 19.9207 44.8644 19.4039 44.2246 19.4004ZM34.0574 14.9918C34.3141 14.2852 34.9855 13.8141 35.7379 13.8141C35.9453 13.8141 36.1527 13.8527 36.3496 13.9231L41.9816 15.9727C42.9098 16.3102 43.3879 17.3367 43.0504 18.2649L41.9781 21.2074L32.9887 17.9379L34.0574 14.9918ZM39.1199 21.2426L32.7109 38.8524L30.3309 39.327L28.6961 37.2879L35.0734 19.7695L39.1199 21.2426ZM34.1277 19.425L27.7047 37.0699L25.8941 37.432L32.6441 18.8871L34.1277 19.425ZM15.7867 39.9668C15.7023 39.9633 15.632 39.8965 15.632 39.8121L15.632 20.5641C15.6355 20.4797 15.7023 20.4094 15.7867 20.4094L31.0129 20.4094L24.5898 38.0578C24.5336 38.216 24.5266 38.3918 24.5723 38.5535L24.9836 39.9668L15.7867 39.9668ZM29.3465 45.1664L27.3355 44.4352L25.6164 38.5149L28.007 38.0367L29.7367 40.1988C29.8562 40.3465 30.0461 40.4133 30.2289 40.3781L32.943 39.8367L34.4336 41.7L29.3465 45.1664ZM34.9012 40.6629L33.6812 39.1371L40.0691 21.5836L41.6371 22.1531L34.9012 40.6629ZM44.3793 39.8086C44.3758 39.893 44.309 39.9633 44.2246 39.9633L36.2266 39.9633L43.3457 20.4059L44.2246 20.4059C44.309 20.4094 44.3793 20.4762 44.3793 20.5606L44.3793 39.8086Z" fill="#191919"/>
  <path d="M18.9822 27.2192L26.1154 27.2192C26.3932 27.2192 26.6182 26.9942 26.6182 26.7164C26.6182 26.4387 26.3932 26.2137 26.1154 26.2137L18.9822 26.2137C18.7045 26.2137 18.4795 26.4387 18.4795 26.7164C18.4795 26.9942 18.7045 27.2192 18.9822 27.2192ZM24.0166 30.4078L18.9822 30.4078C18.7045 30.4078 18.4795 30.6328 18.4795 30.9106C18.4795 31.1883 18.7045 31.4133 18.9822 31.4133L24.0166 31.4133C24.2943 31.4133 24.5193 31.1883 24.5193 30.9106C24.5193 30.6328 24.2943 30.4078 24.0166 30.4078Z" fill="#8AAEFF"/>
</svg>
