<svg xmlns="http://www.w3.org/2000/svg" fill="none" viewBox="0 0 60 60" class="design-iconfont">
  <rect width="60" height="60" rx="6" fill="#E3EDFF"/>
  <path d="M15.6523 29.1978L20.5025 29.1978L20.5025 40.6749L15.6523 40.6749L15.6523 29.1978ZM39.5042 29.1978L44.3544 29.1978L44.3544 40.6749L39.5042 40.6749L39.5042 29.1978Z" fill="#78C0FF"/>
  <path d="M42.8455 27.7282L41.0613 27.7282C40.7694 27.7282 40.4924 27.7873 40.2301 27.8722L40.2301 26.6754C40.2301 22.0506 36.5792 15.6521 31.9544 15.6521L28.2715 15.6521C23.6467 15.6521 19.7693 22.0506 19.7693 26.6754L19.7693 27.8722C19.507 27.7873 19.23 27.7282 18.9382 27.7282L17.154 27.7282C15.6432 27.7282 14.4131 28.9583 14.4131 30.4691L14.4131 39.4454C14.4131 40.9562 15.6432 42.1863 17.154 42.1863L18.9382 42.1863C20.449 42.1863 21.6791 40.9562 21.6791 39.4454L21.6791 26.6754C21.6791 23.1033 24.6995 17.5619 28.2715 17.5619L31.9544 17.5619C35.5265 17.5619 38.3204 23.1033 38.3204 26.6754L38.3204 39.4454C38.3204 40.9562 39.5504 42.1863 41.0613 42.1863L42.8455 42.1863C44.3563 42.1863 45.5864 40.9562 45.5864 39.4454L45.5864 30.4691C45.5827 28.9583 44.3563 27.7282 42.8455 27.7282ZM19.7693 39.4454C19.7693 39.9034 19.3962 40.2765 18.9382 40.2765L17.154 40.2765C16.6959 40.2765 16.3229 39.9034 16.3229 39.4454L16.3229 30.4691C16.3229 30.011 16.6959 29.6379 17.154 29.6379L18.9382 29.6379C19.3962 29.6379 19.7693 30.011 19.7693 30.4691L19.7693 39.4454ZM43.6766 39.4454C43.6766 39.9034 43.3035 40.2765 42.8455 40.2765L41.0613 40.2765C40.6032 40.2765 40.2301 39.9034 40.2301 39.4454L40.2301 30.4691C40.2301 30.011 40.6032 29.6379 41.0613 29.6379L42.8455 29.6379C43.3035 29.6379 43.6766 30.011 43.6766 30.4691L43.6766 39.4454Z" fill="url(#1cgw4wt8f__linear_fill_119_2138)"/>
  <path d="M30.7149 37.0894C30.6521 37.0894 30.593 37.0857 30.5302 37.0746C30.1534 37.0118 29.8394 36.768 29.6917 36.4171L28.1734 32.8931L26.8067 34.511C26.5075 34.8656 26.0716 35.0688 25.6061 35.0688L22.9502 35.0688L22.9502 33.1627L25.4473 33.1627L27.5381 30.6841C27.7893 30.3849 28.1661 30.2408 28.5539 30.2999C28.9381 30.3553 29.2595 30.6028 29.4146 30.9611L30.9513 34.5332L31.7603 33.6466C32.0558 33.3216 32.4806 33.1332 32.9202 33.1332L36.7028 33.1332L36.7028 35.0429L33.0679 35.0429L31.5312 36.7311C31.3244 36.9601 31.0252 37.0894 30.7149 37.0894Z" fill="url(#1cgw4wt8f__linear_fill_119_2139)"/>
  <defs>
    <linearGradient id="1cgw4wt8f__linear_fill_119_2138" x1="14.41308594" y1="42.1862793" x2="45.5859375" y2="28.91918945" gradientUnits="userSpaceOnUse">
      <stop offset="0" stop-color="#6874FC"/>
      <stop offset="1" stop-color="#85B4FF"/>
    </linearGradient>
    <linearGradient id="1cgw4wt8f__linear_fill_119_2139" x1="22.95019531" y1="33.68811035" x2="36.703125" y2="33.68811035" gradientUnits="userSpaceOnUse">
      <stop offset="0" stop-color="#85B4FF"/>
      <stop offset=".998" stop-color="#6874FC"/>
    </linearGradient>
  </defs>
</svg>
