<svg xmlns="http://www.w3.org/2000/svg" fill="none" viewBox="0 0 60 60" class="design-iconfont">
  <rect width="60" height="60" rx="6" fill="#E3EDFF"/>
  <path d="M29.276 36.4793L34.1346 33.6562C33.8568 33.818 33.6178 34.05 33.4279 34.3453L28.5693 37.1684C28.7592 36.873 28.9982 36.641 29.276 36.4793Z" fill="#FFCD00"/>
  <path d="M28.5688 37.1684L33.4273 34.3453C33.3711 34.4332 33.3219 34.5246 33.2727 34.6231L28.4141 37.4461C28.4633 37.3477 28.5125 37.2563 28.5688 37.1684Z" fill="#FFCD00"/>
  <path d="M28.4143 37.4461L33.2729 34.623C33.2377 34.6969 33.2061 34.7742 33.1744 34.8551L28.3158 37.6781C28.3475 37.5973 28.3791 37.5199 28.4143 37.4461ZM28.3193 37.6781L33.1779 34.8551C33.1533 34.9254 33.1287 34.9957 33.1076 35.0695L28.249 37.8926C28.2701 37.8187 28.2912 37.7484 28.3193 37.6781Z" fill="#FFCD00"/>
  <path d="M28.2461 37.8926L33.1047 35.0695C33.0836 35.1363 33.066 35.2066 33.052 35.2769L28.1934 38.1C28.2109 38.0297 28.2285 37.9594 28.2461 37.8926Z" fill="#FFCD00"/>
  <path d="M28.193 38.1L33.0516 35.277C33.0375 35.3403 33.0234 35.4071 33.0129 35.4774L28.1543 38.3004C28.1648 38.2336 28.1789 38.1668 28.193 38.1ZM28.1543 38.3004L33.0129 35.4774C33.0023 35.5406 32.9918 35.6074 32.9848 35.6707L28.1262 38.4938C28.1332 38.4305 28.1402 38.3637 28.1543 38.3004ZM28.1227 38.4973L32.9813 35.6742C32.9742 35.7375 32.9672 35.8043 32.9602 35.8711L28.1016 38.6942C28.1086 38.6239 28.1156 38.5606 28.1227 38.4973Z" fill="#FFCD00"/>
  <path d="M28.1053 38.6906L32.9639 35.8676C32.9604 35.9308 32.9533 35.9941 32.9533 36.0609L28.0947 38.884C28.0947 38.8172 28.0982 38.7539 28.1053 38.6906Z" fill="#FFCD00"/>
  <path d="M28.0905 38.884L32.9526 36.0609C32.9491 36.1242 32.9491 36.191 32.9491 36.2578L28.0905 39.0808C28.087 39.014 28.087 38.9472 28.0905 38.884Z" fill="#FFCD00"/>
  <path d="M28.0879 39.0809L32.9465 36.2578L32.9465 36.2684C32.9465 36.3281 32.9465 36.3879 32.95 36.4512L28.0914 39.2742C28.0879 39.2145 28.0879 39.1512 28.0879 39.0914L28.0879 39.0809Z" fill="#FFCD00"/>
  <path d="M28.0908 39.2742L32.9494 36.4512C32.9529 36.5145 32.9529 36.5812 32.96 36.6445L28.1014 39.4676C28.0943 39.4043 28.0908 39.3375 28.0908 39.2742Z" fill="#FFCD00"/>
  <path d="M28.0977 39.4676L32.9562 36.6445C32.9598 36.7078 32.9668 36.7746 32.9703 36.8414L28.1117 39.6645C28.1082 39.5977 28.1012 39.5344 28.0977 39.4676ZM28.1152 39.6645L32.9738 36.8414C32.9809 36.9082 32.9879 36.975 32.9949 37.0383L28.1363 39.8613C28.1258 39.7945 28.1187 39.7313 28.1152 39.6645ZM28.1363 39.8613L32.9949 37.0383C33.002 37.1051 33.0125 37.1719 33.023 37.2422L28.1645 40.0652C28.1539 39.9984 28.1434 39.9281 28.1363 39.8613Z" fill="#FFCD00"/>
  <path d="M28.165 40.0652L33.0236 37.2386C33.0342 37.309 33.0447 37.3758 33.0588 37.4461L28.2002 40.2691C28.1861 40.2023 28.1756 40.132 28.165 40.0652ZM28.2002 40.2726L33.0588 37.4496L33.101 37.6605L28.2424 40.4836L28.2002 40.2726ZM28.2424 40.4836L33.101 37.6605C33.115 37.7308 33.1326 37.8047 33.1502 37.875L28.2916 40.698C28.2775 40.6242 28.26 40.5539 28.2424 40.4836ZM28.2951 40.698L33.1537 37.875C33.1713 37.9488 33.1924 38.0191 33.21 38.0929L28.3514 40.916C28.3303 40.8422 28.3127 40.7683 28.2951 40.698Z" fill="#FFCD00"/>
  <path d="M28.3516 40.916L33.2102 38.093C33.2313 38.1668 33.2523 38.2371 33.2734 38.3109L28.4148 41.134C28.3937 41.0601 28.3727 40.9863 28.3516 40.916ZM28.4148 41.134L33.2734 38.3109C33.2945 38.3812 33.3191 38.4551 33.3438 38.5254L28.4852 41.3484C28.4605 41.2746 28.4359 41.2043 28.4148 41.134Z" fill="#FFCD00"/>
  <path d="M28.4814 41.3449L33.34 38.5219L33.4139 38.7328L28.5553 41.5558L28.4814 41.3449ZM28.5553 41.5558L33.4139 38.7328C33.4385 38.7996 33.4631 38.8699 33.4912 38.9367L28.6326 41.7597C28.608 41.6929 28.5799 41.6226 28.5553 41.5558Z" fill="#FFCD00"/>
  <path d="M28.6328 41.7598L33.4914 38.9367C33.516 39.0035 33.5441 39.0703 33.5723 39.1371L28.7137 41.9601C28.6855 41.8933 28.6574 41.8265 28.6328 41.7598Z" fill="#FFCD00"/>
  <path d="M28.7129 41.9567L33.5715 39.1336C33.5996 39.2004 33.6277 39.2637 33.6559 39.3305L28.7973 42.1535C28.7656 42.0902 28.741 42.0234 28.7129 41.9567Z" fill="#FFCD00"/>
  <path d="M28.7979 42.1535L33.6564 39.3304C33.6705 39.3656 33.6881 39.3972 33.7021 39.4324L28.8436 42.2554C28.826 42.2238 28.8119 42.1886 28.7979 42.1535Z" fill="#FFCD00"/>
  <path d="M40.1566 40.4097C40.1566 40.3605 40.1531 40.3113 40.1496 40.2621L40.1391 40.1144C40.1355 40.0652 40.1285 40.016 40.1215 39.9633C40.1145 39.9105 40.1074 39.8613 40.1004 39.8086L40.1004 39.8051L40.1004 39.8015C40.0934 39.7523 40.0828 39.7031 40.0758 39.6539L40.0441 39.4957C40.0336 39.4429 40.0195 39.3902 40.0055 39.334C39.9914 39.2812 39.9773 39.225 39.9633 39.1722C39.9527 39.1301 39.9387 39.0879 39.9281 39.0457C39.9281 39.0422 39.9246 39.0386 39.9246 39.0351C39.9211 39.0281 39.9211 39.0176 39.9176 39.0105C39.9 38.9578 39.8859 38.9051 39.8684 38.8523C39.8508 38.7996 39.8332 38.7468 39.8156 38.6976C39.798 38.6484 39.7805 38.5992 39.7594 38.5465C39.7418 38.4972 39.7207 38.448 39.6996 38.3988C39.6855 38.3601 39.668 38.325 39.6504 38.2863C39.6504 38.2828 39.6469 38.2793 39.6469 38.2758C39.6434 38.2687 39.6398 38.2617 39.6363 38.2511C39.6152 38.2019 39.5906 38.1527 39.5695 38.1035C39.5449 38.0508 39.5168 37.9945 39.4922 37.9418C39.4605 37.882 39.4289 37.8187 39.3973 37.759C39.3621 37.6922 39.327 37.6289 39.2883 37.5656C39.2812 37.5551 39.2742 37.5445 39.2707 37.5304L39.2496 37.4883C39.1758 37.3652 39.102 37.2457 39.0246 37.1261C38.9613 37.0312 38.898 36.9398 38.8312 36.8519L38.6941 36.6726C38.6555 36.6234 38.6168 36.5742 38.5746 36.5285C38.5359 36.4828 38.4973 36.4371 38.4551 36.3914C38.4164 36.3457 38.3777 36.3035 38.3355 36.2613C38.3285 36.2543 38.3215 36.2437 38.3109 36.2367L38.3004 36.2261C38.2687 36.1945 38.2406 36.1629 38.209 36.1312C38.1668 36.089 38.1246 36.0469 38.0789 36.0047C38.0332 35.9625 37.991 35.9203 37.9453 35.8781C37.8996 35.8359 37.8539 35.7972 37.8082 35.7586C37.7871 35.741 37.7625 35.7199 37.7379 35.7023C37.7344 35.6988 37.7273 35.6953 37.7238 35.6883L37.6711 35.6461C37.6254 35.6109 37.5832 35.5758 37.5375 35.5441C37.4918 35.5125 37.4496 35.4808 37.4039 35.4492C37.3617 35.4211 37.316 35.3894 37.2738 35.3648C37.2316 35.3367 37.1895 35.3121 37.1437 35.284C37.1332 35.2769 37.1227 35.2734 37.1121 35.2664C37.0805 35.2488 37.0488 35.2312 37.0137 35.2136C36.9715 35.1926 36.9293 35.1679 36.8871 35.1504C36.859 35.1363 36.8344 35.1258 36.8062 35.1117L36.7852 35.1011C36.7781 35.0976 36.7676 35.0941 36.7605 35.0906C36.7184 35.073 36.6797 35.0554 36.6375 35.0379C36.5953 35.0203 36.5566 35.0062 36.5145 34.9922C36.5074 34.9886 36.5004 34.9886 36.4934 34.9851C36.4863 34.9816 36.4793 34.9816 36.4758 34.9781C36.4477 34.9676 36.4195 34.9605 36.3914 34.95C36.3492 34.9359 36.307 34.9254 36.2648 34.9148C36.2437 34.9113 36.2262 34.9043 36.2051 34.9008C36.198 34.8972 36.1875 34.8972 36.1805 34.8937C36.1664 34.8902 36.1559 34.8867 36.1418 34.8867C36.0961 34.8761 36.0539 34.8691 36.0082 34.8656C35.9801 34.8621 35.9555 34.8586 35.9273 34.8586C35.9168 34.8586 35.9098 34.8551 35.8992 34.8551C35.8887 34.8551 35.8816 34.8515 35.8711 34.8515C35.8219 34.848 35.7762 34.848 35.727 34.848C35.7059 34.848 35.6848 34.8515 35.6637 34.8515C35.6461 34.8515 35.632 34.8515 35.618 34.8551C35.6004 34.8551 35.5863 34.8551 35.5687 34.8586C35.509 34.8656 35.4492 34.8726 35.393 34.8832L35.3895 34.8832C35.3789 34.8867 35.3648 34.8902 35.3543 34.8937C35.2945 34.9078 35.2348 34.9218 35.1785 34.9429C35.175 34.9429 35.1715 34.9465 35.1645 34.95C35.0836 34.9781 35.0027 35.0168 34.9289 35.059L30.0703 37.882C30.1441 37.8398 30.2215 37.8047 30.3059 37.773C30.3656 37.7519 30.4289 37.7344 30.4957 37.7203C30.5063 37.7168 30.5203 37.7133 30.5309 37.7097C30.6047 37.6957 30.682 37.6851 30.7594 37.6816C30.777 37.6816 30.791 37.6816 30.8086 37.6781C30.8824 37.6746 30.9598 37.6746 31.0406 37.6816C31.0512 37.6816 31.0582 37.6851 31.0688 37.6851C31.1531 37.6922 31.234 37.7062 31.3219 37.7238C31.3289 37.7273 31.3395 37.7273 31.3465 37.7308C31.4344 37.7519 31.5258 37.7765 31.6172 37.8047C31.6242 37.8082 31.6313 37.8082 31.6348 37.8117C31.7297 37.8433 31.8281 37.882 31.9266 37.9277L31.9477 37.9383C32.0461 37.984 32.148 38.0367 32.25 38.0965C32.4574 38.216 32.6613 38.3601 32.8582 38.5183C32.8617 38.5219 32.8688 38.5254 32.8723 38.5289C33.0656 38.6871 33.2555 38.8629 33.4313 39.0527L33.4418 39.0633C33.8004 39.4465 34.1273 39.8894 34.398 40.3605C34.4051 40.3711 34.4086 40.3816 34.4156 40.3922C34.5492 40.6242 34.6688 40.8597 34.7742 41.1023C34.7742 41.1058 34.7777 41.1094 34.7777 41.1094C34.8867 41.3554 34.9781 41.6086 35.0555 41.8582C35.0555 41.8617 35.059 41.8652 35.059 41.8687C35.1363 42.1218 35.1926 42.375 35.2348 42.6246L35.2348 42.6281C35.2734 42.8812 35.2945 43.1273 35.2945 43.3699C35.2945 43.4859 35.2875 43.5984 35.277 43.7074C35.277 43.7179 35.2734 43.7285 35.2734 43.7355C35.2629 43.834 35.2488 43.9289 35.2313 44.0203C35.2277 44.0308 35.2277 44.0449 35.2242 44.0554C35.2066 44.1433 35.182 44.2312 35.1574 44.3121C35.1539 44.3261 35.1469 44.3402 35.1434 44.3578C35.1187 44.4351 35.0906 44.5054 35.059 44.5758C35.0555 44.5828 35.052 44.5933 35.0484 44.6004C35.0133 44.6777 34.9711 44.7515 34.9254 44.8218C34.8621 44.9203 34.7918 45.0047 34.7145 45.0855L34.6582 45.1418C34.5773 45.2156 34.493 45.2859 34.4016 45.3386L39.2602 42.5156C39.3516 42.4629 39.4359 42.3926 39.5168 42.3187C39.5379 42.3011 39.5555 42.2836 39.573 42.2625C39.6504 42.1851 39.7207 42.0972 39.784 42.0023L39.7875 41.9988C39.8297 41.932 39.8684 41.8617 39.9035 41.7879C39.9035 41.7844 39.907 41.7808 39.907 41.7808C39.9105 41.7738 39.9141 41.7633 39.9176 41.7562C39.9387 41.7105 39.9598 41.6648 39.9773 41.6156C39.9879 41.591 39.9949 41.5629 40.002 41.5383C40.0055 41.5242 40.0125 41.5101 40.016 41.4926C40.0195 41.4785 40.0266 41.4679 40.0301 41.4539C40.0441 41.4047 40.0582 41.3519 40.0723 41.2957C40.0758 41.2781 40.0793 41.257 40.0828 41.2359C40.0863 41.2254 40.0863 41.2113 40.0898 41.2008C40.0934 41.1832 40.0969 41.1656 40.1004 41.1445L40.1215 40.9968C40.125 40.9687 40.1285 40.9406 40.1285 40.9125C40.1285 40.9019 40.132 40.8949 40.132 40.8843C40.132 40.8738 40.1355 40.8597 40.1355 40.8492C40.1391 40.8035 40.1426 40.7543 40.1461 40.7051C40.1496 40.6558 40.1496 40.6066 40.1496 40.5574L40.1496 40.5469C40.1602 40.5011 40.1602 40.4554 40.1566 40.4097Z" fill="#E23007"/>
  <path d="M34.4089 45.7218C34.2753 45.7218 34.1452 45.6515 34.0749 45.5285C33.9659 45.3422 34.0292 45.1066 34.2155 45.0011C34.2753 44.966 34.335 44.9203 34.4054 44.8535L34.4475 44.8113C34.5143 44.741 34.5671 44.6777 34.6093 44.6109C34.6444 44.5582 34.6761 44.4984 34.7042 44.4386C34.7077 44.4281 34.7112 44.4211 34.7147 44.414C34.7393 44.3578 34.764 44.298 34.785 44.2312L34.7886 44.2207C34.7921 44.2136 34.7956 44.2031 34.7956 44.1961C34.8167 44.1258 34.8378 44.0519 34.8518 43.9781L34.8589 43.9465C34.8729 43.8656 34.887 43.7812 34.894 43.6968L34.8975 43.6722C34.9081 43.5703 34.9116 43.4683 34.9116 43.3699C34.9116 43.1519 34.894 42.9234 34.8554 42.6879L34.8554 42.6843C34.8202 42.4594 34.764 42.2203 34.6936 41.9812L34.6936 41.9777L34.6936 41.9742C34.6233 41.7386 34.5354 41.4996 34.4335 41.264L34.43 41.257L34.43 41.2605C34.3315 41.0355 34.2155 40.8105 34.0889 40.5855L34.0784 40.5644L34.0714 40.5539C33.8077 40.1004 33.5054 39.689 33.1678 39.3269L33.1573 39.3164C32.9885 39.1371 32.8128 38.9754 32.6335 38.8277L32.6194 38.8172C32.4331 38.666 32.2467 38.5359 32.0604 38.4304C31.9725 38.3777 31.8811 38.332 31.7897 38.2898L31.7721 38.2828C31.6878 38.2441 31.5999 38.209 31.519 38.1808L31.5049 38.1773C31.4276 38.1527 31.3503 38.1281 31.2729 38.114L31.2518 38.1105C31.1815 38.0965 31.1112 38.0859 31.0409 38.0789L31.0163 38.0754C30.9565 38.0718 30.8932 38.0683 30.8299 38.0718L30.7913 38.0718C30.728 38.0754 30.6753 38.0824 30.626 38.0929C30.612 38.0965 30.6014 38.1 30.5909 38.1035C30.5346 38.1176 30.4889 38.1281 30.4503 38.1457C30.3835 38.1703 30.3272 38.1949 30.278 38.2265C30.0917 38.3355 29.8561 38.2722 29.7507 38.0859C29.6417 37.8996 29.7049 37.664 29.8913 37.5586L29.8948 37.5586L34.7464 34.7215C34.8307 34.6722 34.9222 34.6301 35.0241 34.5914C35.0347 34.5879 35.0452 34.5808 35.0593 34.5773C35.1331 34.5527 35.2034 34.5351 35.2702 34.5176C35.2807 34.514 35.2913 34.5105 35.3054 34.507C35.3124 34.507 35.3194 34.5035 35.3229 34.5035C35.3968 34.4894 35.4706 34.4789 35.5409 34.4719C35.5585 34.4719 35.5761 34.4683 35.5901 34.4683L35.6007 34.4683C35.6182 34.4683 35.6393 34.4648 35.6604 34.4648L35.6745 34.4648C35.6956 34.4648 35.7132 34.4613 35.7343 34.4613L35.7448 34.4613C35.7975 34.4613 35.8538 34.4648 35.9065 34.4683C35.9171 34.4683 35.9276 34.4719 35.9382 34.4719C35.9452 34.4719 35.9557 34.4719 35.9628 34.4754L35.9909 34.4789C36.0155 34.4824 36.0401 34.4824 36.0647 34.4859C36.1175 34.4929 36.1702 34.5 36.2194 34.5105C36.23 34.514 36.244 34.514 36.2546 34.5176L36.2651 34.5211C36.2722 34.5211 36.2792 34.5246 36.2862 34.5246L36.3108 34.5316L36.3636 34.5422C36.4093 34.5527 36.4585 34.5668 36.5077 34.5808C36.5358 34.5879 36.5639 34.5984 36.5886 34.609L36.6026 34.6125C36.6097 34.616 36.6132 34.616 36.6202 34.6195C36.6272 34.623 36.6343 34.623 36.6413 34.6265C36.6905 34.6441 36.7362 34.6617 36.7819 34.6793C36.8276 34.6968 36.8733 34.7179 36.919 34.7355L36.9401 34.7461L36.9823 34.7672C37.0069 34.7777 37.0315 34.7883 37.0561 34.8023C37.1018 34.8269 37.1475 34.848 37.1932 34.8726C37.2284 34.8902 37.2636 34.9113 37.2987 34.9324C37.3093 34.9394 37.3198 34.9465 37.3304 34.95C37.3761 34.9781 37.4253 35.0062 37.471 35.0379C37.5167 35.066 37.5659 35.0976 37.6116 35.1293C37.6608 35.1609 37.7065 35.1961 37.7557 35.2312C37.8014 35.2664 37.8507 35.3015 37.8999 35.3402C37.9139 35.3508 37.9245 35.3613 37.9386 35.3718L37.9913 35.414C38.0089 35.4281 38.0264 35.4422 38.044 35.4597C38.0932 35.5019 38.1425 35.5441 38.1882 35.5863C38.2374 35.6285 38.2831 35.6742 38.3323 35.7199C38.378 35.7621 38.4237 35.8078 38.4694 35.8535C38.5011 35.8851 38.5327 35.9203 38.5643 35.9519L38.5854 35.973C38.5925 35.9801 38.5995 35.9871 38.603 35.9941C38.6452 36.0398 38.6874 36.0855 38.7296 36.1347C38.7718 36.184 38.8139 36.2332 38.8526 36.2824C38.8948 36.3316 38.937 36.3843 38.9757 36.4371C39.0249 36.4968 39.0706 36.5601 39.1198 36.6269L39.1233 36.6304C39.1936 36.7254 39.2604 36.8203 39.3237 36.9187C39.4046 37.0418 39.4854 37.1683 39.5628 37.2984C39.5698 37.309 39.5733 37.3195 39.5804 37.3301L39.5874 37.3406C39.5909 37.3476 39.5979 37.3547 39.6014 37.3652L39.612 37.3828C39.6472 37.4461 39.6858 37.5093 39.721 37.5797C39.7561 37.6429 39.7878 37.7062 39.8194 37.773C39.8475 37.8293 39.8757 37.8855 39.9003 37.9418C39.9249 37.9945 39.9495 38.0437 39.9706 38.0965L39.9846 38.1316C40.0022 38.1703 40.0198 38.209 40.0339 38.2511L40.0972 38.4094C40.1182 38.4621 40.1358 38.5148 40.1569 38.5676C40.178 38.6203 40.1956 38.6765 40.2132 38.7328L40.2659 38.9015C40.2694 38.9086 40.2694 38.9156 40.2729 38.9226L40.2764 38.9402C40.2905 38.9859 40.3046 39.0281 40.3151 39.0738C40.3292 39.1301 40.3468 39.1898 40.3608 39.2461C40.3749 39.3023 40.3889 39.3586 40.3995 39.4183C40.4136 39.4746 40.4241 39.5344 40.4347 39.5906C40.4452 39.6433 40.4522 39.6961 40.4628 39.7453L40.4628 39.7523C40.4733 39.8086 40.4804 39.8648 40.4874 39.9176C40.4944 39.9703 40.5014 40.0265 40.505 40.0793C40.5085 40.132 40.5155 40.1847 40.519 40.241C40.5225 40.2972 40.5261 40.35 40.5261 40.4027C40.5261 40.4519 40.5296 40.5047 40.5296 40.5539L40.5296 40.5644C40.5296 40.6172 40.5296 40.6734 40.5261 40.7261L40.5155 40.8843C40.5155 40.8949 40.512 40.9054 40.512 40.916L40.505 40.9793C40.5014 41.0039 40.5014 41.0285 40.4979 41.0496C40.4909 41.1058 40.4839 41.1621 40.4733 41.2148C40.4698 41.2324 40.4663 41.2465 40.4628 41.2605L40.4593 41.2781C40.4557 41.2922 40.4522 41.3062 40.4522 41.3203L40.4487 41.3379C40.4452 41.3554 40.4417 41.3695 40.4382 41.3871C40.4241 41.4468 40.41 41.5066 40.3925 41.5664C40.3889 41.5804 40.3854 41.5945 40.3784 41.6051L40.3749 41.6121C40.3714 41.6261 40.3679 41.6367 40.3608 41.6508L40.3503 41.6859C40.3432 41.707 40.3362 41.7316 40.3292 41.7527C40.3081 41.8125 40.2835 41.8652 40.2624 41.9144L40.2518 41.9355C40.2483 41.9426 40.2483 41.9461 40.2448 41.9531C40.2448 41.9531 40.2448 41.9566 40.2413 41.9566C40.1991 42.0445 40.1534 42.1289 40.1042 42.2062C40.1007 42.2133 40.0972 42.2168 40.0936 42.2238C40.0233 42.3293 39.9425 42.4312 39.8405 42.5332L39.7702 42.6035C39.6577 42.709 39.5522 42.7863 39.4432 42.8496L34.5847 45.6726C34.5389 45.7043 34.4722 45.7218 34.4089 45.7218ZM31.6596 37.4109C31.6878 37.4215 31.7194 37.4285 31.7475 37.439L31.751 37.439C31.7581 37.4426 31.7616 37.4426 31.7686 37.4461C31.8741 37.4812 31.9866 37.5269 32.0921 37.5761L32.1132 37.5867C32.2292 37.6394 32.3382 37.6992 32.4471 37.759C32.6686 37.8855 32.8901 38.0402 33.1046 38.216L33.1221 38.2301C33.3261 38.3953 33.5264 38.5851 33.7198 38.789L33.7304 38.7996C34.1065 39.2039 34.4475 39.6609 34.7393 40.1672C34.7429 40.1742 34.7499 40.1847 34.7534 40.1918L34.7604 40.2023C34.9046 40.4519 35.0311 40.7015 35.1401 40.9511L35.1436 40.9617C35.2561 41.2219 35.3546 41.489 35.4354 41.7527L35.4389 41.7668C35.5198 42.0375 35.5831 42.3082 35.6253 42.5718C35.671 42.8496 35.6921 43.1203 35.6921 43.3804C35.6921 43.5035 35.685 43.6265 35.6745 43.7496C35.6745 43.7566 35.6745 43.7672 35.671 43.7742L35.671 43.7812C35.6604 43.8902 35.6429 43.9992 35.6253 44.1011C35.6218 44.1152 35.6182 44.1293 35.6182 44.1398C35.6147 44.1609 35.6112 44.1785 35.6042 44.1996L39.0811 42.1816C39.1409 42.1465 39.2007 42.1008 39.271 42.034L39.3132 41.9918C39.38 41.9215 39.4327 41.8582 39.4749 41.7914C39.4784 41.7879 39.4819 41.7808 39.4854 41.7773C39.5136 41.7316 39.5417 41.6824 39.5663 41.6297C39.5663 41.6261 39.5698 41.6261 39.5698 41.6226C39.5733 41.6121 39.5768 41.6015 39.5804 41.5945C39.5979 41.5593 39.6155 41.5172 39.6296 41.4785L39.6401 41.4468L39.6507 41.4152L39.6577 41.3976C39.6612 41.3906 39.6612 41.3836 39.6647 41.3765C39.6682 41.366 39.6718 41.3554 39.6753 41.3484L39.6788 41.3414C39.6893 41.2992 39.7034 41.257 39.7139 41.2113C39.7139 41.2043 39.7175 41.1972 39.7175 41.1902C39.721 41.1797 39.721 41.1691 39.7245 41.1586C39.728 41.148 39.728 41.1375 39.7315 41.1269C39.735 41.1164 39.735 41.1058 39.7386 41.0988C39.7386 41.0918 39.7421 41.0847 39.7421 41.0777C39.7491 41.0355 39.7561 40.9933 39.7597 40.9476C39.7632 40.9336 39.7632 40.916 39.7632 40.8984L39.7667 40.8457C39.7667 40.8386 39.7667 40.8316 39.7702 40.8246L39.7702 40.814C39.7737 40.7719 39.7772 40.7297 39.7772 40.684C39.7807 40.6418 39.7807 40.5961 39.7807 40.5504L39.7807 40.5469L39.7807 40.4168C39.7807 40.3746 39.7772 40.3289 39.7737 40.2832L39.7632 40.1461C39.7597 40.1004 39.7526 40.0547 39.7491 40.009C39.7421 39.9633 39.735 39.914 39.728 39.8683L39.728 39.8648L39.728 39.8578C39.721 39.8121 39.7139 39.7664 39.7034 39.7207C39.6929 39.6715 39.6858 39.6222 39.6718 39.573C39.6612 39.5238 39.6507 39.4746 39.6366 39.4254C39.6225 39.3761 39.612 39.3234 39.5979 39.2742C39.5874 39.2355 39.5768 39.1933 39.5628 39.1547C39.5628 39.1547 39.5628 39.1476 39.5593 39.1476L39.5522 39.1195C39.5382 39.0703 39.5206 39.0211 39.503 38.9719L39.4503 38.8242C39.4327 38.7785 39.4151 38.7293 39.3975 38.6836C39.38 38.6379 39.3589 38.5886 39.3413 38.5429C39.3272 38.5078 39.3097 38.4726 39.2956 38.4375L39.2921 38.4269L39.2921 38.4304L39.2815 38.4058C39.2604 38.3601 39.2393 38.3144 39.2182 38.2652C39.1936 38.2125 39.169 38.1633 39.1444 38.114C39.1163 38.0543 39.0847 37.998 39.053 37.9418C39.0214 37.8855 38.9897 37.8258 38.9546 37.766L38.9511 37.759L38.9405 37.7379L38.9335 37.7273C38.9264 37.7168 38.9229 37.7097 38.9194 37.6992C38.9159 37.6957 38.9159 37.6922 38.9124 37.6851C38.8456 37.5691 38.7718 37.4531 38.6979 37.3441C38.6382 37.2562 38.5784 37.1683 38.5151 37.084L38.5116 37.0804C38.4694 37.0242 38.4272 36.9679 38.385 36.9152C38.3499 36.8695 38.3112 36.8238 38.2725 36.7781C38.2374 36.7359 38.1987 36.6902 38.16 36.648C38.1249 36.6058 38.0862 36.5636 38.0475 36.525L38.0124 36.4863C37.9843 36.4582 37.9561 36.4301 37.9315 36.3984L37.812 36.2789L37.6854 36.1629C37.6432 36.1242 37.6011 36.089 37.5589 36.0539C37.5448 36.0433 37.5307 36.0328 37.5202 36.0222L37.4604 35.973C37.4534 35.966 37.4429 35.959 37.4358 35.9519C37.3936 35.9203 37.3514 35.8886 37.3128 35.857C37.2706 35.8289 37.2319 35.7972 37.1897 35.7691C37.1511 35.741 37.1089 35.7164 37.0702 35.6918C37.0315 35.6672 36.9929 35.6426 36.9507 35.6179L36.9225 35.6039C36.8909 35.5863 36.8628 35.5687 36.8347 35.5547C36.796 35.5336 36.7608 35.516 36.7222 35.4949C36.7046 35.4844 36.687 35.4773 36.6694 35.4703L36.6343 35.4527C36.6272 35.4492 36.6237 35.4457 36.6167 35.4457L36.6132 35.4422C36.578 35.4281 36.5429 35.4105 36.5077 35.3965C36.4725 35.3824 36.4374 35.3683 36.4022 35.3578C36.3952 35.3543 36.3882 35.3543 36.3811 35.3508L36.353 35.3402C36.3319 35.3332 36.3143 35.3261 36.2932 35.3191C36.2581 35.3086 36.2194 35.298 36.1843 35.291C36.1737 35.2875 36.1667 35.2875 36.1597 35.284L36.1139 35.2734C36.1069 35.2734 36.0964 35.2699 36.0893 35.2664L36.0788 35.2629C36.0436 35.2558 36.005 35.2488 35.9698 35.2453C35.9557 35.2418 35.9417 35.2418 35.9276 35.2418L35.8819 35.2383C35.8714 35.2383 35.8643 35.2383 35.8573 35.2347L35.8608 35.2347C35.8257 35.2312 35.787 35.2312 35.7518 35.2312L35.7307 35.2312C35.7202 35.2312 35.7097 35.2312 35.6956 35.2347L35.6147 35.2347C35.5725 35.2383 35.5339 35.2453 35.4917 35.2523C35.4776 35.2558 35.4636 35.2593 35.453 35.2629C35.4143 35.2734 35.3722 35.2804 35.337 35.2945C35.33 35.298 35.3194 35.3015 35.3124 35.3051C35.2491 35.3297 35.1929 35.3543 35.1401 35.3859L31.6596 37.4109Z" fill="#303133"/>
  <path d="M32.2532 38.093C33.9407 39.0668 35.3047 41.4293 35.2977 43.37C35.2907 45.3141 33.9196 46.0946 32.2321 45.1207C30.5446 44.1469 29.1805 41.7844 29.1875 39.8403C29.191 37.9031 30.5657 37.1192 32.2532 38.093Z" fill="#FF3600"/>
  <path d="M33.6032 45.9293C33.1075 45.9293 32.5801 45.7711 32.0387 45.4582C31.1633 44.952 30.3477 44.0942 29.7395 43.0395C29.1313 41.9848 28.7973 40.8492 28.8008 39.8402C28.8043 39.0879 28.9977 38.4516 29.3598 38.0016C29.7289 37.541 30.2703 37.2879 30.8821 37.2879C31.3778 37.2879 31.9051 37.4461 32.4465 37.759C33.3219 38.2652 34.1375 39.1231 34.7457 40.1777C35.3539 41.2324 35.6879 42.368 35.6844 43.3735C35.6809 44.1258 35.4875 44.7656 35.1254 45.2156C34.7563 45.6762 34.2149 45.9293 33.6032 45.9293ZM30.8821 38.0613C30.0664 38.0613 29.5778 38.7258 29.5742 39.8438C29.5707 41.6578 30.8504 43.8762 32.4254 44.7867C32.8403 45.0258 33.2481 45.1524 33.6032 45.1524C34.4188 45.1524 34.9075 44.4844 34.911 43.3664C34.9145 41.5524 33.6348 39.3375 32.0598 38.427C31.645 38.1879 31.2371 38.0613 30.8821 38.0613Z" fill="#303133"/>
  <path d="M32.4855 23.8336C33.382 24.3504 34.1133 25.616 34.1098 26.6461L34.0746 38.4023C33.5086 37.7273 32.8617 37.1578 32.1762 36.7605C29.9227 35.4598 28.0945 36.5074 28.0875 39.0914C28.084 40.1074 28.3687 41.2113 28.8434 42.2555L21.4676 37.998C20.5676 37.4777 19.8363 36.2121 19.8399 35.1785L19.8891 18.4336C19.8926 17.4035 20.6274 16.9851 21.5274 17.5054L32.4855 23.8336Z" fill="#FFF354"/>
  <path d="M28.8434 42.6422C28.7766 42.6422 28.7098 42.6246 28.65 42.5895L21.2742 38.332C20.2512 37.7414 19.4496 36.3563 19.4531 35.1785L19.5024 18.4336C19.5059 17.5125 20.0262 16.8973 20.7961 16.8973C21.0949 16.8973 21.4043 16.9887 21.7207 17.1715L32.6789 23.4996C33.702 24.0902 34.5 25.4719 34.4965 26.6496L34.4648 38.4059C34.4648 38.5676 34.3629 38.7117 34.2117 38.768C34.0605 38.8242 33.8883 38.7785 33.7828 38.652C33.2273 37.991 32.6051 37.4531 31.9863 37.0981C31.4133 36.7676 30.8473 36.5918 30.3516 36.5918C29.8066 36.5918 29.3461 36.8027 29.0227 37.207C28.6676 37.6465 28.4777 38.3004 28.4777 39.0984C28.4742 40.0231 28.7238 41.0602 29.1984 42.1008C29.2687 42.2555 29.2301 42.4348 29.107 42.5473C29.0297 42.6106 28.9348 42.6422 28.8434 42.6422ZM20.7961 17.6707C20.3285 17.6707 20.2758 18.2051 20.2758 18.4371L20.2266 35.182C20.2231 36.0785 20.8805 37.2141 21.6609 37.6641L28.084 41.3731C27.8309 40.5856 27.6973 39.8121 27.7008 39.0914C27.7078 37.1016 28.7449 35.8149 30.348 35.8149C30.9879 35.8149 31.6664 36.0188 32.3695 36.4266C32.8266 36.6902 33.266 37.0242 33.6914 37.4285L33.723 26.6426C33.7266 25.7496 33.0691 24.6141 32.2922 24.1676L21.334 17.8395C21.1406 17.7305 20.9543 17.6707 20.7961 17.6707Z" fill="#303133"/>
  <path d="M38.9686 23.7492C38.9686 23.7246 38.965 23.6965 38.965 23.6719C38.965 23.6473 38.9615 23.6191 38.958 23.5945C38.9545 23.5699 38.951 23.5418 38.951 23.5172C38.9475 23.489 38.9439 23.4644 38.9404 23.4363L38.9404 23.4328L38.9404 23.4293C38.9369 23.4047 38.9334 23.3801 38.9264 23.3555C38.9193 23.3273 38.9158 23.2992 38.9088 23.2711L38.8877 23.1867C38.8807 23.1586 38.8736 23.1305 38.8666 23.0988C38.8596 23.0742 38.8525 23.0496 38.8455 23.0285L38.8455 23.025C38.8455 23.0215 38.842 23.018 38.842 23.0144C38.835 22.9863 38.8244 22.9582 38.8139 22.9301C38.8033 22.9019 38.7963 22.8738 38.7857 22.8457C38.7752 22.8176 38.7646 22.793 38.7541 22.7648C38.7436 22.7367 38.733 22.7121 38.7225 22.684C38.7154 22.6629 38.7049 22.6418 38.6943 22.6207C38.6943 22.6207 38.6943 22.6172 38.6908 22.6172C38.6908 22.6137 38.6873 22.6101 38.6873 22.6066C38.6768 22.5785 38.6627 22.5539 38.6521 22.5258C38.6381 22.4976 38.624 22.4695 38.61 22.4379C38.5924 22.4062 38.5783 22.3711 38.5607 22.3394C38.5432 22.3043 38.5221 22.2691 38.501 22.234C38.4975 22.2269 38.4939 22.2199 38.4904 22.2164L38.4799 22.1953C38.4412 22.1285 38.399 22.0652 38.3568 22.0019C38.3252 21.9527 38.29 21.907 38.2549 21.8578C38.2549 21.8578 38.2549 21.8543 38.2514 21.8543L38.1775 21.7594C38.1564 21.7312 38.1353 21.7066 38.1143 21.682L38.051 21.6082C38.0299 21.5836 38.0088 21.5625 37.9877 21.5379L37.9771 21.5273C37.9771 21.5238 37.9736 21.5238 37.9736 21.5203L37.9209 21.4676C37.8998 21.443 37.8752 21.4219 37.8506 21.4008C37.826 21.3797 37.8049 21.3551 37.7803 21.334C37.7557 21.3129 37.7311 21.2918 37.71 21.2707C37.6994 21.2601 37.6889 21.2531 37.6748 21.2426C37.6713 21.239 37.6678 21.239 37.6678 21.2355C37.6572 21.2285 37.6467 21.218 37.6396 21.2109C37.615 21.1933 37.5939 21.1758 37.5693 21.1582C37.5447 21.1406 37.5236 21.123 37.499 21.109C37.4779 21.0949 37.4533 21.0773 37.4322 21.0633C37.4111 21.0492 37.3865 21.0351 37.3654 21.0211C37.3619 21.0176 37.3549 21.014 37.3514 21.0105L26.3932 14.6824C26.3756 14.6719 26.358 14.6613 26.3404 14.6543C26.3193 14.6437 26.2947 14.6297 26.2736 14.6191C26.2525 14.6086 26.2314 14.598 26.2068 14.5875C26.1857 14.5769 26.1646 14.5699 26.1436 14.5594C26.1225 14.5488 26.1014 14.5418 26.0768 14.5348C26.0732 14.5348 26.0662 14.5312 26.0627 14.5312L26.0592 14.5312C26.0451 14.5277 26.0275 14.5207 26.0135 14.5172C25.9924 14.5101 25.9678 14.5031 25.9467 14.4996C25.9256 14.4926 25.901 14.4891 25.8799 14.4855C25.8553 14.482 25.8307 14.4785 25.8096 14.475C25.792 14.4715 25.7744 14.4715 25.7604 14.4715L25.7393 14.4715C25.7146 14.468 25.6865 14.468 25.6619 14.468C25.6338 14.468 25.6057 14.468 25.5775 14.4715C25.5459 14.475 25.5143 14.4785 25.4826 14.4855L25.4791 14.4855L25.4756 14.4855C25.4404 14.4926 25.4018 14.5031 25.3701 14.5137C25.3244 14.5312 25.2787 14.5523 25.2365 14.5734L20.3779 17.3965C20.4518 17.3543 20.5326 17.3226 20.617 17.3051L20.6205 17.3051C20.7049 17.2875 20.7998 17.284 20.8947 17.291L20.9018 17.291C20.9967 17.298 21.0986 17.3226 21.2041 17.3578L21.2111 17.3578C21.3166 17.393 21.4256 17.4422 21.5381 17.509L32.4963 23.8371C32.6053 23.9004 32.7143 23.9777 32.8197 24.0621C32.8232 24.0656 32.8268 24.0656 32.8268 24.0691C32.9287 24.1535 33.0307 24.2484 33.1256 24.3504L33.1291 24.3539C33.224 24.4558 33.3189 24.5683 33.4033 24.6844C33.4877 24.8004 33.565 24.9199 33.6389 25.0465C33.6424 25.0535 33.6459 25.0605 33.6494 25.064C33.7197 25.1871 33.783 25.3137 33.8428 25.4437C33.8428 25.4437 33.8428 25.4473 33.8463 25.4473C33.9025 25.5808 33.9553 25.7144 33.9939 25.848L33.9939 25.8515C34.0361 25.9851 34.0678 26.1223 34.0889 26.2523L34.0889 26.2558C34.11 26.3894 34.1205 26.523 34.1205 26.6496L34.0748 38.4023L38.9334 35.5793L38.965 23.823C38.9686 23.7984 38.9686 23.7738 38.9686 23.7492Z" fill="#FFCD00"/>
  <path d="M34.0757 38.7891C34.0089 38.7891 33.942 38.7715 33.8823 38.7363C33.7628 38.666 33.6889 38.5395 33.6889 38.3988L33.7206 26.6426C33.7206 26.5371 33.7135 26.4281 33.6925 26.3156L33.6925 26.3086C33.6749 26.1961 33.6468 26.0766 33.6116 25.957L33.6116 25.9535C33.5764 25.8375 33.5307 25.7145 33.478 25.5984C33.478 25.5984 33.478 25.5949 33.4745 25.5914C33.4253 25.4789 33.3655 25.3629 33.3022 25.2504L33.2916 25.2328C33.2249 25.1203 33.1546 25.0113 33.0807 24.9094L33.0772 24.9059C32.9999 24.8039 32.919 24.7055 32.8346 24.6141L32.8311 24.6105C32.7467 24.5227 32.6588 24.4383 32.5709 24.3645L32.5639 24.3609C32.4725 24.2871 32.3776 24.2203 32.2897 24.1711L21.3315 17.843C21.2436 17.7938 21.1557 17.7516 21.0714 17.7234L21.0678 17.7234C20.994 17.6988 20.9237 17.6812 20.8569 17.6777L20.8499 17.6777C20.7936 17.6742 20.7444 17.6742 20.6987 17.6848L20.6917 17.6848L20.6882 17.6848C20.6424 17.6953 20.6003 17.7094 20.5651 17.7305C20.3788 17.8395 20.1432 17.7762 20.0378 17.5898C19.9288 17.4035 19.9921 17.168 20.1784 17.0625L25.037 14.2395C25.1003 14.2043 25.1671 14.1727 25.2339 14.148C25.2796 14.1305 25.3253 14.1199 25.378 14.1059C25.385 14.1023 25.3921 14.1023 25.3991 14.1023L25.4026 14.1023C25.4483 14.0918 25.494 14.0883 25.5362 14.0813C25.5749 14.0777 25.6136 14.0742 25.6557 14.0742L25.6628 14.0742C25.6944 14.0742 25.7296 14.0742 25.7612 14.0777C25.7682 14.0777 25.7788 14.0777 25.7858 14.0813L25.7964 14.0813C25.8175 14.0848 25.8386 14.0848 25.8597 14.0883C25.8913 14.0918 25.9229 14.0988 25.9546 14.1023C25.9827 14.1094 26.0108 14.1129 26.0389 14.1199C26.0671 14.127 26.0952 14.134 26.1233 14.1445C26.1409 14.148 26.155 14.1551 26.1725 14.1621L26.1796 14.1656L26.1831 14.1656C26.1901 14.1691 26.1972 14.1691 26.2042 14.1727C26.2288 14.1832 26.2569 14.1902 26.285 14.2043C26.3097 14.2148 26.3378 14.2254 26.3659 14.2395C26.3905 14.25 26.4186 14.2641 26.4432 14.2781C26.4714 14.2922 26.496 14.3062 26.5241 14.3203C26.5452 14.3309 26.5663 14.3414 26.5839 14.3555L37.5561 20.6836C37.5843 20.6977 37.6089 20.7152 37.637 20.7328C37.6651 20.7504 37.6897 20.768 37.7179 20.7855C37.746 20.8031 37.7706 20.8242 37.7987 20.8418C37.8268 20.8629 37.8514 20.8805 37.8795 20.9016C37.8901 20.9086 37.8971 20.9156 37.9077 20.9227L37.9358 20.9438C37.9464 20.9508 37.9534 20.9578 37.9639 20.9684C37.9921 20.993 38.0202 21.0141 38.0448 21.0387C38.0729 21.0633 38.0975 21.0879 38.1256 21.1125C38.1503 21.1371 38.1784 21.1617 38.203 21.1898C38.2241 21.2109 38.2417 21.2285 38.2593 21.2496L38.2628 21.2531L38.2768 21.2672C38.2979 21.2918 38.3225 21.3164 38.3471 21.3445C38.3717 21.3727 38.3929 21.3973 38.4175 21.4254C38.442 21.4535 38.4632 21.4816 38.4878 21.5133C38.5159 21.5484 38.5405 21.5836 38.5686 21.6187C38.5686 21.6223 38.5722 21.6223 38.5722 21.6258C38.6108 21.6785 38.646 21.7313 38.6811 21.7805C38.7268 21.8508 38.7725 21.9211 38.8147 21.9949L38.8253 22.016L38.8288 22.0195C38.8323 22.023 38.8358 22.0301 38.8393 22.0371L38.8463 22.0477C38.8675 22.0828 38.8886 22.118 38.9061 22.1566C38.9237 22.1918 38.9448 22.227 38.9624 22.2656C38.9764 22.2973 38.994 22.3289 39.0081 22.3605C39.0221 22.3887 39.0362 22.4203 39.0468 22.4484L39.0503 22.459C39.0503 22.459 39.0538 22.4625 39.0538 22.466C39.0643 22.4871 39.0714 22.5117 39.0819 22.5328C39.0924 22.5609 39.1065 22.5926 39.1171 22.6207C39.1276 22.6488 39.1382 22.6805 39.1487 22.7086C39.1593 22.7402 39.1698 22.7684 39.1803 22.8L39.212 22.8949C39.212 22.8984 39.2155 22.902 39.2155 22.9055L39.2155 22.9125C39.2225 22.9371 39.2296 22.9617 39.2366 22.9898C39.2471 23.0215 39.2542 23.0531 39.2612 23.0848L39.2823 23.1797L39.3034 23.2746C39.3069 23.3027 39.3139 23.3273 39.3175 23.3555L39.3175 23.3695C39.3209 23.4012 39.328 23.4328 39.3315 23.4645C39.335 23.4961 39.3385 23.5242 39.3421 23.5559C39.3456 23.5875 39.3491 23.6156 39.3491 23.6473C39.3526 23.6789 39.3526 23.707 39.3526 23.7387L39.3526 23.823L39.3209 35.5793C39.3209 35.7164 39.2471 35.843 39.1276 35.9133L34.269 38.7363C34.2093 38.7715 34.1425 38.7891 34.0757 38.7891ZM34.4589 26.182C34.4589 26.1855 34.4589 26.1855 34.4589 26.182L34.4589 26.1891C34.4835 26.3438 34.4975 26.4984 34.4975 26.6461L34.4659 37.7309L38.5511 35.3578L38.5827 23.823L38.5827 23.7633C38.5827 23.7422 38.5827 23.7211 38.5792 23.7C38.5792 23.6789 38.5757 23.6578 38.5757 23.6332C38.5722 23.6121 38.5722 23.5875 38.5686 23.5664C38.5651 23.5453 38.5616 23.5207 38.5581 23.4996L38.5581 23.4891L38.5475 23.4258C38.544 23.4012 38.537 23.3766 38.5335 23.352C38.5264 23.3273 38.5229 23.3027 38.5159 23.2781C38.5089 23.2535 38.5018 23.2289 38.4948 23.2008C38.4878 23.1797 38.4843 23.1586 38.4772 23.1375C38.4772 23.1375 38.4772 23.134 38.4737 23.1305C38.4737 23.127 38.4737 23.1234 38.4702 23.1234C38.4632 23.0988 38.4561 23.0742 38.4456 23.0496C38.4386 23.025 38.428 23.0004 38.421 22.9758C38.4139 22.9512 38.4034 22.9266 38.3929 22.9055C38.3823 22.8809 38.3753 22.8563 38.3647 22.8352C38.3577 22.8176 38.3471 22.7965 38.3401 22.7789C38.3401 22.7789 38.3366 22.7754 38.3366 22.7719L38.3331 22.7578C38.3225 22.7367 38.312 22.7121 38.3014 22.6875C38.2909 22.6629 38.2768 22.6348 38.2628 22.6102C38.2487 22.582 38.2311 22.5504 38.2171 22.5223C38.203 22.4941 38.1854 22.4625 38.1679 22.4344L38.1538 22.4098C38.1503 22.4027 38.1468 22.3992 38.1432 22.3922L38.1397 22.3887C38.1046 22.3324 38.0694 22.2727 38.0307 22.2164C38.0026 22.1742 37.971 22.132 37.9393 22.0863C37.9393 22.0828 37.9358 22.0828 37.9323 22.0793L37.869 21.9949C37.8514 21.9703 37.8304 21.9492 37.8128 21.9246C37.7952 21.9035 37.7741 21.8789 37.7565 21.8578C37.7389 21.8367 37.7213 21.8156 37.7003 21.7945L37.6897 21.784L37.6862 21.7805C37.6721 21.7629 37.6546 21.7488 37.6405 21.7313L37.5807 21.6715C37.5597 21.6504 37.5386 21.6328 37.5175 21.6117L37.4542 21.559C37.4507 21.5555 37.4436 21.552 37.4401 21.5449L37.4225 21.5309L37.419 21.5273L37.4049 21.5168C37.4014 21.5133 37.3979 21.5098 37.3909 21.5063C37.3698 21.4922 37.3522 21.4746 37.3311 21.4605C37.31 21.4465 37.2925 21.4324 37.2714 21.4184C37.2538 21.4043 37.2327 21.3937 37.2151 21.3797C37.1975 21.3691 37.1764 21.3551 37.1588 21.3445L37.1448 21.3375L26.1866 15.0094C26.1725 15.0023 26.1585 14.9918 26.1444 14.9848C26.1268 14.9742 26.1093 14.9672 26.0917 14.9566C26.0741 14.9496 26.0565 14.9391 26.0389 14.932C26.0214 14.925 26.0038 14.918 25.9897 14.9109C25.9722 14.9039 25.9581 14.8969 25.944 14.8934C25.9405 14.8934 25.937 14.8898 25.9335 14.8898C25.93 14.8898 25.93 14.8898 25.9264 14.8863L25.9194 14.8828C25.9124 14.8793 25.9018 14.8758 25.8948 14.8758C25.8772 14.8723 25.8597 14.8652 25.8456 14.8617C25.8315 14.8582 25.8139 14.8547 25.7999 14.8512C25.7823 14.8477 25.7682 14.8441 25.7507 14.8441C25.7401 14.8441 25.7331 14.8406 25.7225 14.8406L25.7155 14.8406L25.712 14.8406L25.6522 14.8406C25.6311 14.8406 25.6136 14.8406 25.5995 14.8441C25.5854 14.8441 25.5714 14.8477 25.5538 14.8512C25.5503 14.8512 25.5432 14.8547 25.5397 14.8547C25.5186 14.8582 25.4975 14.8652 25.4835 14.8687C25.4589 14.8758 25.4378 14.8863 25.4167 14.9004L21.6128 17.1117C21.6479 17.1293 21.6831 17.1469 21.7182 17.168L32.6764 23.4961C32.7995 23.5664 32.9261 23.6543 33.0491 23.7563L33.0561 23.7633C33.1721 23.8582 33.2847 23.9637 33.3936 24.0797L33.4007 24.0867C33.5061 24.1992 33.6081 24.3223 33.703 24.4523L33.7065 24.4559C33.7979 24.5789 33.8823 24.7125 33.9632 24.8496L33.9737 24.8707C34.0546 25.0078 34.1249 25.1484 34.1847 25.2855C34.1847 25.2855 34.1881 25.2891 34.1881 25.2926C34.2514 25.4402 34.3077 25.5879 34.3499 25.732L34.3499 25.7391C34.3991 25.8867 34.4342 26.0379 34.4589 26.182Z" fill="#303133"/>
  <path d="M22.835 25.2855C22.2619 24.9551 21.7944 24.143 21.7979 23.482C21.8014 22.8246 22.2725 22.5574 22.842 22.8879L30.5412 27.3351C31.1143 27.6656 31.5819 28.4777 31.5784 29.1351C31.5748 29.7961 31.1037 30.0668 30.5342 29.7363L22.835 25.2855Z" fill="#FFF"/>
  <path d="M30.9983 30.2601C30.7838 30.2601 30.5623 30.1969 30.3408 30.0668L22.6416 25.6195C21.949 25.2187 21.4076 24.2801 21.4111 23.482C21.4147 22.8211 21.8119 22.3605 22.3779 22.3605C22.5924 22.3605 22.8139 22.4273 23.0354 22.5539L30.7346 27.0012C31.4271 27.4019 31.9686 28.3406 31.9651 29.1351C31.9651 29.7996 31.5678 30.2601 30.9983 30.2601ZM22.3779 23.134C22.2092 23.134 22.1846 23.3555 22.1846 23.4855C22.1846 24.0058 22.5783 24.6914 23.0283 24.9515L30.7275 29.3988C30.826 29.4551 30.9244 29.4867 30.9983 29.4867C31.167 29.4867 31.1916 29.2652 31.1916 29.1316C31.1916 28.6148 30.7979 27.9293 30.3479 27.6691L22.6487 23.2219C22.5467 23.1656 22.4518 23.134 22.3779 23.134Z" fill="#303133"/>
  <path d="M30.5276 31.9933C31.1006 32.3238 31.5682 33.1359 31.5647 33.7933C31.5612 34.4508 31.0901 34.718 30.5205 34.3875L22.8213 29.9402C22.2483 29.6097 21.7807 28.7976 21.7842 28.1402C21.7877 27.4828 22.2588 27.2156 22.8283 27.5461L30.5276 31.9933Z" fill="#FFF"/>
  <path d="M30.9875 34.9148C30.773 34.9148 30.5516 34.8516 30.3301 34.7215L22.6309 30.2742C21.9383 29.8734 21.3969 28.9348 21.4004 28.1402C21.4039 27.4793 21.8012 27.0187 22.3672 27.0187C22.5817 27.0187 22.8031 27.0855 23.0246 27.2121L30.7238 31.6594C31.4164 32.0601 31.9578 32.9988 31.9543 33.7933C31.9508 34.4543 31.5536 34.9148 30.9875 34.9148ZM22.3637 27.7922C22.1949 27.7922 22.1703 28.0137 22.1703 28.1437C22.1703 28.6605 22.5641 29.3461 23.0141 29.6062L30.7133 34.0535C30.8117 34.1098 30.9102 34.1449 30.984 34.1449C31.1527 34.1449 31.1773 33.9234 31.1773 33.7933C31.1773 33.2766 30.7836 32.591 30.3336 32.3308L22.6344 27.8836C22.5324 27.8238 22.4375 27.7922 22.3637 27.7922Z" fill="#303133"/>
  <path d="M21.7696 32.802C21.7731 32.141 22.2442 31.8703 22.8137 32.2008L29.8555 36.2649C29.0434 36.3316 28.4036 36.8098 28.0625 37.6324L22.8102 34.5984C22.2336 34.268 21.766 33.4594 21.7696 32.802Z" fill="#FFF"/>
  <path d="M28.0629 38.0191C27.9961 38.0191 27.9293 38.0016 27.8695 37.9664L22.6172 34.9324C21.9246 34.5316 21.3832 33.593 21.3867 32.7984C21.3903 32.134 21.7875 31.6699 22.3535 31.6699C22.568 31.6699 22.7895 31.7332 23.011 31.8633L30.0527 35.9273C30.2004 36.0117 30.2742 36.1805 30.2356 36.3457C30.1969 36.5109 30.0598 36.634 29.891 36.648C29.2125 36.7043 28.7063 37.0945 28.4215 37.7766C28.3793 37.8785 28.2949 37.9594 28.1895 37.9945C28.1473 38.0121 28.1051 38.0191 28.0629 38.0191ZM22.35 32.4469C22.1813 32.4469 22.1567 32.6684 22.1567 32.802C22.1567 33.3187 22.5504 34.0043 23.0004 34.2645L27.8977 37.091C28.1438 36.6727 28.4778 36.3527 28.875 36.1453L22.6207 32.5348C22.5223 32.4785 22.4238 32.4469 22.35 32.4469Z" fill="#303133"/>
  <path d="M33.1926 40.3535C33.3297 40.4344 33.4704 40.575 33.5758 40.7578C33.7833 41.1199 33.7833 41.5137 33.5723 41.6332L32.9219 42.0094L33.5688 43.1309C33.7762 43.493 33.7762 43.8867 33.5653 44.0063C33.4598 44.066 33.3192 44.0484 33.1821 43.9676C33.045 43.8867 32.9043 43.7461 32.7989 43.5633L32.152 42.4453L31.5016 42.818C31.3961 42.8777 31.2555 42.8602 31.1184 42.7793C30.9813 42.6984 30.8407 42.5578 30.7352 42.375C30.5278 42.0129 30.5278 41.6191 30.7387 41.4996L31.3891 41.1269L30.7422 40.0019C30.5348 39.6398 30.5348 39.2461 30.7458 39.1266C30.8512 39.0668 30.9918 39.0844 31.129 39.1652C31.2661 39.2461 31.4067 39.3867 31.5122 39.5695L32.159 40.691L32.8094 40.3184C32.9149 40.2551 33.052 40.2727 33.1926 40.3535Z" fill="#FFF"/>
  <path d="M33.4238 44.4316C33.2797 44.4316 33.132 44.3895 32.9879 44.3051C32.7875 44.1891 32.6012 43.9957 32.464 43.7602L32.007 42.9727L31.6906 43.152C31.5887 43.2082 31.4762 43.2398 31.3566 43.2398C31.2125 43.2398 31.0648 43.1977 30.9207 43.1133C30.7168 42.9973 30.534 42.8039 30.3969 42.5684C30.2105 42.2449 30.1437 41.8793 30.2211 41.5945C30.2738 41.4047 30.3863 41.2535 30.541 41.1621L30.8539 40.9828L30.4004 40.1953C30.214 39.8719 30.1472 39.5062 30.2246 39.2215C30.2773 39.0316 30.3898 38.8805 30.5445 38.7891C30.6465 38.7328 30.759 38.7012 30.8785 38.7012C31.0226 38.7012 31.1703 38.7434 31.3144 38.8277C31.5183 38.9438 31.7012 39.1371 31.8383 39.3727L32.2918 40.1602L32.6082 39.9809C32.7101 39.9246 32.8226 39.893 32.9422 39.893C33.0863 39.893 33.234 39.9352 33.3781 40.0195C33.582 40.1355 33.7648 40.3289 33.9019 40.5645C34.0882 40.8879 34.155 41.2535 34.0777 41.5383C34.025 41.7281 33.9125 41.8793 33.7578 41.9707L33.4449 42.1535L33.9019 42.9375C34.0882 43.2609 34.155 43.6266 34.0777 43.9113C34.025 44.1012 33.9125 44.2523 33.7578 44.3438C33.6558 44.4035 33.5433 44.4316 33.4238 44.4316ZM32.1511 42.0586C32.2847 42.0586 32.4148 42.1289 32.4851 42.252L33.132 43.3734C33.1883 43.4719 33.2621 43.5563 33.3324 43.609C33.3254 43.5387 33.2972 43.4402 33.2304 43.3242L32.5836 42.2027C32.5308 42.1148 32.5168 42.0094 32.5449 41.9074C32.573 41.8055 32.6363 41.7246 32.7242 41.6719L33.3394 41.3168C33.3465 41.2605 33.3359 41.1199 33.2375 40.9477C33.1707 40.8316 33.0793 40.7332 32.9949 40.684C32.9808 40.677 32.9703 40.6699 32.9597 40.6664L32.3445 41.018C32.1582 41.1234 31.9262 41.0602 31.8172 40.8738L31.1703 39.7523C31.114 39.6539 31.0402 39.5695 30.9699 39.5168C30.9769 39.5871 31.0051 39.6855 31.0719 39.8016L31.7187 40.9266C31.7715 41.0145 31.782 41.1199 31.7574 41.2219C31.7293 41.3203 31.666 41.4047 31.5746 41.4574L30.9629 41.8055C30.9558 41.8617 30.9664 42.0023 31.0648 42.1746C31.1316 42.2906 31.223 42.3891 31.3074 42.4383C31.3215 42.4453 31.332 42.4523 31.3426 42.4559L31.9578 42.1043C32.0211 42.0762 32.0844 42.0586 32.1511 42.0586Z" fill="#303133"/>
</svg>
