<svg xmlns="http://www.w3.org/2000/svg" xmlns:xlink="http://www.w3.org/1999/xlink" width="60" height="60" viewBox="0 0 60 60" fill="none">
<rect x="0" y="0" width="60" height="60" rx="6" fill="#E3EDFF">
</rect>
<rect x="0" y="57" width="60" height="3" rx="1.5" fill="#9EC5FF">

                                    <animate attributeName="y" values="57;0;57" begin="0s" dur="2s" repeatCount="indefinite" fill="freeze" calcMode="linear" keyTimes="0;0.5;1"/>
                                    <animate attributeName="height" values="3;60.000091552734375;3" begin="0s" dur="2s" repeatCount="indefinite" fill="freeze" calcMode="linear" keyTimes="0;0.5;1"/>
                                    <animate attributeName="rx" values="1.5;6;1.5" begin="0s" dur="2s" repeatCount="indefinite" fill="freeze" calcMode="linear" keyTimes="0;0.5;1"/></rect>
<path d="M15.5654 29.1108L20.4156 29.1108L20.4156 40.588L15.5654 40.588L15.5654 29.1108ZM39.4173 29.1108L44.2675 29.1108L44.2675 40.588L39.4173 40.588L39.4173 29.1108Z" fill="#78C0FF">
</path>
<path d="M42.7585 27.6413L40.9744 27.6413C40.6825 27.6413 40.4055 27.7004 40.1432 27.7853L40.1432 26.5885C40.1432 21.9637 36.4923 15.5652 31.8675 15.5652L28.1846 15.5652C23.5598 15.5652 19.6824 21.9637 19.6824 26.5885L19.6824 27.7853C19.4201 27.7004 19.1431 27.6413 18.8513 27.6413L17.0671 27.6413C15.5563 27.6413 14.3262 28.8713 14.3262 30.3822L14.3262 39.3585C14.3262 40.8693 15.5563 42.0994 17.0671 42.0994L18.8513 42.0994C20.3621 42.0994 21.5922 40.8693 21.5922 39.3585L21.5922 26.5885C21.5922 23.0164 24.6126 17.475 28.1846 17.475L31.8675 17.475C35.4395 17.475 38.2334 23.0164 38.2334 26.5885L38.2334 39.3585C38.2334 40.8693 39.4635 42.0994 40.9744 42.0994L42.7585 42.0994C44.2694 42.0994 45.4995 40.8693 45.4995 39.3585L45.4995 30.3822C45.4958 28.8713 44.2694 27.6413 42.7585 27.6413ZM19.6824 39.3585C19.6824 39.8165 19.3093 40.1896 18.8513 40.1896L17.0671 40.1896C16.609 40.1896 16.2359 39.8165 16.2359 39.3585L16.2359 30.3822C16.2359 29.9241 16.609 29.551 17.0671 29.551L18.8513 29.551C19.3093 29.551 19.6824 29.9241 19.6824 30.3822L19.6824 39.3585ZM43.5897 39.3585C43.5897 39.8165 43.2166 40.1896 42.7585 40.1896L40.9744 40.1896C40.5163 40.1896 40.1432 39.8165 40.1432 39.3585L40.1432 30.3822C40.1432 29.9241 40.5163 29.551 40.9744 29.551L42.7585 29.551C43.2166 29.551 43.5897 29.9241 43.5897 30.3822L43.5897 39.3585Z" fill="url(#linear_fill_136_244)">
</path>
<path d="M30.628 37.0025C30.5652 37.0025 30.5061 36.9988 30.4433 36.9877C30.0665 36.9249 29.7525 36.6811 29.6047 36.3302L28.0865 32.8062L26.7198 34.4241C26.4206 34.7787 25.9847 34.9819 25.5192 34.9819L22.8633 34.9819L22.8633 33.0758L25.3604 33.0758L27.4512 30.5972C27.7024 30.298 28.0791 30.1539 28.467 30.213C28.8512 30.2684 29.1726 30.5159 29.3277 30.8742L30.8644 34.4463L31.6734 33.5597C31.9689 33.2347 32.3937 33.0463 32.8333 33.0463L36.6159 33.0463L36.6159 34.956L32.981 34.956L31.4443 36.6442C31.2375 36.8732 30.9383 37.0025 30.628 37.0025Z" fill="url(#linear_fill_136_245)">
</path>
<defs>
<linearGradient id="linear_fill_136_244" x1="14.326171875" y1="42.099365234375" x2="45.4990234375" y2="28.832275390625" gradientUnits="userSpaceOnUse">
<stop offset="0" stop-color="#6874FC"/>
<stop offset="1" stop-color="#85B4FF"/>

                                    </linearGradient>
<linearGradient id="linear_fill_136_245" x1="22.86328125" y1="33.6011962890625" x2="36.6162109375" y2="33.6011962890625" gradientUnits="userSpaceOnUse">
<stop offset="0" stop-color="#85B4FF"/>
<stop offset="0.998" stop-color="#6874FC"/>

                                    </linearGradient>
</defs>
</svg>