<svg xmlns="http://www.w3.org/2000/svg" fill="none" viewBox="0 0 60 60" class="design-iconfont">
  <rect width="60" height="60" rx="6" fill="#E3EDFF"/>
  <path d="M35.4647 25.9093C35.4647 24.6015 34.4024 23.54 33.0957 23.54L20.9357 23.54C19.6279 23.54 18.5664 24.6015 18.5664 25.9093L18.5664 36.7411C18.5664 38.0488 19.6279 39.1103 20.9357 39.1103L33.0957 39.1103C34.4024 39.1103 35.4647 38.0488 35.4647 36.7411L35.4647 25.9093ZM35.8207 29.6338C35.8207 29.6338 41.7966 26.3148 42.8528 25.7504C44.1389 25.0619 45.6391 26.0612 45.6391 27.5215L45.6391 35.5294C45.6391 36.9897 44.1389 37.989 42.8528 37.3005C41.7966 36.7361 35.7251 33.2608 35.7251 33.2608L35.8207 29.6338Z" fill="#78C0FF"/>
  <path d="M35.9509 26.741C35.9509 26.741 41.1058 23.8597 42.4635 23.1343C43.5337 22.5622 44.7594 23.4261 44.7594 24.64L44.7594 34.9545C44.7594 36.1685 43.5337 37.0326 42.4635 36.4602C41.1058 35.7348 35.9509 32.8539 35.9509 32.8539L35.0947 34.3895C35.0947 34.3895 40.2701 37.2836 41.6337 38.012C43.8827 39.2133 46.5188 37.503 46.5188 34.9545L46.5188 24.64C46.5188 22.0919 43.8827 20.3815 41.6337 21.5831C40.2701 22.3118 35.0947 25.2051 35.0947 25.2051L35.9509 26.7407L35.9509 26.741Z" fill="url(#1lu5k7kkw__linear_fill_119_2151)"/>
  <path d="M35.0526 23.8185C35.0526 21.7112 33.3782 20 31.3166 20L17.7366 20C15.6741 20 14 21.7112 14 23.8185L14 36.1812C14 38.2891 15.6741 40 17.7366 40L31.3166 40C33.3782 40 35.0526 38.2891 35.0526 36.1812L35.0526 23.8185ZM32.871 23.8185L32.871 36.1812C32.871 36.2072 32.8703 36.2332 32.869 36.2592C32.8678 36.2851 32.8659 36.311 32.8634 36.3369C32.8609 36.3628 32.8577 36.3885 32.854 36.4143C32.8502 36.44 32.8459 36.4656 32.8409 36.4911C32.8359 36.5166 32.8303 36.5419 32.8241 36.5672C32.8179 36.5924 32.8111 36.6174 32.8038 36.6423C32.7964 36.6672 32.7884 36.6918 32.7798 36.7163C32.7712 36.7408 32.762 36.765 32.7523 36.789C32.7426 36.813 32.7323 36.8368 32.7214 36.8603C32.7105 36.8838 32.6991 36.907 32.6871 36.9299C32.6751 36.9528 32.6625 36.9754 32.6494 36.9977C32.6364 37.02 32.6227 37.042 32.6086 37.0636C32.5945 37.0852 32.5798 37.1064 32.5647 37.1273C32.5495 37.1482 32.5339 37.1687 32.5178 37.1888C32.5016 37.2089 32.485 37.2286 32.4679 37.2478C32.4508 37.2671 32.4333 37.2859 32.4154 37.3043C32.3974 37.3227 32.3789 37.3406 32.3601 37.3581C32.3412 37.3755 32.322 37.3925 32.3024 37.409C32.2827 37.4255 32.2626 37.4415 32.2422 37.457C32.2218 37.4725 32.201 37.4875 32.1799 37.5019C32.1587 37.5164 32.1373 37.5303 32.1154 37.5437C32.0936 37.557 32.0715 37.5699 32.0491 37.5822C32.0267 37.5944 32.004 37.6061 31.981 37.6172C31.958 37.6284 31.9347 37.6389 31.9112 37.6489C31.8877 37.6588 31.864 37.6682 31.8401 37.677C31.8161 37.6858 31.792 37.6939 31.7677 37.7015C31.7433 37.7091 31.7188 37.716 31.6942 37.7224C31.6695 37.7287 31.6447 37.7344 31.6197 37.7395C31.5948 37.7446 31.5697 37.7491 31.5446 37.7529C31.5194 37.7568 31.4942 37.76 31.4689 37.7626C31.4436 37.7651 31.4182 37.7671 31.3928 37.7684C31.3674 37.7697 31.342 37.7703 31.3166 37.7704L17.7366 37.7704C17.7112 37.7704 17.6857 37.7697 17.6603 37.7684C17.6349 37.7671 17.6096 37.7652 17.5842 37.7627C17.5589 37.7601 17.5337 37.7569 17.5085 37.7531C17.4833 37.7492 17.4583 37.7448 17.4333 37.7397C17.4084 37.7346 17.3835 37.7289 17.3589 37.7226C17.3342 37.7163 17.3097 37.7093 17.2853 37.7018C17.261 37.6942 17.2368 37.686 17.2129 37.6773C17.1889 37.6685 17.1652 37.6591 17.1417 37.6492C17.1182 37.6392 17.0949 37.6287 17.0719 37.6176C17.0489 37.6064 17.0262 37.5948 17.0038 37.5825C16.9813 37.5703 16.9592 37.5574 16.9374 37.544C16.9156 37.5306 16.8941 37.5167 16.8729 37.5023C16.8518 37.4878 16.831 37.4729 16.8105 37.4574C16.7901 37.4419 16.77 37.4259 16.7504 37.4094C16.7307 37.3929 16.7115 37.3759 16.6926 37.3585C16.6737 37.341 16.6553 37.3231 16.6373 37.3047C16.6193 37.2863 16.6018 37.2675 16.5847 37.2482C16.5676 37.2289 16.551 37.2093 16.5349 37.1892C16.5187 37.169 16.5031 37.1486 16.4879 37.1277C16.4728 37.1068 16.4581 37.0855 16.4439 37.0639C16.4298 37.0423 16.4162 37.0203 16.4031 36.998C16.39 36.9757 16.3775 36.9531 16.3655 36.9302C16.3535 36.9073 16.3421 36.884 16.3312 36.8605C16.3203 36.837 16.31 36.8133 16.3002 36.7892C16.2905 36.7652 16.2813 36.741 16.2728 36.7165C16.2642 36.692 16.2562 36.6673 16.2488 36.6424C16.2414 36.6175 16.2346 36.5925 16.2284 36.5673C16.2222 36.5421 16.2167 36.5167 16.2117 36.4912C16.2067 36.4657 16.2023 36.4401 16.1986 36.4144C16.1948 36.3886 16.1917 36.3629 16.1892 36.337C16.1867 36.3111 16.1848 36.2852 16.1836 36.2592C16.1823 36.2332 16.1817 36.2072 16.1817 36.1812L16.1817 23.8185C16.1817 23.7925 16.1823 23.7665 16.1836 23.7406C16.1848 23.7146 16.1867 23.6887 16.1892 23.6628C16.1917 23.6369 16.1949 23.6111 16.1986 23.5854C16.2024 23.5597 16.2067 23.5341 16.2117 23.5086C16.2167 23.4831 16.2223 23.4577 16.2285 23.4325C16.2347 23.4073 16.2415 23.3822 16.2488 23.3574C16.2562 23.3325 16.2642 23.3078 16.2728 23.2833C16.2814 23.2589 16.2906 23.2346 16.3003 23.2106C16.31 23.1866 16.3204 23.1628 16.3313 23.1393C16.3421 23.1158 16.3536 23.0926 16.3656 23.0697C16.3776 23.0467 16.3901 23.0241 16.4032 23.0018C16.4163 22.9795 16.4299 22.9576 16.4441 22.936C16.4582 22.9143 16.4728 22.8931 16.488 22.8722C16.5032 22.8513 16.5188 22.8308 16.535 22.8107C16.5511 22.7906 16.5677 22.771 16.5848 22.7517C16.6019 22.7324 16.6194 22.7136 16.6374 22.6952C16.6554 22.6768 16.6738 22.6589 16.6927 22.6415C16.7115 22.624 16.7308 22.607 16.7505 22.5905C16.7701 22.574 16.7902 22.5581 16.8106 22.5426C16.831 22.5271 16.8518 22.5121 16.873 22.4977C16.8942 22.4832 16.9156 22.4693 16.9375 22.4559C16.9593 22.4425 16.9814 22.4297 17.0039 22.4175C17.0263 22.4052 17.049 22.3935 17.072 22.3824C17.095 22.3713 17.1182 22.3607 17.1418 22.3508C17.1653 22.3408 17.189 22.3315 17.2129 22.3227C17.2369 22.314 17.261 22.3058 17.2854 22.2982C17.3097 22.2907 17.3342 22.2837 17.3589 22.2774C17.3836 22.2711 17.4084 22.2654 17.4334 22.2603C17.4583 22.2552 17.4833 22.2508 17.5085 22.2469C17.5337 22.2431 17.5589 22.2399 17.5842 22.2374C17.6096 22.2348 17.6349 22.2329 17.6603 22.2316C17.6857 22.2303 17.7112 22.2297 17.7366 22.2296L31.3166 22.2296C32.1728 22.2296 32.871 22.9417 32.871 23.8185ZM20.6366 25.1323C20.6605 25.1323 20.6844 25.1329 20.7084 25.1342C20.7323 25.1354 20.7562 25.1372 20.78 25.1396C20.8038 25.142 20.8276 25.145 20.8513 25.1486C20.8749 25.1522 20.8985 25.1564 20.922 25.1612C20.9455 25.166 20.9688 25.1714 20.992 25.1773C21.0153 25.1833 21.0384 25.1898 21.0613 25.1969C21.0842 25.204 21.1069 25.2117 21.1294 25.2199C21.152 25.2282 21.1743 25.237 21.1965 25.2464C21.2185 25.2558 21.2404 25.2657 21.2621 25.2762C21.2837 25.2866 21.3051 25.2976 21.3262 25.3092C21.3473 25.3207 21.3682 25.3328 21.3887 25.3453C21.4092 25.3579 21.4295 25.371 21.4494 25.3846C21.4693 25.3982 21.4888 25.4123 21.5081 25.4269C21.5273 25.4415 21.5462 25.4565 21.5647 25.472C21.5832 25.4876 21.6013 25.5035 21.6191 25.52C21.6368 25.5364 21.6541 25.5533 21.6711 25.5706C21.688 25.5879 21.7045 25.6056 21.7206 25.6237C21.7367 25.6419 21.7523 25.6604 21.7675 25.6793C21.7827 25.6983 21.7974 25.7175 21.8117 25.7372C21.8259 25.7568 21.8397 25.7768 21.853 25.7972C21.8663 25.8175 21.8792 25.8382 21.8915 25.8592C21.9038 25.8802 21.9156 25.9014 21.9269 25.923C21.9382 25.9446 21.9489 25.9665 21.9592 25.9886C21.9694 26.0107 21.9791 26.0331 21.9883 26.0557C21.9975 26.0782 22.0061 26.1011 22.0142 26.1241C22.0222 26.1472 22.0298 26.1704 22.0367 26.1938C22.0437 26.2172 22.0501 26.2408 22.0559 26.2645C22.0617 26.2883 22.067 26.3122 22.0717 26.3361C22.0763 26.3601 22.0804 26.3843 22.084 26.4085C22.0875 26.4326 22.0904 26.4569 22.0928 26.4813C22.0952 26.5056 22.0969 26.53 22.0981 26.5545C22.0993 26.5789 22.0999 26.6034 22.0999 26.6278C22.0999 26.6523 22.0993 26.6768 22.0981 26.7012C22.0969 26.7257 22.0952 26.7501 22.0928 26.7744C22.0904 26.7988 22.0875 26.8231 22.084 26.8473C22.0804 26.8715 22.0763 26.8956 22.0717 26.9196C22.067 26.9436 22.0617 26.9674 22.0559 26.9912C22.0501 27.0149 22.0437 27.0385 22.0367 27.0619C22.0298 27.0853 22.0222 27.1086 22.0142 27.1316C22.0061 27.1547 21.9975 27.1775 21.9883 27.2C21.9791 27.2227 21.9694 27.245 21.9592 27.2671C21.949 27.2893 21.9382 27.3111 21.9269 27.3327C21.9156 27.3543 21.9038 27.3756 21.8915 27.3966C21.8792 27.4176 21.8663 27.4382 21.853 27.4586C21.8397 27.4789 21.826 27.4989 21.8117 27.5186C21.7975 27.5382 21.7827 27.5575 21.7675 27.5765C21.7523 27.5954 21.7367 27.6139 21.7206 27.632C21.7045 27.6502 21.688 27.6679 21.6711 27.6852C21.6542 27.7025 21.6368 27.7194 21.6191 27.7358C21.6013 27.7523 21.5832 27.7682 21.5647 27.7838C21.5462 27.7993 21.5273 27.8143 21.5081 27.8289C21.4889 27.8435 21.4693 27.8576 21.4494 27.8712C21.4295 27.8848 21.4092 27.8979 21.3887 27.9105C21.3682 27.9231 21.3474 27.9351 21.3262 27.9467C21.3051 27.9582 21.2838 27.9692 21.2621 27.9797C21.2405 27.9902 21.2186 28.0001 21.1965 28.0095C21.1743 28.0188 21.152 28.0277 21.1295 28.0359C21.1069 28.0442 21.0842 28.0519 21.0613 28.059C21.0384 28.0661 21.0153 28.0726 20.9921 28.0786C20.9689 28.0845 20.9455 28.0899 20.922 28.0947C20.8985 28.0995 20.8749 28.1037 20.8513 28.1073C20.8276 28.1109 20.8038 28.1139 20.78 28.1163C20.7562 28.1188 20.7323 28.1206 20.7084 28.1218C20.6844 28.123 20.6605 28.1236 20.6366 28.1237C20.6126 28.1236 20.5887 28.123 20.5648 28.1218C20.5408 28.1206 20.517 28.1188 20.4932 28.1163C20.4693 28.1139 20.4455 28.1109 20.4219 28.1073C20.3982 28.1037 20.3746 28.0996 20.3511 28.0948C20.3276 28.09 20.3042 28.0846 20.281 28.0786C20.2578 28.0727 20.2347 28.0662 20.2118 28.059C20.1889 28.0519 20.1662 28.0442 20.1436 28.036C20.1211 28.0277 20.0987 28.0189 20.0766 28.0095C20.0545 28.0002 20.0326 27.9903 20.011 27.9798C19.9893 27.9693 19.9679 27.9583 19.9468 27.9468C19.9257 27.9352 19.9048 27.9232 19.8843 27.9106C19.8638 27.898 19.8435 27.8849 19.8236 27.8713C19.8037 27.8577 19.7841 27.8436 19.7649 27.829C19.7457 27.8144 19.7268 27.7994 19.7083 27.7839C19.6898 27.7683 19.6717 27.7524 19.6539 27.7359C19.6361 27.7195 19.6188 27.7026 19.6019 27.6853C19.585 27.668 19.5684 27.6503 19.5523 27.6321C19.5363 27.614 19.5206 27.5955 19.5054 27.5765C19.4902 27.5576 19.4755 27.5383 19.4612 27.5187C19.447 27.499 19.4332 27.479 19.4199 27.4587C19.4066 27.4383 19.3938 27.4177 19.3814 27.3967C19.3691 27.3757 19.3573 27.3544 19.346 27.3328C19.3347 27.3112 19.324 27.2894 19.3137 27.2672C19.3035 27.2451 19.2938 27.2227 19.2846 27.2001C19.2754 27.1775 19.2668 27.1547 19.2587 27.1317C19.2506 27.1086 19.2431 27.0854 19.2362 27.062C19.2292 27.0385 19.2228 27.0149 19.217 26.9912C19.2112 26.9675 19.2059 26.9436 19.2012 26.9196C19.1965 26.8956 19.1925 26.8715 19.1889 26.8473C19.1854 26.8231 19.1825 26.7988 19.1801 26.7744C19.1777 26.7501 19.176 26.7257 19.1748 26.7012C19.1736 26.6768 19.173 26.6523 19.173 26.6278C19.173 26.6034 19.1736 26.5789 19.1748 26.5545C19.176 26.53 19.1777 26.5056 19.1801 26.4813C19.1825 26.4569 19.1854 26.4326 19.1889 26.4084C19.1925 26.3842 19.1965 26.3601 19.2012 26.3361C19.2059 26.3121 19.2112 26.2882 19.217 26.2645C19.2228 26.2407 19.2292 26.2172 19.2362 26.1938C19.2431 26.1703 19.2506 26.1471 19.2587 26.1241C19.2668 26.101 19.2754 26.0782 19.2846 26.0556C19.2938 26.033 19.3035 26.0106 19.3137 25.9885C19.324 25.9664 19.3347 25.9445 19.346 25.923C19.3573 25.9014 19.3691 25.8801 19.3814 25.8591C19.3938 25.8381 19.4066 25.8174 19.4199 25.7971C19.4332 25.7768 19.447 25.7567 19.4612 25.7371C19.4755 25.7174 19.4902 25.6981 19.5055 25.6792C19.5206 25.6603 19.5363 25.6418 19.5524 25.6236C19.5685 25.6055 19.585 25.5878 19.6019 25.5705C19.6188 25.5532 19.6362 25.5363 19.6539 25.5199C19.6717 25.5035 19.6898 25.4875 19.7083 25.4719C19.7268 25.4564 19.7457 25.4414 19.7649 25.4268C19.7842 25.4122 19.8038 25.3981 19.8236 25.3845C19.8435 25.3709 19.8638 25.3578 19.8843 25.3453C19.9049 25.3327 19.9257 25.3206 19.9468 25.3091C19.9679 25.2975 19.9893 25.2865 20.011 25.2761C20.0326 25.2656 20.0545 25.2557 20.0766 25.2463C20.0988 25.2369 20.1211 25.2281 20.1436 25.2199C20.1662 25.2116 20.1889 25.204 20.2118 25.1968C20.2347 25.1897 20.2578 25.1832 20.281 25.1773C20.3043 25.1713 20.3276 25.1659 20.3511 25.1611C20.3746 25.1564 20.3982 25.1522 20.4219 25.1486C20.4455 25.145 20.4693 25.142 20.4932 25.1396C20.517 25.1372 20.5408 25.1354 20.5648 25.1341C20.5887 25.1329 20.6126 25.1323 20.6366 25.1323Z" fill="url(#1lu5k7kkw__linear_fill_119_2152)"/>
  <defs>
    <linearGradient id="1lu5k7kkw__linear_fill_119_2151" x1="35.09472656" y1="29.79748535" x2="46.51855469" y2="29.79748535" gradientUnits="userSpaceOnUse">
      <stop offset="0" stop-color="#757CFC"/>
      <stop offset="1" stop-color="#5CB3FE"/>
    </linearGradient>
    <linearGradient id="1lu5k7kkw__linear_fill_119_2152" x1="14" y1="30" x2="35.05273438" y2="30" gradientUnits="userSpaceOnUse">
      <stop offset="0" stop-color="#757CFC"/>
      <stop offset="1" stop-color="#5CB3FE"/>
    </linearGradient>
  </defs>
</svg>
