<svg xmlns="http://www.w3.org/2000/svg" fill="none" viewBox="0 0 60 60" class="design-iconfont">
  <rect width="60" height="60" rx="6" fill="#E3EDFF"/>
  <path d="M21.5922 17.7877C21.6218 17.8579 21.655 17.9244 21.6957 17.9835C21.7363 18.0463 21.7843 18.1054 21.836 18.1571C21.8877 18.2126 21.9468 18.2569 22.0096 18.2975C22.0724 18.3381 22.1352 18.3751 22.2054 18.4009C22.2719 18.4305 22.3421 18.449 22.416 18.4637C22.4899 18.4822 22.5637 18.4859 22.6376 18.4859C22.7115 18.4859 22.7854 18.4785 22.8592 18.4637C22.9331 18.449 23.0033 18.4305 23.0698 18.4009C23.1363 18.3714 23.2028 18.3345 23.2656 18.2975C23.3284 18.2569 23.3838 18.2089 23.4392 18.1571C23.4909 18.1054 23.5389 18.0463 23.5796 17.9835C23.6202 17.9244 23.6534 17.8579 23.683 17.7877C23.7126 17.7213 23.7347 17.6511 23.7495 17.5772C23.7643 17.5033 23.7717 17.4294 23.7717 17.3556C23.7717 17.06 23.6498 16.7682 23.4429 16.5577C23.1806 16.2954 22.7891 16.1735 22.4234 16.2474C22.3495 16.2621 22.2793 16.2843 22.2128 16.3139C22.1463 16.3434 22.0798 16.3767 22.017 16.4173C21.9542 16.4579 21.8951 16.5059 21.8434 16.5577C21.6329 16.7682 21.5146 17.0563 21.5146 17.3556C21.5146 17.4331 21.522 17.5033 21.5368 17.5772C21.5405 17.6511 21.5664 17.7213 21.5922 17.7877Z" fill="url(#6ppgpr7wg__linear_fill_119_2114)"/>
  <path d="M15.7188 40.5535C15.7188 41.1372 16.1916 41.61 16.7752 41.61L36.3569 41.61L28.9283 33.934L15.7188 40.0327L15.7188 40.5535Z" fill="#78C0FF"/>
  <path d="M43.2466 41.6137C43.8302 41.6137 44.303 41.1409 44.303 40.5572L44.303 35.5925L36.4238 38.4369L39.4972 41.6137L43.2466 41.6137Z" fill="#78C0FF"/>
  <path d="M43.2461 16.2289L25.951 16.2289C25.3267 16.2289 24.8206 16.735 24.8206 17.3592C24.8206 17.9835 25.3267 18.4896 25.951 18.4896L43.2424 18.4896C43.826 18.4896 44.2988 18.9661 44.2988 19.5461L44.2988 28.829L34.8534 32.4269C34.2697 32.6485 33.9779 33.3023 34.1996 33.886C34.3695 34.3366 34.8017 34.6137 35.256 34.6137C35.389 34.6137 35.5257 34.5915 35.6587 34.5398L44.2988 31.2485L44.2988 40.561C44.2988 41.1446 43.826 41.6174 43.2424 41.6174L39.4967 41.6174L36.4233 38.4406L26.0581 27.7171C25.6998 27.3477 25.1383 27.2664 24.6913 27.5176L15.715 32.5709L15.715 19.5461C15.715 18.9624 16.1878 18.4896 16.7715 18.4896L19.2427 18.4896C19.867 18.4896 20.3731 17.9835 20.3731 17.3592C20.3731 16.735 19.867 16.2289 19.2427 16.2289L16.7752 16.2289C14.9467 16.2289 13.458 17.7175 13.458 19.5461L13.458 40.5536C13.458 42.3821 14.9467 43.8707 16.7752 43.8707L43.2461 43.8707C45.0746 43.8707 46.5632 42.3821 46.5632 40.5536L46.5632 19.5461C46.5632 17.7175 45.0746 16.2289 43.2461 16.2289ZM25.0386 29.9113L28.9283 33.934L36.3568 41.6137L16.7752 41.6137C16.1915 41.6137 15.7187 41.1409 15.7187 40.5573L15.7187 35.1604L25.0386 29.9113Z" fill="url(#6ppgpr7wg__linear_fill_119_2117)"/>
  <path d="M38.9945 24.6104C38.9945 22.3977 37.1919 20.5951 34.9792 20.5951C32.7665 20.5951 30.9639 22.3977 30.9639 24.6104C30.9639 26.8231 32.7665 28.6257 34.9792 28.6257C37.1919 28.6257 38.9945 26.8268 38.9945 24.6104ZM33.2209 24.6104C33.2209 23.6426 34.0077 22.8521 34.9792 22.8521C35.947 22.8521 36.7375 23.6389 36.7375 24.6104C36.7375 25.5782 35.9507 26.3687 34.9792 26.3687C34.0114 26.3687 33.2209 25.5819 33.2209 24.6104Z" fill="url(#6ppgpr7wg__linear_fill_119_2118)"/>
  <defs>
    <linearGradient id="6ppgpr7wg__linear_fill_119_2114" x1="22.64355469" y1="16.22607422" x2="22.64355469" y2="18.48596191" gradientUnits="userSpaceOnUse">
      <stop offset="0" stop-color="#85B4FF"/>
      <stop offset=".998" stop-color="#646BFB"/>
    </linearGradient>
    <linearGradient id="6ppgpr7wg__linear_fill_119_2117" x1="41.5703125" y1="16.22888184" x2="15.46875" y2="43.87072754" gradientUnits="userSpaceOnUse">
      <stop offset="0" stop-color="#85B4FF"/>
      <stop offset="1" stop-color="#646BFB"/>
    </linearGradient>
    <linearGradient id="6ppgpr7wg__linear_fill_119_2118" x1="34.97949219" y1="20.59509277" x2="34.97949219" y2="28.62573242" gradientUnits="userSpaceOnUse">
      <stop offset="0" stop-color="#85B4FF"/>
      <stop offset=".998" stop-color="#646BFB"/>
    </linearGradient>
  </defs>
</svg>
