<svg xmlns="http://www.w3.org/2000/svg" xmlns:xlink="http://www.w3.org/1999/xlink" width="60" height="60" viewBox="0 0 60 60" fill="none">
<rect x="0" y="0" width="60" height="60" rx="6" fill="#E3EDFF">
</rect>
<rect x="0" y="57" width="60" height="3" rx="1.5" fill="#9EC5FF">

                                    <animate attributeName="y" values="57;0;57" begin="0s" dur="2s" repeatCount="indefinite" fill="freeze" calcMode="linear" keyTimes="0;0.5;1"/>
                                    <animate attributeName="height" values="3;60.000091552734375;3" begin="0s" dur="2s" repeatCount="indefinite" fill="freeze" calcMode="linear" keyTimes="0;0.5;1"/>
                                    <animate attributeName="rx" values="1.5;6;1.5" begin="0s" dur="2s" repeatCount="indefinite" fill="freeze" calcMode="linear" keyTimes="0;0.5;1"/></rect>
<path d="M21.5053 17.7008C21.5349 17.771 21.5681 17.8375 21.6087 17.8966C21.6494 17.9594 21.6974 18.0185 21.7491 18.0702C21.8008 18.1256 21.8599 18.17 21.9227 18.2106C21.9855 18.2512 22.0483 18.2882 22.1185 18.314C22.185 18.3436 22.2552 18.3621 22.3291 18.3768C22.4029 18.3953 22.4768 18.399 22.5507 18.399C22.6246 18.399 22.6985 18.3916 22.7723 18.3768C22.8462 18.3621 22.9164 18.3436 22.9829 18.314C23.0494 18.2845 23.1159 18.2475 23.1787 18.2106C23.2415 18.17 23.2969 18.1219 23.3523 18.0702C23.404 18.0185 23.452 17.9594 23.4927 17.8966C23.5333 17.8375 23.5665 17.771 23.5961 17.7008C23.6256 17.6343 23.6478 17.5642 23.6626 17.4903C23.6774 17.4164 23.6847 17.3425 23.6847 17.2686C23.6847 16.9731 23.5628 16.6813 23.356 16.4707C23.0937 16.2085 22.7021 16.0866 22.3364 16.1605C22.2626 16.1752 22.1924 16.1974 22.1259 16.2269C22.0594 16.2565 21.9929 16.2897 21.9301 16.3304C21.8673 16.371 21.8082 16.419 21.7565 16.4707C21.5459 16.6813 21.4277 16.9694 21.4277 17.2686C21.4277 17.3462 21.4351 17.4164 21.4499 17.4903C21.4536 17.5642 21.4795 17.6343 21.5053 17.7008Z" fill="url(#linear_fill_136_198)">
</path>
<path d="M15.6318 40.4666C15.6318 41.0503 16.1047 41.5231 16.6883 41.5231L36.27 41.5231L28.8414 33.847L15.6318 39.9458L15.6318 40.4666Z" fill="#78C0FF">
</path>
<path d="M43.1596 41.5268C43.7433 41.5268 44.2161 41.0539 44.2161 40.4703L44.2161 35.5056L36.3369 38.35L39.4103 41.5268L43.1596 41.5268Z" fill="#78C0FF">
</path>
<path d="M43.1591 16.142L25.864 16.142C25.2398 16.142 24.7337 16.648 24.7337 17.2723C24.7337 17.8966 25.2398 18.4027 25.864 18.4027L43.1554 18.4027C43.7391 18.4027 44.2119 18.8792 44.2119 19.4591L44.2119 28.742L34.7665 32.34C34.1828 32.5616 33.891 33.2154 34.1126 33.7991C34.2826 34.2497 34.7148 34.5268 35.1691 34.5268C35.3021 34.5268 35.4388 34.5046 35.5718 34.4529L44.2119 31.1616L44.2119 40.474C44.2119 41.0577 43.7391 41.5305 43.1554 41.5305L39.4098 41.5305L36.3364 38.3537L25.9712 27.6302C25.6129 27.2608 25.0514 27.1795 24.6044 27.4307L15.6281 32.484L15.6281 19.4591C15.6281 18.8755 16.1009 18.4027 16.6846 18.4027L19.1558 18.4027C19.7801 18.4027 20.2862 17.8966 20.2862 17.2723C20.2862 16.648 19.7801 16.142 19.1558 16.142L16.6883 16.142C14.8598 16.142 13.3711 17.6306 13.3711 19.4591L13.3711 40.4667C13.3711 42.2952 14.8598 43.7838 16.6883 43.7838L43.1591 43.7838C44.9876 43.7838 46.4763 42.2952 46.4763 40.4667L46.4763 19.4591C46.4763 17.6306 44.9876 16.142 43.1591 16.142ZM24.9516 29.8244L28.8414 33.8471L36.2699 41.5268L16.6883 41.5268C16.1046 41.5268 15.6318 41.054 15.6318 40.4704L15.6318 35.0735L24.9516 29.8244Z" fill="url(#linear_fill_136_201)">
</path>
<path d="M38.9076 24.5235C38.9076 22.3108 37.105 20.5082 34.8923 20.5082C32.6796 20.5082 30.877 22.3108 30.877 24.5235C30.877 26.7362 32.6796 28.5388 34.8923 28.5388C37.105 28.5388 38.9076 26.7399 38.9076 24.5235ZM33.134 24.5235C33.134 23.5557 33.9208 22.7652 34.8923 22.7652C35.8601 22.7652 36.6506 23.552 36.6506 24.5235C36.6506 25.4913 35.8638 26.2818 34.8923 26.2818C33.9245 26.2818 33.134 25.495 33.134 24.5235Z" fill="url(#linear_fill_136_202)">
</path>
<defs>
<linearGradient id="linear_fill_136_198" x1="22.556640625" y1="16.13916015625" x2="22.556640625" y2="18.3990478515625" gradientUnits="userSpaceOnUse">
<stop offset="0" stop-color="#85B4FF"/>
<stop offset="0.998" stop-color="#646BFB"/>

                                    </linearGradient>
<linearGradient id="linear_fill_136_201" x1="41.4833984375" y1="16.1419677734375" x2="15.3818359375" y2="43.7838134765625" gradientUnits="userSpaceOnUse">
<stop offset="0" stop-color="#85B4FF"/>
<stop offset="1" stop-color="#646BFB"/>

                                    </linearGradient>
<linearGradient id="linear_fill_136_202" x1="34.892578125" y1="20.5081787109375" x2="34.892578125" y2="28.538818359375" gradientUnits="userSpaceOnUse">
<stop offset="0" stop-color="#85B4FF"/>
<stop offset="0.998" stop-color="#646BFB"/>

                                    </linearGradient>
</defs>
</svg>