<svg xmlns="http://www.w3.org/2000/svg" fill="none" viewBox="0 0 60 60" class="design-iconfont">
  <rect width="60" height="60" rx="6" fill="#E3EDFF"/>
  <path d="M14.8262 35.616L30.8484 35.616L33.5709 45.138L17.5487 45.138L14.8262 35.616Z" fill="#FFF"/>
  <path d="M30.8477 35.6183L42.7884 25.3403L45.2094 33.8025L33.5724 45.138L30.8499 35.616L30.8477 35.6183Z" fill="#E6E8EB"/>
  <path d="M43.3307 25.185C43.3275 25.1737 43.3239 25.1625 43.32 25.1515C43.316 25.1404 43.3118 25.1294 43.3071 25.1186C43.3025 25.1078 43.2975 25.0972 43.2922 25.0867C43.2869 25.0762 43.2813 25.0659 43.2754 25.0557C43.2694 25.0456 43.2632 25.0357 43.2566 25.0259C43.2501 25.0162 43.2432 25.0066 43.236 24.9973C43.2289 24.988 43.2214 24.9789 43.2137 24.97C43.2059 24.9612 43.198 24.9526 43.1897 24.9442C43.1814 24.9359 43.1729 24.9278 43.1641 24.92C43.1553 24.9122 43.1463 24.9047 43.137 24.8974C43.1278 24.8901 43.1183 24.8832 43.1086 24.8765C43.099 24.8699 43.0891 24.8635 43.0789 24.8575C43.0689 24.8515 43.0586 24.8457 43.0482 24.8404C43.0377 24.835 43.0271 24.8299 43.0164 24.8252C43.0056 24.8204 42.9947 24.816 42.9837 24.812C42.9726 24.808 42.9615 24.8043 42.9502 24.8009C42.939 24.7976 42.9276 24.7946 42.9161 24.7919C42.9047 24.7893 42.8931 24.787 42.8815 24.7851C42.87 24.7832 42.8583 24.7817 42.8466 24.7805C42.835 24.7793 42.8232 24.7785 42.8115 24.7781C42.7997 24.7776 42.788 24.7775 42.7762 24.7778C42.7645 24.7781 42.7528 24.7787 42.741 24.7798C42.7294 24.7808 42.7177 24.7822 42.7061 24.784C42.6944 24.7857 42.6829 24.7878 42.6714 24.7903C42.6599 24.7928 42.6485 24.7956 42.6372 24.7988C42.6259 24.802 42.6147 24.8056 42.6036 24.8095C42.5925 24.8133 42.5815 24.8176 42.5707 24.8222C42.5599 24.8267 42.5492 24.8317 42.5387 24.8369C42.5282 24.8422 42.5179 24.8477 42.5077 24.8536C42.4975 24.8596 42.4875 24.8658 42.4778 24.8723C42.468 24.8788 42.4584 24.8856 42.4491 24.8928C42.4397 24.8999 42.4306 24.9073 42.4217 24.915L30.643 35.0535L14.8255 35.0535C14.8147 35.0535 14.8039 35.0538 14.793 35.0545C14.7822 35.0551 14.7714 35.0561 14.7607 35.0573C14.7499 35.0586 14.7392 35.0601 14.7285 35.062C14.7178 35.0639 14.7072 35.0661 14.6967 35.0686C14.6861 35.0711 14.6757 35.0739 14.6653 35.077C14.6549 35.0801 14.6446 35.0835 14.6344 35.0872C14.6242 35.0909 14.6141 35.0949 14.6042 35.0992C14.5942 35.1034 14.5844 35.108 14.5747 35.1128C14.565 35.1177 14.5555 35.1228 14.5461 35.1282C14.5367 35.1336 14.5274 35.1392 14.5184 35.1452C14.5093 35.1511 14.5004 35.1573 14.4917 35.1637C14.483 35.1702 14.4744 35.1769 14.4661 35.1838C14.4578 35.1908 14.4497 35.1979 14.4418 35.2054C14.4338 35.2128 14.4261 35.2204 14.4187 35.2283C14.4112 35.2361 14.404 35.2441 14.397 35.2524C14.39 35.2607 14.3832 35.2691 14.3767 35.2778C14.3702 35.2865 14.3639 35.2953 14.3579 35.3043C14.3519 35.3133 14.3462 35.3225 14.3407 35.3319C14.3352 35.3413 14.33 35.3508 14.3251 35.3604C14.3202 35.3701 14.3155 35.3799 14.3112 35.3898C14.3068 35.3997 14.3027 35.4097 14.299 35.4199C14.2952 35.4301 14.2917 35.4403 14.2885 35.4507C14.2853 35.461 14.2824 35.4715 14.2799 35.482C14.2773 35.4926 14.275 35.5031 14.273 35.5138C14.2711 35.5245 14.2694 35.5352 14.2681 35.5459C14.2667 35.5567 14.2657 35.5674 14.2649 35.5783C14.2642 35.5891 14.2638 35.5999 14.2637 35.6108C14.2636 35.6216 14.2638 35.6324 14.2643 35.6432C14.2649 35.6541 14.2657 35.6649 14.2668 35.6757C14.268 35.6864 14.2695 35.6972 14.2712 35.7079C14.273 35.7185 14.2751 35.7292 14.2775 35.7398C14.2798 35.7503 14.2825 35.7608 14.2855 35.7712L17.008 45.2932C17.0101 45.3005 17.0123 45.3077 17.0147 45.3149C17.0171 45.3221 17.0196 45.3292 17.0223 45.3363C17.0249 45.3433 17.0277 45.3504 17.0307 45.3573C17.0336 45.3643 17.0367 45.3712 17.0399 45.378C17.0432 45.3849 17.0465 45.3916 17.05 45.3983C17.0535 45.405 17.0572 45.4116 17.0609 45.4182C17.0647 45.4248 17.0686 45.4313 17.0726 45.4377C17.0767 45.4441 17.0808 45.4504 17.0851 45.4566C17.0894 45.4628 17.0938 45.469 17.0983 45.475C17.1028 45.4811 17.1075 45.487 17.1123 45.4929C17.117 45.4987 17.1219 45.5045 17.1269 45.5102C17.1319 45.5159 17.137 45.5214 17.1422 45.5269C17.1475 45.5323 17.1528 45.5377 17.1583 45.543C17.1637 45.5482 17.1693 45.5533 17.1749 45.5584C17.1806 45.5633 17.1863 45.5683 17.1921 45.5731C17.198 45.5779 17.2039 45.5825 17.21 45.5871C17.216 45.5916 17.2221 45.5961 17.2283 45.6004C17.2346 45.6047 17.2409 45.6088 17.2473 45.6129C17.2536 45.617 17.2601 45.6209 17.2666 45.6247C17.2732 45.6285 17.2798 45.6321 17.2865 45.6357C17.2932 45.6392 17.2999 45.6426 17.3067 45.6458C17.3136 45.6491 17.3205 45.6522 17.3274 45.6551C17.3344 45.6581 17.3414 45.6609 17.3484 45.6636C17.3555 45.6663 17.3626 45.6689 17.3698 45.6713C17.3769 45.6737 17.3842 45.676 17.3914 45.6781C17.3987 45.6802 17.406 45.6821 17.4133 45.684C17.4206 45.6858 17.428 45.6874 17.4354 45.689C17.4428 45.6905 17.4503 45.6918 17.4577 45.6931C17.4652 45.6943 17.4727 45.6954 17.4802 45.6963C17.4877 45.6972 17.4952 45.698 17.5027 45.6986C17.5103 45.6992 17.5178 45.6997 17.5253 45.7C17.5329 45.7003 17.5405 45.7005 17.548 45.7005L33.5072 45.7005C33.5175 45.7016 33.5279 45.7024 33.5382 45.703C33.5486 45.7036 33.5589 45.7038 33.5693 45.7038C33.5796 45.7038 33.59 45.7034 33.6003 45.7028C33.6106 45.7022 33.621 45.7014 33.6312 45.7002C33.6415 45.6991 33.6518 45.6976 33.662 45.6959C33.6722 45.6941 33.6824 45.6921 33.6925 45.6898C33.7026 45.6875 33.7126 45.685 33.7225 45.6821C33.7325 45.6793 33.7424 45.6762 33.7522 45.6728C33.762 45.6694 33.7717 45.6657 33.7812 45.6618C33.7908 45.6578 33.8003 45.6537 33.8096 45.6492C33.819 45.6448 33.8282 45.6401 33.8373 45.6351C33.8464 45.6301 33.8554 45.6249 33.8642 45.6195C33.873 45.614 33.8816 45.6083 33.8901 45.6024C33.8986 45.5965 33.9069 45.5903 33.9151 45.5839C33.9232 45.5776 33.9312 45.5709 33.939 45.5641C33.9468 45.5573 33.9544 45.5502 33.9617 45.543L45.601 34.2075C45.6101 34.1987 45.6188 34.1896 45.6272 34.1802C45.6357 34.1708 45.6438 34.1611 45.6516 34.1511C45.6594 34.1412 45.6668 34.131 45.6739 34.1206C45.681 34.1101 45.6878 34.0994 45.6941 34.0885C45.7005 34.0776 45.7066 34.0665 45.7122 34.0552C45.7178 34.0439 45.7231 34.0324 45.7279 34.0207C45.7328 34.009 45.7373 33.9972 45.7413 33.9853C45.7454 33.9733 45.7491 33.9612 45.7523 33.949C45.7556 33.9368 45.7584 33.9245 45.7608 33.9121C45.7632 33.8997 45.7652 33.8872 45.7668 33.8747C45.7684 33.8621 45.7696 33.8495 45.7703 33.837C45.771 33.8243 45.7713 33.8117 45.7712 33.7991C45.7711 33.7864 45.7705 33.7738 45.7696 33.7612C45.7686 33.7486 45.7672 33.7361 45.7654 33.7235C45.7636 33.711 45.7614 33.6986 45.7587 33.6863C45.756 33.6739 45.753 33.6616 45.7495 33.6495L43.3307 25.185ZM30.4225 36.1785L32.8232 44.5755L17.9733 44.5755L15.5725 36.1785L30.4225 36.1785ZM33.8515 44.0805L31.489 35.8095L42.4915 26.3392L44.575 33.636L33.8515 44.0805Z" fill="#303133"/>
  <path d="M27.2954 25.1895L42.7889 25.338L30.8481 35.6183L14.8281 35.6183L27.2954 25.1895Z" fill="#FFF"/>
  <path d="M26.9367 24.7575C26.9494 24.7469 26.9625 24.7368 26.9762 24.7274C26.9898 24.718 27.0038 24.7091 27.0182 24.7009C27.0326 24.6927 27.0473 24.6851 27.0624 24.6782C27.0774 24.6713 27.0927 24.6651 27.1084 24.6595C27.124 24.654 27.1398 24.6491 27.1559 24.6449C27.1719 24.6408 27.1881 24.6373 27.2044 24.6346C27.2208 24.6319 27.2372 24.6299 27.2538 24.6286C27.2703 24.6273 27.2868 24.6268 27.3034 24.627L42.7969 24.7777C42.804 24.7778 42.811 24.7781 42.8181 24.7784C42.8252 24.7788 42.8322 24.7793 42.8393 24.78C42.8463 24.7806 42.8533 24.7813 42.8604 24.7822C42.8673 24.7832 42.8743 24.7842 42.8813 24.7853C42.8883 24.7865 42.8952 24.7878 42.9022 24.7892C42.9091 24.7907 42.916 24.7922 42.9229 24.7939C42.9298 24.7956 42.9366 24.7974 42.9434 24.7994C42.9502 24.8013 42.9569 24.8034 42.9637 24.8055C42.9704 24.8078 42.9771 24.8101 42.9837 24.8125C42.9903 24.815 42.9969 24.8175 43.0034 24.8202C43.01 24.823 43.0164 24.8258 43.0229 24.8287C43.0293 24.8317 43.0357 24.8347 43.042 24.8379C43.0483 24.8411 43.0546 24.8444 43.0608 24.8478C43.067 24.8512 43.0731 24.8548 43.0792 24.8584C43.0852 24.8621 43.0912 24.8658 43.0971 24.8697C43.103 24.8736 43.1089 24.8776 43.1146 24.8817C43.1204 24.8858 43.1261 24.89 43.1317 24.8943C43.1373 24.8986 43.1428 24.903 43.1482 24.9075C43.1537 24.9121 43.159 24.9167 43.1643 24.9214C43.1696 24.9261 43.1748 24.931 43.1798 24.9359C43.1849 24.9408 43.1899 24.9458 43.1948 24.9509C43.1997 24.956 43.2045 24.9612 43.2092 24.9665C43.2139 24.9718 43.2185 24.9771 43.223 24.9826C43.2275 24.9881 43.2319 24.9936 43.2362 24.9992C43.2405 25.0048 43.2446 25.0106 43.2487 25.0163C43.2528 25.0221 43.2567 25.028 43.2606 25.0339C43.2644 25.0398 43.2682 25.0459 43.2718 25.0519C43.2754 25.058 43.2789 25.0641 43.2823 25.0703C43.2857 25.0765 43.289 25.0828 43.2921 25.0891C43.2953 25.0954 43.2983 25.1018 43.3012 25.1083C43.3041 25.1147 43.3069 25.1212 43.3096 25.1278C43.3123 25.1343 43.3148 25.1409 43.3173 25.1475C43.3197 25.1542 43.322 25.1609 43.3241 25.1676C43.3263 25.1743 43.3284 25.1811 43.3303 25.1879C43.3322 25.1947 43.3339 25.2016 43.3356 25.2085C43.3373 25.2153 43.3388 25.2222 43.3402 25.2292C43.3416 25.2361 43.3429 25.2431 43.344 25.2501C43.3451 25.257 43.3461 25.264 43.347 25.271C43.3479 25.2781 43.3486 25.2851 43.3492 25.2921C43.3498 25.2992 43.3503 25.3063 43.3506 25.3133C43.351 25.3204 43.3512 25.3274 43.3512 25.3345C43.3513 25.3416 43.3512 25.3487 43.3511 25.3557C43.3509 25.3628 43.3505 25.3699 43.3501 25.3769C43.3496 25.384 43.349 25.391 43.3483 25.398C43.3475 25.4051 43.3467 25.4121 43.3457 25.4191C43.3447 25.4261 43.3436 25.4331 43.3423 25.4401C43.3411 25.447 43.3397 25.4539 43.3382 25.4609C43.3367 25.4677 43.335 25.4746 43.3332 25.4815C43.3314 25.4883 43.3296 25.4951 43.3275 25.5019C43.3255 25.5087 43.3233 25.5154 43.321 25.5221C43.3187 25.5288 43.3163 25.5354 43.3138 25.542C43.3113 25.5486 43.3086 25.5552 43.3058 25.5617C43.303 25.5682 43.3001 25.5746 43.2971 25.581C43.2941 25.5874 43.2909 25.5938 43.2876 25.6C43.2844 25.6063 43.281 25.6125 43.2775 25.6186C43.274 25.6248 43.2704 25.6309 43.2667 25.6369C43.2629 25.6429 43.2591 25.6488 43.2551 25.6547C43.2512 25.6606 43.2471 25.6663 43.2429 25.672C43.2387 25.6778 43.2345 25.6834 43.2301 25.689C43.2257 25.6945 43.2212 25.6999 43.2166 25.7053C43.212 25.7107 43.2073 25.716 43.2026 25.7212C43.1978 25.7264 43.1929 25.7315 43.1879 25.7366C43.1829 25.7416 43.1778 25.7465 43.1727 25.7513C43.1675 25.7561 43.1622 25.7609 43.1569 25.7655L31.2162 36.0435C31.2035 36.0544 31.1905 36.0648 31.177 36.0745C31.1634 36.0842 31.1495 36.0934 31.1352 36.1019C31.1208 36.1104 31.1061 36.1183 31.0911 36.1255C31.0761 36.1327 31.0607 36.1392 31.0451 36.1451C31.0295 36.1509 31.0136 36.156 30.9976 36.1605C30.9814 36.1649 30.9652 36.1686 30.9489 36.1716C30.9324 36.1746 30.9159 36.1769 30.8993 36.1784C30.8827 36.1799 30.8661 36.1807 30.8494 36.1807L14.8294 36.1807C14.8222 36.1807 14.8151 36.1806 14.808 36.1803C14.8008 36.18 14.7937 36.1796 14.7866 36.179C14.7794 36.1785 14.7723 36.1778 14.7652 36.177C14.7581 36.1762 14.751 36.1752 14.744 36.1741C14.7369 36.173 14.7299 36.1718 14.7229 36.1704C14.7159 36.1691 14.7089 36.1676 14.7019 36.1659C14.6949 36.1643 14.688 36.1626 14.6811 36.1607C14.6742 36.1588 14.6674 36.1567 14.6606 36.1546C14.6538 36.1524 14.647 36.1501 14.6403 36.1478C14.6335 36.1453 14.6269 36.1428 14.6202 36.1401C14.6136 36.1375 14.607 36.1347 14.6005 36.1318C14.594 36.1288 14.5875 36.1258 14.5811 36.1226C14.5747 36.1195 14.5683 36.1162 14.5621 36.1128C14.5558 36.1094 14.5496 36.1059 14.5434 36.1022C14.5373 36.0986 14.5312 36.0948 14.5252 36.0909C14.5192 36.087 14.5132 36.0831 14.5074 36.079C14.5015 36.0748 14.4958 36.0707 14.4901 36.0663C14.4844 36.062 14.4788 36.0576 14.4732 36.053C14.4677 36.0485 14.4623 36.0439 14.4569 36.0392C14.4516 36.0344 14.4463 36.0296 14.4412 36.0246C14.436 36.0197 14.4309 36.0147 14.426 36.0095C14.421 36.0044 14.4161 35.9991 14.4113 35.9938C14.4066 35.9885 14.4019 35.9831 14.3973 35.9776C14.3928 35.9721 14.3883 35.9665 14.384 35.9609C14.3796 35.9552 14.3754 35.9494 14.3712 35.9436C14.3671 35.9378 14.3631 35.9319 14.3592 35.9259C14.3553 35.9199 14.3515 35.9139 14.3478 35.9077C14.3441 35.9016 14.3406 35.8954 14.3371 35.8891C14.3337 35.8829 14.3303 35.8766 14.3271 35.8702C14.3239 35.8638 14.3209 35.8573 14.3179 35.8508C14.315 35.8443 14.3121 35.8377 14.3094 35.8311C14.3067 35.8245 14.3041 35.8178 14.3017 35.8111C14.2992 35.8044 14.2969 35.7977 14.2947 35.7909C14.2925 35.7841 14.2905 35.7772 14.2885 35.7704C14.2866 35.7635 14.2848 35.7565 14.2831 35.7496C14.2815 35.7426 14.2799 35.7357 14.2785 35.7287C14.2771 35.7217 14.2759 35.7146 14.2747 35.7076C14.2736 35.7005 14.2726 35.6934 14.2717 35.6863C14.2709 35.6793 14.2701 35.6722 14.2695 35.665C14.2689 35.6579 14.2685 35.6507 14.2682 35.6436C14.2678 35.6365 14.2676 35.6293 14.2676 35.6222C14.2675 35.6151 14.2676 35.6079 14.2679 35.6008C14.2681 35.5936 14.2684 35.5865 14.2689 35.5793C14.2694 35.5722 14.27 35.5651 14.2708 35.558C14.2716 35.5509 14.2725 35.5438 14.2735 35.5367C14.2745 35.5297 14.2757 35.5226 14.277 35.5156C14.2783 35.5086 14.2798 35.5016 14.2813 35.4946C14.2829 35.4876 14.2846 35.4807 14.2864 35.4738C14.2883 35.4669 14.2902 35.46 14.2923 35.4532C14.2944 35.4463 14.2967 35.4395 14.299 35.4328C14.3014 35.4261 14.3039 35.4194 14.3065 35.4127C14.3091 35.4061 14.3118 35.3995 14.3147 35.3929C14.3175 35.3863 14.3205 35.3799 14.3236 35.3734C14.3268 35.367 14.33 35.3606 14.3333 35.3543C14.3367 35.348 14.3402 35.3418 14.3438 35.3356C14.3473 35.3294 14.3511 35.3233 14.3549 35.3173C14.3587 35.3112 14.3626 35.3052 14.3667 35.2994C14.3707 35.2935 14.3749 35.2877 14.3792 35.2819C14.3835 35.2762 14.3878 35.2706 14.3923 35.265C14.3968 35.2594 14.4014 35.2539 14.4061 35.2486C14.4108 35.2432 14.4156 35.2379 14.4205 35.2327C14.4254 35.2275 14.4304 35.2224 14.4355 35.2174C14.4406 35.2124 14.4458 35.2074 14.451 35.2026C14.4563 35.1978 14.4617 35.1931 14.4671 35.1885L26.9367 24.7575ZM27.4992 25.7542L16.3774 35.0557L30.6424 35.0557L41.2916 25.887L27.4992 25.752L27.4992 25.7542Z" fill="#8AAEFF"/>
  <path d="M40.1338 22.8855C40.5343 23.1217 40.9438 23.2477 41.3533 23.268C42.0508 23.2972 42.6538 23.0138 43.1578 22.6402C43.1785 22.6236 43.1989 22.6066 43.2189 22.5892C43.2389 22.5717 43.2586 22.5539 43.2779 22.5357C43.2972 22.5175 43.3162 22.499 43.3348 22.48C43.3533 22.4611 43.3715 22.4418 43.3894 22.4221C43.4072 22.4024 43.4247 22.3824 43.4417 22.3621C43.4588 22.3417 43.4754 22.3211 43.4916 22.3C43.5079 22.2791 43.5237 22.2577 43.5391 22.2361C43.5545 22.2145 43.5694 22.1926 43.584 22.1704C43.5985 22.1481 43.6126 22.1257 43.6263 22.1029C43.6399 22.0801 43.6531 22.0571 43.6659 22.0338C43.6786 22.0106 43.6909 21.987 43.7028 21.9632C43.7146 21.9395 43.7259 21.9155 43.7368 21.8913C43.7477 21.8671 43.7581 21.8427 43.768 21.8181C43.778 21.7934 43.7874 21.7686 43.7963 21.7436C43.8053 21.7187 43.8137 21.6935 43.8217 21.6681C43.8296 21.6428 43.8371 21.6174 43.8441 21.5917C43.9701 21.1868 44.0151 20.7255 43.9881 20.2598C43.9341 19.3418 43.5853 18.3113 42.8608 17.5868C42.1296 16.8578 41.0968 16.5383 40.1811 16.5338C39.3013 16.5315 38.3203 16.8263 37.8793 17.5958C37.5216 18.2168 37.5351 18.9638 37.7308 19.6658L27.3448 28.848C27.3216 28.87 27.2989 28.8926 27.2767 28.9158C27.2545 28.9389 27.2329 28.9626 27.2118 28.9867C27.1908 29.0109 27.1703 29.0356 27.1505 29.0607C27.1306 29.0859 27.1114 29.1115 27.0928 29.1375C27.0741 29.1636 27.0561 29.1901 27.0388 29.2171C27.0214 29.244 27.0047 29.2714 26.9887 29.2991C26.9726 29.3269 26.9573 29.3549 26.9426 29.3834C26.9279 29.4119 26.9139 29.4407 26.9006 29.4699C26.8873 29.4991 26.8747 29.5285 26.8628 29.5583C26.8509 29.588 26.8397 29.618 26.8293 29.6483C26.8188 29.6786 26.8091 29.7092 26.8001 29.7399C26.7911 29.7707 26.7829 29.8016 26.7754 29.8328C26.7679 29.8639 26.7611 29.8953 26.7551 29.9267C26.7491 29.9582 26.7439 29.9898 26.7394 30.0215C26.7349 30.0533 26.7312 30.0851 26.7283 30.117C26.7253 30.149 26.7231 30.1809 26.7217 30.2129C26.7202 30.2449 26.7196 30.277 26.7197 30.309C26.7199 30.3411 26.7207 30.3731 26.7224 30.4051C26.724 30.4371 26.7265 30.4691 26.7297 30.5009C26.7328 30.5328 26.7368 30.5646 26.7415 30.5963C26.7463 30.628 26.7517 30.6596 26.758 30.691C26.7642 30.7224 26.7712 30.7537 26.7789 30.7848C26.7866 30.8159 26.7951 30.8468 26.8043 30.8775C26.8135 30.9082 26.8235 30.9386 26.8342 30.9689C26.8449 30.9991 26.8563 31.029 26.8684 31.0587C26.8805 31.0884 26.8933 31.1177 26.9068 31.1468C26.9204 31.1758 26.9346 31.2046 26.9495 31.2329C26.9644 31.2613 26.98 31.2893 26.9962 31.3169C27.0125 31.3445 27.0294 31.3718 27.0469 31.3985C27.0645 31.4253 27.0827 31.4517 27.1015 31.4776C27.1203 31.5036 27.1397 31.5291 27.1598 31.5541C27.1798 31.5791 27.2005 31.6036 27.2217 31.6276C27.2429 31.6516 27.2647 31.6751 27.287 31.6981C27.3094 31.7211 27.3323 31.7435 27.3557 31.7653C27.3791 31.7872 27.4031 31.8085 27.4275 31.8292C27.452 31.85 27.4769 31.8701 27.5023 31.8896C27.5277 31.9091 27.5536 31.928 27.5799 31.9463C27.6062 31.9646 27.633 31.9822 27.6601 31.9992C27.6873 32.0162 27.7149 32.0325 27.7428 32.0482C27.7708 32.0639 27.7991 32.0789 27.8278 32.0932C27.8564 32.1075 27.8854 32.1211 27.9148 32.134C27.9441 32.1469 27.9737 32.1592 28.0036 32.1706C28.0335 32.1822 28.0637 32.1929 28.0941 32.203C28.1246 32.213 28.1552 32.2224 28.1861 32.2309C28.217 32.2395 28.248 32.2474 28.2793 32.2544C28.3105 32.2615 28.3419 32.2679 28.3735 32.2734C28.4051 32.279 28.4367 32.2839 28.4685 32.2879C28.5003 32.292 28.5322 32.2953 28.5641 32.2978C28.5961 32.3003 28.6281 32.3021 28.6601 32.3031C28.6921 32.3041 28.7242 32.3043 28.7562 32.3037C28.7882 32.3032 28.8203 32.3019 28.8523 32.2998C28.8842 32.2977 28.9161 32.2949 28.948 32.2913C28.9798 32.2877 29.0115 32.2833 29.0432 32.2782C29.0748 32.273 29.1063 32.2672 29.1377 32.2605C29.169 32.2538 29.2002 32.2464 29.2312 32.2383C29.2622 32.2301 29.293 32.2213 29.3235 32.2116C29.3541 32.202 29.3844 32.1917 29.4145 32.1806C29.4445 32.1695 29.4743 32.1577 29.5038 32.1452C29.5333 32.1327 29.5625 32.1195 29.5914 32.1056C29.6203 32.0917 29.6488 32.0771 29.677 32.0618C29.7051 32.0465 29.7329 32.0306 29.7603 32.014C29.7877 31.9974 29.8147 31.9801 29.8413 31.9622C29.8679 31.9443 29.894 31.9257 29.9197 31.9066C29.9454 31.8874 29.9706 31.8676 29.9953 31.8472L40.1316 22.8832L40.1338 22.8855ZM40.1788 17.6453C40.8673 17.6475 41.5963 17.8928 42.0756 18.3743C42.5638 18.858 42.8361 19.605 42.8788 20.325C42.9013 20.6828 42.8631 21.0068 42.7843 21.2633C42.7788 21.2866 42.7723 21.3097 42.765 21.3324C42.7577 21.3553 42.7495 21.3778 42.7405 21.4C42.7315 21.4222 42.7216 21.444 42.7109 21.4655C42.7002 21.4869 42.6887 21.5079 42.6764 21.5285C42.6641 21.5491 42.6511 21.5692 42.6373 21.5887C42.6235 21.6083 42.6089 21.6274 42.5937 21.6458C42.5784 21.6643 42.5625 21.6822 42.5459 21.6994C42.5292 21.7167 42.5119 21.7333 42.4941 21.7493C42.1116 22.0327 41.7516 22.1722 41.4028 22.1542C41.3404 22.1518 41.2785 22.1449 41.2171 22.1335C41.1556 22.1222 41.0953 22.1066 41.0361 22.0868L41.2318 21.9135C41.2558 21.8924 41.2792 21.8707 41.3021 21.8485C41.325 21.8262 41.3474 21.8034 41.3692 21.7801C41.391 21.7568 41.4123 21.733 41.433 21.7086C41.4536 21.6843 41.4737 21.6595 41.4932 21.6342C41.5127 21.6089 41.5316 21.5832 41.5499 21.5569C41.5681 21.5308 41.5858 21.5042 41.6027 21.4771C41.6197 21.4501 41.6361 21.4226 41.6517 21.3948C41.6674 21.367 41.6824 21.3388 41.6967 21.3103C41.7111 21.2817 41.7247 21.2529 41.7377 21.2237C41.7506 21.1945 41.7629 21.165 41.7744 21.1352C41.7859 21.1055 41.7967 21.0754 41.8068 21.0451C41.8169 21.0148 41.8263 20.9843 41.835 20.9536C41.8436 20.9228 41.8515 20.8919 41.8587 20.8608C41.8658 20.8297 41.8722 20.7984 41.8779 20.7669C41.8836 20.7355 41.8885 20.704 41.8926 20.6723C41.8968 20.6407 41.9002 20.6089 41.9028 20.5771C41.9054 20.5453 41.9073 20.5134 41.9085 20.4815C41.9095 20.4496 41.9099 20.4176 41.9095 20.3857C41.909 20.3538 41.9079 20.3219 41.906 20.29C41.904 20.2582 41.9013 20.2264 41.8978 20.1946C41.8944 20.1629 41.8902 20.1312 41.8852 20.0996C41.8802 20.0681 41.8745 20.0367 41.868 20.0054C41.8615 19.9742 41.8543 19.9431 41.8463 19.9121C41.8383 19.8812 41.8296 19.8505 41.8202 19.82C41.8108 19.7895 41.8006 19.7592 41.7897 19.7292C41.7788 19.6992 41.7673 19.6695 41.755 19.64C41.7427 19.6105 41.7296 19.5814 41.7159 19.5525C41.7022 19.5237 41.6878 19.4952 41.6728 19.467C41.6577 19.4389 41.642 19.4111 41.6256 19.3837C41.6092 19.3563 41.5921 19.3293 41.5745 19.3027C41.5567 19.2761 41.5384 19.2499 41.5195 19.2242C41.5006 19.1985 41.481 19.1733 41.4609 19.1485C41.4407 19.1237 41.42 19.0995 41.3987 19.0757C41.3774 19.0519 41.3555 19.0286 41.3332 19.0059C41.3107 18.9831 41.2878 18.9609 41.2643 18.9393C41.2408 18.9177 41.2168 18.8966 41.1923 18.8761C41.1678 18.8556 41.1429 18.8357 41.1174 18.8164C41.092 18.7971 41.0661 18.7784 41.0398 18.7604C41.0134 18.7423 40.9867 18.7249 40.9595 18.7081C40.9323 18.6913 40.9048 18.6752 40.8769 18.6597C40.8489 18.6443 40.8206 18.6295 40.792 18.6154C40.7633 18.6013 40.7343 18.5878 40.7051 18.5751C40.6758 18.5624 40.6462 18.5504 40.6164 18.5391C40.5865 18.5278 40.5564 18.5172 40.526 18.5073C40.4956 18.4974 40.465 18.4883 40.4342 18.4799C40.4034 18.4715 40.3724 18.4638 40.3413 18.4569C40.3101 18.45 40.2787 18.4438 40.2473 18.4384C40.2158 18.4329 40.1842 18.4283 40.1525 18.4244C40.1208 18.4204 40.0891 18.4173 40.0572 18.4149C40.0254 18.4125 39.9935 18.4109 39.9616 18.41C39.9297 18.4092 39.8977 18.409 39.8658 18.4097C39.8339 18.4104 39.802 18.4118 39.7701 18.414C39.7383 18.4162 39.7065 18.4191 39.6748 18.4228C39.6431 18.4265 39.6114 18.431 39.5799 18.4362C39.5484 18.4414 39.5171 18.4474 39.4859 18.4541C39.4547 18.4608 39.4236 18.4683 39.3927 18.4765C39.3619 18.4847 39.3312 18.4936 39.3008 18.5033C39.2704 18.5129 39.2402 18.5233 39.2102 18.5345C39.1803 18.5456 39.1507 18.5574 39.1213 18.5699C39.0919 18.5825 39.0628 18.5957 39.0341 18.6096C39.0054 18.6235 38.977 18.6381 38.9489 18.6534C38.9209 18.6687 38.8932 18.6846 38.866 18.7013C38.8387 18.7178 38.8118 18.7351 38.7854 18.753C38.7589 18.7709 38.7329 18.7894 38.7073 18.8085C38.7052 18.7802 38.704 18.7518 38.7038 18.7234C38.7036 18.695 38.7044 18.6666 38.7062 18.6382C38.7079 18.6099 38.7107 18.5816 38.7145 18.5534C38.7182 18.5253 38.7229 18.4973 38.7286 18.4694C38.7343 18.4416 38.741 18.414 38.7486 18.3866C38.7562 18.3592 38.7648 18.3322 38.7743 18.3054C38.7838 18.2786 38.7942 18.2522 38.8056 18.2262C38.817 18.2001 38.8292 18.1745 38.8423 18.1493C38.9863 17.8973 39.4521 17.643 40.1766 17.6453L40.1788 17.6453ZM40.0866 21.4433L29.2641 31.017C29.2532 31.0267 29.242 31.036 29.2306 31.0452C29.2192 31.0543 29.2076 31.0632 29.1958 31.0717C29.184 31.0802 29.172 31.0885 29.1598 31.0964C29.1476 31.1044 29.1352 31.1121 29.1226 31.1194C29.11 31.1268 29.0972 31.1338 29.0843 31.1405C29.0713 31.1472 29.0582 31.1536 29.045 31.1597C29.0317 31.1658 29.0183 31.1715 29.0048 31.177C28.9913 31.1824 28.9776 31.1875 28.9638 31.1922C28.95 31.197 28.9361 31.2014 28.9221 31.2055C28.9081 31.2095 28.894 31.2133 28.8798 31.2166C28.8657 31.22 28.8514 31.223 28.8371 31.2257C28.8227 31.2284 28.8084 31.2307 28.7939 31.2327C28.7795 31.2347 28.765 31.2363 28.7504 31.2375C28.7359 31.2388 28.7214 31.2397 28.7068 31.2402C28.6922 31.2408 28.6776 31.241 28.663 31.2408C28.6485 31.2407 28.6339 31.2401 28.6193 31.2392C28.6048 31.2384 28.5903 31.2371 28.5758 31.2355C28.5613 31.2339 28.5468 31.232 28.5324 31.2297C28.518 31.2273 28.5037 31.2247 28.4894 31.2217C28.4752 31.2187 28.461 31.2153 28.4469 31.2116C28.4328 31.2079 28.4188 31.2038 28.4049 31.1994C28.391 31.1951 28.3772 31.1903 28.3635 31.1852C28.3498 31.1802 28.3363 31.1748 28.3229 31.169C28.3095 31.1633 28.2962 31.1572 28.2831 31.1508C28.27 31.1444 28.2571 31.1378 28.2443 31.1307C28.2315 31.1237 28.2189 31.1164 28.2065 31.1087C28.1941 31.1011 28.1819 31.0931 28.1698 31.0849C28.1578 31.0767 28.146 31.0681 28.1344 31.0593C28.1228 31.0505 28.1114 31.0414 28.1002 31.032C28.089 31.0226 28.0781 31.013 28.0674 31.003C28.0567 30.9931 28.0463 30.983 28.0361 30.9725C28.0259 30.9621 28.016 30.9514 28.0063 30.9405C27.9967 30.9296 27.9873 30.9185 27.9782 30.9071C27.969 30.8957 27.9602 30.8841 27.9517 30.8723C27.9431 30.8604 27.9348 30.8485 27.9269 30.8362C27.9189 30.824 27.9113 30.8116 27.9039 30.799C27.8966 30.7864 27.8895 30.7736 27.8828 30.7607C27.8761 30.7478 27.8697 30.7347 27.8636 30.7214C27.8575 30.7082 27.8518 30.6948 27.8463 30.6812C27.8409 30.6677 27.8358 30.654 27.8311 30.6402C27.8263 30.6264 27.8219 30.6126 27.8178 30.5986C27.8138 30.5846 27.81 30.5705 27.8067 30.5563C27.8033 30.5421 27.8003 30.5278 27.7976 30.5135C27.7949 30.4992 27.7926 30.4848 27.7906 30.4703C27.7886 30.4559 27.787 30.4414 27.7858 30.4269C27.7845 30.4123 27.7836 30.3978 27.7831 30.3832C27.7825 30.3686 27.7823 30.3541 27.7825 30.3395C27.7827 30.3249 27.7832 30.3103 27.7841 30.2958C27.785 30.2812 27.7862 30.2667 27.7878 30.2522C27.7894 30.2377 27.7914 30.2233 27.7937 30.2089C27.796 30.1945 27.7986 30.1801 27.8016 30.1659C27.8047 30.1516 27.808 30.1374 27.8117 30.1233C27.8154 30.1092 27.8195 30.0952 27.8239 30.0813C27.8283 30.0674 27.833 30.0536 27.8381 30.0399C27.8432 30.0263 27.8486 30.0128 27.8543 29.9993C27.86 29.9859 27.8661 29.9727 27.8725 29.9595C27.8789 29.9465 27.8856 29.9335 27.8926 29.9207C27.8996 29.908 27.907 29.8954 27.9146 29.8829C27.9222 29.8705 27.9302 29.8583 27.9384 29.8463C27.9467 29.8342 27.9552 29.8224 27.964 29.8108C27.9728 29.7992 27.9819 29.7878 27.9913 29.7766C28.0007 29.7655 28.0104 29.7545 28.0203 29.7438C28.0302 29.7332 28.0404 29.7227 28.0508 29.7125C28.0612 29.7023 28.0719 29.6924 28.0828 29.6827L39.3148 19.7445C39.3258 19.7348 39.3369 19.7254 39.3483 19.7163C39.3597 19.7072 39.3713 19.6983 39.3832 19.6898C39.395 19.6812 39.4071 19.673 39.4193 19.665C39.4315 19.6571 39.4439 19.6494 39.4566 19.642C39.4691 19.6347 39.4819 19.6276 39.4949 19.6209C39.5078 19.6142 39.521 19.6078 39.5342 19.6017C39.5475 19.5956 39.5609 19.5899 39.5745 19.5844C39.588 19.579 39.6017 19.5739 39.6155 19.5692C39.6293 19.5644 39.6432 19.56 39.6573 19.5559C39.6713 19.5519 39.6854 19.5482 39.6996 19.5448C39.7138 19.5414 39.7281 19.5384 39.7425 19.5357C39.7568 19.5331 39.7712 19.5307 39.7857 19.5288C39.8002 19.5268 39.8147 19.5252 39.8292 19.5239C39.8438 19.5227 39.8583 19.5218 39.8729 19.5212C39.8875 19.5207 39.9021 19.5205 39.9167 19.5207C39.9313 19.5209 39.9459 19.5214 39.9604 19.5223C39.975 19.5232 39.9896 19.5245 40.0041 19.5261C40.0186 19.5277 40.033 19.5296 40.0475 19.532C40.0619 19.5343 40.0762 19.537 40.0905 19.54C40.1048 19.543 40.119 19.5464 40.1331 19.5501C40.1472 19.5538 40.1613 19.5579 40.1752 19.5623C40.1891 19.5667 40.2029 19.5715 40.2166 19.5765C40.2303 19.5816 40.2438 19.587 40.2572 19.5928C40.2707 19.5985 40.2839 19.6046 40.2971 19.611C40.3101 19.6174 40.3231 19.6242 40.3359 19.6312C40.3487 19.6382 40.3613 19.6456 40.3737 19.6532C40.3862 19.6609 40.3984 19.6689 40.4104 19.6772C40.4225 19.6854 40.4343 19.6939 40.4459 19.7028C40.4575 19.7116 40.4689 19.7208 40.4801 19.7302C40.4913 19.7396 40.5022 19.7492 40.5129 19.7592C40.5236 19.7691 40.534 19.7793 40.5442 19.7898C40.5544 19.8002 40.5644 19.8109 40.574 19.8219C40.5837 19.8328 40.5931 19.844 40.6022 19.8554C40.6113 19.8668 40.6201 19.8784 40.6287 19.8902C40.6373 19.902 40.6455 19.9141 40.6535 19.9263C40.6614 19.9386 40.6691 19.951 40.6764 19.9636C40.6838 19.9762 40.6908 19.989 40.6976 20.002C40.7042 20.015 40.7106 20.0281 40.7168 20.0413C40.7228 20.0546 40.7286 20.068 40.734 20.0816C40.7394 20.0951 40.7445 20.1088 40.7492 20.1226C40.754 20.1365 40.7584 20.1504 40.7624 20.1644C40.7665 20.1784 40.7702 20.1925 40.7736 20.2067C40.7769 20.2209 40.78 20.2352 40.7826 20.2496C40.7853 20.2639 40.7876 20.2783 40.7896 20.2928C40.7915 20.3073 40.7931 20.3218 40.7944 20.3363C40.7956 20.3509 40.7965 20.3655 40.7971 20.38C40.7975 20.3946 40.7977 20.4092 40.7975 20.4238C40.7973 20.4384 40.7968 20.453 40.7959 20.4676C40.795 20.4821 40.7938 20.4967 40.7922 20.5112C40.7906 20.5257 40.7885 20.5402 40.7862 20.5546C40.7839 20.569 40.7812 20.5834 40.7782 20.5976C40.7752 20.6119 40.7718 20.6261 40.7681 20.6402C40.7643 20.6543 40.7602 20.6684 40.7559 20.6823C40.7514 20.6962 40.7466 20.71 40.7416 20.7237C40.7364 20.7374 40.731 20.7509 40.7253 20.7643C40.7195 20.7777 40.7134 20.791 40.707 20.8041C40.7006 20.8173 40.6939 20.8302 40.6868 20.843C40.6798 20.8558 40.6724 20.8684 40.6648 20.8808C40.6571 20.8932 40.6491 20.9055 40.6409 20.9175C40.6326 20.9295 40.6241 20.9414 40.6152 20.953C40.6063 20.9646 40.5972 20.976 40.5878 20.9871C40.5784 20.9983 40.5687 21.0092 40.5588 21.0199C40.5488 21.0306 40.5386 21.041 40.5282 21.0512C40.5177 21.0614 40.507 21.0714 40.4961 21.081L40.0866 21.441L40.0866 21.4433Z" fill="#303133"/>
  <path d="M38.8428 18.1515C38.9868 17.8995 39.4525 17.643 40.177 17.6475C40.8678 17.6475 41.5945 17.895 42.076 18.3743C42.562 18.8603 42.8365 19.6073 42.8793 20.3273C42.9018 20.6828 42.8635 21.0068 42.7825 21.2633C42.777 21.2866 42.7707 21.3096 42.7634 21.3324C42.7562 21.3552 42.7481 21.3776 42.7392 21.3999C42.7302 21.422 42.7205 21.4438 42.7099 21.4653C42.6993 21.4867 42.6878 21.5077 42.6757 21.5283C42.6635 21.5489 42.6505 21.5689 42.6368 21.5885C42.6231 21.6081 42.6087 21.6272 42.5935 21.6457C42.5783 21.6642 42.5625 21.6821 42.546 21.6994C42.5295 21.7167 42.5123 21.7333 42.4945 21.7493C42.112 22.035 41.752 22.1723 41.4033 22.1565C41.059 22.143 40.6225 21.9765 40.087 21.4433L29.2623 31.0193C29.2513 31.0289 29.2401 31.0383 29.2288 31.0474C29.2174 31.0565 29.2058 31.0653 29.1939 31.0739C29.1821 31.0824 29.1701 31.0907 29.1578 31.0986C29.1456 31.1066 29.1332 31.1142 29.1206 31.1215C29.108 31.1289 29.0952 31.1359 29.0822 31.1426C29.0693 31.1493 29.0562 31.1557 29.0429 31.1618C29.0296 31.1678 29.0162 31.1736 29.0027 31.179C28.9891 31.1844 28.9754 31.1895 28.9616 31.1942C28.9478 31.1989 28.9339 31.2033 28.9199 31.2074C28.9059 31.2114 28.8918 31.2152 28.8776 31.2185C28.8634 31.2219 28.8491 31.2249 28.8348 31.2275C28.8204 31.2302 28.806 31.2325 28.7916 31.2345C28.7771 31.2364 28.7626 31.238 28.7481 31.2392C28.7336 31.2405 28.719 31.2414 28.7044 31.2419C28.6898 31.2424 28.6752 31.2426 28.6607 31.2424C28.6461 31.2422 28.6315 31.2417 28.6169 31.2408C28.6024 31.2398 28.5878 31.2386 28.5733 31.237C28.5589 31.2353 28.5444 31.2334 28.53 31.2311C28.5156 31.2287 28.5013 31.226 28.487 31.223C28.4727 31.2199 28.4585 31.2166 28.4444 31.2128C28.4303 31.2091 28.4163 31.205 28.4024 31.2006C28.3885 31.1962 28.3747 31.1914 28.3611 31.1863C28.3474 31.1812 28.3339 31.1758 28.3205 31.1701C28.3071 31.1643 28.2938 31.1582 28.2807 31.1518C28.2676 31.1454 28.2547 31.1386 28.2419 31.1316C28.2291 31.1245 28.2165 31.1172 28.2041 31.1095C28.1917 31.1019 28.1795 31.0939 28.1675 31.0857C28.1554 31.0774 28.1436 31.0688 28.132 31.06C28.1204 31.0511 28.109 31.042 28.0979 31.0326C28.0867 31.0232 28.0758 31.0135 28.0651 31.0036C28.0545 30.9936 28.044 30.9834 28.0339 30.973C28.0237 30.9625 28.0138 30.9518 28.0041 30.9409C27.9945 30.9299 27.9851 30.9188 27.976 30.9074C27.9669 30.8959 27.9581 30.8843 27.9495 30.8725C27.941 30.8606 27.9328 30.8486 27.9248 30.8364C27.9169 30.8242 27.9092 30.8117 27.9019 30.7991C27.8946 30.7865 27.8876 30.7737 27.8809 30.7608C27.8742 30.7478 27.8678 30.7347 27.8617 30.7214C27.8557 30.7081 27.8499 30.6947 27.8446 30.6812C27.8391 30.6676 27.8341 30.6539 27.8293 30.6402C27.8246 30.6263 27.8202 30.6124 27.8162 30.5984C27.8121 30.5844 27.8085 30.5703 27.8051 30.5561C27.8018 30.5419 27.7987 30.5276 27.7961 30.5133C27.7934 30.4989 27.7911 30.4845 27.7892 30.4701C27.7873 30.4556 27.7857 30.4411 27.7844 30.4266C27.7832 30.412 27.7823 30.3975 27.7818 30.3829C27.7813 30.3683 27.7811 30.3537 27.7813 30.3391C27.7815 30.3246 27.7821 30.31 27.783 30.2954C27.7839 30.2809 27.7852 30.2663 27.7868 30.2519C27.7885 30.2373 27.7905 30.2229 27.7928 30.2085C27.7951 30.1941 27.7978 30.1797 27.8008 30.1655C27.8039 30.1512 27.8073 30.137 27.811 30.1229C27.8148 30.1088 27.8188 30.0948 27.8233 30.0809C27.8277 30.067 27.8325 30.0532 27.8376 30.0396C27.8427 30.0259 27.8481 30.0124 27.8539 29.999C27.8597 29.9856 27.8658 29.9723 27.8722 29.9592C27.8786 29.9461 27.8853 29.9332 27.8924 29.9204C27.8995 29.9076 27.9068 29.8951 27.9145 29.8827C27.9222 29.8702 27.9301 29.858 27.9384 29.846C27.9467 29.834 27.9553 29.8222 27.9641 29.8106C27.973 29.799 27.9821 29.7876 27.9915 29.7765C28.0009 29.7653 28.0106 29.7544 28.0205 29.7438C28.0305 29.7331 28.0407 29.7226 28.0512 29.7125C28.0616 29.7023 28.0723 29.6924 28.0833 29.6828L38.6088 20.3723L39.0385 19.9898C38.976 19.8607 38.9205 19.7287 38.872 19.5938C38.6448 18.9548 38.665 18.4598 38.8428 18.1515Z" fill="#95D475"/>
  <path d="M43.2111 21.6525C43.9086 20.0775 42.1761 16.6238 39.2354 17.229L45.1146 16.0163L43.2111 21.6503L43.2111 21.6525Z" fill="#95D475"/>
  <path d="M45.5385 15.645C45.5467 15.6542 45.5546 15.6637 45.5621 15.6734C45.5697 15.6831 45.577 15.6931 45.5838 15.7033C45.5908 15.7135 45.5973 15.724 45.6036 15.7346C45.6098 15.7452 45.6157 15.7561 45.6212 15.7671C45.6267 15.7781 45.6318 15.7893 45.6366 15.8007C45.6414 15.8121 45.6458 15.8236 45.6498 15.8353C45.6538 15.8469 45.6575 15.8587 45.6607 15.8706C45.664 15.8825 45.6668 15.8945 45.6692 15.9066C45.6717 15.9187 45.6738 15.9308 45.6754 15.943C45.6771 15.9552 45.6783 15.9675 45.6792 15.9798C45.68 15.9921 45.6805 16.0044 45.6805 16.0168C45.6806 16.0291 45.6802 16.0414 45.6794 16.0537C45.6787 16.066 45.6775 16.0783 45.6759 16.0905C45.6743 16.1028 45.6724 16.1149 45.67 16.127C45.6676 16.1391 45.6648 16.1511 45.6616 16.1631C45.6585 16.175 45.6549 16.1868 45.651 16.1985L43.8465 21.531C43.8163 21.6498 43.7766 21.7652 43.7272 21.8775C43.7238 21.8859 43.7201 21.8942 43.7163 21.9025C43.7124 21.9107 43.7084 21.9188 43.7042 21.9269C43.6999 21.9349 43.6955 21.9429 43.6908 21.9507C43.6862 21.9585 43.6814 21.9662 43.6764 21.9739C43.6714 21.9815 43.6662 21.9889 43.6608 21.9963C43.6555 22.0036 43.6499 22.0108 43.6442 22.0179C43.6385 22.0249 43.6326 22.0319 43.6265 22.0387C43.6204 22.0455 43.6143 22.0521 43.6079 22.0586C43.6015 22.0651 43.5949 22.0714 43.5882 22.0776C43.5816 22.0838 43.5747 22.0898 43.5677 22.0956C43.5608 22.1014 43.5537 22.1071 43.5464 22.1126C43.5392 22.1181 43.5318 22.1234 43.5243 22.1286C43.5168 22.1337 43.5091 22.1386 43.5014 22.1434C43.4936 22.1482 43.4858 22.1527 43.4778 22.1571C43.4698 22.1615 43.4617 22.1657 43.4536 22.1697C43.4454 22.1737 43.4371 22.1775 43.4288 22.1811C43.4204 22.1847 43.412 22.1881 43.4034 22.1912C43.3949 22.1944 43.3863 22.1974 43.3777 22.2002C43.369 22.2029 43.3603 22.2055 43.3515 22.2078C43.3427 22.2102 43.3339 22.2123 43.3249 22.2142C43.3161 22.2161 43.3071 22.2178 43.2981 22.2193C43.2891 22.2208 43.2801 22.222 43.2711 22.2231C43.2621 22.2241 43.253 22.2249 43.2439 22.2255C43.2348 22.2261 43.2257 22.2265 43.2166 22.2267C43.2076 22.2268 43.1985 22.2268 43.1894 22.2265C43.1803 22.2262 43.1712 22.2257 43.1621 22.225C43.153 22.2243 43.144 22.2233 43.135 22.2222C43.126 22.221 43.117 22.2196 43.108 22.218C43.0991 22.2164 43.0901 22.2146 43.0813 22.2126C43.0724 22.2106 43.0636 22.2083 43.0548 22.2059C43.0461 22.2034 43.0374 22.2007 43.0287 22.1979C43.0201 22.195 43.0116 22.1919 43.0031 22.1886C42.9946 22.1853 42.9862 22.1818 42.9779 22.1781C42.9696 22.1744 42.9614 22.1705 42.9532 22.1664C42.9451 22.1623 42.9371 22.158 42.9292 22.1535C42.9213 22.149 42.9135 22.1443 42.9058 22.1395C42.8981 22.1346 42.8905 22.1295 42.8831 22.1243C42.8756 22.1191 42.8683 22.1137 42.8611 22.1081C42.854 22.1025 42.8469 22.0967 42.84 22.0908C42.8331 22.0849 42.8264 22.0788 42.8198 22.0725C42.8131 22.0663 42.8067 22.0598 42.8004 22.0533C42.7941 22.0467 42.788 22.04 42.782 22.0331C42.7761 22.0262 42.7703 22.0192 42.7646 22.0121C42.759 22.0049 42.7536 21.9976 42.7483 21.9902C42.743 21.9828 42.738 21.9753 42.733 21.9676C42.7281 21.9599 42.7234 21.9522 42.7189 21.9443C42.7144 21.9364 42.71 21.9284 42.7059 21.9203C42.7017 21.9122 42.6978 21.904 42.694 21.8957C42.6903 21.8874 42.6868 21.879 42.6834 21.8706C42.6801 21.8621 42.677 21.8536 42.674 21.8449C42.6711 21.8363 42.6684 21.8277 42.6659 21.8189C42.6634 21.8101 42.6611 21.8014 42.659 21.7925C42.657 21.7836 42.6551 21.7747 42.6534 21.7658C42.6518 21.7568 42.6504 21.7478 42.6492 21.7388C42.648 21.7298 42.647 21.7208 42.6462 21.7117C42.6455 21.7026 42.6449 21.6935 42.6446 21.6845C42.6443 21.6754 42.6442 21.6662 42.6443 21.6572C42.6444 21.6481 42.6447 21.639 42.6453 21.6299C42.6458 21.6208 42.6466 21.6118 42.6476 21.6027C42.6486 21.5937 42.6498 21.5847 42.6512 21.5757C42.6527 21.5667 42.6543 21.5577 42.6562 21.5488C42.6581 21.5399 42.6601 21.5311 42.6624 21.5223C42.6648 21.5135 42.6673 21.5047 42.67 21.4961C42.6727 21.4873 42.6756 21.4787 42.6787 21.4702L42.7642 21.2182C42.7786 21.1445 42.789 21.0703 42.7955 20.9955C42.802 20.9207 42.8046 20.8458 42.8033 20.7708C42.802 20.6957 42.7968 20.6209 42.7876 20.5464C42.7785 20.4719 42.7654 20.3981 42.7485 20.325C42.7351 20.2632 42.7201 20.2019 42.7035 20.141C42.6869 20.08 42.6687 20.0196 42.6489 19.9596C42.6292 19.8996 42.6079 19.8401 42.585 19.7813C42.5622 19.7224 42.5378 19.6641 42.5119 19.6065C42.4861 19.5489 42.4587 19.492 42.4298 19.4358C42.401 19.3796 42.3707 19.3242 42.339 19.2696C42.3073 19.215 42.2741 19.1612 42.2396 19.1084C42.2051 19.0554 42.1692 19.0035 42.132 18.9525C41.5133 18.0975 40.548 17.5327 39.351 17.778C39.342 17.7798 39.3329 17.7814 39.3238 17.7828C39.3147 17.7843 39.3056 17.7854 39.2964 17.7864C39.2873 17.7874 39.2781 17.7881 39.2689 17.7886C39.2597 17.7891 39.2505 17.7894 39.2413 17.7895C39.2321 17.7895 39.2229 17.7894 39.2137 17.789C39.2045 17.7886 39.1953 17.788 39.1861 17.7871C39.177 17.7863 39.1678 17.7852 39.1587 17.7839C39.1496 17.7826 39.1405 17.7811 39.1315 17.7794C39.1224 17.7776 39.1134 17.7757 39.1045 17.7735C39.0955 17.7713 39.0866 17.7689 39.0778 17.7663C39.069 17.7637 39.0602 17.7609 39.0515 17.7578C39.0429 17.7548 39.0342 17.7515 39.0257 17.7481C39.0172 17.7446 39.0087 17.7409 39.0004 17.737C38.992 17.7331 38.9838 17.7291 38.9756 17.7248C38.9675 17.7205 38.9594 17.716 38.9515 17.7113C38.9436 17.7067 38.9358 17.7018 38.9281 17.6967C38.9204 17.6917 38.9128 17.6864 38.9054 17.681C38.898 17.6755 38.8907 17.6699 38.8835 17.6641C38.8764 17.6583 38.8693 17.6524 38.8625 17.6462C38.8556 17.6401 38.8489 17.6338 38.8424 17.6273C38.8358 17.6208 38.8294 17.6142 38.8232 17.6075C38.8169 17.6007 38.8109 17.5937 38.805 17.5866C38.7991 17.5796 38.7934 17.5723 38.7879 17.565C38.7823 17.5576 38.777 17.5501 38.7718 17.5425C38.7666 17.5349 38.7616 17.5272 38.7569 17.5193C38.7521 17.5114 38.7475 17.5035 38.7431 17.4954C38.7387 17.4873 38.7345 17.4791 38.7305 17.4708C38.7265 17.4625 38.7227 17.4541 38.7191 17.4456C38.7156 17.4371 38.7122 17.4285 38.709 17.4199C38.7059 17.4112 38.7029 17.4025 38.7002 17.3937C38.6975 17.3849 38.6949 17.3761 38.6926 17.3672C38.6903 17.3583 38.6883 17.3493 38.6864 17.3403C38.6845 17.3313 38.6829 17.3222 38.6815 17.3131C38.6801 17.304 38.6789 17.2949 38.6779 17.2857C38.677 17.2766 38.6762 17.2674 38.6757 17.2582C38.6752 17.249 38.6749 17.2398 38.6748 17.2306C38.6748 17.2214 38.6749 17.2122 38.6753 17.203C38.6757 17.1938 38.6763 17.1846 38.6771 17.1754C38.678 17.1663 38.679 17.1571 38.6803 17.148C38.6816 17.1389 38.6831 17.1298 38.6849 17.1207C38.6866 17.1117 38.6886 17.1027 38.6907 17.0938C38.6929 17.0848 38.6953 17.0759 38.6979 17.0671C38.7005 17.0583 38.7033 17.0495 38.7064 17.0408C38.7094 17.0321 38.7127 17.0235 38.7161 17.015C38.7196 17.0064 38.7233 16.998 38.7272 16.9897C38.731 16.9813 38.7351 16.973 38.7394 16.9649C38.7437 16.9567 38.7482 16.9487 38.7528 16.9408C38.7575 16.9328 38.7624 16.925 38.7674 16.9173C38.7725 16.9096 38.7777 16.9021 38.7832 16.8946C38.7886 16.8872 38.7942 16.8799 38.8 16.8727C38.8058 16.8656 38.8118 16.8586 38.8179 16.8517C38.824 16.8448 38.8303 16.8381 38.8368 16.8316C38.8433 16.825 38.8499 16.8186 38.8566 16.8124C38.8634 16.8061 38.8704 16.8001 38.8775 16.7942C38.8845 16.7883 38.8917 16.7826 38.8991 16.777C38.9064 16.7715 38.9139 16.7661 38.9215 16.761C38.9292 16.7558 38.9369 16.7508 38.9448 16.746C38.9526 16.7412 38.9606 16.7366 38.9687 16.7322C38.9768 16.7278 38.985 16.7236 38.9933 16.7196C39.0016 16.7156 39.0099 16.7118 39.0184 16.7083C39.0269 16.7047 39.0355 16.7013 39.0441 16.6981C39.0528 16.695 39.0615 16.692 39.0703 16.6893C39.0791 16.6865 39.0879 16.684 39.0969 16.6817C39.1058 16.6794 39.1147 16.6773 39.1238 16.6755L45.003 15.4672C45.0151 15.4647 45.0272 15.4626 45.0394 15.4609C45.0516 15.4592 45.0638 15.4579 45.0761 15.457C45.0884 15.4561 45.1007 15.4556 45.113 15.4555C45.1253 15.4554 45.1376 15.4557 45.1499 15.4564C45.1623 15.4571 45.1745 15.4582 45.1867 15.4597C45.199 15.4612 45.2111 15.4632 45.2232 15.4655C45.2353 15.4678 45.2473 15.4705 45.2592 15.4736C45.2712 15.4767 45.283 15.4802 45.2947 15.4841C45.3064 15.488 45.3179 15.4922 45.3293 15.4969C45.3407 15.5015 45.352 15.5065 45.363 15.5119C45.3741 15.5173 45.385 15.523 45.3957 15.5291C45.4064 15.5352 45.4169 15.5416 45.4272 15.5484C45.4375 15.5552 45.4475 15.5623 45.4574 15.5698C45.4672 15.5772 45.4767 15.5849 45.486 15.593C45.4953 15.6011 45.5044 15.6095 45.5131 15.6181C45.5219 15.6268 45.5303 15.6357 45.5385 15.645ZM41.97 17.2402C42.3952 17.5282 42.7552 17.8927 43.0432 18.2932C43.2187 18.534 43.3695 18.7905 43.4955 19.0537L44.2695 16.7655L41.97 17.238L41.97 17.2402Z" fill="#303133"/>
  <path d="M24.3133 18.6668C24.3441 18.6554 24.375 18.6448 24.4063 18.635C24.4375 18.6251 24.469 18.6161 24.5006 18.6078C24.5323 18.5995 24.5642 18.592 24.5962 18.5852C24.6283 18.5785 24.6604 18.5726 24.6928 18.5674C24.7251 18.5623 24.7576 18.5579 24.7901 18.5544C24.8227 18.5508 24.8553 18.548 24.888 18.5461C24.9206 18.5441 24.9534 18.543 24.9861 18.5426C25.0188 18.5422 25.0516 18.5427 25.0843 18.544C25.117 18.5452 25.1497 18.5473 25.1823 18.5501C25.2149 18.553 25.2475 18.5566 25.2799 18.5611C25.3123 18.5655 25.3447 18.5708 25.3769 18.5768C25.409 18.5828 25.4411 18.5896 25.4729 18.5973C25.5047 18.6049 25.5364 18.6132 25.5678 18.6224C25.5993 18.6316 25.6305 18.6415 25.6614 18.6522C25.6924 18.6629 25.723 18.6743 25.7534 18.6865C25.7838 18.6987 25.8139 18.7116 25.8436 18.7253C25.8734 18.7389 25.9028 18.7533 25.9318 18.7684C25.9609 18.7836 25.9896 18.7994 26.0178 18.8159C26.0461 18.8324 26.0739 18.8496 26.1014 18.8675C26.1288 18.8854 26.1558 18.9039 26.1823 18.9231C26.2088 18.9423 26.2349 18.9622 26.2604 18.9826C26.286 19.0031 26.311 19.0242 26.3355 19.0459C26.36 19.0676 26.384 19.0899 26.4074 19.1128C26.4308 19.1357 26.4536 19.1591 26.4759 19.1831C26.4982 19.2072 26.5199 19.2317 26.5409 19.2568C26.562 19.2818 26.5824 19.3074 26.6022 19.3335C26.622 19.3596 26.6412 19.3861 26.6597 19.4131C26.6782 19.4401 26.6961 19.4676 26.7132 19.4955C26.7304 19.5233 26.7469 19.5516 26.7626 19.5803C26.7784 19.609 26.7935 19.6381 26.8078 19.6675C26.8222 19.697 26.8358 19.7267 26.8487 19.7568C26.8616 19.7869 26.8737 19.8173 26.8851 19.848L30.5211 29.6558C30.5339 29.6868 30.5459 29.7181 30.5571 29.7497C30.5684 29.7813 30.5788 29.8131 30.5884 29.8452C30.598 29.8774 30.6068 29.9098 30.6148 29.9423C30.6228 29.9749 30.63 30.0076 30.6363 30.0405C30.6427 30.0735 30.6482 30.1066 30.6529 30.1397C30.6576 30.173 30.6614 30.2063 30.6645 30.2397C30.6675 30.2731 30.6697 30.3065 30.671 30.34C30.6723 30.3736 30.6728 30.4071 30.6725 30.4406C30.6721 30.4742 30.6709 30.5077 30.6689 30.5411C30.6669 30.5746 30.664 30.608 30.6603 30.6413C30.6566 30.6747 30.652 30.7079 30.6467 30.741C30.6413 30.7741 30.6351 30.807 30.628 30.8398C30.621 30.8726 30.6132 30.9052 30.6045 30.9376C30.5958 30.97 30.5863 31.0022 30.576 31.0341C30.5658 31.066 30.5547 31.0977 30.5428 31.129C30.5309 31.1604 30.5182 31.1914 30.5048 31.2221C30.4914 31.2529 30.4772 31.2832 30.4622 31.3133C30.4473 31.3433 30.4315 31.3729 30.4151 31.4021C30.3986 31.4314 30.3815 31.4601 30.3635 31.4885C30.3457 31.5169 30.3271 31.5448 30.3078 31.5722C30.2885 31.5996 30.2685 31.6265 30.2478 31.6529C30.2272 31.6794 30.2059 31.7053 30.1839 31.7306C30.162 31.756 30.1394 31.7808 30.1162 31.805C30.093 31.8292 30.0692 31.8528 30.0448 31.8758C30.0204 31.8989 29.9955 31.9213 29.97 31.9431C29.9445 31.9648 29.9184 31.9859 29.8919 32.0064C29.8653 32.0268 29.8382 32.0466 29.8106 32.0657C29.7831 32.0848 29.7551 32.1032 29.7266 32.1209C29.6981 32.1386 29.6692 32.1556 29.6398 32.1718C29.6105 32.1881 29.5808 32.2036 29.5506 32.2183C29.5205 32.2331 29.49 32.247 29.4592 32.2603C29.4284 32.2735 29.3972 32.2859 29.3658 32.2976C29.3344 32.3092 29.3026 32.3201 29.2706 32.3301C29.2386 32.3402 29.2064 32.3494 29.1739 32.3579C29.1415 32.3663 29.1089 32.3739 29.076 32.3807C29.0432 32.3875 29.0102 32.3935 28.977 32.3986C28.9439 32.4038 28.9106 32.4081 28.8773 32.4115C28.844 32.415 28.8105 32.4177 28.777 32.4195C28.7435 32.4212 28.71 32.4222 28.6765 32.4223C28.6429 32.4224 28.6094 32.4217 28.5759 32.4201C28.5424 32.4185 28.509 32.4161 28.4756 32.4128C28.4422 32.4096 28.409 32.4055 28.3758 32.4005C28.3426 32.3956 28.3096 32.3899 28.2767 32.3833C28.2438 32.3767 28.2111 32.3693 28.1786 32.3611C28.1461 32.3528 28.1138 32.3438 28.0817 32.3339C28.0497 32.3241 28.0179 32.3134 27.9864 32.302C27.9549 32.2905 27.9236 32.2783 27.8927 32.2653C27.8618 32.2523 27.8313 32.2385 27.801 32.2239C27.7708 32.2094 27.741 32.1941 27.7115 32.178C27.6821 32.162 27.6531 32.1452 27.6245 32.1276C27.5959 32.1101 27.5678 32.0919 27.54 32.073C27.5124 32.0541 27.4852 32.0345 27.4585 32.0142C27.4318 31.9939 27.4056 31.9729 27.3799 31.9513C27.3543 31.9297 27.3292 31.9075 27.3047 31.8846C27.2801 31.8617 27.2562 31.8383 27.2329 31.8142C27.2095 31.7902 27.1868 31.7655 27.1646 31.7403C27.1425 31.7151 27.1211 31.6893 27.1002 31.663C27.0794 31.6367 27.0592 31.6099 27.0398 31.5826C27.0203 31.5553 27.0015 31.5276 26.9835 31.4993C26.9654 31.471 26.9481 31.4424 26.9314 31.4132C26.9148 31.3841 26.8989 31.3546 26.8837 31.3247C26.8686 31.2948 26.8541 31.2645 26.8405 31.2338C26.8269 31.2032 26.814 31.1723 26.8019 31.141C26.7899 31.1097 26.7786 31.0781 26.7681 31.0463L23.1321 21.2385C23.1208 21.2078 23.1102 21.1768 23.1003 21.1456C23.0905 21.1144 23.0814 21.0829 23.0731 21.0512C23.0648 21.0196 23.0573 20.9877 23.0506 20.9557C23.0438 20.9236 23.0379 20.8914 23.0327 20.8591C23.0276 20.8267 23.0233 20.7943 23.0197 20.7618C23.0161 20.7292 23.0134 20.6966 23.0114 20.6639C23.0095 20.6312 23.0083 20.5985 23.0079 20.5658C23.0076 20.533 23.008 20.5003 23.0093 20.4676C23.0105 20.4348 23.0126 20.4022 23.0155 20.3696C23.0183 20.3369 23.022 20.3044 23.0264 20.272C23.0308 20.2395 23.0361 20.2072 23.0421 20.175C23.0482 20.1428 23.055 20.1108 23.0626 20.079C23.0702 20.0471 23.0786 20.0155 23.0877 19.984C23.0969 19.9526 23.1068 19.9214 23.1175 19.8905C23.1282 19.8595 23.1396 19.8288 23.1518 19.7984C23.164 19.768 23.1769 19.738 23.1906 19.7082C23.2043 19.6785 23.2187 19.6491 23.2338 19.62C23.2489 19.591 23.2647 19.5623 23.2812 19.534C23.2977 19.5058 23.3149 19.4779 23.3328 19.4505C23.3507 19.423 23.3692 19.3961 23.3884 19.3695C23.4076 19.343 23.4275 19.317 23.448 19.2915C23.4685 19.2659 23.4896 19.2409 23.5113 19.2164C23.533 19.1918 23.5553 19.1679 23.5782 19.1445C23.601 19.1211 23.6245 19.0982 23.6485 19.0759C23.6725 19.0536 23.697 19.032 23.7221 19.0109C23.7472 18.9899 23.7727 18.9694 23.7988 18.9496C23.8249 18.9298 23.8514 18.9106 23.8784 18.8922C23.9055 18.8736 23.9329 18.8558 23.9608 18.8386C23.9887 18.8215 24.017 18.805 24.0457 18.7892C24.0744 18.7734 24.1034 18.7584 24.1329 18.744C24.1623 18.7297 24.1921 18.7161 24.2222 18.7032C24.2522 18.6903 24.2826 18.6782 24.3133 18.6668Z" fill="#B9CEFF"/>
  <path d="M25.8276 20.2395L29.4636 30.045C29.4686 30.0584 29.4732 30.072 29.4774 30.0857C29.4817 30.0993 29.4856 30.1131 29.4892 30.127C29.4929 30.1408 29.4961 30.1548 29.499 30.1688C29.502 30.1828 29.5045 30.1969 29.5067 30.2111C29.509 30.2252 29.5109 30.2394 29.5124 30.2536C29.5139 30.2679 29.5151 30.2821 29.5159 30.2965C29.5168 30.3107 29.5173 30.325 29.5174 30.3394C29.5175 30.3537 29.5173 30.368 29.5168 30.3823C29.5162 30.3966 29.5153 30.4109 29.514 30.4252C29.5127 30.4394 29.5111 30.4537 29.5092 30.4679C29.5072 30.482 29.5049 30.4962 29.5022 30.5102C29.4996 30.5243 29.4966 30.5383 29.4933 30.5522C29.4899 30.5662 29.4862 30.58 29.4822 30.5938C29.4782 30.6075 29.4739 30.6211 29.4692 30.6347C29.4645 30.6482 29.4595 30.6616 29.4541 30.6749C29.4488 30.6882 29.4431 30.7013 29.4371 30.7144C29.4312 30.7274 29.4249 30.7402 29.4182 30.753C29.4116 30.7656 29.4047 30.7782 29.3975 30.7905C29.3903 30.8029 29.3827 30.8151 29.3749 30.8271C29.3671 30.8391 29.359 30.8509 29.3506 30.8625C29.3422 30.8741 29.3335 30.8855 29.3245 30.8966C29.3156 30.9078 29.3063 30.9187 29.2968 30.9295C29.2873 30.9402 29.2776 30.9506 29.2676 30.9609C29.2576 30.9711 29.2473 30.9811 29.2368 30.9909C29.2263 31.0006 29.2156 31.0101 29.2046 31.0193C29.1937 31.0285 29.1825 31.0375 29.1711 31.0462C29.1597 31.0548 29.1481 31.0632 29.1363 31.0713C29.1244 31.0794 29.1125 31.0872 29.1003 31.0947C29.0881 31.1022 29.0757 31.1094 29.0631 31.1164C29.0506 31.1233 29.0379 31.1299 29.025 31.1362C29.0122 31.1424 28.9992 31.1484 28.986 31.1541C28.9728 31.1597 28.9595 31.165 28.9461 31.17L29.2791 32.0655L28.9484 31.1723C28.9349 31.1772 28.9214 31.1818 28.9077 31.1861C28.894 31.1904 28.8803 31.1943 28.8664 31.1979C28.8526 31.2015 28.8386 31.2048 28.8246 31.2077C28.8106 31.2106 28.7965 31.2132 28.7823 31.2154C28.7682 31.2176 28.754 31.2195 28.7397 31.2211C28.7255 31.2226 28.7112 31.2238 28.6969 31.2246C28.6826 31.2255 28.6683 31.2259 28.654 31.2261C28.6397 31.2262 28.6254 31.226 28.6111 31.2254C28.5968 31.2249 28.5824 31.2239 28.5682 31.2227C28.5539 31.2214 28.5397 31.2198 28.5255 31.2178C28.5113 31.2159 28.4972 31.2135 28.4831 31.2109C28.4691 31.2082 28.455 31.2052 28.4411 31.2019C28.4272 31.1986 28.4134 31.1949 28.3996 31.1909C28.3859 31.1869 28.3722 31.1825 28.3587 31.1778C28.3452 31.1731 28.3317 31.1681 28.3185 31.1628C28.3052 31.1575 28.292 31.1518 28.279 31.1458C28.266 31.1398 28.2532 31.1335 28.2404 31.1269C28.2278 31.1203 28.2152 31.1134 28.2028 31.1061C28.1905 31.0989 28.1783 31.0914 28.1663 31.0836C28.1543 31.0757 28.1425 31.0676 28.1309 31.0592C28.1193 31.0508 28.1079 31.0421 28.0967 31.0332C28.0856 31.0242 28.0746 31.015 28.0639 31.0055C28.0532 30.996 28.0427 30.9862 28.0325 30.9762C28.0222 30.9662 28.0122 30.9559 28.0025 30.9455C27.9927 30.935 27.9832 30.9242 27.974 30.9133C27.9648 30.9023 27.9559 30.8911 27.9472 30.8797C27.9386 30.8683 27.9302 30.8567 27.9221 30.8449C27.914 30.8331 27.9061 30.8211 27.8986 30.8089C27.8911 30.7967 27.8839 30.7844 27.877 30.7718C27.8701 30.7593 27.8635 30.7466 27.8572 30.7337C27.8509 30.7208 27.845 30.7078 27.8393 30.6946C27.8337 30.6815 27.8283 30.6682 27.8234 30.6548L24.1851 20.8448C24.179 20.8311 24.1733 20.8173 24.1679 20.8033C24.1625 20.7894 24.1575 20.7753 24.1528 20.7611C24.1481 20.7469 24.1438 20.7326 24.1399 20.7181C24.136 20.7037 24.1324 20.6892 24.1292 20.6745C24.126 20.6599 24.1232 20.6452 24.1207 20.6305C24.1183 20.6157 24.1162 20.6009 24.1146 20.586C24.1129 20.5712 24.1116 20.5563 24.1107 20.5414C24.1097 20.5264 24.1092 20.5115 24.109 20.4965C24.1089 20.4816 24.1091 20.4666 24.1097 20.4517C24.1103 20.4367 24.1113 20.4218 24.1127 20.4069C24.114 20.392 24.1158 20.3772 24.1179 20.3623C24.12 20.3475 24.1225 20.3328 24.1254 20.3181C24.1283 20.3034 24.1316 20.2889 24.1352 20.2744C24.1388 20.2598 24.1428 20.2454 24.1472 20.2311C24.1515 20.2168 24.1563 20.2026 24.1613 20.1885C24.1664 20.1745 24.1719 20.1605 24.1777 20.1468C24.1835 20.133 24.1897 20.1194 24.1962 20.1059C24.2026 20.0924 24.2095 20.0791 24.2167 20.066C24.2239 20.0529 24.2314 20.0399 24.2392 20.0272C24.247 20.0145 24.2552 20.0019 24.2637 19.9896C24.2722 19.9773 24.281 19.9652 24.2901 19.9533C24.2992 19.9414 24.3086 19.9298 24.3183 19.9184C24.328 19.907 24.3379 19.8959 24.3482 19.885C24.3585 19.8741 24.369 19.8635 24.3798 19.8532C24.3906 19.8428 24.4017 19.8328 24.413 19.823C24.4244 19.8132 24.4359 19.8037 24.4477 19.7945C24.4595 19.7854 24.4716 19.7765 24.4838 19.7679C24.4961 19.7593 24.5086 19.7511 24.5212 19.7432C24.5339 19.7353 24.5468 19.7276 24.5599 19.7204C24.573 19.7131 24.5862 19.7062 24.5996 19.6996C24.6131 19.693 24.6266 19.6867 24.6404 19.6808C24.6541 19.6749 24.668 19.6694 24.682 19.6642C24.6961 19.659 24.7102 19.6542 24.7245 19.6497C24.7388 19.6453 24.7532 19.6412 24.7677 19.6374C24.7822 19.6337 24.7967 19.6303 24.8114 19.6273C24.8261 19.6244 24.8408 19.6218 24.8556 19.6195C24.8704 19.6173 24.8852 19.6155 24.9001 19.614C24.915 19.6125 24.9299 19.6114 24.9448 19.6107C24.9598 19.61 24.9747 19.6097 24.9897 19.6097C25.0046 19.6098 25.0196 19.6102 25.0345 19.611C25.0494 19.6118 25.0644 19.613 25.0792 19.6146C25.0941 19.6162 25.1089 19.6182 25.1237 19.6205C25.1385 19.6229 25.1532 19.6256 25.1678 19.6287C25.1825 19.6317 25.197 19.6352 25.2115 19.639C25.2259 19.6429 25.2403 19.6471 25.2545 19.6517C25.2688 19.6562 25.2829 19.6612 25.2969 19.6665C25.3109 19.6717 25.3247 19.6774 25.3384 19.6834C25.3521 19.6894 25.3657 19.6957 25.3791 19.7024C25.3924 19.7091 25.4056 19.7162 25.4186 19.7235C25.4317 19.7309 25.4445 19.7386 25.4571 19.7466C25.4697 19.7546 25.4822 19.763 25.4944 19.7716C25.5065 19.7803 25.5185 19.7893 25.5303 19.7985C25.542 19.8078 25.5535 19.8174 25.5647 19.8272C25.576 19.8371 25.587 19.8472 25.5977 19.8576C25.6085 19.868 25.6189 19.8787 25.6291 19.8897C25.6393 19.9007 25.6492 19.9119 25.6588 19.9233C25.6684 19.9348 25.6777 19.9465 25.6867 19.9584C25.6958 19.9704 25.7045 19.9825 25.7129 19.9949C25.7213 20.0073 25.7293 20.0199 25.737 20.0327C25.7448 20.0455 25.7522 20.0585 25.7593 20.0716C25.7664 20.0848 25.7732 20.0982 25.7796 20.1117C25.786 20.1252 25.792 20.1389 25.7977 20.1527C25.8034 20.1665 25.8088 20.1805 25.8137 20.1946C25.8187 20.2087 25.8233 20.2229 25.8276 20.2373L25.8276 20.2395ZM26.8851 19.848C26.8741 19.8167 26.8624 19.7858 26.8499 19.7551C26.8374 19.7244 26.8241 19.6941 26.8101 19.6641C26.7961 19.6341 26.7813 19.6044 26.7658 19.5751C26.7503 19.5459 26.7342 19.517 26.7172 19.4885C26.7003 19.46 26.6827 19.4319 26.6644 19.4043C26.6461 19.3768 26.6271 19.3496 26.6074 19.323C26.5877 19.2963 26.5674 19.2701 26.5465 19.2445C26.5255 19.2188 26.504 19.1937 26.4818 19.1691C26.4595 19.1445 26.4367 19.1205 26.4133 19.0971C26.39 19.0736 26.366 19.0507 26.3415 19.0285C26.3169 19.0062 26.2918 18.9846 26.2663 18.9636C26.2406 18.9426 26.2145 18.9222 26.1879 18.9024C26.1613 18.8827 26.1342 18.8637 26.1066 18.8453C26.0791 18.8269 26.0511 18.8092 26.0227 18.7922C25.9942 18.7752 25.9654 18.759 25.9361 18.7434C25.9069 18.7279 25.8773 18.7131 25.8473 18.699C25.8173 18.6849 25.787 18.6715 25.7563 18.659C25.7257 18.6464 25.6948 18.6345 25.6635 18.6235C25.6323 18.6124 25.6008 18.6022 25.5691 18.5927C25.5373 18.5832 25.5054 18.5745 25.4732 18.5666C25.441 18.5587 25.4087 18.5516 25.3762 18.5453C25.3436 18.539 25.311 18.5335 25.2782 18.5289C25.2454 18.5242 25.2125 18.5203 25.1795 18.5173C25.1465 18.5143 25.1135 18.512 25.0804 18.5106C25.0473 18.5092 25.0142 18.5087 24.981 18.5089C24.9479 18.5091 24.9148 18.5102 24.8818 18.5121C24.8487 18.514 24.8157 18.5167 24.7827 18.5202C24.7498 18.5237 24.717 18.528 24.6842 18.5332C24.6515 18.5384 24.6189 18.5443 24.5865 18.5511C24.5541 18.5579 24.5218 18.5654 24.4898 18.5738C24.4577 18.5822 24.4259 18.5913 24.3943 18.6013C24.3627 18.6112 24.3314 18.6219 24.3003 18.6334C24.2692 18.6449 24.2385 18.6572 24.208 18.6702C24.1776 18.6833 24.1474 18.6971 24.1177 18.7116C24.0879 18.7261 24.0585 18.7413 24.0295 18.7573C24.0005 18.7733 23.9719 18.79 23.9437 18.8074C23.9155 18.8248 23.8878 18.8429 23.8605 18.8617C23.8332 18.8805 23.8064 18.8999 23.78 18.92C23.7537 18.9401 23.7279 18.9609 23.7026 18.9823C23.6773 19.0037 23.6526 19.0257 23.6284 19.0483C23.6042 19.0709 23.5805 19.0941 23.5575 19.1179C23.5344 19.1417 23.512 19.166 23.4901 19.1909C23.4683 19.2159 23.4471 19.2413 23.4265 19.2672C23.4059 19.2932 23.386 19.3197 23.3667 19.3466C23.3475 19.3735 23.3289 19.401 23.311 19.4288C23.2931 19.4567 23.2759 19.485 23.2594 19.5137C23.2429 19.5424 23.2271 19.5716 23.212 19.6011C23.197 19.6306 23.1826 19.6604 23.1691 19.6907C23.1555 19.7209 23.1427 19.7514 23.1306 19.7823C23.1186 19.8131 23.1073 19.8442 23.0967 19.8756C23.0862 19.9071 23.0765 19.9387 23.0676 19.9706C23.0586 20.0025 23.0505 20.0346 23.0431 20.0669C23.0358 20.0992 23.0292 20.1317 23.0235 20.1643C23.0177 20.1969 23.0128 20.2297 23.0087 20.2625C23.0046 20.2954 23.0013 20.3284 22.9988 20.3614C22.9963 20.3944 22.9946 20.4275 22.9938 20.4606C22.993 20.4938 22.993 20.5269 22.9938 20.56C22.9946 20.5931 22.9962 20.6262 22.9986 20.6592C23.0011 20.6923 23.0044 20.7252 23.0084 20.7581C23.0125 20.791 23.0174 20.8237 23.0231 20.8564C23.0288 20.889 23.0353 20.9214 23.0426 20.9537C23.05 20.9861 23.0581 21.0182 23.067 21.0501C23.0759 21.082 23.0856 21.1136 23.0961 21.1451C23.1066 21.1765 23.1178 21.2076 23.1299 21.2385L26.7659 31.0485C26.7765 31.0802 26.788 31.1115 26.8002 31.1427C26.8124 31.1737 26.8254 31.2045 26.8392 31.235C26.8529 31.2654 26.8675 31.2955 26.8827 31.3253C26.898 31.355 26.914 31.3843 26.9307 31.4132C26.9475 31.4421 26.9649 31.4706 26.9831 31.4987C27.0013 31.5267 27.0201 31.5543 27.0396 31.5814C27.0592 31.6085 27.0794 31.6351 27.1003 31.6612C27.1212 31.6873 27.1427 31.7128 27.1648 31.7379C27.187 31.7629 27.2098 31.7873 27.2331 31.8112C27.2566 31.835 27.2805 31.8583 27.305 31.881C27.3296 31.9037 27.3547 31.9257 27.3803 31.9471C27.406 31.9686 27.4322 31.9893 27.4589 32.0094C27.4856 32.0295 27.5127 32.049 27.5404 32.0677C27.568 32.0865 27.5962 32.1045 27.6247 32.1218C27.6533 32.1392 27.6823 32.1558 27.7117 32.1717C27.7411 32.1876 27.7708 32.2027 27.801 32.2171C27.8312 32.2315 27.8617 32.2452 27.8925 32.258C27.9233 32.2709 27.9545 32.283 27.9859 32.2943C28.0173 32.3056 28.0491 32.3161 28.081 32.3259C28.113 32.3356 28.1452 32.3445 28.1776 32.3526C28.21 32.3607 28.2426 32.368 28.2754 32.3745C28.3082 32.381 28.3411 32.3867 28.3742 32.3915C28.4072 32.3963 28.4404 32.4003 28.4737 32.4035C28.5069 32.4067 28.5403 32.409 28.5736 32.4105C28.607 32.412 28.6405 32.4127 28.6739 32.4125C28.7072 32.4124 28.7406 32.4113 28.774 32.4095C28.8074 32.4077 28.8407 32.405 28.8739 32.4015C28.9071 32.398 28.9403 32.3937 28.9733 32.3885C29.0063 32.3833 29.0392 32.3773 29.0719 32.3706C29.1046 32.3637 29.1371 32.3561 29.1694 32.3477C29.2018 32.3392 29.2339 32.33 29.2657 32.32C29.2976 32.3099 29.3292 32.2991 29.3606 32.2875C29.3919 32.2758 29.4229 32.2634 29.4536 32.2503C29.4843 32.237 29.5147 32.2231 29.5447 32.2084C29.5747 32.1937 29.6043 32.1783 29.6335 32.1621C29.6628 32.1459 29.6916 32.129 29.72 32.1114C29.7484 32.0937 29.7763 32.0754 29.8038 32.0564C29.8313 32.0374 29.8583 32.0177 29.8847 31.9973C29.9112 31.977 29.9372 31.9559 29.9626 31.9343C29.9881 31.9126 30.013 31.8903 30.0372 31.8674C30.0616 31.8445 30.0853 31.8209 30.1084 31.7969C30.1316 31.7727 30.1541 31.7481 30.176 31.7228C30.1979 31.6976 30.2192 31.6718 30.2398 31.6455C30.2604 31.6192 30.2804 31.5924 30.2997 31.5651C30.3189 31.5378 30.3375 31.51 30.3554 31.4818C30.3733 31.4536 30.3904 31.425 30.4069 31.3959C30.4233 31.3668 30.439 31.3373 30.454 31.3074C30.469 31.2776 30.4832 31.2473 30.4967 31.2167C30.5102 31.1862 30.5229 31.1553 30.5347 31.124C30.5467 31.0928 30.5578 31.0613 30.5681 31.0296C30.5784 30.9978 30.588 30.9658 30.5967 30.9335C30.6055 30.9012 30.6134 30.8688 30.6205 30.8361C30.6276 30.8035 30.6339 30.7707 30.6394 30.7377C30.6448 30.7048 30.6495 30.6717 30.6533 30.6385C30.6571 30.6053 30.6601 30.572 30.6622 30.5386C30.6644 30.5053 30.6657 30.4719 30.6662 30.4385C30.6666 30.4051 30.6663 30.3717 30.6651 30.3383C30.6639 30.3049 30.6618 30.2715 30.6589 30.2383C30.6561 30.2049 30.6524 30.1718 30.6479 30.1387C30.6434 30.1056 30.638 30.0726 30.6318 30.0397C30.6256 30.0069 30.6186 29.9742 30.6108 29.9418C30.603 29.9092 30.5944 29.877 30.5849 29.8449C30.5755 29.8129 30.5653 29.7811 30.5543 29.7495C30.5432 29.718 30.5314 29.6867 30.5189 29.6558L26.8829 19.848L26.8851 19.848Z" fill="#303133"/>
  <path d="M27.6705 18.2325C26.955 20.2643 23.112 21.3443 21.4785 20.6648L22.5473 14.8148L27.6705 18.2348L27.6705 18.2325Z" fill="#B9CEFF"/>
  <path d="M22.3289 14.2995C22.3395 14.295 22.3503 14.2908 22.3612 14.2869C22.3722 14.2831 22.3832 14.2796 22.3943 14.2764C22.4055 14.2732 22.4167 14.2704 22.428 14.2679C22.4393 14.2654 22.4507 14.2633 22.4621 14.2615C22.4736 14.2598 22.485 14.2583 22.4966 14.2573C22.5081 14.2562 22.5196 14.2555 22.5312 14.2551C22.5428 14.2548 22.5544 14.2548 22.566 14.2552C22.5775 14.2555 22.5891 14.2562 22.6006 14.2573C22.6121 14.2584 22.6236 14.2598 22.6351 14.2616C22.6465 14.2634 22.6579 14.2655 22.6692 14.268C22.6805 14.2705 22.6917 14.2733 22.7029 14.2765C22.714 14.2797 22.725 14.2832 22.7359 14.2871C22.7468 14.2909 22.7576 14.2951 22.7683 14.2996C22.7789 14.3042 22.7895 14.309 22.7998 14.3142C22.8102 14.3194 22.8204 14.3249 22.8304 14.3307C22.8404 14.3365 22.8502 14.3426 22.8599 14.349L27.9831 17.7667C27.9895 17.771 27.9958 17.7754 28.0021 17.78C28.0083 17.7845 28.0144 17.7892 28.0205 17.794C28.0265 17.7988 28.0324 17.8038 28.0383 17.8088C28.0441 17.8139 28.0498 17.819 28.0554 17.8243C28.0611 17.8296 28.0665 17.835 28.072 17.8405C28.0774 17.846 28.0826 17.8516 28.0878 17.8573C28.093 17.863 28.098 17.8689 28.103 17.8748C28.1079 17.8808 28.1127 17.8868 28.1174 17.8929C28.122 17.899 28.1266 17.9053 28.131 17.9116C28.1355 17.9179 28.1397 17.9243 28.1439 17.9308C28.148 17.9373 28.1521 17.9439 28.156 17.9506C28.1599 17.9572 28.1636 17.964 28.1672 17.9708C28.1708 17.9776 28.1743 17.9845 28.1776 17.9914C28.1809 17.9984 28.1841 18.0054 28.1872 18.0125C28.1902 18.0196 28.1931 18.0267 28.1959 18.034C28.1986 18.0411 28.2012 18.0484 28.2037 18.0557C28.2061 18.063 28.2084 18.0704 28.2105 18.0778C28.2127 18.0852 28.2147 18.0926 28.2165 18.1002C28.2183 18.1077 28.22 18.1152 28.2215 18.1227C28.2231 18.1303 28.2244 18.1379 28.2257 18.1455C28.2269 18.1531 28.2279 18.1608 28.2288 18.1684C28.2297 18.1761 28.2305 18.1837 28.2311 18.1914C28.2316 18.1991 28.2321 18.2068 28.2323 18.2145C28.2326 18.2222 28.2327 18.2299 28.2327 18.2377C28.2326 18.2454 28.2324 18.2531 28.2321 18.2608C28.2317 18.2685 28.2311 18.2762 28.2305 18.2839C28.2298 18.2916 28.229 18.2992 28.228 18.3069C28.227 18.3145 28.2258 18.3221 28.2245 18.3297C28.2232 18.3373 28.2217 18.3449 28.2201 18.3524C28.2185 18.36 28.2167 18.3675 28.2148 18.375C28.2128 18.3824 28.2108 18.3899 28.2085 18.3972C28.2063 18.4046 28.2039 18.4119 28.2014 18.4192C27.7559 19.6837 26.4081 20.541 25.1054 20.9977C24.4304 21.2317 23.7261 21.3802 23.0691 21.4185C22.4211 21.459 21.7799 21.4005 21.2624 21.1845C21.255 21.1814 21.2478 21.1782 21.2406 21.1749C21.2334 21.1715 21.2263 21.168 21.2192 21.1643C21.2122 21.1607 21.2052 21.1569 21.1983 21.153C21.1915 21.149 21.1847 21.1449 21.178 21.1407C21.1712 21.1364 21.1646 21.132 21.1581 21.1275C21.1516 21.123 21.1452 21.1183 21.1389 21.1135C21.1325 21.1088 21.1263 21.1038 21.1202 21.0988C21.1141 21.0937 21.1081 21.0885 21.1022 21.0832C21.0963 21.0779 21.0905 21.0725 21.0848 21.0669C21.0792 21.0614 21.0736 21.0557 21.0682 21.0499C21.0627 21.0441 21.0574 21.0382 21.0523 21.0322C21.0471 21.0262 21.042 21.0201 21.0371 21.0139C21.0322 21.0076 21.0274 21.0013 21.0228 20.9949C21.0181 20.9884 21.0136 20.9819 21.0092 20.9753C21.0049 20.9687 21.0006 20.962 20.9965 20.9552C20.9924 20.9483 20.9885 20.9415 20.9847 20.9345C20.9809 20.9276 20.9772 20.9205 20.9737 20.9134C20.9702 20.9063 20.9669 20.8991 20.9637 20.8918C20.9605 20.8845 20.9575 20.8772 20.9546 20.8698C20.9517 20.8625 20.949 20.855 20.9464 20.8475C20.9438 20.84 20.9414 20.8324 20.9391 20.8248C20.9369 20.8172 20.9348 20.8096 20.9329 20.8019C20.9309 20.7942 20.9292 20.7864 20.9276 20.7786C20.926 20.7709 20.9245 20.7631 20.9233 20.7552C20.922 20.7474 20.9209 20.7396 20.9199 20.7317C20.919 20.7238 20.9182 20.7159 20.9176 20.708C20.917 20.7001 20.9166 20.6922 20.9163 20.6842C20.9161 20.6763 20.916 20.6684 20.916 20.6604C20.9161 20.6525 20.9163 20.6446 20.9167 20.6367C20.9171 20.6287 20.9177 20.6208 20.9184 20.6129C20.9192 20.605 20.9201 20.5971 20.9212 20.5893C20.9222 20.5814 20.9235 20.5735 20.9249 20.5657L21.9936 14.7157C21.9957 14.7043 21.9982 14.693 22.001 14.6817C22.0038 14.6705 22.007 14.6593 22.0105 14.6482C22.014 14.6372 22.0178 14.6262 22.022 14.6154C22.0262 14.6046 22.0307 14.5939 22.0356 14.5833C22.0404 14.5728 22.0455 14.5624 22.0511 14.5522C22.0565 14.542 22.0623 14.5319 22.0684 14.522C22.0745 14.5122 22.081 14.5025 22.0877 14.493C22.0944 14.4835 22.1014 14.4743 22.1086 14.4653C22.1159 14.4562 22.1235 14.4474 22.1313 14.4388C22.1391 14.4303 22.1472 14.4219 22.1555 14.4139C22.1639 14.4058 22.1725 14.398 22.1813 14.3905C22.1901 14.3829 22.1992 14.3757 22.2085 14.3687C22.2177 14.3617 22.2272 14.355 22.2369 14.3486C22.2466 14.3422 22.2564 14.3361 22.2665 14.3303C22.2766 14.3246 22.2868 14.3191 22.2972 14.314C22.3076 14.3088 22.3182 14.304 22.3289 14.2995ZM22.9476 15.7597L22.1241 20.2642C22.3716 20.3047 22.6664 20.3182 22.9994 20.2957C23.5439 20.262 24.1491 20.1382 24.7319 19.9357C25.7354 19.5847 26.5476 19.0425 26.9481 18.4282L22.9476 15.7597Z" fill="#303133"/>
  <path d="M26.6709 30.3668C26.6709 30.334 26.6717 30.3012 26.6733 30.2685C26.6749 30.2358 26.6773 30.2031 26.6805 30.1705C26.6837 30.1379 26.6878 30.1053 26.6926 30.0729C26.6974 30.0405 26.703 30.0082 26.7094 29.9761C26.7158 29.9439 26.7229 29.912 26.7309 29.8802C26.7389 29.8484 26.7476 29.8168 26.7571 29.7854C26.7667 29.7541 26.7769 29.723 26.788 29.6921C26.799 29.6613 26.8108 29.6307 26.8233 29.6004C26.8359 29.5701 26.8492 29.5402 26.8632 29.5106C26.8772 29.4809 26.8919 29.4517 26.9074 29.4228C26.9228 29.3939 26.939 29.3654 26.9558 29.3373C26.9727 29.3092 26.9902 29.2815 27.0084 29.2542C27.0266 29.227 27.0454 29.2002 27.065 29.1739C27.0845 29.1475 27.1046 29.1217 27.1254 29.0964C27.1462 29.071 27.1676 29.0462 27.1896 29.022C27.2116 28.9977 27.2342 28.9739 27.2574 28.9508C27.2806 28.9276 27.3043 28.905 27.3286 28.883C27.3529 28.861 27.3777 28.8396 27.403 28.8188C27.4284 28.798 27.4542 28.7778 27.4805 28.7583C27.5068 28.7388 27.5336 28.7199 27.5609 28.7018C27.5881 28.6835 27.6158 28.666 27.6439 28.6492C27.672 28.6323 27.7005 28.6162 27.7294 28.6007C27.7583 28.5853 27.7876 28.5705 27.8172 28.5565C27.8468 28.5425 27.8768 28.5292 27.9071 28.5167C27.9373 28.5042 27.9679 28.4924 27.9988 28.4813C28.0296 28.4703 28.0607 28.46 28.0921 28.4505C28.1234 28.441 28.155 28.4322 28.1868 28.4243C28.2186 28.4163 28.2506 28.4091 28.2827 28.4027C28.3149 28.3963 28.3471 28.3908 28.3796 28.386C28.412 28.3811 28.4445 28.3771 28.4771 28.3739C28.5097 28.3707 28.5424 28.3683 28.5751 28.3667C28.6079 28.3651 28.6406 28.3643 28.6734 28.3643L40.3666 28.3643C40.3994 28.3642 40.4322 28.365 40.4649 28.3666C40.4976 28.3682 40.5303 28.3706 40.5629 28.3738C40.5955 28.377 40.6281 28.381 40.6605 28.3858C40.6929 28.3906 40.7252 28.3961 40.7573 28.4025C40.7895 28.4089 40.8215 28.416 40.8532 28.424C40.8851 28.4319 40.9166 28.4407 40.948 28.4501C40.9793 28.4597 41.0105 28.4699 41.0413 28.4809C41.0722 28.492 41.1028 28.5037 41.133 28.5163C41.1633 28.5288 41.1933 28.542 41.2229 28.556C41.2526 28.57 41.2818 28.5847 41.3108 28.6002C41.3397 28.6156 41.3682 28.6317 41.3963 28.6486C41.4244 28.6654 41.4521 28.6829 41.4794 28.7011C41.5066 28.7193 41.5334 28.7382 41.5597 28.7577C41.5861 28.7772 41.6119 28.7973 41.6373 28.8181C41.6626 28.8389 41.6874 28.8602 41.7117 28.8822C41.736 28.9042 41.7598 28.9268 41.7829 28.95C41.8061 28.9732 41.8287 28.9969 41.8508 29.0211C41.8728 29.0454 41.8942 29.0702 41.915 29.0955C41.9358 29.1208 41.956 29.1467 41.9755 29.173C41.995 29.1993 42.0139 29.2261 42.0322 29.2533C42.0504 29.2805 42.0679 29.3082 42.0848 29.3363C42.1016 29.3644 42.1178 29.3929 42.1333 29.4218C42.1487 29.4507 42.1635 29.48 42.1775 29.5096C42.1916 29.5392 42.2049 29.5691 42.2174 29.5994C42.23 29.6297 42.2418 29.6602 42.2528 29.6911C42.2639 29.7219 42.2742 29.753 42.2837 29.7844C42.2932 29.8158 42.302 29.8473 42.31 29.8791C42.318 29.9109 42.3252 29.9428 42.3316 29.975C42.338 30.0071 42.3436 30.0394 42.3484 30.0718C42.3532 30.1042 42.3573 30.1368 42.3605 30.1694C42.3637 30.202 42.3661 30.2346 42.3678 30.2674C42.3694 30.3001 42.3702 30.3329 42.3703 30.3656C42.3703 30.3984 42.3695 30.4312 42.3679 30.4639C42.3663 30.4966 42.3639 30.5293 42.3607 30.5619C42.3575 30.5945 42.3536 30.6271 42.3488 30.6595C42.344 30.6919 42.3384 30.7242 42.332 30.7563C42.3257 30.7885 42.3185 30.8204 42.3105 30.8522C42.3026 30.884 42.2939 30.9156 42.2844 30.947C42.2749 30.9783 42.2646 31.0094 42.2536 31.0403C42.2426 31.0712 42.2308 31.1018 42.2183 31.132C42.2057 31.1623 42.1925 31.1923 42.1785 31.2219C42.1645 31.2516 42.1498 31.2808 42.1343 31.3098C42.1189 31.3386 42.1028 31.3672 42.086 31.3953C42.0691 31.4234 42.0516 31.4511 42.0334 31.4784C42.0152 31.5056 41.9964 31.5324 41.9769 31.5587C41.9574 31.5851 41.9372 31.6109 41.9164 31.6362C41.8957 31.6616 41.8743 31.6864 41.8523 31.7107C41.8303 31.735 41.8077 31.7588 41.7845 31.7819C41.7614 31.8051 41.7377 31.8277 41.7134 31.8498C41.6891 31.8718 41.6643 31.8932 41.639 31.914C41.6137 31.9348 41.5879 31.955 41.5616 31.9745C41.5352 31.994 41.5085 32.0129 41.4812 32.0312C41.454 32.0494 41.4263 32.0669 41.3982 32.0838C41.3701 32.1006 41.3416 32.1168 41.3127 32.1323C41.2838 32.1477 41.2546 32.1625 41.2249 32.1765C41.1953 32.1906 41.1654 32.2038 41.1351 32.2164C41.1049 32.2289 41.0743 32.2408 41.0434 32.2518C41.0126 32.2629 40.9815 32.2732 40.9501 32.2827C40.9188 32.2922 40.8872 32.301 40.8554 32.309C40.8236 32.3169 40.7917 32.3242 40.7595 32.3305C40.7274 32.337 40.6951 32.3426 40.6627 32.3474C40.6303 32.3522 40.5978 32.3563 40.5652 32.3595C40.5326 32.3627 40.4999 32.3651 40.4672 32.3668C40.4344 32.3684 40.4017 32.3692 40.3689 32.3693L28.6734 32.3693C28.6406 32.3693 28.6079 32.3684 28.5751 32.3668C28.5424 32.3652 28.5097 32.3628 28.4771 32.3596C28.4445 32.3564 28.412 32.3524 28.3796 32.3476C28.3471 32.3427 28.3149 32.3372 28.2827 32.3308C28.2506 32.3244 28.2186 32.3172 28.1868 32.3092C28.155 32.3013 28.1234 32.2925 28.0921 32.283C28.0607 32.2735 28.0296 32.2632 27.9988 32.2522C27.9679 32.2411 27.9373 32.2294 27.9071 32.2168C27.8768 32.2043 27.8468 32.191 27.8172 32.177C27.7876 32.163 27.7583 32.1482 27.7294 32.1328C27.7005 32.1174 27.672 32.1012 27.6439 32.0844C27.6158 32.0675 27.5881 32.05 27.5609 32.0318C27.5336 32.0136 27.5068 31.9947 27.4805 31.9752C27.4542 31.9557 27.4284 31.9355 27.403 31.9147C27.3777 31.8939 27.3529 31.8725 27.3286 31.8505C27.3043 31.8285 27.2806 31.8059 27.2574 31.7827C27.2342 31.7596 27.2116 31.7358 27.1896 31.7116C27.1676 31.6873 27.1462 31.6625 27.1254 31.6371C27.1046 31.6118 27.0845 31.586 27.065 31.5596C27.0454 31.5333 27.0266 31.5065 27.0084 31.4793C26.9902 31.452 26.9727 31.4244 26.9558 31.3962C26.939 31.3681 26.9228 31.3396 26.9074 31.3107C26.8919 31.2818 26.8772 31.2526 26.8632 31.223C26.8492 31.1933 26.8359 31.1634 26.8233 31.1331C26.8108 31.1028 26.799 31.0722 26.788 31.0414C26.7769 31.0105 26.7667 30.9794 26.7571 30.9481C26.7476 30.9167 26.7389 30.8851 26.7309 30.8533C26.7229 30.8215 26.7158 30.7896 26.7094 30.7574C26.703 30.7253 26.6974 30.693 26.6926 30.6606C26.6877 30.6282 26.6837 30.5957 26.6805 30.563C26.6773 30.5304 26.6749 30.4978 26.6733 30.465C26.6717 30.4323 26.6709 30.3995 26.6709 30.3668Z" fill="#FAB5B5"/>
  <path d="M28.6734 29.4893L40.3666 29.4893C40.381 29.4892 40.3954 29.4896 40.4097 29.4903C40.424 29.491 40.4383 29.492 40.4526 29.4934C40.4669 29.4948 40.4811 29.4966 40.4953 29.4986C40.5096 29.5007 40.5237 29.5032 40.5378 29.506C40.5519 29.5087 40.5659 29.5119 40.5798 29.5154C40.5938 29.5188 40.6076 29.5227 40.6213 29.5268C40.6351 29.531 40.6487 29.5355 40.6622 29.5403C40.6757 29.5451 40.6891 29.5503 40.7024 29.5557C40.7157 29.5612 40.7288 29.567 40.7418 29.5731C40.7548 29.5793 40.7676 29.5857 40.7803 29.5925C40.7929 29.5992 40.8054 29.6063 40.8177 29.6137C40.8301 29.621 40.8422 29.6287 40.8542 29.6367C40.8661 29.6446 40.8778 29.6529 40.8894 29.6614C40.9009 29.67 40.9122 29.6788 40.9233 29.6879C40.9344 29.697 40.9453 29.7063 40.956 29.716C40.9666 29.7256 40.977 29.7355 40.9872 29.7456C40.9973 29.7558 41.0073 29.7661 41.0169 29.7768C41.0266 29.7874 41.0359 29.7983 41.0451 29.8094C41.0542 29.8204 41.063 29.8317 41.0716 29.8433C41.0801 29.8548 41.0884 29.8665 41.0964 29.8784C41.1044 29.8904 41.1121 29.9025 41.1195 29.9148C41.1269 29.9271 41.134 29.9396 41.1407 29.9522C41.1475 29.9649 41.154 29.9777 41.1602 29.9907C41.1663 30.0036 41.1721 30.0168 41.1777 30.03C41.1832 30.0433 41.1883 30.0567 41.1932 30.0702C41.1981 30.0837 41.2026 30.0973 41.2068 30.111C41.211 30.1248 41.2148 30.1386 41.2183 30.1525C41.2218 30.1664 41.2249 30.1804 41.2278 30.1945C41.2306 30.2086 41.2331 30.2227 41.2352 30.2369C41.2373 30.2511 41.2391 30.2654 41.2405 30.2796C41.2419 30.2939 41.243 30.3083 41.2437 30.3226C41.2445 30.3369 41.2448 30.3513 41.2448 30.3656C41.2449 30.38 41.2445 30.3943 41.2438 30.4087C41.2432 30.423 41.2421 30.4373 41.2407 30.4516C41.2394 30.4659 41.2376 30.4802 41.2355 30.4944C41.2335 30.5086 41.231 30.5227 41.2282 30.5368C41.2254 30.5509 41.2223 30.5649 41.2188 30.5788C41.2153 30.5927 41.2115 30.6066 41.2074 30.6203C41.2033 30.6341 41.1988 30.6477 41.194 30.6612C41.1892 30.6747 41.184 30.6881 41.1785 30.7014C41.1731 30.7147 41.1673 30.7278 41.1611 30.7408C41.155 30.7538 41.1486 30.7666 41.1418 30.7793C41.1351 30.792 41.128 30.8045 41.1206 30.8168C41.1133 30.8291 41.1056 30.8413 41.0977 30.8532C41.0897 30.8651 41.0815 30.8769 41.0729 30.8884C41.0644 30.9 41.0556 30.9113 41.0465 30.9224C41.0374 30.9335 41.028 30.9444 41.0184 30.9551C41.0088 30.9657 40.9989 30.9761 40.9888 30.9863C40.9786 30.9965 40.9683 31.0064 40.9577 31.016C40.947 31.0257 40.9361 31.0351 40.9251 31.0442C40.914 31.0533 40.9027 31.0622 40.8912 31.0708C40.8797 31.0793 40.8679 31.0876 40.856 31.0956C40.8441 31.1036 40.832 31.1113 40.8197 31.1187C40.8074 31.1261 40.7949 31.1332 40.7823 31.14C40.7696 31.1468 40.7568 31.1532 40.7438 31.1594C40.7309 31.1656 40.7177 31.1714 40.7045 31.1769C40.6912 31.1824 40.6778 31.1876 40.6643 31.1925C40.6508 31.1973 40.6372 31.2018 40.6235 31.206C40.6097 31.2102 40.5959 31.2141 40.582 31.2176C40.5681 31.2211 40.5541 31.2243 40.54 31.2271C40.5259 31.2299 40.5118 31.2324 40.4976 31.2345C40.4834 31.2367 40.4692 31.2384 40.4549 31.2399C40.4406 31.2413 40.4263 31.2424 40.4119 31.2431C40.3976 31.2439 40.3833 31.2442 40.3689 31.2443L28.6734 31.2443C28.659 31.2443 28.6447 31.2439 28.6303 31.2432C28.616 31.2425 28.6017 31.2414 28.5874 31.24C28.5731 31.2386 28.5589 31.2369 28.5447 31.2348C28.5304 31.2327 28.5163 31.2302 28.5022 31.2274C28.4881 31.2246 28.4741 31.2215 28.4602 31.218C28.4463 31.2145 28.4324 31.2106 28.4187 31.2065C28.4049 31.2023 28.3913 31.1978 28.3778 31.193C28.3642 31.1881 28.3508 31.1829 28.3376 31.1775C28.3243 31.172 28.3112 31.1661 28.2982 31.16C28.2852 31.1539 28.2724 31.1474 28.2597 31.1407C28.2471 31.1339 28.2346 31.1268 28.2223 31.1194C28.2099 31.112 28.1978 31.1043 28.1859 31.0964C28.1739 31.0884 28.1622 31.0801 28.1507 31.0716C28.1391 31.063 28.1278 31.0542 28.1167 31.0451C28.1056 31.036 28.0947 31.0266 28.0841 31.0169C28.0735 31.0073 28.0631 30.9974 28.0529 30.9872C28.0428 30.9771 28.0329 30.9667 28.0232 30.956C28.0136 30.9454 28.0042 30.9345 27.9951 30.9234C27.986 30.9123 27.9771 30.901 27.9686 30.8895C27.96 30.8779 27.9518 30.8662 27.9438 30.8543C27.9358 30.8423 27.9281 30.8302 27.9207 30.8179C27.9134 30.8056 27.9063 30.7931 27.8995 30.7804C27.8927 30.7677 27.8863 30.7549 27.8801 30.7419C27.874 30.729 27.8682 30.7158 27.8627 30.7026C27.8572 30.6893 27.852 30.6759 27.8472 30.6624C27.8424 30.6489 27.8379 30.6352 27.8337 30.6215C27.8295 30.6077 27.8257 30.5939 27.8222 30.58C27.8187 30.566 27.8156 30.552 27.8128 30.5379C27.81 30.5238 27.8075 30.5097 27.8054 30.4955C27.8033 30.4813 27.8015 30.467 27.8001 30.4527C27.7987 30.4385 27.7977 30.4242 27.797 30.4098C27.7962 30.3955 27.7959 30.3811 27.7959 30.3668C27.7959 30.3524 27.7962 30.338 27.797 30.3237C27.7977 30.3093 27.7987 30.295 27.8001 30.2807C27.8015 30.2665 27.8033 30.2522 27.8054 30.238C27.8075 30.2238 27.81 30.2096 27.8128 30.1955C27.8156 30.1815 27.8187 30.1675 27.8222 30.1535C27.8257 30.1396 27.8295 30.1258 27.8337 30.112C27.8379 30.0983 27.8424 30.0847 27.8472 30.0711C27.852 30.0576 27.8572 30.0442 27.8627 30.0309C27.8682 30.0177 27.874 30.0046 27.8801 29.9916C27.8863 29.9786 27.8927 29.9658 27.8995 29.9531C27.9063 29.9404 27.9134 29.9279 27.9207 29.9156C27.9281 29.9033 27.9358 29.8912 27.9438 29.8792C27.9518 29.8673 27.96 29.8556 27.9686 29.844C27.9771 29.8325 27.986 29.8212 27.9951 29.8101C28.0042 29.799 28.0136 29.7881 28.0232 29.7775C28.0329 29.7668 28.0428 29.7564 28.0529 29.7463C28.0631 29.7361 28.0735 29.7262 28.0841 29.7166C28.0947 29.7069 28.1056 29.6975 28.1167 29.6885C28.1278 29.6793 28.1391 29.6705 28.1507 29.6619C28.1622 29.6534 28.1739 29.6451 28.1859 29.6371C28.1978 29.6292 28.2099 29.6215 28.2223 29.6141C28.2346 29.6067 28.2471 29.5996 28.2597 29.5929C28.2724 29.5861 28.2852 29.5796 28.2982 29.5735C28.3112 29.5674 28.3243 29.5615 28.3376 29.5561C28.3508 29.5505 28.3642 29.5454 28.3778 29.5406C28.3913 29.5357 28.4049 29.5312 28.4187 29.5271C28.4324 29.5229 28.4463 29.519 28.4602 29.5156C28.4741 29.5121 28.4881 29.5089 28.5022 29.5061C28.5163 29.5033 28.5304 29.5009 28.5447 29.4987C28.5589 29.4966 28.5731 29.4949 28.5874 29.4935C28.6017 29.4921 28.616 29.491 28.6303 29.4903C28.6447 29.4896 28.659 29.4893 28.6734 29.4893ZM28.6734 28.3643C28.6406 28.3643 28.6079 28.3651 28.5751 28.3667C28.5424 28.3683 28.5097 28.3707 28.4771 28.3739C28.4445 28.3771 28.412 28.3811 28.3796 28.3859C28.3471 28.3907 28.3149 28.3963 28.2827 28.4027C28.2506 28.4091 28.2186 28.4163 28.1868 28.4243C28.155 28.4322 28.1234 28.441 28.0921 28.4505C28.0607 28.46 28.0296 28.4703 27.9988 28.4813C27.9679 28.4924 27.9373 28.5042 27.9071 28.5167C27.8768 28.5292 27.8468 28.5425 27.8172 28.5565C27.7876 28.5705 27.7583 28.5853 27.7294 28.6007C27.7005 28.6162 27.672 28.6323 27.6439 28.6492C27.6158 28.666 27.5881 28.6835 27.5609 28.7017C27.5336 28.7199 27.5068 28.7388 27.4805 28.7583C27.4542 28.7778 27.4284 28.798 27.403 28.8188C27.3777 28.8396 27.3529 28.861 27.3286 28.883C27.3043 28.905 27.2806 28.9276 27.2574 28.9508C27.2342 28.9739 27.2116 28.9977 27.1896 29.022C27.1676 29.0462 27.1462 29.071 27.1254 29.0964C27.1046 29.1217 27.0845 29.1475 27.065 29.1739C27.0454 29.2002 27.0266 29.227 27.0084 29.2542C26.9902 29.2815 26.9727 29.3092 26.9558 29.3373C26.939 29.3654 26.9228 29.3939 26.9074 29.4228C26.8919 29.4517 26.8772 29.4809 26.8632 29.5106C26.8492 29.5402 26.8359 29.5701 26.8233 29.6004C26.8108 29.6307 26.799 29.6613 26.788 29.6921C26.7769 29.723 26.7667 29.7541 26.7571 29.7854C26.7476 29.8168 26.7389 29.8484 26.7309 29.8802C26.7229 29.912 26.7158 29.9439 26.7094 29.9761C26.703 30.0082 26.6974 30.0405 26.6926 30.0729C26.6877 30.1053 26.6837 30.1379 26.6805 30.1705C26.6773 30.2031 26.6749 30.2358 26.6733 30.2685C26.6717 30.3012 26.6709 30.334 26.6709 30.3668C26.6709 30.3995 26.6717 30.4323 26.6733 30.465C26.6749 30.4977 26.6773 30.5304 26.6805 30.563C26.6837 30.5957 26.6877 30.6282 26.6926 30.6606C26.6974 30.693 26.703 30.7253 26.7094 30.7574C26.7158 30.7896 26.7229 30.8215 26.7309 30.8533C26.7389 30.8851 26.7476 30.9167 26.7571 30.9481C26.7666 30.9794 26.7769 31.0105 26.788 31.0414C26.799 31.0722 26.8108 31.1028 26.8233 31.1331C26.8359 31.1634 26.8492 31.1933 26.8632 31.2229C26.8772 31.2525 26.8919 31.2818 26.9074 31.3107C26.9228 31.3396 26.939 31.3681 26.9558 31.3962C26.9727 31.4244 26.9902 31.452 27.0084 31.4793C27.0266 31.5065 27.0454 31.5333 27.065 31.5596C27.0845 31.586 27.1046 31.6118 27.1254 31.6371C27.1462 31.6625 27.1676 31.6873 27.1896 31.7116C27.2116 31.7358 27.2342 31.7596 27.2574 31.7827C27.2806 31.8059 27.3043 31.8285 27.3286 31.8505C27.3529 31.8725 27.3777 31.8939 27.403 31.9147C27.4284 31.9355 27.4542 31.9557 27.4805 31.9752C27.5068 31.9947 27.5336 32.0136 27.5609 32.0318C27.5881 32.05 27.6158 32.0675 27.6439 32.0844C27.672 32.1012 27.7005 32.1174 27.7294 32.1328C27.7583 32.1482 27.7876 32.163 27.8172 32.177C27.8468 32.191 27.8768 32.2043 27.9071 32.2168C27.9373 32.2294 27.9679 32.2411 27.9988 32.2522C28.0296 32.2632 28.0607 32.2735 28.0921 32.283C28.1234 32.2925 28.155 32.3013 28.1868 32.3092C28.2186 32.3172 28.2506 32.3244 28.2827 32.3308C28.3149 32.3372 28.3471 32.3427 28.3796 32.3476C28.412 32.3524 28.4445 32.3564 28.4771 32.3596C28.5097 32.3628 28.5424 32.3652 28.5751 32.3668C28.6079 32.3684 28.6406 32.3693 28.6734 32.3693L40.3689 32.3693C40.4017 32.3693 40.4344 32.3684 40.4672 32.3668C40.4999 32.3652 40.5325 32.3628 40.5652 32.3596C40.5978 32.3564 40.6303 32.3524 40.6627 32.3476C40.6951 32.3427 40.7274 32.3372 40.7595 32.3308C40.7917 32.3244 40.8237 32.3172 40.8555 32.3092C40.8872 32.3013 40.9188 32.2925 40.9502 32.283C40.9816 32.2735 41.0127 32.2632 41.0435 32.2522C41.0744 32.2411 41.1049 32.2294 41.1352 32.2168C41.1655 32.2043 41.1954 32.191 41.2251 32.177C41.2547 32.163 41.2839 32.1482 41.3129 32.1328C41.3418 32.1174 41.3703 32.1012 41.3984 32.0844C41.4265 32.0675 41.4542 32.05 41.4814 32.0318C41.5087 32.0136 41.5354 31.9947 41.5618 31.9752C41.5881 31.9557 41.6139 31.9355 41.6393 31.9147C41.6646 31.8939 41.6894 31.8725 41.7137 31.8505C41.738 31.8285 41.7617 31.8059 41.7849 31.7827C41.808 31.7596 41.8306 31.7358 41.8526 31.7116C41.8747 31.6873 41.8961 31.6625 41.9169 31.6371C41.9376 31.6118 41.9578 31.586 41.9773 31.5596C41.9968 31.5333 42.0157 31.5065 42.0339 31.4793C42.0521 31.452 42.0696 31.4244 42.0865 31.3962C42.1033 31.3681 42.1195 31.3396 42.1349 31.3107C42.1504 31.2818 42.1651 31.2525 42.1791 31.2229C42.1931 31.1933 42.2064 31.1634 42.219 31.1331C42.2315 31.1028 42.2433 31.0722 42.2543 31.0414C42.2654 31.0105 42.2756 30.9794 42.2852 30.9481C42.2947 30.9167 42.3034 30.8851 42.3114 30.8533C42.3194 30.8215 42.3265 30.7896 42.3329 30.7574C42.3393 30.7253 42.3449 30.693 42.3497 30.6606C42.3545 30.6282 42.3586 30.5957 42.3618 30.563C42.365 30.5304 42.3674 30.4977 42.369 30.465C42.3706 30.4323 42.3714 30.3995 42.3714 30.3668C42.3714 30.334 42.3706 30.3012 42.369 30.2685C42.3674 30.2358 42.365 30.2031 42.3618 30.1705C42.3586 30.1379 42.3545 30.1053 42.3497 30.0729C42.3449 30.0405 42.3393 30.0082 42.3329 29.9761C42.3265 29.9439 42.3194 29.912 42.3114 29.8802C42.3034 29.8484 42.2947 29.8168 42.2852 29.7854C42.2756 29.7541 42.2654 29.723 42.2543 29.6921C42.2433 29.6613 42.2315 29.6307 42.219 29.6004C42.2064 29.5701 42.1931 29.5402 42.1791 29.5106C42.1651 29.4809 42.1504 29.4517 42.1349 29.4228C42.1195 29.3939 42.1033 29.3654 42.0865 29.3373C42.0696 29.3092 42.0521 29.2815 42.0339 29.2542C42.0157 29.227 41.9968 29.2002 41.9773 29.1739C41.9578 29.1475 41.9376 29.1217 41.9169 29.0964C41.8961 29.071 41.8747 29.0462 41.8526 29.022C41.8306 28.9977 41.808 28.9739 41.7849 28.9508C41.7617 28.9276 41.738 28.905 41.7137 28.883C41.6894 28.861 41.6646 28.8396 41.6393 28.8188C41.6139 28.798 41.5881 28.7778 41.5618 28.7583C41.5354 28.7388 41.5087 28.7199 41.4814 28.7017C41.4542 28.6835 41.4265 28.666 41.3984 28.6492C41.3703 28.6323 41.3418 28.6162 41.3129 28.6007C41.284 28.5853 41.2547 28.5705 41.2251 28.5565C41.1954 28.5425 41.1655 28.5292 41.1352 28.5167C41.105 28.5042 41.0744 28.4924 41.0435 28.4813C41.0127 28.4703 40.9816 28.46 40.9502 28.4505C40.9188 28.441 40.8872 28.4322 40.8555 28.4243C40.8237 28.4163 40.7917 28.4091 40.7595 28.4027C40.7274 28.3963 40.6951 28.3907 40.6627 28.3859C40.6303 28.3811 40.5978 28.3771 40.5652 28.3739C40.5325 28.3707 40.4999 28.3683 40.4672 28.3667C40.4344 28.3651 40.4017 28.3643 40.3689 28.3643L28.6734 28.3643Z" fill="#303133"/>
  <path d="M39.4315 33.3862C37.9915 31.8292 39.0265 28.065 40.4822 27.0007L45.1464 30.6435L39.4315 33.3862Z" fill="#FAB5B5"/>
  <path d="M40.1489 26.5462C40.1551 26.5417 40.1613 26.5374 40.1676 26.5331C40.1739 26.5289 40.1803 26.5248 40.1868 26.5208C40.1933 26.5168 40.1998 26.513 40.2065 26.5093C40.2131 26.5056 40.2198 26.502 40.2266 26.4985C40.2333 26.4951 40.2402 26.4918 40.2471 26.4886C40.254 26.4854 40.261 26.4824 40.268 26.4795C40.2751 26.4767 40.2821 26.4739 40.2893 26.4713C40.2964 26.4687 40.3036 26.4663 40.3109 26.464C40.3181 26.4617 40.3254 26.4595 40.3327 26.4575C40.3401 26.4555 40.3475 26.4536 40.3549 26.4519C40.3623 26.4502 40.3697 26.4487 40.3772 26.4473C40.3847 26.4459 40.3922 26.4446 40.3997 26.4435C40.4072 26.4424 40.4147 26.4415 40.4223 26.4407C40.4299 26.4399 40.4374 26.4392 40.445 26.4387C40.4526 26.4382 40.4602 26.4379 40.4678 26.4377C40.4754 26.4375 40.483 26.4375 40.4906 26.4376C40.4982 26.4378 40.5058 26.4381 40.5134 26.4385C40.521 26.4389 40.5286 26.4395 40.5361 26.4402C40.5437 26.441 40.5512 26.4419 40.5588 26.4429C40.5663 26.444 40.5738 26.4452 40.5813 26.4465C40.5887 26.4479 40.5962 26.4494 40.6036 26.451C40.611 26.4527 40.6184 26.4545 40.6258 26.4564C40.6331 26.4584 40.6404 26.4605 40.6477 26.4627C40.6549 26.465 40.6622 26.4674 40.6693 26.4699C40.6765 26.4725 40.6836 26.4752 40.6906 26.478C40.6977 26.4808 40.7047 26.4838 40.7116 26.4869C40.7186 26.49 40.7254 26.4933 40.7323 26.4967C40.7391 26.5001 40.7458 26.5036 40.7524 26.5072C40.7591 26.5109 40.7657 26.5147 40.7722 26.5186C40.7787 26.5226 40.7851 26.5266 40.7915 26.5308C40.7978 26.535 40.8041 26.5393 40.8102 26.5438C40.8164 26.5482 40.8225 26.5528 40.8284 26.5575L45.4927 30.2002C45.502 30.2075 45.5112 30.2151 45.52 30.223C45.5289 30.231 45.5375 30.2391 45.5459 30.2475C45.5543 30.256 45.5624 30.2647 45.5702 30.2736C45.578 30.2826 45.5855 30.2918 45.5927 30.3012C45.6 30.3107 45.6069 30.3203 45.6135 30.3302C45.6201 30.34 45.6264 30.3501 45.6324 30.3604C45.6384 30.3707 45.644 30.3811 45.6493 30.3917C45.6547 30.4023 45.6596 30.4131 45.6643 30.4241C45.6689 30.435 45.6732 30.4461 45.6771 30.4573C45.681 30.4685 45.6846 30.4799 45.6878 30.4913C45.6911 30.5027 45.6939 30.5142 45.6964 30.5259C45.6989 30.5375 45.701 30.5492 45.7027 30.561C45.7045 30.5727 45.7059 30.5845 45.7069 30.5963C45.7078 30.6082 45.7085 30.6201 45.7087 30.6319C45.709 30.6438 45.7088 30.6557 45.7083 30.6676C45.7078 30.6794 45.7069 30.6913 45.7057 30.7031C45.7044 30.7149 45.7028 30.7267 45.7007 30.7384C45.6988 30.7501 45.6964 30.7617 45.6936 30.7733C45.6909 30.7848 45.6878 30.7963 45.6843 30.8077C45.6809 30.819 45.677 30.8303 45.6728 30.8414C45.6687 30.8526 45.6641 30.8635 45.6593 30.8743C45.6544 30.8852 45.6491 30.8959 45.6436 30.9064C45.638 30.9169 45.6321 30.9272 45.6259 30.9373C45.6197 30.9474 45.6132 30.9574 45.6064 30.9671C45.5996 30.9768 45.5924 30.9863 45.585 30.9956C45.5775 31.0048 45.5698 31.0139 45.5618 31.0226C45.5538 31.0314 45.5455 31.0399 45.5369 31.0482C45.5284 31.0565 45.5196 31.0644 45.5105 31.0721C45.5015 31.0798 45.4922 31.0872 45.4827 31.0943C45.4732 31.1014 45.4634 31.1082 45.4534 31.1147C45.4435 31.1212 45.4333 31.1273 45.423 31.1332C45.4127 31.139 45.4021 31.1446 45.3914 31.1497L39.6764 33.8947C39.6697 33.898 39.6629 33.9011 39.6561 33.904C39.6492 33.907 39.6423 33.9098 39.6353 33.9125C39.6284 33.9152 39.6214 33.9177 39.6143 33.9201C39.6072 33.9225 39.6001 33.9248 39.593 33.9269C39.5858 33.929 39.5786 33.931 39.5714 33.9328C39.5642 33.9347 39.5569 33.9364 39.5496 33.9379C39.5423 33.9394 39.535 33.9409 39.5276 33.9421C39.5202 33.9433 39.5129 33.9445 39.5055 33.9454C39.498 33.9464 39.4906 33.9472 39.4832 33.9478C39.4758 33.9485 39.4683 33.949 39.4609 33.9494C39.4534 33.9498 39.446 33.95 39.4385 33.9501C39.431 33.9501 39.4236 33.9501 39.4161 33.9498C39.4086 33.9496 39.4012 33.9492 39.3938 33.9487C39.3863 33.9482 39.3789 33.9475 39.3714 33.9467C39.364 33.9459 39.3566 33.9449 39.3492 33.9438C39.3419 33.9427 39.3345 33.9414 39.3272 33.94C39.3199 33.9386 39.3126 33.9371 39.3053 33.9354C39.298 33.9336 39.2908 33.9318 39.2836 33.9298C39.2764 33.9278 39.2692 33.9257 39.2621 33.9235C39.255 33.9212 39.248 33.9188 39.2409 33.9162C39.2339 33.9137 39.227 33.911 39.2201 33.9082C39.2132 33.9053 39.2063 33.9024 39.1995 33.8993C39.1927 33.8962 39.186 33.8929 39.1793 33.8896C39.1727 33.8862 39.1661 33.8827 39.1596 33.8791C39.153 33.8755 39.1466 33.8717 39.1402 33.8678C39.1339 33.8639 39.1276 33.8599 39.1213 33.8558C39.1151 33.8516 39.109 33.8474 39.103 33.843C39.0969 33.8386 39.091 33.8341 39.0851 33.8295C39.0792 33.8249 39.0735 33.8201 39.0678 33.8153C39.0621 33.8105 39.0565 33.8055 39.0511 33.8004C39.0456 33.7953 39.0402 33.7902 39.035 33.7849C39.0297 33.7796 39.0245 33.7742 39.0195 33.7687C38.1105 32.7855 38.0475 31.2195 38.322 29.8965C38.4614 29.2125 38.6977 28.542 39.0037 27.966C39.3052 27.3945 39.6922 26.8815 40.1512 26.5462L40.1489 26.5462ZM39.6112 32.6752L44.0864 30.5287L40.5089 27.7365C40.3357 27.9322 40.1602 28.1865 39.9982 28.4925C39.9315 28.6207 39.8694 28.7511 39.8119 28.8837C39.7543 29.0162 39.7015 29.1506 39.6533 29.2869C39.6051 29.4231 39.5617 29.5609 39.5232 29.7001C39.4846 29.8394 39.451 29.9799 39.4222 30.1215C39.213 31.134 39.2782 32.061 39.6112 32.6752Z" fill="#303133"/>
  <path d="M40.1489 26.5462C40.1551 26.5417 40.1613 26.5374 40.1676 26.5331C40.1739 26.5289 40.1803 26.5248 40.1868 26.5208C40.1933 26.5168 40.1998 26.513 40.2065 26.5093C40.2131 26.5056 40.2198 26.502 40.2266 26.4985C40.2333 26.4951 40.2402 26.4918 40.2471 26.4886C40.254 26.4854 40.261 26.4824 40.268 26.4795C40.2751 26.4767 40.2821 26.4739 40.2893 26.4713C40.2964 26.4687 40.3036 26.4663 40.3109 26.464C40.3181 26.4617 40.3254 26.4595 40.3327 26.4575C40.3401 26.4555 40.3475 26.4536 40.3549 26.4519C40.3623 26.4502 40.3697 26.4487 40.3772 26.4473C40.3847 26.4459 40.3922 26.4446 40.3997 26.4435C40.4072 26.4424 40.4147 26.4415 40.4223 26.4407C40.4299 26.4399 40.4374 26.4392 40.445 26.4387C40.4526 26.4382 40.4602 26.4379 40.4678 26.4377C40.4754 26.4375 40.483 26.4375 40.4906 26.4376C40.4982 26.4378 40.5058 26.4381 40.5134 26.4385C40.521 26.4389 40.5286 26.4395 40.5361 26.4402C40.5437 26.441 40.5512 26.4419 40.5588 26.4429C40.5663 26.444 40.5738 26.4452 40.5813 26.4465C40.5887 26.4479 40.5962 26.4494 40.6036 26.451C40.611 26.4527 40.6184 26.4545 40.6258 26.4564C40.6331 26.4584 40.6404 26.4605 40.6477 26.4627C40.6549 26.465 40.6622 26.4674 40.6693 26.4699C40.6765 26.4725 40.6836 26.4752 40.6906 26.478C40.6977 26.4808 40.7047 26.4838 40.7116 26.4869C40.7186 26.49 40.7254 26.4933 40.7323 26.4967C40.7391 26.5001 40.7458 26.5036 40.7524 26.5072C40.7591 26.5109 40.7657 26.5147 40.7722 26.5186C40.7787 26.5226 40.7851 26.5266 40.7915 26.5308C40.7978 26.535 40.8041 26.5393 40.8102 26.5438C40.8164 26.5482 40.8225 26.5528 40.8284 26.5575L45.4927 30.2002C45.502 30.2075 45.5112 30.2151 45.52 30.223C45.5289 30.231 45.5375 30.2391 45.5459 30.2475C45.5543 30.256 45.5624 30.2647 45.5702 30.2736C45.578 30.2826 45.5855 30.2918 45.5927 30.3012C45.6 30.3107 45.6069 30.3203 45.6135 30.3302C45.6201 30.34 45.6264 30.3501 45.6324 30.3604C45.6384 30.3707 45.644 30.3811 45.6493 30.3917C45.6547 30.4023 45.6596 30.4131 45.6643 30.4241C45.6689 30.435 45.6732 30.4461 45.6771 30.4573C45.681 30.4685 45.6846 30.4799 45.6878 30.4913C45.6911 30.5027 45.6939 30.5142 45.6964 30.5259C45.6989 30.5375 45.701 30.5492 45.7027 30.561C45.7045 30.5727 45.7059 30.5845 45.7069 30.5963C45.7078 30.6082 45.7085 30.6201 45.7087 30.6319C45.709 30.6438 45.7088 30.6557 45.7083 30.6676C45.7078 30.6794 45.7069 30.6913 45.7057 30.7031C45.7044 30.7149 45.7028 30.7267 45.7007 30.7384C45.6988 30.7501 45.6964 30.7617 45.6936 30.7733C45.6909 30.7848 45.6878 30.7963 45.6843 30.8077C45.6809 30.819 45.677 30.8303 45.6728 30.8414C45.6687 30.8526 45.6641 30.8635 45.6593 30.8743C45.6544 30.8852 45.6491 30.8959 45.6436 30.9064C45.638 30.9169 45.6321 30.9272 45.6259 30.9373C45.6197 30.9474 45.6132 30.9574 45.6064 30.9671C45.5996 30.9768 45.5924 30.9863 45.585 30.9956C45.5775 31.0048 45.5698 31.0139 45.5618 31.0226C45.5538 31.0314 45.5455 31.0399 45.5369 31.0482C45.5284 31.0565 45.5196 31.0644 45.5105 31.0721C45.5015 31.0798 45.4922 31.0872 45.4827 31.0943C45.4732 31.1014 45.4634 31.1082 45.4534 31.1147C45.4435 31.1212 45.4333 31.1273 45.423 31.1332C45.4127 31.139 45.4021 31.1446 45.3914 31.1497L39.6764 33.8947C39.6697 33.898 39.6629 33.9011 39.6561 33.904C39.6492 33.907 39.6423 33.9098 39.6353 33.9125C39.6284 33.9152 39.6214 33.9177 39.6143 33.9201C39.6072 33.9225 39.6001 33.9248 39.593 33.9269C39.5858 33.929 39.5786 33.931 39.5714 33.9328C39.5642 33.9347 39.5569 33.9364 39.5496 33.9379C39.5423 33.9394 39.535 33.9409 39.5276 33.9421C39.5202 33.9433 39.5129 33.9445 39.5055 33.9454C39.498 33.9464 39.4906 33.9472 39.4832 33.9478C39.4758 33.9485 39.4683 33.949 39.4609 33.9494C39.4534 33.9498 39.446 33.95 39.4385 33.9501C39.431 33.9501 39.4236 33.9501 39.4161 33.9498C39.4086 33.9496 39.4012 33.9492 39.3938 33.9487C39.3863 33.9482 39.3789 33.9475 39.3714 33.9467C39.364 33.9459 39.3566 33.9449 39.3492 33.9438C39.3419 33.9427 39.3345 33.9414 39.3272 33.94C39.3199 33.9386 39.3126 33.9371 39.3053 33.9354C39.298 33.9336 39.2908 33.9318 39.2836 33.9298C39.2764 33.9278 39.2692 33.9257 39.2621 33.9235C39.255 33.9212 39.248 33.9188 39.2409 33.9162C39.2339 33.9137 39.227 33.911 39.2201 33.9082C39.2132 33.9053 39.2063 33.9024 39.1995 33.8993C39.1927 33.8962 39.186 33.8929 39.1793 33.8896C39.1727 33.8862 39.1661 33.8827 39.1596 33.8791C39.153 33.8755 39.1466 33.8717 39.1402 33.8678C39.1339 33.8639 39.1276 33.8599 39.1213 33.8558C39.1151 33.8516 39.109 33.8474 39.103 33.843C39.0969 33.8386 39.091 33.8341 39.0851 33.8295C39.0792 33.8249 39.0735 33.8201 39.0678 33.8153C39.0621 33.8105 39.0565 33.8055 39.0511 33.8004C39.0456 33.7953 39.0402 33.7902 39.035 33.7849C39.0297 33.7796 39.0245 33.7742 39.0195 33.7687C38.1105 32.7855 38.0475 31.2195 38.322 29.8965C38.4614 29.2125 38.6977 28.542 39.0037 27.966C39.3052 27.3945 39.6922 26.8815 40.1512 26.5462L40.1489 26.5462ZM39.6112 32.6752L44.0864 30.5287L40.5089 27.7365C40.3357 27.9322 40.1602 28.1865 39.9982 28.4925C39.9315 28.6207 39.8694 28.7511 39.8119 28.8837C39.7543 29.0162 39.7015 29.1506 39.6533 29.2869C39.6051 29.4231 39.5617 29.5609 39.5232 29.7001C39.4846 29.8394 39.451 29.9799 39.4222 30.1215C39.213 31.134 39.2782 32.061 39.6112 32.6752Z" fill="#303133"/>
</svg>
