<svg xmlns="http://www.w3.org/2000/svg" xmlns:xlink="http://www.w3.org/1999/xlink" width="60" height="60" viewBox="0 0 60 60" fill="none">
<rect x="0" y="0" width="60" height="60" rx="6" fill="#E3EDFF">
</rect>
<rect x="0" y="57" width="60" height="3" rx="1.5" fill="#9EC5FF">

                                    <animate attributeName="y" values="57;0;57" begin="0s" dur="2s" repeatCount="indefinite" fill="freeze" calcMode="linear" keyTimes="0;0.5;1"/>
                                    <animate attributeName="height" values="3;60.000091552734375;3" begin="0s" dur="2s" repeatCount="indefinite" fill="freeze" calcMode="linear" keyTimes="0;0.5;1"/>
                                    <animate attributeName="rx" values="1.5;6;1.5" begin="0s" dur="2s" repeatCount="indefinite" fill="freeze" calcMode="linear" keyTimes="0;0.5;1"/></rect>
<path d="M19.4189 32.5994L30.6746 21.3437C33.3699 18.6485 36.0652 18.6485 38.7604 21.3437C41.4557 24.039 41.4557 26.7342 38.7604 29.4295L27.5047 40.6852C24.8094 43.3804 22.1142 43.3804 19.4189 40.6852C16.7236 37.9899 16.7236 35.2947 19.4189 32.5994Z" fill="#78C0FF">
</path>
<path d="M23.4551 46.1875C23.3391 46.1874 23.223 46.1853 23.107 46.181C22.9911 46.1767 22.8752 46.1703 22.7595 46.1617C22.6438 46.1532 22.5282 46.1425 22.4129 46.1297C22.2975 46.1169 22.1825 46.1019 22.0677 46.0849C21.9529 46.0678 21.8385 46.0487 21.7244 46.0275C21.6103 46.0062 21.4967 45.9828 21.3834 45.9574C21.2702 45.9319 21.1575 45.9044 21.0453 45.8749C20.933 45.8452 20.8214 45.8136 20.7104 45.7799C20.5993 45.7462 20.4889 45.7105 20.3792 45.6727C20.2695 45.6349 20.1604 45.5952 20.0522 45.5534C19.9439 45.5116 19.8365 45.4679 19.7298 45.4221C19.6232 45.3764 19.5174 45.3287 19.4125 45.2791C19.3075 45.2295 19.2036 45.1779 19.1006 45.1245C18.9976 45.071 18.8956 45.0157 18.7946 44.9585C18.6937 44.9013 18.5938 44.8422 18.495 44.7813C18.3962 44.7204 18.2985 44.6577 18.2021 44.5933C18.1056 44.5288 18.0103 44.4626 17.9163 44.3946C17.8222 44.3266 17.7295 44.2569 17.638 44.1855C17.5465 44.1141 17.4564 44.041 17.3676 43.9663C17.2788 43.8915 17.1914 43.8152 17.1054 43.7373C17.0194 43.6593 16.9349 43.5798 16.8519 43.4988C16.7688 43.4178 16.6873 43.3352 16.6072 43.2512C16.5272 43.1671 16.4488 43.0816 16.3719 42.9947C16.2951 42.9077 16.2198 42.8194 16.1462 42.7297C16.0726 42.64 16.0007 42.5489 15.9304 42.4566C15.8601 42.3642 15.7916 42.2706 15.7248 42.1757C15.6579 42.0808 15.5929 41.9847 15.5296 41.8875C15.4663 41.7902 15.4049 41.6918 15.3452 41.5922C15.2856 41.4927 15.2277 41.3921 15.1718 41.2904C15.1158 41.1888 15.0618 41.0861 15.0096 40.9824C14.9574 40.8788 14.9072 40.7742 14.8589 40.6687C14.8105 40.5631 14.7642 40.4568 14.7198 40.3496C14.6753 40.2424 14.6329 40.1344 14.5925 40.0256C14.5521 39.9168 14.5136 39.8073 14.4772 39.6971C14.4408 39.5869 14.4065 39.4761 14.3742 39.3647C14.3418 39.2532 14.3116 39.1412 14.2834 39.0286C14.2552 38.916 14.2291 38.803 14.205 38.6895C14.181 38.5759 14.1591 38.462 14.1392 38.3477C14.1194 38.2333 14.1017 38.1186 14.086 38.0036C14.0704 37.8886 14.0569 37.7734 14.0455 37.6579C14.0342 37.5424 14.0249 37.4268 14.0178 37.311C14.0107 37.1951 14.0057 37.0792 14.0029 36.9632C14 36.8471 13.9993 36.7311 14.0007 36.6151C14.0021 36.499 14.0057 36.3831 14.0114 36.2672C14.0171 36.1512 14.0249 36.0355 14.0348 35.9199C14.0448 35.8043 14.0569 35.6889 14.0711 35.5737C14.0853 35.4585 14.1016 35.3436 14.12 35.229C14.1385 35.1145 14.159 35.0002 14.1816 34.8865C14.2043 34.7726 14.229 34.6592 14.2558 34.5464C14.2826 34.4334 14.3115 34.3211 14.3424 34.2092C14.3734 34.0974 14.4064 33.9861 14.4414 33.8755C14.4764 33.7648 14.5135 33.6549 14.5526 33.5456C14.5917 33.4364 14.6328 33.3278 14.6759 33.2201C14.719 33.1123 14.764 33.0054 14.811 32.8993C14.858 32.7932 14.907 32.688 14.9579 32.5837C15.0088 32.4794 15.0616 32.3761 15.1163 32.2738C15.171 32.1714 15.2275 32.0701 15.286 31.9699C15.3444 31.8696 15.4047 31.7704 15.4667 31.6724C15.5288 31.5743 15.5927 31.4774 15.6583 31.3818C15.724 31.286 15.7913 31.1916 15.8605 31.0984C15.9296 31.0052 16.0004 30.9132 16.0729 30.8226C16.1454 30.732 16.2196 30.6427 16.2954 30.5549C16.3711 30.467 16.4485 30.3805 16.5275 30.2955C16.6065 30.2105 16.687 30.127 16.769 30.0449L21.2649 25.5475C21.2786 25.5338 21.2926 25.5204 21.307 25.5074C21.3213 25.4944 21.336 25.4818 21.3509 25.4695C21.3659 25.4572 21.3811 25.4453 21.3967 25.4338C21.4122 25.4223 21.428 25.4111 21.4441 25.4004C21.4602 25.3896 21.4765 25.3792 21.4931 25.3693C21.5097 25.3593 21.5265 25.3498 21.5436 25.3407C21.5607 25.3315 21.578 25.3228 21.5955 25.3145C21.613 25.3063 21.6306 25.2984 21.6485 25.291C21.6664 25.2836 21.6845 25.2766 21.7027 25.2701C21.7209 25.2636 21.7393 25.2575 21.7578 25.2519C21.7763 25.2462 21.7949 25.2411 21.8137 25.2364C21.8325 25.2317 21.8514 25.2274 21.8703 25.2236C21.8893 25.2198 21.9084 25.2165 21.9275 25.2137C21.9467 25.2108 21.9659 25.2085 21.9851 25.2066C22.0044 25.2046 22.0237 25.2032 22.043 25.2023C22.0624 25.2013 22.0817 25.2008 22.101 25.2008C22.1204 25.2008 22.1397 25.2013 22.1591 25.2022C22.1784 25.2032 22.1977 25.2046 22.2169 25.2065C22.2362 25.2084 22.2554 25.2107 22.2746 25.2136C22.2937 25.2164 22.3128 25.2197 22.3318 25.2235C22.3507 25.2273 22.3697 25.2315 22.3884 25.2362C22.4072 25.2408 22.4258 25.246 22.4443 25.2516C22.4629 25.2572 22.4812 25.2633 22.4995 25.2698C22.5177 25.2763 22.5358 25.2833 22.5536 25.2907C22.5715 25.2981 22.5892 25.3059 22.6067 25.3142C22.6242 25.3225 22.6415 25.3312 22.6586 25.3403C22.6756 25.3494 22.6925 25.3589 22.7091 25.3689C22.7257 25.3788 22.742 25.3892 22.7581 25.3999C22.7742 25.4107 22.7901 25.4218 22.8056 25.4333C22.8212 25.4449 22.8364 25.4568 22.8513 25.469C22.8663 25.4813 22.881 25.4939 22.8953 25.5069C22.9097 25.5199 22.9237 25.5332 22.9374 25.5469C22.9511 25.5606 22.9644 25.5746 22.9774 25.589C22.9904 25.6033 23.0031 25.6179 23.0154 25.6329C23.0276 25.6478 23.0395 25.6631 23.0511 25.6787C23.0626 25.6942 23.0738 25.71 23.0845 25.7261C23.0953 25.7422 23.1056 25.7585 23.1156 25.7751C23.1255 25.7917 23.1351 25.8085 23.1442 25.8256C23.1534 25.8427 23.162 25.86 23.1703 25.8775C23.1786 25.8949 23.1865 25.9126 23.1938 25.9305C23.2013 25.9484 23.2083 25.9664 23.2148 25.9847C23.2213 26.0029 23.2274 26.0212 23.233 26.0398C23.2386 26.0583 23.2438 26.0769 23.2485 26.0957C23.2532 26.1145 23.2575 26.1333 23.2612 26.1523C23.265 26.1713 23.2684 26.1904 23.2712 26.2095C23.274 26.2286 23.2764 26.2479 23.2783 26.2671C23.2802 26.2864 23.2816 26.3057 23.2826 26.325C23.2835 26.3443 23.284 26.3637 23.284 26.383C23.2841 26.4024 23.2836 26.4217 23.2826 26.4411C23.2817 26.4604 23.2803 26.4797 23.2784 26.4989C23.2765 26.5182 23.2741 26.5374 23.2713 26.5566C23.2685 26.5757 23.2651 26.5948 23.2614 26.6137C23.2576 26.6327 23.2534 26.6516 23.2487 26.6704C23.244 26.6892 23.2388 26.7078 23.2332 26.7263C23.2276 26.7448 23.2215 26.7632 23.215 26.7814C23.2085 26.7997 23.2016 26.8177 23.1941 26.8356C23.1868 26.8535 23.1789 26.8712 23.1706 26.8887C23.1624 26.9062 23.1537 26.9235 23.1446 26.9405C23.1355 26.9576 23.1259 26.9745 23.116 26.9911C23.106 27.0077 23.0957 27.024 23.0849 27.0401C23.0742 27.0562 23.063 27.072 23.0515 27.0876C23.04 27.1031 23.0281 27.1184 23.0158 27.1333C23.0036 27.1483 22.9909 27.163 22.9779 27.1773C22.965 27.1917 22.9516 27.2057 22.9379 27.2194L18.4394 31.7164C18.3574 31.7985 18.2773 31.8825 18.1994 31.9685C18.1215 32.0545 18.0457 32.1424 17.972 32.2321C17.8984 32.3218 17.827 32.4133 17.7579 32.5065C17.6887 32.5998 17.6219 32.6946 17.5574 32.7911C17.4929 32.8876 17.4308 32.9857 17.3712 33.0853C17.3115 33.1848 17.2543 33.2858 17.1996 33.3881C17.1448 33.4905 17.0927 33.5941 17.0431 33.6991C16.9934 33.804 16.9464 33.9101 16.902 34.0173C16.8576 34.1245 16.8158 34.2328 16.7767 34.3421C16.7376 34.4514 16.7012 34.5616 16.6675 34.6727C16.6338 34.7837 16.6029 34.8955 16.5747 35.0082C16.5465 35.1208 16.521 35.234 16.4984 35.3478C16.4757 35.4616 16.4559 35.576 16.4389 35.6908C16.4219 35.8056 16.4077 35.9208 16.3963 36.0363C16.3849 36.1518 16.3764 36.2675 16.3706 36.3835C16.365 36.4994 16.3621 36.6154 16.3621 36.7315C16.3621 36.8475 16.365 36.9635 16.3706 37.0795C16.3764 37.1954 16.3849 37.3111 16.3963 37.4266C16.4077 37.5422 16.4219 37.6573 16.4389 37.7721C16.4559 37.8869 16.4757 38.0013 16.4984 38.1152C16.521 38.229 16.5465 38.3422 16.5747 38.4548C16.6029 38.5674 16.6338 38.6792 16.6675 38.7903C16.7012 38.9013 16.7376 39.0115 16.7767 39.1208C16.8158 39.2301 16.8576 39.3384 16.902 39.4456C16.9464 39.5528 16.9934 39.6589 17.0431 39.7639C17.0927 39.8688 17.1448 39.9724 17.1996 40.0748C17.2543 40.1772 17.3115 40.2781 17.3712 40.3777C17.4308 40.4773 17.4929 40.5753 17.5574 40.6718C17.6219 40.7683 17.6887 40.8632 17.7578 40.9564C17.827 41.0497 17.8984 41.1411 17.972 41.2309C18.0457 41.3206 18.1215 41.4084 18.1994 41.4945C18.2773 41.5805 18.3574 41.6645 18.4394 41.7466C21.2047 44.5119 25.704 44.5119 28.4696 41.7466L32.9666 37.2481C32.9803 37.2344 32.9943 37.2211 33.0087 37.2081C33.023 37.1951 33.0377 37.1825 33.0526 37.1703C33.0676 37.158 33.0829 37.1461 33.0984 37.1346C33.1139 37.1231 33.1297 37.112 33.1458 37.1012C33.1619 37.0905 33.1782 37.0802 33.1948 37.0703C33.2114 37.0603 33.2282 37.0508 33.2453 37.0417C33.2624 37.0326 33.2797 37.0239 33.2971 37.0157C33.3147 37.0074 33.3323 36.9996 33.3502 36.9922C33.368 36.9848 33.3861 36.9779 33.4043 36.9714C33.4225 36.9649 33.4409 36.9588 33.4594 36.9532C33.4779 36.9476 33.4965 36.9424 33.5153 36.9378C33.534 36.9331 33.5529 36.9288 33.5719 36.9251C33.5909 36.9213 33.6099 36.918 33.629 36.9152C33.6481 36.9123 33.6674 36.91 33.6866 36.9081C33.7058 36.9062 33.7251 36.9048 33.7444 36.9039C33.7638 36.9029 33.7831 36.9024 33.8024 36.9025C33.8218 36.9025 33.8411 36.903 33.8604 36.9039C33.8797 36.9049 33.899 36.9063 33.9182 36.9082C33.9375 36.9101 33.9567 36.9124 33.9758 36.9153C33.9949 36.9181 34.014 36.9215 34.0329 36.9252C34.0519 36.929 34.0707 36.9332 34.0895 36.938C34.1083 36.9427 34.1269 36.9478 34.1454 36.9535C34.1639 36.9591 34.1823 36.9651 34.2005 36.9717C34.2187 36.9782 34.2367 36.9851 34.2546 36.9925C34.2725 36.9999 34.2901 37.0078 34.3076 37.0161C34.3251 37.0243 34.3423 37.033 34.3594 37.0421C34.3764 37.0512 34.3933 37.0608 34.4098 37.0707C34.4265 37.0807 34.4428 37.091 34.4588 37.1018C34.4749 37.1125 34.4907 37.1236 34.5062 37.1352C34.5218 37.1467 34.5371 37.1586 34.552 37.1708C34.5669 37.1831 34.5816 37.1957 34.5959 37.2087C34.6102 37.2217 34.6242 37.235 34.6379 37.2487C34.6516 37.2624 34.6649 37.2764 34.6779 37.2907C34.6909 37.305 34.7035 37.3197 34.7158 37.3346C34.728 37.3496 34.7399 37.3648 34.7514 37.3804C34.763 37.3959 34.7741 37.4117 34.7848 37.4278C34.7956 37.4438 34.8059 37.4602 34.8159 37.4768C34.8259 37.4934 34.8354 37.5102 34.8445 37.5272C34.8536 37.5443 34.8623 37.5615 34.8705 37.579C34.8788 37.5965 34.8867 37.6142 34.8941 37.632C34.9015 37.6499 34.9084 37.6679 34.9149 37.6861C34.9215 37.7044 34.9275 37.7227 34.9332 37.7412C34.9388 37.7597 34.9439 37.7784 34.9486 37.7971C34.9534 37.8159 34.9576 37.8347 34.9614 37.8537C34.9651 37.8727 34.9685 37.8917 34.9713 37.9109C34.9742 37.9299 34.9765 37.9491 34.9784 37.9684C34.9803 37.9876 34.9817 38.0069 34.9827 38.0262C34.9837 38.0455 34.9841 38.0648 34.9841 38.0842C34.9841 38.1035 34.9837 38.1228 34.9827 38.1422C34.9818 38.1615 34.9804 38.1808 34.9785 38.2001C34.9766 38.2193 34.9743 38.2385 34.9714 38.2576C34.9686 38.2767 34.9653 38.2958 34.9615 38.3147C34.9578 38.3337 34.9535 38.3526 34.9489 38.3713C34.9442 38.3901 34.939 38.4087 34.9334 38.4272C34.9278 38.4457 34.9217 38.4641 34.9152 38.4823C34.9087 38.5005 34.9018 38.5186 34.8944 38.5365C34.887 38.5543 34.8792 38.572 34.871 38.5895C34.8627 38.6069 34.854 38.6242 34.8449 38.6413C34.8358 38.6584 34.8263 38.6752 34.8164 38.6918C34.8064 38.7084 34.7961 38.7247 34.7854 38.7408C34.7747 38.7569 34.7635 38.7727 34.752 38.7882C34.7405 38.8038 34.7286 38.819 34.7163 38.834C34.7041 38.8489 34.6915 38.8636 34.6785 38.8779C34.6655 38.8923 34.6522 38.9063 34.6385 38.92L30.1411 43.417C30.0866 43.4719 30.0314 43.5261 29.9754 43.5796C29.9195 43.6331 29.8629 43.6859 29.8057 43.738C29.7485 43.7901 29.6907 43.8415 29.6322 43.8923C29.5737 43.9429 29.5146 43.9929 29.4549 44.0421C29.3952 44.0913 29.3349 44.1398 29.2739 44.1875C29.213 44.2353 29.1515 44.2822 29.0894 44.3285C29.0274 44.3747 28.9647 44.4201 28.9015 44.4648C28.8383 44.5095 28.7746 44.5534 28.7102 44.5964C28.646 44.6395 28.5812 44.6818 28.5158 44.7233C28.4505 44.7648 28.3847 44.8055 28.3183 44.8454C28.252 44.8852 28.1852 44.9242 28.1179 44.9625C28.0506 45.0007 27.9828 45.038 27.9146 45.0746C27.8464 45.1111 27.7777 45.1468 27.7086 45.1817C27.6395 45.2165 27.57 45.2505 27.5 45.2836C27.4301 45.3167 27.3597 45.349 27.289 45.3804C27.2182 45.4118 27.1471 45.4423 27.0756 45.4719C27.0041 45.5015 26.9323 45.5303 26.86 45.5581C26.7878 45.586 26.7153 45.6129 26.6424 45.639C26.5696 45.665 26.4964 45.6902 26.4228 45.7144C26.3494 45.7387 26.2756 45.762 26.2015 45.7844C26.1274 45.8068 26.0531 45.8283 25.9785 45.8489C25.9039 45.8695 25.829 45.8892 25.7539 45.9079C25.6789 45.9267 25.6036 45.9445 25.528 45.9614C25.4525 45.9782 25.3768 45.9942 25.3008 46.0092C25.2249 46.0242 25.1488 46.0382 25.0725 46.0514C24.9963 46.0645 24.9198 46.0767 24.8433 46.0879C24.7667 46.0992 24.69 46.1094 24.6131 46.1188C24.5363 46.1281 24.4594 46.1365 24.3824 46.144C24.3053 46.1514 24.2282 46.1579 24.151 46.1634C24.0738 46.1689 23.9966 46.1735 23.9193 46.1772C23.842 46.1808 23.7646 46.1835 23.6872 46.1852C23.6099 46.1869 23.5325 46.1876 23.4551 46.1875ZM38.1814 34.8884C38.1669 34.8884 38.1524 34.8881 38.1379 34.8876C38.1234 34.8871 38.1089 34.8863 38.0944 34.8852C38.08 34.8842 38.0655 34.8828 38.0511 34.8813C38.0367 34.8797 38.0223 34.8778 38.0079 34.8757C37.9936 34.8736 37.9792 34.8712 37.965 34.8686C37.9507 34.8659 37.9365 34.863 37.9223 34.8599C37.9082 34.8567 37.8941 34.8533 37.88 34.8496C37.866 34.8459 37.852 34.8419 37.8382 34.8377C37.8243 34.8335 37.8105 34.8291 37.7967 34.8244C37.783 34.8196 37.7694 34.8147 37.7559 34.8095C37.7423 34.8042 37.7289 34.7988 37.7155 34.7931C37.7022 34.7874 37.689 34.7814 37.6758 34.7752C37.6627 34.769 37.6497 34.7626 37.6368 34.756C37.6239 34.7493 37.6112 34.7424 37.5985 34.7352C37.5859 34.7281 37.5734 34.7207 37.561 34.7131C37.5487 34.7055 37.5365 34.6977 37.5244 34.6896C37.5124 34.6816 37.5004 34.6733 37.4886 34.6648C37.4769 34.6563 37.4653 34.6476 37.4538 34.6387C37.4424 34.6297 37.4311 34.6206 37.42 34.6113C37.4089 34.602 37.398 34.5924 37.3872 34.5827C37.3764 34.5729 37.3659 34.563 37.3555 34.5529C37.3451 34.5427 37.3349 34.5324 37.3249 34.5219C37.3149 34.5114 37.305 34.5007 37.2954 34.4899C37.2858 34.479 37.2764 34.468 37.2672 34.4568C37.258 34.4456 37.249 34.4342 37.2402 34.4226C37.2314 34.4111 37.2228 34.3994 37.2144 34.3876C37.2061 34.3757 37.198 34.3637 37.19 34.3515C37.1821 34.3394 37.1744 34.327 37.1669 34.3146C37.1595 34.3022 37.1522 34.2896 37.1452 34.2769C37.1382 34.2642 37.1315 34.2513 37.1249 34.2384C37.1184 34.2254 37.1121 34.2124 37.1061 34.1992C37.1 34.186 37.0942 34.1727 37.0887 34.1593C37.0831 34.1459 37.0778 34.1324 37.0727 34.1188C37.0676 34.1052 37.0628 34.0915 37.0583 34.0777C37.0537 34.0639 37.0494 34.0501 37.0454 34.0362C37.0413 34.0222 37.0375 34.0082 37.034 33.9942C37.0304 33.98 37.0272 33.9659 37.0242 33.9517C37.0212 33.9375 37.0184 33.9233 37.0159 33.909C37.0134 33.8947 37.0112 33.8803 37.0092 33.866C37.0073 33.8516 37.0056 33.8372 37.0041 33.8228C37.0027 33.8083 37.0015 33.7939 37.0007 33.7794C36.9998 33.7649 36.9991 33.7504 36.9988 33.7359C36.9984 33.7214 36.9983 33.7069 36.9985 33.6924C36.9987 33.6778 36.9991 33.6634 36.9998 33.6489C37.0005 33.6344 37.0015 33.6199 37.0027 33.6054C37.004 33.591 37.0055 33.5765 37.0072 33.5621C37.009 33.5477 37.011 33.5334 37.0133 33.5191C37.0156 33.5047 37.0182 33.4904 37.021 33.4762C37.0239 33.462 37.0269 33.4478 37.0303 33.4337C37.0336 33.4196 37.0372 33.4055 37.0411 33.3915C37.045 33.3775 37.0491 33.3636 37.0535 33.3498C37.0578 33.336 37.0625 33.3222 37.0673 33.3086C37.0722 33.2949 37.0774 33.2813 37.0827 33.2678C37.0881 33.2544 37.0938 33.241 37.0996 33.2277C37.1055 33.2144 37.1116 33.2013 37.118 33.1883C37.1243 33.1752 37.131 33.1623 37.1377 33.1495C37.1446 33.1367 37.1517 33.124 37.159 33.1115C37.1663 33.0989 37.1738 33.0865 37.1816 33.0743C37.1893 33.062 37.1973 33.0499 37.2055 33.0379C37.2137 33.026 37.2221 33.0141 37.2308 33.0025C37.2394 32.9908 37.2483 32.9793 37.2573 32.968C37.2664 32.9567 37.2757 32.9455 37.2851 32.9345C37.2946 32.9235 37.3043 32.9127 37.3142 32.9021C37.324 32.8915 37.3341 32.881 37.3443 32.8707L41.8428 28.3734C41.9257 28.2914 42.0064 28.2075 42.0851 28.1217C42.1637 28.0358 42.2403 27.948 42.3146 27.8583C42.389 27.7687 42.4611 27.6772 42.5309 27.584C42.6007 27.4908 42.6683 27.3959 42.7334 27.2995C42.7986 27.2029 42.8613 27.1048 42.9217 27.0052C42.982 26.9056 43.0399 26.8045 43.0952 26.702C43.1506 26.5996 43.2034 26.4958 43.2536 26.3907C43.3039 26.2856 43.3515 26.1794 43.3965 26.072C43.4416 25.9645 43.4839 25.856 43.5235 25.7466C43.5632 25.637 43.6002 25.5266 43.6344 25.4153C43.6686 25.3039 43.7001 25.1919 43.7288 25.079C43.7575 24.9661 43.7834 24.8526 43.8065 24.7384C43.8296 24.6243 43.8499 24.5096 43.8674 24.3945C43.8849 24.2793 43.8995 24.1638 43.9112 24.0479C43.923 23.932 43.9319 23.8159 43.9379 23.6996C43.944 23.5833 43.9472 23.4669 43.9475 23.3504C43.9478 23.2339 43.9453 23.1175 43.9399 23.0012C43.9345 22.8848 43.9262 22.7687 43.915 22.6528C43.9039 22.5368 43.8899 22.4212 43.8731 22.306C43.8562 22.1907 43.8366 22.0759 43.8141 21.9617C43.7916 21.8474 43.7663 21.7337 43.7382 21.6207C43.7101 21.5077 43.6793 21.3954 43.6457 21.2839C43.6121 21.1723 43.5757 21.0617 43.5366 20.952C43.4976 20.8423 43.4558 20.7336 43.4114 20.6259C43.367 20.5182 43.3199 20.4117 43.2703 20.3064C43.2206 20.201 43.1684 20.097 43.1135 19.9942C43.0587 19.8914 43.0015 19.7901 42.9417 19.6901C42.8819 19.5901 42.8196 19.4917 42.755 19.3948C42.6904 19.2979 42.6234 19.2027 42.554 19.1091C42.4847 19.0155 42.4131 18.9237 42.3392 18.8336C42.2654 18.7436 42.1894 18.6554 42.1112 18.5691C42.033 18.4828 41.9527 18.3984 41.8703 18.3161C41.788 18.2337 41.7036 18.1534 41.6173 18.0752C41.531 17.997 41.4428 17.921 41.3528 17.8471C41.2627 17.7732 41.1709 17.7016 41.0773 17.6323C40.9837 17.563 40.8885 17.496 40.7916 17.4313C40.6947 17.3667 40.5963 17.3045 40.4963 17.2447C40.3964 17.1849 40.295 17.1276 40.1922 17.0728C40.0895 17.018 39.9854 16.9657 39.88 16.9161C39.7747 16.8664 39.6682 16.8193 39.5605 16.7749C39.4529 16.7305 39.3442 16.6887 39.2344 16.6497C39.1247 16.6106 39.0141 16.5742 38.9026 16.5406C38.7911 16.507 38.6788 16.4761 38.5658 16.448C38.4527 16.4199 38.3391 16.3946 38.2248 16.3721C38.1105 16.3496 37.9957 16.33 37.8805 16.3131C37.7652 16.2963 37.6497 16.2823 37.5337 16.2712C37.4178 16.26 37.3016 16.2518 37.1852 16.2463C37.0689 16.2409 36.9525 16.2383 36.836 16.2387C36.7196 16.239 36.6032 16.2422 36.4868 16.2482C36.3706 16.2543 36.2544 16.2632 36.1386 16.2749C36.0227 16.2867 35.9072 16.3013 35.792 16.3188C35.6769 16.3362 35.5622 16.3565 35.448 16.3796C35.3339 16.4027 35.2204 16.4286 35.1075 16.4573C34.9946 16.486 34.8825 16.5175 34.7711 16.5517C34.6598 16.586 34.5494 16.6229 34.4399 16.6625C34.3304 16.7022 34.2219 16.7446 34.1145 16.7896C34.0071 16.8346 33.9008 16.8822 33.7957 16.9324C33.6907 16.9827 33.5869 17.0355 33.4844 17.0908C33.3819 17.1462 33.2809 17.204 33.1812 17.2644C33.0816 17.3247 32.9835 17.3874 32.887 17.4526C32.7904 17.5178 32.6956 17.5853 32.6023 17.6551C32.5091 17.725 32.4177 17.7971 32.3281 17.8714C32.2384 17.9458 32.1507 18.0223 32.0647 18.101C31.9788 18.1796 31.895 18.2603 31.813 18.3432L27.3153 22.8417C27.3016 22.8553 27.2876 22.8687 27.2732 22.8817C27.2589 22.8946 27.2443 22.9073 27.2293 22.9196C27.2144 22.9318 27.1991 22.9437 27.1836 22.9553C27.1681 22.9668 27.1522 22.9779 27.1361 22.9886C27.12 22.9994 27.1037 23.0097 27.0871 23.0197C27.0705 23.0296 27.0537 23.0391 27.0366 23.0483C27.0196 23.0574 27.0023 23.0661 26.9848 23.0743C26.9673 23.0826 26.9496 23.0905 26.9318 23.0979C26.9139 23.1053 26.8959 23.1122 26.8776 23.1187C26.8594 23.1252 26.8411 23.1313 26.8225 23.1369C26.804 23.1425 26.7854 23.1477 26.7666 23.1524C26.7478 23.1571 26.729 23.1613 26.71 23.1651C26.691 23.1689 26.672 23.1722 26.6528 23.175C26.6337 23.1778 26.6145 23.1802 26.5952 23.1821C26.576 23.184 26.5567 23.1854 26.5374 23.1864C26.5181 23.1873 26.4988 23.1878 26.4794 23.1878C26.46 23.1878 26.4407 23.1873 26.4214 23.1863C26.4021 23.1854 26.3828 23.184 26.3635 23.1821C26.3443 23.1802 26.3251 23.1778 26.3059 23.175C26.2868 23.1721 26.2678 23.1688 26.2488 23.1651C26.2298 23.1613 26.2109 23.157 26.1922 23.1523C26.1734 23.1476 26.1548 23.1425 26.1363 23.1368C26.1178 23.1312 26.0994 23.1251 26.0812 23.1186C26.063 23.1121 26.0449 23.1052 26.027 23.0978C26.0092 23.0903 25.9915 23.0825 25.974 23.0742C25.9565 23.066 25.9392 23.0572 25.9222 23.0482C25.9051 23.039 25.8883 23.0295 25.8717 23.0196C25.8551 23.0096 25.8388 22.9992 25.8227 22.9885C25.8066 22.9777 25.7908 22.9666 25.7753 22.9551C25.7597 22.9436 25.7445 22.9316 25.7295 22.9194C25.7146 22.9071 25.6999 22.8945 25.6856 22.8815C25.6712 22.8685 25.6572 22.8551 25.6436 22.8415C25.6299 22.8278 25.6166 22.8138 25.6036 22.7994C25.5906 22.7851 25.578 22.7704 25.5657 22.7555C25.5534 22.7406 25.5415 22.7253 25.53 22.7098C25.5185 22.6942 25.5073 22.6784 25.4966 22.6623C25.4859 22.6462 25.4755 22.6299 25.4656 22.6133C25.4556 22.5967 25.4461 22.5799 25.437 22.5628C25.4279 22.5458 25.4192 22.5285 25.4109 22.511C25.4026 22.4935 25.3948 22.4758 25.3874 22.458C25.38 22.4401 25.373 22.422 25.3665 22.4038C25.36 22.3856 25.3539 22.3672 25.3483 22.3487C25.3427 22.3302 25.3376 22.3116 25.3328 22.2928C25.3281 22.274 25.3239 22.2552 25.3201 22.2362C25.3164 22.2172 25.3131 22.1982 25.3102 22.179C25.3074 22.1599 25.305 22.1407 25.3031 22.1215C25.3012 22.1022 25.2998 22.0829 25.2988 22.0636C25.2979 22.0442 25.2974 22.0249 25.2974 22.0056C25.2974 21.9862 25.2979 21.9669 25.2989 21.9476C25.2998 21.9283 25.3012 21.909 25.3031 21.8897C25.305 21.8704 25.3074 21.8513 25.3103 21.8321C25.3131 21.813 25.3164 21.7939 25.3202 21.775C25.324 21.756 25.3282 21.7371 25.3329 21.7184C25.3376 21.6996 25.3428 21.6809 25.3484 21.6625C25.354 21.6439 25.3601 21.6256 25.3666 21.6074C25.3731 21.5892 25.3801 21.5711 25.3875 21.5532C25.3949 21.5354 25.4027 21.5177 25.411 21.5002C25.4193 21.4827 25.428 21.4654 25.4371 21.4484C25.4462 21.4313 25.4557 21.4145 25.4657 21.3979C25.4756 21.3813 25.486 21.365 25.4967 21.3489C25.5075 21.3328 25.5186 21.317 25.5301 21.3015C25.5416 21.2859 25.5536 21.2707 25.5658 21.2557C25.5781 21.2407 25.5907 21.2261 25.6037 21.2118C25.6167 21.1974 25.6301 21.1834 25.6437 21.1698L30.1411 16.6727C30.2511 16.5659 30.3637 16.4618 30.4787 16.3605C30.5938 16.2592 30.7112 16.1607 30.831 16.065C30.9509 15.9694 31.073 15.8767 31.1973 15.787C31.3217 15.6973 31.4481 15.6107 31.5767 15.5272C31.7053 15.4436 31.8358 15.3632 31.9682 15.2861C32.1007 15.2089 32.235 15.1349 32.371 15.0643C32.5071 14.9936 32.6448 14.9263 32.7842 14.8623C32.9235 14.7984 33.0643 14.7378 33.2066 14.6807C33.3489 14.6236 33.4925 14.57 33.6374 14.5198C33.7823 14.4697 33.9283 14.4231 34.0755 14.3801C34.2226 14.337 34.3708 14.2976 34.5198 14.2618C34.6689 14.226 34.8188 14.1938 34.9694 14.1652C35.12 14.1367 35.2713 14.1118 35.4231 14.0907C35.575 14.0695 35.7273 14.052 35.88 14.0382C36.0327 14.0245 36.1856 14.0144 36.3388 14.0081C36.492 14.0017 36.6453 13.9991 36.7986 14.0003C36.9519 14.0014 37.1051 14.0062 37.2582 14.0148C37.4112 14.0234 37.564 14.0357 37.7165 14.0517C37.869 14.0677 38.021 14.0874 38.1725 14.1108C38.3241 14.1342 38.475 14.1612 38.6252 14.192C38.7754 14.2227 38.9248 14.2571 39.0733 14.2951C39.2218 14.3331 39.3694 14.3746 39.5159 14.4198C39.6624 14.465 39.8077 14.5137 39.9518 14.566C40.096 14.6182 40.2388 14.6739 40.3802 14.7331C40.5217 14.7923 40.6616 14.8549 40.8 14.9209C40.9384 14.9869 41.0751 15.0562 41.2101 15.1289C41.3451 15.2015 41.4783 15.2774 41.6096 15.3565C41.741 15.4356 41.8703 15.5179 41.9976 15.6033C42.125 15.6887 42.2501 15.7772 42.3731 15.8687C42.4962 15.9602 42.6169 16.0546 42.7353 16.152C42.8537 16.2494 42.9697 16.3496 43.0833 16.4526C43.1969 16.5556 43.3079 16.6613 43.4163 16.7697C43.5247 16.8782 43.6304 16.9892 43.7334 17.1027C43.8364 17.2163 43.9366 17.3323 44.034 17.4507C44.1314 17.5691 44.2258 17.6898 44.3173 17.8129C44.4088 17.9359 44.4973 18.0611 44.5827 18.1884C44.6681 18.3157 44.7504 18.445 44.8295 18.5764C44.9086 18.7077 44.9845 18.8409 45.0571 18.9759C45.1298 19.1109 45.1991 19.2476 45.2651 19.386C45.3311 19.5244 45.3937 19.6643 45.4529 19.8058C45.5121 19.9472 45.5678 20.09 45.62 20.2342C45.6723 20.3783 45.721 20.5236 45.7662 20.6702C45.8114 20.8167 45.853 20.9642 45.8909 21.1127C45.929 21.2612 45.9633 21.4106 45.994 21.5609C46.0248 21.7111 46.0518 21.862 46.0752 22.0135C46.0987 22.165 46.1183 22.317 46.1343 22.4695C46.1504 22.622 46.1626 22.7748 46.1712 22.9278C46.1798 23.0809 46.1846 23.2341 46.1858 23.3874C46.1869 23.5407 46.1843 23.694 46.1779 23.8472C46.1716 24.0004 46.1616 24.1533 46.1477 24.3061C46.134 24.4587 46.1165 24.611 46.0953 24.7629C46.0742 24.9147 46.0493 25.066 46.0207 25.2166C45.9922 25.3673 45.9601 25.5171 45.9242 25.6662C45.8884 25.8153 45.849 25.9634 45.8059 26.1106C45.7629 26.2577 45.7163 26.4037 45.6662 26.5487C45.6161 26.6935 45.5624 26.8371 45.5053 26.9794C45.4482 27.1217 45.3876 27.2625 45.3237 27.4018C45.2597 27.5412 45.1924 27.6789 45.1217 27.815C45.0511 27.951 44.9771 28.0853 44.8999 28.2178C44.8228 28.3502 44.7424 28.4807 44.6588 28.6093C44.5753 28.7379 44.4887 28.8643 44.399 28.9887C44.3093 29.113 44.2166 29.2351 44.121 29.355C44.0253 29.4748 43.9269 29.5923 43.8255 29.7073C43.7242 29.8223 43.6201 29.9349 43.5133 30.0449L39.0173 34.5423C39.0037 34.5559 38.9897 34.5693 38.9753 34.5823C38.961 34.5953 38.9464 34.608 38.9315 34.6203C38.9165 34.6325 38.9013 34.6445 38.8857 34.656C38.8702 34.6675 38.8544 34.6787 38.8383 34.6895C38.8222 34.7002 38.8059 34.7106 38.7893 34.7205C38.7727 34.7305 38.7559 34.74 38.7388 34.7491C38.7218 34.7582 38.7045 34.767 38.687 34.7752C38.6695 34.7835 38.6518 34.7913 38.6339 34.7988C38.616 34.8062 38.598 34.8131 38.5798 34.8196C38.5615 34.8261 38.5432 34.8322 38.5246 34.8378C38.5061 34.8434 38.4875 34.8486 38.4687 34.8533C38.45 34.8579 38.4311 34.8622 38.4121 34.8659C38.3931 34.8697 38.374 34.873 38.3549 34.8758C38.3358 34.8786 38.3166 34.881 38.2973 34.8828C38.278 34.8847 38.2588 34.8861 38.2394 34.8871C38.2201 34.8879 38.2008 34.8884 38.1814 34.8884Z" fill="url(#linear_fill_136_80)" fill-opacity="1">
</path>
<path d="M25.1262 36.2418C25.1117 36.2418 25.0972 36.2415 25.0827 36.241C25.0682 36.2404 25.0537 36.2396 25.0393 36.2386C25.0248 36.2375 25.0104 36.2362 24.996 36.2346C24.9815 36.233 24.9672 36.2311 24.9528 36.229C24.9385 36.2269 24.9242 36.2244 24.9099 36.2218C24.8956 36.2191 24.8814 36.2162 24.8673 36.213C24.8531 36.2099 24.8391 36.2064 24.825 36.2027C24.811 36.199 24.7971 36.195 24.7832 36.1908C24.7693 36.1866 24.7555 36.1822 24.7418 36.1774C24.728 36.1727 24.7144 36.1677 24.7009 36.1625C24.6874 36.1573 24.6739 36.1519 24.6606 36.1461C24.6473 36.1404 24.6341 36.1345 24.6209 36.1283C24.6078 36.1221 24.5948 36.1156 24.582 36.1089C24.5691 36.1023 24.5563 36.0953 24.5437 36.0882C24.5311 36.0811 24.5186 36.0737 24.5063 36.0661C24.4939 36.0584 24.4817 36.0506 24.4697 36.0425C24.4576 36.0345 24.4457 36.0262 24.4339 36.0177C24.4222 36.0092 24.4106 36.0005 24.3991 35.9916C24.3877 35.9826 24.3765 35.9735 24.3653 35.9642C24.3542 35.9548 24.3433 35.9453 24.3326 35.9355C24.3218 35.9258 24.3113 35.9159 24.3009 35.9057C24.2905 35.8956 24.2803 35.8853 24.2703 35.8748C24.2603 35.8643 24.2505 35.8536 24.2409 35.8428C24.2313 35.8319 24.2219 35.8209 24.2127 35.8096C24.2035 35.7984 24.1945 35.787 24.1857 35.7755C24.1769 35.7639 24.1683 35.7523 24.16 35.7404C24.1516 35.7285 24.1435 35.7165 24.1356 35.7044C24.1277 35.6922 24.12 35.6799 24.1125 35.6675C24.1051 35.655 24.0979 35.6425 24.0909 35.6298C24.0839 35.6171 24.0771 35.6042 24.0706 35.5913C24.0641 35.5783 24.0578 35.5652 24.0517 35.552C24.0457 35.5389 24.0399 35.5256 24.0344 35.5121C24.0288 35.4987 24.0235 35.4853 24.0184 35.4717C24.0134 35.4581 24.0086 35.4444 24.004 35.4306C23.9995 35.4168 23.9952 35.403 23.9911 35.3891C23.9871 35.3751 23.9833 35.3611 23.9798 35.3471C23.9763 35.333 23.973 35.3189 23.97 35.3047C23.967 35.2905 23.9642 35.2762 23.9618 35.262C23.9593 35.2477 23.9571 35.2333 23.9551 35.219C23.9531 35.2046 23.9515 35.1902 23.95 35.1757C23.9486 35.1613 23.9475 35.1469 23.9466 35.1324C23.9457 35.1179 23.9451 35.1034 23.9447 35.0889C23.9443 35.0744 23.9442 35.0599 23.9444 35.0454C23.9446 35.0309 23.945 35.0164 23.9457 35.0019C23.9465 34.9874 23.9474 34.9729 23.9487 34.9585C23.9499 34.9441 23.9514 34.9296 23.9532 34.9152C23.955 34.9008 23.957 34.8865 23.9593 34.8722C23.9616 34.8578 23.9642 34.8436 23.967 34.8294C23.9698 34.8151 23.9729 34.8009 23.9763 34.7868C23.9796 34.7727 23.9832 34.7587 23.9871 34.7447C23.9909 34.7307 23.9951 34.7168 23.9995 34.703C24.0038 34.6891 24.0084 34.6754 24.0133 34.6618C24.0182 34.6481 24.0234 34.6345 24.0288 34.6211C24.0341 34.6076 24.0397 34.5942 24.0456 34.581C24.0515 34.5677 24.0576 34.5546 24.064 34.5415C24.0703 34.5285 24.0769 34.5156 24.0838 34.5028C24.0906 34.49 24.0977 34.4773 24.105 34.4648C24.1123 34.4522 24.1198 34.4398 24.1276 34.4276C24.1353 34.4153 24.1433 34.4032 24.1515 34.3913C24.1597 34.3793 24.1681 34.3675 24.1767 34.3558C24.1854 34.3442 24.1942 34.3327 24.2033 34.3214C24.2124 34.31 24.2216 34.2989 24.2311 34.2879C24.2406 34.2769 24.2502 34.2661 24.2601 34.2555C24.27 34.2449 24.28 34.2344 24.2903 34.2241L34.3205 24.1939C34.3342 24.1806 34.3483 24.1676 34.3627 24.1549C34.3771 24.1422 34.3917 24.1299 34.4067 24.118C34.4217 24.106 34.437 24.0944 34.4525 24.0832C34.468 24.072 34.4839 24.0612 34.4999 24.0508C34.516 24.0403 34.5323 24.0303 34.5489 24.0206C34.5654 24.011 34.5822 24.0017 34.5992 23.9929C34.6162 23.984 34.6335 23.9756 34.6509 23.9677C34.6683 23.9596 34.6859 23.9521 34.7036 23.9449C34.7214 23.9378 34.7394 23.9311 34.7575 23.9248C34.7756 23.9186 34.7938 23.9127 34.8122 23.9074C34.8306 23.902 34.8492 23.897 34.8678 23.8926C34.8865 23.8881 34.9052 23.8841 34.924 23.8805C34.9428 23.8769 34.9617 23.8738 34.9807 23.8712C34.9997 23.8685 35.0188 23.8664 35.0378 23.8646C35.0569 23.8629 35.076 23.8616 35.0952 23.8609C35.1143 23.8601 35.1335 23.8598 35.1526 23.8599C35.1718 23.86 35.191 23.8606 35.2101 23.8617C35.2293 23.8628 35.2483 23.8643 35.2674 23.8663C35.2864 23.8683 35.3055 23.8708 35.3244 23.8737C35.3434 23.8766 35.3622 23.88 35.381 23.8838C35.3998 23.8877 35.4185 23.892 35.437 23.8967C35.4556 23.9015 35.474 23.9067 35.4923 23.9123C35.5106 23.918 35.5288 23.9241 35.5468 23.9306C35.5648 23.9371 35.5827 23.9441 35.6003 23.9515C35.618 23.9589 35.6356 23.9667 35.6528 23.975C35.6701 23.9832 35.6872 23.9919 35.7041 24.001C35.721 24.0101 35.7376 24.0195 35.754 24.0294C35.7705 24.0393 35.7866 24.0496 35.8025 24.0603C35.8185 24.0709 35.8341 24.082 35.8495 24.0934C35.8648 24.1049 35.8799 24.1167 35.8948 24.1289C35.9096 24.141 35.924 24.1535 35.9382 24.1664C35.9524 24.1793 35.9663 24.1925 35.9799 24.2061C35.9934 24.2196 36.0066 24.2335 36.0195 24.2477C36.0324 24.2619 36.0449 24.2764 36.0571 24.2912C36.0693 24.306 36.081 24.3211 36.0925 24.3365C36.1039 24.3518 36.115 24.3675 36.1257 24.3834C36.1364 24.3993 36.1466 24.4155 36.1565 24.4319C36.1664 24.4483 36.1759 24.465 36.185 24.4819C36.194 24.4987 36.2027 24.5158 36.211 24.5331C36.2192 24.5504 36.2271 24.5679 36.2345 24.5856C36.2418 24.6033 36.2488 24.6211 36.2553 24.6391C36.2619 24.6571 36.268 24.6753 36.2736 24.6936C36.2793 24.7119 36.2845 24.7304 36.2892 24.749C36.294 24.7675 36.2982 24.7862 36.3021 24.805C36.3059 24.8237 36.3093 24.8426 36.3122 24.8616C36.3152 24.8805 36.3176 24.8995 36.3196 24.9186C36.3216 24.9376 36.3232 24.9567 36.3242 24.9758C36.3253 24.995 36.3259 25.0141 36.326 25.0333C36.3262 25.0524 36.3259 25.0716 36.3251 25.0908C36.3243 25.1099 36.323 25.129 36.3213 25.1481C36.3196 25.1672 36.3174 25.1862 36.3148 25.2052C36.3121 25.2242 36.309 25.2431 36.3054 25.2619C36.3019 25.2808 36.2978 25.2995 36.2934 25.3181C36.2889 25.3368 36.284 25.3553 36.2786 25.3737C36.2732 25.3921 36.2674 25.4103 36.2611 25.4284C36.2548 25.4466 36.2482 25.4645 36.241 25.4823C36.2339 25.5001 36.2263 25.5177 36.2183 25.5351C36.2103 25.5525 36.2019 25.5697 36.193 25.5867C36.1842 25.6037 36.175 25.6205 36.1653 25.6371C36.1557 25.6536 36.1457 25.6699 36.1352 25.686C36.1248 25.7021 36.1139 25.7179 36.1027 25.7334C36.0915 25.749 36.0799 25.7642 36.068 25.7792C36.056 25.7942 36.0437 25.8089 36.031 25.8233C36.0184 25.8377 36.0054 25.8517 35.992 25.8655L25.9618 35.8957C25.9481 35.9094 25.9341 35.9227 25.9198 35.9357C25.9055 35.9487 25.8909 35.9613 25.8759 35.9736C25.861 35.9859 25.8458 35.9978 25.8303 36.0094C25.8147 36.0209 25.7989 36.0321 25.7829 36.0428C25.7668 36.0536 25.7504 36.0639 25.7338 36.0739C25.7173 36.0838 25.7004 36.0934 25.6834 36.1025C25.6663 36.1116 25.6491 36.1203 25.6316 36.1286C25.6141 36.1369 25.5964 36.1447 25.5785 36.1521C25.5607 36.1595 25.5426 36.1665 25.5244 36.173C25.5062 36.1795 25.4879 36.1856 25.4694 36.1912C25.4508 36.1967 25.4322 36.2019 25.4134 36.2066C25.3947 36.2113 25.3758 36.2155 25.3568 36.2193C25.3378 36.223 25.3188 36.2263 25.2997 36.2292C25.2805 36.232 25.2613 36.2343 25.2421 36.2362C25.2228 36.2381 25.2035 36.2395 25.1842 36.2404C25.1649 36.2413 25.1456 36.2418 25.1262 36.2418Z" fill="#FFFFFF">
</path>
<defs>
<linearGradient id="linear_fill_136_80" x1="14" y1="30.09375" x2="46.185546875" y2="30.09375" gradientUnits="userSpaceOnUse">
<stop offset="0.0002" stop-color="#636BFC"/>
<stop offset="1" stop-color="#59CCFE"/>

                                    </linearGradient>
</defs>
</svg>