<svg xmlns="http://www.w3.org/2000/svg" fill="none" viewBox="0 0 60 60" class="design-iconfont">
  <rect width="60" height="60" rx="6" fill="#E3EDFF"/>
  <path d="M19.2773 32.5545L30.533 21.2988C33.2283 18.6035 35.9236 18.6035 38.6188 21.2988C41.3141 23.994 41.3141 26.6893 38.6188 29.3846L27.3631 40.6403C24.6678 43.3355 21.9726 43.3355 19.2773 40.6403C16.582 37.945 16.582 35.2497 19.2773 32.5545Z" fill="#78C0FF"/>
  <path d="M23.3135 46.1425C23.1975 46.1425 23.0814 46.1403 22.9654 46.1361C22.8495 46.1318 22.7336 46.1254 22.6179 46.1168C22.5022 46.1082 22.3866 46.0975 22.2713 46.0848C22.1559 46.0719 22.0409 46.057 21.9261 46.04C21.8113 46.0229 21.6969 46.0038 21.5828 45.9825C21.4687 45.9613 21.3551 45.9379 21.2418 45.9125C21.1286 45.887 21.0159 45.8595 20.9037 45.8299C20.7914 45.8003 20.6798 45.7687 20.5688 45.735C20.4577 45.7013 20.3473 45.6656 20.2376 45.6278C20.1279 45.59 20.0188 45.5502 19.9106 45.5085C19.8023 45.4667 19.6949 45.4229 19.5882 45.3772C19.4816 45.3315 19.3758 45.2838 19.2709 45.2342C19.1659 45.1845 19.062 45.133 18.959 45.0796C18.856 45.0261 18.754 44.9707 18.653 44.9135C18.5521 44.8563 18.4522 44.7973 18.3534 44.7364C18.2546 44.6755 18.1569 44.6128 18.0605 44.5484C17.964 44.4839 17.8687 44.4176 17.7747 44.3497C17.6806 44.2817 17.5879 44.212 17.4964 44.1406C17.4049 44.0691 17.3148 43.9961 17.226 43.9214C17.1372 43.8466 17.0498 43.7703 16.9638 43.6924C16.8778 43.6144 16.7933 43.5349 16.7103 43.4539C16.6272 43.3728 16.5457 43.2903 16.4656 43.2062C16.3856 43.1222 16.3072 43.0367 16.2303 42.9497C16.1535 42.8628 16.0782 42.7745 16.0046 42.6848C15.931 42.595 15.8591 42.504 15.7888 42.4116C15.7185 42.3193 15.65 42.2256 15.5832 42.1308C15.5163 42.0359 15.4513 41.9398 15.388 41.8425C15.3247 41.7452 15.2633 41.6468 15.2036 41.5473C15.144 41.4478 15.0861 41.3471 15.0302 41.2455C14.9742 41.1438 14.9202 41.0412 14.868 40.9375C14.8158 40.8338 14.7656 40.7293 14.7172 40.6238C14.6689 40.5182 14.6226 40.4119 14.5782 40.3047C14.5337 40.1974 14.4913 40.0894 14.4509 39.9807C14.4105 39.8719 14.372 39.7624 14.3356 39.6522C14.2992 39.542 14.2649 39.4312 14.2326 39.3198C14.2002 39.2083 14.17 39.0963 14.1418 38.9837C14.1136 38.8711 14.0875 38.7581 14.0634 38.6445C14.0394 38.531 14.0175 38.4171 13.9976 38.3027C13.9778 38.1884 13.9601 38.0737 13.9444 37.9587C13.9288 37.8437 13.9153 37.7285 13.9039 37.613C13.8926 37.4975 13.8833 37.3818 13.8762 37.266C13.8691 37.1502 13.8641 37.0342 13.8613 36.9182C13.8584 36.8022 13.8577 36.6862 13.8591 36.5702C13.8605 36.4541 13.8641 36.3381 13.8698 36.2222C13.8755 36.1063 13.8833 35.9906 13.8932 35.875C13.9032 35.7593 13.9153 35.6439 13.9295 35.5288C13.9437 35.4136 13.96 35.2987 13.9784 35.1841C13.9969 35.0695 14.0174 34.9553 14.04 34.8415C14.0627 34.7277 14.0874 34.6143 14.1142 34.5014C14.141 34.3885 14.1699 34.2761 14.2008 34.1643C14.2318 34.0524 14.2648 33.9412 14.2998 33.8306C14.3348 33.7199 14.3719 33.61 14.411 33.5007C14.4501 33.3914 14.4912 33.2829 14.5343 33.1752C14.5773 33.0674 14.6224 32.9605 14.6694 32.8544C14.7164 32.7483 14.7654 32.6431 14.8163 32.5388C14.8672 32.4345 14.92 32.3312 14.9747 32.2288C15.0294 32.1265 15.0859 32.0252 15.1444 31.9249C15.2028 31.8247 15.2631 31.7255 15.3251 31.6274C15.3872 31.5294 15.4511 31.4325 15.5167 31.3368C15.5824 31.2411 15.6497 31.1467 15.7189 31.0535C15.788 30.9602 15.8588 30.8683 15.9313 30.7777C16.0038 30.6871 16.078 30.5978 16.1538 30.51C16.2295 30.4221 16.3069 30.3356 16.3859 30.2506C16.4649 30.1656 16.5454 30.082 16.6274 30L21.1233 25.5026C21.137 25.4889 21.151 25.4755 21.1654 25.4625C21.1797 25.4495 21.1944 25.4368 21.2093 25.4246C21.2243 25.4123 21.2395 25.4004 21.2551 25.3889C21.2706 25.3773 21.2864 25.3662 21.3025 25.3554C21.3186 25.3446 21.3349 25.3343 21.3515 25.3244C21.3681 25.3144 21.3849 25.3049 21.402 25.2957C21.4191 25.2866 21.4364 25.2779 21.4539 25.2696C21.4714 25.2613 21.489 25.2535 21.5069 25.2461C21.5248 25.2387 21.5429 25.2317 21.5611 25.2252C21.5793 25.2186 21.5977 25.2125 21.6162 25.2069C21.6347 25.2013 21.6533 25.1961 21.6721 25.1915C21.6909 25.1867 21.7098 25.1825 21.7287 25.1787C21.7477 25.1749 21.7668 25.1716 21.7859 25.1688C21.8051 25.1659 21.8243 25.1635 21.8435 25.1616C21.8628 25.1597 21.8821 25.1583 21.9014 25.1574C21.9207 25.1564 21.9401 25.1559 21.9594 25.1559C21.9788 25.1559 21.9981 25.1564 22.0175 25.1573C22.0368 25.1582 22.0561 25.1597 22.0753 25.1616C22.0946 25.1635 22.1138 25.1658 22.133 25.1687C22.1521 25.1715 22.1712 25.1748 22.1901 25.1786C22.2091 25.1823 22.2281 25.1865 22.2468 25.1913C22.2656 25.1959 22.2842 25.2011 22.3027 25.2067C22.3213 25.2123 22.3396 25.2184 22.3579 25.2249C22.3761 25.2314 22.3942 25.2384 22.412 25.2458C22.4299 25.2532 22.4476 25.261 22.4651 25.2693C22.4826 25.2776 22.4999 25.2862 22.517 25.2954C22.534 25.3045 22.5509 25.314 22.5675 25.324C22.5841 25.3339 22.6004 25.3442 22.6165 25.355C22.6326 25.3657 22.6485 25.3769 22.664 25.3884C22.6796 25.3999 22.6948 25.4118 22.7097 25.4241C22.7247 25.4364 22.7394 25.449 22.7537 25.462C22.7681 25.475 22.7821 25.4883 22.7958 25.502C22.8095 25.5157 22.8228 25.5297 22.8358 25.544C22.8488 25.5584 22.8615 25.573 22.8738 25.588C22.886 25.6029 22.8979 25.6182 22.9095 25.6337C22.921 25.6492 22.9322 25.6651 22.9429 25.6812C22.9537 25.6972 22.964 25.7136 22.974 25.7302C22.9839 25.7468 22.9935 25.7636 23.0026 25.7807C23.0118 25.7977 23.0204 25.815 23.0287 25.8325C23.037 25.85 23.0449 25.8677 23.0522 25.8856C23.0597 25.9035 23.0667 25.9215 23.0732 25.9397C23.0797 25.958 23.0858 25.9763 23.0914 25.9949C23.097 26.0134 23.1022 26.032 23.1069 26.0508C23.1116 26.0695 23.1159 26.0884 23.1196 26.1074C23.1234 26.1264 23.1268 26.1455 23.1296 26.1646C23.1324 26.1837 23.1348 26.2029 23.1367 26.2222C23.1386 26.2415 23.14 26.2607 23.141 26.2801C23.1419 26.2994 23.1424 26.3187 23.1424 26.3381C23.1425 26.3575 23.142 26.3768 23.141 26.3961C23.1401 26.4154 23.1387 26.4347 23.1368 26.454C23.1349 26.4733 23.1325 26.4925 23.1297 26.5116C23.1269 26.5308 23.1235 26.5498 23.1198 26.5688C23.116 26.5878 23.1118 26.6067 23.1071 26.6255C23.1024 26.6443 23.0972 26.6629 23.0916 26.6814C23.086 26.6999 23.0799 26.7183 23.0734 26.7365C23.0669 26.7547 23.06 26.7728 23.0525 26.7907C23.0452 26.8086 23.0373 26.8263 23.029 26.8438C23.0208 26.8613 23.0121 26.8786 23.003 26.8956C22.9939 26.9127 22.9843 26.9295 22.9744 26.9462C22.9644 26.9627 22.9541 26.9791 22.9433 26.9952C22.9326 27.0113 22.9214 27.0271 22.9099 27.0426C22.8984 27.0582 22.8865 27.0735 22.8742 27.0884C22.862 27.1034 22.8493 27.118 22.8363 27.1324C22.8234 27.1467 22.81 27.1607 22.7963 27.1744L18.2978 31.6715C18.2157 31.7535 18.1357 31.8376 18.0578 31.9236C17.9799 32.0096 17.9041 32.0975 17.8304 32.1872C17.7568 32.2769 17.6854 32.3684 17.6163 32.4616C17.5471 32.5548 17.4803 32.6497 17.4158 32.7462C17.3513 32.8427 17.2892 32.9407 17.2296 33.0403C17.1699 33.1399 17.1127 33.2408 17.058 33.3432C17.0032 33.4456 16.9511 33.5492 16.9015 33.6542C16.8518 33.7591 16.8048 33.8652 16.7604 33.9724C16.716 34.0796 16.6742 34.1879 16.6351 34.2972C16.596 34.4065 16.5596 34.5167 16.5259 34.6277C16.4922 34.7388 16.4613 34.8506 16.4331 34.9633C16.4049 35.0758 16.3794 35.189 16.3568 35.3029C16.3341 35.4167 16.3143 35.5311 16.2973 35.6459C16.2803 35.7607 16.2661 35.8758 16.2547 35.9914C16.2433 36.1069 16.2348 36.2226 16.229 36.3386C16.2234 36.4545 16.2205 36.5705 16.2205 36.6866C16.2205 36.8026 16.2234 36.9186 16.229 37.0346C16.2348 37.1505 16.2433 37.2662 16.2547 37.3817C16.2661 37.4972 16.2803 37.6124 16.2973 37.7272C16.3143 37.842 16.3341 37.9564 16.3568 38.0702C16.3794 38.1841 16.4049 38.2973 16.4331 38.4099C16.4613 38.5225 16.4922 38.6343 16.5259 38.7454C16.5596 38.8564 16.596 38.9666 16.6351 39.0759C16.6742 39.1852 16.716 39.2935 16.7604 39.4007C16.8048 39.5079 16.8518 39.614 16.9015 39.719C16.9511 39.8239 17.0032 39.9275 17.058 40.0299C17.1127 40.1322 17.1699 40.2332 17.2296 40.3328C17.2892 40.4323 17.3513 40.5304 17.4158 40.6269C17.4803 40.7234 17.5471 40.8183 17.6162 40.9115C17.6854 41.0048 17.7568 41.0962 17.8304 41.1859C17.9041 41.2756 17.9799 41.3635 18.0578 41.4495C18.1357 41.5355 18.2157 41.6196 18.2978 41.7017C21.0631 44.4669 25.5624 44.4669 28.328 41.7017L32.825 37.2032C32.8387 37.1895 32.8527 37.1762 32.8671 37.1632C32.8814 37.1502 32.8961 37.1376 32.911 37.1254C32.926 37.1131 32.9413 37.1012 32.9568 37.0897C32.9723 37.0782 32.9881 37.067 33.0042 37.0563C33.0203 37.0456 33.0366 37.0353 33.0532 37.0253C33.0698 37.0154 33.0866 37.0059 33.1037 36.9968C33.1208 36.9877 33.1381 36.979 33.1555 36.9707C33.173 36.9625 33.1907 36.9547 33.2085 36.9473C33.2264 36.9399 33.2445 36.9329 33.2627 36.9264C33.2809 36.9199 33.2993 36.9139 33.3178 36.9083C33.3363 36.9027 33.3549 36.8975 33.3737 36.8928C33.3924 36.8881 33.4113 36.8839 33.4303 36.8802C33.4492 36.8764 33.4683 36.8731 33.4874 36.8703C33.5065 36.8674 33.5257 36.8651 33.545 36.8632C33.5642 36.8613 33.5835 36.8599 33.6028 36.859C33.6222 36.858 33.6415 36.8575 33.6608 36.8576C33.6802 36.8576 33.6995 36.858 33.7188 36.859C33.7381 36.86 33.7574 36.8614 33.7766 36.8633C33.7959 36.8652 33.8151 36.8675 33.8342 36.8704C33.8533 36.8732 33.8724 36.8765 33.8913 36.8803C33.9103 36.8841 33.9291 36.8883 33.9479 36.8931C33.9667 36.8977 33.9853 36.9029 34.0038 36.9085C34.0223 36.9141 34.0406 36.9202 34.0589 36.9267C34.0771 36.9332 34.0951 36.9402 34.113 36.9476C34.1309 36.955 34.1485 36.9629 34.166 36.9711C34.1835 36.9794 34.2007 36.9881 34.2178 36.9972C34.2348 37.0063 34.2517 37.0158 34.2682 37.0258C34.2849 37.0358 34.3012 37.0461 34.3172 37.0568C34.3333 37.0676 34.3491 37.0787 34.3646 37.0902C34.3802 37.1018 34.3955 37.1137 34.4104 37.1259C34.4253 37.1382 34.44 37.1508 34.4543 37.1638C34.4686 37.1768 34.4826 37.1901 34.4963 37.2038C34.51 37.2175 34.5233 37.2315 34.5363 37.2458C34.5493 37.2601 34.5619 37.2747 34.5742 37.2897C34.5864 37.3046 34.5983 37.3199 34.6098 37.3354C34.6214 37.351 34.6325 37.3668 34.6432 37.3829C34.654 37.3989 34.6643 37.4152 34.6743 37.4319C34.6842 37.4484 34.6938 37.4652 34.7029 37.4823C34.712 37.4993 34.7207 37.5166 34.7289 37.5341C34.7372 37.5516 34.7451 37.5692 34.7525 37.5871C34.7599 37.605 34.7668 37.623 34.7733 37.6412C34.7799 37.6594 34.7859 37.6778 34.7916 37.6963C34.7972 37.7148 34.8023 37.7334 34.807 37.7522C34.8118 37.771 34.816 37.7898 34.8198 37.8088C34.8235 37.8277 34.8269 37.8468 34.8297 37.8659C34.8326 37.885 34.8349 37.9042 34.8368 37.9235C34.8387 37.9427 34.8401 37.962 34.8411 37.9813C34.8421 38.0006 34.8425 38.0199 34.8425 38.0393C34.8425 38.0586 34.8421 38.0779 34.8411 38.0973C34.8402 38.1166 34.8388 38.1358 34.8369 38.1551C34.835 38.1743 34.8327 38.1935 34.8298 38.2127C34.827 38.2318 34.8237 38.2508 34.8199 38.2698C34.8162 38.2888 34.8119 38.3077 34.8073 38.3264C34.8026 38.3452 34.7974 38.3638 34.7918 38.3823C34.7862 38.4008 34.7801 38.4192 34.7736 38.4374C34.7671 38.4556 34.7602 38.4737 34.7528 38.4915C34.7454 38.5094 34.7376 38.527 34.7294 38.5445C34.7211 38.562 34.7124 38.5793 34.7033 38.5964C34.6942 38.6134 34.6847 38.6302 34.6748 38.6469C34.6648 38.6635 34.6545 38.6798 34.6438 38.6959C34.633 38.712 34.6219 38.7278 34.6104 38.7433C34.5989 38.7588 34.587 38.7741 34.5747 38.789C34.5625 38.804 34.5499 38.8187 34.5369 38.833C34.5239 38.8473 34.5106 38.8613 34.4969 38.875L29.9995 43.3721C29.945 43.427 29.8898 43.4811 29.8338 43.5347C29.7779 43.5882 29.7213 43.641 29.6641 43.6931C29.6069 43.7452 29.5491 43.7966 29.4906 43.8473C29.4321 43.898 29.373 43.9479 29.3133 43.9972C29.2536 44.0464 29.1933 44.0949 29.1323 44.1426C29.0714 44.1903 29.0099 44.2373 28.9478 44.2835C28.8858 44.3298 28.8231 44.3752 28.7599 44.4199C28.6967 44.4645 28.633 44.5084 28.5686 44.5515C28.5044 44.5946 28.4396 44.6369 28.3742 44.6784C28.3089 44.7199 28.2431 44.7605 28.1767 44.8004C28.1104 44.8403 28.0436 44.8793 27.9763 44.9175C27.909 44.9557 27.8412 44.9931 27.773 45.0297C27.7048 45.0662 27.6361 45.1019 27.567 45.1367C27.4979 45.1716 27.4284 45.2056 27.3584 45.2387C27.2885 45.2718 27.2181 45.304 27.1474 45.3354C27.0766 45.3668 27.0055 45.3973 26.934 45.427C26.8625 45.4566 26.7907 45.4853 26.7184 45.5132C26.6462 45.541 26.5737 45.568 26.5008 45.594C26.428 45.6201 26.3547 45.6452 26.2812 45.6695C26.2078 45.6937 26.134 45.7171 26.0599 45.7395C25.9858 45.7619 25.9115 45.7834 25.8369 45.804C25.7623 45.8246 25.6874 45.8442 25.6123 45.863C25.5373 45.8817 25.462 45.8995 25.3864 45.9165C25.3109 45.9333 25.2352 45.9493 25.1592 45.9643C25.0833 45.9793 25.0072 45.9933 24.9309 46.0065C24.8547 46.0196 24.7782 46.0318 24.7017 46.043C24.6251 46.0542 24.5484 46.0645 24.4715 46.0739C24.3947 46.0832 24.3178 46.0916 24.2408 46.099C24.1637 46.1065 24.0866 46.113 24.0094 46.1185C23.9322 46.124 23.855 46.1286 23.7777 46.1323C23.7004 46.1359 23.623 46.1385 23.5456 46.1402C23.4683 46.1419 23.3909 46.1427 23.3135 46.1425ZM38.0398 34.8435C38.0253 34.8435 38.0108 34.8432 37.9963 34.8427C37.9818 34.8422 37.9673 34.8414 37.9528 34.8403C37.9384 34.8392 37.9239 34.8379 37.9095 34.8364C37.8951 34.8347 37.8807 34.8329 37.8663 34.8308C37.852 34.8287 37.8376 34.8263 37.8234 34.8237C37.8091 34.821 37.7949 34.8181 37.7807 34.8149C37.7666 34.8118 37.7525 34.8083 37.7384 34.8046C37.7244 34.8009 37.7104 34.797 37.6966 34.7928C37.6827 34.7886 37.6689 34.7841 37.6551 34.7794C37.6414 34.7747 37.6278 34.7698 37.6143 34.7646C37.6007 34.7593 37.5873 34.7538 37.5739 34.7482C37.5606 34.7425 37.5474 34.7365 37.5342 34.7303C37.5211 34.7241 37.5081 34.7177 37.4952 34.711C37.4823 34.7043 37.4696 34.6974 37.4569 34.6903C37.4443 34.6831 37.4318 34.6758 37.4194 34.6682C37.4071 34.6606 37.3949 34.6527 37.3828 34.6447C37.3708 34.6366 37.3588 34.6284 37.347 34.6199C37.3353 34.6114 37.3237 34.6027 37.3122 34.5938C37.3008 34.5848 37.2895 34.5757 37.2784 34.5664C37.2673 34.557 37.2564 34.5475 37.2456 34.5378C37.2348 34.528 37.2243 34.5181 37.2139 34.508C37.2035 34.4978 37.1933 34.4875 37.1833 34.477C37.1733 34.4665 37.1634 34.4558 37.1538 34.445C37.1442 34.4341 37.1348 34.4231 37.1256 34.4119C37.1164 34.4006 37.1074 34.3893 37.0986 34.3777C37.0898 34.3662 37.0812 34.3545 37.0728 34.3426C37.0645 34.3307 37.0564 34.3187 37.0484 34.3066C37.0405 34.2944 37.0328 34.2821 37.0253 34.2697C37.0179 34.2572 37.0106 34.2447 37.0036 34.232C36.9966 34.2193 36.9899 34.2064 36.9833 34.1935C36.9768 34.1805 36.9705 34.1674 36.9645 34.1542C36.9584 34.1411 36.9526 34.1278 36.9471 34.1143C36.9415 34.1009 36.9362 34.0875 36.9311 34.0739C36.926 34.0603 36.9212 34.0466 36.9166 34.0328C36.9121 34.019 36.9078 34.0052 36.9038 33.9912C36.8997 33.9773 36.8959 33.9633 36.8924 33.9492C36.8888 33.9351 36.8856 33.921 36.8826 33.9068C36.8796 33.8926 36.8768 33.8783 36.8743 33.8641C36.8718 33.8498 36.8696 33.8354 36.8676 33.8211C36.8657 33.8067 36.864 33.7923 36.8625 33.7778C36.8611 33.7634 36.8599 33.7489 36.8591 33.7345C36.8582 33.72 36.8575 33.7055 36.8572 33.691C36.8568 33.6765 36.8567 33.6619 36.8569 33.6474C36.8571 33.6329 36.8575 33.6184 36.8582 33.604C36.8589 33.5894 36.8599 33.575 36.8611 33.5605C36.8624 33.546 36.8639 33.5316 36.8656 33.5172C36.8674 33.5028 36.8694 33.4884 36.8717 33.4742C36.874 33.4598 36.8766 33.4455 36.8794 33.4313C36.8823 33.417 36.8853 33.4029 36.8886 33.3888C36.892 33.3746 36.8956 33.3606 36.8995 33.3466C36.9034 33.3326 36.9075 33.3187 36.9118 33.3049C36.9162 33.291 36.9209 33.2773 36.9257 33.2636C36.9306 33.25 36.9357 33.2364 36.9411 33.2229C36.9465 33.2094 36.9521 33.1961 36.958 33.1828C36.9639 33.1695 36.97 33.1564 36.9764 33.1434C36.9827 33.1303 36.9893 33.1174 36.9961 33.1046C37.003 33.0918 37.0101 33.0791 37.0174 33.0666C37.0247 33.054 37.0322 33.0416 37.04 33.0294C37.0477 33.0171 37.0557 33.005 37.0639 32.993C37.0721 32.981 37.0805 32.9692 37.0892 32.9576C37.0978 32.9459 37.1067 32.9344 37.1157 32.9231C37.1248 32.9117 37.1341 32.9006 37.1435 32.8896C37.153 32.8786 37.1627 32.8678 37.1726 32.8572C37.1824 32.8465 37.1925 32.8361 37.2027 32.8258L41.7012 28.3284C41.7841 28.2465 41.8648 28.1626 41.9435 28.0767C42.0221 27.9908 42.0987 27.9031 42.173 27.8134C42.2474 27.7237 42.3195 27.6323 42.3893 27.5391C42.4591 27.4459 42.5267 27.351 42.5918 27.2545C42.657 27.158 42.7197 27.0599 42.7801 26.9603C42.8404 26.8606 42.8983 26.7596 42.9536 26.6571C43.009 26.5546 43.0618 26.4508 43.112 26.3458C43.1623 26.2407 43.2099 26.1344 43.2549 26.027C43.2999 25.9196 43.3423 25.8111 43.3819 25.7016C43.4216 25.5921 43.4586 25.4817 43.4928 25.3704C43.527 25.259 43.5585 25.1469 43.5872 25.0341C43.6159 24.9212 43.6418 24.8077 43.6649 24.6935C43.688 24.5793 43.7083 24.4647 43.7258 24.3495C43.7433 24.2344 43.7579 24.1188 43.7696 24.003C43.7814 23.8871 43.7903 23.771 43.7963 23.6547C43.8024 23.5383 43.8056 23.4219 43.8059 23.3055C43.8062 23.189 43.8037 23.0726 43.7983 22.9563C43.7929 22.8399 43.7846 22.7237 43.7734 22.6078C43.7623 22.4919 43.7483 22.3763 43.7315 22.261C43.7146 22.1458 43.695 22.031 43.6725 21.9168C43.65 21.8025 43.6247 21.6888 43.5966 21.5758C43.5685 21.4627 43.5377 21.3504 43.5041 21.239C43.4705 21.1274 43.4341 21.0168 43.395 20.9071C43.3559 20.7974 43.3142 20.6886 43.2698 20.581C43.2254 20.4733 43.1783 20.3668 43.1287 20.2615C43.079 20.1561 43.0267 20.0521 42.9719 19.9493C42.9171 19.8465 42.8599 19.7451 42.8 19.6452C42.7403 19.5452 42.678 19.4468 42.6134 19.3499C42.5488 19.253 42.4818 19.1578 42.4124 19.0642C42.3431 18.9706 42.2715 18.8788 42.1976 18.7887C42.1238 18.6987 42.0478 18.6105 41.9696 18.5242C41.8914 18.4378 41.8111 18.3535 41.7287 18.2711C41.6464 18.1888 41.562 18.1085 41.4757 18.0303C41.3894 17.9521 41.3012 17.8761 41.2112 17.8022C41.1211 17.7283 41.0293 17.6567 40.9357 17.5874C40.8421 17.518 40.7469 17.4511 40.65 17.3864C40.5531 17.3218 40.4547 17.2595 40.3547 17.1998C40.2548 17.1399 40.1534 17.0826 40.0506 17.0278C39.9479 16.973 39.8438 16.9208 39.7384 16.8711C39.6331 16.8214 39.5266 16.7744 39.4189 16.73C39.3113 16.6855 39.2026 16.6438 39.0928 16.6047C38.9831 16.5657 38.8725 16.5293 38.761 16.4957C38.6495 16.462 38.5372 16.4312 38.4242 16.4031C38.3111 16.375 38.1975 16.3497 38.0832 16.3272C37.9689 16.3047 37.8541 16.2851 37.7389 16.2682C37.6236 16.2514 37.5081 16.2374 37.3921 16.2262C37.2762 16.2151 37.16 16.2068 37.0436 16.2014C36.9273 16.196 36.8109 16.1934 36.6944 16.1937C36.578 16.1941 36.4616 16.1972 36.3452 16.2033C36.229 16.2093 36.1128 16.2182 35.997 16.23C35.8811 16.2418 35.7656 16.2564 35.6504 16.2739C35.5353 16.2913 35.4206 16.3116 35.3064 16.3347C35.1923 16.3578 35.0788 16.3837 34.9659 16.4124C34.853 16.4411 34.7409 16.4726 34.6295 16.5068C34.5182 16.541 34.4078 16.578 34.2983 16.6176C34.1888 16.6573 34.0803 16.6996 33.9729 16.7447C33.8655 16.7897 33.7592 16.8373 33.6541 16.8875C33.5491 16.9378 33.4453 16.9906 33.3428 17.0459C33.2403 17.1013 33.1393 17.1591 33.0396 17.2194C32.94 17.2798 32.8419 17.3425 32.7454 17.4077C32.6488 17.4729 32.554 17.5404 32.4607 17.6102C32.3675 17.6801 32.2761 17.7522 32.1865 17.8265C32.0968 17.9008 32.009 17.9774 31.9231 18.056C31.8372 18.1347 31.7534 18.2154 31.6714 18.2982L27.1737 22.7967C27.16 22.8104 27.146 22.8237 27.1316 22.8367C27.1173 22.8497 27.1027 22.8623 27.0877 22.8746C27.0728 22.8869 27.0575 22.8988 27.042 22.9103C27.0265 22.9219 27.0106 22.933 26.9945 22.9437C26.9784 22.9544 26.9621 22.9648 26.9455 22.9748C26.9289 22.9847 26.9121 22.9942 26.895 23.0033C26.878 23.0125 26.8607 23.0211 26.8432 23.0294C26.8257 23.0377 26.808 23.0455 26.7902 23.053C26.7723 23.0603 26.7542 23.0673 26.736 23.0738C26.7178 23.0803 26.6995 23.0864 26.6809 23.092C26.6624 23.0976 26.6438 23.1027 26.625 23.1075C26.6062 23.1122 26.5874 23.1164 26.5684 23.1202C26.5494 23.124 26.5304 23.1272 26.5112 23.1301C26.4921 23.1329 26.4729 23.1353 26.4536 23.1372C26.4344 23.1391 26.4151 23.1405 26.3958 23.1415C26.3765 23.1424 26.3572 23.1429 26.3378 23.1429C26.3184 23.1429 26.2991 23.1424 26.2798 23.1414C26.2605 23.1405 26.2412 23.1391 26.2219 23.1372C26.2027 23.1353 26.1835 23.1329 26.1643 23.13C26.1452 23.1272 26.1262 23.1239 26.1072 23.1201C26.0882 23.1163 26.0693 23.1121 26.0506 23.1074C26.0318 23.1027 26.0132 23.0975 25.9947 23.0919C25.9762 23.0863 25.9578 23.0802 25.9395 23.0737C25.9214 23.0672 25.9033 23.0602 25.8854 23.0528C25.8676 23.0454 25.8499 23.0376 25.8324 23.0293C25.8149 23.021 25.7976 23.0123 25.7806 23.0032C25.7635 22.9941 25.7467 22.9846 25.7301 22.9746C25.7135 22.9647 25.6972 22.9543 25.6811 22.9436C25.665 22.9328 25.6492 22.9217 25.6337 22.9102C25.6181 22.8987 25.6029 22.8867 25.5879 22.8745C25.573 22.8622 25.5583 22.8496 25.544 22.8366C25.5296 22.8236 25.5156 22.8102 25.502 22.7966C25.4883 22.7829 25.475 22.7689 25.462 22.7545C25.449 22.7402 25.4364 22.7255 25.4241 22.7106C25.4118 22.6956 25.3999 22.6804 25.3884 22.6649C25.3769 22.6493 25.3657 22.6335 25.355 22.6174C25.3443 22.6013 25.3339 22.585 25.324 22.5684C25.314 22.5518 25.3045 22.535 25.2954 22.5179C25.2863 22.5009 25.2776 22.4836 25.2693 22.4661C25.261 22.4486 25.2532 22.4309 25.2458 22.413C25.2384 22.3952 25.2314 22.3771 25.2249 22.3589C25.2184 22.3407 25.2123 22.3223 25.2067 22.3038C25.2011 22.2853 25.196 22.2667 25.1912 22.2479C25.1865 22.2291 25.1823 22.2103 25.1785 22.1913C25.1748 22.1723 25.1715 22.1533 25.1686 22.1341C25.1658 22.115 25.1634 22.0958 25.1615 22.0765C25.1596 22.0572 25.1582 22.038 25.1572 22.0187C25.1563 21.9993 25.1558 21.98 25.1558 21.9607C25.1558 21.9413 25.1563 21.922 25.1573 21.9027C25.1582 21.8833 25.1596 21.8641 25.1615 21.8448C25.1634 21.8255 25.1658 21.8064 25.1687 21.7872C25.1715 21.7681 25.1748 21.749 25.1786 21.7301C25.1824 21.7111 25.1866 21.6922 25.1913 21.6734C25.196 21.6547 25.2012 21.636 25.2068 21.6176C25.2124 21.599 25.2185 21.5807 25.225 21.5624C25.2315 21.5442 25.2385 21.5262 25.2459 21.5083C25.2533 21.4904 25.2611 21.4728 25.2694 21.4553C25.2777 21.4378 25.2864 21.4205 25.2955 21.4035C25.3046 21.3864 25.3141 21.3695 25.3241 21.353C25.334 21.3364 25.3444 21.32 25.3551 21.304C25.3659 21.2879 25.377 21.2721 25.3885 21.2565C25.4 21.241 25.412 21.2257 25.4242 21.2108C25.4365 21.1958 25.4491 21.1812 25.4621 21.1669C25.4751 21.1525 25.4885 21.1385 25.5021 21.1249L29.9995 16.6278C30.1095 16.521 30.2221 16.4169 30.3371 16.3156C30.4522 16.2142 30.5696 16.1157 30.6894 16.0201C30.8093 15.9245 30.9314 15.8318 31.0557 15.7421C31.1801 15.6524 31.3065 15.5658 31.4351 15.4823C31.5637 15.3987 31.6942 15.3183 31.8266 15.2411C31.9591 15.1639 32.0934 15.09 32.2294 15.0194C32.3655 14.9487 32.5032 14.8814 32.6426 14.8174C32.7819 14.7534 32.9227 14.6929 33.065 14.6358C33.2073 14.5787 33.3509 14.525 33.4958 14.4749C33.6407 14.4248 33.7867 14.3782 33.9339 14.3351C34.081 14.2921 34.2292 14.2527 34.3782 14.2169C34.5273 14.181 34.6772 14.1489 34.8278 14.1203C34.9784 14.0918 35.1297 14.0669 35.2815 14.0457C35.4334 14.0246 35.5857 14.0071 35.7384 13.9933C35.8911 13.9795 36.044 13.9695 36.1972 13.9632C36.3504 13.9568 36.5037 13.9542 36.657 13.9553C36.8103 13.9565 36.9635 13.9613 37.1166 13.9699C37.2696 13.9784 37.4224 13.9907 37.5749 14.0067C37.7274 14.0227 37.8794 14.0424 38.0309 14.0658C38.1825 14.0892 38.3334 14.1163 38.4836 14.147C38.6338 14.1778 38.7832 14.2121 38.9317 14.2501C39.0802 14.2881 39.2278 14.3297 39.3743 14.3749C39.5208 14.4201 39.6661 14.4688 39.8102 14.521C39.9544 14.5733 40.0972 14.629 40.2386 14.6882C40.3801 14.7474 40.52 14.81 40.6584 14.876C40.7968 14.942 40.9335 15.0113 41.0685 15.0839C41.2035 15.1566 41.3367 15.2325 41.468 15.3116C41.5994 15.3907 41.7287 15.473 41.856 15.5584C41.9834 15.6438 42.1085 15.7323 42.2315 15.8238C42.3546 15.9153 42.4753 16.0097 42.5937 16.1071C42.7121 16.2045 42.8281 16.3047 42.9417 16.4077C43.0553 16.5107 43.1663 16.6164 43.2747 16.7248C43.3831 16.8333 43.4888 16.9442 43.5918 17.0578C43.6948 17.1713 43.795 17.2873 43.8924 17.4058C43.9898 17.5242 44.0842 17.6449 44.1757 17.768C44.2672 17.891 44.3557 18.0162 44.4411 18.1435C44.5265 18.2708 44.6088 18.4001 44.6879 18.5315C44.767 18.6628 44.8429 18.796 44.9155 18.931C44.9882 19.066 45.0575 19.2027 45.1235 19.3411C45.1895 19.4795 45.2521 19.6194 45.3113 19.7609C45.3705 19.9023 45.4262 20.0451 45.4784 20.1893C45.5307 20.3334 45.5794 20.4787 45.6246 20.6252C45.6698 20.7718 45.7114 20.9193 45.7493 21.0678C45.7873 21.2163 45.8217 21.3657 45.8524 21.5159C45.8832 21.6661 45.9102 21.817 45.9336 21.9686C45.9571 22.1201 45.9767 22.2721 45.9927 22.4246C46.0088 22.5771 46.021 22.7298 46.0296 22.8829C46.0382 23.036 46.043 23.1892 46.0442 23.3425C46.0453 23.4958 46.0427 23.6491 46.0363 23.8023C46.03 23.9555 46.02 24.1084 46.0061 24.2611C45.9924 24.4138 45.9749 24.5661 45.9537 24.718C45.9326 24.8698 45.9077 25.0211 45.8791 25.1717C45.8506 25.3223 45.8185 25.4722 45.7826 25.6213C45.7468 25.7703 45.7074 25.9185 45.6643 26.0656C45.6213 26.2128 45.5747 26.3588 45.5246 26.5037C45.4745 26.6486 45.4208 26.7922 45.3637 26.9345C45.3066 27.0768 45.246 27.2176 45.1821 27.3569C45.1181 27.4963 45.0508 27.634 44.9801 27.7701C44.9095 27.9061 44.8355 28.0404 44.7583 28.1728C44.6812 28.3053 44.6008 28.4358 44.5172 28.5644C44.4337 28.693 44.3471 28.8194 44.2574 28.9438C44.1677 29.0681 44.075 29.1902 43.9794 29.3101C43.8837 29.4299 43.7853 29.5473 43.6839 29.6624C43.5826 29.7774 43.4785 29.8899 43.3717 30L38.8757 34.4973C38.8621 34.511 38.8481 34.5244 38.8337 34.5374C38.8194 34.5504 38.8048 34.5631 38.7899 34.5754C38.7749 34.5876 38.7597 34.5995 38.7441 34.6111C38.7286 34.6226 38.7128 34.6338 38.6967 34.6445C38.6806 34.6553 38.6643 34.6656 38.6477 34.6756C38.6311 34.6855 38.6143 34.6951 38.5972 34.7042C38.5802 34.7133 38.5629 34.722 38.5454 34.7303C38.5279 34.7386 38.5102 34.7464 38.4923 34.7538C38.4744 34.7612 38.4564 34.7682 38.4382 34.7747C38.4199 34.7812 38.4016 34.7873 38.383 34.7929C38.3645 34.7985 38.3459 34.8036 38.3271 34.8083C38.3083 34.813 38.2895 34.8172 38.2705 34.821C38.2515 34.8248 38.2324 34.8281 38.2133 34.8309C38.1942 34.8337 38.175 34.836 38.1557 34.8379C38.1364 34.8398 38.1171 34.8412 38.0978 34.8421C38.0785 34.843 38.0592 34.8435 38.0398 34.8435Z" fill="url(#4a75zrxgv__linear_fill_119_2074)"/>
  <path d="M24.9846 36.1969C24.9701 36.1969 24.9556 36.1966 24.9411 36.196C24.9266 36.1955 24.9121 36.1947 24.8977 36.1936C24.8832 36.1926 24.8688 36.1912 24.8544 36.1897C24.8399 36.1881 24.8256 36.1862 24.8112 36.184C24.7969 36.1819 24.7826 36.1795 24.7683 36.1769C24.754 36.1742 24.7398 36.1713 24.7257 36.1681C24.7115 36.1649 24.6975 36.1615 24.6834 36.1578C24.6694 36.1541 24.6555 36.1501 24.6416 36.1459C24.6277 36.1417 24.6139 36.1372 24.6002 36.1325C24.5864 36.1278 24.5728 36.1228 24.5593 36.1176C24.5458 36.1124 24.5323 36.1069 24.519 36.1012C24.5057 36.0955 24.4925 36.0895 24.4793 36.0833C24.4662 36.0771 24.4532 36.0707 24.4404 36.064C24.4275 36.0573 24.4147 36.0504 24.4021 36.0433C24.3895 36.0361 24.377 36.0287 24.3647 36.0211C24.3523 36.0135 24.3401 36.0057 24.3281 35.9976C24.316 35.9895 24.3041 35.9813 24.2923 35.9728C24.2806 35.9643 24.269 35.9556 24.2575 35.9467C24.2461 35.9377 24.2348 35.9286 24.2237 35.9193C24.2126 35.9099 24.2017 35.9004 24.191 35.8906C24.1802 35.8809 24.1697 35.871 24.1593 35.8608C24.1489 35.8507 24.1387 35.8404 24.1287 35.8299C24.1187 35.8194 24.1089 35.8087 24.0993 35.7978C24.0897 35.787 24.0803 35.7759 24.0711 35.7647C24.0619 35.7535 24.0529 35.7421 24.0441 35.7306C24.0353 35.719 24.0267 35.7073 24.0184 35.6955C24.01 35.6836 24.0019 35.6716 23.994 35.6595C23.9861 35.6473 23.9784 35.635 23.9709 35.6226C23.9635 35.6101 23.9563 35.5975 23.9493 35.5848C23.9423 35.5721 23.9355 35.5593 23.929 35.5463C23.9225 35.5334 23.9162 35.5203 23.9101 35.5071C23.9041 35.4939 23.8983 35.4806 23.8928 35.4672C23.8872 35.4538 23.8819 35.4403 23.8768 35.4267C23.8718 35.4131 23.867 35.3995 23.8624 35.3857C23.8579 35.3719 23.8536 35.3581 23.8495 35.3441C23.8455 35.3302 23.8417 35.3162 23.8382 35.3021C23.8347 35.2881 23.8314 35.274 23.8284 35.2597C23.8254 35.2455 23.8226 35.2313 23.8202 35.217C23.8177 35.2027 23.8155 35.1884 23.8135 35.174C23.8115 35.1597 23.8099 35.1453 23.8084 35.1308C23.807 35.1164 23.8059 35.1019 23.805 35.0874C23.8041 35.073 23.8035 35.0585 23.8031 35.044C23.8027 35.0295 23.8026 35.015 23.8028 35.0005C23.803 34.986 23.8034 34.9715 23.8041 34.957C23.8049 34.9425 23.8058 34.928 23.8071 34.9136C23.8083 34.8991 23.8098 34.8847 23.8116 34.8703C23.8134 34.8559 23.8154 34.8415 23.8177 34.8272C23.82 34.8129 23.8226 34.7987 23.8254 34.7844C23.8282 34.7702 23.8313 34.756 23.8347 34.7419C23.838 34.7278 23.8416 34.7138 23.8455 34.6998C23.8493 34.6858 23.8535 34.6719 23.8579 34.6581C23.8622 34.6442 23.8668 34.6305 23.8717 34.6168C23.8766 34.6032 23.8818 34.5896 23.8871 34.5761C23.8925 34.5626 23.8981 34.5493 23.904 34.5361C23.9099 34.5228 23.916 34.5096 23.9224 34.4966C23.9287 34.4836 23.9353 34.4706 23.9422 34.4579C23.949 34.445 23.9561 34.4324 23.9634 34.4198C23.9707 34.4073 23.9782 34.3949 23.986 34.3827C23.9937 34.3704 24.0017 34.3583 24.0099 34.3463C24.0181 34.3344 24.0265 34.3225 24.0351 34.3109C24.0438 34.2993 24.0526 34.2878 24.0617 34.2764C24.0708 34.2651 24.08 34.2539 24.0895 34.243C24.099 34.232 24.1086 34.2212 24.1185 34.2105C24.1284 34.1999 24.1384 34.1895 24.1487 34.1792L34.1789 24.149C34.1926 24.1357 34.2067 24.1227 34.2211 24.11C34.2355 24.0973 34.2501 24.085 34.2651 24.0731C34.2801 24.0611 34.2954 24.0495 34.3109 24.0383C34.3264 24.0271 34.3423 24.0163 34.3583 24.0058C34.3744 23.9954 34.3907 23.9854 34.4073 23.9757C34.4238 23.966 34.4406 23.9568 34.4576 23.948C34.4746 23.9391 34.4919 23.9307 34.5093 23.9227C34.5267 23.9147 34.5443 23.9072 34.562 23.9C34.5798 23.8929 34.5978 23.8862 34.6159 23.8799C34.634 23.8736 34.6522 23.8678 34.6706 23.8624C34.689 23.857 34.7076 23.8521 34.7262 23.8477C34.7449 23.8432 34.7636 23.8392 34.7824 23.8356C34.8012 23.832 34.8201 23.8289 34.8391 23.8263C34.8581 23.8236 34.8772 23.8214 34.8962 23.8197C34.9153 23.818 34.9344 23.8167 34.9536 23.8159C34.9727 23.8151 34.9919 23.8148 35.011 23.815C35.0302 23.8151 35.0494 23.8157 35.0685 23.8168C35.0877 23.8178 35.1067 23.8194 35.1258 23.8214C35.1448 23.8234 35.1639 23.8259 35.1828 23.8288C35.2018 23.8317 35.2206 23.8351 35.2394 23.8389C35.2582 23.8428 35.2769 23.8471 35.2954 23.8518C35.314 23.8566 35.3324 23.8618 35.3507 23.8674C35.369 23.8731 35.3872 23.8792 35.4052 23.8857C35.4232 23.8922 35.4411 23.8992 35.4587 23.9066C35.4764 23.914 35.4939 23.9218 35.5112 23.93C35.5285 23.9383 35.5456 23.947 35.5625 23.956C35.5794 23.9651 35.596 23.9746 35.6124 23.9845C35.6289 23.9944 35.645 24.0047 35.6609 24.0153C35.6769 24.026 35.6925 24.0371 35.7079 24.0485C35.7232 24.06 35.7383 24.0718 35.7532 24.0839C35.768 24.0961 35.7824 24.1086 35.7966 24.1215C35.8108 24.1344 35.8247 24.1476 35.8383 24.1611C35.8518 24.1747 35.865 24.1886 35.8779 24.2028C35.8908 24.217 35.9033 24.2315 35.9155 24.2463C35.9277 24.2611 35.9394 24.2762 35.9509 24.2915C35.9623 24.3069 35.9734 24.3226 35.9841 24.3385C35.9948 24.3544 36.005 24.3706 36.0149 24.387C36.0248 24.4034 36.0343 24.42 36.0434 24.4369C36.0524 24.4538 36.0611 24.4709 36.0694 24.4882C36.0776 24.5055 36.0855 24.523 36.0929 24.5407C36.1002 24.5583 36.1072 24.5762 36.1137 24.5942C36.1203 24.6122 36.1264 24.6304 36.132 24.6487C36.1377 24.667 36.1429 24.6855 36.1476 24.704C36.1524 24.7226 36.1566 24.7412 36.1605 24.76C36.1643 24.7788 36.1677 24.7977 36.1706 24.8166C36.1736 24.8356 36.176 24.8546 36.178 24.8736C36.18 24.8927 36.1816 24.9118 36.1826 24.9309C36.1837 24.9501 36.1843 24.9692 36.1844 24.9884C36.1846 25.0075 36.1843 25.0267 36.1835 25.0458C36.1827 25.065 36.1814 25.0841 36.1797 25.1032C36.178 25.1223 36.1758 25.1413 36.1732 25.1603C36.1705 25.1793 36.1674 25.1982 36.1638 25.217C36.1603 25.2358 36.1562 25.2546 36.1518 25.2732C36.1473 25.2918 36.1424 25.3104 36.137 25.3288C36.1316 25.3472 36.1258 25.3654 36.1195 25.3835C36.1132 25.4016 36.1066 25.4196 36.0994 25.4374C36.0923 25.4551 36.0847 25.4727 36.0767 25.4901C36.0687 25.5076 36.0603 25.5248 36.0514 25.5418C36.0426 25.5588 36.0334 25.5756 36.0237 25.5921C36.0141 25.6087 36.0041 25.625 35.9936 25.6411C35.9832 25.6572 35.9723 25.673 35.9611 25.6885C35.9499 25.7041 35.9383 25.7193 35.9264 25.7343C35.9144 25.7493 35.9021 25.764 35.8894 25.7783C35.8768 25.7927 35.8638 25.8068 35.8504 25.8205L25.8202 35.8507C25.8065 35.8644 25.7925 35.8778 25.7782 35.8908C25.7639 35.9038 25.7493 35.9164 25.7343 35.9287C25.7194 35.941 25.7042 35.9529 25.6887 35.9645C25.6731 35.976 25.6573 35.9871 25.6413 35.9979C25.6252 36.0086 25.6088 36.019 25.5922 36.029C25.5757 36.0389 25.5588 36.0484 25.5418 36.0576C25.5247 36.0667 25.5075 36.0754 25.49 36.0837C25.4725 36.0919 25.4548 36.0998 25.4369 36.1072C25.4191 36.1146 25.401 36.1215 25.3828 36.128C25.3646 36.1346 25.3462 36.1406 25.3278 36.1462C25.3092 36.1518 25.2906 36.157 25.2718 36.1617C25.2531 36.1664 25.2342 36.1706 25.2152 36.1744C25.1962 36.1781 25.1772 36.1814 25.1581 36.1843C25.1389 36.1871 25.1197 36.1894 25.1005 36.1913C25.0812 36.1932 25.0619 36.1946 25.0426 36.1955C25.0233 36.1964 25.004 36.1969 24.9846 36.1969Z" fill="#FFF"/>
  <defs>
    <linearGradient id="4a75zrxgv__linear_fill_119_2074" x1="13.85839844" y1="30.04882813" x2="46.04394531" y2="30.04882813" gradientUnits="userSpaceOnUse">
      <stop offset=".0002" stop-color="#636BFC"/>
      <stop offset="1" stop-color="#59CCFE"/>
    </linearGradient>
  </defs>
</svg>
