<?xml version="1.0" encoding="UTF-8"?>
<svg width="24px" height="24px" viewBox="0 0 24 24" version="1.1" xmlns="http://www.w3.org/2000/svg" xmlns:xlink="http://www.w3.org/1999/xlink">
    <g id="讲师管理" stroke="none" stroke-width="1" fill="none" fill-rule="evenodd">
        <g id="师资授权--编辑上传" transform="translate(-714.000000, -615.000000)" fill="#0C6FFF" fill-rule="nonzero">
            <g id="编组-9" transform="translate(238.000000, 89.000000)">
                <g id="编组-15备份-2" transform="translate(48.000000, 402.000000)">
                    <g id="编组-18" transform="translate(92.000000, 0.000000)">
                        <g id="编组-11" transform="translate(288.000000, 106.000000)">
                            <g id="编组-28" transform="translate(32.000000, 18.000000)">
                                <g id="编组" transform="translate(16.000000, 0.000000)">
                                    <path d="M12,22.0714286 C17.5623214,22.0714286 22.0714286,17.5623214 22.0714286,12 C22.0714286,6.43767857 17.5623214,1.92857143 12,1.92857143 C6.43767857,1.92857143 1.92857143,6.43767857 1.92857143,12 C1.92857143,17.5623214 6.43767857,22.0714286 12,22.0714286 Z M12,24 C5.37257143,24 0,18.6274286 0,12 C0,5.37257143 5.37257143,0 12,0 C18.6274286,0 24,5.37257143 24,12 C24,18.6274286 18.6274286,24 12,24 Z" id="形状"></path>
                                    <path d="M4.71428571,12 C4.71428571,12.9467739 5.48179757,13.7142857 6.42857143,13.7142857 C7.37534529,13.7142857 8.14285714,12.9467739 8.14285714,12 C8.14285714,11.0532261 7.37534529,10.2857143 6.42857143,10.2857143 C5.48179757,10.2857143 4.71428571,11.0532261 4.71428571,12 Z" id="路径"></path>
                                    <path d="M10.2857143,12 C10.2857143,12.9467739 11.0532261,13.7142857 12,13.7142857 C12.9467739,13.7142857 13.7142857,12.9467739 13.7142857,12 C13.7142857,11.0532261 12.9467739,10.2857143 12,10.2857143 C11.0532261,10.2857143 10.2857143,11.0532261 10.2857143,12 Z" id="路径"></path>
                                    <path d="M15.8571429,12 C15.8571429,12.9467739 16.6246547,13.7142857 17.5714286,13.7142857 C18.5182024,13.7142857 19.2857143,12.9467739 19.2857143,12 C19.2857143,11.0532261 18.5182024,10.2857143 17.5714286,10.2857143 C16.6246547,10.2857143 15.8571429,11.0532261 15.8571429,12 Z" id="路径"></path>
                                </g>
                            </g>
                        </g>
                    </g>
                </g>
            </g>
        </g>
    </g>
</svg>