<svg xmlns="http://www.w3.org/2000/svg" xmlns:xlink="http://www.w3.org/1999/xlink" version="1.1" width="24" height="24" viewBox="0 0 24 24"><g><g></g><g><g><path d="M17.4113,4L6.5886499999999995,4C5.15898,4,4,5.15887,4,6.58844L4,14.5371C4,15.9667,5.15898,17.125500000000002,6.5886499999999995,17.125500000000002L17.4113,17.125500000000002C18.841,17.125500000000002,20,15.9667,20,14.5371L20,6.58844C20,5.15887,18.841,4,17.4113,4ZM17.4118,15.8165C18.1174,15.8165,18.6914,15.2425,18.6914,14.5189L18.6914,6.57025C18.6914,5.8829899999999995,18.1174,5.30908,17.4118,5.30908L6.58913,5.30908C5.88359,5.30908,5.30957,5.8829899999999995,5.30957,6.58843L5.30957,14.5371C5.30957,15.2426,5.88357,15.8165,6.58913,15.8165L17.4118,15.8165ZM14.2996,18.4536L9.70082,18.4536C9.34936,18.4536,9.06445,18.738500000000002,9.06445,19.09C9.06445,19.4414,9.34936,19.726300000000002,9.70082,19.726300000000002L14.2996,19.726300000000002C14.6511,19.726300000000002,14.936,19.4414,14.936,19.09C14.936,18.738500000000002,14.6511,18.4536,14.2996,18.4536Z" fill-rule="evenodd" fill-opacity="1"/></g><g><path d="M15.577322735214233,8.592164222259521L13.108602735214234,11.198089222259522L11.214722735214234,9.173327222259521C11.093552735214233,9.043781222259522,10.924992735214234,8.968962222259522,10.747632735214234,8.966000222259522C10.570272735214234,8.963039222259521,10.399302735214233,9.032189222259522,10.273872735214233,9.157618222259522L7.484636735214234,11.946839222259522C7.229018235214234,12.202459222259522,7.229018235214234,12.616909222259522,7.484636735214234,12.872509222259522C7.612436735214233,13.00030922225952,7.779963735214233,13.06421922225952,7.947472735214234,13.06421922225952C8.114981735214233,13.06421922225952,8.282508735214233,13.00030922225952,8.410312735214234,12.872509222259522L10.720982735214234,10.561839222259522L12.627512735214234,12.600149222259521C12.750782735214234,12.731939222259522,12.923012735214233,12.80698922225952,13.103472735214233,12.80755922225952C13.285282735214233,12.80755922225952,13.457102735214233,12.733649222259523,13.580722735214234,12.603179222259522L16.52769273521423,9.49246922225952C16.776312735214233,9.230055222259521,16.76511273521423,8.81576422225952,16.502672735214233,8.567145222259521C16.240252735214234,8.318545722259522,15.825942735214234,8.329709322259522,15.577322735214233,8.592164222259521Z"  fill-opacity="1"/></g></g></g></svg>
