<?xml version="1.0" encoding="UTF-8"?>
<svg width="38px" height="38px" viewBox="0 0 38 38" version="1.1" xmlns="http://www.w3.org/2000/svg" xmlns:xlink="http://www.w3.org/1999/xlink">
    <g id="自媒体运营2.0" stroke="none" stroke-width="1" fill="none" fill-rule="evenodd">
        <g id="任务中心-工程生成" transform="translate(-810.000000, -194.000000)">
            <g id="编组-83" transform="translate(775.000000, 53.000000)">
                <g id="编组-2备份" transform="translate(0.000000, 30.000000)">
                    <g id="编组-79备份-3" transform="translate(20.000000, 96.000000)">
                        <g id="编组-78" transform="translate(8.000000, 8.000000)">
                            <g id="编组-102" transform="translate(7.000000, 7.000000)">
                                <rect id="矩形" x="0" y="0" width="38" height="38"></rect>
                                <g id="编组" transform="translate(2.000000, 4.000000)" fill="#6BB3FB" fill-rule="nonzero">
                                    <path d="M30.6,2.72727273 L14.943,2.72727273 L14.484,1.85795455 C14.144,1.19318182 13.583,0.613636364 12.903,0.306818182 C12.461,0.102272727 11.985,6.05576195e-16 11.492,6.05576195e-16 L3.4,6.05576195e-16 C1.53,6.05576195e-16 0,1.53409091 0,3.40909091 L0,26.5909091 C0,28.4659091 1.53,30 3.4,30 L30.6,30 C32.47,30 34,28.4659091 34,26.5909091 L34,6.13636364 C34,4.26136364 32.47,2.72727273 30.6,2.72727273 Z M6.851,24.5454545 C6.103,24.5454545 5.491,23.9318182 5.491,23.1818182 C5.491,22.4318182 6.103,21.8181818 6.851,21.8181818 C7.599,21.8181818 8.211,22.4318182 8.211,23.1818182 C8.211,23.9318182 7.599,24.5454545 6.851,24.5454545 Z M17.68,24.5454545 L10.88,24.5454545 C10.132,24.5454545 9.52,23.9318182 9.52,23.1818182 C9.52,22.4318182 10.132,21.8181818 10.88,21.8181818 L17.68,21.8181818 C18.428,21.8181818 19.04,22.4318182 19.04,23.1818182 C19.04,23.9318182 18.428,24.5454545 17.68,24.5454545 Z M31.28,8.18181818 L19.788,8.18181818 C19.295,8.18181818 18.819,8.07954545 18.377,7.875 C17.68,7.56818182 17.136,7.00568182 16.796,6.32386364 L16.354,5.45454545 L30.6,5.45454545 C30.974,5.45454545 31.28,5.76136364 31.28,6.13636364 L31.28,8.18181818 L31.28,8.18181818 Z" id="形状"></path>
                                </g>
                            </g>
                        </g>
                    </g>
                </g>
            </g>
        </g>
    </g>
</svg>