<?xml version="1.0" encoding="UTF-8"?>
<svg width="20px" height="20px" viewBox="0 0 20 20" version="1.1" xmlns="http://www.w3.org/2000/svg" xmlns:xlink="http://www.w3.org/1999/xlink">
    <g id="产品管理" stroke="none" stroke-width="1" fill="none" fill-rule="evenodd">
        <g id="编组-149">
            <rect id="矩形" x="0" y="0" width="20" height="20"></rect>
            <g id="编组" transform="translate(1.000000, 2.000000)" stroke-linejoin="round">
                <path d="M1.42105263,8.47058824 L1.42105263,14.5882353 C1.42105263,15.3679529 2.05728158,16 2.84210526,16 L15.1578947,16 C15.9427421,16 16.5789474,15.3679529 16.5789474,14.5882353 L16.5789474,8.47058824" id="路径" stroke="#333333" stroke-linecap="round"></path>
                <path d="M0,3.76470588 C0,3.24489412 0.424151053,2.82352941 0.947368421,2.82352941 L17.0526316,2.82352941 C17.5758632,2.82352941 18,3.24489412 18,3.76470588 L18,7.52941176 C18,8.04922353 17.5758632,8.47058824 17.0526316,8.47058824 L0.947368421,8.47058824 C0.424151053,8.47058824 0,8.04922353 0,7.52941176 L0,3.76470588 Z" id="路径" stroke="#333333"></path>
                <path d="M12.3157895,2.82352941 L12.3157895,0.941176471 C12.3157895,0.421378824 11.8916526,0 11.3684211,0 L6.63157895,0 C6.10834737,0 5.68421053,0.421378824 5.68421053,0.941176471 L5.68421053,2.82352941" id="路径" stroke="#333333" stroke-linecap="round"></path>
                <line x1="4.73684211" y1="7.52941176" x2="4.73684211" y2="10.3529412" id="路径" stroke="#0C6FFF" stroke-linecap="round"></line>
                <line x1="13.2631579" y1="7.52941176" x2="13.2631579" y2="10.3529412" id="路径" stroke="#0C6FFF" stroke-linecap="round"></line>
            </g>
        </g>
    </g>
</svg>