<?xml version="1.0" encoding="UTF-8"?>
<svg width="20px" height="20px" viewBox="0 0 20 20" version="1.1" xmlns="http://www.w3.org/2000/svg" xmlns:xlink="http://www.w3.org/1999/xlink">
    <g id="图标" stroke="none" stroke-width="1" fill="none" fill-rule="evenodd">
        <g id="编组-2">
            <rect id="矩形" x="0" y="0" width="20" height="20"></rect>
            <g id="编组" transform="translate(1.000000, 1.000000)" fill="#07C160">
                <path d="M14.7135999,3.38893042 C13.8081111,1.56311698 11.5175637,0.000358106859 8.92427434,0 C7.56348629,-0.000357687885 5.48462114,0.457750948 3.93112929,2.29984872 C2.89370405,3.52994199 2.54442842,4.96958417 2.76304503,6.40528947 C2.9132299,7.39165463 3.47345779,8.69296947 4.27511286,9.51613343 C4.57730745,7.4294128 5.69812818,5.7882744 7.16767708,4.58198131 C9.82100392,2.59421931 12.6537132,2.70677803 14.7135999,3.38893042" id="Fill-7"></path>
                <path d="M16.7839248,6.51947663 C15.1605413,4.45351405 12.3542924,3.8755098 9.82104042,4.79673763 C9.90279354,4.8208957 9.98436418,4.84469588 10.0657523,4.87171713 C13.8163594,6.12471583 15.8433989,10.1147347 14.593379,13.7835406 C14.2607095,14.7595268 13.7282193,15.613112 13.0574057,16.3187067 C13.8654478,16.0993156 14.6924682,15.7856185 15.4019685,15.2494883 C18.2584008,13.0911882 18.820636,9.1113694 16.7839248,6.51947663" id="Fill-8"></path>
                <path d="M8.91712094,13.1193547 C8.34722138,13.1193547 7.7952053,13.0551121 7.26417497,12.9387955 C7.19939291,12.9257322 7.13260353,12.9180374 7.06325936,12.9210795 C6.90595759,12.9277007 6.76489696,12.9810274 6.63314304,13.0638806 L4.88165535,14.1649519 C4.83256698,14.1955521 4.78512097,14.2195312 4.72563097,14.2220365 C4.57435119,14.2284786 4.44661194,14.112341 4.44004249,13.9634556 C4.43712274,13.8961709 4.46139319,13.8283494 4.475627,13.7637489 C4.48420378,13.725096 4.66979067,12.8996057 4.78548594,12.3845914 C4.7989898,12.326612 4.80957391,12.27078 4.80701913,12.2111901 C4.79917229,12.0320625 4.70318536,11.8772719 4.56285466,11.7845764 C2.71702241,10.5501884 1.45094389,8.6105636 1.17247231,6.61635945 C0.708231355,7.33197524 0.460964651,7.90067417 0.218990003,8.72974343 C-0.683396602,11.8232294 1.29163479,15.5292566 4.51467871,16.567338 C8.22130697,17.7611047 11.7582245,16.4211369 12.9799592,13.3297983 C13.1285017,12.954364 13.2909131,12.3167698 13.3244903,11.7870817 C12.0264769,12.7235202 10.652185,13.1193547 8.91712094,13.1193547" id="Fill-9"></path>
            </g>
        </g>
    </g>
</svg>