<?xml version="1.0" encoding="UTF-8"?>
<svg width="80px" height="92px" viewBox="0 0 80 92" version="1.1" xmlns="http://www.w3.org/2000/svg" xmlns:xlink="http://www.w3.org/1999/xlink">
    <defs>
        <filter x="-62.5%" y="-62.5%" width="225.0%" height="225.0%" filterUnits="objectBoundingBox" id="filter-1">
            <feGaussianBlur stdDeviation="10" in="SourceGraphic"></feGaussianBlur>
        </filter>
    </defs>
    <g id="自媒体运营2.0" stroke="none" stroke-width="1" fill="none" fill-rule="evenodd">
        <g id="云桌面管理" transform="translate(-557.000000, -148.000000)">
            <g id="编组-43" transform="translate(272.000000, 108.000000)">
                <g id="编组-25" transform="translate(0.000000, 40.000000)">
                    <g id="编组-21" transform="translate(285.000000, 0.000000)">
                        <g id="编组-13" transform="translate(16.000000, 22.000000)">
                            <circle id="椭圆形" fill-opacity="0.2" fill="#FF7D00" filter="url(#filter-1)" cx="24" cy="24" r="24"></circle>
                            <circle id="椭圆形" fill-opacity="0.2" fill="#FF7D00" cx="24" cy="24" r="24"></circle>
                            <g id="编组" transform="translate(8.000000, 11.000000)" fill-rule="nonzero">
                                <path d="M27.4183174,20.9303758 L4.5081186,20.9303758 C1.99551384,20.9303758 0,18.9750898 0,16.5126307 L0,4.41774512 C0,1.95528598 1.99551384,0 4.5081186,0 L27.4918814,0 C30.0048433,0 32,1.95528598 32,4.41774512 L32,16.5122795 C32.0003571,18.9747386 29.9309221,20.9303758 27.4183174,20.9303758 Z" id="路径" fill="#FF7D00"></path>
                                <path d="M23.7229743,26 L8.20346171,26 C7.61209254,26 7.09500162,25.4931781 7.09500162,24.913652 C7.09500162,24.3341258 7.61244964,23.8273039 8.20346171,23.8273039 L23.7972525,23.8273039 C24.3886217,23.8273039 24.9057126,24.3341258 24.9057126,24.913652 C24.9057126,25.4928268 24.3882646,26 23.7229743,26 Z" id="路径" fill="#FF9733"></path>
                                <g transform="translate(9.500000, 3.500000)" fill="#FFFFFF" id="路径">
                                    <path d="M6.5,14 C2.91579485,14 0,11.0076596 0,7.3293617 C0,5.47744681 0.759632559,3.69361702 2.08484307,2.43404255 C2.4829038,2.05617021 3.10321511,2.08 3.47142128,2.48851064 C3.83962746,2.89702128 3.81640725,3.53361702 3.41834652,3.91148936 C2.49285532,4.78978723 1.96376627,6.03574468 1.96376627,7.3293617 C1.96376627,9.89787234 3.99885175,11.986383 6.50165859,11.986383 C9.00446542,11.986383 11.0395509,9.89787234 11.0395509,7.3293617 C11.0395509,6.02382979 10.5270477,4.81361702 9.59658076,3.92340426 C9.20017862,3.54382979 9.17861699,2.90723404 9.54848176,2.50042553 C9.91834652,2.09361702 10.5386578,2.07148936 10.93506,2.45106383 C12.2470018,3.70723404 13,5.48595745 13,7.3293617 C13,11.0076596 10.0842052,14 6.5,14 Z"></path>
                                    <path d="M6.59288084,9.56595745 C6.05384027,9.56595745 5.6109977,9.11319149 5.6109977,8.55829787 L5.6109977,1.00765957 C5.6109977,0.454468085 6.05218168,0 6.59288084,0 C7.13192141,0 7.57476397,0.452765957 7.57476397,1.00765957 L7.57476397,8.56 C7.57310538,9.11319149 7.13192141,9.56595745 6.59288084,9.56595745 L6.59288084,9.56595745 Z"></path>
                                </g>
                            </g>
                        </g>
                    </g>
                </g>
            </g>
        </g>
    </g>
</svg>