<?xml version="1.0" encoding="UTF-8"?>
<svg width="20px" height="20px" viewBox="0 0 20 20" version="1.1" xmlns="http://www.w3.org/2000/svg" xmlns:xlink="http://www.w3.org/1999/xlink">
    <defs>
        <linearGradient x1="50%" y1="0%" x2="50%" y2="100%" id="linearGradient-1">
            <stop stop-color="#FF423C" offset="0%"></stop>
            <stop stop-color="#FF1F1C" offset="100%"></stop>
        </linearGradient>
    </defs>
    <g id="图标" stroke="none" stroke-width="1" fill="none" fill-rule="evenodd">
        <g id="编组-2备份" fill="url(#linearGradient-1)" transform="translate(1.000000, 1.000000)">
            <path d="M9,0 C13.9705627,-9.13077564e-16 18,4.02943725 18,9 C18,13.9705627 13.9705627,18 9,18 C4.02943725,18 6.08718376e-16,13.9705627 0,9 C-6.08718376e-16,4.02943725 4.02943725,9.13077564e-16 9,0 Z M14.6930223,3.375 C14.8217061,3.85324007 14.8903543,4.35624604 14.8903543,4.87536546 C14.8903543,8.04310309 12.3341871,10.611069 9.18096895,10.611069 C6.02775082,10.611069 3.47155532,8.04310309 3.47155532,4.87536546 C3.47155532,4.36858644 3.53706911,3.87718328 3.65990746,3.40915595 C2.02971546,5.96112191 2.32543114,9.39515682 4.54711098,11.6270667 L8.90911497,16.0091279 C9.0628747,16.163624 9.31216596,16.163624 9.46592569,16.0091279 L13.8279297,11.6270667 C16.0595778,9.38517102 16.3478667,5.93039857 14.6930223,3.375 Z" id="形状结合"></path>
        </g>
    </g>
</svg>