<?xml version="1.0" encoding="UTF-8"?>
<svg width="24px" height="24px" viewBox="0 0 24 24" version="1.1" xmlns="http://www.w3.org/2000/svg" xmlns:xlink="http://www.w3.org/1999/xlink">
    <title>编组 84</title>
    <g id="页面-1" stroke="none" stroke-width="1" fill="none" fill-rule="evenodd">
        <g id="直播间加热弹窗" transform="translate(-779.000000, -324.000000)">
            <g id="编组-84" transform="translate(779.000000, 324.000000)">
                <rect id="矩形" x="0" y="0" width="24" height="24"></rect>
                <g id="编组-83" transform="translate(3.000000, 3.000000)" fill="#01A3FF" fill-rule="nonzero">
                    <g id="编组">
                        <path d="M15.6034192,0.577935717 L14.40506,0.577935717 C14.073683,0.577935717 13.6911164,0.778981597 13.6911164,1.10568359 C13.6911164,1.43238559 14.073683,1.75906797 14.40506,1.75906797 L15.6034192,1.75906797 C16.3173039,1.75906797 16.8017194,2.2366084 16.8017194,2.94018058 L16.8017194,16.5352035 C16.8017194,17.2387757 16.3173039,17.7163161 15.6034192,17.7163161 L2.7025202,17.7163161 C1.98871403,17.7163161 1.19833953,17.2387757 1.19833953,16.5352035 L1.19833951,2.94016094 C1.19833951,2.23658877 1.68269606,1.75904833 2.39663973,1.75904833 L3.90087934,1.75904833 C4.23239388,1.75904833 4.35979824,1.43234632 4.35979824,1.10566396 C4.35979824,0.778981597 4.23237424,0.577935717 3.90087934,0.577935717 L2.39663973,0.577935717 C0.713924038,0.577935717 -5.23748935e-16,1.6082492 -5.23748935e-16,2.96520575 L-5.23748935e-16,16.4095081 C-5.23748935e-16,17.8669974 0.892341203,18.8973305 2.52412266,18.8973305 L15.4758184,18.8973305 C17.1076588,18.8973305 18,18.042861 18,16.4095081 L18,2.96522539 C18,1.60826882 17.1587109,0.577935717 15.6034192,0.577935717 L15.6034192,0.577935717 L15.6034192,0.577935717 Z M3.90087935,5.90540597 C3.90087935,6.23216692 4.18132216,6.50854361 4.51271882,6.50854361 L13.5127188,6.50854361 C13.8441548,6.50854361 14.1246762,6.23214726 14.1246762,5.90540597 C14.1246762,5.57870395 13.8441548,5.30226833 13.5127188,5.30226833 L4.51271882,5.30226833 C4.18132216,5.30224869 3.90087935,5.57870395 3.90087935,5.90540597 L3.90087935,5.90540597 L3.90087935,5.90540597 Z M13.4872812,8.56913129 L4.51271882,8.56913129 C4.18134178,8.56913129 3.90087935,8.84558655 3.90087935,9.1723475 C3.90087935,9.49897092 4.18132216,9.77536728 4.51271882,9.77536728 L13.5127188,9.77536728 C13.8441548,9.77536728 14.1246762,9.49897092 14.1246762,9.1723475 C14.0992385,8.82046317 13.8186582,8.56913129 13.4872812,8.56913129 L13.4872812,8.56913129 L13.4872812,8.56913129 Z M13.4872812,12.1123906 L4.51271882,12.1123906 C4.18134178,12.1123906 3.90087935,12.3888458 3.90087935,12.7154693 C3.90087935,13.0421713 4.18132216,13.318548 4.51271882,13.318548 L13.5127188,13.318548 C13.8441548,13.318548 14.1246762,13.0421516 14.1246762,12.7154693 C14.0992385,12.3637225 13.8186582,12.1123906 13.4872812,12.1123906 L13.4872812,12.1123906 L13.4872812,12.1123906 Z M6.93485515,2.06062697 L11.1161969,2.06062697 C11.6006124,2.06062697 12.0085382,1.58320439 12.0085382,1.03031348 C12.0085382,0.477540437 11.6006124,1.30937234e-16 11.0906414,1.30937234e-16 L6.93485515,1.30937234e-16 C6.42494308,1.30937234e-16 6.01707629,0.477481507 6.01707629,1.03031348 C6.01707629,1.58320439 6.4249431,2.06062697 6.93485515,2.06062697 L6.93485515,2.06062697 L6.93485515,2.06062697 Z" id="形状"></path>
                    </g>
                </g>
            </g>
        </g>
    </g>
</svg>