<?xml version="1.0" encoding="UTF-8"?>
<svg width="24px" height="24px" viewBox="0 0 24 24" version="1.1" xmlns="http://www.w3.org/2000/svg" xmlns:xlink="http://www.w3.org/1999/xlink">
    <title>编组 89</title>
    <g id="页面-1" stroke="none" stroke-width="1" fill="none" fill-rule="evenodd">
        <g id="直播间加热弹窗下单" transform="translate(-545.000000, -623.000000)">
            <g id="编组-89" transform="translate(545.000000, 623.000000)">
                <g id="椭圆形-2" fill="#01A3FF">
                    <circle id="椭圆形" cx="12" cy="12" r="12"></circle>
                </g>
                <g id="编组-83" transform="translate(5.000000, 5.000000)" fill="#FFFFFF" fill-rule="nonzero">
                    <g id="编组">
                        <path d="M12.1359927,0.449505558 L11.2039356,0.449505558 C10.9461979,0.449505558 10.6486461,0.605874576 10.6486461,0.859976128 C10.6486461,1.11407768 10.9461979,1.36816397 11.2039356,1.36816397 L12.1359927,1.36816397 C12.6912364,1.36816397 13.068004,1.73958431 13.068004,2.28680712 L13.068004,12.8607138 C13.068004,13.4079366 12.6912364,13.779357 12.1359927,13.779357 L2.10196016,13.779357 C1.54677758,13.779357 0.932041859,13.4079366 0.932041859,12.8607138 L0.932041844,2.28679185 C0.932041844,1.73956904 1.3087636,1.3681487 1.86405313,1.3681487 L3.03401726,1.3681487 C3.29186191,1.3681487 3.39095418,1.11404713 3.39095418,0.859960855 C3.39095418,0.605874576 3.29184663,0.449505558 3.03401726,0.449505558 L1.86405313,0.449505558 C0.555274252,0.449505558 -4.07360282e-16,1.25086049 -4.07360282e-16,2.30627114 L-4.07360282e-16,12.7629507 C-4.07360282e-16,13.8965535 0.694043158,14.6979237 1.96320651,14.6979237 L12.0367476,14.6979237 C13.3059568,14.6979237 14,14.0333363 14,12.7629507 L14,2.30628641 C14,1.25087575 13.345664,0.449505558 12.1359927,0.449505558 L12.1359927,0.449505558 L12.1359927,0.449505558 Z M3.03401728,4.59309353 C3.03401728,4.84724093 3.25213946,5.06220059 3.50989242,5.06220059 L10.5098924,5.06220059 C10.7676759,5.06220059 10.9858592,4.84722565 10.9858592,4.59309353 C10.9858592,4.33899196 10.7676759,4.12398648 10.5098924,4.12398648 L3.50989242,4.12398648 C3.25213946,4.1239712 3.03401728,4.33899196 3.03401728,4.59309353 L3.03401728,4.59309353 L3.03401728,4.59309353 Z M10.4901076,6.66487989 L3.50989242,6.66487989 C3.25215472,6.66487989 3.03401728,6.87990065 3.03401728,7.13404805 C3.03401728,7.3880885 3.25213946,7.60306344 3.50989242,7.60306344 L10.5098924,7.60306344 C10.7676759,7.60306344 10.9858592,7.3880885 10.9858592,7.13404805 C10.9660744,6.86036025 10.7478453,6.66487989 10.4901076,6.66487989 L10.4901076,6.66487989 L10.4901076,6.66487989 Z M10.4901076,9.42074823 L3.50989242,9.42074823 C3.25215472,9.42074823 3.03401728,9.63576899 3.03401728,9.88980945 C3.03401728,10.143911 3.25213946,10.3588707 3.50989242,10.3588707 L10.5098924,10.3588707 C10.7676759,10.3588707 10.9858592,10.1438957 10.9858592,9.88980945 C10.9660744,9.61622859 10.7478453,9.42074823 10.4901076,9.42074823 L10.4901076,9.42074823 L10.4901076,9.42074823 Z M5.39377623,1.60270987 L8.64593096,1.60270987 C9.02269855,1.60270987 9.33997412,1.23138119 9.33997412,0.801354933 C9.33997412,0.37142034 9.02269855,1.01840071e-16 8.62605446,1.01840071e-16 L5.39377623,1.01840071e-16 C4.99717795,1.01840071e-16 4.67994822,0.371374505 4.67994822,0.801354933 C4.67994822,1.23138119 4.99717797,1.60270987 5.39377623,1.60270987 L5.39377623,1.60270987 L5.39377623,1.60270987 Z" id="形状"></path>
                    </g>
                </g>
            </g>
        </g>
    </g>
</svg>