<?xml version="1.0" encoding="UTF-8"?>
<svg width="24px" height="24px" viewBox="0 0 24 24" version="1.1" xmlns="http://www.w3.org/2000/svg" xmlns:xlink="http://www.w3.org/1999/xlink">
    <title>编组 81</title>
    <g id="页面-1" stroke="none" stroke-width="1" fill="none" fill-rule="evenodd">
        <g id="直播间加热弹窗" transform="translate(-555.000000, -324.000000)">
            <g id="编组-81" transform="translate(555.000000, 324.000000)">
                <rect id="矩形" x="0" y="0" width="24" height="24"></rect>
                <g id="编组-80" transform="translate(1.200000, 3.600000)" fill="#01A3FF" fill-rule="nonzero">
                    <g id="编组">
                        <path d="M15.7350993,17.1655629 L14.3046358,17.1655629 C14.3046358,13.589404 11.4437086,10.7284768 7.86754968,10.7284768 C4.29139074,10.7284768 1.43046357,13.589404 1.43046357,17.1655629 L0,17.1655629 C0,12.8741722 3.57615894,9.29801323 7.86754968,9.29801323 C12.1589404,9.29801323 15.7350993,12.8741722 15.7350993,17.1655629 Z" id="路径"></path>
                        <path d="M7.86754968,10.013245 C5.14966889,10.013245 2.86092716,7.86754966 2.86092716,5.00662251 C2.86092716,2.14569537 5.14966889,0 7.86754968,0 C10.5854305,0 12.8741722,2.28874172 12.8741722,5.00662251 C12.8741722,7.7245033 10.5854305,10.013245 7.86754968,10.013245 Z M7.86754968,1.43046357 C5.86490066,1.43046357 4.29139074,3.0039735 4.29139074,5.00662251 C4.29139074,7.00927153 5.86490066,8.58278145 7.86754968,8.58278145 C9.87019869,8.58278145 11.4437086,7.00927151 11.4437086,5.00662251 C11.4437086,3.00397352 9.87019869,1.43046357 7.86754968,1.43046357 Z M20.1695364,16.4503311 C20.1695364,13.7324503 18.5960265,11.4437086 16.1642384,10.4423841 L15.0198676,10.013245 L15.8781457,9.29801323 C16.7364239,8.58278144 17.3086093,7.58145695 17.3086093,6.43708609 C17.3086093,5.43576158 16.8794702,4.57748343 16.3072848,3.86225165 C15.592053,3.14701986 14.7337748,2.86092715 13.7324503,2.86092715 L13.7324503,1.43046357 C15.0198676,1.43046357 16.3072848,2.00264899 17.3086093,2.86092715 C18.3099338,3.86225165 18.7390729,5.00662251 18.7390729,6.43708609 C18.7390729,7.58145695 18.3099338,8.72582781 17.594702,9.58410596 C20.0264901,11.0145695 21.6,13.589404 21.6,16.4503311 L20.1695364,16.4503311 Z" id="形状"></path>
                    </g>
                </g>
            </g>
        </g>
    </g>
</svg>