<?xml version="1.0" encoding="UTF-8"?>
<svg width="20px" height="20px" viewBox="0 0 20 20" version="1.1" xmlns="http://www.w3.org/2000/svg" xmlns:xlink="http://www.w3.org/1999/xlink">
    <title>编组 41</title>
    <g id="智慧直播1.4" stroke="none" stroke-width="1" fill="none" fill-rule="evenodd">
        <g id="12-5-2公共聊天室" transform="translate(-653.000000, -459.000000)">
            <g id="未点中时" transform="translate(637.000000, 453.000000)">
                <g id="编组-41" transform="translate(16.000000, 6.000000)">
                    <rect id="矩形" x="0" y="0" width="20" height="20"></rect>
                    <path d="M10,3.5 C11.8046788,3.5 13.440877,4.12258062 14.6243518,5.13698761 C15.7777547,6.1256187 16.5,7.48882115 16.5,9 C16.5,10.8123109 15.4624738,12.4093866 13.8878808,13.4065038 L11.3337547,15.9594547 L11.0783927,14.424572 C10.7275168,14.4742102 10.367274,14.5 10,14.5 C8.19532122,14.5 6.55912304,13.8774194 5.37564822,12.8630124 C4.22224529,11.8743813 3.5,10.5111788 3.5,9 C3.5,7.48882115 4.22224529,6.1256187 5.37564822,5.13698761 C6.55912304,4.12258062 8.19532122,3.5 10,3.5 Z" id="形状结合" stroke="#333333"></path>
                    <path d="M7,10 C7,10.3297402 7.11969632,10.6408427 7.33170248,10.9150498 C7.82987829,11.5593864 8.83775603,12 10,12 C11.2001512,12 12.2357025,11.530176 12.7154034,10.8513617 C12.8979478,10.593047 13,10.3044687 13,10" id="路径" stroke="#333333" stroke-linecap="round" stroke-linejoin="round"></path>
                </g>
            </g>
        </g>
    </g>
</svg>