<?xml version="1.0" encoding="UTF-8"?>
<svg width="14px" height="14px" viewBox="0 0 14 14" version="1.1" xmlns="http://www.w3.org/2000/svg" xmlns:xlink="http://www.w3.org/1999/xlink">
    <title>在职</title>
    <g id="智能销售1.1" stroke="none" stroke-width="1" fill="none" fill-rule="evenodd">
        <g id="1.1-新增-接待设置" transform="translate(-1046.000000, -436.000000)">
            <g id="编组-2" transform="translate(712.000000, 0.000000)">
                <g id="编组-24" transform="translate(20.000000, 142.000000)">
                    <g id="编组-23" transform="translate(0.000000, 114.000000)">
                        <g id="编组-20" transform="translate(0.000000, 48.000000)">
                            <g id="编组-17" transform="translate(1.000000, 72.000000)">
                                <g id="编组-4" transform="translate(0.000000, 40.000000)">
                                    <g id="编组-3" transform="translate(0.000000, 15.000000)">
                                        <g id="标签/中标签/在职" transform="translate(303.000000, 0.000000)">
                                            <g id="编组-57" transform="translate(10.000000, 2.000000)">
                                                <g id="check-circle-filled" transform="translate(0.000000, 3.000000)">
                                                    <path d="M0,0 L14,0 L14,14 L0,14 L0,0 Z" id="check-circle-filled-(Background)"></path>
                                                    <path d="M14,7 C14,3.13400674 10.8659935,0 7,0 C3.13400674,0 0,3.13400674 0,7 C0,10.8659935 3.13400674,14 7,14 C10.8659935,14 14,10.8659935 14,7 Z M11.0991624,9.0757781 C11.2107407,9.18735647 11.2111009,9.3679006 11.0999668,9.4790347 L9.08770585,11.4912957 C8.99244805,11.5865535 8.84619512,11.5998971 8.73608751,11.5315005 L8.68444924,11.4904912 L7.47226619,10.2783082 C7.36068782,10.1667298 7.36032767,9.98618568 7.47146178,9.87505158 C7.58259588,9.76391748 7.76314001,9.76427762 7.87471838,9.87585599 L8.88487092,10.8860085 L10.6959058,9.07497369 C10.8070399,8.96383958 10.987584,8.96419973 11.0991624,9.0757781 Z M7.18296864,2.42857143 C8.51502819,2.42857143 9.59487868,3.50505115 9.59487868,4.83295784 C9.59487868,5.71671795 9.11658156,6.48911078 8.40395565,6.90692739 C8.61613684,6.97315614 8.82302692,7.05729492 9.02302439,7.15858655 C9.17217865,7.23413377 9.23166804,7.41592968 9.15587963,7.5646213 C9.08009123,7.71331293 8.89774089,7.77261593 8.7485765,7.69706871 C8.27359392,7.45649479 7.75426544,7.33025632 7.21792841,7.33025632 C5.24820019,7.33025632 3.63837821,9.0380899 3.60637821,11.1683438 L3.60589167,11.2330279 C3.60589167,11.3998113 3.47025911,11.5350249 3.30294077,11.5350249 C3.13563256,11.5350249 3,11.3998113 3,11.2330279 C3,9.27996096 4.16400677,7.61222465 5.79631211,6.98836913 L5.98670383,6.9212332 C5.26044473,6.50689966 4.77106874,5.72689456 4.77106874,4.83295784 C4.7710586,3.50505115 5.85090909,2.42857143 7.18296864,2.42857143 Z M7.18296864,3.03256554 C6.18553564,3.03256554 5.37695027,3.83861792 5.37695027,4.83294774 C5.37695027,5.82726747 6.18553564,6.63332995 7.18296864,6.63332995 C8.18040165,6.63332995 8.98898701,5.82726747 8.98898701,4.83293765 C8.98898701,3.83861792 8.18040165,3.03256554 7.18296864,3.03256554 Z" fill="#00B42A"></path>
                                                </g>
                                            </g>
                                        </g>
                                    </g>
                                </g>
                            </g>
                        </g>
                    </g>
                </g>
            </g>
        </g>
    </g>
</svg>