<?xml version="1.0" encoding="UTF-8"?>
<svg width="39px" height="39px" viewBox="0 0 39 39" version="1.1" xmlns="http://www.w3.org/2000/svg" xmlns:xlink="http://www.w3.org/1999/xlink">
    <defs>
        <linearGradient x1="3.07617188%" y1="-6.13540557e-13%" x2="96.9238281%" y2="100%" id="linearGradient-1">
            <stop stop-color="#FCE190" offset="0%"></stop>
            <stop stop-color="#FFCC33" offset="100%"></stop>
        </linearGradient>
    </defs>
    <g id="讲师管理1.1" stroke="none" stroke-width="1" fill="none" fill-rule="evenodd">
        <g id="数据看板" transform="translate(-1093.000000, -841.000000)">
            <g id="编组-62备份-3" transform="translate(1039.000000, 751.000000)">
                <g id="编组-53" transform="translate(20.000000, 61.000000)">
                    <g id="编组-69" transform="translate(20.000000, 16.000000)">
                        <g id="编组-63" transform="translate(14.000000, 13.000000)">
                            <rect id="矩形" x="0" y="0" width="39" height="39"></rect>
                            <g id="编组" transform="translate(4.000000, 3.500000)" fill="url(#linearGradient-1)">
                                <path d="M31,13.6128801 L31,27.2486583 C31,29.870483 28.8580981,32 26.2210253,32 L26.2210253,32 L4.77897474,32 C2.14190193,32 0,29.870483 0,27.2486583 L0,27.2486583 L0,13.6128801 L31,13.6128801 Z M8.77488856,22.0966011 L7.18573551,22.0966011 C6.29903418,22.0966011 5.57355126,22.8178891 5.57355126,23.6994633 C5.57355126,24.5810376 6.29903418,25.3023256 7.18573551,25.3023256 L7.18573551,25.3023256 L8.77488856,25.3023256 C9.6615899,25.3023256 10.3870728,24.5810376 10.3870728,23.6994633 C10.3870728,22.8178891 9.6615899,22.0966011 8.77488856,22.0966011 L8.77488856,22.0966011 Z M16.2830609,22.0966011 L14.6939079,22.0966011 C13.8072065,22.0966011 13.0817236,22.8178891 13.0817236,23.6994633 C13.0817236,24.5810376 13.8072065,25.3023256 14.6939079,25.3023256 L14.6939079,25.3023256 L16.2945765,25.3023256 C17.1812779,25.3023256 17.8952452,24.5810376 17.8952452,23.6994633 C17.8952452,22.8178891 17.1697623,22.0966011 16.2830609,22.0966011 L16.2830609,22.0966011 Z M8.77488856,16.5781753 L7.18573551,16.5781753 C6.29903418,16.5781753 5.57355126,17.2994633 5.57355126,18.1810376 C5.57355126,19.0626118 6.29903418,19.7838998 7.18573551,19.7838998 L7.18573551,19.7838998 L8.77488856,19.7838998 C9.6615899,19.7838998 10.3870728,19.0626118 10.3870728,18.1810376 C10.3870728,17.2994633 9.6615899,16.5781753 8.77488856,16.5781753 L8.77488856,16.5781753 Z M16.2830609,16.5781753 L14.6939079,16.5781753 C13.8072065,16.5781753 13.0817236,17.2994633 13.0817236,18.1810376 C13.0817236,19.0626118 13.8072065,19.7838998 14.6939079,19.7838998 L14.6939079,19.7838998 L16.2945765,19.7838998 C17.1812779,19.7838998 17.8952452,19.0626118 17.8952452,18.1810376 C17.8952452,17.2994633 17.1697623,16.5781753 16.2830609,16.5781753 L16.2830609,16.5781753 Z M23.6184993,16.5781753 L22.0293462,16.5781753 C21.1426449,16.5781753 20.417162,17.2994633 20.417162,18.1810376 C20.417162,19.0626118 21.1426449,19.7838998 22.0293462,19.7838998 L22.0293462,19.7838998 L23.6184993,19.7838998 C24.5167162,19.7838998 25.2306835,19.0626118 25.2306835,18.1810376 C25.2306835,17.2994633 24.5052006,16.5781753 23.6184993,16.5781753 L23.6184993,16.5781753 Z M6.25297177,2.31270125 L6.25297177,6.20536673 C6.25297177,7.4647585 7.28937593,8.49516995 8.55609212,8.49516995 C9.82280832,8.49516995 10.8592125,7.4647585 10.8592125,6.20536673 L10.8592125,2.31270125 L20.532318,2.31270125 L20.532318,6.20536673 C20.532318,7.4647585 21.5687221,8.49516995 22.8354383,8.49516995 C24.1021545,8.49516995 25.1385587,7.4647585 25.1385587,6.20536673 L25.1385587,2.31270125 L26.2210253,2.31270125 C28.8580981,2.31270125 31,4.44221825 31,7.06404293 L31,10.4186047 L0,10.4186047 L0,7.06404293 C0,4.44221825 2.14190193,2.31270125 4.77897474,2.31270125 L6.25297177,2.31270125 Z M8.54457652,0 C9.43127786,0 10.1567608,0.721288014 10.1567608,1.60286225 L10.1567608,6.22826476 C10.1567608,7.109839 9.44279346,7.83112701 8.54457652,7.83112701 C7.65787519,7.83112701 6.93239227,7.109839 6.93239227,6.22826476 L6.93239227,1.60286225 C6.93239227,0.721288014 7.65787519,0 8.54457652,0 Z M22.8239227,0 C23.7106241,0 24.436107,0.721288014 24.436107,1.60286225 L24.436107,1.60286225 L24.436107,6.22826476 C24.436107,7.109839 23.7106241,7.83112701 22.8239227,7.83112701 C21.9372214,7.83112701 21.2232541,7.109839 21.2117385,6.22826476 L21.2117385,6.22826476 L21.2117385,1.60286225 C21.2117385,0.721288014 21.9372214,0 22.8239227,0 Z" id="形状结合"></path>
                            </g>
                        </g>
                    </g>
                </g>
            </g>
        </g>
    </g>
</svg>