<?xml version="1.0" encoding="UTF-8"?>
<svg width="24px" height="24px" viewBox="0 0 24 24" version="1.1" xmlns="http://www.w3.org/2000/svg" xmlns:xlink="http://www.w3.org/1999/xlink">
    <g id="ai外呼" stroke="none" stroke-width="1" fill="none" fill-rule="evenodd">
        <g id="企微能力开放-调用API详情" transform="translate(-645.000000, -320.000000)">
            <g id="编组-2" transform="translate(483.000000, 0.000000)">
                <g id="编组-6备份" transform="translate(21.000000, 320.000000)">
                    <g id="编组-21" transform="translate(16.000000, 0.000000)">
                        <g id="编组-2" transform="translate(125.000000, 0.000000)">
                            <circle id="椭圆形" fill="#999999" cx="12" cy="12" r="12"></circle>
                            <g id="编组" transform="translate(5.000000, 6.500000)" fill="#FFFFFF" fill-rule="nonzero">
                                <path d="M12.2546917,0 L1.74530831,0 C0.783512064,0 0.00156389634,0.706136431 0.00156389634,1.57610962 L0.00156389634,1.58921656 L6.59338695,5.35910039 C6.90303843,5.53604409 7.45978552,5.53276735 7.7678731,5.35254692 L14,1.6629431 L14,1.57774799 C13.9984361,0.706136431 13.2180518,0 12.2546917,0 Z" id="路径"></path>
                                <path d="M0,2.87861186 L0,9.42389038 C0,10.2905868 0.780384272,11 1.74374441,11 L12.2531278,11 C13.214924,11 13.9968722,10.2938636 13.9968722,9.42389038 L13.9968722,2.96544534 L8.51072386,6.34539768 C7.76318141,6.78775693 6.61840929,6.7943104 5.86304736,6.36178135 L0,2.87861186 Z" id="路径"></path>
                            </g>
                        </g>
                    </g>
                </g>
            </g>
        </g>
    </g>
</svg>