<?xml version="1.0" encoding="UTF-8"?>
<svg width="14px" height="14px" viewBox="0 0 14 14" version="1.1" xmlns="http://www.w3.org/2000/svg" xmlns:xlink="http://www.w3.org/1999/xlink">
    <title>已关闭</title>
    <g id="智能销售1.1" stroke="none" stroke-width="1" fill="none" fill-rule="evenodd">
        <g id="4.2.2-公众号详情-模版消息群发" transform="translate(-880.000000, -488.000000)">
            <g id="编组-17" transform="translate(251.000000, 89.000000)">
                <g id="编组-12" transform="translate(0.000000, 64.000000)">
                    <g id="编组-13" transform="translate(20.000000, 113.000000)">
                        <g id="编组-6备份-4" transform="translate(0.000000, 203.000000)">
                            <g id="编组-21" transform="translate(21.000000, 0.000000)">
                                <g id="标签/中标签/未开始" transform="translate(578.000000, 14.000000)">
                                    <g id="编组-57" transform="translate(10.000000, 2.000000)">
                                        <g id="check-circle-filled" transform="translate(0.000000, 3.000000)">
                                            <path d="M0,0 L14,0 L14,14 L0,14 L0,0 Z" id="check-circle-filled-(Background)"></path>
                                            <path d="M14,7 C14,3.13400674 10.8659935,0 7,0 C3.13400674,0 0,3.13400674 0,7 C0,10.8659935 3.13400674,14 7,14 C10.8659935,14 14,10.8659935 14,7 Z M3,6.5 L11,6.5 L11,7.5 L3,7.5 L3,6.5 Z" fill="#777777"></path>
                                        </g>
                                    </g>
                                </g>
                            </g>
                        </g>
                    </g>
                </g>
            </g>
        </g>
    </g>
</svg>