<?xml version="1.0" encoding="UTF-8"?>
<svg width="152px" height="92px" viewBox="0 0 152 92" version="1.1" xmlns="http://www.w3.org/2000/svg" xmlns:xlink="http://www.w3.org/1999/xlink">
    <defs>
        <linearGradient x1="52.8076724%" y1="28.8891386%" x2="48.3829261%" y2="69.8675766%" id="linearGradient-1">
            <stop stop-color="#DCDCE4" offset="0%"></stop>
            <stop stop-color="#DEDEE6" stop-opacity="0" offset="100%"></stop>
        </linearGradient>
        <linearGradient x1="54.2399413%" y1="28.7965176%" x2="47.6877961%" y2="69.3223284%" id="linearGradient-2">
            <stop stop-color="#DCDCE4" offset="0%"></stop>
            <stop stop-color="#DEDEE6" stop-opacity="0" offset="100%"></stop>
        </linearGradient>
        <linearGradient x1="51.9773551%" y1="32.2309933%" x2="48.9217714%" y2="66.7679217%" id="linearGradient-3">
            <stop stop-color="#DCDCE4" offset="0%"></stop>
            <stop stop-color="#DEDEE6" stop-opacity="0" offset="100%"></stop>
        </linearGradient>
        <linearGradient x1="52.6751359%" y1="30.3028678%" x2="48.451991%" y2="68.1369806%" id="linearGradient-4">
            <stop stop-color="#DCDCE4" offset="0%"></stop>
            <stop stop-color="#DEDEE6" stop-opacity="0" offset="100%"></stop>
        </linearGradient>
        <linearGradient x1="50.0005288%" y1="2.7880989%" x2="50.0005288%" y2="97.9038041%" id="linearGradient-5">
            <stop stop-color="#ECECF3" offset="0%"></stop>
            <stop stop-color="#FFFFFF" offset="51.2%"></stop>
            <stop stop-color="#F4F4F7" offset="100%"></stop>
        </linearGradient>
        <linearGradient x1="56.2907725%" y1="100%" x2="56.2907725%" y2="14.3434773%" id="linearGradient-6">
            <stop stop-color="#CBCBD6" offset="0%"></stop>
            <stop stop-color="#F8F8FC" offset="100%"></stop>
        </linearGradient>
        <linearGradient x1="49.9990182%" y1="2.59421869%" x2="49.9990182%" y2="107.566338%" id="linearGradient-7">
            <stop stop-color="#D0D0DA" offset="0%"></stop>
            <stop stop-color="#F8F8FA" stop-opacity="0" offset="100%"></stop>
        </linearGradient>
        <linearGradient x1="52.9822961%" y1="100%" x2="52.9822961%" y2="9.13669575%" id="linearGradient-8">
            <stop stop-color="#CBCBD7" offset="0%"></stop>
            <stop stop-color="#F8F8FB" offset="100%"></stop>
        </linearGradient>
        <linearGradient x1="40.9299569%" y1="95.3400235%" x2="38.0913941%" y2="2.99282289%" id="linearGradient-9">
            <stop stop-color="#66BDFF" offset="0%"></stop>
            <stop stop-color="#33A7FF" offset="100%"></stop>
        </linearGradient>
        <linearGradient x1="51.9160421%" y1="27.9413927%" x2="50.4972989%" y2="47.6251764%" id="linearGradient-10">
            <stop stop-color="#FFD2C4" offset="0%"></stop>
            <stop stop-color="#FFB8A3" offset="100%"></stop>
        </linearGradient>
        <linearGradient x1="4.21219451%" y1="19.1186792%" x2="86.4667612%" y2="85.730854%" id="linearGradient-11">
            <stop stop-color="#FFC552" offset="0%"></stop>
            <stop stop-color="#F5B32F" offset="100%"></stop>
        </linearGradient>
        <linearGradient x1="12.7727026%" y1="47.1863801%" x2="65.6905686%" y2="64.2230175%" id="linearGradient-12">
            <stop stop-color="#FED686" offset="0%"></stop>
            <stop stop-color="#FFD786" offset="100%"></stop>
        </linearGradient>
        <linearGradient x1="50.0002725%" y1="2.83536568%" x2="50.0002725%" y2="97.0445969%" id="linearGradient-13">
            <stop stop-color="#FFD685" stop-opacity="0.039" offset="0%"></stop>
            <stop stop-color="#DEAA43" offset="100%"></stop>
        </linearGradient>
        <linearGradient x1="49.9993605%" y1="2.44656189e-13%" x2="49.9993605%" y2="96.987174%" id="linearGradient-14">
            <stop stop-color="#EFEFF3" offset="0%"></stop>
            <stop stop-color="#CBCBD6" offset="100%"></stop>
        </linearGradient>
    </defs>
    <g id="讲师管理1.1" stroke="none" stroke-width="1" fill="none" fill-rule="evenodd">
        <g id="编组-62" transform="translate(-110.000000, -64.000000)">
            <g id="编组" transform="translate(110.000000, 64.000000)">
                <path d="M19.1923304,62.3484051 C23.883483,62.675276 27.7017584,65.5066645 28.9798464,69.1922955 C33.2273156,69.7012589 36.3710723,73.4455973 36.0692877,77.7421834 L36.0298158,78.3033864 C35.7185379,82.7372881 31.8567935,86.0801276 27.4039709,85.7696749 L7.5181606,84.3850756 C3.0658376,84.0751204 -0.291266905,80.2297854 0.0200109794,75.7963812 L0.0599824574,75.2351782 C0.367762838,70.8470483 4.15356144,67.5275923 8.5479258,67.7604319 C10.331653,64.2927147 14.5056746,62.0220317 19.1923304,62.3484051 Z" id="路径" fill="url(#linearGradient-1)" fill-rule="nonzero" opacity="0.34"></path>
                <path d="M53.0361808,37.8306003 C56.3977821,38.1823472 59.0358996,40.3774072 59.6684482,43.0729726 C62.4739463,43.5476071 64.4625274,46.11929 64.1612424,48.9770471 C63.8469666,51.951224 61.1713758,54.1089699 58.1845071,53.7960296 L44.4837834,52.3621758 C41.4969147,52.049733 39.329961,49.3850138 39.6442367,46.4113345 C39.9525167,43.4908898 42.5371724,41.3580199 45.4580882,41.5774264 C46.6422432,39.0763914 49.6785766,37.4793509 53.0361808,37.8306003 L53.0361808,37.8306003 Z" id="路径" fill="url(#linearGradient-2)" fill-rule="nonzero" opacity="0.34"></path>
                <path d="M111.617879,23.6836081 C115.224306,23.8721683 118.165707,25.9542911 118.980625,28.6344334 C121.618743,29.1254861 123.549365,31.4976633 123.404968,34.2394981 C123.24808,37.226113 120.688906,39.5201796 117.690046,39.3634606 L102.174118,38.553995 C99.1752578,38.397276 96.8714017,35.8494741 97.0282897,32.8633568 C97.1856774,29.8767419 99.7443517,27.5826753 102.743711,27.7393943 L103.795461,27.7941215 C104.905169,25.2388568 108.032937,23.4965404 111.617879,23.6836081 Z" id="路径" fill="url(#linearGradient-3)" fill-rule="nonzero" opacity="0.34"></path>
                <path d="M130.043731,63.5026524 C135.572286,63.8872356 140.10805,67.1061925 141.815331,71.3525291 L142.831606,71.4236745 C148.261232,71.80179 152.355311,76.4909196 151.975582,81.8979712 L151.90763,82.8701261 C151.527901,88.2771776 146.818262,92.3533622 141.388636,91.9757442 L115.819881,90.1951187 C110.390255,89.8170032 106.296177,85.1273761 106.675906,79.720822 L106.743857,78.7481696 C107.123586,73.3416156 111.833226,69.2649335 117.262851,69.643049 L117.289832,69.6445416 C119.573702,65.6763189 124.515676,63.1175716 130.043731,63.5026524 L130.043731,63.5026524 Z" id="路径" fill="url(#linearGradient-4)" fill-rule="nonzero" opacity="0.302"></path>
                <path d="M52.0858589,29.5434032 C51.4737956,32.8961931 51.3913544,35.711661 51.8385353,37.9888118 C52.5090569,41.4047868 56.0645199,45.6197795 59.4226236,49.0491876 C62.7807274,52.4785956 67.0396884,55.5094898 67.0396884,56.2786563 C67.0396884,57.0473253 60.9155583,61.4961526 57.210702,65.739504 C53.5063453,69.9828554 51.2024892,73.2699726 51.2024892,76.8177905 C51.2024892,79.1830025 51.586715,81.2337815 52.3556663,82.9696301 L89.6655435,82.9696301 C90.55341,81.6223449 90.9081568,79.5715659 90.7302837,76.8177905 C90.4634741,72.6873763 87.7189325,68.2450167 83.2781013,63.798677 C78.8372701,59.3518398 75.1284166,57.3652409 75.1284166,56.2786563 C75.1284166,55.1915743 80.872318,50.9905121 83.6533336,47.8884725 C86.4338495,44.7864329 90.5319253,40.3948204 90.7302837,35.6748445 C90.8626893,32.5285255 90.6153657,30.4847118 89.9888128,29.5434032 L52.0858589,29.5434032 L52.0858589,29.5434032 Z" id="路径" fill="url(#linearGradient-5)" fill-rule="nonzero"></path>
                <path d="M93.2220058,22.5109525 L49.6406037,22.5109525 C48.668091,22.5112272 47.8798601,23.2963316 47.8798601,24.2647119 L47.8798601,27.7712356 C47.8798601,28.7395354 48.6681719,29.5244974 49.6406037,29.5244974 L93.2220058,29.5244974 C94.1944376,29.5244974 94.9827494,28.7395354 94.9827494,27.7712356 L94.9827494,24.2647119 C94.9827494,23.2963316 94.1945184,22.5112272 93.2220058,22.5109525 L93.2220058,22.5109525 Z" id="路径" fill="url(#linearGradient-6)" fill-rule="nonzero"></path>
                <path d="M58.2079904,47.6854842 C63.6900786,49.3422271 67.73819,50.170101 70.3513254,50.170101 C72.9644607,50.170101 77.3982969,49.3422271 83.6523343,47.6854842 C83.4170022,48.0347435 82.387237,49.0760537 80.562539,50.8094147 C77.8259917,53.4099538 76.4959408,54.3567351 75.2178528,55.7438219 C73.9402644,57.1309087 73.1268449,57.3791714 73.0349105,58.9806896 C72.986445,59.8284643 72.0770939,67.3808238 72.0770939,71.7346247 C72.0770939,74.6371587 73.7014349,76.9705293 76.9491174,78.7347366 L63.6121342,78.5307532 C67.9005741,77.1168003 70.0450439,74.8510924 70.0450439,71.7346247 C70.0450439,67.0594256 69.4539657,59.7543338 69.3770206,58.9806896 C69.2311247,57.5204672 68.6585333,57.2806624 67.2605308,56.0368614 C66.5375467,55.3935676 64.6668816,53.9427981 62.5349028,51.9208752 C61.691005,51.1208625 60.2485343,49.7088996 58.2079904,47.6854842 L58.2079904,47.6854842 Z" id="路径" fill="url(#linearGradient-7)" fill-rule="nonzero"></path>
                <path d="M93.2220058,82.564151 L49.6406037,82.564151 C48.6681719,82.564151 47.8798601,83.3491131 47.8798601,84.3174129 L47.8798601,87.8244341 C47.8798601,88.7927339 48.6681719,89.5776959 49.6406037,89.5776959 L93.2220058,89.5776959 C94.1944376,89.5776959 94.9827494,88.7927339 94.9827494,87.8244341 L94.9827494,84.3174129 C94.9827494,83.3491131 94.1944376,82.564151 93.2220058,82.564151 L93.2220058,82.564151 Z" id="路径" fill="url(#linearGradient-8)" fill-rule="nonzero"></path>
                <path d="M72.2734538,31.7349805 L71.9721688,32.2454364 L72.7281294,32.6419602 L73.1138541,31.8170714 L72.2734538,31.7349805 Z M73.942263,30.7260092 L73.6784513,31.2021362 L74.4518994,31.6309988 L74.8376241,30.8061099 L73.942263,30.7260092 L73.942263,30.7260092 Z" id="形状" fill="#FFB8A3" fill-rule="nonzero"></path>
                <path d="M72.9759525,32.4713107 C72.9971832,32.4702947 73.0181862,32.476046 73.0359097,32.4877289 C73.3182083,32.7046477 73.5320557,32.9409699 73.6864455,33.0549021 C73.9407641,33.2429648 74.1626058,33.4360027 74.3269885,33.5449597 C74.4913712,33.6539167 74.8006505,33.8061579 74.9335557,33.9534239 C75.0316042,34.054505 75.072144,34.1978471 75.0414787,34.3350221 C75.0309861,34.3897493 75.0379811,34.4902484 74.9890161,34.6186087 C74.9700296,34.6678632 74.9320567,34.7151276 74.8900867,34.7071673 C74.1141404,34.5613938 73.3366951,34.2554188 72.901006,34.0832767 C72.470813,33.9131248 71.8182786,33.6713299 71.2516829,33.4514259 C71.1932246,33.4290374 71.1717399,33.3499317 71.1962225,33.283264 C71.3406194,32.8961931 71.4200628,32.6892246 71.5109979,32.5459387 C71.5974362,32.4091206 71.6788781,32.2359835 71.8492565,32.0832448 C71.8782358,32.0578712 71.9182073,32.0315027 71.9436891,32.0593638 L72.1520404,32.2902133 C72.2784502,32.429519 72.519778,32.4787735 72.6237039,32.4936991 C72.6931543,32.503152 72.8105705,32.4956892 72.9759525,32.4713107 L72.9759525,32.4713107 Z M74.7411929,31.3135807 C74.7601533,31.3132913 74.7787103,31.319044 74.7941551,31.3299989 C75.040979,31.5334848 75.2248478,31.7518962 75.3597515,31.8593606 C75.5820929,32.0354828 75.7749553,32.2155852 75.9188526,32.3185719 C76.0627499,32.4210611 76.3355553,32.5673321 76.4499736,32.7036527 C76.5648916,32.8394758 76.5529002,32.9698261 76.534913,33.0489319 C76.5234212,33.0976889 76.5269187,33.1882376 76.4784533,33.3016722 C76.4599665,33.345454 76.4249914,33.3867482 76.3870185,33.3782904 C75.6960116,33.223064 75.0085022,32.9250493 74.6232771,32.7568874 C74.2430484,32.5907156 73.6649609,32.3533984 73.1638185,32.1389671 C73.1123552,32.1165786 73.0953673,32.0449357 73.1198498,31.9862283 C73.261249,31.6434368 73.3391933,31.4603493 73.425132,31.3349741 C73.5070735,31.2145742 73.5855176,31.0623329 73.7434049,30.93049 C73.769886,30.9085991 73.80636,30.8862107 73.8283443,30.9120818 L74.0082159,31.125518 C74.1166386,31.2543758 74.3319849,31.3061179 74.424419,31.3225361 C74.4863748,31.3334816 74.5917995,31.3304964 74.7411929,31.3135807 L74.7411929,31.3135807 Z" id="形状" fill="#3E3E6E"></path>
                <path d="M75.8284171,19.6974747 C77.0445493,20.1238497 78.0383402,20.5611701 78.8102894,21.0084409 C79.9679633,21.6795959 80.8678212,22.8686697 80.5535455,23.8189336 C80.2387701,24.7691976 78.5464776,26.878684 77.3947994,28.2886568 C76.5972018,29.2600275 75.7654446,30.2030832 74.9010788,31.1160651 C74.8426327,31.1780857 74.7534004,31.200784 74.6722421,31.174275 L73.8728126,30.9145694 C74.4334584,30.0337398 75.0027461,29.1583937 75.580594,28.2886568 C77.0095743,26.1478265 77.9608955,24.7020323 77.785021,24.1005301 C77.6061486,23.4880826 76.6023649,22.8159325 75.0819498,21.6596951 C74.6202792,21.3084457 73.7868739,20.6895304 72.5812342,19.8034466 L75.8284171,19.6974747 L75.8284171,19.6974747 Z" id="路径" fill="url(#linearGradient-9)"></path>
                <path d="M67.7062128,21.1059549 C68.419204,22.4432897 69.1896543,23.2865868 70.0175635,23.6358461 C71.2591776,24.1597351 74.0237049,23.8831137 74.1940833,24.9597479 C74.3639621,26.036382 74.0237049,27.7523298 73.1123552,29.6891767 C72.5677438,30.8469066 72.2144959,31.5802517 72.0526114,31.8902069 C72.0407592,31.912903 72.0394669,31.9396251 72.0490743,31.9633502 C72.0586817,31.9870753 72.0782279,32.0054306 72.1025757,32.0135919 L72.9264878,32.2922033 C72.964464,32.3051112 73.0063988,32.290783 73.0284151,32.2573769 L77.0645351,26.1567819 C77.8524728,24.8035265 78.1387685,23.8860989 77.9234222,23.4030066 C77.6795962,22.8557341 77.0645351,22.2497543 75.874884,21.4766076 C74.9675314,20.8865484 73.6389794,20.2422595 73.1123552,20.0223555 C71.8137818,19.4805558 69.3790192,19.1427395 69.3790192,19.1486319 C69.3790192,19.1526899 68.821417,19.8054366 67.7062128,21.1059549 L67.7062128,21.1059549 Z" id="路径" fill="#7AC6FF" fill-rule="nonzero"></path>
                <path d="M86.7950917,1.88276215 C86.2679679,0.7125942 85.1882383,1.20862203 84.9539055,1.72057051 C84.7195728,2.23301651 84.9648977,2.64745099 84.6181451,2.89073846 C84.2708929,3.13452345 81.5353449,5.12958021 80.1878064,5.49028249 C79.2894475,5.73058484 77.0150704,6.00571361 73.3656744,6.31616634 C73.2132832,5.63157828 73.3876588,5.28928426 73.8883015,5.28928426 C74.67524,5.28928426 74.9425492,4.14498736 74.8696013,3.11263256 C74.7207075,1.01309652 74.4728844,0.501645556 73.4820914,0.501645556 C72.4912984,0.501645556 71.4475431,0.550402554 71.2576786,1.72057051 C71.0678141,2.89073846 71.011854,3.58975461 71.2576786,4.39225499 C71.5035032,5.19425786 71.5035032,5.685808 71.2576786,5.90322441 C71.011854,6.12163587 68.9343365,6.66691821 68.1833723,7.43558721 C67.4324082,8.20375869 66.0019289,10.1216998 65.5987166,11.822722 C65.1950047,13.5242417 64.5379735,15.8406967 64.02434,17.532266 C63.5107066,19.2238353 63.1809419,21.1278458 62.7542463,21.4233729 C62.3275508,21.7184025 60.82912,21.4790952 60.1171281,22.0109445 C59.4051361,22.5427938 59.3471775,23.2229042 60.0201972,23.2229042 L61.8184141,23.2229042 C61.3992132,23.7000262 61.332261,23.938836 61.6170578,23.938836 C62.0452522,23.938836 62.8926476,23.560223 63.4052818,22.9587209 C63.7040686,22.6084665 63.7535333,22.5393112 63.8889367,22.2761229 C64.02434,22.0129346 63.9394007,21.8726338 64.0783015,21.4790952 C64.2796579,20.9089369 65.2369748,19.4512021 66.2762332,17.3083818 C66.4486102,16.9536498 66.6774469,16.4277707 66.9622437,15.7312422 C67.1016442,19.398465 67.2915087,21.1870508 67.5323369,21.096502 C67.8940788,20.9611765 68.8833728,19.5740897 71.2576786,19.6477227 C73.6319844,19.7218532 73.8408354,20.3328082 75.2433346,19.8457358 C76.6463335,19.3586633 76.1307014,18.9870156 75.7859474,18.2596408 C75.4411934,17.532266 74.7796655,15.9431859 74.7796655,12.9759743 L74.7796655,9.19581435 C76.5329144,9.30974652 77.8279903,9.16944577 78.6648931,8.77441458 C79.9204972,8.18236531 83.1991577,5.92213019 83.9086514,5.28928426 C84.3813141,4.86738697 84.8984451,4.21513774 85.4590451,3.33253657 C86.7016584,3.14646394 87.1468407,2.66337164 86.7950917,1.88325967 L86.7950917,1.88276215 Z" id="路径" fill="url(#linearGradient-10)"></path>
                <path d="M70.1884416,6.30273329 C68.8988618,6.73209338 67.8690966,7.4500153 67.1001453,8.45699657 C65.9464685,9.96697095 65.3903653,10.6838978 65.4723068,11.2033091 C65.5542484,11.7232179 67.1001453,12.4018357 67.1001453,12.5784555 C67.1001453,12.7555727 66.7329073,15.3566093 66.7329073,17.2322612 C66.7329073,19.107913 67.257533,21.2208821 67.5213447,21.2208821 C67.7851565,21.2208821 68.5720949,19.7094152 71.3895845,19.8536961 C74.2065744,19.997977 74.6332699,20.3805702 75.4341984,19.9999671 C76.2351269,19.619364 76.505434,19.3049311 76.0552553,18.4904902 C75.6045768,17.6760494 74.7956541,16.28747 74.7956541,13.1242353 C74.7956541,11.0157439 74.8955828,9.79433137 75.0949405,9.46099271 C76.4025075,9.48586873 77.1479755,9.45950015 77.332344,9.38138945 C77.6086468,9.26496968 76.9221367,5.91168226 76.7272757,5.79824761 C76.5329144,5.68531048 75.4731706,5.91168226 74.7956541,5.91168226 C74.344476,5.91168226 73.8713136,6.0420326 73.3771662,6.30273329 C73.6644612,6.89627511 73.7344113,7.41120871 73.5855176,7.84803161 C73.4371235,8.28485451 72.9819483,8.42316518 72.219992,8.2624661 C71.5424754,8.13709096 71.0513259,7.89330597 70.7465433,7.53111113 C70.4481706,7.18207962 70.2547291,6.75631628 70.1884416,6.30273329 L70.1884416,6.30273329 Z" id="路径" fill="#0091FF"></path>
                <path d="M71.1977214,4.94599519 C71.0293416,3.64547689 70.1929384,2.03251579 70.3927958,1.47827808 C70.5267002,1.10862043 70.7945091,0.896179224 71.1972218,0.842447022 C71.485516,0.112087091 72.1760233,-0.143638388 73.2687436,0.0762656233 C73.5125696,0.125022621 73.8223486,0.401643957 74.0761675,0.410101804 C74.5303434,0.425027416 74.6832343,0.400648917 74.9875172,0.458858802 C75.3882312,0.535476942 75.5086453,0.704633874 75.5451193,0.921552764 C75.6090736,1.30862363 75.5166396,1.70017217 74.9875172,1.98077367 C74.5118566,2.23301651 74.0801646,1.93898196 73.7503999,2.01609762 C73.5295575,2.06783974 73.1648178,2.58277334 72.6576796,3.56089843 L72.6282007,3.29621758 C72.5322691,2.76387076 72.3344103,2.54247419 72.0346242,2.6330229 C71.7353378,2.72357161 71.6384069,2.93999298 71.7428324,3.28328205 C71.8142815,3.93254616 71.8212765,4.34698064 71.7638175,4.52608798 C71.7063585,4.70519532 71.5174932,4.84549607 71.1977214,4.94599519 L71.1977214,4.94599519 Z" id="路径" fill="#353564"></path>
                <polygon id="路径" fill="#DB9710" fill-rule="nonzero" points="29.391053 50.1268167 43.3236113 57.0726989 40.4981274 60.8732571 29.391053 50.1268167"></polygon>
                <polygon id="路径" fill="url(#linearGradient-11)" fill-rule="nonzero" points="29.391053 50.1268167 40.4966285 60.8722621 41.3715042 56.4199521"></polygon>
                <polygon id="路径" fill="url(#linearGradient-12)" fill-rule="nonzero" points="29.391053 50.1268167 36.2206796 55.4234188 41.369006 56.4189571 29.391053 50.1268167"></polygon>
                <polygon id="路径" fill="#FFD580" fill-rule="nonzero" points="31.2916968 51.072603 47.4536642 57.1736955 43.3251102 57.0726989"></polygon>
                <path d="M85.9801732,0.687220661 C94.4925991,2.01361002 101.676973,3.75045369 107.532794,5.89725417 C129.254295,13.8615606 134.639452,26.7020643 134.639452,34.8609011 C133.64766,46.79144 128.409897,52.428346 123.173633,55.5761575 C114.838581,60.5866854 105.200958,58.0926157 102.817159,55.5761575 C98.9359285,51.4785796 106.157775,45.2401715 113.31267,49.8969623 C120.467564,54.5537531 100.738143,70.9644632 80.1328457,68.0584466 C66.3961476,66.1211022 54.0044898,62.5056215 42.9583719,57.2115071" id="路径" stroke="url(#linearGradient-13)" stroke-width="0.5" opacity="0.398" stroke-linecap="round" stroke-dasharray="1.320000052452087"></path>
                <path d="M69.3355502,76.8093327 C77.776527,76.8093327 87.0733932,78.3859748 90.5758939,80.1556548 C90.4200051,81.1054212 90.1526959,81.9074241 89.7729668,82.5611659 C89.5811038,82.5795741 89.3867424,82.589027 89.1943797,82.589027 L52.305702,82.5885295 L52.2292565,82.5885295 C51.9161299,81.8338991 51.6760453,81.0512339 51.5122682,80.2511787 C55.5733703,78.45314 60.7441806,76.8093327 69.3355502,76.8093327 L69.3355502,76.8093327 Z" id="路径" fill="url(#linearGradient-14)" fill-rule="nonzero"></path>
            </g>
        </g>
    </g>
</svg>