<?xml version="1.0" encoding="UTF-8"?>
<svg width="14px" height="14px" viewBox="0 0 14 14" version="1.1" xmlns="http://www.w3.org/2000/svg" xmlns:xlink="http://www.w3.org/1999/xlink">
    <title>待交付</title>
    <g id="页面-1" stroke="none" stroke-width="1" fill="none" fill-rule="evenodd">
        <g id="班期详情弹窗-学员列表" transform="translate(-985.000000, -176.000000)">
            <g id="编组-8" transform="translate(712.000000, 0.000000)">
                <g id="编组-3" transform="translate(273.000000, 172.000000)">
                    <g id="close-circle-filled" transform="translate(0.000000, 4.000000)">
                        <path d="M0,0 L14,0 L14,14 L0,14 L0,0 Z" id="close-circle-filled-(Background)"></path>
                        <g id="编组-10">
                            <path d="M7,0 C3.13400912,0 0,3.13400483 0,7 C0,10.8659916 3.13400483,14 7,14 C10.8659916,14 14,10.8659954 14,7 C14,3.13400912 10.8659954,0 7,0 Z" id="close-circle-filled" fill="#F53F3F"></path>
                            <polygon id="close-circle-filled" fill="#FFFFFF" points="7.00001192 6.29075146 9.32911777 3.94753814 10.0383558 4.65250731 7.70499325 7.00000286 10.0383472 9.34748936 9.32910824 10.0524578 7.00001144 7.70925426 4.6709156 10.0524578 3.9616766 9.3474884 6.29503059 7.00000286 3.96166778 4.65250683 4.67090654 3.94753814"></polygon>
                        </g>
                    </g>
                </g>
            </g>
        </g>
    </g>
</svg>