<?xml version="1.0" encoding="UTF-8"?>
<svg width="20px" height="20px" viewBox="0 0 20 20" version="1.1" xmlns="http://www.w3.org/2000/svg" xmlns:xlink="http://www.w3.org/1999/xlink">
    <title>切片</title>
    <g id="设计稿修改" stroke="none" stroke-width="1"  fill-rule="evenodd">
        <g id="2.2-图片-跳转类型" transform="translate(-945.000000, -552.000000)"  fill-rule="nonzero">
            <g id="编组-26" transform="translate(899.000000, 68.000000)">
                <g id="编组-24" transform="translate(24.000000, 282.000000)">
                    <g id="编组-23" transform="translate(0.000000, 38.000000)">
                        <g id="编组-17备份" transform="translate(12.000000, 124.000000)">
                            <g id="编组-16" transform="translate(10.000000, 10.000000)">
                                <g id="移动-选中" transform="translate(0.000000, 30.000000)">
                                    <path d="M14.9316117,4.16677005 C15.1071942,4.16357158 15.2753518,4.23472333 15.3914041,4.3613199 L17.3308368,6.34670109 C17.5651371,6.59085159 17.5548164,6.96970026 17.3075434,7.20174767 C17.1635546,7.29737394 16.9966266,7.3562856 16.822432,7.37295154 L16.818381,7.37684253 C16.6438903,7.37500866 16.4777698,7.30471885 16.3585886,7.18229269 L15.514,6.31266667 L15.514,13.6326667 L16.3079506,12.8177073 C16.5489414,12.5805233 16.9434546,12.5728436 17.1942528,12.8004544 C17.445051,13.0280652 17.459415,13.4068196 17.2265227,13.6513534 L15.28709,15.6386801 C15.236452,15.7612465 15.0571938,15.8332299 14.8819865,15.8332299 L14.8769227,15.8332299 C14.7013402,15.8364284 14.5331826,15.7652767 14.4171303,15.6386801 L12.4776976,13.6532989 C12.3222943,13.4953466 12.2664282,13.2697612 12.3311434,13.0615186 C12.3958587,12.853276 12.5713236,12.6940131 12.7914422,12.6437228 C13.0115608,12.5934325 13.2428919,12.659755 13.3982952,12.8177073 L14.238,13.6816667 L14.238,6.36966667 L13.4499459,7.18131994 C13.2959124,7.34305294 13.0630609,7.41245756 12.8407609,7.36289593 C12.6184609,7.3133343 12.4412489,7.15250625 12.3771397,6.94213849 C12.3130305,6.73177073 12.3719841,6.50454578 12.5313738,6.34767384 L14.4718193,4.3613199 C14.5910006,4.23889373 14.7571211,4.16860392 14.9316117,4.16677005 Z M9.85060185,12.6974336 C10.0203174,12.6958585 10.1835594,12.7599187 10.3035721,12.8751902 C10.4235847,12.9904617 10.4902796,13.1472547 10.4886693,13.3102657 C10.4832108,13.6465398 10.2007071,13.9178832 9.85060185,13.9230977 L3.13803791,13.9230977 C2.7856593,13.9230977 2.5,13.6487234 2.5,13.3102657 C2.5,12.9718079 2.7856593,12.6974336 3.13803791,12.6974336 L9.85060185,12.6974336 Z M9.87592082,9.16732665 C10.0456364,9.16575156 10.2088784,9.22981169 10.328891,9.34508319 C10.4489037,9.4603547 10.5155986,9.61714775 10.5139883,9.78015867 C10.5085298,10.1164329 10.226026,10.3877762 9.87592082,10.3929907 L3.16335688,10.3929907 C2.81097828,10.3929907 2.52531899,10.1186164 2.52531899,9.78015867 C2.52531899,9.4417009 2.81097828,9.16732667 3.16335688,9.16732665 L9.87592082,9.16732665 Z M9.87592082,6.07787508 C10.0456364,6.07629998 10.2088784,6.14036011 10.328891,6.25563162 C10.4489037,6.37090312 10.5155986,6.52769618 10.5139883,6.6907071 C10.5085298,7.02698128 10.226026,7.29832463 9.87592082,7.30353912 L3.16335688,7.30353912 C2.81097827,7.30353912 2.52531896,7.02916488 2.52531896,6.6907071 C2.52531896,6.35224932 2.81097827,6.07787508 3.16335688,6.07787508 L9.87592082,6.07787508 Z" id="形状结合"></path>
                                </g>
                            </g>
                        </g>
                    </g>
                </g>
            </g>
        </g>
    </g>
</svg>