<?xml version="1.0" encoding="UTF-8"?>
<svg width="24px" height="24px" viewBox="0 0 24 24" version="1.1" xmlns="http://www.w3.org/2000/svg" xmlns:xlink="http://www.w3.org/1999/xlink">
    <g id="ai外呼" stroke="none" stroke-width="1" fill="none" fill-rule="evenodd">
        <g id="企微能力开放-调用API详情" transform="translate(-713.000000, -265.000000)">
            <g id="编组-2" transform="translate(483.000000, 0.000000)">
                <g id="编组-6" transform="translate(21.000000, 265.000000)">
                    <g id="编组-21" transform="translate(16.000000, 0.000000)">
                        <g id="编组-2" transform="translate(193.000000, 0.000000)">
                            <g id="编组-44备份-4" fill="#999999">
                                <circle id="椭圆形" cx="12" cy="12" r="12"></circle>
                            </g>
                            <g id="编组" transform="translate(6.000000, 6.000000)" fill="#FFFFFF" fill-rule="nonzero">
                                <path d="M9.60538468,9.59765922 C9.99139322,9.99394384 10.4582797,10.232016 10.9758988,10.3811877 L11.1501541,10.4271447 C11.5133697,10.4949501 11.7038006,10.8339768 11.7199762,11.1805375 C11.7199762,11.5873696 11.4310213,11.9339303 11.0339839,11.9934483 C10.6545927,12.0439257 10.2575553,11.7983196 10.1752068,11.4088155 C10.0597719,10.8083615 9.8112559,10.2832467 9.38186735,9.84326528 C9.33260531,9.79203457 9.36569175,9.68203922 9.3487809,9.59765922 L9.5421528,9.58259137 C9.57156297,9.58259137 9.59362061,9.58635833 9.60538468,9.59765922 L9.60538468,9.59765922 Z M10.3075526,1.92812048 C11.1163324,2.80808327 11.563367,3.84927213 11.5795426,5.05997436 C11.3744577,4.96479162 11.1517765,4.91597048 10.9266368,4.91682973 L10.8935503,4.91682973 C10.1215587,4.94873719 9.48725703,5.55201071 9.3987782,6.33848195 C9.38224191,6.47910897 9.38224191,6.62126169 9.3987782,6.76188871 C9.10908798,7.05797208 8.75396012,7.2440601 8.31648378,7.32015278 L8.30766073,7.32015278 C7.73772373,7.44393921 7.28810184,7.89260578 7.15223984,8.47311872 C7.01637784,9.05363166 7.21850785,9.66245161 7.6716657,10.0376406 C7.17542639,10.1928739 6.66157858,10.2812611 6.14307188,10.3005747 C5.47928672,10.3331002 4.81439267,10.267381 4.16891392,10.105446 C4.06044763,10.0914909 3.95030369,10.1030862 3.84687251,10.1393486 L2.35136514,10.8927415 C2.16093426,10.9944495 1.98741423,11.0110241 1.82198199,10.8761668 C1.66537282,10.7571307 1.64919722,10.57933 1.66537282,10.3676267 C1.73154571,9.9449733 1.781543,9.52156655 1.82271725,9.09815979 C1.81598789,8.99442532 1.77502042,8.89612213 1.70654706,8.81940446 C1.05437644,8.14963825 0.492642107,7.41357348 0.21177494,6.48237998 C-0.317608201,4.63656761 0.161777644,3.05444272 1.46758939,1.73299174 C3.85496031,-0.662797373 8.0260583,-0.552802024 10.3075526,1.92812048 Z M13.2816565,8.03135558 C13.6948694,8.08258629 14,8.42085966 14,8.84426642 C14,9.25109853 13.7603071,9.58033119 13.364005,9.65717725 C12.8787371,9.74758439 12.4405255,9.95853438 12.0758393,10.2824933 L11.9434935,10.4105701 C11.8604098,10.4949501 11.7368871,10.5710427 11.6538033,10.4444727 C11.6207169,10.3766674 11.6376277,10.2154413 11.6868898,10.164964 C12.0759906,9.76104657 12.3329304,9.24317803 12.4221441,8.68304036 C12.49843,8.26904063 12.8729753,7.98505929 13.2816565,8.03135558 L13.2816565,8.03135558 Z M10.1913824,7.26967546 C10.1752068,7.35405545 10.2082933,7.48062544 10.158296,7.53185615 C9.74581826,7.95526291 9.52230093,8.46304966 9.406866,9.04768248 C9.32378225,9.47033584 8.94365575,9.71594189 8.54735365,9.64813654 C8.15031629,9.58033119 7.85327353,9.22472978 7.85327353,8.82693838 C7.85327353,8.47133698 8.1098773,8.14135093 8.45618211,8.07354558 C9.01521919,7.98008523 9.53213434,7.71103954 9.93551388,7.30357813 C9.98477593,7.25234742 10.1090339,7.26967546 10.1913824,7.26967546 L10.1913824,7.26967546 Z M10.9266368,5.67775646 C11.2905877,5.67775646 11.6288047,5.92336252 11.7038006,6.3128666 C11.8023247,6.89674602 12.0508407,7.40528616 12.4552306,7.82793953 C12.5052279,7.87917024 12.4721414,8.02306826 12.488317,8.10744826 C12.3890577,8.10744826 12.265535,8.14135093 12.2162729,8.09087361 C11.8023247,7.65013882 11.2898524,7.4218608 10.7200303,7.29529081 C10.3385391,7.20203098 10.0862766,6.8300322 10.1340326,6.43114927 C10.1913824,6.0084959 10.5141591,5.6950845 10.9266368,5.67775646 L10.9266368,5.67775646 Z" id="形状"></path>
                            </g>
                        </g>
                    </g>
                </g>
            </g>
        </g>
    </g>
</svg>