<?xml version="1.0" encoding="UTF-8"?>
<svg width="14px" height="14px" viewBox="0 0 14 14" version="1.1" xmlns="http://www.w3.org/2000/svg" xmlns:xlink="http://www.w3.org/1999/xlink">
    <title>锁定交付</title>
    <g id="页面-1" stroke="none" stroke-width="1" fill="none" fill-rule="evenodd">
        <g id="交付状态" transform="translate(-69.000000, -152.000000)">
            <g id="编组-5" transform="translate(69.000000, 147.500000)">
                <g id="锁定交付" transform="translate(0.000000, 4.500000)">
                    <path d="M0,0 L14,0 L14,14 L0,14 L0,0 Z" id="close-circle-filled-(Background)"></path>
                    <g id="编组-2" transform="translate(1.000000, 1.000000)">
                        <g id="锁" transform="translate(0.000000, 3.812505)" fill="#6E00FB" fill-rule="nonzero">
                            <path d="M11.0833362,8.18749491 L0.916663821,8.18749491 C0.410385174,8.18749491 0,7.7957633 0,7.31249695 L0,0.874997961 C0,0.391731606 0.410385174,0 0.916663821,0 L11.0833362,0 C11.5896148,0 12,0.391731606 12,0.874997961 L12,7.31249695 C12,7.7957633 11.5895978,8.18749491 11.0833362,8.18749491 Z M5.71666384,4.73213153 L5.71666384,6.17639741 L6.63332766,6.17639741 L6.63332766,4.73213153 C7.16617898,4.55130729 7.54999148,4.07062786 7.54999148,3.49999186 C7.54999148,2.77510047 6.93440518,2.18749491 6.17499574,2.18749491 C5.4155863,2.18749491 4.8,2.77510047 4.8,3.49999186 C4.8,4.07062785 5.18379547,4.55130729 5.71666384,4.73213153 Z" id="形状"></path>
                        </g>
                        <path d="M6,0.5 C6.69035594,0.5 7.31535594,0.779822031 7.76776695,1.23223305 C8.22017797,1.68464406 8.5,2.30964406 8.5,3 L8.5,3 L8.5,4.5 L3.5,4.5 L3.5,3 C3.5,2.30964406 3.77982203,1.68464406 4.23223305,1.23223305 C4.68464406,0.779822031 5.30964406,0.5 6,0.5 Z" id="矩形" stroke="#6E00FB"></path>
                    </g>
                </g>
            </g>
        </g>
    </g>
</svg>