<?xml version="1.0" encoding="UTF-8"?>
<svg width="32px" height="32px" viewBox="0 0 32 32" version="1.1" xmlns="http://www.w3.org/2000/svg" xmlns:xlink="http://www.w3.org/1999/xlink">
    <title>切片</title>
    <g id="设计稿修改" stroke="none" stroke-width="1"  fill-rule="evenodd">
        <g id="图标" transform="translate(-66.000000, -123.000000)"  fill-rule="nonzero">
            <g id="编组-13" transform="translate(36.000000, 36.000000)">
                <g id="编组-25备份" transform="translate(0.000000, 77.000000)">
                    <g id="左侧按钮-图片" transform="translate(30.000000, 10.000000)">
                        <path d="M30.7692308,2.4 L1.23076923,2.4 C0.551153846,2.4 0,2.95365909 0,3.63636364 L0,28.3636364 C0,29.0463409 0.551153846,29.6 1.23076923,29.6 L30.7692308,29.6 C31.4488462,29.6 32,29.0463409 32,28.3636364 L32,3.63636364 C32,2.95365909 31.4488462,2.4 30.7692308,2.4 Z M29.5384615,4.87272727 L29.5384615,23.1094773 L20.8,16.5258409 C20.1473077,16.0343864 19.2376923,16.0343864 18.585,16.5258409 L14.7934615,19.3818409 L9.73846154,15.3196136 C9.105,14.81 8.22807692,14.7713636 7.55346154,15.2272727 L2.46153846,18.6666818 L2.46153846,4.87272727 L29.5384615,4.87272727 Z M2.46153846,27.1272727 L2.46153846,21.6470909 L8.55230769,17.5330909 L14.7453846,22.5094545 L19.6923077,18.7818182 L29.5384615,26.2 L29.5384615,27.1272727 L2.46153846,27.1272727 Z" id="形状"></path>
                        <path d="M23.3846154,14.7636364 C25.4207692,14.7636364 27.0769231,13.0999545 27.0769231,11.0545455 C27.0769231,9.00913636 25.4207692,7.34545455 23.3846154,7.34545455 C21.3484615,7.34545455 19.6923077,9.00913636 19.6923077,11.0545455 C19.6923077,13.0999545 21.3484615,14.7636364 23.3846154,14.7636364 Z M23.3846154,9.81818182 C24.0630769,9.81818182 24.6153846,10.373 24.6153846,11.0545455 C24.6153846,11.7360909 24.0630769,12.2909091 23.3846154,12.2909091 C22.7061538,12.2909091 22.1538462,11.7360909 22.1538462,11.0545455 C22.1538462,10.373 22.7061538,9.81818182 23.3846154,9.81818182 Z" id="形状"></path>
                    </g>
                </g>
            </g>
        </g>
    </g>
</svg>