<?xml version="1.0" encoding="UTF-8"?>
<svg width="14px" height="14px" viewBox="0 0 14 14" version="1.1" xmlns="http://www.w3.org/2000/svg" xmlns:xlink="http://www.w3.org/1999/xlink">
    <title>交付中</title>
    <g id="页面-1" stroke="none" stroke-width="1" fill="none" fill-rule="evenodd">
        <g id="班期详情弹窗-学员列表" transform="translate(-985.000000, -231.000000)" fill="#0C6FFF">
            <g id="编组-8" transform="translate(712.000000, 0.000000)">
                <g id="编组-4" transform="translate(273.000000, 227.000000)">
                    <g id="交付中" transform="translate(0.000000, 4.000000)">
                        <path d="M7,0 C10.8659935,0 14,3.13400674 14,7 C14,10.8659935 10.8659935,14 7,14 C3.13400674,14 0,10.8659935 0,7 C0,3.13400674 3.13400674,0 7,0 Z M4.35,4.35 L2.35,4.35 L2.35,5.05 L3.11104637,5.04889208 C2.81073608,5.64636074 2.65,6.31120981 2.65,7 C2.65,9.40243876 4.59756129,11.35 7,11.35 C7.59603321,11.35 8.17587022,11.2298648 8.71242945,10.9998766 L8.71242945,10.9998766 L8.43665123,10.35649 L8.20882469,10.4451777 C7.82441186,10.580066 7.41731953,10.65 7,10.65 C4.98416061,10.65 3.35,9.01583943 3.35,7 C3.35,6.49364249 3.45322806,6.0033271 3.64795428,5.55284169 L3.65,6.35 L4.35,6.35 L4.35,4.35 Z M7,2.65 C6.40560309,2.65 5.82730553,2.76947591 5.29195997,2.99824483 L5.29195997,2.99824483 L5.56702792,3.64193546 L5.79432376,3.55371942 C6.17781747,3.41955058 6.58382469,3.35 7,3.35 C9.01583943,3.35 10.65,4.98416061 10.65,7 C10.65,7.62386158 10.4933178,8.22340968 10.2017518,8.75420705 L10.2,7.85 L9.5,7.85 L9.5,9.85 L11.5,9.85 L11.5,9.15 L10.7826075,9.14963596 C11.1512287,8.50243583 11.35,7.76598707 11.35,7 C11.35,4.59756129 9.40243876,2.65 7,2.65 Z" id="形状结合"></path>
                    </g>
                </g>
            </g>
        </g>
    </g>
</svg>