<?xml version="1.0" encoding="UTF-8"?>
<svg width="28px" height="28px" viewBox="0 0 28 28" version="1.1" xmlns="http://www.w3.org/2000/svg" xmlns:xlink="http://www.w3.org/1999/xlink">
    <title>切片</title>
    <g id="设计稿修改" stroke="none" stroke-width="1"  fill-rule="evenodd">
        <g id="图标" transform="translate(-903.000000, -189.000000)" >
            <g id="编组-14" transform="translate(868.000000, 36.000000)">
                <g id="编组备份" transform="translate(25.000000, 153.000000)">
                    <g id="一行一张备份" transform="translate(10.000000, 0.000000)">
                        <path d="M28,25.375 L28,28 L0,28 L0,25.375 L28,25.375 Z M28,0 L28,23.625 L0,23.625 L0,0 L28,0 Z M26.25,1.75 L1.75,1.75 L1.75,12.8401277 L6.35732244,10.5874376 C6.91686671,10.3137171 7.63022717,10.3121707 8.18672534,10.5709084 L8.334375,10.6479176 L12.9082884,13.3085313 L16.3389844,11.4379534 C16.8803451,11.142892 17.6170464,11.1183035 18.1909639,11.364188 L18.3431818,11.4379534 L26.25,15.75 L26.25,1.75 Z M21.875,4.375 C22.8400521,4.375 23.625,5.15994792 23.625,6.125 C23.625,7.09005208 22.8400521,7.875 21.875,7.875 C20.9099479,7.875 20.125,7.09005208 20.125,6.125 C20.125,5.15994792 20.9099479,4.375 21.875,4.375 Z" id="形状结合"></path>
                    </g>
                </g>
            </g>
        </g>
    </g>
</svg>