<?xml version="1.0" encoding="UTF-8"?>
<svg width="20px" height="20px" viewBox="0 0 20 20" version="1.1" xmlns="http://www.w3.org/2000/svg" xmlns:xlink="http://www.w3.org/1999/xlink">
    <title>切片</title>
    <g id="设计稿修改" stroke="none" stroke-width="1"  fill-rule="evenodd">
        <g id="图标" transform="translate(-470.000000, -465.000000)"  fill-rule="nonzero">
            <g id="编组-5" transform="translate(428.000000, 36.000000)">
                <g id="删除备份" transform="translate(42.000000, 429.000000)">
                    <path d="M15.0000957,6.25 L5.00009569,6.25 L5.00009569,15 C5.00009569,15.3315206 5.13179173,15.649463 5.3662122,15.8838835 C5.60063268,16.118304 5.91857507,16.25 6.25009568,16.25 L13.7500957,16.25 C14.0816163,16.25 14.3995587,16.118304 14.6339792,15.8838835 C14.8683996,15.649463 15.0000957,15.3315206 15.0000957,15 L15.0000957,6.25 L15.0000957,6.25 Z M3.75009568,5 L6.25009568,5 L6.25009568,3.75 C6.25009568,3.05964406 6.80973974,2.5 7.50009568,2.5 L12.5000957,2.5 C13.1904516,2.5 13.7500957,3.05964406 13.7500957,3.75 L13.7500957,5 L16.8750957,5 C17.2202363,5.00005284 17.5,5.2798594 17.5,5.625 C17.5,5.97014061 17.2202363,6.24994716 16.8750957,6.25 L16.2500957,6.25 L16.2500957,15 C16.2500957,16.3807119 15.1308076,17.5 13.7500957,17.5 L6.25009568,17.5 C4.86938381,17.5 3.75009568,16.3807119 3.75009568,15 L3.75009568,6.25 L3.12509569,6.25 C2.90178191,6.25003419 2.69541683,6.13091734 2.58375007,5.93752763 C2.47208331,5.74413791 2.47208331,5.50586209 2.58375007,5.31247238 C2.69541683,5.11908267 2.90178191,4.99996582 3.12509569,5 L3.75009568,5 Z M7.50009568,5 L12.5000957,5 L12.5000957,3.75 L7.50009568,3.75 L7.50009568,5 Z M8.12509568,8.75 C8.47009568,8.75 8.75009569,9.03000001 8.75009569,9.375 L8.75009569,13.125 C8.75009569,13.470178 8.47027365,13.75 8.12509568,13.75 C7.77991771,13.75 7.50009568,13.470178 7.50009568,13.125 L7.50009568,9.375 C7.50009568,9.03 7.78009568,8.75 8.12509568,8.75 L8.12509568,8.75 Z M11.8750957,8.75 C12.2200957,8.75 12.5000957,9.03000001 12.5000957,9.375 L12.5000957,13.125 C12.5000957,13.470178 12.2202737,13.75 11.8750957,13.75 C11.5299177,13.75 11.2500957,13.470178 11.2500957,13.125 L11.2500957,9.375 C11.2500957,9.03 11.5300957,8.75 11.8750957,8.75 L11.8750957,8.75 Z" id="形状"></path>
                </g>
            </g>
        </g>
    </g>
</svg>