<?xml version="1.0" encoding="UTF-8"?>
<svg width="28px" height="28px" viewBox="0 0 28 28" version="1.1" xmlns="http://www.w3.org/2000/svg" xmlns:xlink="http://www.w3.org/1999/xlink">
    <title>切片</title>
    <g id="设计稿修改" stroke="none" stroke-width="1"  fill-rule="evenodd">
        <g id="图标" transform="translate(-1001.000000, -189.000000)" >
            <g id="编组-14" transform="translate(868.000000, 36.000000)">
                <g id="编组备份" transform="translate(25.000000, 153.000000)">
                    <g id="一行二张-灰备份" transform="translate(108.000000, 0.000000)">
                        <path d="M28,25.375 L28,28 L0,28 L0,25.375 L28,25.375 Z M28,0 L28,23.625 L14.875,23.625 L14.875,0 L28,0 Z M13.125,0 L13.125,23.625 L0,23.625 L0,0 L13.125,0 Z M26.25,1.75 L16.625,1.75 L16.625,12.25 L17.6489534,11.1618132 L17.6739359,11.1361976 C18.0363544,10.7776585 18.6037264,10.7529815 18.9943707,11.0601128 L19.088129,11.1438072 L20.182481,12.25 L22.6244255,10.121008 C22.9768618,9.81373893 23.4895153,9.79476723 23.8614558,10.059962 L23.9591792,10.1393302 L26.25,12.25 L26.25,1.75 Z M11.375,1.75 L1.75,1.75 L1.75,12.25 L2.77395339,11.1618132 L2.79893592,11.1361976 C3.16135435,10.7776585 3.7287264,10.7529815 4.11937066,11.0601128 L4.21312901,11.1438072 L5.30748102,12.25 L7.74942553,10.121008 C8.10186176,9.81373893 8.61451529,9.79476723 8.98645575,10.059962 L9.08417921,10.1393302 L11.375,12.25 L11.375,1.75 Z M23.1875,3.5 C23.9112891,3.5 24.5,4.08871094 24.5,4.8125 C24.5,5.53628906 23.9112891,6.125 23.1875,6.125 C22.4637109,6.125 21.875,5.53628906 21.875,4.8125 C21.875,4.08871094 22.4637109,3.5 23.1875,3.5 Z M8.3125,3.5 C9.03628906,3.5 9.625,4.08871094 9.625,4.8125 C9.625,5.53628906 9.03628906,6.125 8.3125,6.125 C7.58871094,6.125 7,5.53628906 7,4.8125 C7,4.08871094 7.58871094,3.5 8.3125,3.5 Z" id="形状结合"></path>
                    </g>
                </g>
            </g>
        </g>
    </g>
</svg>