<?xml version="1.0" encoding="UTF-8"?>
<svg width="24px" height="24px" viewBox="0 0 24 24" version="1.1" xmlns="http://www.w3.org/2000/svg" xmlns:xlink="http://www.w3.org/1999/xlink">
    <g id="ai外呼" stroke="none" stroke-width="1" fill="none" fill-rule="evenodd">
        <g id="企微能力开放-调用API详情" transform="translate(-679.000000, -265.000000)">
            <g id="编组-2" transform="translate(483.000000, 0.000000)">
                <g id="编组-6" transform="translate(21.000000, 265.000000)">
                    <g id="编组-21" transform="translate(16.000000, 0.000000)">
                        <g id="编组" transform="translate(159.000000, 0.000000)">
                            <circle id="椭圆形" fill="#999999" cx="12" cy="12" r="12"></circle>
                            <path d="M10.588669,11.1980049 L5.64200366,11.1980049 C5.47170683,11.1977956 5.3083513,11.1304893 5.18733711,11.0106702 C5.06706854,10.8915914 4.99958621,10.7292495 5.00000191,10.5600038 L5.00000191,5.63800596 C5.00000191,5.46933935 5.0666705,5.30733942 5.18667046,5.18800616 C5.30733711,5.06800621 5.47067039,5.00067292 5.64133698,5.0000031 L10.5880023,5.0000031 C10.7577411,4.99947498 10.9207387,5.06639435 11.0411372,5.18604269 C11.1615357,5.30569102 11.2294725,5.46826722 11.2300021,5.63800596 L11.2300021,10.5600038 C11.2288991,10.9132056 10.9418718,11.198741 10.588669,11.1980049 L10.588669,11.1980049 Z M7.26333654,8.94667116 L8.96666943,8.94667116 L8.96666943,7.25133856 L7.26333654,7.25133856 L7.26333654,8.94667116 L7.26333654,8.94667116 Z M10.588669,18.9593348 L5.64200366,18.9593348 C5.47138088,18.9591236 5.30774056,18.8915591 5.18667046,18.7713334 C5.06681131,18.6523068 4.99958852,18.4902519 5.00000192,18.3213336 L5.00000192,13.3993358 C5.0003571,13.2295972 5.06812448,13.0669511 5.18839785,12.9471778 C5.30867123,12.8274046 5.47159837,12.7603155 5.64133698,12.7606663 L10.5880023,12.7606663 C10.7578563,12.7601383 10.9209548,12.8271491 11.0413725,12.9469415 C11.1617902,13.066734 11.2296491,13.2294814 11.2300021,13.3993358 L11.2300021,18.3213336 C11.2288991,18.6745354 10.9418718,18.9600709 10.588669,18.9593348 L10.588669,18.9593348 Z M7.26333654,16.708001 L8.96666943,16.708001 L8.96666943,15.0126685 L7.26333654,15.0126685 L7.26333654,16.708001 L7.26333654,16.708001 Z M18.3100002,11.1986702 L13.3633349,11.1986702 C13.1929431,11.1982849 13.0295744,11.1307336 12.9086683,11.0106702 C12.7886444,10.891481 12.7214079,10.729153 12.7219825,10.5600038 L12.7219825,5.63800596 C12.7206684,5.46933935 12.7886684,5.30733942 12.9086683,5.18800616 C13.0286683,5.06800621 13.1920016,5.00067292 13.3626682,5.00000624 L18.3100002,5.00000624 C18.4806668,5.00000624 18.6440001,5.06800621 18.7646667,5.18800616 C18.8846667,5.3080061 18.952,5.46933935 18.9513382,5.63800596 L18.9513382,10.5600038 C18.952,10.7286704 18.8846667,10.8906703 18.7646667,11.0106702 C18.6436526,11.1304893 18.480297,11.1977956 18.3100002,11.1980035 L18.3100002,11.1986702 Z M14.9846678,8.94667116 L16.6880006,8.94667116 L16.6880006,7.25133856 L14.9846678,7.25133856 L14.9846678,8.94667116 Z M16.6506673,12.7200028 L16.6506673,14.3200021 L15.0000011,14.3200021 L15.0000011,12.7200028 L12.6720017,12.7200028 L12.6720017,15.0360018 L15.0000011,15.0360018 L15.0000011,15.8726681 L14.2533346,15.8726681 L14.2533346,16.6153344 L12.6733351,16.6153344 L12.6733351,19 L14.2533346,19 L14.2533346,17.4246674 L15.9040008,17.4246674 L15.9040008,15.8733347 L16.6506673,15.8733347 L16.6506673,14.5746687 L19,14.5746687 L19,12.7213361 L16.6506673,12.7213361 L16.6506673,12.7200028 Z M17.4020004,17.4266674 L15.9040008,17.4266674 L15.9040008,19 L18.9833333,19 L18.9833333,15.8726681 L17.4020004,15.8726681 L17.4020004,17.427334 L17.4020004,17.4266674 Z" id="形状" fill="#FFFFFF" fill-rule="nonzero"></path>
                        </g>
                    </g>
                </g>
            </g>
        </g>
    </g>
</svg>