<?xml version="1.0" encoding="UTF-8"?>
<svg width="20px" height="20px" viewBox="0 0 20 20" version="1.1" xmlns="http://www.w3.org/2000/svg" xmlns:xlink="http://www.w3.org/1999/xlink">
    <title>icon/info-circle-fill</title>
    <g id="自媒体2.1.1" stroke="none" stroke-width="1" fill="none" fill-rule="evenodd">
        <g id="浏览器提示" transform="translate(-176.000000, -67.000000)">
            <g id="编组-58" transform="translate(152.000000, 50.000000)">
                <g id="编组-57" transform="translate(24.000000, 15.000000)">
                    <g id="icon/info-circle-fill" transform="translate(0.000000, 2.000000)">
                        <path d="M0,0 L20,0 L20,20 L0,20 L0,0 Z" id="error-circle-filled-(Background)"></path>
                        <path d="M10.000003,1.25 C5.1675114,1.25 1.25,5.16750604 1.25,9.99999762 C1.25,14.8324895 5.16750604,18.75 9.99999762,18.75 C14.8324895,18.75 18.75,14.8324943 18.75,10.000003 C18.75,5.1675114 14.8324943,1.25 10.000003,1.25 Z M10.6249976,11.8749928 L9.37499762,11.8749928 L9.37499762,5.00037879 L10.6249976,5.00037879 L10.6249976,11.8749928 Z M10.7428563,13.75 L10.7428563,15.25 L9.2428565,15.25 L9.2428565,13.75 L10.7428563,13.75 Z" id="error-circle-filled" fill="#F53F3F"></path>
                    </g>
                </g>
            </g>
        </g>
    </g>
</svg>