<?xml version="1.0" encoding="UTF-8"?>
<svg width="16px" height="16px" viewBox="0 0 16 16" version="1.1" xmlns="http://www.w3.org/2000/svg" xmlns:xlink="http://www.w3.org/1999/xlink">
    <title>退出</title>
    <g id="设计稿修改" stroke="none" stroke-width="1" fill="none" fill-rule="evenodd">
        <g id="图标" transform="translate(-44.000000, -369.000000)" fill="#000000" fill-rule="nonzero">
            <g id="编组-27" transform="translate(36.000000, 369.000000)">
                <g id="退出" transform="translate(16.000000, 8.000000) scale(-1, 1) translate(-16.000000, -8.000000) translate(8.000000, 0.000000)">
                    <path d="M16,7.9765625 L16,7.9703125 C16,7.9640625 16,7.9578125 15.9984375,7.953125 L15.9984375,7.9484375 C15.9984375,7.9421875 15.996875,7.9359375 15.9953125,7.9296875 L15.9953125,7.928125 C15.98125,7.8328125 15.9375,7.7421875 15.8640625,7.66875 L13.6984375,5.503125 C13.515625,5.3203125 13.2171875,5.3203125 13.0359375,5.503125 C12.853125,5.6859375 12.853125,5.984375 13.0359375,6.165625 L14.4015625,7.53125 L7.46875,7.53125 C7.2109375,7.53125 7,7.7421875 7,8 C7,8.2578125 7.2109375,8.46875 7.46875,8.46875 L14.4,8.46875 L13.034375,9.834375 C12.8515625,10.0171875 12.8515625,10.315625 13.034375,10.496875 C13.2171875,10.6796875 13.515625,10.6796875 13.696875,10.496875 L15.8625,8.33125 C15.9359375,8.2578125 15.9796875,8.1671875 15.99375,8.071875 L15.99375,8.0703125 C15.9953125,8.0640625 15.9953125,8.0578125 15.996875,8.0515625 L15.996875,8.046875 C15.996875,8.040625 15.9984375,8.034375 15.9984375,8.0296875 L15.9984375,8.0234375 L15.9984375,8 C16,7.9921875 16,7.984375 16,7.9765625 L16,7.9765625 Z" id="路径"></path>
                    <path d="M11.53125,11.5 C11.271875,11.5 11.0625,11.709375 11.0625,11.96875 L11.0625,14.53125 C11.0625,14.825 10.825,15.0625 10.53125,15.0625 L1.46875,15.0625 C1.175,15.0625 0.9375,14.825 0.9375,14.53125 L0.9375,1.46875 C0.9375,1.175 1.175,0.9375 1.46875,0.9375 L10.53125,0.9375 C10.825,0.9375 11.0625,1.175 11.0625,1.46875 L11.0625,4.03125 C11.0625,4.290625 11.271875,4.5 11.53125,4.5 C11.790625,4.5 12,4.290625 12,4.03125 L12,1.46875 C12,0.6578125 11.3421875,0 10.53125,0 L1.46875,0 C0.6578125,0 0,0.6578125 0,1.46875 L0,14.53125 C0,15.3421875 0.6578125,16 1.46875,16 L10.53125,16 C11.3421875,16 12,15.3421875 12,14.53125 L12,11.96875 C12,11.709375 11.790625,11.5 11.53125,11.5 Z" id="路径"></path>
                </g>
            </g>
        </g>
    </g>
</svg>