<?xml version="1.0" encoding="UTF-8"?>
<svg width="22px" height="22px" viewBox="0 0 22 22" version="1.1" xmlns="http://www.w3.org/2000/svg" xmlns:xlink="http://www.w3.org/1999/xlink">
    <title>抖音待审核</title>
    <defs>
        <path d="M10,5 C10,2.23857624 7.76142393,0 5,0 C2.23857624,0 0,2.23857624 0,5 C0,7.76142393 2.23857624,10 5,10 C7.76142393,10 10,7.76142393 10,5 Z" id="path-1"></path>
        <filter x="-30.0%" y="-30.0%" width="160.0%" height="160.0%" filterUnits="objectBoundingBox" id="filter-2">
            <feOffset dx="0" dy="0" in="SourceAlpha" result="shadowOffsetOuter1"></feOffset>
            <feGaussianBlur stdDeviation="1" in="shadowOffsetOuter1" result="shadowBlurOuter1"></feGaussianBlur>
            <feColorMatrix values="0 0 0 0 0.295424837   0 0 0 0 0.332026144   0 0 0 0 0.4  0 0 0 1 0" type="matrix" in="shadowBlurOuter1"></feColorMatrix>
        </filter>
    </defs>
    <g id="智能销售1.1" stroke="none" stroke-width="1" fill="none" fill-rule="evenodd">
        <g id="专栏" transform="translate(-1114.000000, -275.000000)">
            <g id="编组-3" transform="translate(251.000000, 89.000000)">
                <g id="编组-13" transform="translate(20.000000, 93.000000)">
                    <g id="编组-7" transform="translate(0.000000, 38.000000)">
                        <g id="编组-21" transform="translate(20.000000, 13.000000)">
                            <g id="编组-10备份" transform="translate(813.000000, 38.000000)">
                                <g id="编组-4" transform="translate(10.000000, 3.000000)">
                                    <g id="抖音待审核" transform="translate(0.000000, 1.000000)">
                                        <g id="个微" fill-rule="nonzero">
                                            <path d="M10,0 C4.47826086,0 0,4.47826086 0,10 C0,15.5217391 4.47826086,20 10,20 C15.5217391,20 20,15.5217391 20,10 C20,4.47826086 15.5217391,0 10,0 Z" id="形状" fill="#717F99"></path>
                                            <path d="M9.31537125,8.46614143 L9.31537125,10.5269467 C8.35744497,10.2739912 7.37576318,10.8451892 7.12232181,11.8029871 C7.08918342,11.9291 7.06973713,12.0584178 7.06431998,12.1886993 C7.07707313,13.0969426 7.78499265,13.8432336 8.69129955,13.9038662 C9.59760646,13.9644989 10.3986273,13.3191573 10.5322498,12.4207067 C10.5389055,12.3355738 10.5389055,12.2500514 10.5322498,12.1649186 L10.5322498,4 L12.5721744,4 C12.9201854,6.15708831 13.9972795,6.65822418 15.4421053,6.88907148 L15.4421053,8.95625695 C14.4412453,8.87450915 13.4757202,8.5484851 12.6301762,8.00676688 L12.6301762,12.0900962 C12.6301762,13.9380347 11.5339415,16 8.81597545,16 C7.79966804,15.9958553 6.82664205,15.5881096 6.11099581,14.8664806 C5.39534958,14.1448516 4.99571842,13.1684648 5,12.1521582 L5,12.0703756 C5.06158768,9.99622639 6.79286496,8.36466569 8.86701706,8.42612016 C9.01711807,8.43075521 9.16682235,8.44411821 9.31537125,8.46614143 Z" id="路径" fill="#EEF2F9"></path>
                                        </g>
                                        <g id="待同步" transform="translate(10.000000, 10.000000)">
                                            <g id="形状结合">
                                                <use fill="black" fill-opacity="1" filter="url(#filter-2)" xlink:href="#path-1"></use>
                                                <use fill="#FFFFFF" fill-rule="evenodd" xlink:href="#path-1"></use>
                                            </g>
                                            <path d="M7.29809524,2.377 C7.38604761,2.377 7.46214286,2.40871429 7.52652381,2.47319048 C7.59104761,2.53771429 7.62276191,2.61409524 7.62276191,2.70238095 C7.62276191,2.79166666 7.59104762,2.86904761 7.52657143,2.93252381 L6.60857143,3.85019048 C6.54571429,3.91371429 6.46952381,3.94447619 6.37985714,3.94447619 C6.287,3.94447619 6.20933334,3.91366667 6.14780952,3.85219048 C6.08619047,3.79066667 6.05533334,3.71328571 6.05533334,3.62004762 C6.05533334,3.53076191 6.08671429,3.45433334 6.149,3.39185714 L7.06738095,2.47323809 C7.13157143,2.40871429 7.20866666,2.377 7.29804762,2.377 L7.29809524,2.377 Z M5,1.42857143 C5.08957143,1.42857143 5.166,1.46033334 5.22966666,1.52380952 C5.29285714,1.58728571 5.32471429,1.66371429 5.32471429,1.753 L5.32471429,3.05157143 C5.32471429,3.14185714 5.29285714,3.21823809 5.22966666,3.28176191 C5.166,3.3452381 5.08957143,3.377 5,3.377 C4.91033334,3.377 4.83390476,3.34523809 4.77023809,3.28176191 C4.70704761,3.2182381 4.67519048,3.14185714 4.67519048,3.05157143 L4.67519048,1.753 C4.67519048,1.66371429 4.70704762,1.58728571 4.77023809,1.52380952 C4.83395238,1.46033334 4.91038095,1.42857143 5,1.42857143 Z M6.948,4.67561905 L8.24666666,4.67561905 C8.33623809,4.67561905 8.4127619,4.70733334 8.47604762,4.77085714 C8.53990476,4.83428571 8.57142857,4.91066666 8.57142857,5 C8.57142857,5.08928571 8.53985714,5.16571429 8.47609524,5.22919048 C8.4127619,5.29266667 8.33628571,5.32442857 8.24671429,5.32442857 L6.94804762,5.32442857 C6.85828571,5.32442857 6.78204762,5.29266666 6.71828571,5.22919048 C6.65519048,5.16566667 6.62314286,5.08928571 6.62314286,5 C6.62314286,4.91071429 6.65519048,4.83428571 6.71828571,4.77080952 C6.78209524,4.70733333 6.85828571,4.67557143 6.94804762,4.67557143 L6.948,4.67561905 Z M2.70461905,2.37695238 C2.79252381,2.37695238 2.86871429,2.40866666 2.93309524,2.47314286 L3.85128571,3.39190476 C3.91538095,3.45638096 3.94761905,3.53180953 3.94761905,3.62009524 C3.94761905,3.70938095 3.916,3.7867619 3.85247619,3.85023809 C3.78890476,3.9127619 3.71228571,3.94547619 3.62261905,3.94547619 C3.53142857,3.94547619 3.45442857,3.91376191 3.39204762,3.85123809 L2.47366666,2.93252381 C2.41114286,2.87004761 2.38,2.79366666 2.38,2.70238095 C2.38,2.61209524 2.41166666,2.53571429 2.47514286,2.47223809 C2.53852381,2.40871429 2.61523809,2.377 2.70480952,2.377 L2.70461905,2.377 L2.70461905,2.37695238 Z M5,6.623 C5.08957143,6.623 5.166,6.65476191 5.22966666,6.71823809 C5.29285714,6.7817619 5.32471429,6.85814286 5.32471429,6.94842857 L5.32471429,8.24604762 C5.32471429,8.33628571 5.29285714,8.41271429 5.22966666,8.47619048 C5.166,8.53966667 5.08957143,8.57142857 5,8.57142857 C4.91033334,8.57142857 4.83390476,8.53966666 4.77023809,8.47619048 C4.70704761,8.41271429 4.67519048,8.33628571 4.67519048,8.24604762 L4.67519048,6.94842857 C4.67519048,6.85814286 4.70704762,6.78176191 4.77023809,6.71823809 C4.83390476,6.6547619 4.91033333,6.623 5,6.623 L5,6.623 Z M1.75328571,4.67561905 L3.05195238,4.67561905 C3.14161904,4.67561905 3.21795238,4.70733334 3.28171429,4.77085714 C3.34490476,4.83433334 3.37685714,4.91071429 3.37685714,5 C3.37685714,5.08928571 3.34495238,5.16571429 3.28171429,5.22919048 C3.21790476,5.29266667 3.14161905,5.32442857 3.05195238,5.32442857 L1.75328571,5.32442857 C1.66371429,5.32442857 1.58719048,5.29266666 1.52390476,5.22919048 C1.46009524,5.16561905 1.42857143,5.08923809 1.42857143,5 C1.42857143,4.91071429 1.46014286,4.83428571 1.52390476,4.77080952 C1.5872381,4.70733333 1.66371429,4.67557143 1.75328571,4.67557143 L1.75328571,4.67561905 Z M3.62261905,6.05257143 C3.71228571,6.05257143 3.78890476,6.08433334 3.85247619,6.14780952 C3.916,6.21133333 3.94761905,6.28771429 3.94761905,6.377 C3.94761905,6.46723809 3.91538096,6.54366666 3.85128571,6.60814286 L2.93309524,7.52576191 C2.86871429,7.59028571 2.79252381,7.62204762 2.70461905,7.62204762 C2.61504762,7.62204762 2.53833334,7.59128571 2.47485714,7.52776191 C2.41133334,7.46428571 2.37952381,7.38790476 2.37952381,7.29761905 C2.37952381,7.20633334 2.41085714,7.12895239 2.47347619,7.06747619 L3.39166666,6.14880952 C3.45595238,6.08433333 3.53280952,6.05261904 3.62242857,6.05261905 L3.62261905,6.05261905 L3.62261905,6.05257143 Z M6.37985714,6.05257143 C6.46795238,6.05257143 6.54395238,6.08433334 6.60857143,6.14880952 L7.52652381,7.06747619 C7.59104761,7.13095239 7.62276191,7.20833334 7.62276191,7.29761905 C7.62276191,7.38590476 7.59104762,7.46228571 7.52657143,7.52580952 C7.46214286,7.59028571 7.38609524,7.622 7.29804762,7.622 C7.20866667,7.622 7.13157143,7.59028571 7.06738095,7.52580952 L6.14904762,6.60809524 C6.08676191,6.54557143 6.05538095,6.46819047 6.05538095,6.37695238 C6.05538095,6.28766666 6.08728571,6.21123809 6.15052381,6.14776191 C6.21414286,6.08428571 6.29061904,6.05252381 6.38023809,6.05252381 L6.37990476,6.05252381 L6.37985714,6.05257143 Z" id="形状" fill="#717F99" fill-rule="nonzero"></path>
                                        </g>
                                    </g>
                                </g>
                            </g>
                        </g>
                    </g>
                </g>
            </g>
        </g>
    </g>
</svg>