<?xml version="1.0" encoding="UTF-8"?>
<svg width="12px" height="12px" viewBox="0 0 12 12" version="1.1" xmlns="http://www.w3.org/2000/svg" xmlns:xlink="http://www.w3.org/1999/xlink">
    <title>数字直播</title>
    <g id="智能销售1.1" stroke="none" stroke-width="1" fill="none" fill-rule="evenodd">
        <g id="1.4-新增-直播间设置" transform="translate(-1014.000000, -364.000000)">
            <g id="编组-17-+-编组-21-蒙版" transform="translate(732.000000, 246.000000)">
                <g id="编组-17" transform="translate(1.000000, 0.000000)">
                    <g id="编组-4备份" transform="translate(0.000000, 95.000000)">
                        <g id="编组-3" transform="translate(0.000000, 16.000000)">
                            <g id="真人直播" transform="translate(273.000000, 1.000000)">
                                <g id="编组-138" transform="translate(8.000000, 6.000000)">
                                    <rect id="矩形" x="0" y="0" width="12" height="12"></rect>
                                    <rect id="矩形" stroke="#00B42A" stroke-width="0.8" x="0.4" y="2.4" width="11.2" height="8.2" rx="2"></rect>
                                    <circle id="椭圆形" stroke="#00B42A" stroke-width="0.6" cx="6" cy="5.5" r="1.2"></circle>
                                    <path d="M9,9.8 C9,8.14314575 7.65685425,6.8 6,6.8 C4.34314575,6.8 3,8.14314575 3,9.8" id="路径" stroke="#00B42A" stroke-width="0.6" stroke-linecap="round"></path>
                                    <g id="编组-44" transform="translate(3.200000, 0.000000)" fill="#00B42A">
                                        <rect id="矩形" transform="translate(1.272792, 1.272792) rotate(-45.000000) translate(-1.272792, -1.272792) " x="0.972792206" y="-0.227207794" width="1" height="3" rx="0.3"></rect>
                                        <rect id="矩形备份-5" transform="translate(4.272792, 1.272792) scale(-1, 1) rotate(-45.000000) translate(-4.272792, -1.272792) " x="3.97279221" y="-0.227207794" width="1" height="3" rx="0.3"></rect>
                                    </g>
                                </g>
                            </g>
                        </g>
                    </g>
                </g>
            </g>
        </g>
    </g>
</svg>