<?xml version="1.0" encoding="UTF-8"?>
<svg width="32px" height="32px" viewBox="0 0 32 32" version="1.1" xmlns="http://www.w3.org/2000/svg" xmlns:xlink="http://www.w3.org/1999/xlink">
    <title>切片</title>
    <g id="设计稿修改" stroke="none" stroke-width="1"  fill-rule="evenodd">
        <g id="图标" transform="translate(-266.000000, -123.000000)"  fill-rule="nonzero">
            <g id="编组-13" transform="translate(36.000000, 36.000000)">
                <g id="编组-25备份" transform="translate(0.000000, 77.000000)">
                    <g id="编组-3备份-2" transform="translate(200.000000, 0.000000)">
                        <g id="编组-2" transform="translate(26.000000, 10.000000)">
                            <g id="左侧按钮-课程" transform="translate(4.000000, 0.000000)">
                                <path d="M11.2,2.39996534 C13.0369897,2.39769965 14.7859792,3.18668825 16,4.56534342 C17.2140208,3.18668825 18.9630103,2.39769965 20.8,2.39996534 L30.4,2.39996534 C31.2836556,2.39996534 32,3.1163545 32,4.00001011 L32,28.0000101 C32,28.8836657 31.2836556,29.6000101 30.4,29.6000101 L17.6,29.6000101 L14.4,29.6000101 L1.60000001,29.6000101 C1.17565362,29.6000101 0.768687361,29.4314391 0.468629153,29.1313809 C0.168570946,28.8313227 0,28.4243565 0,28.0000101 L0,4.00001011 C0,3.1163545 0.716344405,2.39996534 1.60000001,2.39996534 L11.2,2.39996534 Z M29.6,4.80001008 L25.7105333,4.80001008 L21.075,4.80001008 C20.2528289,4.80001008 18.6893317,5.13715198 18.107969,5.73726839 C17.5266062,6.33738481 17.2,7.15131734 17.2,8.00001011 L17.2,27.2000101 L29.6,27.2000101 L29.6,4.80001008 Z M10.925,4.80001008 L2.40000002,4.80001008 L2.40000002,27.2000101 L14.8,27.2000101 L14.8,8.00001011 C14.8,7.15131734 14.4733938,6.33738481 13.892031,5.73726839 C13.3106683,5.13715198 11.7471711,4.80001008 10.925,4.80001008 Z" id="形状"></path>
                                <path d="M21.6802175,3.56552638 L21.68,8.9904 L22.7028068,8.3088974 C23.0230398,8.09547302 23.4318241,8.0778637 23.7664797,8.25530122 L23.8644899,8.31438311 L24.8328,8.9728 L24.8332182,3.56552638 L26.4332182,3.56552638 L26.4332182,10.0314787 C26.4332182,10.2400984 26.3704766,10.4438962 26.253145,10.6163939 C25.9502952,11.0616356 25.3628221,11.1976802 24.8992453,10.94677 L24.8083029,10.8914055 L23.276,9.8488 L21.6969854,10.9020254 C21.5603349,10.9930982 21.4045683,11.0501905 21.2426281,11.0693845 L21.1202175,11.0766128 C20.5817399,11.0766128 20.1388453,10.6673731 20.0855869,10.1429468 L20.0802175,10.0366128 L20.0802175,3.56552638 L21.6802175,3.56552638 Z" id="路径-2"></path>
                            </g>
                        </g>
                    </g>
                </g>
            </g>
        </g>
    </g>
</svg>