<?xml version="1.0" encoding="UTF-8"?>
<svg width="12px" height="12px" viewBox="0 0 12 12" version="1.1" xmlns="http://www.w3.org/2000/svg" xmlns:xlink="http://www.w3.org/1999/xlink">
    <title>首页/home_icon_renqiguankan@2x</title>
    <g id="安卓" stroke="none" stroke-width="1" fill="none" fill-rule="evenodd" stroke-linejoin="round">
        <g id="1-1-首页-01线上课程" transform="translate(-306.000000, -504.000000)" stroke="#999999" stroke-width="0.8">
            <g id="编组-8" transform="translate(16.000000, 373.000000)">
                <g id="课程推荐备份-4" transform="translate(0.000000, 36.000000)">
                    <g id="编组-36" transform="translate(290.000000, 93.000000)">
                        <g id="编组-101" transform="translate(0.000000, 2.000000)">
                            <g id="路径" transform="translate(1.000000, 1.000000)">
                                <path d="M2.66388584,1.09187993 L2.79054748,1.09726553 L5.69845558,2.65270274 L8.16524628,4.06229743 C8.42418569,4.21026281 8.59863652,4.44917626 8.67136114,4.71583321 C8.75319214,5.01588021 8.70622619,5.35105365 8.50590569,5.63130896 L8.50590569,5.63130896 L5.7035856,7.34436581 L3.21583001,8.76594044 C2.9568906,8.91390582 2.66249013,8.94290739 2.39583318,8.87018277 C2.09570233,8.7883289 1.83071755,8.57760609 1.69099893,8.26259254 L1.69099893,8.26259254 L1.6,2.17176213 C1.6,1.87352837 1.72088311,1.60352838 1.91632467,1.40808683 C2.13565661,1.18875489 2.4488888,1.0633232 2.79054748,1.09726553 Z"></path>
                            </g>
                        </g>
                    </g>
                </g>
            </g>
        </g>
    </g>
</svg>