<?xml version="1.0" encoding="UTF-8"?>
<svg width="32px" height="32px" viewBox="0 0 32 32" version="1.1" xmlns="http://www.w3.org/2000/svg" xmlns:xlink="http://www.w3.org/1999/xlink">
    <title>切片</title>
    <g id="设计稿修改" stroke="none" stroke-width="1"  fill-rule="evenodd">
        <g id="图标" transform="translate(-166.000000, -123.000000)"  fill-rule="nonzero">
            <g id="编组-13" transform="translate(36.000000, 36.000000)">
                <g id="编组-25备份" transform="translate(0.000000, 77.000000)">
                    <g id="编组-3备份" transform="translate(100.000000, 0.000000)">
                        <g id="左侧按钮-讲师" transform="translate(30.000000, 10.000000)">
                            <path d="M31.3096226,10.9266874 C31.9260754,11.2230745 32.1759422,11.9438821 31.8677158,12.5366563 L23.994,27.678 L23.9945678,27.6892219 C23.8972383,29.2010368 22.5041929,30.4 20.8,30.4 L3.2,30.4 C1.4326888,30.4 0,29.1105801 0,27.52 L0,18.88 C0,17.2894199 1.4326888,16 3.2,16 L20.8,16 C22.5673112,16 24,17.2894199 24,18.88 L24,22.3 L29.6353429,11.4633437 C29.9435693,10.8705695 30.6931698,10.6303003 31.3096226,10.9266874 Z M20.8,18.4 L3.2,18.4 C2.7581722,18.4 2.4,18.7070047 2.4,19.0857143 L2.4,27.3142857 C2.4,27.6929953 2.7581722,28 3.2,28 L20.8,28 C21.2418278,28 21.6,27.6929953 21.6,27.3142857 L21.6,19.0857143 C21.6,18.7070047 21.2418278,18.4 20.8,18.4 Z M12,1.6 C15.5346224,1.6 18.4,4.4653776 18.4,8 C18.4,11.5346224 15.5346224,14.4 12,14.4 C8.4653776,14.4 5.6,11.5346224 5.6,8 C5.6,4.4653776 8.4653776,1.6 12,1.6 Z M12,4 C9.790861,4 8,5.790861 8,8 C8,10.209139 9.790861,12 12,12 C14.209139,12 16,10.209139 16,8 C16,5.790861 14.209139,4 12,4 Z M30.8,5.6 C31.4627417,5.6 32,6.1372583 32,6.8 C32,7.4627417 31.4627417,8 30.8,8 L24.4,8 C23.7372583,8 23.2,7.4627417 23.2,6.8 C23.2,6.1372583 23.7372583,5.6 24.4,5.6 L30.8,5.6 Z M30.8,1.6 C31.4627417,1.6 32,2.1372583 32,2.8 C32,3.4627417 31.4627417,4 30.8,4 L24.4,4 C23.7372583,4 23.2,3.4627417 23.2,2.8 C23.2,2.1372583 23.7372583,1.6 24.4,1.6 L30.8,1.6 Z" id="形状结合"></path>
                        </g>
                    </g>
                </g>
            </g>
        </g>
    </g>
</svg>