<?xml version="1.0" encoding="UTF-8"?>
<svg width="14px" height="15px" viewBox="0 0 14 15" version="1.1" xmlns="http://www.w3.org/2000/svg" xmlns:xlink="http://www.w3.org/1999/xlink">
    <title>离职</title>
    <g id="智能销售1.1" stroke="none" stroke-width="1" fill="none" fill-rule="evenodd">
        <g id="1.1-新增-接待设置" transform="translate(-1046.000000, -491.000000)">
            <g id="编组-2" transform="translate(712.000000, 0.000000)">
                <g id="编组-24" transform="translate(20.000000, 142.000000)">
                    <g id="编组-23" transform="translate(0.000000, 114.000000)">
                        <g id="编组-20" transform="translate(0.000000, 48.000000)">
                            <g id="编组-17" transform="translate(1.000000, 72.000000)">
                                <g id="编组-4备份" transform="translate(0.000000, 95.000000)">
                                    <g id="编组-3" transform="translate(0.000000, 15.000000)">
                                        <g id="标签/中标签/离职" transform="translate(303.000000, 0.000000)">
                                            <g id="check-circle-filled" transform="translate(10.000000, 5.500000)">
                                                <path d="M0,0 L14,0 L14,14 L0,14 L0,0 Z" id="check-circle-filled-(Background)"></path>
                                                <path d="M14,7 C14,3.13400674 10.8659935,0 7,0 C3.13400674,0 0,3.13400674 0,7 C0,10.8659935 3.13400674,14 7,14 C10.8659935,14 14,10.8659935 14,7 Z M7.18296864,2.42857143 C8.51502819,2.42857143 9.59487868,3.50505115 9.59487868,4.83295784 C9.59487868,5.71671795 9.11658156,6.48911078 8.40395565,6.90692739 C8.61613684,6.97315614 8.82302692,7.05729492 9.02302439,7.15858655 C9.17217865,7.23413377 9.23166804,7.41592968 9.15587963,7.5646213 C9.08009123,7.71331293 8.89774089,7.77261593 8.7485765,7.69706871 C8.27359392,7.45649479 7.75426544,7.33025632 7.21792841,7.33025632 C5.24820019,7.33025632 3.63837821,9.0380899 3.60637821,11.1683438 L3.60589167,11.2330279 C3.60589167,11.3998113 3.47025911,11.5350249 3.30294077,11.5350249 C3.13563256,11.5350249 3,11.3998113 3,11.2330279 C3,9.27996096 4.16400677,7.61222465 5.79631211,6.98836913 L5.98670383,6.9212332 C5.26044473,6.50689966 4.77106874,5.72689456 4.77106874,4.83295784 C4.7710586,3.50505115 5.85090909,2.42857143 7.18296864,2.42857143 Z M11.1847624,8.73427839 C11.2959096,8.84542559 11.2974167,9.02472956 11.1893513,9.13791518 L10.540099,9.78724478 L11.1951284,10.4422742 C11.307889,10.5550348 11.3078117,10.7379326 11.1949545,10.8507897 C11.0837107,10.9620335 10.9044164,10.9636952 10.7913274,10.8557264 L10.1314193,10.1959342 L9.48695869,10.8404141 C9.37410153,10.9532712 9.19121342,10.9533485 9.07845286,10.8405879 C8.96730566,10.7294407 8.96578892,10.5501464 9.073864,10.4369608 L9.07862676,10.4320821 L9.72307767,9.78760223 L9.09029697,9.15481188 C8.97753642,9.04205132 8.97761371,8.85915355 9.09047087,8.74629639 C9.20171468,8.63505258 9.38100898,8.63339093 9.494098,8.74135974 L9.49897669,8.7461225 L10.131767,9.37891285 L10.7762469,8.73446194 C10.8891041,8.62160478 11.0720019,8.6215275 11.1847624,8.73427839 Z M7.18296864,3.03256554 C6.18553564,3.03256554 5.37695027,3.83861792 5.37695027,4.83294774 C5.37695027,5.82726747 6.18553564,6.63332995 7.18296864,6.63332995 C8.18040165,6.63332995 8.98898701,5.82726747 8.98898701,4.83293765 C8.98898701,3.83861792 8.18040165,3.03256554 7.18296864,3.03256554 Z" fill="#717F99"></path>
                                            </g>
                                        </g>
                                    </g>
                                </g>
                            </g>
                        </g>
                    </g>
                </g>
            </g>
        </g>
    </g>
</svg>