<?xml version="1.0" encoding="UTF-8"?>
<svg width="14px" height="14px" viewBox="0 0 14 14" version="1.1" xmlns="http://www.w3.org/2000/svg" xmlns:xlink="http://www.w3.org/1999/xlink">
    <title>check-circle-filled</title>
    <g id="智能销售1.1" stroke="none" stroke-width="1" fill="none" fill-rule="evenodd">
        <g id="1.1-新增-接待设置" transform="translate(-1144.000000, -436.000000)">
            <g id="编组-2" transform="translate(712.000000, 0.000000)">
                <g id="编组-24" transform="translate(20.000000, 142.000000)">
                    <g id="编组-23" transform="translate(0.000000, 114.000000)">
                        <g id="编组-20" transform="translate(0.000000, 48.000000)">
                            <g id="编组-17" transform="translate(1.000000, 72.000000)">
                                <g id="编组-4" transform="translate(0.000000, 40.000000)">
                                    <g id="编组-3" transform="translate(0.000000, 15.000000)">
                                        <g id="标签/中标签/已完成" transform="translate(401.000000, 0.000000)">
                                            <g id="编组-57" transform="translate(10.000000, 2.000000)">
                                                <g id="check-circle-filled" transform="translate(0.000000, 3.000000)">
                                                    <path d="M0,0 L14,0 L14,14 L0,14 L0,0 Z" id="check-circle-filled-(Background)"></path>
                                                    <path d="M14,7 C14,3.13400674 10.8659935,0 7,0 C3.13400674,0 0,3.13400674 0,7 C0,10.8659935 3.13400674,14 7,14 C10.8659935,14 14,10.8659935 14,7 Z M6,9.70699978 L10.5,5.20749998 L9.79249954,4.5 L6,8.29300022 L4.20650005,6.5 L3.5,7.20650005 L6,9.70699978 Z" fill="#00B42A"></path>
                                                </g>
                                            </g>
                                        </g>
                                    </g>
                                </g>
                            </g>
                        </g>
                    </g>
                </g>
            </g>
        </g>
    </g>
</svg>