<?xml version="1.0" encoding="UTF-8"?>
<svg width="16px" height="16px" viewBox="0 0 16 16" version="1.1" xmlns="http://www.w3.org/2000/svg" xmlns:xlink="http://www.w3.org/1999/xlink">
    <title></title>
    <g id="视频管理V2.2.5" stroke="none" stroke-width="1" fill="none" fill-rule="evenodd">
        <g id="爆款脱敏详情" transform="translate(-471.000000, -181.000000)">
            <g id="编组-46" transform="translate(471.000000, 181.000000)">
                <rect id="矩形" stroke="#979797" fill="#D8D8D8" opacity="0" x="0.5" y="0.5" width="15" height="15"></rect>
                <g id="编组-47" transform="translate(2.400000, 1.600000)" fill="#0C6FFF" fill-rule="nonzero">
                    <g id="编组">
                        <path d="M4.07272727,12.8 L1.06666667,12.8 C0.484848485,12.8 0,12.3151515 0,11.7333333 L0,1.06666667 C0,0.484848485 0.484848485,0 1.06666667,0 L9.40606061,0 C9.98787879,0 10.4727273,0.484848485 10.4727273,1.06666667 L10.4727273,4.16969697 C10.4727273,4.46060606 10.2787879,4.65454545 9.98787879,4.65454545 C9.6969697,4.65454545 9.5030303,4.46060606 9.5030303,4.16969697 L9.5030303,1.06666667 C9.5030303,0.96969697 9.5030303,0.96969697 9.40606061,0.96969697 L1.06666667,0.96969697 C0.96969697,0.96969697 0.96969697,0.96969697 0.96969697,1.06666667 L0.96969697,11.7333333 C0.96969697,11.830303 0.96969697,11.830303 1.06666667,11.830303 L4.07272727,11.830303 C4.36363636,11.830303 4.55757576,12.0242424 4.55757576,12.3151515 C4.55757576,12.6060606 4.26666667,12.8 4.07272727,12.8 Z" id="路径"></path>
                        <path d="M6.69090909,3.97575758 L2.81212121,3.97575758 C2.52121212,3.97575758 2.32727273,3.78181818 2.32727273,3.49090909 C2.32727273,3.2 2.52121212,3.00606061 2.81212121,3.00606061 L6.69090909,3.00606061 C6.98181818,3.00606061 7.17575758,3.2 7.17575758,3.49090909 C7.17575758,3.78181818 6.98181818,3.97575758 6.69090909,3.97575758 Z M4.36363636,6.01212121 L2.90909091,6.01212121 C2.61818182,6.01212121 2.42424242,5.81818182 2.42424242,5.52727273 C2.42424242,5.23636364 2.61818182,5.04242424 2.90909091,5.04242424 L4.36363636,5.04242424 C4.65454545,5.04242424 4.84848485,5.23636364 4.84848485,5.52727273 C4.84848485,5.81818182 4.55757576,6.01212121 4.36363636,6.01212121 Z M8.14545455,12.8 C6.20606061,12.8 4.65454545,11.2484848 4.65454545,9.30909091 C4.65454545,7.36969697 6.20606061,5.81818182 8.14545455,5.81818182 C10.0848485,5.81818182 11.6363636,7.36969697 11.6363636,9.30909091 C11.6363636,11.2484848 10.0848485,12.8 8.14545455,12.8 Z M8.14545455,6.88484848 C6.78787879,6.88484848 5.62424242,7.95151515 5.62424242,9.40606061 C5.62424242,10.7636364 6.69090909,11.9272727 8.14545455,11.9272727 C9.6,11.9272727 10.6666667,10.8606061 10.6666667,9.40606061 C10.6666667,8.04848485 9.6,6.88484848 8.14545455,6.88484848 Z" id="形状"></path>
                        <path d="M10.2787879,11.9272727 C10.1818182,11.9272727 9.98787879,11.9272727 9.89090909,11.830303 L5.72121212,7.66060606 C5.52727273,7.46666667 5.52727273,7.17575758 5.72121212,6.98181818 C5.91515152,6.78787879 6.20606061,6.78787879 6.4,6.98181818 L10.569697,11.1515152 C10.7636364,11.3454545 10.7636364,11.6363636 10.569697,11.830303 C10.4727273,11.9272727 10.3757576,11.9272727 10.2787879,11.9272727 L10.2787879,11.9272727 Z" id="路径"></path>
                    </g>
                </g>
            </g>
        </g>
    </g>
</svg>