<svg xmlns="http://www.w3.org/2000/svg" xmlns:xlink="http://www.w3.org/1999/xlink" version="1.1" width="24" height="24" viewBox="0 0 24 24"><g><g></g><g><g><path d="M11.19247,4.000000000000001C6.66783,4.000219048,3.0000000000000004,7.668229999999999,3,12.19286C2.9999999999999996,16.7175,6.66783,20.3855,11.19247,20.3857L11.19247,19.293300000000002C8.32059,19.293300000000002,5.7315000000000005,17.5634,4.63248,14.9101C3.533458,12.25683,4.1409400000000005,9.20279,6.171670000000001,7.17207C8.202390000000001,5.14134,11.25644,4.533854,13.9097,5.6328700000000005C16.563000000000002,6.73189,18.293,9.32099,18.293,12.19286L19.3853,12.19286C19.3853,7.66807,15.7173,4.000000010605,11.19247,4.000000000000001Z"  fill-opacity="1"/></g><g><path d="M17.69214133605957,14.92381937421875C17.47966133605957,14.92329707421875,17.28787133605957,15.05105507421875,17.20649133605957,15.24733007421875C17.125111336059568,15.44360407421875,17.17022133605957,15.66959007421875,17.32073133605957,15.81957307421875L18.64251133605957,17.10858107421875L13.37723233605957,17.10858107421875C13.07557933605957,17.10858107421875,12.83104133605957,17.35312107421875,12.83104133605957,17.65477107421875C12.83104133605957,17.95643107421875,13.07557933605957,18.20096107421875,13.37723233605957,18.20096107421875L18.64251133605957,18.20096107421875L17.32073133605957,19.52275107421875C17.18804133605957,19.65544107421875,17.13622133605957,19.84884107421875,17.184781336059572,20.03010107421875C17.23335133605957,20.21136107421875,17.37493133605957,20.352941074218748,17.55619133605957,20.40151107421875C17.73745133605957,20.45008107421875,17.93086133605957,20.398261074218752,18.06355133605957,20.265571074218748L20.248311336059572,18.08080107421875C20.40461133605957,17.98565107421875,20.50000133605957,17.81591107421875,20.50000133605957,17.63293107421875C20.50000133605957,17.44994107421875,20.40461133605957,17.280201074218752,20.248311336059572,17.185051074218748L18.06355133605957,15.00028607421875C17.96495133605957,14.90203067421875,17.83133133605957,14.84701131021875,17.69214133605957,14.84735265305875L17.69214133605957,14.92381937421875Z" fill-opacity="1"/></g><g><path d="M11.192471088256836,14.486867816772461L8.898461088256836,12.192867816772461L11.192471088256836,9.89885781677246L13.486471088256836,12.192867816772461L15.015801088256836,12.192867816772461L11.192471088256836,8.369527816772461L7.369131088256836,12.192867816772461L11.192471088256836,16.01619781677246L11.192471088256836,14.486867816772461Z" fill-opacity="1"/></g></g></g></svg>
