<svg xmlns="http://www.w3.org/2000/svg" fill="none" viewBox="0 0 24 24" class="design-iconfont">
  <path d="M9.83838 4.5L5.33838 4.5C4.92417 4.5 4.58838 4.83579 4.58838 5.25L4.58838 9.75C4.58838 10.1642 4.92417 10.5 5.33838 10.5L9.83838 10.5C10.2526 10.5 10.5884 10.1642 10.5884 9.75L10.5884 5.25C10.5884 4.83579 10.2526 4.5 9.83838 4.5Z" stroke="rgba(255, 255, 255, 1)" stroke-width="1.5" stroke-linejoin="round"/>
  <path d="M9.83838 13L5.33838 13C4.92417 13 4.58838 13.3358 4.58838 13.75L4.58838 18.25C4.58838 18.6642 4.92417 19 5.33838 19L9.83838 19C10.2526 19 10.5884 18.6642 10.5884 18.25L10.5884 13.75C10.5884 13.3358 10.2526 13 9.83838 13Z" stroke="rgba(255, 255, 255, 1)" stroke-width="1.5" stroke-linejoin="round"/>
  <path stroke="rgba(255, 255, 255, 1)" stroke-width="1.5" stroke-linejoin="round" stroke-linecap="round" d="M13.5 13L19.5 13"/>
  <path stroke="rgba(255, 255, 255, 1)" stroke-width="1.5" stroke-linejoin="round" stroke-linecap="round" d="M16.5 15.9412L19.5 15.9412"/>
  <path stroke="rgba(255, 255, 255, 1)" stroke-width="1.5" stroke-linejoin="round" stroke-linecap="round" d="M13.5034 18.8823L19.5034 18.8823"/>
  <path fill="rgba(255, 255, 255, 1)" d="M16.5842 4.37023L19.2092 8.87016C19.6953 9.70348 19.0942 10.75 18.1295 10.75L12.9337 10.75C11.974 10.75 11.3723 9.71328 11.8484 8.87996L14.4191 4.38C14.8965 3.54441 16.0994 3.53899 16.5842 4.37023L15.2886 5.12603C15.3855 5.29226 15.6261 5.29115 15.7216 5.12406L13.1508 9.62403C13.2461 9.45736 13.1257 9.25 12.9337 9.25L18.1295 9.25C17.9365 9.25 17.8163 9.4593 17.9135 9.62597L15.2886 5.12603L16.5842 4.37023Z"/>
</svg>
