<?xml version="1.0" encoding="UTF-8"?>
<svg width="24px" height="24px" viewBox="0 0 24 24" version="1.1" xmlns="http://www.w3.org/2000/svg" xmlns:xlink="http://www.w3.org/1999/xlink">
    <title>脚本设置</title>
    <g id="直播列表-原型修改" stroke="none" stroke-width="1" fill="none" fill-rule="evenodd">
        <g id="4-1.2-运营直播间-公共" transform="translate(-1026.000000, -763.000000)">
            <g id="编组-59" transform="translate(340.000000, 69.000000)">
                <g id="编组-60" transform="translate(0.000000, 84.000000)">
                    <g id="操作栏1" transform="translate(0.000000, 540.000000)">
                        <g id="脚本设置" transform="translate(686.000000, 70.000000)">
                            <rect id="矩形" x="0" y="0" width="24" height="24"></rect>
                            <path d="M22.9565217,1 C23.5328189,1 24,1.42824937 24,1.95652174 L24,22.0434783 C24,22.5717506 23.5328189,23 22.9565217,23 L1.04347826,23 C0.467181131,23 0,22.5717506 0,22.0434783 L0,1.95652174 C0,1.42824937 0.467181131,1 1.04347826,1 L22.9565217,1 Z M22,9.3 L2,9.3 L2,21 L22,21 L22,9.3 Z M12.544644,10.8248445 C12.6815128,10.8443213 12.7879222,10.9480347 12.8146925,11.0788359 L12.8212133,11.1462292 L12.8212133,12.111522 C13.2667802,12.2340245 13.6782,12.4546901 14.0258216,12.7561964 L14.1941786,12.9136061 L15.0211684,12.4306843 C15.1588817,12.3500368 15.3350574,12.3841351 15.4327347,12.5103416 C15.6532556,12.8038779 15.8361212,13.1238928 15.9770573,13.4629061 C16.0278195,13.5911811 15.9919353,13.7347607 15.893231,13.8244599 L15.8387542,13.8644992 L15.0123155,14.3463191 C15.1294373,14.797176 15.146169,15.2672727 15.0625106,15.7236267 L15.0123155,15.9505058 L15.8393052,16.4323257 C15.9781362,16.5154497 16.0351018,16.6877455 15.9731818,16.8372432 C15.8327869,17.1753197 15.6504691,17.494416 15.4305123,17.7870342 C15.3465031,17.8960395 15.2042241,17.9368715 15.0781083,17.8950982 L15.0167419,17.867261 L14.1908726,17.3854595 C13.8652865,17.7133616 13.4710238,17.96336 13.0376919,18.1181581 L12.8179073,18.1875437 L12.8179073,19.1528181 C12.8194804,19.3142026 12.7011202,19.4517236 12.5413012,19.4742028 C12.1804362,19.5200997 11.8152108,19.5200997 11.4543458,19.4742028 C11.3174645,19.4547403 11.2110389,19.3510256 11.1842627,19.2202161 L11.1777397,19.1528181 L11.1777397,18.1875253 C10.7337284,18.0637126 10.3238276,17.8428206 9.97715292,17.5419255 L9.80921923,17.3848902 L8.97945607,17.8694651 C8.84179182,17.949713 8.66601139,17.9159251 8.56790811,17.7903587 C8.34738631,17.4966249 8.16452228,17.1764278 8.02358554,16.8372432 C7.9719224,16.7086914 8.0075795,16.5643249 8.10662493,16.4742095 L8.16131921,16.4339971 L8.99106398,15.9516078 C8.92574813,15.7045455 8.89100747,15.4503995 8.8876214,15.1948716 C8.8842832,14.9806724 8.90270563,14.7668736 8.9424952,14.5567497 L8.98939259,14.3479721 L8.16242123,13.8656012 C8.02351194,13.7844903 7.96491901,13.6139067 8.02466919,13.4645592 C8.16513567,13.1253211 8.34803404,12.8052552 8.56899176,12.512013 C8.6528649,12.4028453 8.79514374,12.3618129 8.92134571,12.4034565 L8.98276212,12.4312353 L9.80864985,12.9136061 C10.1340112,12.5856434 10.52813,12.3356182 10.9613509,12.1808622 L11.1810825,12.1115036 L11.1810825,11.1462292 C11.1792625,10.9847676 11.2977228,10.847112 11.4576519,10.8248445 C11.8184933,10.7783852 12.1838026,10.7783852 12.544644,10.8248445 Z M12.0462145,13.3500998 L12.0200348,13.3500998 C11.375125,13.3433266 10.7758156,13.681897 10.4487615,14.2377659 C10.1217074,14.7936347 10.1168325,15.4819499 10.4359806,16.0423954 C10.728533,16.556137 11.2524187,16.8905462 11.8344702,16.9445327 L11.9945235,16.9522277 L12.046883,16.9522277 C13.0165687,16.9368875 13.7957247,16.1484906 13.7996314,15.1786691 C13.8194823,14.1898828 13.0349634,13.371739 12.0462145,13.3500998 Z M22,3 L2,3 L2,8 L22,8 L22,3 Z M4.21349448,5.0002213 C4.74715808,5.02501615 5.16708279,5.46490245 5.16708279,5.9991395 C5.16708279,6.53337654 4.74715808,6.97326285 4.21349448,6.99805769 C3.84554445,7.01515322 3.49798693,6.82858775 3.30889885,6.51247964 C3.11981077,6.19637152 3.11981077,5.80190747 3.30889885,5.48579935 C3.49798693,5.16969124 3.84554445,4.98312577 4.21349448,5.0002213 Z M10.2134945,5.0002213 C10.7471581,5.02501615 11.1670828,5.46490245 11.1670828,5.9991395 C11.1670828,6.53337654 10.7471581,6.97326285 10.2134945,6.99805769 C9.84554445,7.01515322 9.49798693,6.82858775 9.30889885,6.51247964 C9.11981077,6.19637152 9.11981077,5.80190747 9.30889885,5.48579935 C9.49798693,5.16969124 9.84554445,4.98312577 10.2134945,5.0002213 Z M7.21349448,5.0002213 C7.74715808,5.02501615 8.16708279,5.46490245 8.16708279,5.9991395 C8.16708279,6.53337654 7.74715808,6.97326285 7.21349448,6.99805769 C6.84554445,7.01515322 6.49798693,6.82858775 6.30889885,6.51247964 C6.11981077,6.19637152 6.11981077,5.80190747 6.30889885,5.48579935 C6.49798693,5.16969124 6.84554445,4.98312577 7.21349448,5.0002213 Z" id="形状结合" fill="#333333" fill-rule="nonzero"></path>
                        </g>
                    </g>
                </g>
            </g>
        </g>
    </g>
</svg>