<?xml version="1.0" encoding="UTF-8"?>
<svg width="20px" height="20px" viewBox="0 0 20 20" version="1.1" xmlns="http://www.w3.org/2000/svg" xmlns:xlink="http://www.w3.org/1999/xlink">
    <title></title>
    <defs>
        <rect id="path-1" x="0" y="0" width="20" height="20"></rect>
    </defs>
    <g id="我的店铺" stroke="none" stroke-width="1" fill="none" fill-rule="evenodd">
        <g id="菜单栏图标" transform="translate(-559.000000, -224.000000)">
            <g id="编组" transform="translate(559.000000, 224.000000)">
                <mask id="mask-2" fill="white">
                    <use xlink:href="#path-1"></use>
                </mask>
                <g id="支付设置icon-(Background/Mask)"></g>
                <path d="M9.99990273,19.0999031 C4.97411135,19.0999031 0.899902344,15.0256941 0.899902344,9.99990273 C0.899902344,4.97411135 4.97411135,0.899902344 9.99990273,0.899902344 C15.0256941,0.899902344 19.0999031,4.97411135 19.0999031,9.99990273 C19.0999031,15.0256941 15.0256941,19.0999031 9.99990273,19.0999031 Z" id="Vector" stroke="#FFFFFF" stroke-dasharray="0,0" mask="url(#mask-2)"></path>
                <g id="Group" mask="url(#mask-2)" fill="#FFFFFF" fill-rule="nonzero">
                    <g transform="translate(6.092773, 4.999023)" id="Vector">
                        <path d="M7.04396801,5.25486986 C7.04396801,5.3767926 6.94421295,5.47654756 6.8222901,5.47654756 L5.07546797,5.47654756 C4.95354512,5.47654756 4.85379006,5.57630252 4.85379006,5.69822526 L4.85379006,6.23468489 C4.85379006,6.35660763 4.95354512,6.45636259 5.07546797,6.45636259 L6.8222901,6.45636259 C6.94421295,6.45636259 7.04396801,6.55611755 7.04396801,6.67804029 L7.04396801,7.32977369 C7.04396801,7.45169643 6.94421295,7.55145139 6.8222901,7.55145139 L5.07546797,7.55145139 C4.95354512,7.55145139 4.85379006,7.65120635 4.85379006,7.77312909 L4.85379006,9.77931126 C4.85379006,9.901234 4.75403501,10.000989 4.63211216,10.000989 L3.10142649,10.000989 C2.97950364,10.000989 2.87974858,9.901234 2.87974858,9.77931126 L2.87974858,7.77312909 C2.87974858,7.65120635 2.77999353,7.55145139 2.65807068,7.55145139 L0.911248648,7.55145139 C0.789325797,7.55145139 0.689570742,7.45169643 0.689570742,7.32977369 L0.689570742,6.67804029 C0.689570742,6.55611755 0.789325797,6.45636259 0.911248648,6.45636259 L2.65807068,6.45636259 C2.77999353,6.45636259 2.87974858,6.35660763 2.87974858,6.23468489 L2.87974858,5.69822526 C2.87974858,5.57630252 2.77999353,5.47654756 2.65807068,5.47654756 L0.911248648,5.47654756 C0.789325797,5.47654756 0.689570742,5.3767926 0.689570742,5.25486986 L0.689570742,4.60313773 C0.689570742,4.48121499 0.789325797,4.38146003 0.911248648,4.38146003 L1.97751873,4.38146003 C2.14821071,4.38146003 2.25461648,4.19746754 2.16927049,4.04894348 L0.0300784419,0.33251655 C-0.0552675497,0.185100875 0.051138216,0 0.221830199,0 L1.94870121,0 C2.03293881,0 2.10941779,0.0476607723 2.14710304,0.123031191 L3.85845589,3.57344471 L3.95931975,3.57344471 L5.72720071,0.120814363 C5.76488595,0.0465523321 5.84136469,0 5.92449391,0 L7.59040323,0 C7.7622036,0 7.86860914,0.187317702 7.78104637,0.334733378 L5.58311057,4.0456176 C5.4955478,4.19303328 5.60195249,4.3803514 5.77375286,4.3803514 L6.82007285,4.3803514 C6.94532086,4.38145979 7.04396801,4.48121499 7.04396801,4.60313773 L7.04396801,5.25486986 Z"></path>
                    </g>
                </g>
            </g>
        </g>
    </g>
</svg>