<?xml version="1.0" encoding="UTF-8"?>
<svg width="20px" height="19px" viewBox="0 0 20 19" version="1.1" xmlns="http://www.w3.org/2000/svg" xmlns:xlink="http://www.w3.org/1999/xlink">
    <title></title>
    <g id="基础设置" stroke="none" stroke-width="1" fill="none" fill-rule="evenodd">
        <g id="领域管理" transform="translate(-28.000000, -458.000000)">
            <g id="编组-144备份" transform="translate(0.000000, 69.000000)">
                <g id="Group-13备份-8" transform="translate(8.000000, 379.000000)">
                    <g id="编组" transform="translate(20.000000, 9.000000)">
                        <rect id="矩形" x="0" y="0" width="20" height="20"></rect>
                        <g id="编组-11" transform="translate(1.000000, 2.000000)" stroke-linejoin="round" stroke-width="1.35">
                            <path d="M6.42771,17 C4.919715,16.5588632 3.57741,15.7398617 2.5145415,14.6546836 C2.91105,14.1929424 3.15,13.5963443 3.15,12.9449191 C3.15,11.479754 1.9411695,10.2919963 0.45,10.2919963 C0.3597975,10.2919963 0.2706255,10.2963736 0.1826955,10.304863 C0.0629055,9.72939979 0,9.13364177 0,8.52338109 C0,7.59901436 0.1443465,6.70776495 0.4121055,5.87019301 C0.4247145,5.87036987 0.437346,5.8704583 0.45,5.8704583 C1.9411695,5.8704583 3.15,4.68270055 3.15,3.21753551 C3.15,2.7969146 3.05037,2.39919726 2.87307,2.04583236 C3.913875,1.09493198 5.184225,0.383294285 6.593445,0 C7.03998,0.860011246 7.950015,1.44893358 9,1.44893358 C10.049985,1.44893358 10.96002,0.860011246 11.406555,0 C12.815775,0.383294285 14.086125,1.09493198 15.12693,2.04583236 C14.94963,2.39919726 14.85,2.7969146 14.85,3.21753551 C14.85,4.68270055 16.058835,5.8704583 17.55,5.8704583 C17.562645,5.8704583 17.57529,5.87036987 17.58789,5.87019301 C17.85564,6.70776495 18,7.59901436 18,8.52338109 C18,9.13364177 17.93709,9.72939979 17.8173,10.304863 C17.72937,10.2963736 17.640225,10.2919963 17.55,10.2919963 C16.058835,10.2919963 14.85,11.479754 14.85,12.9449191 C14.85,13.5963443 15.08895,14.1929424 15.485445,14.6546836 C14.42259,15.7398617 13.080285,16.5588632 11.57229,17 C11.22426,15.9302973 10.2042,15.1556881 9,15.1556881 C7.7958,15.1556881 6.77574,15.9302973 6.42771,17 Z" id="路径" stroke="#333333"></path>
                            <path d="M9,11.6184135 C10.7397,11.6184135 12.15,10.2327035 12.15,8.52333688 C12.15,6.81397029 10.7397,5.42826029 9,5.42826029 C7.2603,5.42826029 5.85,6.81397029 5.85,8.52333688 C5.85,10.2327035 7.2603,11.6184135 9,11.6184135 Z" id="路径" stroke="#0C6FFF"></path>
                        </g>
                    </g>
                </g>
            </g>
        </g>
    </g>
</svg>