<?xml version="1.0" encoding="UTF-8"?>
<svg width="24px" height="24px" viewBox="0 0 24 24" version="1.1" xmlns="http://www.w3.org/2000/svg" xmlns:xlink="http://www.w3.org/1999/xlink">
    <g id="自媒体运营2.0" stroke="none" stroke-width="1" fill="none" fill-rule="evenodd">
        <g id="编组-86">
            <rect id="矩形" x="0" y="0" width="24" height="24"></rect>
            <g id="编组" transform="translate(2.000000, 4.500000)" fill="#D9D9D9" fill-rule="nonzero">
                <path d="M9.24,0.0708849942 L5,2.58005629 L1.02,2.58005629 C0.46,2.58005629 0,3.03269111 0,3.5837248 L0,11.435955 C0,11.9771488 0.45,12.4199437 1,12.4199437 L5,12.4199437 L9.24,14.929115 C9.57,15.1259128 10,14.8897555 10,14.5059998 L10,0.494000154 C10,0.110244544 9.58,-0.125912754 9.24,0.0708849942 Z" id="路径"></path>
                <path d="M18.6716119,4.32838813 C19.1094627,4.76623897 19.1094627,5.47353649 18.6716119,5.91138733 L17.083,7.5 L18.6716119,9.08861267 C19.1094627,9.52646351 19.1094627,10.233761 18.6716119,10.6716119 C18.233761,11.1094627 17.5264635,11.1094627 17.0886127,10.6716119 L15.5,9.083 L13.9113873,10.6716119 C13.4847634,11.1094627 12.766239,11.1094627 12.3283881,10.6716119 C11.8905373,10.233761 11.8905373,9.52646351 12.3283881,9.08861267 L13.917,7.5 L12.3283881,5.91138733 C11.8905373,5.48476343 11.8905373,4.76623897 12.3283881,4.32838813 C12.766239,3.89053729 13.4735365,3.89053729 13.9113873,4.32838813 L15.5,5.917 L17.0886127,4.32838813 C17.5264635,3.89053729 18.233761,3.89053729 18.6716119,4.32838813 Z" id="形状结合"></path>
            </g>
        </g>
    </g>
</svg>