<?xml version="1.0" encoding="UTF-8"?>
<svg width="20px" height="20px" viewBox="0 0 20 20" version="1.1" xmlns="http://www.w3.org/2000/svg" xmlns:xlink="http://www.w3.org/1999/xlink">
    <g id="直播列表-原型修改" stroke="none" stroke-width="1" fill="none" fill-rule="evenodd">
        <g id="4-1.2-运营直播间-公共" transform="translate(-995.000000, -707.000000)" fill="#333333" fill-rule="nonzero">
            <g id="编组-78" transform="translate(965.000000, 567.000000)">
                <g id="编组-58备份-2" transform="translate(10.000000, 130.000000)">
                    <g id="紧急下课" transform="translate(20.000000, 10.000000)">
                        <path d="M9.90700074,3.44966308 C14.3417991,3.44966308 17.9356251,6.84501659 17.9356251,11.0348989 L17.9356251,11.0348989 L17.9356251,18.6181233 L19.0299536,18.6181233 C19.4323429,18.6181233 19.7602157,18.927889 19.7602157,19.3100674 C19.7602157,19.6922458 19.4323429,20 19.0299536,20 L19.0299536,20 L0.784047824,20 C0.379529492,20 0.0537857822,19.6922458 0.0537857822,19.3100674 C0.0537857822,18.927889 0.381658536,18.6201348 0.784047824,18.6201348 L0.784047824,18.6201348 L1.87837636,18.6201348 L1.87837636,11.0348989 C1.87837636,6.84501659 5.47220239,3.44966308 9.90700074,3.44966308 Z M9.90700074,4.82952831 C6.27911001,4.82952831 3.33890045,7.60736196 3.33890045,11.0348989 L3.33890045,11.0348989 L3.33890045,18.6181233 L9.17673869,18.6181233 L9.17673869,15.8604043 C9.17673869,15.4782259 9.5024824,15.1704717 9.90700074,15.1704717 C10.3115191,15.1704717 10.6372628,15.4802374 10.6372628,15.8604043 L10.6372628,15.8604043 L10.6372628,18.6201348 L16.475101,18.6201348 L16.475101,11.0348989 C16.475101,7.60736196 13.5348915,4.82952831 9.90700074,4.82952831 Z M10.4222293,6.82892487 C10.4839716,6.73840893 10.6330047,6.7927185 10.6138433,6.89932616 L10.6138433,6.89932616 L10.113518,9.73951524 C10.1028728,9.7998592 10.1539698,9.85416876 10.2178411,9.85416876 L10.2178411,9.85416876 L12.4022401,9.85416876 C12.4852728,9.85416876 12.5363699,9.94066177 12.49166,10.0070401 L12.49166,10.0070401 L9.76648384,14.048074 C9.70474157,14.13859 9.5557085,14.0842804 9.57486989,13.9776727 L9.57486989,13.9776727 L10.0751952,11.1374837 C10.0858404,11.0771397 10.0347434,11.0228301 9.97087205,11.0228301 L9.97087205,11.0228301 L7.78647306,11.0228301 C7.70344035,11.0228301 7.65234329,10.9363371 7.69705322,10.8699588 L7.69705322,10.8699588 Z M18.7531779,3.93643769 C19.0384698,3.66690134 19.5004723,3.66690134 19.7857642,3.93643769 C20.0710561,4.20597405 20.0710561,4.64246203 19.7878933,4.91199839 L19.7878933,4.91199839 L18.755307,5.88755909 C18.4678861,6.14904958 18.0122707,6.14502665 17.7312369,5.87951323 C17.4502031,5.61198833 17.445945,5.18354621 17.7227207,4.91199839 L17.7227207,4.91199839 Z M0.213464071,3.93167531 C0.496626904,3.66616189 0.950113244,3.66213895 1.23753416,3.92362945 L1.23753416,3.92362945 L2.27012043,4.89919015 C2.54689613,5.17073797 2.54263805,5.60119155 2.26160426,5.86670498 C1.97844143,6.13221841 1.52495508,6.13624134 1.23753416,5.87475084 L1.23753416,5.87475084 L0.204947896,4.89919015 C-0.0718278052,4.62764232 -0.0675697175,4.19718874 0.213464071,3.93167531 Z M9.90487169,0 C10.30939,0 10.6351337,0.309765664 10.6351337,0.689932616 L10.6351337,0.689932616 L10.6351337,2.07180931 C10.6351337,2.25485266 10.5584882,2.42985015 10.4222293,2.55858393 C10.2859705,2.68731771 10.1007437,2.75973046 9.90700074,2.75973046 C9.50461145,2.75973046 9.17673869,2.4499648 9.17460965,2.06979785 L9.17460965,2.06979785 L9.17460965,0.689932616 C9.17460965,0.307754199 9.50035336,0 9.90487169,0 Z" id="形状结合"></path>
                    </g>
                </g>
            </g>
        </g>
    </g>
</svg>