<?xml version="1.0" encoding="UTF-8"?>
<svg width="16px" height="16px" viewBox="0 0 16 16" version="1.1" xmlns="http://www.w3.org/2000/svg" xmlns:xlink="http://www.w3.org/1999/xlink">
    <g id="运营直播间" stroke="none" stroke-width="1" fill="none" fill-rule="evenodd">
        <g id="图标/状态" transform="translate(-44.000000, -51.000000)">
            <rect fill="#FFFFFF" x="0" y="0" width="655" height="468"></rect>
            <g id="编组" transform="translate(44.000000, 51.000000)">
                <circle id="椭圆形" stroke="#F53F3F" fill="#FFFFFF" cx="8" cy="8" r="7.5"></circle>
                <path d="M9.79424982,7.628126 L9.79424982,6.24837161 L9.06604611,6.97657532 L9.06604611,7.628126 C9.06508795,8.11391453 8.66361775,8.51059392 8.16537311,8.50963575 C7.98236402,8.51059392 7.81276921,8.45789496 7.66712847,8.36591134 L7.14972057,8.89290086 C7.42854594,9.10752932 7.78114984,9.23783946 8.16537311,9.23783946 C9.06412979,9.23783946 9.79424982,8.51825922 9.79424982,7.628126 Z" id="路径" fill="#F53F3F" fill-rule="nonzero"></path>
                <path d="M11.2410756,7.54189135 L10.6661779,7.54189135 C10.6240188,7.54189135 10.5895249,7.57638521 10.5895249,7.61854438 C10.5895249,8.96284674 9.50009385,10.0522778 8.15579148,10.0522778 C7.55214893,10.0522778 6.99928902,9.83190038 6.57482291,9.46779853 L6.05741501,9.98520642 C6.52595661,10.3991327 7.11905936,10.6779581 7.77252637,10.7613183 L7.77252637,11.7386443 L6.38319035,11.7386443 C6.25000573,11.7386443 6.14460782,11.8756616 6.14364966,12.0452564 L6.14364966,12.390195 C6.14460782,12.4323541 6.17143638,12.466848 6.20113943,12.466848 L10.1104435,12.466848 C10.1411047,12.466848 10.1679333,12.4323541 10.1679333,12.390195 L10.1679333,12.0452564 C10.1679333,11.8756616 10.0625354,11.7386443 9.92839261,11.7386443 L8.50073008,11.7386443 L8.50073008,10.7613183 C10.0845731,10.5898071 11.3177286,9.24837925 11.3177286,7.61854438 C11.3177286,7.57638521 11.2832348,7.54189135 11.2410756,7.54189135 Z M11.3665949,3.92291057 L10.9497941,3.52144036 C10.9200911,3.49269548 10.8721829,3.49269548 10.8424799,3.52239853 L9.60644992,4.7584285 C9.33720618,4.23814612 8.78817891,3.88170957 8.15579148,3.88170957 C7.25607664,3.88170957 6.52691477,4.60320613 6.52691477,5.49142302 L6.52691477,7.63770763 C6.52691477,7.70190454 6.53074742,7.76514328 6.53841272,7.82742386 L5.88686204,8.47897454 C5.78625495,8.21164713 5.73068151,7.92132381 5.73163967,7.61854438 C5.72972334,7.57638521 5.69522948,7.54189135 5.65498665,7.54189135 L5.08008898,7.54189135 C5.03792982,7.54189135 5.00343596,7.57638521 5.00343596,7.61854438 C5.00343596,8.12637064 5.12320631,8.60545203 5.33496028,9.0308763 L4.02227728,10.3435593 C3.99257424,10.3732623 3.99257424,10.4221286 4.02227728,10.4518317 L4.43141279,10.8609672 C4.46111583,10.8906702 4.50998214,10.8906702 4.53968518,10.8609672 L11.3675531,4.03309928 L11.3685113,4.03214112 C11.3982143,4.00147991 11.3972561,3.95261361 11.3665949,3.92291057 Z M7.25511848,7.11071811 L7.25511848,5.49142302 C7.25511848,5.00659266 7.65658868,4.60991327 8.15579148,4.60991327 C8.59654636,4.60991327 8.96160637,4.91939985 9.04017572,5.32566086 L7.25511848,7.11071811 Z" id="形状" fill="#F53F3F" fill-rule="nonzero"></path>
            </g>
        </g>
    </g>
</svg>