<?xml version="1.0" encoding="UTF-8"?>
<svg width="41px" height="42px" viewBox="0 0 41 42" version="1.1" xmlns="http://www.w3.org/2000/svg" xmlns:xlink="http://www.w3.org/1999/xlink">
    <title>jpeg</title>
    <g id="产品管理" stroke="none" stroke-width="1" fill="none" fill-rule="evenodd">
        <g id="上传文件状态" transform="translate(-809.000000, -1178.000000)" fill-rule="nonzero">
            <g id="编组-4" transform="translate(368.000000, 1107.000000)">
                <g id="编组-3" transform="translate(165.000000, 71.000000)">
                    <g id="png备份-4" transform="translate(276.000000, 0.000000)">
                        <path d="M36.8698846,38.01 C36.8698846,38.535 36.6547744,39.039 36.2675761,39.417 C35.8803778,39.795 35.3641133,40.005 34.8263379,40.005 L6.1521511,40.005 C5.61437566,40.005 5.07660021,39.795 4.71091291,39.417 C4.32371459,39.039 4.10860441,38.535 4.10860441,38.01 L4.10860441,1.995 C4.10860441,1.47 4.32371459,0.945 4.71091291,0.588 C5.07660021,0.21 5.61437566,0 6.1521511,0 L23.7481637,0 C24.2859391,0 24.8237146,0.21 25.2109129,0.588 L36.2890871,11.403 C36.6762854,11.781 36.8913956,12.285 36.8913956,12.831 L36.8913956,38.01 L36.8698846,38.01 Z" id="路径" fill="#EBECF0"></path>
                        <path d="M36.8698846,38.01 L36.8698846,40.005 C36.8698846,40.53 36.6547744,41.055 36.2675761,41.412 C35.8803778,41.79 35.3641133,42 34.8263379,42 L6.1521511,42 C5.01206716,42 4.10860441,41.097 4.10860441,40.005 L4.10860441,38.01 C4.10860441,38.535 4.32371459,39.039 4.71091291,39.417 C5.09811123,39.795 5.61437566,40.005 6.1521511,40.005 L34.8263379,40.005 C35.9664218,40.005 36.8698846,39.102 36.8698846,38.01 Z" id="路径" fill="#C1C7D0"></path>
                        <path d="M0,22.008 L40.978489,22.008 L40.978489,32.004 C40.978489,33.117 40.0535152,33.999 38.9349423,33.999 L2.06505771,33.999 C1.52728227,33.999 0.989506821,33.789 0.623819517,33.411 C0.236621196,33.033 0.0215110178,32.529 0.0215110178,31.983 L0.0215110178,22.008 L0,22.008 Z" id="路径" fill="#26B99A"></path>
                        <path d="M4.10860441,22.008 L4.10860441,17.997 L0,22.008 L4.10860441,22.008 Z M36.8698846,22.008 L36.9129066,17.997 L41,22.008 L36.8698846,22.008 Z" id="形状" fill="#109978"></path>
                        <path d="M36.8698846,12.831 L36.8698846,13.104 L25.7917104,13.104 C24.6516264,13.104 23.7481637,12.201 23.7481637,11.109 L23.7481637,0 C24.2859391,0 24.8237146,0.21 25.2109129,0.588 L36.3105981,11.403 C36.6762854,11.781 36.8913956,12.285 36.8698846,12.831 L36.8698846,12.831 Z" id="路径" fill="#C1C7D0"></path>
                        <path d="M4.53986482,28.539 L6.86305474,28.539 C6.79852169,29.694 7.03514289,30.261 7.55140731,30.219 C7.98162767,30.198 8.19673785,29.862 8.19673785,29.253 L8.19673785,24.15 L10.77806,24.15 L10.77806,28.917 C10.77806,30.996 9.74553113,32.046 7.6589624,32.046 C5.40030553,32.004 4.34626566,30.849 4.53986482,28.539 L4.53986482,28.539 Z M14.8221313,31.92 L12.2408092,31.92 L12.2408092,24.171 L16.0482594,24.171 C18.2638942,24.192 19.4039781,25.074 19.4685112,26.775 C19.4470002,28.581 18.3284273,29.484 16.1343034,29.505 L14.8436424,29.505 L14.8436424,31.92 L14.8221313,31.92 Z M14.8221313,27.699 L15.8976822,27.699 C16.5860348,27.699 16.9302111,27.384 16.9302111,26.775 C16.9302111,26.25 16.4784797,25.977 15.5535059,25.977 L14.8221313,25.977 L14.8221313,27.699 Z M26.9973674,31.92 L20.3504629,31.92 L20.3504629,24.171 L26.8683013,24.171 L26.8683013,25.977 L22.9748071,25.977 L22.9748071,27.069 L26.2659928,27.069 L26.2659928,28.875 L22.9748071,28.875 L22.9748071,30.093 L26.9973674,30.093 L26.9973674,31.92 L26.9973674,31.92 Z M35.9459509,27.657 L35.9459509,31.92 L34.2680915,31.92 L34.1820474,31.164 C33.665783,31.752 32.8483643,32.046 31.7728134,32.046 C29.2990463,31.941 28.0083853,30.618 27.9223412,28.119 C28.0729183,25.452 29.4496235,24.066 32.0739676,23.94 C34.2035584,24.003 35.4727085,24.948 35.8814178,26.796 L33.3861397,26.796 C33.2140516,26.145 32.7623202,25.83 32.0524566,25.83 C31.0629498,25.851 30.5681964,26.607 30.5466854,28.098 C30.5681964,29.505 31.1274829,30.198 32.2245448,30.198 C32.9128973,30.114 33.3646287,29.82 33.5582279,29.316 L32.3966329,29.316 L32.3966329,27.636 L35.9459509,27.636 L35.9459509,27.657 Z" id="形状" fill="#FFFFFF"></path>
                    </g>
                </g>
            </g>
        </g>
    </g>
</svg>