<?xml version="1.0" encoding="UTF-8"?>
<svg width="80px" height="92px" viewBox="0 0 80 92" version="1.1" xmlns="http://www.w3.org/2000/svg" xmlns:xlink="http://www.w3.org/1999/xlink">
    <defs>
        <filter x="-62.5%" y="-62.5%" width="225.0%" height="225.0%" filterUnits="objectBoundingBox" id="filter-1">
            <feGaussianBlur stdDeviation="10" in="SourceGraphic"></feGaussianBlur>
        </filter>
    </defs>
    <g id="自媒体运营2.0" stroke="none" stroke-width="1" fill="none" fill-rule="evenodd">
        <g id="云桌面管理" transform="translate(-842.000000, -148.000000)">
            <g id="编组-43" transform="translate(272.000000, 108.000000)">
                <g id="编组-25" transform="translate(0.000000, 40.000000)">
                    <g id="编组-17" transform="translate(570.000000, 0.000000)">
                        <g id="编组-13" transform="translate(16.000000, 22.000000)">
                            <circle id="椭圆形" fill-opacity="0.2" fill="#00B42A" filter="url(#filter-1)" cx="24" cy="24" r="24"></circle>
                            <circle id="椭圆形" fill-opacity="0.2" fill="#00B42A" cx="24" cy="24" r="24"></circle>
                            <g id="编组" transform="translate(8.000000, 11.000000)" fill-rule="nonzero">
                                <path d="M27.4179511,20.9301389 L4.50806416,20.9301389 C1.99544297,20.9301389 0,18.9745406 0,16.5123781 L0,4.41776071 C0,1.95524668 1.99544297,0 4.50806416,0 L27.4919358,0 C30.0049144,0 32,1.95559822 32,4.41776071 L32,16.5123781 C32,18.9748922 29.9305723,20.9301389 27.4179511,20.9301389 Z" id="路径" fill="#00B42A"></path>
                                <path d="M23.7226467,26 L8.20336863,26 C7.61220569,26 7.09467006,25.4930842 7.09467006,24.9137518 C7.09467006,24.3344195 7.61184828,23.8275037 8.20336863,23.8275037 L23.7969888,23.8275037 C24.3881517,23.8275037 24.9056874,24.3344195 24.9056874,24.9137518 C24.9053299,25.4927327 24.3881517,26 23.7226467,26 Z" id="路径" fill="#36B453"></path>
                                <path d="M5.3476299,4.27609145 C4.7954251,4.27609145 4.34758522,4.71656684 4.34758522,5.25969092 C4.34758522,5.802815 4.7954251,6.24329038 5.3476299,6.24329038 L23.6375821,6.24329038 C24.1897869,6.24329038 24.6376268,5.802815 24.6376268,5.25969092 C24.6376268,4.71656684 24.1897869,4.27609145 23.6375821,4.27609145 L5.3476299,4.27609145 Z M5.3476299,8.55253444 C4.7954251,8.55253444 4.34758522,8.99300983 4.34758522,9.53613391 C4.34758522,10.079258 4.7954251,10.5197334 5.3476299,10.5197334 L16.391011,10.5197334 C16.9432158,10.5197334 17.3910557,10.079258 17.3910557,9.53613391 C17.3910557,8.99300983 16.9432158,8.55253444 16.391011,8.55253444 L5.3476299,8.55253444 Z" id="形状" fill="#FFFFFF"></path>
                            </g>
                        </g>
                    </g>
                </g>
            </g>
        </g>
    </g>
</svg>