<?xml version="1.0" encoding="UTF-8"?>
<svg width="20px" height="20px" viewBox="0 0 20 20" version="1.1" xmlns="http://www.w3.org/2000/svg" xmlns:xlink="http://www.w3.org/1999/xlink">
    <title></title>
    <defs>
        <rect id="path-1" x="0" y="0" width="20" height="20"></rect>
    </defs>
    <g id="Page-1" stroke="none" stroke-width="1" fill="none" fill-rule="evenodd">
        <g id="其他状态" transform="translate(-381.000000, -211.000000)">
            <g id="编组" transform="translate(381.000000, 211.000000)">
                <mask id="mask-2" fill="white">
                    <use xlink:href="#path-1"></use>
                </mask>
                <g id="客服icon-(Background/Mask)"></g>
                <path d="M8.5,6 C8.77614237,6 9,6.22385763 9,6.5 L9,7.5 C9,7.77614237 8.77614237,8 8.5,8 C8.22385763,8 8,7.77614237 8,7.5 L8,6.5 C8,6.22385763 8.22385763,6 8.5,6 Z" id="Rectangle-261" fill="#0C6FFF" mask="url(#mask-2)"></path>
                <path d="M11.5,6 C11.7761424,6 12,6.22385763 12,6.5 L12,7.5 C12,7.77614237 11.7761424,8 11.5,8 C11.2238576,8 11,7.77614237 11,7.5 L11,6.5 C11,6.22385763 11.2238576,6 11.5,6 Z" id="Rectangle-262" fill="#0C6FFF" mask="url(#mask-2)"></path>
                <path d="M2,19 C2,15.6457693 4.14533361,12.7832314 7.16533356,11.6612314 C5.66400019,10.7353853 4.66666667,9.09684621 4.66666667,7.23076923 C4.66666667,4.3420769 7.05466665,2 10,2 C12.9453334,2 15.3333333,4.3420769 15.3333333,7.23076923 C15.3333333,9.09684621 14.3360003,10.7353853 12.834667,11.6612314 C15.8546669,12.7832314 18,15.6457693 18,19 L2,19 Z" id="Vector" stroke="#333333" stroke-dasharray="0,0" fill-rule="nonzero" mask="url(#mask-2)"></path>
                <g id="Group" mask="url(#mask-2)" fill="#333333" fill-rule="nonzero">
                    <g transform="translate(2.000000, 0.189941)" id="Vector">
                        <path d="M1.67886281,6.4970867 C2.00467981,3.27297948 4.71784679,0.755302994 8.02637024,0.755302994 C11.2327055,0.755302994 13.876266,3.12043779 14.3353717,6.1979274 C14.3309287,6.1979274 14.3264863,6.19644666 14.3220434,6.19644666 L14.3220434,9.81005287 C15.2683936,9.74044652 16,8.95256224 16,8.00325005 C16,7.34717315 15.6475262,6.77995541 15.126219,6.46154334 C14.7811492,2.83756999 11.7406839,0 8.02637024,0 C4.32390446,0 1.29232551,2.81979803 0.93096484,6.42748073 C0.231939332,6.81549912 -0.129421381,7.61671261 0.0423730266,8.39719238 C0.215648419,9.17767215 0.882092162,9.75229441 1.67886281,9.81005287 L1.67886281,6.4970867 Z"></path>
                    </g>
                </g>
            </g>
        </g>
    </g>
</svg>