<?xml version="1.0" encoding="UTF-8"?>
<svg width="20px" height="20px" viewBox="0 0 20 20" version="1.1" xmlns="http://www.w3.org/2000/svg" xmlns:xlink="http://www.w3.org/1999/xlink">
    <title></title>
    <g id="讲师管理" stroke="none" stroke-width="1" fill="none" fill-rule="evenodd">
        <g id="师资评估-左滑" transform="translate(-28.000000, -733.000000)">
            <g id="编组-144备份" transform="translate(0.000000, 69.000000)">
                <g id="Group-13备份-7" transform="translate(8.000000, 655.000000)">
                    <g id="编组-24" transform="translate(20.000000, 9.000000)">
                        <rect id="矩形" x="0" y="0" width="20" height="20"></rect>
                        <g id="编组-22" transform="translate(0.483333, 1.666667)">
                            <path d="M3.66060639,10.6060606 L3.66060639,6.06060606 C3.66060639,2.71342576 6.27227869,0 9.49393973,0 C12.7156008,0 15.3272731,2.71342576 15.3272731,6.06060606 L15.3272731,10.6060606 C15.3272731,13.9532409 12.7156008,16.6666667 9.49393973,16.6666667" id="路径" stroke="#333333" stroke-linecap="round"></path>
                            <path d="M3.66666667,5.08333333 L3.66666667,10.75 L2.5,10.75 C1.94771525,10.75 1.44771525,10.5261424 1.08578644,10.1642136 C0.723857625,9.80228475 0.5,9.30228475 0.5,8.75 L0.5,8.75 L0.5,7.08333333 C0.5,6.53104858 0.723857625,6.03104858 1.08578644,5.66911977 C1.44771525,5.30719096 1.94771525,5.08333333 2.5,5.08333333 L2.5,5.08333333 L3.66666667,5.08333333 Z" id="矩形" stroke="#333333"></path>
                            <path d="M16.4500007,5.08333333 C17.0022854,5.08333333 17.5022854,5.30719096 17.8642142,5.66911977 C18.226143,6.03104858 18.4500007,6.53104858 18.4500007,7.08333333 L18.4500007,7.08333333 L18.4500007,8.75 C18.4500007,9.30228475 18.226143,9.80228475 17.8642142,10.1642136 C17.5022854,10.5261424 17.0022854,10.75 16.4500007,10.75 L16.4500007,10.75 L15.283334,10.75 L15.283334,5.08333333 Z" id="矩形备份-2" stroke="#333333"></path>
                            <path d="M6.93333367,11.25 C8.43753438,12.290724 10.429133,12.290724 11.9333337,11.25 L11.9333337,11.25 L11.9333337,11.25" id="直线-3" stroke="#0C6FFF" stroke-linecap="round"></path>
                        </g>
                    </g>
                </g>
            </g>
        </g>
    </g>
</svg>