<?xml version="1.0" encoding="UTF-8"?>
<svg width="20px" height="20px" viewBox="0 0 20 20" version="1.1" xmlns="http://www.w3.org/2000/svg" xmlns:xlink="http://www.w3.org/1999/xlink">
    <g id="订单机构入驻" stroke="none" stroke-width="1" fill="none" fill-rule="evenodd">
        <g id="直播排班管理" transform="translate(-790.000000, -430.000000)">
            <g id="编组-136" transform="translate(247.000000, 89.000000)">
                <g id="编组-10备份" transform="translate(20.000000, 196.000000)">
                    <g id="编组-4备份" transform="translate(0.000000, 118.000000)">
                        <g id="编组-7" transform="translate(523.000000, 26.000000)">
                            <g id="编组-2" transform="translate(0.000000, 1.000000)">
                                <circle id="椭圆形" stroke="#FFFFFF" stroke-width="0.5" fill="#FF4905" cx="10" cy="10" r="9.75"></circle>
                                <g id="编组" transform="translate(5.000000, 4.000000)" fill="#FFFFFF" fill-rule="nonzero">
                                    <path d="M4.23787444,6.58631839 C4.29086628,6.58331814 8.02679032,6.27279133 8.27555752,6.31254477 C8.52358872,6.35304826 9.51865754,6.32304567 9.56796938,6.71757971 C9.61728123,7.10761337 9.56796938,7.48789619 9.56796938,7.48789619 C9.56796938,7.48789619 7.35997645,7.88243024 7.31066461,7.9341847 C7.26135277,7.98443904 7.08176935,8.16745483 7.09207331,8.4404784 C7.10237727,8.71500209 7.10237727,9.77859387 7.11120924,9.80934652 C7.12224921,9.83934912 7.17156105,10.0426167 7.54986384,10.0013631 C7.79215048,9.9695413 8.02984257,9.90835302 8.25789358,9.81909738 C8.28707692,9.80825848 8.30528154,9.77857438 8.30205343,9.74709116 L8.2814455,9.47331753 C8.27992653,9.45302387 8.26996494,9.43436072 8.25407299,9.42203479 C8.23818104,9.40970886 8.21787567,9.40489673 8.19827777,9.40881196 L7.62935159,9.52432193 L7.62935159,8.43072756 L9.47376169,8.09094823 C9.51276957,8.08344759 9.54956945,8.11345018 9.55104144,8.15395368 L9.61139324,10.0081137 C9.61139324,10.0081137 9.7166409,10.4686534 8.94163539,10.6314175 C8.16589387,10.7949316 6.30676382,11.2704726 6.12718039,11.2794734 C5.863377,11.2966437 5.5985482,11.2726141 5.34187091,11.2082172 C5.13045184,11.1478556 4.92235707,11.0759965 4.7184809,10.9929487 C4.69627791,10.983821 4.67947989,10.9647213 4.67299785,10.9412336 C4.66651582,10.9177459 4.67108184,10.8925227 4.68536101,10.8729383 L5.36321484,9.93310721 C5.38831309,9.8989147 5.4017532,9.85729693 5.40148672,9.81459698 L5.40148672,8.77950765 C5.40147735,8.72586136 5.38118008,8.67428266 5.3448149,8.63549523 L3.89269154,7.07911091 C3.85378591,7.03720171 3.83588336,6.97942677 3.84411569,6.92234739 C3.86177964,6.79933677 3.93905939,6.60507001 4.23787444,6.58706846 L4.23787444,6.58631839 Z" id="路径"></path>
                                    <path d="M3.25458159,7.22312334 C3.22931622,7.19659405 3.1962333,7.17920963 3.16037388,7.17361907 L0.550526231,6.78358541 C0.51428684,6.77612277 0.47665798,6.78058795 0.443070577,6.79633651 C0.328990942,6.85034118 0.0802237334,7.0093549 0,7.40388894 L0,10.5286586 C0,10.5286586 0.0367998877,11.1527125 0.879517184,11.4407373 C1.72297049,11.7287622 2.75189519,11.9882846 2.75189519,11.9882846 C2.75189519,11.9882846 3.32597336,12.1015443 3.55781261,11.6237531 C3.78891587,11.1437117 4.89291234,9.77634368 4.89291234,9.77634368 L4.89291234,8.94827223 L3.25458159,7.22312334 L3.25458159,7.22312334 Z M2.57378376,10.9471947 C2.30440862,10.9396941 1.21071612,10.7866809 0.866269223,10.4679034 C0.553470229,10.1798785 0.709501727,7.90643231 0.709501727,7.90643231 C0.709501727,7.90643231 0.715389712,7.64240953 0.866269223,7.67091198 L2.60322367,7.9896895 C2.60322367,7.9896895 2.81960698,8.11795056 2.81960697,8.30096635 L2.81960697,10.7566783 C2.81960697,10.7574283 2.8424229,10.9554454 2.57378376,10.9471947 L2.57378376,10.9471947 Z M10,3.67981756 C10,2.4669629 9.08147494,1.48212791 7.94730257,1.48212791 C7.30109664,1.48212791 6.72407449,1.80240555 6.34797968,2.30269872 C6.04622065,0.979584534 4.9694561,0 3.68587621,0 C2.16972106,0 0.940604983,1.36661794 0.940604983,3.05201338 C0.940604983,4.73740882 2.16972105,6.1032767 3.68587621,6.1032767 C3.76536395,6.1032767 3.84411569,6.0987763 3.92286745,6.0905256 L8.02458232,5.87525703 L8.07904615,5.87300684 L8.13645396,5.86925651 L8.13498197,5.86775638 C9.18009863,5.76574758 10,4.8251664 10,3.67981756 L10,3.67981756 Z M4.20990652,4.76666135 C3.44299698,4.76666135 2.82107898,4.03759844 2.82107898,3.13752077 C2.82107898,2.23744309 3.44299698,1.50838017 4.20990652,1.50838017 C4.97681607,1.50838017 5.59947008,2.23744309 5.59947008,3.13752077 C5.59947008,4.03759845 4.97681607,4.76666135 4.20990652,4.76666135 Z M8.27261353,4.69165488 C7.76698315,4.69165488 7.35629646,4.21161345 7.35629646,3.61681212 C7.35629646,3.02276085 7.76698314,2.54196937 8.27334953,2.54196937 C8.77897991,2.54196937 9.1896666,3.0220108 9.1896666,3.61681212 C9.1896666,4.21086339 8.77897992,4.69165488 8.27334953,4.69165488 L8.27261353,4.69165488 Z" id="形状"></path>
                                </g>
                            </g>
                        </g>
                    </g>
                </g>
            </g>
        </g>
    </g>
</svg>