<?xml version="1.0" encoding="UTF-8"?>
<svg width="12px" height="12px" viewBox="0 0 12 12" version="1.1" xmlns="http://www.w3.org/2000/svg" xmlns:xlink="http://www.w3.org/1999/xlink">
    <title>讲师</title>
    <g id="订单机构入驻" stroke="none" stroke-width="1" fill="none" fill-rule="evenodd">
        <g id="直播排班管理" transform="translate(-700.000000, -435.000000)">
            <g id="编组-136" transform="translate(247.000000, 89.000000)">
                <g id="编组-10备份" transform="translate(20.000000, 196.000000)">
                    <g id="编组-4备份" transform="translate(0.000000, 118.000000)">
                        <g id="讲师直播标签" transform="translate(425.000000, 26.000000)">
                            <g id="编组-138" transform="translate(8.000000, 6.000000)">
                                <rect id="矩形" x="0" y="0" width="12" height="12"></rect>
                                <g id="编组" transform="translate(1.000000, 1.000000)" stroke="#00B42A" stroke-linejoin="round" stroke-width="0.86">
                                    <path d="M1.55844156,3.70588235 L1.55844156,7.68674118 C1.55844156,7.84755 1.62971429,7.99909412 1.76238961,8.08618235 C2.20423377,8.37616765 3.3401039,9 4.93506494,9 C6.53002597,9 7.6658961,8.37616765 8.10774026,8.08618235 C8.24041558,7.99909412 8.31168831,7.84755 8.31168831,7.68674118 L8.31168831,3.70588235" id="路径"></path>
                                    <line x1="9.87012987" y1="4.5" x2="9.87012987" y2="6.61764706" id="路径" stroke-linecap="round"></line>
                                    <polygon id="路径" stroke-linecap="round" points="0 2.64705882 4.93506494 0 9.87012987 2.64705882 4.93506494 5.29411765"></polygon>
                                </g>
                            </g>
                        </g>
                    </g>
                </g>
            </g>
        </g>
    </g>
</svg>