<?xml version="1.0" encoding="UTF-8"?>
<svg width="24px" height="24px" viewBox="0 0 24 24" version="1.1" xmlns="http://www.w3.org/2000/svg" xmlns:xlink="http://www.w3.org/1999/xlink">
    <defs>
        <rect id="path-1" x="3" y="0" width="10" height="15" rx="5"></rect>
    </defs>
    <g id="智慧直播1.4" stroke="none" stroke-width="1" fill="none" fill-rule="evenodd">
        <g id="12-5-2公共聊天室" transform="translate(-572.000000, -764.000000)">
            <g id="编组-71" transform="translate(572.000000, 764.000000)">
                <rect id="矩形" x="0" y="0" width="24" height="24"></rect>
                <g id="编组-70" transform="translate(4.000000, 1.000000)">
                    <mask id="mask-2" fill="white">
                        <use xlink:href="#path-1"></use>
                    </mask>
                    <use id="蒙版" stroke="#333333" stroke-width="2" xlink:href="#path-1"></use>
                    <path d="M14.3846154,4.4 C14.7797114,4.4 15.1,4.66862915 15.1,5 C15.1,5.33137085 14.7797114,5.6 14.3846154,5.6 L9.61538462,5.6 C9.2202886,5.6 8.9,5.33137085 8.9,5 C8.9,4.66862915 9.2202886,4.4 9.61538462,4.4 L14.3846154,4.4 Z M6.38461538,4.4 C6.7797114,4.4 7.1,4.66862915 7.1,5 C7.1,5.33137085 6.7797114,5.6 6.38461538,5.6 L1.61538462,5.6 C1.2202886,5.6 0.9,5.33137085 0.9,5 C0.9,4.66862915 1.2202886,4.4 1.61538462,4.4 L6.38461538,4.4 Z M14.3846154,8.4 C14.7797114,8.4 15.1,8.66862915 15.1,9 C15.1,9.33137085 14.7797114,9.6 14.3846154,9.6 L9.61538462,9.6 C9.2202886,9.6 8.9,9.33137085 8.9,9 C8.9,8.66862915 9.2202886,8.4 9.61538462,8.4 L14.3846154,8.4 Z M6.38461538,8.4 C6.7797114,8.4 7.1,8.66862915 7.1,9 C7.1,9.33137085 6.7797114,9.6 6.38461538,9.6 L1.61538462,9.6 C1.2202886,9.6 0.9,9.33137085 0.9,9 C0.9,8.66862915 1.2202886,8.4 1.61538462,8.4 L6.38461538,8.4 Z" id="形状结合" fill="#333333" fill-rule="nonzero" mask="url(#mask-2)"></path>
                    <line x1="8" y1="18.5" x2="8" y2="20.5" id="直线-2" stroke="#333333" stroke-width="2" stroke-linecap="square"></line>
                    <line x1="5" y1="21.5" x2="11" y2="21.5" id="直线-3" stroke="#333333" stroke-width="2" stroke-linecap="round"></line>
                    <path d="M16,10 C16,14.418278 12.418278,18 8,18 C3.581722,18 0,14.418278 0,10" id="路径" stroke="#333333" stroke-width="2" stroke-linecap="round"></path>
                </g>
            </g>
        </g>
    </g>
</svg>