<svg width="20" height="20" viewBox="0 0 20 20" fill="none" xmlns="http://www.w3.org/2000/svg">
<path fill-rule="evenodd" clip-rule="evenodd" d="M16 5.5H4C3.17157 5.5 2.5 6.17157 2.5 7V16C2.5 16.8284 3.17157 17.5 4 17.5H16C16.8284 17.5 17.5 16.8284 17.5 16V7C17.5 6.17157 16.8284 5.5 16 5.5ZM4 4C2.34315 4 1 5.34315 1 7V16C1 17.6569 2.34315 19 4 19H16C17.6569 19 19 17.6569 19 16V7C19 5.34315 17.6569 4 16 4H4Z" fill="black"/>
<path fill-rule="evenodd" clip-rule="evenodd" d="M9.32825 0.611073C9.69925 0.240074 10.3008 0.240077 10.6718 0.611073L10.1414 1.1414L10.6718 0.611073L16.5303 6.46965C16.8232 6.76255 16.8232 7.23742 16.5303 7.53031C16.2374 7.82321 15.7626 7.82321 15.4697 7.53031L10 2.06064L4.53033 7.53031C4.23744 7.82321 3.76256 7.82321 3.46967 7.53031C3.17678 7.23742 3.17678 6.76255 3.46967 6.46965L9.32825 0.611073L9.85858 1.1414L9.32825 0.611073Z" fill="black"/>
<path fill-rule="evenodd" clip-rule="evenodd" d="M5.25 10C5.25 9.58579 5.58579 9.25 6 9.25H14C14.4142 9.25 14.75 9.58579 14.75 10C14.75 10.4142 14.4142 10.75 14 10.75H6C5.58579 10.75 5.25 10.4142 5.25 10Z" fill="black"/>
<path fill-rule="evenodd" clip-rule="evenodd" d="M5.25 14C5.25 13.5858 5.58579 13.25 6 13.25H14C14.4142 13.25 14.75 13.5858 14.75 14C14.75 14.4142 14.4142 14.75 14 14.75H6C5.58579 14.75 5.25 14.4142 5.25 14Z" fill="black"/>
</svg>
