<svg width="20" height="20" viewBox="0 0 20 20" fill="none" xmlns="http://www.w3.org/2000/svg">
<path fill-rule="evenodd" clip-rule="evenodd" d="M16 2.5H4C3.17157 2.5 2.5 3.17157 2.5 4V6.90297C3.48284 7.31106 4.13636 8.2746 4.13636 9.35552V10.6445C4.13636 11.7254 3.48284 12.6889 2.5 13.097V16C2.5 16.8284 3.17157 17.5 4 17.5H16C16.8284 17.5 17.5 16.8284 17.5 16V13.097C16.5172 12.6889 15.8636 11.7254 15.8636 10.6445V9.35552C15.8636 8.2746 16.5172 7.31106 17.5 6.90297V4C17.5 3.17157 16.8284 2.5 16 2.5ZM4 1C2.34315 1 1 2.34315 1 4V7.14448C1 7.65279 1.33205 8.10146 1.81818 8.25C2.30431 8.39854 2.63636 8.84721 2.63636 9.35552V10.6445C2.63636 11.1528 2.30431 11.6015 1.81818 11.75C1.33205 11.8985 1 12.3472 1 12.8555V16C1 17.6569 2.34315 19 4 19H16C17.6569 19 19 17.6569 19 16V12.8555C19 12.3472 18.6679 11.8985 18.1818 11.75C17.6957 11.6015 17.3636 11.1528 17.3636 10.6445V9.35552C17.3636 8.84721 17.6957 8.39854 18.1818 8.25C18.6679 8.10146 19 7.65279 19 7.14448V4C19 2.34315 17.6569 1 16 1H4Z" fill="black"/>
<path fill-rule="evenodd" clip-rule="evenodd" d="M12.0738 6.02827C11.6344 5.91052 11.1827 6.17132 11.0649 6.61078L10.6385 8.20222C10.6169 8.28295 10.608 8.36409 10.6107 8.4435H10.0005L9.9998 8.4435L9.99912 8.4435H9.3891C9.39178 8.36409 9.38292 8.28295 9.36129 8.20222L8.93487 6.61078C8.81711 6.17132 8.3654 5.91052 7.92594 6.02828C7.48647 6.14603 7.22568 6.59774 7.34343 7.03721L7.72025 8.4435H6.70465C6.24968 8.4435 5.88086 8.81232 5.88086 9.26729C5.88086 9.72225 6.24968 10.0911 6.70465 10.0911H9.17601L9.17601 10.9149H7.52843C7.07347 10.9149 6.70465 11.2837 6.70465 11.7387C6.70465 12.1936 7.07347 12.5624 7.52843 12.5624H9.17601L9.17601 14.21C9.17601 14.665 9.54483 15.0338 9.9998 15.0338C10.4548 15.0338 10.8236 14.665 10.8236 14.21V12.5624H12.4712C12.9261 12.5624 13.295 12.1936 13.295 11.7387C13.295 11.2837 12.9261 10.9149 12.4712 10.9149H10.8236V10.0911H13.295C13.7499 10.0911 14.1187 9.72225 14.1187 9.26729C14.1187 8.81232 13.7499 8.4435 13.295 8.4435H12.2795L12.6563 7.0372C12.7741 6.59774 12.5133 6.14603 12.0738 6.02827Z" fill="black"/>
</svg>
