<svg width="20" height="20" viewBox="0 0 20 20" fill="none" xmlns="http://www.w3.org/2000/svg">
<path fill-rule="evenodd" clip-rule="evenodd" d="M15 3.5H5C3.61929 3.5 2.5 4.61929 2.5 6V15C2.5 16.3807 3.61929 17.5 5 17.5H15C16.3807 17.5 17.5 16.3807 17.5 15V6C17.5 4.61929 16.3807 3.5 15 3.5ZM5 2C2.79086 2 1 3.79086 1 6V15C1 17.2091 2.79086 19 5 19H15C17.2091 19 19 17.2091 19 15V6C19 3.79086 17.2091 2 15 2H5Z" fill="black"/>
<circle cx="5" cy="6" r="1" fill="black"/>
<path fill-rule="evenodd" clip-rule="evenodd" d="M14.2604 12.6223C13.5443 14.2874 13.3551 16.5961 13.4159 17.9668L11.9599 18.2509C11.8371 17.905 11.4991 16.9622 10.8769 16.0097C10.2492 15.0488 9.38768 14.1629 8.25213 13.8074C7.21405 13.4825 6.10268 13.8631 5.03485 14.6484C3.97835 15.4255 3.10505 16.5024 2.63429 17.2485L1.36572 16.448C1.91083 15.5841 2.9042 14.3535 4.14612 13.4401C5.3767 12.535 6.99549 11.8423 8.70026 12.3759C10.2648 12.8657 11.3551 14.0257 12.0745 15.1014C12.2216 14.0617 12.4761 12.9744 12.8825 12.0296C13.3022 11.0537 13.9277 10.1275 14.8664 9.62524C15.8479 9.1001 17.0166 9.1181 18.3188 9.72955L17.6812 11.0873C16.6977 10.6255 16.041 10.698 15.5741 10.9478C15.0644 11.2205 14.6184 11.7898 14.2604 12.6223Z" fill="black"/>
</svg>
