<?xml version="1.0" encoding="UTF-8"?>
<svg width="25px" height="24px" viewBox="0 0 25 24" version="1.1" xmlns="http://www.w3.org/2000/svg" xmlns:xlink="http://www.w3.org/1999/xlink">
    <title>编组 74</title>
    <g id="直播1.7.1" stroke="none" stroke-width="1" fill="none" fill-rule="evenodd">
        <g id="2-1公共聊天室" transform="translate(-624.000000, -819.000000)" fill="#333333" fill-rule="nonzero">
            <g id="编组-74" transform="translate(623.997996, 818.998178)">
                <path d="M6.0020037,1.60951695 C7.31259825,0.852844832 8.73130205,0.357911744 10.19739,0.135306748 C12.2302801,-0.173359249 14.3106858,0.0490614027 16.2326857,0.771992685 C17.7738285,1.35167035 19.1821049,2.24147821 20.3668697,3.39387933 C20.7627638,3.77895896 20.7715306,4.41206324 20.386451,4.80795733 C20.0013714,5.20385141 19.3682671,5.21261827 18.972373,4.82753864 C17.9861557,3.86826137 16.8132174,3.12714995 15.5285765,2.64395163 C13.9255726,2.04100587 12.1908791,1.85554606 10.497621,2.11264368 C9.27705463,2.29796965 8.09579401,2.71006763 7.0020037,3.34156776 C2.21907747,6.1029915 0.580325916,12.2188956 3.34174967,17.0018218 C6.10317341,21.784748 12.2190775,23.4234996 17.0020037,20.6620758 C20.9017003,18.410585 22.7887991,13.8538434 21.7005405,9.55339752 C21.5650518,9.01798996 21.8892501,8.47412108 22.4246577,8.33863236 C22.9600652,8.20314365 23.5039341,8.52734192 23.6394228,9.06274948 C24.9458138,14.2251841 22.6816966,19.6923047 18.0020037,22.3941266 C12.2624922,25.7078351 4.92340736,23.7413333 1.60969886,18.0018218 C-1.70400964,12.2623103 0.262492221,4.92322545 6.0020037,1.60951695 Z M21.0282831,5.63579639 C21.5065758,5.35965401 22.1181662,5.52352917 22.3943085,6.00182179 C22.6704509,6.48011442 22.5065758,7.09170482 22.0282831,7.3678472 C21.5499905,7.64398957 20.9384001,7.48011442 20.6622577,7.00182179 C20.3861154,6.52352917 20.5499905,5.91193876 21.0282831,5.63579639 Z" id="形状"></path>
                <g id="签" transform="translate(5.646004, 5.521822)">
                    <path d="M9.632,8.064 C9.212,9.38 8.736,10.514 8.19,11.466 L0.462,11.466 L0.462,12.404 L12.278,12.404 L12.278,11.466 L9.268,11.466 C9.8,10.542 10.248,9.492 10.612,8.33 L9.632,8.064 Z M2.94,8.232 L2.03,8.526 C2.478,9.338 2.842,10.192 3.122,11.088 L4.032,10.85 C3.71,9.87 3.346,8.988 2.94,8.232 Z M6.174,7.952 L5.25,8.246 C5.614,9.114 5.908,10.024 6.146,10.976 L7.042,10.738 C6.79,9.688 6.496,8.764 6.174,7.952 Z M2.73,6.608 L2.73,7.504 L9.996,7.504 L9.996,6.608 L2.73,6.608 Z M2.17,2.142 L3.234,2.142 C3.486,2.688 3.696,3.262 3.878,3.85 L4.802,3.514 C4.662,3.094 4.466,2.632 4.242,2.142 L6.258,2.142 L6.258,1.246 L2.576,1.246 C2.702,0.91 2.828,0.574 2.94,0.21 L1.96,0 C1.568,1.288 0.938,2.464 0.07,3.528 L0.938,4.074 C1.4,3.486 1.806,2.842 2.17,2.142 Z M8.064,2.142 L9.282,2.142 C9.59,2.73 9.87,3.346 10.122,3.976 L11.046,3.64 C10.864,3.164 10.626,2.674 10.318,2.142 L12.544,2.142 L12.544,1.246 L8.456,1.246 C8.568,0.91 8.68,0.574 8.792,0.21 L7.826,0 C7.532,1.092 7.056,2.072 6.398,2.968 L7.252,3.514 C7.546,3.094 7.812,2.632 8.064,2.142 Z M6.034,3.528 C4.424,4.718 2.408,5.712 0,6.524 L0.476,7.392 C2.912,6.538 4.872,5.53 6.356,4.354 C7.98,5.614 9.926,6.622 12.222,7.406 L12.712,6.538 C10.43,5.81 8.414,4.802 6.678,3.528 L6.034,3.528 Z" id="形状"></path>
                </g>
            </g>
        </g>
    </g>
</svg>