<svg fill="none" xmlns="http://www.w3.org/2000/svg" viewBox="0 0 24 24" class="design-iconfont">
  <path d="M22 8V6C22 3.79086 20.2091 2 18 2H6C3.79086 2 2 3.79086 2 6V15C2 17.2091 3.79086 19 6 19H7.72727" stroke="#000" stroke-width="2" stroke-linecap="round"/>
  <path d="M16 9.44338C16.3094 9.26474 16.6906 9.26474 17 9.44338L21.4952 12.0387C21.8046 12.2173 21.9952 12.5474 21.9952 12.9047V18.0953C21.9952 18.4526 21.8046 18.7827 21.4952 18.9613L17 21.5566L17.5 22.4226L17 21.5566C16.6906 21.7353 16.3094 21.7353 16 21.5566L11.5048 18.9613C11.1954 18.7827 11.0048 18.4526 11.0048 18.0953V12.9047C11.0048 12.5474 11.1954 12.2173 11.5048 12.0387L16 9.44338Z" stroke="#000" stroke-width="2"/>
  <path fill="#000" d="M6 5A1 1 0 1 0 6 7A1 1 0 1 0 6 5Z"/>
  <path fill="#000" d="M9 5A1 1 0 1 0 9 7A1 1 0 1 0 9 5Z"/>
  <path fill="#000" d="M12 5A1 1 0 1 0 12 7A1 1 0 1 0 12 5Z"/>
  <path stroke="#000" stroke-width="2" d="M16.5 14A1.5 1.5 0 1 0 16.5 17A1.5 1.5 0 1 0 16.5 14Z"/>
</svg>
