<svg width="20" height="20" viewBox="0 0 20 20" fill="none" xmlns="http://www.w3.org/2000/svg">
<path fill-rule="evenodd" clip-rule="evenodd" d="M16 5.5H4C3.17157 5.5 2.5 6.17157 2.5 7V16C2.5 16.8284 3.17157 17.5 4 17.5H16C16.8284 17.5 17.5 16.8284 17.5 16V7C17.5 6.17157 16.8284 5.5 16 5.5ZM4 4C2.34315 4 1 5.34315 1 7V16C1 17.6569 2.34315 19 4 19H16C17.6569 19 19 17.6569 19 16V7C19 5.34315 17.6569 4 16 4H4Z" fill="black"/>
<path d="M8.39952 6.87988C8.70618 6.87988 8.85952 7.03322 8.85952 7.33988V11.3799C8.85952 11.6865 8.70618 11.8399 8.39952 11.8399H8.13952C7.83285 11.8399 7.67952 11.6865 7.67952 11.3799V7.33988C7.67952 7.03322 7.83285 6.87988 8.13952 6.87988H8.39952ZM7.60952 9.35988C7.87618 9.21988 8.07618 9.27988 8.20952 9.53988L8.32952 9.75988C8.46952 10.0265 8.40952 10.2265 8.14952 10.3599L6.20952 11.4299C5.94285 11.5699 5.74285 11.5099 5.60952 11.2499L5.48952 11.0299C5.34952 10.7632 5.40952 10.5632 5.66952 10.4299L7.60952 9.35988ZM6.26952 7.22988C6.54952 7.14988 6.72952 7.24988 6.80952 7.52988L7.15952 8.71988C7.23952 8.99988 7.13952 9.17988 6.85952 9.25988L6.61952 9.33988C6.33952 9.41988 6.15952 9.31988 6.07952 9.03988L5.72952 7.84988C5.64952 7.56988 5.74952 7.38988 6.02952 7.30988L6.26952 7.22988ZM10.4295 6.87988C10.7362 6.87988 10.8895 7.03322 10.8895 7.33988V7.51988H13.2495C13.6495 7.51988 13.9395 7.62322 14.1195 7.82988C14.3062 8.03655 14.3595 8.33322 14.2795 8.71988C14.1462 9.33322 13.8962 9.86655 13.5295 10.3199C13.1628 10.7665 12.6828 11.1132 12.0895 11.3599C11.4962 11.6065 10.7962 11.7265 9.98952 11.7199C9.68285 11.7399 9.52952 11.5932 9.52952 11.2799V11.0199C9.52952 10.7132 9.68285 10.5565 9.98952 10.5499C10.9295 10.5099 11.6428 10.3399 12.1295 10.0399C12.6162 9.73322 12.9428 9.28655 13.1095 8.69988H10.5595C9.99285 8.69988 9.70952 8.41655 9.70952 7.84988V7.33988C9.70952 7.03322 9.86285 6.87988 10.1695 6.87988H10.4295ZM10.4995 8.82988C10.7328 8.64988 10.9395 8.67655 11.1195 8.90988L11.5795 9.46988C11.7595 9.70322 11.7328 9.90988 11.4995 10.0899L11.2995 10.2499C11.0662 10.4299 10.8595 10.4032 10.6795 10.1699L10.2195 9.60988C10.0395 9.37655 10.0662 9.16988 10.2995 8.98988L10.4995 8.82988ZM9.25952 12.3799C9.27952 12.2199 9.32952 12.1032 9.40952 12.0299C9.48952 11.9499 9.60952 11.9099 9.76952 11.9099H10.0295C10.3562 11.9099 10.5028 12.0665 10.4695 12.3799C10.3962 13.0399 10.1628 13.6266 9.76952 14.1399C9.38285 14.6466 8.86952 15.0632 8.22952 15.3899C7.59618 15.7165 6.86285 15.9532 6.02952 16.0999C5.72952 16.1466 5.55952 16.0199 5.51952 15.7199L5.47952 15.4599C5.44618 15.1665 5.57618 14.9965 5.86952 14.9499C6.94952 14.7632 7.77285 14.4465 8.33952 13.9999C8.91285 13.5465 9.21952 13.0065 9.25952 12.3799ZM13.9395 12.4399C14.2328 12.4399 14.3795 12.5865 14.3795 12.8799V13.1399C14.3795 13.4332 14.2328 13.5799 13.9395 13.5799H6.05952C5.76618 13.5799 5.61952 13.4332 5.61952 13.1399V12.8799C5.61952 12.5865 5.76618 12.4399 6.05952 12.4399H13.9395ZM10.3995 12.9199C10.5395 12.8665 10.6628 12.8632 10.7695 12.9099C10.8762 12.9565 10.9662 13.0532 11.0395 13.1999C11.2862 13.6465 11.6728 14.0165 12.1995 14.3099C12.7262 14.6032 13.3695 14.8165 14.1295 14.9499C14.4228 14.9965 14.5528 15.1665 14.5195 15.4599L14.4795 15.7199C14.4595 15.8665 14.4062 15.9732 14.3195 16.0399C14.2328 16.1065 14.1162 16.1266 13.9695 16.0999C12.9295 15.9132 12.0562 15.5965 11.3495 15.1499C10.6428 14.7032 10.1562 14.1799 9.88952 13.5799C9.74952 13.2999 9.83285 13.1065 10.1395 12.9999L10.3995 12.9199Z" fill="black"/>
<path fill-rule="evenodd" clip-rule="evenodd" d="M13.9991 0.813342C15.7492 -0.88208 18.6292 0.757355 18.0648 3.12776C17.8035 4.22537 16.8228 4.99999 15.6945 4.99999H10V4.68749L13.9991 0.813342ZM13.3816 3.49999H15.6945C16.1282 3.49999 16.5052 3.20223 16.6056 2.78033C16.8225 1.86919 15.7155 1.239 15.0428 1.8907L13.3816 3.49999Z" fill="black"/>
<path fill-rule="evenodd" clip-rule="evenodd" d="M7.00088 0.813342C5.25077 -0.88208 2.3708 0.757355 2.93518 3.12776C3.19652 4.22537 4.17723 4.99999 5.30551 4.99999H11V4.68749L7.00088 0.813342ZM7.61839 3.49999H5.30551C4.87182 3.49999 4.49485 3.20223 4.39439 2.78033C4.17745 1.86919 5.28447 1.239 5.95719 1.8907L7.61839 3.49999Z" fill="black"/>
</svg>
