<svg width="20" height="20" viewBox="0 0 20 20" fill="none" xmlns="http://www.w3.org/2000/svg">
<path fill-rule="evenodd" clip-rule="evenodd" d="M1.62677 8.50974C1.87276 6.64432 3.46302 5.25 5.34458 5.25H14.6553C16.5368 5.25 18.1271 6.64432 18.3731 8.50974L19.2962 15.5097C19.5924 17.7561 17.8441 19.75 15.5784 19.75H4.42151C2.15572 19.75 0.407472 17.7561 0.703693 15.5097L1.62677 8.50974ZM5.34458 6.75C4.21565 6.75 3.26149 7.58659 3.1139 8.70584L2.19082 15.7058C2.01309 17.0536 3.06203 18.25 4.42151 18.25H15.5784C16.9378 18.25 17.9868 17.0537 17.809 15.7058L16.886 8.70584C16.7384 7.58659 15.7842 6.75 14.6553 6.75H5.34458Z" fill="black"/>
<path fill-rule="evenodd" clip-rule="evenodd" d="M6.25 5C6.25 2.92893 7.92893 1.25 10 1.25C12.0711 1.25 13.75 2.92893 13.75 5V6C13.75 6.41421 13.4142 6.75 13 6.75C12.5858 6.75 12.25 6.41421 12.25 6V5C12.25 3.75736 11.2426 2.75 10 2.75C8.75736 2.75 7.75 3.75736 7.75 5V6C7.75 6.41421 7.41421 6.75 7 6.75C6.58579 6.75 6.25 6.41421 6.25 6V5Z" fill="black"/>
<path d="M12.2858 10.5209C11.2738 10.7945 11.0885 11.5699 11.1538 12.0623C10.4319 11.2581 10.4615 10.3329 10.4615 9C8.14623 9.82741 8.68468 12.213 8.61543 12.9374C8.03308 12.4857 7.92303 11.4063 7.92303 11.4063C7.30827 11.7061 7 12.5068 7 13.1563C7 14.7269 8.34316 16 10 16C11.6568 16 13 14.7269 13 13.1563C13 12.2229 12.277 11.7924 12.2858 10.5209Z" fill="black"/>
</svg>
