<svg width="20" height="20" viewBox="0 0 20 20" fill="none" xmlns="http://www.w3.org/2000/svg">
<path fill-rule="evenodd" clip-rule="evenodd" d="M10 17.5C14.1421 17.5 17.5 14.1421 17.5 10C17.5 5.85786 14.1421 2.5 10 2.5C5.85786 2.5 2.5 5.85786 2.5 10C2.5 14.1421 5.85786 17.5 10 17.5ZM10 19C14.9706 19 19 14.9706 19 10C19 5.02944 14.9706 1 10 1C5.02944 1 1 5.02944 1 10C1 14.9706 5.02944 19 10 19Z" fill="black"/>
<path fill-rule="evenodd" clip-rule="evenodd" d="M9 5.25C9.41421 5.25 9.75 5.58579 9.75 6V10.2354C9.75 10.336 9.81038 10.4269 9.90319 10.4659L14.2904 12.3085C14.6723 12.4689 14.8519 12.9085 14.6915 13.2904C14.5311 13.6723 14.0915 13.8519 13.7096 13.6915L9.32234 11.8488C8.67265 11.576 8.25 10.94 8.25 10.2354V6C8.25 5.58579 8.58579 5.25 9 5.25Z" fill="black"/>
</svg>
