<?xml version="1.0" encoding="UTF-8"?>
<svg width="14px" height="14px" viewBox="0 0 14 14" version="1.1" xmlns="http://www.w3.org/2000/svg" xmlns:xlink="http://www.w3.org/1999/xlink">
    <title>close-circle-filled</title>
    <g id="控件" stroke="none" stroke-width="1" fill="none" fill-rule="evenodd">
        <g id="未开始" transform="translate(-10.000000, -5.000000)">
            <g id="close-circle-filled" transform="translate(10.000000, 5.000000)">
                <path d="M0,0 L14,0 L14,14 L0,14 L0,0 Z" id="close-circle-filled-(Background)"></path>
                <path d="M7.12500209,1 C3.74225798,1 1,3.74225423 1,7.12499833 C1,10.5077426 3.74225423,13.25 7.12499833,13.25 C10.5077426,13.25 13.25,10.507746 13.25,7.12500209 C13.25,3.74225798 10.507746,1 7.12500209,1 Z" fill="#6F819B"></path>
                <g id="编组" transform="translate(4.000000, 4.000000)" fill="#FFFFFF" fill-rule="nonzero">
                    <g id="编组-3">
                        <path d="M1.72222029,3.79375529 L3.12788969,1.3590656 C3.22160099,1.19674983 3.34961257,1.1624476 3.51192443,1.25615889 C3.6742402,1.34987018 3.70854244,1.47788371 3.61483115,1.64019948 L2.20916174,4.07488917 C2.11545045,4.23720494 1.98743692,4.27150718 1.82512115,4.17779588 C1.66280538,4.08408459 1.62850314,3.95607106 1.72221444,3.79375529 L1.72222029,3.79375529 Z" id="路径"></path>
                        <path d="M2.21018085,1.36009057 L3.61585026,3.79478026 C3.70956155,3.95709603 3.67525931,4.08510956 3.51294354,4.17882085 C3.35063558,4.27253214 3.22262595,4.23822991 3.12891466,4.07591414 L1.72324526,1.64122445 C1.62953397,1.47890868 1.66383425,1.35089515 1.82614612,1.25718386 C1.98846189,1.16347256 2.11647542,1.1977748 2.21018671,1.36009057 L2.21018085,1.36009057 Z M5.91130839,5.31155611 L4.89172952,5.96753516 C4.83409704,6.00451145 4.76088675,6.00711488 4.70077335,5.97432575 C4.64065996,5.94153663 4.60321268,5.87857452 4.60309873,5.81010019 L4.60309873,5.43525502 C4.75836469,5.43525502 4.88423261,5.30938709 4.88423261,5.15412114 C4.88423261,4.99885518 4.75836469,4.87298726 4.60309873,4.87298726 L4.60309873,4.49814208 C4.60321268,4.42966775 4.64065996,4.36670564 4.70077335,4.33391652 C4.76088675,4.30112739 4.83409704,4.30373082 4.89172952,4.34070711 L5.91130839,4.99293771 C5.96645129,5.02711221 6,5.08737291 6,5.15224691 C6,5.21712091 5.96645129,5.27738161 5.91130839,5.31155611 Z" id="形状"></path>
                        <path d="M5.33779527,0.749690347 L5.33779527,2.53770183 C5.33779527,2.68882735 5.21528382,2.8113388 5.06415829,2.8113388 C4.91303277,2.8113388 4.79052132,2.68882735 4.79052132,2.53770183 L4.79052132,0.922119127 C4.79052132,0.715097854 4.62269742,0.547273953 4.41567614,0.547273953 L0.918370675,0.547273953 C0.711349402,0.547273953 0.543525502,0.715097854 0.543525502,0.922119127 L0.543525502,4.49814208 C0.543525502,4.70516336 0.711349402,4.87298726 0.918370675,4.87298726 L4.61434409,4.87298726 C4.76961004,4.87298726 4.89547797,4.99885518 4.89547797,5.15412114 C4.89547797,5.30938709 4.76961004,5.43525502 4.61434409,5.43525502 L0.749690347,5.43525502 C0.335647801,5.43525502 0,5.09960722 0,4.68556467 L0,0.749690347 C0,0.335647801 0.335647801,0 0.749690347,0 L4.58810492,0 C5.00214747,0 5.33779527,0.335647801 5.33779527,0.749690347 Z" id="路径"></path>
                        <path d="M5.91130839,5.31155611 L4.89172952,5.96753516 C4.83409704,6.00451145 4.76088675,6.00711488 4.70077335,5.97432575 C4.64065996,5.94153663 4.60321268,5.87857452 4.60309873,5.81010019 L4.60309873,5.43525502 C4.75836469,5.43525502 4.88423261,5.30938709 4.88423261,5.15412114 C4.88423261,4.99885518 4.75836469,4.87298726 4.60309873,4.87298726 L4.60309873,4.49814208 C4.60321268,4.42966775 4.64065996,4.36670564 4.70077335,4.33391652 C4.76088675,4.30112739 4.83409704,4.30373082 4.89172952,4.34070711 L5.91130839,4.99293771 C5.96645129,5.02711221 6,5.08737291 6,5.15224691 C6,5.21712091 5.96645129,5.27738161 5.91130839,5.31155611 L5.91130839,5.31155611 Z" id="路径"></path>
                    </g>
                </g>
            </g>
        </g>
    </g>
</svg>