<svg fill="none" xmlns="http://www.w3.org/2000/svg" viewBox="0 0 16 16" class="design-iconfont">
  <path d="M2.5 8C2.5 5.51472 4.51472 3.5 7 3.5H9C11.4853 3.5 13.5 5.51472 13.5 8V13.5H2.5V8Z" stroke="#FF1F00"/>
  <path d="M9.78944 8.59934H8.72105C8.61832 8.59934 8.53372 8.50932 8.53372 8.40054C8.53372 8.36929 8.53977 8.33928 8.55306 8.31177L9.52355 6.31632C9.59485 6.17129 9.49213 6 9.33501 6H7.56807C7.48347 6 7.40733 6.05126 7.3747 6.13378L6.00779 9.47454C5.9812 9.53705 6.02592 9.60707 6.09239 9.60707H7.72639C7.78078 9.60707 7.83154 9.63207 7.8678 9.67583C7.90284 9.71959 7.91976 9.77586 7.91251 9.83212L7.63937 11.8763C7.62487 11.9876 7.76507 12.0464 7.82912 11.9551L9.95985 8.94442C10.0602 8.80064 9.96105 8.59934 9.78944 8.59934Z" stroke="#FF1F00" stroke-linecap="round"/>
  <path d="M8 1V2" stroke="#FF1F00" stroke-linecap="round"/>
  <path d="M2 3L2.70711 3.70711" stroke="#FF1F00" stroke-linecap="round"/>
  <path d="M13.707 3L12.9999 3.70711" stroke="#FF1F00" stroke-linecap="round"/>
  <path d="M1.5 13.5H14" stroke="#FF1F00" stroke-linecap="round"/>
</svg>
