<?xml version="1.0" encoding="UTF-8"?>
<svg width="14px" height="14px" viewBox="0 0 14 14" version="1.1" xmlns="http://www.w3.org/2000/svg" xmlns:xlink="http://www.w3.org/1999/xlink">
    <g id="直播列表" stroke="none" stroke-width="1" fill="none" fill-rule="evenodd">
        <g id="直播管理" transform="translate(-1059.000000, -434.000000)">
            <g id="编组-13" transform="translate(272.000000, 285.000000)">
                <g id="编组-7" transform="translate(0.000000, 38.000000)">
                    <g id="编组-22备份" transform="translate(0.000000, 80.000000)">
                        <g id="编组-21" transform="translate(20.000000, 26.000000)">
                            <g id="标签/中标签/未申请" transform="translate(757.000000, 0.000000)">
                                <g id="编组-57" transform="translate(10.000000, 2.000000)">
                                    <g id="time" transform="translate(0.000000, 3.000000)">
                                        <path d="M0,0 L14,0 L14,14 L0,14 L0,0 Z" id="time-(Background)"></path>
                                        <path d="M7.125,13.25 C3.7422559,13.25 1,10.5077443 1,7.125 C1,3.7422559 3.7422559,1 7.125,1 C10.5077443,1 13.25,3.7422559 13.25,7.125 C13.25,10.5077443 10.5077443,13.25 7.125,13.25 Z" fill="#FF7D00"></path>
                                        <g id="编组-45" transform="translate(5.000000, 4.000000)" fill="#FFFFFF" fill-rule="nonzero">
                                            <polygon id="路径" transform="translate(0.500000, 3.000000) rotate(-270.000000) translate(-0.500000, -3.000000) " points="3.5 2.5 3.5 3.5 -2.5 3.5 -2.5 2.5"></polygon>
                                            <polygon id="路径备份" transform="translate(3.500000, 3.000000) rotate(-270.000000) translate(-3.500000, -3.000000) " points="6.5 2.5 6.5 3.5 0.5 3.5 0.5 2.5"></polygon>
                                        </g>
                                    </g>
                                </g>
                            </g>
                        </g>
                    </g>
                </g>
            </g>
        </g>
    </g>
</svg>