<svg width="20" height="20" viewBox="0 0 20 20" fill="none" xmlns="http://www.w3.org/2000/svg">
<path d="M11.7059 18H5C3.34315 18 2 16.6569 2 15V5C2 3.34315 3.34315 2 5 2H14C15.6569 2 17 3.34315 17 5V7.47368" stroke="black" stroke-width="1.5" stroke-linecap="round"/>
<path fill-rule="evenodd" clip-rule="evenodd" d="M7.94079 8L6.5 7.09873L6.5 8.90127L7.94079 8ZM9.61538 8.72177C10.1282 8.40099 10.1282 7.59901 9.61538 7.27822L6.15385 5.1129C5.64103 4.79211 5 5.1931 5 5.83468L5 10.1653C5 10.8069 5.64103 11.2079 6.15385 10.8871L9.61538 8.72177Z" fill="black"/>
<path fill-rule="evenodd" clip-rule="evenodd" d="M14.5 15.5C16.1569 15.5 17.5 14.1569 17.5 12.5C17.5 10.8431 16.1569 9.5 14.5 9.5C12.8431 9.5 11.5 10.8431 11.5 12.5C11.5 14.1569 12.8431 15.5 14.5 15.5ZM14.5 17C16.9853 17 19 14.9853 19 12.5C19 10.0147 16.9853 8 14.5 8C12.0147 8 10 10.0147 10 12.5C10 14.9853 12.0147 17 14.5 17Z" fill="black"/>
<path d="M16.3292 18.3354C16.5144 18.7059 16.9649 18.8561 17.3354 18.6708C17.7059 18.4856 17.8561 18.0351 17.6708 17.6646L16.3292 18.3354ZM15.3292 16.3354L16.3292 18.3354L17.6708 17.6646L16.6708 15.6646L15.3292 16.3354Z" fill="black"/>
</svg>
