<svg width="20" height="20" viewBox="0 0 20 20" fill="none" xmlns="http://www.w3.org/2000/svg">
<path fill-rule="evenodd" clip-rule="evenodd" d="M16 4.5H4C3.17157 4.5 2.5 5.17157 2.5 6V16C2.5 16.8284 3.17157 17.5 4 17.5H16C16.8284 17.5 17.5 16.8284 17.5 16V6C17.5 5.17157 16.8284 4.5 16 4.5ZM4 3C2.34315 3 1 4.34315 1 6V16C1 17.6569 2.34315 19 4 19H16C17.6569 19 19 17.6569 19 16V6C19 4.34315 17.6569 3 16 3H4Z" fill="black"/>
<path d="M5.88792 6C6.31325 6 6.52592 6.187 6.52592 6.561H9.11092C9.50692 6.561 9.70492 6.759 9.70492 7.155V7.199C9.70492 7.595 9.50692 7.793 9.11092 7.793H6.34992C5.97592 7.793 5.68992 7.69767 5.49192 7.507C5.30125 7.309 5.20592 7.023 5.20592 6.649V6.561C5.20592 6.187 5.41859 6 5.84392 6H5.88792ZM7.50492 7.177C7.92292 7.177 8.13192 7.386 8.13192 7.804V8.046C8.13192 8.464 7.92292 8.673 7.50492 8.673H7.46092C7.04292 8.673 6.83392 8.464 6.83392 8.046V7.804C6.83392 7.386 7.04292 7.177 7.46092 7.177H7.50492ZM10.8049 6C11.2303 6 11.4429 6.187 11.4429 6.561H14.1269C14.5229 6.561 14.7209 6.759 14.7209 7.155V7.199C14.7209 7.595 14.5229 7.793 14.1269 7.793H11.2669C10.8929 7.793 10.6069 7.69767 10.4089 7.507C10.2183 7.309 10.1229 7.023 10.1229 6.649V6.561C10.1229 6.187 10.3356 6 10.7609 6H10.8049ZM12.4989 7.177C12.9169 7.177 13.1259 7.386 13.1259 7.804V8.046C13.1259 8.464 12.9169 8.673 12.4989 8.673H12.4549C12.0369 8.673 11.8279 8.464 11.8279 8.046V7.804C11.8279 7.386 12.0369 7.177 12.4549 7.177H12.4989ZM8.58292 8.486C8.67092 8.40533 8.77359 8.343 8.89092 8.299C9.01559 8.24767 9.14025 8.222 9.26492 8.222H10.5849C10.8416 8.222 11.0616 8.31367 11.2449 8.497C11.7729 8.98833 12.3266 9.45033 12.9059 9.883C13.4926 10.3157 14.0279 10.664 14.5119 10.928C14.8639 11.1333 14.9409 11.412 14.7429 11.764L14.7209 11.808C14.5229 12.16 14.2479 12.2333 13.8959 12.028C12.5906 11.2433 11.4466 10.3927 10.4639 9.476H9.38592C8.40325 10.3927 7.25925 11.2433 5.95392 12.028C5.60192 12.2333 5.32692 12.16 5.12892 11.808L5.10692 11.764C4.90892 11.412 4.98592 11.1333 5.33792 10.928C6.70925 10.114 7.79092 9.3 8.58292 8.486ZM6.76792 12.314C7.19325 12.2773 7.42059 12.468 7.44992 12.886L7.53792 13.755C7.57459 14.1803 7.38392 14.4077 6.96592 14.437H6.92192C6.49659 14.4737 6.26925 14.283 6.23992 13.865L6.15192 12.996C6.11525 12.5707 6.30592 12.3433 6.72392 12.314H6.76792ZM9.84792 12.314C10.2733 12.2773 10.5006 12.468 10.5299 12.886L10.6179 13.777C10.6546 14.2023 10.4639 14.4297 10.0459 14.459H10.0019C9.57659 14.4957 9.34925 14.305 9.31992 13.887L9.23192 12.996C9.19525 12.5707 9.38592 12.3433 9.80392 12.314H9.84792ZM14.2149 14.822C14.6183 14.822 14.8199 15.0237 14.8199 15.427V15.482C14.8199 15.8853 14.6183 16.087 14.2149 16.087H5.64592C5.23525 16.087 5.02992 15.8817 5.02992 15.471V15.438C5.02992 15.0273 5.23525 14.822 5.64592 14.822H14.2149ZM11.3439 10.565C11.7399 10.565 11.9379 10.763 11.9379 11.159V11.203C11.9379 11.599 11.7399 11.797 11.3439 11.797H8.50592C8.10992 11.797 7.91192 11.599 7.91192 11.203V11.159C7.91192 10.763 8.10992 10.565 8.50592 10.565H11.3439ZM13.1809 12.314C13.5989 12.4167 13.7529 12.6697 13.6429 13.073C13.5476 13.4323 13.4413 13.799 13.3239 14.173C13.2066 14.5397 13.0966 14.8587 12.9939 15.13C12.8399 15.5187 12.5723 15.6323 12.1909 15.471L12.1469 15.449C11.9563 15.3683 11.8316 15.2583 11.7729 15.119C11.7216 14.987 11.7326 14.822 11.8059 14.624C11.9379 14.2647 12.0589 13.9053 12.1689 13.546C12.2789 13.1793 12.3486 12.9263 12.3779 12.787C12.4806 12.3763 12.7336 12.2187 13.1369 12.314H13.1809Z" fill="black"/>
<path fill-rule="evenodd" clip-rule="evenodd" d="M6 5.75C5.58579 5.75 5.25 5.41421 5.25 5L5.25 1C5.25 0.585786 5.58579 0.25 6 0.25C6.41421 0.25 6.75 0.585786 6.75 1L6.75 5C6.75 5.41421 6.41421 5.75 6 5.75Z" fill="black"/>
<path fill-rule="evenodd" clip-rule="evenodd" d="M14 5.75C13.5858 5.75 13.25 5.41421 13.25 5L13.25 1C13.25 0.585786 13.5858 0.25 14 0.25C14.4142 0.25 14.75 0.585786 14.75 1L14.75 5C14.75 5.41421 14.4142 5.75 14 5.75Z" fill="black"/>
</svg>
