<?xml version="1.0" encoding="UTF-8"?>
<svg width="13px" height="13px" viewBox="0 0 13 13" version="1.1" xmlns="http://www.w3.org/2000/svg" xmlns:xlink="http://www.w3.org/1999/xlink">
    <g id="直播列表" stroke="none" stroke-width="1" fill="none" fill-rule="evenodd">
        <g id="直播管理" transform="translate(-1060.000000, -355.000000)">
            <g id="编组-13" transform="translate(272.000000, 285.000000)">
                <g id="编组-7" transform="translate(0.000000, 38.000000)">
                    <g id="编组-21" transform="translate(20.000000, 26.000000)">
                        <g id="标签/中标签/处理中" transform="translate(757.000000, 0.000000)">
                            <g id="编组-57" transform="translate(11.000000, 2.000000)">
                                <g id="ing" transform="translate(0.000000, 4.000000)">
                                    <path d="M6.125,12.25 C2.7422559,12.25 0,9.50774431 0,6.125 C0,2.7422559 2.7422559,0 6.125,0 C9.50774431,0 12.25,2.7422559 12.25,6.125 C12.25,9.50774431 9.50774431,12.25 6.125,12.25 Z" id="time" fill="#0C6FFF"></path>
                                    <g id="编组-14" transform="translate(2.296875, 2.843750)" fill="#FFFFFF">
                                        <polygon id="time" points="0.068359375 6.5625 1.02539062 6.5625 1.02539062 3.28125 0.068359375 3.28125"></polygon>
                                        <polygon id="time备份" points="2.25585937 6.5625 3.21289062 6.5625 3.21289062 -5.61257873e-16 2.25585937 -5.61257873e-16"></polygon>
                                        <polygon id="time备份-2" points="4.44335938 6.5625 5.40039063 6.5625 5.40039063 -5.61257873e-16 4.44335938 -5.61257873e-16"></polygon>
                                        <polygon id="time备份-3" points="6.63085937 6.5625 7.58789062 6.5625 7.58789062 2.1875 6.63085937 2.1875"></polygon>
                                    </g>
                                </g>
                            </g>
                        </g>
                    </g>
                </g>
            </g>
        </g>
    </g>
</svg>