<svg width="20" height="20" viewBox="0 0 20 20" fill="none" xmlns="http://www.w3.org/2000/svg">
<path d="M5.99002 7.80997C6.02335 7.38997 6.25002 7.17997 6.67002 7.17997H9.35002C9.80335 7.17997 10.03 7.40664 10.03 7.85997V13.24C10.03 13.6933 9.80335 13.92 9.35002 13.92H6.29002C6.05669 13.92 5.88002 13.8566 5.76002 13.73C5.64669 13.61 5.59669 13.43 5.61002 13.19L5.99002 7.80997ZM9.11002 8.13997H6.88002L6.55002 12.96H9.11002V8.13997ZM7.75002 11.28C7.96335 11.22 8.10335 11.2966 8.17002 11.51L8.40002 12.26C8.46002 12.4733 8.38002 12.6133 8.16002 12.68L7.97002 12.74C7.75669 12.8 7.61669 12.72 7.55002 12.5L7.32002 11.75C7.26002 11.5366 7.34002 11.4 7.56002 11.34L7.75002 11.28ZM10.09 10.03C10.3434 10.03 10.47 10.1566 10.47 10.41V10.63C10.47 10.8833 10.3434 11.01 10.09 11.01H5.65002C5.39669 11.01 5.27002 10.8833 5.27002 10.63V10.41C5.27002 10.1566 5.39669 10.03 5.65002 10.03H10.09ZM7.84002 8.40997C8.06002 8.34331 8.20002 8.41997 8.26002 8.63997L8.49002 9.30997C8.55002 9.53664 8.47335 9.67997 8.26002 9.73997L8.06002 9.79997C7.84002 9.86664 7.70002 9.78997 7.64002 9.56997L7.41002 8.89997C7.35002 8.67331 7.42669 8.52997 7.64002 8.46997L7.84002 8.40997ZM13.82 6.40997C14.08 6.40997 14.21 6.53664 14.21 6.78997V8.70997C14.21 9.76331 13.9567 10.74 13.45 11.64C12.95 12.54 12.23 13.3066 11.29 13.94C11.07 14.08 10.8934 14.04 10.76 13.82L10.64 13.62C10.5134 13.4 10.56 13.22 10.78 13.08C11.5867 12.5333 12.1934 11.8933 12.6 11.16C13.0067 10.4266 13.21 9.60997 13.21 8.70997V6.78997C13.21 6.53664 13.34 6.40997 13.6 6.40997H13.82ZM11.56 7.54997C11.8134 7.54997 11.94 7.67997 11.94 7.93997V8.70997C11.94 9.62331 12.1467 10.4466 12.56 11.18C12.9734 11.9066 13.61 12.54 14.47 13.08C14.6967 13.22 14.7467 13.4 14.62 13.62L14.51 13.82C14.3767 14.0466 14.2 14.09 13.98 13.95C12.98 13.33 12.2234 12.57 11.71 11.67C11.2034 10.77 10.95 9.78331 10.95 8.70997V7.93997C10.95 7.67997 11.0767 7.54997 11.33 7.54997H11.56ZM6.28002 4.91997C6.54002 4.91997 6.67002 5.03331 6.67002 5.25997V5.48997H9.84002C10.0867 5.48997 10.21 5.61331 10.21 5.85997V6.07997C10.21 6.32664 10.0867 6.44997 9.84002 6.44997H6.37002C6.13669 6.44997 5.96002 6.38997 5.84002 6.26997C5.72002 6.14997 5.66002 5.97331 5.66002 5.73997V5.25997C5.66002 5.03331 5.79002 4.91997 6.05002 4.91997H6.28002ZM11.56 4.90997C11.82 4.90997 11.95 5.03997 11.95 5.29997V5.90997H14.18C14.44 5.90997 14.57 6.03997 14.57 6.29997V6.52997C14.57 6.78997 14.44 6.91997 14.18 6.91997H11.67C11.43 6.91997 11.2467 6.85997 11.12 6.73997C11 6.61331 10.94 6.42997 10.94 6.18997V5.29997C10.94 5.03997 11.07 4.90997 11.33 4.90997H11.56Z" fill="black"/>
<path fill-rule="evenodd" clip-rule="evenodd" d="M18.4954 3.33418C17.9573 2.52971 17.0405 2 16 2H4C2.34315 2 1 3.34315 1 5V15C1 16.0974 1.58923 17.0572 2.46858 17.5802L3.71438 16.4728C3.02256 16.3395 2.5 15.7308 2.5 15V5C2.5 4.17157 3.17157 3.5 4 3.5H16C16.5956 3.5 17.1102 3.84718 17.3523 4.35021L18.4954 3.33418ZM5.94163 16.5H16C16.8284 16.5 17.5 15.8284 17.5 15V6.22589L18.9982 4.89419C18.9994 4.92931 19 4.96458 19 5V15C19 16.6569 17.6569 18 16 18H4.25413L5.94163 16.5Z" fill="black"/>
<path fill-rule="evenodd" clip-rule="evenodd" d="M19.5606 1.50174C19.8358 1.81132 19.8079 2.28538 19.4983 2.56056L1.49828 18.5606C1.18869 18.8358 0.71464 18.8079 0.439451 18.4983C0.164263 18.1887 0.192148 17.7146 0.501735 17.4395L18.5017 1.43945C18.8113 1.16426 19.2854 1.19215 19.5606 1.50174Z" fill="black"/>
</svg>
