<svg width="20" height="20" viewBox="0 0 20 20" fill="none" xmlns="http://www.w3.org/2000/svg">
<path fill-rule="evenodd" clip-rule="evenodd" d="M5.25 3C5.25 2.58579 5.58579 2.25 6 2.25H16C17.5188 2.25 18.75 3.48122 18.75 5V8.85873C18.75 10.2404 17.7249 11.4075 16.3548 11.5858L7.45423 12.7437C7.04348 12.7972 6.66717 12.5075 6.61373 12.0968C6.56029 11.686 6.84995 11.3097 7.2607 11.2563L16.1613 10.0983C16.784 10.0173 17.25 9.48675 17.25 8.85873V5C17.25 4.30964 16.6904 3.75 16 3.75H6C5.58579 3.75 5.25 3.41421 5.25 3Z" fill="black"/>
<path fill-rule="evenodd" clip-rule="evenodd" d="M6.25 7C6.25 6.58579 6.58579 6.25 7 6.25H15C15.4142 6.25 15.75 6.58579 15.75 7C15.75 7.41421 15.4142 7.75 15 7.75H7C6.58579 7.75 6.25 7.41421 6.25 7Z" fill="black"/>
<path fill-rule="evenodd" clip-rule="evenodd" d="M0.25 2C0.25 1.58579 0.585786 1.25 1 1.25H1.19601C2.55757 1.25 3.71415 2.24634 3.91571 3.59289L5.35154 13.185C5.44316 13.7971 5.96888 14.25 6.58777 14.25H18C18.4142 14.25 18.75 14.5858 18.75 15C18.75 15.4142 18.4142 15.75 18 15.75H6.58777C5.22621 15.75 4.06964 14.7537 3.86807 13.4071L2.43224 3.81495C2.34062 3.20288 1.8149 2.75 1.19601 2.75H1C0.585786 2.75 0.25 2.41421 0.25 2Z" fill="black"/>
<circle cx="6" cy="18" r="1" fill="black"/>
<circle cx="16" cy="18" r="1" fill="black"/>
</svg>
