<svg width="20" height="20" viewBox="0 0 20 20" fill="none" xmlns="http://www.w3.org/2000/svg">
<path fill-rule="evenodd" clip-rule="evenodd" d="M6.453 6.37037H3C2.72386 6.37037 2.5 6.59423 2.5 6.87037V10C2.5 10.2761 2.72386 10.5 3 10.5H17C17.2761 10.5 17.5 10.2761 17.5 10V6.87037C17.5 6.59423 17.2761 6.37037 17 6.37037H13.6332C12.2608 6.37037 11.145 5.26405 11.1333 3.89171L11.1257 2.99573C11.1233 2.72127 10.9001 2.5 10.6257 2.5H9.44179C9.16308 2.5 8.93817 2.72789 8.94184 3.00659L8.95278 3.83744C8.97114 5.23091 7.84659 6.37037 6.453 6.37037ZM3 4.87037C1.89543 4.87037 1 5.7658 1 6.87037V10C1 11.1046 1.89543 12 3 12H17C18.1046 12 19 11.1046 19 10V6.87037C19 5.7658 18.1046 4.87037 17 4.87037H13.6332C13.0843 4.87037 12.6379 4.42784 12.6332 3.87891L12.6256 2.98293C12.6162 1.88506 11.7236 1 10.6257 1H9.44179C8.32692 1 7.42728 1.91157 7.44197 3.02635L7.45291 3.8572C7.46026 4.41459 7.01044 4.87037 6.453 4.87037H3Z" fill="black"/>
<path fill-rule="evenodd" clip-rule="evenodd" d="M3.88324 11.1208L3.11953 15.7986C2.99534 16.5593 3.58245 17.25 4.3532 17.25H15.6472C16.4179 17.25 17.005 16.5593 16.8808 15.7986L16.1171 11.1208L17.5975 10.8792L18.3612 15.5569C18.6345 17.2304 17.3428 18.75 15.6472 18.75H4.3532C2.65755 18.75 1.36591 17.2304 1.63913 15.5569L2.40284 10.8792L3.88324 11.1208Z" fill="black"/>
<path fill-rule="evenodd" clip-rule="evenodd" d="M5 14.75C5 14.3358 5.33579 14 5.75 14C6.16421 14 6.5 14.3358 6.5 14.75V17.25C6.5 17.6642 6.16421 18 5.75 18C5.33579 18 5 17.6642 5 17.25V14.75Z" fill="black"/>
<path fill-rule="evenodd" clip-rule="evenodd" d="M9 13.75C9 13.3358 9.33579 13 9.75 13C10.1642 13 10.5 13.3358 10.5 13.75V17.25C10.5 17.6642 10.1642 18 9.75 18C9.33579 18 9 17.6642 9 17.25V13.75Z" fill="black"/>
<path fill-rule="evenodd" clip-rule="evenodd" d="M13 14.75C13 14.3358 13.3358 14 13.75 14C14.1642 14 14.5 14.3358 14.5 14.75V17.25C14.5 17.6642 14.1642 18 13.75 18C13.3358 18 13 17.6642 13 17.25V14.75Z" fill="black"/>
</svg>
