<?xml version="1.0" encoding="UTF-8"?>
<svg width="12px" height="12px" viewBox="0 0 12 12" version="1.1" xmlns="http://www.w3.org/2000/svg" xmlns:xlink="http://www.w3.org/1999/xlink">
    <g id="运营直播间" stroke="none" stroke-width="1" fill="none" fill-rule="evenodd">
        <g id="图标/状态" transform="translate(-81.000000, -137.000000)">
            <g id="总数" transform="translate(81.000000, 137.000000)">
                <rect id="矩形" fill-rule="nonzero" x="9.09494702e-13" y="0" width="12" height="12"></rect>
                <path d="M4.12328571,6.29937818 C2.74991359,5.40261013 2.20409847,3.65877449 2.82112226,2.13907015 C3.43814605,0.619365814 5.04515018,-0.250463616 6.65498825,0.0638984642 C8.26482632,0.378260544 9.42642857,1.78874592 9.42642857,3.42892524 C9.42642857,5.32206012 7.89192726,6.85688186 5.99871429,6.85735514 C3.159,6.85735514 0.857142857,9.15997438 0.857142857,12 L0,12 C0,9.34125261 1.72885714,7.08663139 4.12328571,6.29937818 Z M5.99871429,6.0002477 C7.4187077,6.00001101 8.56971429,4.84886006 8.56971429,3.42892524 C8.56971429,2.3888834 7.94315943,1.45125884 6.98222981,1.0532921 C6.02130019,0.655325369 4.9152493,0.87539536 4.1798596,1.61087728 C3.44446991,2.34635921 3.22457519,3.45240111 3.62271852,4.41322472 C4.02086184,5.37404832 4.95862953,6.00042101 5.99871429,6.0002477 L5.99871429,6.0002477 Z" id="形状" fill="#999999" fill-rule="nonzero"></path>
                <path d="M11.5,11 C11.7761424,11 12,11.2238576 12,11.5 C12,11.7761424 11.7761424,12 11.5,12 L8.5,12 C8.22385763,12 8,11.7761424 8,11.5 C8,11.2238576 8.22385763,11 8.5,11 L11.5,11 Z M11.5,9.2 C11.7761424,9.2 12,9.42385763 12,9.7 C12,9.97614237 11.7761424,10.2 11.5,10.2 L8.5,10.2 C8.22385763,10.2 8,9.97614237 8,9.7 C8,9.42385763 8.22385763,9.2 8.5,9.2 L11.5,9.2 Z M11.5,7.4 C11.7761424,7.4 12,7.62385763 12,7.9 C12,8.17614237 11.7761424,8.4 11.5,8.4 L8.5,8.4 C8.22385763,8.4 8,8.17614237 8,7.9 C8,7.62385763 8.22385763,7.4 8.5,7.4 L11.5,7.4 Z" id="形状结合" fill="#999999"></path>
            </g>
        </g>
    </g>
</svg>