<svg width="20" height="20" viewBox="0 0 20 20" fill="none" xmlns="http://www.w3.org/2000/svg">
<path fill-rule="evenodd" clip-rule="evenodd" d="M4.25 6C4.25 5.58579 4.58579 5.25 5 5.25H9C9.41421 5.25 9.75 5.58579 9.75 6C9.75 6.41421 9.41421 6.75 9 6.75H5C4.58579 6.75 4.25 6.41421 4.25 6Z" fill="black"/>
<path fill-rule="evenodd" clip-rule="evenodd" d="M4.25 10C4.25 9.58579 4.58579 9.25 5 9.25H9C9.41421 9.25 9.75 9.58579 9.75 10C9.75 10.4142 9.41421 10.75 9 10.75H5C4.58579 10.75 4.25 10.4142 4.25 10Z" fill="black"/>
<path fill-rule="evenodd" clip-rule="evenodd" d="M1.25 5C1.25 2.92893 2.92893 1.25 5 1.25H13C15.0711 1.25 16.75 2.92893 16.75 5V5.63636C16.75 6.05058 16.4142 6.38636 16 6.38636C15.5858 6.38636 15.25 6.05058 15.25 5.63636V5C15.25 3.75736 14.2426 2.75 13 2.75H5C3.75736 2.75 2.75 3.75736 2.75 5V15C2.75 16.2426 3.75736 17.25 5 17.25H13.8125C14.2267 17.25 14.5625 17.5858 14.5625 18C14.5625 18.4142 14.2267 18.75 13.8125 18.75H5C2.92893 18.75 1.25 17.0711 1.25 15V5Z" fill="black"/>
<path fill-rule="evenodd" clip-rule="evenodd" d="M12.4016 5.99982C12.5947 5.53559 13.0434 5.25 13.5284 5.25H17.504C18.406 5.25 19.0157 6.20191 18.597 7.02476C18.5967 7.02531 18.5965 7.02586 18.5962 7.02641L16.649 10.8819H18.5265C19.5217 10.8819 20.1041 12.0095 19.5172 12.8196L19.5142 12.8237L19.5142 12.8237L14.7219 19.3445C14.7215 19.3449 14.7211 19.3454 14.7208 19.3459C14.1187 20.1694 12.8084 19.6454 12.9456 18.6315L12.9459 18.629L13.5098 14.5653H10.2081C9.53354 14.5653 9.05016 13.8744 9.32891 13.2315L12.4016 5.99982ZM13.7127 6.75L11.0293 13.0653H13.8846C14.2354 13.0653 14.5539 13.2224 14.7713 13.4751L14.7795 13.4846L14.7794 13.4847C14.9837 13.7304 15.0926 14.0597 15.0468 14.4024L15.0463 14.406L15.0463 14.406L14.7103 16.8273L17.9774 12.3819H16.1226C15.4614 12.3819 14.9511 11.8351 14.9511 11.2012C14.9511 11.0317 14.9856 10.8491 15.0743 10.6724L15.0752 10.6707L17.0553 6.75H13.7127Z" fill="black"/>
</svg>
