<svg width="20" height="20" viewBox="0 0 20 20" fill="none" xmlns="http://www.w3.org/2000/svg">
<path fill-rule="evenodd" clip-rule="evenodd" d="M10 17.5C14.1421 17.5 17.5 14.1421 17.5 10C17.5 5.85786 14.1421 2.5 10 2.5C5.85786 2.5 2.5 5.85786 2.5 10C2.5 14.1421 5.85786 17.5 10 17.5ZM10 19C14.9706 19 19 14.9706 19 10C19 5.02944 14.9706 1 10 1C5.02944 1 1 5.02944 1 10C1 14.9706 5.02944 19 10 19Z" fill="black"/>
<path fill-rule="evenodd" clip-rule="evenodd" d="M7.48794 13.452C7.79059 13.1692 8.26519 13.1853 8.548 13.4879C9.05062 14.0258 9.54613 14.25 10 14.25C10.4539 14.25 10.9494 14.0258 11.452 13.4879C11.7348 13.1853 12.2094 13.1692 12.5121 13.452C12.8147 13.7348 12.8308 14.2094 12.548 14.5121C11.8577 15.2508 10.9917 15.75 10 15.75C9.00831 15.75 8.14227 15.2508 7.45201 14.5121C7.16921 14.2094 7.1853 13.7348 7.48794 13.452Z" fill="black"/>
<circle cx="6.5" cy="8.5" r="1.5" fill="black"/>
<circle cx="13.5" cy="8.5" r="1.5" fill="black"/>
</svg>
