<svg width="20" height="20" viewBox="0 0 20 20" fill="none" xmlns="http://www.w3.org/2000/svg">
<path fill-rule="evenodd" clip-rule="evenodd" d="M4.25 8C4.25 7.58579 4.58579 7.25 5 7.25H9C9.41421 7.25 9.75 7.58579 9.75 8C9.75 8.41421 9.41421 8.75 9 8.75H5C4.58579 8.75 4.25 8.41421 4.25 8Z" fill="black"/>
<path fill-rule="evenodd" clip-rule="evenodd" d="M1.25 5C1.25 4.58579 1.58579 4.25 2 4.25L16 4.25C16.4142 4.25 16.75 4.58579 16.75 5C16.75 5.41421 16.4142 5.75 16 5.75L2 5.75C1.58579 5.75 1.25 5.41421 1.25 5Z" fill="black"/>
<path fill-rule="evenodd" clip-rule="evenodd" d="M4.25 12C4.25 11.5858 4.58579 11.25 5 11.25H9C9.41421 11.25 9.75 11.5858 9.75 12C9.75 12.4142 9.41421 12.75 9 12.75H5C4.58579 12.75 4.25 12.4142 4.25 12Z" fill="black"/>
<path d="M15 15L15 18" stroke="black" stroke-width="1.5" stroke-linecap="round"/>
<path fill-rule="evenodd" clip-rule="evenodd" d="M1.25 5C1.25 2.92893 2.92893 1.25 5 1.25H13C15.0711 1.25 16.75 2.92893 16.75 5V5.63636C16.75 6.05058 16.4142 6.38636 16 6.38636C15.5858 6.38636 15.25 6.05058 15.25 5.63636V5C15.25 3.75736 14.2426 2.75 13 2.75H5C3.75736 2.75 2.75 3.75736 2.75 5V15C2.75 16.2426 3.75736 17.25 5 17.25H16C16.4142 17.25 16.75 17.5858 16.75 18C16.75 18.4142 16.4142 18.75 16 18.75H5C2.92893 18.75 1.25 17.0711 1.25 15V5Z" fill="black"/>
<path fill-rule="evenodd" clip-rule="evenodd" d="M15.5 11V9C15.5 8.72386 15.2761 8.5 15 8.5C14.7239 8.5 14.5 8.72386 14.5 9V11C14.5 11.2761 14.7239 11.5 15 11.5C15.2761 11.5 15.5 11.2761 15.5 11ZM15 7C13.8954 7 13 7.89543 13 9V11C13 12.1046 13.8954 13 15 13C16.1046 13 17 12.1046 17 11V9C17 7.89543 16.1046 7 15 7Z" fill="black"/>
<path fill-rule="evenodd" clip-rule="evenodd" d="M11 10.25C11.4142 10.25 11.75 10.5858 11.75 11C11.75 12.7949 13.2051 14.25 15 14.25C16.7949 14.25 18.25 12.7949 18.25 11C18.25 10.5858 18.5858 10.25 19 10.25C19.4142 10.25 19.75 10.5858 19.75 11C19.75 13.6234 17.6234 15.75 15 15.75C12.3766 15.75 10.25 13.6234 10.25 11C10.25 10.5858 10.5858 10.25 11 10.25Z" fill="black"/>
</svg>
