<?xml version="1.0" encoding="UTF-8"?>
<svg width="14px" height="14px" viewBox="0 0 14 14" version="1.1" xmlns="http://www.w3.org/2000/svg" xmlns:xlink="http://www.w3.org/1999/xlink">
    <g id="直播列表" stroke="none" stroke-width="1" fill="none" fill-rule="evenodd">
        <g id="直播管理" transform="translate(-1059.000000, -620.000000)">
            <g id="编组-13" transform="translate(272.000000, 285.000000)">
                <g id="编组-7" transform="translate(0.000000, 38.000000)">
                    <g id="编组-22备份-4" transform="translate(0.000000, 276.000000)">
                        <g id="编组-21" transform="translate(20.000000, 16.000000)">
                            <g id="标签/中标签/处理中备份" transform="translate(757.000000, 0.000000)">
                                <g id="编组-57" transform="translate(10.000000, 2.000000)">
                                    <g id="close-circle-filled" transform="translate(0.000000, 3.000000)">
                                        <path d="M0,0 L14,0 L14,14 L0,14 L0,0 Z" id="close-circle-filled-(Background)"></path>
                                        <path d="M7.00000209,0.875 C3.61725798,0.875 0.875,3.61725423 0.875,6.99999833 C0.875,10.3827426 3.61725423,13.125 6.99999833,13.125 C10.3827426,13.125 13.125,10.382746 13.125,7.00000209 C13.125,3.61725798 10.382746,0.875 7.00000209,0.875 Z" fill="#717F99"></path>
                                        <polygon fill="#FFFFFF" points="7.00001043 6.37940753 9.03797805 4.32909587 9.65856135 4.94594389 7.61686909 7.0000025 9.65855384 9.05405319 9.03796971 9.67090058 7.00001001 7.62059748 4.96205115 9.67090058 4.34146702 9.05405235 6.38315177 7.0000025 4.3414593 4.94594347 4.96204323 4.32909587"></polygon>
                                    </g>
                                </g>
                            </g>
                        </g>
                    </g>
                </g>
            </g>
        </g>
    </g>
</svg>