<?xml version="1.0" encoding="UTF-8"?>
<svg width="24px" height="24px" viewBox="0 0 24 24" version="1.1" xmlns="http://www.w3.org/2000/svg" xmlns:xlink="http://www.w3.org/1999/xlink">
    <g id="伪直播1.6" stroke="none" stroke-width="1" fill="none" fill-rule="evenodd">
        <g id="商品推动信息" transform="translate(-752.000000, -763.000000)">
            <g id="编组-47" transform="translate(752.000000, 763.000000)">
                <circle id="椭圆形备份-3" stroke="#333333" stroke-width="2" fill-rule="nonzero" cx="12" cy="12" r="11"></circle>
                <path d="M15.7010571,9.76043046 L12.1973359,9.76043046 L14.6795118,7.28721545 C14.8699969,7.09673038 14.9443898,6.81909234 14.8746674,6.55888488 C14.804945,6.29867743 14.6016999,6.09543227 14.3414924,6.02570989 C14.081285,5.95598752 13.8036469,6.03038041 13.6131619,6.22086549 L11.7224069,8.14746415 L9.76892549,6.19398272 C9.46749733,5.92610151 9.00951218,5.93958337 8.72436373,6.22473183 C8.43921528,6.50988028 8.42573342,6.96786542 8.69361462,7.26929359 L11.1757905,9.75146952 L7.71687391,9.75146952 C7.31951023,9.75637563 7,10.0799104 7,10.4773044 L7,10.5489917 C7.00490556,10.9414064 7.3244286,11.2569354 7.71687391,11.2569047 L10.9607284,11.2569047 L10.9607284,12.6010433 L8.3889432,12.6010433 C7.99158343,12.6108259 7.67600264,12.9383907 7.6810302,13.3358391 L7.6810302,13.4164874 C7.67842399,13.6034137 7.75277267,13.7831924 7.88664608,13.9136766 C8.0205195,14.0441608 8.2021452,14.1138761 8.3889432,14.1064786 L10.9607284,14.1064786 L10.9607284,17.2428019 C10.9607284,17.6609909 11.2997375,18 11.7179264,18 C12.1361154,18 12.4751245,17.6609909 12.4751245,17.2428019 L12.4751245,14.1064786 L15.0289878,14.1064786 C15.4215654,14.1165676 15.7491867,13.8089232 15.7637836,13.4164874 L15.7637836,13.3358391 C15.7543248,12.9340058 15.4308212,12.6105021 15.0289878,12.6010433 L12.4751245,12.6010433 L12.4751245,11.2927484 L15.7010571,11.2927484 C15.8912006,11.2975615 16.0754626,11.2266124 16.2132767,11.0955209 C16.3510909,10.9644294 16.4311587,10.7839429 16.4358529,10.5937964 L16.4358529,10.5131481 C16.4268647,10.1080982 16.1057729,9.7791749 15.7010571,9.76043046 Z" id="路径" fill="#333333" fill-rule="nonzero"></path>
                <circle id="椭圆形" fill="#F53F3F" cx="20" cy="4" r="4"></circle>
            </g>
        </g>
    </g>
</svg>