<svg xmlns="http://www.w3.org/2000/svg" xmlns:xlink="http://www.w3.org/1999/xlink" fill="none" version="1.1" width="155" height="31" viewBox="0 0 155 31"><defs><linearGradient x1="0.0011937038507312536" y1="0.5002644062042236" x2="1.0015175342559814" y2="0.5002644062042236" id="master_svg0_0_17708"><stop offset="0%" stop-color="#00A4FF" stop-opacity="1"/><stop offset="100%" stop-color="#0657FF" stop-opacity="1"/></linearGradient><linearGradient x1="0.0004087857960257679" y1="0.5148775577545166" x2="0.9995912313461304" y2="0.5148775577545166" id="master_svg1_0_17710"><stop offset="0%" stop-color="#00EEF5" stop-opacity="1"/><stop offset="100%" stop-color="#009BFF" stop-opacity="1"/></linearGradient><linearGradient x1="-0.0005429215379990637" y1="0.5003838539123535" x2="1" y2="0.5003838539123535" id="master_svg2_0_17712"><stop offset="0%" stop-color="#00A4FF" stop-opacity="1"/><stop offset="100%" stop-color="#0657FF" stop-opacity="1"/></linearGradient></defs><g><g></g><g><path d="M92.72409999999999,12.97286L92.72409999999999,11.157440000000001L84.59309999999999,11.157440000000001L84.59309999999999,10.579799999999999L91.4,10.579799999999999L91.4,9.15635L84.59309999999999,9.15635L84.59309999999999,8.57872L92.3103,8.57872L92.3103,6.80456L88.6276,6.80456L88.8138,6L86.04140000000001,6L85.8552,6.80456L80.5586,6.80456L80.3724,6L77.6,6L77.78620000000001,6.80456L74.1034,6.80456L74.1034,8.57872L81.8207,8.57872L81.8207,9.15635L75.0138,9.15635L75.0138,10.579799999999999L81.8207,10.579799999999999L81.8207,11.157440000000001L73.6896,11.157440000000001L73.6896,12.97286L92.72409999999999,12.97286ZM125.931,18.2747L125.931,24.9794L123.2414,24.9794L123.2414,18.2747L115.6483,18.2747L115.6483,15.75787L120.5517,15.75787L121.6896,14.58198L116.78620000000001,13.17915L116.78620000000001,10.14658L119.1241,10.86862L120.8207,9.09446C119.0473,9.11804,117.659,9.13151,116.6557,9.134879999999999L116.1862,9.13572L116.1862,6.577633Q124.3379,6.577633,132.9862,6.0412598L132.9862,8.57872C130.71030000000002,8.73,127.9655,8.86754,124.7517,8.99131L122.0207,11.77633L123.8827,12.35396L126.1172,10.08469L130.2758,10.08469L124.7103,15.75787L130.2138,15.75787L129.2,12.9316L132.0552,12.9316L133.9586,18.2747L125.931,18.2747ZM154.483,16.0261L152.5586,11.01303L149.8689,11.01303L150.8,13.42671L147.03449999999998,13.42671L148.81380000000001,9.87839L154.54500000000002,9.87839L154.54500000000002,7.27905L149.9931,7.27905L149.9931,6.206299L147.3034,6.206299L147.3034,7.27905L142.7517,7.27905L142.7517,9.87839L145.8965,9.87839L144.1172,13.42671L142.9586,13.42671L142.9586,16.0261L154.483,16.0261ZM57.53103,11.23996L57.53103,24.9794L54.84138,24.9794L54.84138,15.65473Q54.09655,16.541800000000002,53,17.4908L53,13.385449999999999Q55.33793,10.600439999999999,56.26897,6.412598L58.89655,6.412598Q58.46207,9.03258,57.53103,11.23996ZM64.46209999999999,21.0185Q63.5931,22.9164,62.041399999999996,25L58.31726,25Q60.09657,23.0608,61.17243,21.3176Q62.24829,19.5744,62.79657,17.6249Q63.3448,15.67535,63.4069,13.19979L58.31726,13.19979L58.31726,10.51792L63.4276,10.51792L63.4276,6.412598L66.0966,6.412598L66.0966,10.51792L71.8069,10.51792L71.8069,13.19979L66.0966,13.19979C66.069,13.9287,66.0276,14.62324,65.9724,15.28339L67.9173,15.28339L72.2,24.9794L69.2414,24.9794L65.7242,17.0163Q65.33109999999999,19.1205,64.46209999999999,21.0185ZM142.68959999999998,17.532L142.68959999999998,20.110799999999998L135.9241,20.110799999999998L138.0552,15.03583L135.6345,13.79805L138.7379,6.412598L141.46890000000002,6.412598L138.9448,12.33334L139.6689,12.68404L140.3724,10.951139999999999L142.8551,10.951139999999999L140.1034,17.532L142.68959999999998,17.532ZM70.52420000000001,9.54832L69.8414,6.742676L67.2552,6.742676L67.9379,9.54832L70.52420000000001,9.54832ZM111.7379,7.13464L111.7379,9.77525L96.0552,9.77525L96.0552,7.13464L111.7379,7.13464ZM113.20689999999999,24.4018L110.7655,18.6873L107.7448,18.6873L109.04820000000001,21.7405L99.96549999999999,21.7405L103.5241,15.53099L113.20689999999999,15.53099L113.20689999999999,12.89038L94.58619999999999,12.89038L94.58619999999999,15.53099L100.3586,15.53099L96.8,21.7405L95.3517,21.7405L95.3517,24.4018L113.20689999999999,24.4018ZM92.1862,24.9794C91.2345,23.9754,90.5034,22.9164,89.9931,21.8024L92.5172,20.647199999999998L92.5172,18.2954L89.3103,19.7395C89.1586,19.0518,89.062,18.281599999999997,89.0207,17.4289L92.72409999999999,17.387700000000002L92.72409999999999,15.65477L89.0207,15.65477L89.0207,13.30298L86.6414,13.30298L86.6414,15.65477L80.931,15.65477L80.931,14.9121C82.0207,14.85708,83.131,14.77457,84.2621,14.66454L84.2621,13.034790000000001Q79.3379,13.46801,74.4138,13.46801L74.4138,15.09776Q77,15.09776,78.2827,15.03588L78.2827,15.65477L73.6896,15.65477L73.6896,17.5527L74.6621,17.5527Q74.331,18.4192,73.8965,19.1618L76.2758,19.1618C76.5241,18.694200000000002,76.7379,18.151,76.91720000000001,17.5321L78.34479999999999,17.511400000000002L78.34479999999999,19.1618L80.8689,19.1618L80.8689,17.4908L82.29650000000001,17.4702C82.46209999999999,18.089100000000002,82.6758,18.653,82.9379,19.1618L85.3172,19.1618C85.0276,18.680500000000002,84.7655,18.1097,84.531,17.4496L86.6414,17.4496C86.6827,18.8936,86.83449999999999,20.0764,87.09649999999999,20.9979L84.862,22.0087L84.862,24.3812L87.8827,23.0196C88.2276,23.6385,88.6483,24.2918,89.1448,24.9794L92.1862,24.9794ZM92.2276,15.34532L91.6483,13.30298L89.72409999999999,13.30298L90.30340000000001,15.34532L92.2276,15.34532ZM145.6069,24.9793C146.2,23.8928,146.6276,22.8166,146.8897,21.750799999999998Q147.2828,20.152,147.2828,18.2334L147.2828,16.9131L144.6345,16.9131L144.6345,18.2334C144.6345,19.581200000000003,144.46210000000002,20.7743,144.1173,21.8127C143.7724,22.851,143.1655,23.9066,142.2966,24.9793L145.6069,24.9793ZM155,22.3387L155,24.9793L149.9103,24.9793L149.9103,16.9131L152.5586,16.9131L152.5586,22.3387L155,22.3387ZM118.6483,24.4017C119.4897,22.6688,120.1449,20.8946,120.6138,19.0792L117.738,19.0792Q117.0138,21.699199999999998,115.52420000000001,24.4017L118.6483,24.4017ZM131.4345,19.0792Q132.1586,21.699199999999998,133.6482,24.4017L130.5241,24.4017C129.6827,22.6688,129.0276,20.8946,128.5586,19.0792L131.4345,19.0792ZM83.1448,24.9793C83.6414,24.0304,83.96549999999999,22.9714,84.1172,21.8024L78.1793,21.8024L78.3862,21.142200000000003L84.8207,21.142200000000003L84.8207,19.491799999999998L74.5586,19.491799999999998L74.5586,21.142200000000003L75.6345,21.142200000000003L74.9103,23.4527L80.9103,23.4527C80.6758,24.0441,80.4414,24.553,80.2069,24.9793L83.1448,24.9793ZM142.68970000000002,23.9685L135.96550000000002,24.8556L135.96550000000002,22.1943L142.68970000000002,21.307299999999998L142.68970000000002,23.9685Z" fill-rule="evenodd" fill="#0C6FFF" fill-opacity="1"/></g><g><g><path d="M29.439503259277345,26.381561032104493C28.891003259277344,25.922761032104493,28.083263259277345,25.95876103210449,27.577763259277344,26.464661032104495C27.072273259277345,26.97056103210449,27.036263259277344,27.778861032104494,27.49476325927734,28.32776103210449C30.26260325927734,31.072061032104493,34.46900325927734,31.74846103210449,37.956603259277344,30.010061032104492C41.44410325927734,28.271761032104493,43.43900325927734,24.50436103210449,42.917903259277345,20.640291032104493C42.39680325927735,16.776201032104492,39.475503259277346,13.672789032104491,35.65220325927734,12.921805032104492C31.829003259277343,12.170821032104492,27.95216325927734,13.938901032104493,26.010233259277342,17.31920103210449L18.127403259277344,30.987061032104492L18.557915259277344,30.987061032104492C19.405493259277343,31.050561032104493,20.253933259277343,30.875661032104492,21.007383259277344,30.481961032104493C21.745413259277342,30.01676103210449,22.337193259277342,29.352461032104493,22.714583259277344,28.565461032104494C24.614783259277345,25.247561032104493,26.51992325927734,21.944491032104494,28.430003259277342,18.656271032104492C29.792203259277343,16.298581032104494,32.503503259277345,15.070861032104492,35.172403259277345,15.603191032104492C37.84130325927734,16.135531032104492,39.87510325927734,18.30971103210449,40.23000325927734,21.00989103210449C40.58490325927734,23.71006103210449,39.18210325927734,26.33656103210449,36.741503259277344,27.541461032104493C34.30090325927735,28.746361032104492,31.364603259277345,28.26206103210449,29.439503259277345,26.337061032104494L29.439503259277345,26.381561032104493Z" fill="url(#master_svg0_0_17708)" fill-opacity="1"/></g><g><path d="M12.397134006101075,9.48988C12.397134006101075,10.2529,13.015253816101074,10.8715,13.777741816101074,10.8715C14.540231816101073,10.8715,15.158351816101074,10.2529,15.158351816101074,9.48988C15.158351816101074,5.97816,18.003031816101075,3.13134,21.51212181610107,3.13134C25.021181816101077,3.13134,27.865881816101073,5.97816,27.865881816101073,9.48988C27.939081816101073,10.1937,28.531981816101073,10.7284,29.239081816101073,10.7284C29.946181816101074,10.7284,30.539081816101074,10.1937,30.612281816101074,9.48988C30.747181816101076,6.14584,29.041381816101076,2.99638,26.167981816101076,1.28416C23.294481816101076,-0.428055,19.714871816101073,-0.428055,16.841421816101075,1.28416C13.967971816101073,2.99638,12.262198816101074,6.14584,12.397134006101075,9.48988L12.397134006101075,9.48988Z" fill="url(#master_svg1_0_17710)" fill-opacity="1"/></g><g><path d="M15.5295,15.417581051940918C16.0652,15.961321051940917,16.0652,16.83488105194092,15.5295,17.378621051940918C14.9912,17.91304105194092,14.123,17.91304105194092,13.5848,17.378621051940918C11.6597,15.453631051940917,8.72334,14.969281051940918,6.28276,16.174161051940917C3.84218,17.379041051940916,2.43935,20.00558105194092,2.79423,22.705761051940918C3.14912,25.40591105194092,5.18291,27.580111051940918,7.85181,28.11251105194092C10.5207,28.64481105194092,13.232,27.417111051940918,14.5942,25.05941105194092L20.3097,15.194731051940918C20.6772,14.411071051940919,21.2522,13.743125051940918,21.9723,13.263403051940918C22.7317,12.871487051940917,23.5844,12.696709051940918,24.4366,12.758285651940918L24.8672,12.758285651940918L16.9843,26.44101105194092C15.0392,29.81751105194092,11.1627,31.58101105194092,7.34164,30.827711051940916C3.52058,30.074411051940917,0.60206,26.971311051940916,0.0818979,23.10881105194092C-0.438264,19.246361051940916,1.55525,15.480761051940918,5.04071,13.742026051940918C8.52616,12.003292051940917,12.7309,12.676889251940917,15.4998,15.417581051940918L15.5295,15.417581051940918Z" fill="url(#master_svg2_0_17712)" fill-opacity="1"/></g></g></g></svg>