<?xml version="1.0" encoding="UTF-8"?>
<svg width="24px" height="24px" viewBox="0 0 24 24" version="1.1" xmlns="http://www.w3.org/2000/svg" xmlns:xlink="http://www.w3.org/1999/xlink">
    <g id="智慧直播1.4" stroke="none" stroke-width="1" fill="none" fill-rule="evenodd">
        <g id="12-5-2公共聊天室" transform="translate(-516.000000, -764.000000)">
            <g id="编组-68" transform="translate(516.000000, 764.000000)">
                <circle id="椭圆形" stroke="#333333" stroke-width="2" cx="12" cy="12" r="11"></circle>
                <g id="编组-62" transform="translate(12.000000, 12.000000) rotate(90.000000) translate(-12.000000, -12.000000) translate(1.790708, 0.500000)" fill="#333333" fill-rule="nonzero">
                    <path d="M10.2092921,0 C10.4854345,0 10.7092921,0.223857625 10.7092921,0.5 L10.7092921,3.5 C10.7092921,3.77614237 10.4854345,4 10.2092921,4 C9.93314977,4 9.70929214,3.77614237 9.70929214,3.5 L9.70929214,0.5 C9.70929214,0.223857625 9.93314977,0 10.2092921,0 Z" id="直线-7"></path>
                    <path d="M18.4365335,4.75 C18.7126759,4.75 18.9365335,4.97385763 18.9365335,5.25 L18.9365335,8.25 C18.9365335,8.52614237 18.7126759,8.75 18.4365335,8.75 C18.1603911,8.75 17.9365335,8.52614237 17.9365335,8.25 L17.9365335,5.25 C17.9365335,4.97385763 18.1603911,4.75 18.4365335,4.75 Z" id="直线-7" transform="translate(18.436533, 6.750000) rotate(60.000000) translate(-18.436533, -6.750000) "></path>
                    <path d="M18.4365335,14.25 C18.7126759,14.25 18.9365335,14.4738576 18.9365335,14.75 L18.9365335,17.75 C18.9365335,18.0261424 18.7126759,18.25 18.4365335,18.25 C18.1603911,18.25 17.9365335,18.0261424 17.9365335,17.75 L17.9365335,14.75 C17.9365335,14.4738576 18.1603911,14.25 18.4365335,14.25 Z" id="直线-7" transform="translate(18.436533, 16.250000) rotate(120.000000) translate(-18.436533, -16.250000) "></path>
                    <path d="M10.2092921,19 C10.4854345,19 10.7092921,19.2238576 10.7092921,19.5 L10.7092921,22.5 C10.7092921,22.7761424 10.4854345,23 10.2092921,23 C9.93314977,23 9.70929214,22.7761424 9.70929214,22.5 L9.70929214,19.5 C9.70929214,19.2238576 9.93314977,19 10.2092921,19 Z" id="直线-7" transform="translate(10.209292, 21.000000) rotate(180.000000) translate(-10.209292, -21.000000) "></path>
                    <path d="M1.98205081,14.25 C2.25819318,14.25 2.48205081,14.4738576 2.48205081,14.75 L2.48205081,17.75 C2.48205081,18.0261424 2.25819318,18.25 1.98205081,18.25 C1.70590843,18.25 1.48205081,18.0261424 1.48205081,17.75 L1.48205081,14.75 C1.48205081,14.4738576 1.70590843,14.25 1.98205081,14.25 Z" id="直线-7" transform="translate(1.982051, 16.250000) rotate(240.000000) translate(-1.982051, -16.250000) "></path>
                    <path d="M1.98205081,4.75 C2.25819318,4.75 2.48205081,4.97385763 2.48205081,5.25 L2.48205081,8.25 C2.48205081,8.52614237 2.25819318,8.75 1.98205081,8.75 C1.70590843,8.75 1.48205081,8.52614237 1.48205081,8.25 L1.48205081,5.25 C1.48205081,4.97385763 1.70590843,4.75 1.98205081,4.75 Z" id="直线-7" transform="translate(1.982051, 6.750000) rotate(300.000000) translate(-1.982051, -6.750000) "></path>
                </g>
                <g id="奖" transform="translate(6.000000, 6.000000)" fill="#333333" fill-rule="nonzero">
                    <path d="M0.301639344,7.10869565 L0.301639344,8.32173913 L4.99672131,8.32173913 C4.24918033,9.4826087 2.58360656,10.3304348 0,10.8521739 L0.51147541,12 C3.3704918,11.3217391 5.24590164,10.2782609 6.12459016,8.84347826 C6.87213115,10.3043478 8.6557377,11.3478261 11.4885246,11.973913 L12,10.826087 C9.54754098,10.3826087 7.86885246,9.54782609 6.97704918,8.32173913 L11.7377049,8.32173913 L11.7377049,7.10869565 L6.63606557,7.10869565 C6.66229508,6.82173913 6.68852459,6.52173913 6.68852459,6.1826087 L5.48196721,6.1826087 C5.48196721,6.52173913 5.4557377,6.82173913 5.41639344,7.10869565 L0.301639344,7.10869565 Z M3.72459016,0.0260869565 L3.72459016,3.24782609 C2.68852459,3.74347826 1.49508197,4.17391304 0.144262295,4.53913043 L0.642622951,5.68695652 C1.79672131,5.32173913 2.83278689,4.93043478 3.72459016,4.48695652 L3.72459016,6.10434783 L4.98360656,6.10434783 L4.98360656,0.0260869565 L3.72459016,0.0260869565 Z M1.1147541,0.495652174 L0.445901639,1.47391304 C1.18032787,1.81304348 1.88852459,2.29565217 2.58360656,2.90869565 L3.25245902,1.87826087 C2.60983607,1.33043478 1.90163934,0.860869565 1.1147541,0.495652174 Z M7.63278689,0 C7.2,0.952173913 6.37377049,1.76086957 5.15409836,2.42608696 L5.9147541,3.4173913 C6.59672131,3 7.18688525,2.54347826 7.67213115,2.03478261 L10.3081967,2.03478261 C9.99344262,2.63478261 9.52131148,3.16956522 8.86557377,3.62608696 C8.52459016,3.26086957 8.1704918,2.90869565 7.79016393,2.5826087 L6.93770492,3.22173913 C7.26557377,3.49565217 7.60655738,3.80869565 7.96065574,4.16086957 C7.27868852,4.5 6.47868852,4.77391304 5.54754098,4.99565217 L6.15081967,6.07826087 C9.16721311,5.29565217 10.9639344,3.92608696 11.5409836,1.95652174 L11.5409836,0.913043478 L8.52459016,0.913043478 C8.66885246,0.665217391 8.8,0.404347826 8.90491803,0.143478261 L7.63278689,0 Z" id="形状"></path>
                </g>
            </g>
        </g>
    </g>
</svg>