<svg xmlns="http://www.w3.org/2000/svg" fill="none" viewBox="0 0 20 20" class="design-iconfont">
  <path fill="#0C6FFF" d="M10 0A10 10 0 1 0 10 20A10 10 0 1 0 10 0Z"/>
  <path d="M9.03512 14.5607L10.4165 14.5607L10.4165 13.1794L9.03512 13.1794L9.03512 14.5607ZM11.1537 10.2323C10.4626 10.6931 10.1405 11.245 10.1405 11.8441L10.1405 12.2583L9.03464 12.2583L9.03464 11.7519C8.98856 10.923 9.40326 10.1862 10.14 9.63329C10.9685 9.03525 11.3832 8.43622 11.291 7.88329C11.1988 7.05486 10.7386 6.59407 9.86356 6.54799C8.85032 6.50191 8.20571 7.10094 7.97581 8.34407L6.73218 8.02152C7.10081 6.17986 8.25179 5.30486 10.0939 5.35094C11.7057 5.44309 12.5346 6.22594 12.7185 7.74555C12.765 8.66663 12.2582 9.49555 11.1533 10.2323L11.1537 10.2323ZM9.9562 2.5877C5.90374 2.58819 2.58856 5.90338 2.58856 9.95583C2.58856 14.0088 5.90374 17.3245 9.9562 17.3245C14.0087 17.3245 17.3238 14.0083 17.3238 9.95583C17.3238 5.90338 14.0091 2.58819 9.9562 2.58819L9.9562 2.5877ZM9.9562 18.2446C5.39738 18.2451 1.66699 14.5147 1.66699 9.95583C1.66699 5.39701 5.39738 1.66663 9.9562 1.66663C14.515 1.66663 18.2454 5.39701 18.2454 9.95583C18.2454 14.5147 14.515 18.2451 9.9562 18.2451L9.9562 18.2446Z" fill="#FFF"/>
</svg>
