<?xml version="1.0" encoding="UTF-8"?>
<svg width="23px" height="24px" viewBox="0 0 23 24" version="1.1" xmlns="http://www.w3.org/2000/svg" xmlns:xlink="http://www.w3.org/1999/xlink">
    <g id="ai外呼" stroke="none" stroke-width="1" fill="none" fill-rule="evenodd">
        <g id="企微能力开放-客服话术设置" transform="translate(-831.000000, -814.000000)" fill-rule="nonzero">
            <g id="编组-2" transform="translate(712.000000, 0.000000)">
                <g id="编组-8备份" transform="translate(73.000000, 732.000000)">
                    <g id="编组-79备份-2" transform="translate(36.000000, 72.000000)">
                        <g id="png" transform="translate(10.000000, 10.000000)">
                            <path d="M20.6905747,21.714483 C20.6916839,22.0175171 20.5704553,22.3083287 20.3540411,22.5217219 C20.1384641,22.7357205 19.8463752,22.856065 19.5417382,22.8564117 L3.44776104,22.8564117 C3.14280027,22.857689 2.85010854,22.7370961 2.63545816,22.5217219 C2.42030161,22.3074817 2.29926343,22.0172311 2.29882177,21.714483 L2.29882177,1.1448298 C2.29772718,0.841602357 2.41898783,0.550602227 2.63545816,0.336990858 C2.85066006,0.122156035 3.14279517,0.000972515059 3.44776104,3.3102506e-06 L13.3205603,3.3102506e-06 C13.6264188,-0.00209520722 13.920508,0.117105078 14.1376911,0.331230858 L20.3579034,6.5166228 C20.5729025,6.73280501 20.6925817,7.02513278 20.6905747,7.32914174 L20.6905747,21.714483 Z" id="路径" fill="#EBECF0"></path>
                            <path d="M20.6905572,21.714483 L20.6905572,22.8574815 C20.6916832,23.1606915 20.5704671,23.4516892 20.3540411,23.6653204 C20.1384641,23.879319 19.8463752,23.9996635 19.5417382,24 L3.44776104,24 C2.81234221,23.9992716 2.29761283,23.4869411 2.29761283,22.8552015 L2.29761283,21.713283 C2.29638375,22.0163611 2.41767781,22.3072252 2.63425117,22.5205219 C2.84982813,22.7345205 3.14191701,22.854865 3.44655405,22.8552015 L19.5393242,22.8552015 C20.1740365,22.8542759 20.6883032,22.34288 20.6891009,21.711843 L20.6905572,21.714483 Z" id="路径" fill="#C1C7D0"></path>
                            <path d="M0,12.5724149 L22.9882922,12.5724149 L22.9882922,18.2876475 C22.9873016,18.9183707 22.4741149,19.4298723 21.8397225,19.4324529 L1.1514665,19.4324529 C0.846503682,19.4335061 0.553836145,19.3130022 0.338922205,19.0978864 C0.122185984,18.8832843 0.000242792043,18.5917628 0,18.2876475 L0,12.5724149 Z" id="路径" fill="#FF8FC9"></path>
                            <g id="AMR" transform="translate(3.986349, 14.065078)" fill="#FFFFFF">
                                <path d="M3.0940893,3.58593749 L1.57356542,3.58593749 L1.36434605,4.29492186 L0,4.29492186 L1.6236602,0 L3.07935555,0 L4.70301574,4.29492186 L3.30625543,4.29492186 L3.0940893,3.58593749 Z M2.81414789,2.65722655 L2.33677411,1.11328125 L1.86234709,2.65722655 L2.81414789,2.65722655 Z" id="A"></path>
                                <polygon id="M" points="5.11556098 0 6.87182501 0 7.5495779 2.61328124 8.22438405 0 9.97475457 0 9.97475457 4.29492186 8.88445643 4.29492186 8.88445643 1.01953125 8.03873869 4.29492186 7.05157686 4.29492186 6.20880587 1.01953125 6.20880587 4.29492186 5.11556098 4.29492186"></polygon>
                                <path d="M10.8440463,4.29492186 L10.8440463,0 L13.0688439,0 C13.4813891,0 13.7966915,0.0351562499 14.0147512,0.10546875 C14.2328108,0.175781249 14.4086337,0.306152343 14.5422197,0.496582029 C14.6758058,0.687011716 14.7425988,0.918945309 14.7425988,1.19238281 C14.7425988,1.43066406 14.6915218,1.63623046 14.5893678,1.80908202 C14.4872137,1.98193359 14.3467519,2.1220703 14.1679823,2.22949218 C14.0540412,2.29785155 13.8978634,2.35449218 13.6994487,2.39941405 C13.8585733,2.45214843 13.9744789,2.5048828 14.0471654,2.55761718 C14.096278,2.59277343 14.1674911,2.66796874 14.2608049,2.78320312 C14.3541187,2.89843749 14.4164917,2.98730468 14.4479237,3.04980468 L15.0932623,4.29492186 L13.5845254,4.29492186 L12.8714115,2.98242186 C12.7810445,2.81249999 12.7004999,2.70214843 12.6297779,2.65136718 C12.5335173,2.58496093 12.4244875,2.5517578 12.3026884,2.5517578 L12.1848184,2.5517578 L12.1848184,4.29492186 L10.8440463,4.29492186 Z M12.1848184,1.74023437 L12.7476479,1.74023437 C12.8085475,1.74023437 12.9264175,1.72070312 13.1012581,1.68164062 C13.1896607,1.66406249 13.2618561,1.61914062 13.3178444,1.54687499 C13.3738327,1.47460937 13.4018268,1.39160156 13.4018268,1.29785156 C13.4018268,1.15917968 13.3576255,1.05273437 13.269223,0.978515621 C13.1808204,0.904296872 13.0148201,0.867187497 12.7712219,0.867187497 L12.1848184,0.867187497 L12.1848184,1.74023437 Z" id="R"></path>
                            </g>
                            <path d="M2.3000362,12.5721749 L2.3000362,10.2856979 L0,12.5721749 L2.3000362,12.5721749 Z M20.6905493,12.5721749 L20.7123958,10.2856979 L23,12.5721749 L20.6905493,12.5721749 Z" id="形状" fill="#995679"></path>
                            <path d="M20.6905493,7.32722174 L20.6905493,7.48802153 L14.4709404,7.48802153 C13.8350031,7.48802153 13.319474,6.97547776 13.319474,6.34322301 L13.319474,0 C13.6252857,-0.00221742145 13.9193775,0.11685435 14.1366048,0.330870858 L20.366473,6.5125428 C20.5771024,6.73164263 20.6930454,7.02404326 20.689463,7.32710174 L20.6905493,7.32722174 Z" id="路径" fill="#C1C7D0"></path>
                        </g>
                    </g>
                </g>
            </g>
        </g>
    </g>
</svg>