<svg xmlns="http://www.w3.org/2000/svg" fill="none" viewBox="0 0 100 100" class="design-iconfont">
  <path d="M11.4137 84.0467L81.9714 84.0467C86.5369 84.0467 90.2723 80.3113 90.2723 75.7458L90.2723 21.7899C90.2723 17.2244 86.5369 13.489 81.9714 13.489L44.8248 13.2814L31.9584 3.11285L11.2062 3.11285C6.64068 3.11285 2.90527 6.84826 2.90527 11.4137L2.90527 75.7458C3.1128 80.3113 6.64068 84.0467 11.4137 84.0467Z" fill="#FFF"/>
  <path d="M81.9715 86.1218L11.4137 86.1218C5.60309 86.1218 1.0376 81.5564 1.0376 75.7458L1.0376 11.4137C1.0376 5.6031 5.60309 1.0376 11.4137 1.0376L32.9961 1.0376L45.6549 11.2062L81.9715 11.4137C87.7821 11.4137 92.3475 15.9792 92.3475 21.7898L92.3475 75.7458C92.3475 81.3489 87.5746 86.1218 81.9715 86.1218ZM11.4137 5.18805C7.88585 5.18805 5.18806 7.88586 5.18806 11.4137L5.18806 75.7458C5.18806 79.2736 7.88585 81.9715 11.4137 81.9715L81.9715 81.9715C85.4993 81.9715 88.1971 79.2736 88.1971 75.7458L88.1971 21.7898C88.1971 18.2619 85.4993 15.5642 81.9715 15.5642L44.2023 15.3567L31.3358 5.18805L11.4137 5.18805Z" fill="#000"/>
  <path d="M19.7145 23.8651L73.6704 23.8651C78.2359 23.8651 81.9714 27.6005 81.9714 32.1661L81.9714 77.821L11.4136 77.821L11.4136 32.1661C11.4136 27.393 14.9415 23.8651 19.7145 23.8651Z" fill="#FFBF80"/>
  <path d="M84.0466 79.8962L9.33838 79.8962L9.33838 32.1661C9.33838 26.3554 13.9038 21.7899 19.7145 21.7899L73.6704 21.7899C79.4811 21.7899 84.0466 26.3554 84.0466 32.1661L84.0466 79.8962ZM13.4889 75.7458L79.8961 75.7458L79.8961 32.1661C79.8961 28.6381 77.1983 25.9404 73.6704 25.9404L19.7145 25.9404C16.1866 25.9404 13.4889 28.6381 13.4889 32.1661L13.4889 75.7458Z" fill="#000"/>
  <path d="M3.11279 34.2412L90.2723 34.2412L90.2723 84.0467C90.2723 88.6122 86.7444 92.3476 82.1789 92.3476L11.2062 92.3476C6.64068 92.3476 2.90527 88.6122 2.90527 84.0467L3.11279 34.2412Z" fill="#3A7FFF"/>
  <path d="M11.4137 94.2857C5.81062 94.2857 1.0376 89.8856 1.0376 84.2857L1.0376 34.2857L92.3476 34.2857L92.3476 84.2857C92.3476 86.8856 91.31 89.4857 89.4423 91.2857C87.5746 93.0857 84.8767 94.2857 82.179 94.2857L11.4137 94.2857ZM5.39558 38.2856L5.39558 84.2857C5.39558 87.6857 8.09337 90.2857 11.6213 90.2857L82.3865 90.2857C84.0467 90.2857 85.7069 89.6857 86.7444 88.4857C87.9896 87.2857 88.6121 85.8857 88.4047 84.2857L88.4047 38.2856L5.39558 38.2856Z" fill="#000"/>
  <path d="M33.3518 79.6757L29.2013 79.6757L29.2013 57.4708L21.1079 64.5266L18.4102 61.4137L31.2766 50L43.9354 61.4137L41.2377 64.5266L33.3518 57.4708L33.3518 79.6757Z" fill="#FFF"/>
  <path d="M54.7861 75.7458C54.7859 76.0889 54.794 76.4319 54.8107 76.7747C54.8273 77.1174 54.8524 77.4596 54.8857 77.8012C54.9191 78.1427 54.9609 78.4833 55.011 78.8228C55.0612 79.1623 55.1197 79.5003 55.1864 79.8369C55.2532 80.1736 55.3281 80.5083 55.4113 80.8413C55.4945 81.1742 55.5858 81.5049 55.6853 81.8333C55.7847 82.1618 55.8921 82.4876 56.0075 82.8107C56.123 83.134 56.2463 83.4541 56.3775 83.7712C56.5086 84.0883 56.6475 84.4021 56.794 84.7124C56.9406 85.0226 57.0947 85.3291 57.2564 85.6318C57.418 85.9346 57.5869 86.2332 57.7632 86.5276C57.9395 86.8221 58.1229 87.112 58.3135 87.3974C58.504 87.6828 58.7014 87.9633 58.9058 88.2391C59.1101 88.5148 59.321 88.7853 59.5387 89.0507C59.7562 89.3161 59.9802 89.5759 60.2106 89.8303C60.441 90.0846 60.6774 90.3333 60.92 90.576C61.1626 90.8187 61.411 91.0554 61.6651 91.2859C61.9193 91.5165 62.1791 91.7406 62.4443 91.9584C62.7095 92.1762 62.9799 92.3873 63.2555 92.5918C63.531 92.7963 63.8115 92.9939 64.0967 93.1846C64.382 93.3754 64.6718 93.559 64.9662 93.7355C65.2605 93.9121 65.5589 94.0812 65.8615 94.243C66.1641 94.4049 66.4706 94.5592 66.7808 94.7059C67.091 94.8527 67.4046 94.9919 67.7216 95.1232C68.0387 95.2546 68.3587 95.3781 68.6818 95.4938C69.0049 95.6095 69.3307 95.717 69.659 95.8167C69.9874 95.9165 70.318 96.008 70.6509 96.0914C70.9838 96.1747 71.3185 96.2499 71.6551 96.3169C71.9917 96.384 72.3297 96.4426 72.6691 96.493C73.0086 96.5434 73.3491 96.5854 73.6906 96.6191C74.0322 96.6527 74.3743 96.6779 74.717 96.6948C75.0598 96.7116 75.4028 96.7201 75.746 96.7201C76.0891 96.7201 76.4321 96.7116 76.7748 96.6948C77.1176 96.6779 77.4597 96.6527 77.8012 96.6191C78.1427 96.5854 78.4833 96.5434 78.8227 96.493C79.1621 96.4426 79.5001 96.384 79.8367 96.3169C80.1733 96.2499 80.508 96.1747 80.8409 96.0914C81.1738 96.008 81.5044 95.9165 81.8328 95.8167C82.1612 95.717 82.487 95.6095 82.8101 95.4938C83.1331 95.3781 83.4532 95.2546 83.7702 95.1232C84.0872 94.9918 84.4008 94.8527 84.711 94.7059C85.0213 94.5592 85.3277 94.4049 85.6303 94.243C85.9329 94.0812 86.2314 93.9121 86.5256 93.7355C86.82 93.559 87.1098 93.3754 87.3951 93.1846C87.6804 92.9939 87.9607 92.7963 88.2363 92.5918C88.5119 92.3873 88.7823 92.1762 89.0475 91.9584C89.3128 91.7406 89.5725 91.5165 89.8267 91.2859C90.0809 91.0554 90.3293 90.8187 90.5718 90.576C90.8144 90.3333 91.0509 90.0846 91.2813 89.8303C91.5116 89.5759 91.7356 89.3161 91.9533 89.0507C92.1709 88.7853 92.3818 88.5148 92.5861 88.2391C92.7904 87.9633 92.9878 87.6828 93.1784 87.3974C93.3689 87.112 93.5523 86.8221 93.7286 86.5276C93.9049 86.2332 94.0739 85.9346 94.2355 85.6318C94.3971 85.3291 94.5512 85.0226 94.6978 84.7124C94.8444 84.4021 94.9832 84.0883 95.1144 83.7712C95.2456 83.4541 95.3688 83.134 95.4843 82.8108C95.5998 82.4876 95.7071 82.1618 95.8066 81.8333C95.9061 81.5049 95.9973 81.1742 96.0805 80.8413C96.1637 80.5083 96.2387 80.1736 96.3054 79.8369C96.3722 79.5003 96.4307 79.1623 96.4808 78.8228C96.5309 78.4833 96.5727 78.1427 96.6061 77.8012C96.6395 77.4596 96.6645 77.1174 96.6812 76.7747C96.6978 76.4319 96.706 76.0889 96.7057 75.7458C96.7057 75.4027 96.6973 75.0599 96.6805 74.7173C96.6637 74.3747 96.6384 74.0327 96.6048 73.6914C96.5712 73.35 96.5291 73.0097 96.4788 72.6703C96.4285 72.331 96.3699 71.9932 96.303 71.6567C96.236 71.3203 96.1609 70.9857 96.0776 70.6529C95.9942 70.3203 95.9028 69.9898 95.8032 69.6615C95.7036 69.3332 95.5961 69.0076 95.4805 68.6846C95.3649 68.3617 95.2415 68.0417 95.1103 67.7248C94.979 67.4079 94.84 67.0944 94.6933 66.7844C94.5467 66.4742 94.3926 66.1679 94.2308 65.8654C94.0691 65.563 93.9 65.2646 93.7237 64.9704C93.5473 64.6761 93.3639 64.3864 93.1733 64.1012C92.9827 63.816 92.7854 63.5356 92.581 63.26C92.3766 62.9846 92.1657 62.7142 91.9481 62.449C91.7305 62.1839 91.5065 61.9242 91.2761 61.6701C91.0458 61.4159 90.8093 61.1676 90.5668 60.925C90.3242 60.6825 90.0758 60.446 89.8216 60.2156C89.5675 59.9852 89.3078 59.7613 89.0426 59.5437C88.7775 59.326 88.5071 59.1151 88.2317 58.9107C87.9561 58.7064 87.6757 58.5089 87.3905 58.3184C87.1053 58.1278 86.8156 57.9443 86.5214 57.768C86.2272 57.5916 85.9288 57.4226 85.6263 57.2609C85.3238 57.0992 85.0175 56.9451 84.7073 56.7984C84.3973 56.6517 84.0838 56.5128 83.7669 56.3814C83.45 56.2502 83.13 56.1268 82.8071 56.0112C82.4841 55.8956 82.1585 55.7881 81.8302 55.6885C81.502 55.589 81.1715 55.4975 80.8388 55.4141C80.506 55.3308 80.1714 55.2557 79.835 55.1887C79.4985 55.1218 79.1606 55.0632 78.8214 55.0129C78.482 54.9625 78.1417 54.9206 77.8003 54.887C77.459 54.8533 77.117 54.8281 76.7744 54.8113C76.4318 54.7944 76.089 54.786 75.746 54.786C75.4029 54.786 75.0601 54.7944 74.7175 54.8113C74.3748 54.8281 74.0328 54.8533 73.6915 54.887C73.3501 54.9206 73.0098 54.9625 72.6705 55.0129C72.3312 55.0632 71.9933 55.1218 71.6569 55.1887C71.3204 55.2557 70.9858 55.3308 70.6531 55.4141C70.3204 55.4975 69.9899 55.589 69.6616 55.6885C69.3333 55.7881 69.0077 55.8956 68.6848 56.0112C68.3618 56.1268 68.0419 56.2502 67.7249 56.3814C67.408 56.5128 67.0945 56.6517 66.7845 56.7984C66.4744 56.9451 66.168 57.0992 65.8655 57.2609C65.563 57.4226 65.2646 57.5916 64.9705 57.768C64.6762 57.9443 64.3865 58.1278 64.1013 58.3184C63.8161 58.5089 63.5357 58.7064 63.2602 58.9107C62.9847 59.1151 62.7144 59.326 62.4492 59.5437C62.184 59.7613 61.9243 59.9852 61.6702 60.2156C61.416 60.446 61.1677 60.6825 60.9252 60.925C60.6825 61.1676 60.4461 61.4159 60.2157 61.6701C59.9854 61.9242 59.7614 62.1839 59.5438 62.449C59.3262 62.7142 59.1152 62.9846 58.9108 63.26C58.7065 63.5356 58.5091 63.816 58.3185 64.1012C58.1279 64.3864 57.9445 64.6761 57.7681 64.9704C57.5917 65.2645 57.4227 65.5629 57.261 65.8654C57.0994 66.1679 56.9452 66.4742 56.7985 66.7844C56.6518 67.0944 56.5128 67.4079 56.3816 67.7248C56.2503 68.0417 56.1269 68.3617 56.0113 68.6846C55.8958 69.0076 55.7882 69.3332 55.6887 69.6615C55.5891 69.9898 55.4976 70.3203 55.4142 70.6529C55.3309 70.9857 55.2558 71.3203 55.1889 71.6567C55.1219 71.9932 55.0633 72.331 55.013 72.6703C54.9627 73.0097 54.9207 73.35 54.8871 73.6914C54.8535 74.0327 54.8282 74.3747 54.8114 74.7173C54.7946 75.0599 54.7861 75.4027 54.7861 75.7458Z" fill="#FFF"/>
  <path d="M75.746 98.573C63.087 98.573 52.7109 88.1972 52.7109 75.5383C52.7109 62.8794 63.087 52.5032 75.746 52.5032C88.4048 52.5032 98.7813 62.8794 98.7813 75.5383C98.7813 88.1972 88.4048 98.573 75.746 98.573ZM75.746 56.8612C65.3698 56.8612 56.8613 65.3697 56.8613 75.7458C56.8613 86.1219 65.3698 94.6304 75.746 94.6304C86.122 94.6304 94.6305 86.1219 94.6305 75.7458C94.6305 65.3697 86.122 56.8612 75.746 56.8612Z" fill="#000"/>
  <path d="M72.8404 85.2919L65.7847 78.4436L68.6899 75.5383L72.8404 79.4813L82.594 69.9352L85.4993 73.048L72.8404 85.2919Z" fill="#3A7FFF"/>
</svg>
