<?xml version="1.0" encoding="UTF-8"?>
<svg width="41px" height="42px" viewBox="0 0 41 42" version="1.1" xmlns="http://www.w3.org/2000/svg" xmlns:xlink="http://www.w3.org/1999/xlink">
    <title>mov</title>
    <g id="产品管理" stroke="none" stroke-width="1" fill="none" fill-rule="evenodd">
        <g id="上传文件状态" transform="translate(-947.000000, -1178.000000)" fill-rule="nonzero">
            <g id="编组-4" transform="translate(368.000000, 1107.000000)">
                <g id="编组-3" transform="translate(165.000000, 71.000000)">
                    <g id="png备份-6" transform="translate(414.000000, 0.000000)">
                        <path d="M36.8698846,38.01 C36.8698846,38.535 36.6547744,39.039 36.2675761,39.417 C35.8803778,39.795 35.3641133,40.005 34.8263379,40.005 L6.1521511,40.005 C5.61437566,40.005 5.07660021,39.795 4.71091291,39.417 C4.32371459,39.039 4.10860441,38.535 4.10860441,38.01 L4.10860441,1.995 C4.10860441,1.47 4.32371459,0.945 4.71091291,0.588 C5.07660021,0.21 5.61437566,0 6.1521511,0 L23.7481637,0 C24.2859391,0 24.8237146,0.21 25.2109129,0.588 L36.2890871,11.403 C36.6762854,11.781 36.8913956,12.285 36.8913956,12.831 L36.8913956,38.01 L36.8698846,38.01 Z" id="路径" fill="#EBECF0"></path>
                        <path d="M36.8698846,38.01 L36.8698846,40.005 C36.8698846,40.53 36.6547744,41.055 36.2675761,41.412 C35.8803778,41.79 35.3641133,42 34.8263379,42 L6.1521511,42 C5.01206716,42 4.10860441,41.097 4.10860441,40.005 L4.10860441,38.01 C4.10860441,38.535 4.32371459,39.039 4.71091291,39.417 C5.09811123,39.795 5.61437566,40.005 6.1521511,40.005 L34.8263379,40.005 C35.9664218,40.005 36.8698846,39.102 36.8698846,38.01 Z" id="路径" fill="#C1C7D0"></path>
                        <path d="M0,22.008 L40.978489,22.008 L40.978489,32.004 C40.978489,33.117 40.0535152,33.999 38.9349423,33.999 L2.06505771,33.999 C1.52728227,33.999 0.989506821,33.789 0.623819517,33.411 C0.236621196,33.033 0.0215110178,32.529 0.0215110178,31.983 L0.0215110178,22.008 L0,22.008 Z" id="路径" fill="#0092D3"></path>
                        <g id="MOV" transform="translate(7.098636, 24.150000)" fill="#FFFFFF">
                            <polygon id="M" points="0 0.128173828 3.13002115 0.128173828 4.33791522 4.70141602 5.54055757 0.128173828 8.6600753 0.128173828 8.6600753 7.64428711 6.71694136 7.64428711 6.71694136 1.91235352 5.20969963 7.64428711 3.45037566 7.64428711 1.94838565 1.91235352 1.94838565 7.64428711 0 7.64428711"></polygon>
                            <path d="M9.87847279,3.89135742 C9.87847279,2.66430664 10.228587,1.70898438 10.9288155,1.02539062 C11.6290439,0.341796875 12.604112,0 13.8540198,0 C15.1354378,0 16.12276,0.33581543 16.8159861,1.00744629 C17.5092123,1.67907715 17.8558254,2.61987305 17.8558254,3.82983398 C17.8558254,4.70825195 17.704401,5.42858887 17.4015522,5.99084473 C17.0987033,6.55310059 16.6610606,6.99060059 16.0886238,7.30334473 C15.5161871,7.61608887 14.8028293,7.77246094 13.9485506,7.77246094 C13.0802674,7.77246094 12.3616579,7.63745117 11.7927223,7.36743164 C11.2237867,7.09741211 10.7625112,6.67016602 10.4088958,6.08569336 C10.0552805,5.5012207 9.87847279,4.76977539 9.87847279,3.89135742 Z M12.2574989,3.90161133 C12.2574989,4.66040039 12.4019211,5.20556641 12.6907653,5.53710938 C12.9796095,5.86865234 13.3726127,6.03442383 13.8697749,6.03442383 C14.3809417,6.03442383 14.7765708,5.87207031 15.0566621,5.54736328 C15.3367535,5.22265625 15.4767992,4.63989258 15.4767992,3.79907227 C15.4767992,3.09155273 15.3306265,2.57458496 15.0382811,2.24816895 C14.7459358,1.92175293 14.3494314,1.75854492 13.8487681,1.75854492 C13.3691116,1.75854492 12.9839859,1.92431641 12.6933911,2.25585938 C12.4027963,2.58740234 12.2574989,3.13598633 12.2574989,3.90161133 Z" id="O"></path>
                            <polygon id="V" points="18.375745 0.128173828 20.8650571 0.128173828 22.5981225 5.53710938 24.3049293 0.128173828 26.7207175 0.128173828 23.8637854 7.64428711 21.2851942 7.64428711"></polygon>
                        </g>
                        <path d="M4.10860441,22.008 L4.10860441,17.997 L0,22.008 L4.10860441,22.008 Z M36.8698846,22.008 L36.9129066,17.997 L41,22.008 L36.8698846,22.008 Z" id="形状" fill="#007199"></path>
                        <path d="M36.8698846,12.831 L36.8698846,13.104 L25.7917104,13.104 C24.6516264,13.104 23.7481637,12.201 23.7481637,11.109 L23.7481637,0 C24.2859391,0 24.8237146,0.21 25.2109129,0.588 L36.3105981,11.403 C36.6762854,11.781 36.8913956,12.285 36.8698846,12.831 L36.8698846,12.831 Z" id="路径" fill="#C1C7D0"></path>
                    </g>
                </g>
            </g>
        </g>
    </g>
</svg>