<?xml version="1.0" encoding="UTF-8"?>
<svg width="41px" height="42px" viewBox="0 0 41 42" version="1.1" xmlns="http://www.w3.org/2000/svg" xmlns:xlink="http://www.w3.org/1999/xlink">
    <title>mp3</title>
    <g id="产品管理" stroke="none" stroke-width="1" fill="none" fill-rule="evenodd">
        <g id="上传文件状态" transform="translate(-533.000000, -1242.000000)" fill-rule="nonzero">
            <g id="编组-4" transform="translate(368.000000, 1107.000000)">
                <g id="编组-3" transform="translate(165.000000, 71.000000)">
                    <g id="png备份-7" transform="translate(0.000000, 64.000000)">
                        <path d="M36.8698846,38.01 C36.8698846,38.535 36.6547744,39.039 36.2675761,39.417 C35.8803778,39.795 35.3641133,40.005 34.8263379,40.005 L6.1521511,40.005 C5.61437566,40.005 5.07660021,39.795 4.71091291,39.417 C4.32371459,39.039 4.10860441,38.535 4.10860441,38.01 L4.10860441,1.995 C4.10860441,1.47 4.32371459,0.945 4.71091291,0.588 C5.07660021,0.21 5.61437566,0 6.1521511,0 L23.7481637,0 C24.2859391,0 24.8237146,0.21 25.2109129,0.588 L36.2890871,11.403 C36.6762854,11.781 36.8913956,12.285 36.8913956,12.831 L36.8913956,38.01 L36.8698846,38.01 Z" id="路径" fill="#EBECF0"></path>
                        <path d="M36.8698846,38.01 L36.8698846,40.005 C36.8698846,40.53 36.6547744,41.055 36.2675761,41.412 C35.8803778,41.79 35.3641133,42 34.8263379,42 L6.1521511,42 C5.01206716,42 4.10860441,41.097 4.10860441,40.005 L4.10860441,38.01 C4.10860441,38.535 4.32371459,39.039 4.71091291,39.417 C5.09811123,39.795 5.61437566,40.005 6.1521511,40.005 L34.8263379,40.005 C35.9664218,40.005 36.8698846,39.102 36.8698846,38.01 Z" id="路径" fill="#C1C7D0"></path>
                        <path d="M0,22.008 L40.978489,22.008 L40.978489,32.004 C40.978489,33.117 40.0535152,33.999 38.9349423,33.999 L2.06505771,33.999 C1.52728227,33.999 0.989506821,33.789 0.623819517,33.411 C0.236621196,33.033 0.0215110178,32.529 0.0215110178,31.983 L0.0215110178,22.008 L0,22.008 Z" id="路径" fill="#F0BA43"></path>
                        <g id="MP3" transform="translate(8.604407, 24.150000)" fill="#FFFFFF">
                            <polygon id="M" points="0 0.128173828 3.13002115 0.128173828 4.33791522 4.70141602 5.54055757 0.128173828 8.6600753 0.128173828 8.6600753 7.64428711 6.71694136 7.64428711 6.71694136 1.91235352 5.20969963 7.64428711 3.45037566 7.64428711 1.94838565 1.91235352 1.94838565 7.64428711 0 7.64428711"></polygon>
                            <path d="M10.167317,0.128173828 L14.1218572,0.128173828 C14.9831382,0.128173828 15.6282236,0.328125 16.0571135,0.728027344 C16.4860035,1.12792969 16.7004484,1.69702148 16.7004484,2.43530273 C16.7004484,3.1940918 16.4667472,3.78710938 15.9993447,4.21435547 C15.5319422,4.64160156 14.8185845,4.85522461 13.8592715,4.85522461 L12.5568466,4.85522461 L12.5568466,7.64428711 L10.167317,7.64428711 L10.167317,0.128173828 Z M12.5568466,3.33251953 L13.1397868,3.33251953 C13.5984364,3.33251953 13.9205415,3.25476074 14.106102,3.09924316 C14.2916626,2.94372559 14.3844428,2.74462891 14.3844428,2.50195312 C14.3844428,2.26611328 14.3039166,2.06616211 14.142864,1.90209961 C13.9818115,1.73803711 13.6789627,1.65600586 13.2343176,1.65600586 L12.5568466,1.65600586 L12.5568466,3.33251953 Z" id="P"></path>
                            <path d="M19.6729182,2.30200195 L17.6510085,1.94824219 C17.8190634,1.31933594 18.1420437,0.837402344 18.6199496,0.502441406 C19.0978556,0.167480469 19.7744513,0 20.6497369,0 C21.6545647,0 22.3810517,0.182861328 22.8291979,0.548583984 C23.2773441,0.914306641 23.5014172,1.37402344 23.5014172,1.92773438 C23.5014172,2.25244141 23.4103875,2.54638672 23.2283281,2.80957031 C23.0462687,3.07275391 22.771429,3.3034668 22.4038091,3.50170898 C22.7014062,3.57348633 22.9289804,3.65722656 23.0865318,3.75292969 C23.3421152,3.90673828 23.540805,4.10925293 23.6826013,4.36047363 C23.8243976,4.61169434 23.8952957,4.91162109 23.8952957,5.26025391 C23.8952957,5.69775391 23.7780074,6.11730957 23.5434309,6.5189209 C23.3088544,6.92053223 22.9709941,7.2298584 22.5298502,7.44689941 C22.0887063,7.66394043 21.5092673,7.77246094 20.7915331,7.77246094 C20.0913047,7.77246094 19.5389995,7.69213867 19.1346176,7.53149414 C18.7302356,7.37084961 18.3976271,7.13586426 18.136792,6.82653809 C17.8759569,6.51721191 17.6755165,6.12841797 17.5354708,5.66015625 L19.6729182,5.38330078 C19.7569456,5.80371094 19.8873631,6.09509277 20.0641708,6.25744629 C20.2409785,6.4197998 20.4659269,6.50097656 20.739016,6.50097656 C21.0261096,6.50097656 21.2650626,6.3984375 21.4558748,6.19335938 C21.6466871,5.98828125 21.7420932,5.71484375 21.7420932,5.37304688 C21.7420932,5.02441406 21.6501882,4.75439453 21.4663783,4.56298828 C21.2825683,4.37158203 21.0331119,4.27587891 20.7180091,4.27587891 C20.5499543,4.27587891 20.3188789,4.31689453 20.024783,4.39892578 L20.1350689,2.90698242 C20.2541078,2.92407227 20.346888,2.93261719 20.4134098,2.93261719 C20.6935011,2.93261719 20.9272024,2.84545898 21.1145135,2.67114258 C21.3018246,2.49682617 21.3954801,2.29003906 21.3954801,2.05078125 C21.3954801,1.82177734 21.3254573,1.63891602 21.1854116,1.50219727 C21.0453659,1.36547852 20.8528031,1.29711914 20.6077231,1.29711914 C20.3556409,1.29711914 20.1508241,1.37145996 19.9932727,1.5201416 C19.8357213,1.66882324 19.7289364,1.92944336 19.6729182,2.30200195 Z" id="3"></path>
                        </g>
                        <path d="M4.10860441,22.008 L4.10860441,17.997 L0,22.008 L4.10860441,22.008 Z M36.8698846,22.008 L36.9129066,17.997 L41,22.008 L36.8698846,22.008 Z" id="形状" fill="#906F28"></path>
                        <path d="M36.8698846,12.831 L36.8698846,13.104 L25.7917104,13.104 C24.6516264,13.104 23.7481637,12.201 23.7481637,11.109 L23.7481637,0 C24.2859391,0 24.8237146,0.21 25.2109129,0.588 L36.3105981,11.403 C36.6762854,11.781 36.8913956,12.285 36.8698846,12.831 L36.8698846,12.831 Z" id="路径" fill="#C1C7D0"></path>
                    </g>
                </g>
            </g>
        </g>
    </g>
</svg>