<?xml version="1.0" encoding="UTF-8"?>
<svg width="41px" height="42px" viewBox="0 0 41 42" version="1.1" xmlns="http://www.w3.org/2000/svg" xmlns:xlink="http://www.w3.org/1999/xlink">
    <title>mp4</title>
    <g id="产品管理" stroke="none" stroke-width="1" fill="none" fill-rule="evenodd">
        <g id="上传文件状态" transform="translate(-947.000000, -1306.000000)" fill-rule="nonzero">
            <g id="编组-4" transform="translate(368.000000, 1107.000000)">
                <g id="编组-3" transform="translate(165.000000, 71.000000)">
                    <g id="png备份-14" transform="translate(414.000000, 128.000000)">
                        <path d="M36.8698846,38.01 C36.8698846,38.535 36.6547744,39.039 36.2675761,39.417 C35.8803778,39.795 35.3641133,40.005 34.8263379,40.005 L6.1521511,40.005 C5.61437566,40.005 5.07660021,39.795 4.71091291,39.417 C4.32371459,39.039 4.10860441,38.535 4.10860441,38.01 L4.10860441,1.995 C4.10860441,1.47 4.32371459,0.945 4.71091291,0.588 C5.07660021,0.21 5.61437566,0 6.1521511,0 L23.7481637,0 C24.2859391,0 24.8237146,0.21 25.2109129,0.588 L36.2890871,11.403 C36.6762854,11.781 36.8913956,12.285 36.8913956,12.831 L36.8913956,38.01 L36.8698846,38.01 Z" id="路径" fill="#EBECF0"></path>
                        <path d="M36.8698846,38.01 L36.8698846,40.005 C36.8698846,40.53 36.6547744,41.055 36.2675761,41.412 C35.8803778,41.79 35.3641133,42 34.8263379,42 L6.1521511,42 C5.01206716,42 4.10860441,41.097 4.10860441,40.005 L4.10860441,38.01 C4.10860441,38.535 4.32371459,39.039 4.71091291,39.417 C5.09811123,39.795 5.61437566,40.005 6.1521511,40.005 L34.8263379,40.005 C35.9664218,40.005 36.8698846,39.102 36.8698846,38.01 Z" id="路径" fill="#C1C7D0"></path>
                        <path d="M0,22.008 L40.978489,22.008 L40.978489,32.004 C40.978489,33.117 40.0535152,33.999 38.9349423,33.999 L2.06505771,33.999 C1.52728227,33.999 0.989506821,33.789 0.623819517,33.411 C0.236621196,33.033 0.0215110178,32.529 0.0215110178,31.983 L0.0215110178,22.008 L0,22.008 Z" id="路径" fill="#0092D3"></path>
                        <path d="M4.10860441,22.008 L4.10860441,17.997 L0,22.008 L4.10860441,22.008 Z M36.8698846,22.008 L36.9129066,17.997 L41,22.008 L36.8698846,22.008 Z" id="形状" fill="#007199"></path>
                        <path d="M36.8698846,12.831 L36.8698846,13.104 L25.7917104,13.104 C24.6516264,13.104 23.7481637,12.201 23.7481637,11.109 L23.7481637,0 C24.2859391,0 24.8237146,0.21 25.2109129,0.588 L36.3105981,11.403 C36.6762854,11.781 36.8913956,12.285 36.8698846,12.831 L36.8698846,12.831 Z" id="路径" fill="#C1C7D0"></path>
                        <g id="MP4" transform="translate(8.389297, 24.150000)" fill="#FFFFFF">
                            <polygon id="M" points="0 0.128173828 3.13002115 0.128173828 4.33791522 4.70141602 5.54055757 0.128173828 8.6600753 0.128173828 8.6600753 7.64428711 6.71694136 7.64428711 6.71694136 1.91235352 5.20969963 7.64428711 3.45037566 7.64428711 1.94838565 1.91235352 1.94838565 7.64428711 0 7.64428711"></polygon>
                            <path d="M10.167317,0.128173828 L14.1218572,0.128173828 C14.9831382,0.128173828 15.6282236,0.328125 16.0571135,0.728027344 C16.4860035,1.12792969 16.7004484,1.69702148 16.7004484,2.43530273 C16.7004484,3.1940918 16.4667472,3.78710938 15.9993447,4.21435547 C15.5319422,4.64160156 14.8185845,4.85522461 13.8592715,4.85522461 L12.5568466,4.85522461 L12.5568466,7.64428711 L10.167317,7.64428711 L10.167317,0.128173828 Z M12.5568466,3.33251953 L13.1397868,3.33251953 C13.5984364,3.33251953 13.9205415,3.25476074 14.106102,3.09924316 C14.2916626,2.94372559 14.3844428,2.74462891 14.3844428,2.50195312 C14.3844428,2.26611328 14.3039166,2.06616211 14.142864,1.90209961 C13.9818115,1.73803711 13.6789627,1.65600586 13.2343176,1.65600586 L12.5568466,1.65600586 L12.5568466,3.33251953 Z" id="P"></path>
                            <path d="M21.2746907,6.23950195 L17.3779194,6.23950195 L17.3779194,4.52197266 L21.2746907,0 L23.139049,0 L23.139049,4.61938477 L24.1053642,4.61938477 L24.1053642,6.23950195 L23.139049,6.23950195 L23.139049,7.64428711 L21.2746907,7.64428711 L21.2746907,6.23950195 Z M21.2746907,4.61938477 L21.2746907,2.25585938 L19.2160191,4.61938477 L21.2746907,4.61938477 Z" id="4"></path>
                        </g>
                    </g>
                </g>
            </g>
        </g>
    </g>
</svg>