<?xml version="1.0" encoding="UTF-8"?>
<svg width="41px" height="42px" viewBox="0 0 41 42" version="1.1" xmlns="http://www.w3.org/2000/svg" xmlns:xlink="http://www.w3.org/1999/xlink">
    <title>mpeg</title>
    <g id="产品管理" stroke="none" stroke-width="1" fill="none" fill-rule="evenodd">
        <g id="上传文件状态" transform="translate(-602.000000, -1242.000000)" fill-rule="nonzero">
            <g id="编组-4" transform="translate(368.000000, 1107.000000)">
                <g id="编组-3" transform="translate(165.000000, 71.000000)">
                    <g id="png备份-8" transform="translate(69.000000, 64.000000)">
                        <path d="M36.8831985,38.0003452 C36.8851757,38.5306549 36.6690724,39.0395752 36.2832906,39.4130134 C35.8990012,39.7875109 35.378321,39.9981137 34.8352724,39.9987204 L6.14600881,39.9987204 C5.60238309,40.0009557 5.08062827,39.7899182 4.69799064,39.4130134 C4.31445069,39.0380929 4.09868698,38.5301545 4.09789968,38.0003452 L4.09789968,2.00345215 C4.09594846,1.47280412 4.31210873,0.963553897 4.69799064,0.589734002 C5.08161141,0.213773061 5.60237399,0.00170190135 6.14600881,5.79293855e-06 L23.7453466,5.79293855e-06 C24.2905726,-0.00366661263 24.8148186,0.204933886 25.2019711,0.579654002 L36.2901757,11.4040899 C36.6734348,11.7824088 36.886776,12.2939824 36.8831985,12.825998 L36.8831985,38.0003452 Z" id="路径" fill="#EBECF0"></path>
                        <path d="M36.8831671,38.0003452 L36.8831671,40.0005926 C36.8851744,40.5312102 36.6690935,41.0404561 36.2832906,41.4143108 C35.8990012,41.7888083 35.378321,41.9994111 34.8352724,42 L6.14600881,42 C5.01330567,41.9987253 4.09574462,41.1021469 4.09574462,39.9966026 L4.09574462,37.9982452 C4.09355364,38.5286319 4.30977349,39.0376441 4.69583905,39.4109134 C5.08012841,39.7854109 5.60080858,39.9960137 6.14385722,39.9966026 L34.8309692,39.9966026 C35.962413,39.9949828 36.8791491,39.10004 36.8805712,37.9957252 L36.8831671,38.0003452 Z" id="路径" fill="#C1C7D0"></path>
                        <path d="M0,22.0017261 L40.9791296,22.0017261 L40.9791296,32.003383 C40.9773637,33.1071487 40.0625527,34.0022766 38.9316792,34.0067925 L2.0526142,34.0067925 C1.50898483,34.0086356 0.987273129,33.7977539 0.604165669,33.4213012 C0.217809797,33.0457475 0.000432803208,32.5355848 0,32.003383 L0,22.0017261 Z" id="路径" fill="#6AE5B9"></path>
                        <g id="MPEG" transform="translate(3.872862, 24.150000)" fill="#FFFFFF">
                            <polygon id="M" points="0 0.128173828 3.13073152 0.128173828 4.33889973 4.701416 5.54181503 0.128173828 8.66204074 0.128173828 8.66204074 7.64428708 6.7184658 7.64428708 6.7184658 1.91235351 5.210882 7.64428708 3.45115874 7.64428708 1.94882784 1.91235351 1.94882784 7.64428708 0 7.64428708"></polygon>
                            <path d="M10.1696245,0.128173828 L14.1250622,0.128173828 C14.9865386,0.128173828 15.6317705,0.328124999 16.0607578,0.728027341 C16.489745,1.12792968 16.7042387,1.69702148 16.7042387,2.43530273 C16.7042387,3.19409179 16.4704844,3.78710936 16.0029758,4.21435545 C15.5354672,4.64160155 14.8219476,4.85522459 13.8624169,4.85522459 L12.5596964,4.85522459 L12.5596964,7.64428708 L10.1696245,7.64428708 L10.1696245,0.128173828 Z M12.5596964,3.33251952 L13.1427689,3.33251952 C13.6015226,3.33251952 13.9237008,3.25476073 14.1093035,3.09924315 C14.2949061,2.94372558 14.3877074,2.7446289 14.3877074,2.50195312 C14.3877074,2.26611327 14.3071629,2.0661621 14.1460738,1.9020996 C13.9849847,1.7380371 13.6820672,1.65600585 13.2373212,1.65600585 L12.5596964,1.65600585 L12.5596964,3.33251952 Z" id="P"></path>
                            <polygon id="E" points="17.9439243 0.128173828 24.3209513 0.128173828 24.3209513 1.73291015 20.3287433 1.73291015 20.3287433 2.92749022 24.0320415 2.92749022 24.0320415 4.4604492 20.3287433 4.4604492 20.3287433 5.94213865 24.4365152 5.94213865 24.4365152 7.64428708 17.9439243 7.64428708"></polygon>
                            <path d="M29.5896152,4.92187498 L29.5896152,3.35815428 L33.2666489,3.35815428 L33.2666489,6.56249998 C32.5627596,7.03076169 31.9402903,7.34948728 31.3992411,7.51867673 C30.8581918,7.68786618 30.2164619,7.77246091 29.4740513,7.77246091 C28.5600458,7.77246091 27.8150087,7.6203613 27.2389401,7.31616208 C26.6628715,7.01196287 26.2163746,6.55908201 25.8994493,5.95751951 C25.582524,5.35595701 25.4240614,4.66552733 25.4240614,3.88623045 C25.4240614,3.06591796 25.5974072,2.35241698 25.944099,1.74572753 C26.2907907,1.13903808 26.7985716,0.678466794 27.4674415,0.364013671 C27.9892301,0.12133789 28.6913684,0 29.5738565,0 C30.4248271,0 31.0613042,0.0751953122 31.4832875,0.225585937 C31.9052709,0.375976561 32.2554646,0.609252928 32.5338686,0.925415036 C32.8122726,1.24157714 33.0215133,1.64233398 33.1615908,2.12768554 L30.8660712,2.52758788 C30.7715189,2.24389648 30.6113053,2.02685546 30.3854303,1.87646484 C30.1595554,1.72607421 29.8715211,1.6508789 29.5213274,1.6508789 C28.9995388,1.6508789 28.5836839,1.82775878 28.2737624,2.18151855 C27.963841,2.53527831 27.8088803,3.09497069 27.8088803,3.86059569 C27.8088803,4.67407225 27.965592,5.25512693 28.2790153,5.60375975 C28.5924387,5.95239256 29.0293053,6.12670896 29.5896152,6.12670896 C29.8557624,6.12670896 30.1096528,6.08911131 30.3512865,6.01391599 C30.5929201,5.93872068 30.8695731,5.81054685 31.1812455,5.62939451 L31.1812455,4.92187498 L29.5896152,4.92187498 Z" id="G"></path>
                        </g>
                        <path d="M4.10006454,22.0013061 L4.10006454,17.9999713 L0,22.0013061 L4.10006454,22.0013061 Z M36.8831531,22.0013061 L36.9220968,17.9999713 L41,22.0013061 L36.8831531,22.0013061 Z" id="形状" fill="#3F896F"></path>
                        <path d="M36.8831531,12.822638 L36.8831531,13.1040377 L25.7960243,13.1040377 C24.6623968,13.1040377 23.7434101,12.2070861 23.7434101,11.1006403 L23.7434101,0 C24.2885527,-0.00388048753 24.8128033,0.204495112 25.2000347,0.579024002 L36.3054519,11.3969499 C36.6809216,11.7803746 36.8876027,12.2920757 36.8812166,12.822428 L36.8831531,12.822638 Z" id="路径" fill="#C1C7D0"></path>
                    </g>
                </g>
            </g>
        </g>
    </g>
</svg>