<?xml version="1.0" encoding="UTF-8"?>
<svg width="14px" height="14px" viewBox="0 0 14 14" version="1.1" xmlns="http://www.w3.org/2000/svg" xmlns:xlink="http://www.w3.org/1999/xlink">
    <g id="运营直播间" stroke="none" stroke-width="1" fill="none" fill-rule="evenodd">
        <g id="右键" transform="translate(-1013.000000, -359.000000)">
            <g id="编组-6" transform="translate(339.000000, 340.000000)">
                <g id="右键功能备份-3" transform="translate(654.000000, 0.000000)">
                    <g id="编组" transform="translate(10.000000, 10.000000)">
                        <g id="编组-27" transform="translate(10.000000, 9.000000)">
                            <rect id="矩形" x="0" y="0" width="14" height="14"></rect>
                            <g id="复制-(1)" transform="translate(1.312500, 0.875000)" fill="#333333" fill-rule="nonzero">
                                <path d="M8.53125,1.75 C9.1345625,1.75 9.625,2.240875 9.625,2.84375 L9.625,2.84375 L9.625,11.15625 C9.625,11.7595625 9.1345625,12.25 8.53125,12.25 L8.53125,12.25 L1.09375,12.25 C0.490875,12.25 0,11.7595625 0,11.15625 L0,11.15625 L0,2.84375 C0.000723212948,2.23998837 0.489988373,1.75072321 1.09375,1.75 L1.09375,1.75 Z M8.53125,2.625 L1.09375,2.625 C0.972937711,2.625 0.875,2.72293771 0.875,2.84375 L0.875,2.84375 L0.875,11.15625 C0.875,11.2770623 0.972937711,11.375 1.09375,11.375 L1.09375,11.375 L8.53125,11.375 C8.6515625,11.375 8.75,11.2765625 8.75,11.15625 L8.75,11.15625 L8.75,2.84375 C8.75,2.72293771 8.65206229,2.625 8.53125,2.625 L8.53125,2.625 Z M10.3079268,0 C10.8965244,0 11.375,0.479966667 11.375,1.06944444 L11.375,1.06944444 L11.375,9.19722222 C11.375,9.43347737 11.183902,9.625 10.9481707,9.625 C10.7124394,9.625 10.5213415,9.43347737 10.5213415,9.19722222 L10.5213415,9.19722222 L10.5213415,1.06944444 C10.5213415,0.951316873 10.4257925,0.855555556 10.3079268,0.855555556 L10.3079268,0.855555556 L3.05182927,0.855555556 C2.81609797,0.855555556 2.625,0.664032921 2.625,0.427777778 C2.625,0.191522635 2.81609797,0 3.05182927,0 L3.05182927,0 Z M5.6875,8.74692674 C5.92912458,8.74692674 6.125,8.94349014 6.125,9.18596337 C6.125,9.42843661 5.92912458,9.625 5.6875,9.625 L5.6875,9.625 L3.0625,9.625 C2.82087542,9.625 2.625,9.42843661 2.625,9.18596337 C2.625,8.94349014 2.82087542,8.74692674 3.0625,8.74692674 L3.0625,8.74692674 Z M7.4375,6.57018314 C7.67912458,6.57018314 7.875,6.76674653 7.875,7.00921977 C7.875,7.251693 7.67912458,7.4482564 7.4375,7.4482564 L7.4375,7.4482564 L3.0625,7.4482564 C2.82087542,7.4482564 2.625,7.251693 2.625,7.00921977 C2.625,6.76674653 2.82087542,6.57018314 3.0625,6.57018314 L3.0625,6.57018314 Z M7.4375,4.375 C7.67912458,4.375 7.875,4.57156339 7.875,4.81403663 C7.875,5.05650986 7.67912458,5.25307326 7.4375,5.25307326 L7.4375,5.25307326 L3.0625,5.25307326 C2.82087542,5.25307326 2.625,5.05650986 2.625,4.81403663 C2.625,4.57156339 2.82087542,4.375 3.0625,4.375 L3.0625,4.375 Z" id="形状结合"></path>
                            </g>
                        </g>
                    </g>
                </g>
            </g>
        </g>
    </g>
</svg>