<?xml version="1.0" encoding="UTF-8"?>
<svg width="16px" height="16px" viewBox="0 0 16 16" version="1.1" xmlns="http://www.w3.org/2000/svg" xmlns:xlink="http://www.w3.org/1999/xlink">
    <title>矩形备份 4</title>
    <g id="权限管理" stroke="none" stroke-width="1" fill="none" fill-rule="evenodd">
        <g id="图标" transform="translate(-116.000000, -444.000000)">
            <rect x="0" y="0" width="742" height="1080"></rect>
            <g id="编组-7" transform="translate(116.000000, 444.000000)">
                <rect id="矩形备份-4" x="0" y="0" width="16" height="16"></rect>
                <g id="编组-5" transform="translate(2.400000, 1.600000)" fill="currentColor" fill-rule="nonzero">
                    <g id="编组">
                        <path d="M3.52029896,11.2524546 C3.1224053,11.2524546 2.74571089,11.0959062 2.46033633,10.8121624 C2.17659249,10.5284185 2.02004417,10.1517241 2.02004417,9.75219976 L2.02004417,7.54747749 L2.34781722,7.87525055 C2.5255648,8.05299813 2.81583149,8.05299813 2.99357907,7.87525055 C3.17132665,7.69750297 3.17132665,7.40723628 2.99357907,7.2294887 L1.90915577,6.1450654 C1.71836249,5.95427213 1.40852726,5.95427213 1.21773399,6.1450654 L0.133310685,7.2294887 C-0.0444368949,7.40723628 -0.0444368949,7.69750297 0.133310685,7.87525055 C0.311058264,8.05299813 0.601324953,8.05299813 0.779072533,7.87525055 L1.10684559,7.54747749 L1.10684559,9.75219976 C1.10684559,11.0844913 2.18800747,12.1656531 3.52029896,12.1656531 L9.7703125,12.1656531 C10.0230728,12.1656531 10.2269118,11.9618142 10.2269118,11.7090538 C10.2269118,11.4579242 10.0230728,11.2524546 9.7703125,11.2524546 L3.52029896,11.2524546 Z M11.8666893,4.24148123 C11.6889417,4.06373365 11.398675,4.06373365 11.2209275,4.24148123 L10.8931544,4.56925429 L10.8931544,2.41345337 C10.8931544,1.08116188 9.81199253,0 8.47970104,0 L2.34414063,0 C2.09138031,0 1.88754134,0.203838967 1.88754134,0.456599287 C1.88754134,0.709359606 2.09138031,0.913198573 2.34414063,0.913198573 L8.47970104,0.913198573 C8.8775947,0.913198573 9.25428911,1.0697469 9.53966367,1.35349074 C9.82340751,1.63723458 9.97995583,2.013929 9.97995583,2.41345337 L9.97995583,4.56925429 L9.65218278,4.24148123 C9.4744352,4.06373365 9.18416851,4.06373365 9.00642093,4.24148123 C8.82867335,4.41922881 8.82867335,4.7094955 9.00642093,4.88724308 L10.0908442,5.97166638 C10.2816375,6.16245966 10.5914727,6.16245966 10.782266,5.97166638 L11.8666893,4.88724308 C12.0444369,4.7094955 12.0444369,4.42085952 11.8666893,4.24148123 Z" id="形状"></path>
                    </g>
                </g>
            </g>
        </g>
    </g>
</svg>