<?xml version="1.0" encoding="UTF-8"?>
<svg width="16px" height="16px" viewBox="0 0 16 16" version="1.1" xmlns="http://www.w3.org/2000/svg" xmlns:xlink="http://www.w3.org/1999/xlink">
    <g id="权限管理" stroke="none" stroke-width="1" fill="none" fill-rule="evenodd">
        <g id="图标" transform="translate(-146.000000, -444.000000)">
            <g id="编组-9" transform="translate(146.000000, 444.000000)">
                <rect id="矩形备份-4" x="0" y="0" width="16" height="16"></rect>
                <g id="编组" transform="translate(1.600000, 2.400000)" fill="currentColor" fill-rule="nonzero">
                    <path d="M7.04,11.8690909 L1.16363636,11.8690909 C0.523636362,11.8690909 0,11.3454545 0,10.7054545 L0,1.16363636 C0,0.523636362 0.523636362,0 1.16363636,0 L7.04,0 C7.38909091,0 7.62181818,0.232727275 7.62181818,0.581818175 C7.62181818,0.930909075 7.38909091,1.16363636 7.04,1.16363636 L1.16363636,1.16363636 L1.16363636,10.7636364 L7.04,10.7636364 C7.38909091,10.7636364 7.62181818,10.9963636 7.62181818,11.3454545 C7.62181818,11.6363636 7.38909091,11.8690909 7.04,11.8690909 L7.04,11.8690909 Z M9.13454545,9.01818181 C8.90181817,8.78545453 8.90181817,8.43636362 9.13454545,8.20363636 L11.3454545,5.99272726 L8.72727272,3.25818181 L9.13454545,2.85090909 C9.36727272,2.61818181 9.71636363,2.61818181 9.94909091,2.85090909 L12.6254545,5.52727272 C12.8581818,5.76 12.8581818,6.10909091 12.6254545,6.34181817 L9.94909091,9.01818181 C9.77454546,9.25090908 9.36727272,9.25090908 9.13454545,9.01818181 Z" id="形状"></path>
                    <path d="M11.6945454,6.51636363 L5.06181819,6.51636363 C4.71272727,6.51636363 4.48,6.28363636 4.48,5.93454545 C4.48,5.58545453 4.71272727,5.35272726 5.06181819,5.35272726 L11.6945454,5.35272726 L11.6945454,6.51636363 L11.6945454,6.51636363 Z" id="路径"></path>
                </g>
            </g>
        </g>
    </g>
</svg>