<svg xmlns="http://www.w3.org/2000/svg" xmlns:xlink="http://www.w3.org/1999/xlink" width="16" height="16" viewBox="0 0 16 16" fill="currentColor">
<path d="M6.95812 4.35521L6.99509 4.31398L8.16755 3.14105C9.51725 1.79134 11.5688 1.60841 12.8072 2.75623L12.883 2.82969L13.1706 3.11688C14.3744 4.32062 14.2431 6.36934 12.9422 7.74701L12.8593 7.83231L11.6864 9.00525C11.509 9.18315 11.2235 9.1917 11.0358 9.02473C10.8481 8.85776 10.8233 8.57331 10.9793 8.37636L11.0162 8.33513L12.1892 7.1622C13.1906 6.16082 13.327 4.70022 12.564 3.85429L12.5001 3.78747L12.2129 3.4998C11.4015 2.68846 9.94567 2.77756 8.92012 3.73202L8.83814 3.81116L7.6652 4.9841C7.4878 5.162 7.2024 5.17054 7.01467 5.00358C6.82694 4.83661 6.80213 4.55216 6.95812 4.35521ZM11.6864 12.3563L3.64406 4.31398C3.45905 4.12892 3.45905 3.82893 3.64358 3.64339C3.73247 3.5544 3.85309 3.5044 3.97887 3.5044C4.10466 3.5044 4.22528 3.5544 4.31417 3.64339L12.3565 11.6862C12.4797 11.8052 12.5291 11.9814 12.4857 12.1471C12.4423 12.3127 12.3129 12.4421 12.1472 12.4855C11.9815 12.5289 11.8053 12.4795 11.6864 12.3563ZM3.14122 8.16744L3.05828 8.25274C1.75739 9.63088 1.62612 11.6791 2.82986 12.8829L3.11752 13.1705L3.19335 13.244C4.43168 14.3918 6.48325 14.2084 7.83248 12.8592L9.00542 11.6862L9.04238 11.645C9.19837 11.4481 9.17356 11.1636 8.98584 10.9966C8.79811 10.8297 8.5127 10.8382 8.3353 11.0161L7.16237 12.1891L7.08038 12.2682C6.05484 13.2227 4.59898 13.3118 3.78764 12.5L3.49997 12.2128L3.43647 12.1459C2.67347 11.3 2.80995 9.83941 3.81133 8.83803L4.98427 7.66509L5.02123 7.62386C5.17722 7.42692 5.15241 7.14247 4.96469 6.9755C4.77696 6.80853 4.49155 6.81708 4.31415 6.99498L3.14122 8.16744Z" fill-rule="evenodd"   >
</path>
</svg>
