<?xml version="1.0" encoding="UTF-8"?>
<svg width="16px" height="16px" viewBox="0 0 16 16" version="1.1" xmlns="http://www.w3.org/2000/svg" xmlns:xlink="http://www.w3.org/1999/xlink">
    <title>矩形备份 3</title>
    <g id="权限管理" stroke="none" stroke-width="1" fill="none" fill-rule="evenodd">
        <g id="图标" transform="translate(-92.000000, -444.000000)">
            <rect  x="0" y="0" width="742" height="1080"></rect>
            <g id="编组-8" transform="translate(92.000000, 444.000000)">
                <rect id="矩形备份-3" x="0" y="0" width="16" height="16"></rect>
                <g id="编组" transform="translate(2.400000, 1.600000)" fill="currentColor" fill-rule="nonzero">
                    <path d="M1.92,4.48 L1.92,3.36 C1.92,1.50415999 3.424,-2.7284841e-16 5.28,-2.7284841e-16 C7.13599999,-2.7284841e-16 8.63999999,1.50336 8.63999999,3.36 L8.63999999,4.48 L8.80015999,4.48 C9.77167999,4.48 10.56,5.26896 10.56,6.24 L10.56,11.04 C10.56,12.01232 9.77296,12.8 8.80015999,12.8 L1.75999999,12.8 C0.788320004,12.8 0,12.01104 0,11.04 L0,6.24 C0,5.26768 0.787039994,4.48 1.75984,4.48 L1.92,4.48 Z M2.88,4.48 L7.67999999,4.48 L7.67999999,3.36 C7.67999999,2.03359999 6.60592,0.959999999 5.28,0.959999999 C3.95424,0.959999999 2.88,2.0344 2.88,3.36 L2.88,4.48 Z M0.959999421,6.24 L0.959999421,11.04 C0.959999421,11.48096 1.31872,11.8400006 1.75984,11.8400006 L8.8,11.8400006 C9.01225131,11.8402552 9.21588273,11.7560516 9.36596718,11.6059672 C9.51605163,11.4558827 9.60025516,11.2522513 9.60000057,11.04 L9.60000057,6.24 C9.60000057,5.79904 9.24127999,5.43999942 8.80015999,5.43999942 L1.75999999,5.43999942 C1.54774868,5.43974484 1.34411727,5.52394837 1.19403282,5.67403282 C1.04394837,5.82411727 0.959744838,6.02774868 0.959999421,6.24 Z" id="形状"></path>
                </g>
            </g>
        </g>
    </g>
</svg>