<?xml version="1.0" encoding="UTF-8"?>
<svg width="16px" height="16px" viewBox="0 0 16 16" version="1.1" xmlns="http://www.w3.org/2000/svg" xmlns:xlink="http://www.w3.org/1999/xlink">
    <title>矩形备份 2</title>
    <g id="权限管理" stroke="none" stroke-width="1" fill="none" fill-rule="evenodd">
        <g id="图标" transform="translate(-65.000000, -444.000000)">
            <rect x="0" y="0" width="742" height="1080"></rect>
            <g id="编组-6" transform="translate(65.000000, 444.000000)">
                <rect id="矩形备份-2" x="0" y="0" width="16" height="16"></rect>
                <g id="编组" transform="translate(1.600000, 1.600000)" fill="currentColor" fill-rule="nonzero">
                    <path d="M12.7959333,12.2520095 C12.5763304,9.65337569 10.8012073,7.5030977 8.39472597,6.72533757 C9.40123908,6.07567911 10.0691978,4.95021446 10.0691978,3.66004766 C10.0691978,1.63787133 8.42217633,0 6.4,0 C4.36867355,0 2.73080222,1.63787133 2.73080222,3.66004766 C2.73080222,4.95021446 3.39876092,6.07567911 4.40527403,6.72533757 C1.99879269,7.5030977 0.223669579,9.65337569 0.00406671962,12.2520095 C0.00406671962,12.2977601 -0.00508339952,12.3343606 0.00406671962,12.3984114 C0.0223669579,12.6271644 0.223669579,12.8101668 0.452422558,12.8101668 C0.708625894,12.8101668 0.909928515,12.5997141 0.909928515,12.3526608 C1.14783161,9.52527403 3.51771247,7.32009531 6.4,7.32009531 C9.28228753,7.32009531 11.6430183,9.52527403 11.8900715,12.3526608 C11.8900715,12.5997141 12.0913741,12.8101668 12.3475774,12.8101668 C12.5763304,12.8101668 12.777633,12.6271644 12.7959333,12.3984114 C12.8050834,12.3343606 12.7959333,12.2977601 12.7959333,12.2520095 Z M3.64581414,3.66004766 C3.64581414,2.14112788 4.88108022,0.915011914 6.4,0.915011914 C7.91891978,0.915011914 9.15418586,2.14112788 9.15418586,3.66004766 C9.15418586,5.17896743 7.91891978,6.4050834 6.4,6.4050834 C4.88108022,6.4050834 3.64581414,5.17896743 3.64581414,3.66004766 Z" id="形状"></path>
                </g>
            </g>
        </g>
    </g>
</svg>