<?xml version="1.0" encoding="UTF-8"?>
<svg width="16px" height="16px" viewBox="0 0 16 16" version="1.1" xmlns="http://www.w3.org/2000/svg" xmlns:xlink="http://www.w3.org/1999/xlink">
    <g id="权限管理" stroke="none" stroke-width="1" fill="none" fill-rule="evenodd">
        <g id="图标" transform="translate(-41.000000, -444.000000)">
            <rect  x="0" y="0" width="742" height="1080"></rect>
            <g id="编组-5" transform="translate(41.000000, 444.000000)">
                <rect id="矩形" x="0" y="0" width="16" height="16"></rect>
                <g id="编组" transform="translate(0.800000, 1.600000)" fill="currentColor" fill-rule="nonzero">
                    <path d="M14.281395,6.50280343 L12.4482237,4.76872252 L7.44416164,0.11147663 C7.29552614,-0.0371588767 7.09734546,-0.0371588767 6.94870995,0.11147663 L2.09328339,4.71917735 C2.04373822,4.76872252 1.99419305,4.81826769 1.94464788,4.86781285 L0.11147663,6.60189377 C-0.0371588767,6.75052928 -0.0371588767,6.94870995 0.11147663,7.09734546 C0.260112137,7.24598097 0.458292813,7.24598097 0.60692832,7.09734546 L1.89510271,5.85871623 L1.89510271,11.952772 C1.89510271,12.6959496 2.53918991,13.3400368 3.33191262,13.3400368 L4.62008701,13.3400368 C5.21462904,13.3400368 5.71008073,12.8941302 5.71008073,12.2995882 L5.71008073,8.93051671 L7.24598097,8.93051671 L8.7818812,8.93051671 L8.7818812,12.2995882 C8.7818812,12.8445851 9.27733289,13.3400368 9.87187492,13.3400368 L11.1600493,13.3400368 C11.952772,13.3400368 12.5968592,12.7454947 12.5968592,11.952772 L12.5968592,5.80917107 L13.8354884,6.94870995 C13.9841239,7.09734546 14.1823046,7.09734546 14.3309401,6.94870995 C14.4300305,6.84961961 14.4300305,6.65143894 14.281395,6.50280343 Z M11.8041365,12.0023172 C11.8041365,12.3986785 11.5068655,12.6959496 11.1105041,12.6959496 L9.82232975,12.6959496 C9.62414908,12.6959496 9.47551357,12.547314 9.47551357,12.3491334 L9.47551357,8.6332457 C9.47551357,8.43506502 9.32687806,8.28642951 9.12869739,8.28642951 L7.24598097,8.28642951 L5.36326454,8.28642951 C5.16508387,8.28642951 5.01644836,8.43506502 5.01644836,8.6332457 L5.01644836,12.3491334 C5.01644836,12.547314 4.86781285,12.6959496 4.66963218,12.6959496 L3.38145778,12.6959496 C2.98509643,12.6959496 2.68782542,12.3986785 2.68782542,12.0023172 L2.68782542,5.21462904 L7.24598097,0.854654165 L11.8041365,5.21462904 L11.8041365,12.0023172 Z" id="形状"></path>
                </g>
            </g>
        </g>
    </g>
</svg>