<?xml version="1.0" encoding="UTF-8"?>
<svg width="24px" height="24px" viewBox="0 0 24 24" version="1.1" xmlns="http://www.w3.org/2000/svg" xmlns:xlink="http://www.w3.org/1999/xlink">
    <title>连麦记录</title>
    <g id="外审修改版" stroke="none" stroke-width="1" fill="none" fill-rule="evenodd">
        <g id="5-1聊天记录" transform="translate(-572.000000, -763.000000)">
            <g id="连麦记录" transform="translate(572.000000, 763.000000)">
                <rect id="矩形" x="0" y="0" width="24" height="24"></rect>
                <g id="编组-75" transform="translate(2.000000, 2.000000)" stroke="#333333">
                    <path d="M8.88888889,20 L2.22222222,20 C0.994922778,20 0,19.0050772 0,17.7777778 L0,2.22222222 C0,0.994922778 0.994922778,0 2.22222222,0 L17.7777778,0 C19.0050772,0 20,0.994922778 20,2.22222222 L20,6.66666667" id="路径" stroke-width="2" stroke-linecap="round" stroke-linejoin="round"></path>
                    <line x1="0.5" y1="4.5" x2="18.5" y2="4.5" id="直线-10" stroke-width="2" stroke-linecap="square"></line>
                    <line x1="3.5" y1="9.5" x2="7.5" y2="9.5" id="直线-11" stroke-width="1.2" stroke-linecap="round" stroke-linejoin="round"></line>
                    <line x1="3.5" y1="13.5" x2="7.5" y2="13.5" id="直线-11备份" stroke-width="1.2" stroke-linecap="round" stroke-linejoin="round"></line>
                    <path d="M20,14 C20,16.209139 18.209139,18 16,18 C13.790861,18 12,16.209139 12,14" id="路径" stroke-width="1.2" stroke-linecap="round"></path>
                    <line x1="16" y1="18.5" x2="16" y2="20.5" id="直线-12" stroke-width="1.2" stroke-linecap="round" stroke-linejoin="round"></line>
                    <rect id="矩形" stroke-width="1.2" x="14" y="9" width="4" height="7" rx="2"></rect>
                </g>
            </g>
        </g>
    </g>
</svg>