<?xml version="1.0" encoding="UTF-8"?>
<svg width="25px" height="25px" viewBox="0 0 25 25" version="1.1" xmlns="http://www.w3.org/2000/svg" xmlns:xlink="http://www.w3.org/1999/xlink">
    <title>预约直播间</title>
    <g id="伪直播1.3" stroke="none" stroke-width="1" fill="none" fill-rule="evenodd">
        <g id="运营直播间-公共" transform="translate(-703.000000, -762.000000)" fill="#333333" fill-rule="nonzero">
            <g id="编组-59" transform="translate(340.000000, 69.000000)">
                <g id="编组-60" transform="translate(0.000000, 84.000000)">
                    <g id="操作栏1" transform="translate(0.000000, 540.000000)">
                        <g id="编组-77" transform="translate(363.500000, 69.500000)">
                            <path d="M12,0 C18.627417,0 24,5.372583 24,12 C24,12.5522847 23.5522847,13 23,13 C22.4477153,13 22,12.5522847 22,12 C22,6.4771525 17.5228475,2 12,2 C6.4771525,2 2,6.4771525 2,12 C2,17.5228475 6.4771525,22 12,22 C12.5522847,22 13,22.4477153 13,23 C13,23.5522847 12.5522847,24 12,24 C5.372583,24 0,18.627417 0,12 C0,5.372583 5.372583,0 12,0 Z" id="路径"></path>
                            <path d="M8,13.8 C7.82405474,13.8 7.66443702,13.7247161 7.54740688,13.6024283 C7.44796634,13.5072702 7.37954504,13.3836931 7.3575898,13.2460522 L7.35,13.15 L7.35,7.15 C7.35,6.79101491 7.66340068,6.5 8.05,6.5 C8.40145393,6.5 8.69241311,6.74050819 8.7424102,7.05394776 L8.75,7.15 L8.75,12.4 L13,12.4 C13.3589851,12.4 13.65,12.7134007 13.65,13.1 C13.65,13.4514539 13.4094918,13.7424131 13.0960522,13.7924102 L13,13.8 L8,13.8 Z" id="形状结合" transform="translate(10.500000, 10.150000) scale(-1, 1) translate(-10.500000, -10.150000) "></path>
                            <path d="M20.6426753,15.784821 C20.7718134,15.8637388 20.8803228,15.9722482 20.9592406,16.1013863 L24.505179,21.903831 C24.7799184,22.3534046 24.6381873,22.9405764 24.1886137,23.2153158 C24.0388292,23.3068508 23.8666932,23.3552839 23.6911539,23.3552839 L16.5992771,23.3552839 C16.0724012,23.3552839 15.6452839,22.9281666 15.6452839,22.4012907 C15.6452839,22.2257515 15.6937171,22.0536155 15.7852521,21.903831 L19.3311905,16.1013863 C19.6059299,15.6518127 20.1931017,15.5100816 20.6426753,15.784821 Z M20.1452155,18.0615758 L17.9596171,21.6380962 L22.3298599,21.6380962 L20.1452155,18.0615758 Z" id="三角形" transform="translate(20.145284, 19.500000) rotate(-270.000000) translate(-20.145284, -19.500000) "></path>
                        </g>
                    </g>
                </g>
            </g>
        </g>
    </g>
</svg>