<svg xmlns="http://www.w3.org/2000/svg" xmlns:xlink="http://www.w3.org/1999/xlink" fill="none" version="1.1" width="23" height="24" viewBox="0 0 23 24"><g><g></g><g><g><path d="M19.4558,9.507269933242798C19.0426,3.2147639332427977,16.7132,3.973659533242798,16.7132,3.973659533242798C16.7132,3.973659533242798,13.5828,7.850349933242798,6.29105,8.189749933242798L6.29105,13.628499933242798C6.29105,13.628499933242798,9.38987,13.786599933242798,11.40516,14.355799933242798C13.42045,14.924899933242799,14.7738,15.245399933242798,16.612000000000002,16.8221999332428C16.612000000000002,16.8221999332428,19.9174,16.5544999332428,19.4558,9.507269933242798ZM3.5,8.282519933242797L5.4921,8.282519933242797L5.4921,13.588469933242799L3.5,13.588469933242799L3.5,8.282519933242797ZM9.4742,14.893399933242797C9.4742,14.893399933242797,9.71241,16.107599933242795,10.49239,17.0498999332428C11.272369999999999,17.992199933242798,11.80359,18.3989999332428,11.80359,18.3989999332428C11.80359,18.3989999332428,12.66367,19.476199933242796,11.60544,19.746099933242796C11.45792,19.783599933242797,11.322,19.820199933242797,11.196290000000001,19.853999933242797C10.41843,20.0631999332428,10.03211,20.1670999332428,9.71452,19.746099933242796C9.34561,19.256999933242795,7.60437,16.8221999332428,7.60437,14.893399933242797L9.4742,14.893399933242797Z" fill-rule="evenodd" fill="#F1330D" fill-opacity="1"/></g></g></g></svg>
