<?xml version="1.0" encoding="UTF-8"?>
<svg width="16px" height="16px" viewBox="0 0 16 16" version="1.1" xmlns="http://www.w3.org/2000/svg" xmlns:xlink="http://www.w3.org/1999/xlink">
    <title>error-circle-filled</title>
    <g id="订单管理" stroke="none" stroke-width="1" fill="none" fill-rule="evenodd">
        <g id="新购编辑订单" transform="translate(-1106.000000, -500.000000)">
            <g id="编组-10备份-3" transform="translate(272.000000, 329.000000)">
                <g id="编组-52" transform="translate(0.000000, 92.000000)">
                    <g id="编组-9" transform="translate(1.000000, 1.000000)">
                        <g id="编组-11" transform="translate(31.000000, 54.000000)">
                            <g id="编组-51" transform="translate(691.000000, 16.000000)">
                                <g id="error-circle-filled" transform="translate(111.000000, 8.000000)">
                                    <path d="M0,0 L16,0 L16,16 L0,16 L0,0 Z" id="error-circle-filled-(Background)"></path>
                                    <path d="M8,1 C4.13400912,1 1,4.13400483 1,8 C1,11.8659916 4.13400483,15 8,15 C11.8659916,15 15,11.8659954 15,8 C15,4.13400912 11.8659954,1 8,1 Z M8.5,9.5 L7.5,9.5 L7.5,4.00030303 L8.5,4.00030303 L8.5,9.5 Z M8.59428501,11 L8.59428501,12.1999941 L7.3942852,12.1999941 L7.3942852,11 L8.59428501,11 Z" fill="#F53F3F"></path>
                                </g>
                            </g>
                        </g>
                    </g>
                </g>
            </g>
        </g>
    </g>
</svg>