<?xml version="1.0" encoding="UTF-8"?>
<svg width="32px" height="32px" viewBox="0 0 32 32" version="1.1" xmlns="http://www.w3.org/2000/svg" xmlns:xlink="http://www.w3.org/1999/xlink">
    <title>切片</title>
    <g id="页面-1" stroke="none" stroke-width="1" fill="none" fill-rule="evenodd">
        <g id="学员管理-我的学员-上传作业" transform="translate(-742.000000, -382.000000)" fill-rule="nonzero">
            <g id="编组-4" transform="translate(712.000000, 0.000000)">
                <g id="编组-2备份" transform="translate(20.000000, 74.000000)">
                    <g id="编组-3备份-4" transform="translate(0.000000, 298.000000)">
                        <g id="pdf" transform="translate(10.000000, 10.000000)">
                            <path d="M28.7764953,28.9600023 C28.7709982,29.7972949 28.0601189,30.4747624 27.181532,30.4800251 L4.8016789,30.4800251 C4.37847333,30.4822912 3.97245971,30.3205888 3.67681008,30.0320015 C3.37686885,29.7483923 3.2077207,29.3626683 3.20669047,28.9600023 L3.20669047,1.52002287 C3.20431261,1.11670825 3.37398995,0.72977755 3.67681008,0.448023654 C3.97245971,0.159436293 4.37847333,-0.00226608369 4.8016789,0 L18.5351522,0 C18.9626555,0.000764914558 19.37271,0.161675018 19.6768101,0.448023654 L28.3231899,8.68801747 C28.6264786,8.97603859 28.7958272,9.36798373 28.7933126,9.77601665 L28.7933126,28.9600023 L28.7764953,28.9600023 Z" id="路径" fill="#EBECF0"></path>
                            <path d="M28.7765205,28.9600023 L28.7765205,30.4800011 C28.7788983,30.8833157 28.609221,31.2702464 28.3064009,31.5520003 C28.0088044,31.8378441 27.604057,31.9990422 27.181532,32 L4.8016789,32 C3.92080501,32 3.20671565,31.3194733 3.20671565,30.4800011 L3.20671565,28.9600023 C3.21221271,29.7972949 3.92309205,30.4747624 4.8016789,30.4800011 L27.181532,30.4800011 C28.0624059,30.4800011 28.7765205,29.7994745 28.7765205,28.9600023 L28.7765205,28.9600023 Z" id="路径" fill="#C1C7D0"></path>
                            <path d="M0,16.7680114 L31.9832109,16.7680114 L31.9832109,24.3840057 C31.9832109,25.2234779 31.2691215,25.9040286 30.3882476,25.9040286 L1.61175236,25.9040286 C1.18854678,25.9062946 0.782533163,25.7445923 0.48688353,25.4560049 C0.183594887,25.1679838 0.0142462082,24.7760386 0.0167890997,24.3680057 L0.0167890997,16.7680114 L0,16.7680114 Z" id="路径" fill="#FF5630"></path>
                            <g id="PDF" transform="translate(7.387204, 18.400000)" fill="#FFFFFF">
                                <path d="M0,0 L3.08647267,0 C3.75869248,0 4.26217419,0.15234375 4.5969178,0.45703125 C4.9316614,0.76171875 5.09903321,1.1953125 5.09903321,1.7578125 C5.09903321,2.3359375 4.9166321,2.78776042 4.55182988,3.11328125 C4.18702767,3.43880208 3.63026024,3.6015625 2.88152761,3.6015625 L1.86500009,3.6015625 L1.86500009,5.7265625 L0,5.7265625 L0,0 Z M1.86500009,2.44140625 L2.31997813,2.44140625 C2.67794884,2.44140625 2.92934812,2.38216146 3.07417597,2.26367188 C3.21900381,2.14518229 3.29141774,1.99348958 3.29141774,1.80859375 C3.29141774,1.62890625 3.22856792,1.4765625 3.10286828,1.3515625 C2.97716864,1.2265625 2.74079866,1.1640625 2.39375835,1.1640625 L1.86500009,1.1640625 L1.86500009,2.44140625 Z" id="P"></path>
                                <path d="M6.09506622,0 L8.85362679,0 C9.39741436,0 9.83667995,0.0703125 10.1714236,0.2109375 C10.5061672,0.3515625 10.782843,0.553385417 11.0014511,0.81640625 C11.2200591,1.07942708 11.37855,1.38541667 11.4769236,1.734375 C11.5752972,2.08333333 11.6244841,2.453125 11.6244841,2.84375 C11.6244841,3.45572917 11.551387,3.93033854 11.4051928,4.26757813 C11.2589987,4.60481771 11.0561031,4.88736979 10.796506,5.11523438 C10.5369089,5.34309896 10.2581836,5.49479167 9.96033014,5.5703125 C9.55317261,5.67447917 9.18427149,5.7265625 8.85362679,5.7265625 L6.09506622,5.7265625 L6.09506622,0 Z M7.9518685,1.296875 L7.9518685,4.42578125 L8.40684655,4.42578125 C8.79487587,4.42578125 9.07086856,4.38476563 9.23482461,4.30273438 C9.39878066,4.22070313 9.5272129,4.07747396 9.62012133,3.87304688 C9.71302976,3.66861979 9.75948397,3.33723958 9.75948397,2.87890625 C9.75948397,2.27213542 9.65564514,1.85677083 9.44796748,1.6328125 C9.24028981,1.40885417 8.8959821,1.296875 8.41504435,1.296875 L7.9518685,1.296875 Z" id="D"></path>
                                <polygon id="F" points="12.6082204 0 17.1989898 0 17.1989898 1.23046875 14.4732205 1.23046875 14.4732205 2.23046875 16.8013964 2.23046875 16.8013964 3.38671875 14.4732205 3.38671875 14.4732205 5.7265625 12.6082204 5.7265625"></polygon>
                            </g>
                            <path d="M3.20671565,16.7680114 L3.20671565,13.7120137 L0,16.7680114 L3.20671565,16.7680114 Z M28.7764953,16.7680114 L28.8100735,13.7120137 L32,16.7680114 L28.7764953,16.7680114 Z" id="形状" fill="#DE350B"></path>
                            <path d="M28.7764953,9.77601665 L28.7764953,9.9840165 L20.1301154,9.9840165 C19.2492416,9.9840165 18.5351522,9.30348984 18.5351522,8.46401765 L18.5351522,2.39976171e-05 C18.9626555,0.000764914558 19.37271,0.161675018 19.6768101,0.448023654 L28.339979,8.68801747 C28.6337464,8.97958902 28.7912027,9.37204243 28.7764953,9.77601665 Z" id="路径" fill="#C1C7D0"></path>
                        </g>
                    </g>
                </g>
            </g>
        </g>
    </g>
</svg>