<?xml version="1.0" encoding="UTF-8"?>
<svg width="30px" height="32px" viewBox="0 0 30 32" version="1.1" xmlns="http://www.w3.org/2000/svg" xmlns:xlink="http://www.w3.org/1999/xlink">
    <title></title>
    <g id="师资管理" stroke="none" stroke-width="1" fill="none" fill-rule="evenodd">
        <g id="师资授权-授权详情" transform="translate(-423.000000, -614.000000)" fill-rule="nonzero">
            <g id="编组-15备份-3" transform="translate(272.000000, 598.000000)">
                <g id="编组-4" transform="translate(106.000000, 0.000000)">
                    <g id="编组" transform="translate(45.000000, 16.000000)">
                        <path d="M26.9865318,28.9523834 C26.9865318,29.3565225 26.8285505,29.7441091 26.5473865,30.0298786 C26.2662225,30.3156481 25.8848823,30.4761917 25.4872564,30.4761917 L4.49775113,30.4761917 C4.1001252,30.4761917 3.718785,30.3156481 3.43762101,30.0298786 C3.15645703,29.7441091 2.99850076,29.3565225 2.99850076,28.9523834 L2.99850076,1.52383383 C2.99850076,1.11969474 3.15645703,0.732108128 3.43762101,0.446338631 C3.718785,0.160569135 4.1001252,0 4.49775113,0 L17.3763118,0 C17.7748171,-0.00231622 18.1578428,0.15669355 18.4407796,0.441929915 L26.5517241,8.68573288 C26.8323636,8.9733042 26.9888107,9.36260398 26.9865318,9.76763677 L26.9865318,28.9523834 L26.9865318,28.9523834 Z" id="路径" fill="#EBECF0"></path>
                        <path d="M26.9865068,28.9523834 L26.9865068,30.4761917 C26.9865068,30.8803308 26.8285505,31.2679174 26.5473865,31.5536869 C26.2662225,31.8394564 25.8848823,32 25.4872564,32 L4.49775113,32 C3.66973801,32 2.99850076,31.3177678 2.99850076,30.4761917 L2.99850076,28.9523834 C2.99850076,29.3565225 3.15645703,29.7441091 3.43762101,30.0298786 C3.718785,30.3156481 4.1001252,30.4761917 4.49775113,30.4761917 L25.4872564,30.4761917 C25.8848823,30.4761917 26.2662225,30.3156481 26.5473865,30.0298786 C26.8285505,29.7441091 26.9865068,29.3565225 26.9865068,28.9523834 L26.9865068,28.9523834 Z" id="路径" fill="#C1C7D0"></path>
                        <path d="M0,16.7619169 L29.9850075,16.7619169 L29.9850075,24.3809584 C29.9850075,24.7850975 29.8270512,25.1726841 29.5458872,25.4584536 C29.2647232,25.7442231 28.883383,25.9047668 28.4857571,25.9047668 L1.49925036,25.9047668 C1.10162444,25.9047668 0.720284239,25.7442231 0.439120254,25.4584536 C0.15795627,25.1726841 0,24.7850975 0,24.3809584 L0,16.7619169 L0,16.7619169 Z" id="路径" fill="#FF5630"></path>
                        <path d="M2.99850076,16.7619169 L2.99850076,13.7143003 L0,16.7619169 L2.99850076,16.7619169 Z M26.9865068,16.7619169 L27.0164918,13.7143003 L30,16.7619169 L26.9865068,16.7619169 Z" id="形状" fill="#DE350B"></path>
                        <path d="M7.49625186,18.2857252 L10.1049475,18.2857252 C10.58213,18.2630417 11.0477745,18.4391428 11.3943028,18.7733439 C11.7269752,19.1116504 11.9062085,19.5753538 11.8890555,20.0533429 C11.9044008,20.5310168 11.7254398,20.9940157 11.3943028,21.3333418 C11.0354768,21.6786807 10.5535691,21.8602925 10.05997,21.8361986 L8.56071964,21.8361986 L8.56071964,24.2285776 L7.49625186,24.2285776 L7.49625186,18.2857252 Z M8.50074964,20.8457232 L9.85007496,20.8457232 C10.1289907,20.8680156 10.4075676,20.7985662 10.6446777,20.6476281 C10.8173346,20.4896405 10.9062908,20.2579564 10.8845577,20.0228667 C10.8845577,19.5047719 10.5497251,19.2457245 9.88005996,19.2457245 L8.50074964,19.2457245 L8.50074964,20.8457232 Z M12.6236882,18.3771537 L14.9925037,18.3771537 C15.6798846,18.3476707 16.3427275,18.6396075 16.7916042,19.169534 C17.2658067,19.7727511 17.5058537,20.5317969 17.4662669,21.3028657 C17.4993028,22.0823233 17.2721118,22.8502415 16.8215892,23.4819116 C16.3922742,24.066395 15.7098518,24.4018248 14.9925037,24.3809584 L12.6236882,24.3809584 L12.6236882,18.3771537 Z M13.6281859,23.3447688 L14.9925037,23.3447688 C15.4255887,23.3606544 15.8392892,23.1617801 16.101949,22.8114359 C16.3907303,22.3768478 16.5279656,21.8564683 16.4917541,21.3333418 C16.5417152,20.7901498 16.3921878,20.2473759 16.071964,19.8095335 C15.7808896,19.4726257 15.3586023,19.2831069 14.9175412,19.2914387 L13.6281859,19.2914387 L13.6281859,23.3447688 Z M22.4887556,19.3371529 L19.3853073,19.3371529 L19.3853073,20.7542947 L22.4887556,20.7542947 L22.4887556,21.729532 L19.3853073,21.729532 L19.3853073,24.28953 L18.3808096,24.28953 L18.3808096,18.3466775 L22.4887556,18.3466775 L22.4887556,19.3371529 Z" id="形状" fill="#FFFFFF"></path>
                        <path d="M26.9865068,9.76763677 L26.9865068,9.98096993 L18.8755622,9.98096993 C18.0475491,9.98096993 17.3763118,9.29873771 17.3763118,8.45716163 L17.3763118,0 C17.7748171,-0.00231622 18.1578428,0.15669355 18.4407796,0.441929915 L26.5667166,8.68573288 C26.8418719,8.9757777 26.9928078,9.36477694 26.9865068,9.76763677 L26.9865068,9.76763677 Z" id="路径" fill="#C1C7D0"></path>
                    </g>
                </g>
            </g>
        </g>
    </g>
</svg>