<svg xmlns="http://www.w3.org/2000/svg" fill="none" viewBox="0 0 20 20" class="design-iconfont">
  <path d="M12.252 15.8164L12.3594 15.8164L11.7539 15.1855L12.252 15.8164ZM17.9023 4.39062L17.2461 4.39062L16.8945 5.35742C16.8867 5.37891 16.8711 5.39648 16.8496 5.40625C16.8281 5.41602 16.8047 5.41602 16.7832 5.4082L13.9863 4.39062L13.7012 4.39062L16.6836 5.47656L12.9199 15.8164L17.9023 15.8164C18.1055 15.8164 18.2695 15.6523 18.2695 15.4492L18.2695 4.75781C18.2676 4.55469 18.1035 4.39062 17.9023 4.39062ZM10.9746 4.39062L2.10352 4.39062C1.90039 4.39062 1.73633 4.55469 1.73633 4.75781L1.73633 15.4512C1.73633 15.6543 1.90039 15.8184 2.10352 15.8184L7.70117 15.8184L7.30859 14.4902C7.30859 14.4902 10.0215 6.98828 10.9746 4.39062Z" fill="#C5EAFF"/>
  <path d="M16.8926 5.35744L17.2441 4.39064L17.5312 3.59963C17.7949 2.86916 17.4179 2.06447 16.6914 1.79689L13.8711 0.771496C13.0664 0.480481 12.1777 0.894544 11.8828 1.69923L11.2929 3.32033C11.2851 3.34181 11.2871 3.36525 11.2949 3.38674C11.3047 3.40822 11.3222 3.42385 11.3437 3.43166L13.9863 4.3926L16.7832 5.41017C16.8261 5.4258 16.8769 5.40236 16.8926 5.35744Z" fill="#EF6A6A"/>
  <path d="M13.6992 4.39063L11.3008 3.51759C11.2969 3.51563 11.1738 3.84571 10.9746 4.39063C10.0215 6.98828 7.30664 14.4883 7.30664 14.4883L8.95312 14.1191L10.0898 15.4082L11.7539 15.1875L12.3594 15.8184L12.7656 16.2402L12.9199 15.8184L16.6836 5.47852L13.6992 4.39063Z" fill="#FFD524"/>
  <path d="M10.0918 15.4082L8.95508 14.1211L7.30859 14.4902L7.70117 15.8184L8.7168 19.2559L12.7734 16.4785L12.252 15.8164L11.7559 15.1855L10.0918 15.4082Z" fill="#FFEBD7"/>
  <path d="M17.9023 4.11132L17.6172 4.11132L17.7773 3.67187C18.0703 2.86523 17.6543 1.9746 16.8496 1.67968L13.7207 0.542958C13.334 0.402333 12.9062 0.419911 12.5332 0.593739C12.1602 0.767567 11.8711 1.08397 11.7305 1.47069L10.7695 4.11132L2.10352 4.11132C1.74609 4.11327 1.45703 4.40038 1.45703 4.7578L1.45703 15.4512C1.45898 15.8086 1.74609 16.0976 2.10352 16.0976L7.37891 16.0976L8.39648 19.6016C8.41602 19.6699 8.4668 19.7246 8.53516 19.748C8.60156 19.7715 8.67578 19.7617 8.73438 19.7226L12.877 16.8945C12.9531 16.8418 13.0117 16.7656 13.043 16.6797L13.2539 16.0976L17.9004 16.0976C18.2578 16.0957 18.5469 15.8086 18.5469 15.4512L18.5469 4.7578C18.5469 4.40038 18.2578 4.11327 17.9023 4.11132ZM12.2539 1.6621C12.3965 1.26952 12.7695 1.0078 13.1875 1.0078C13.3027 1.0078 13.418 1.02929 13.5273 1.06835L16.6562 2.20702C17.1719 2.39452 17.4375 2.96484 17.25 3.48046L16.6543 5.11523L11.6602 3.29882L12.2539 1.6621ZM15.0664 5.13476L11.5059 14.918L10.1836 15.1816L9.27539 14.0488L12.8184 4.3164L15.0664 5.13476ZM12.293 4.12499L8.72461 13.9277L7.71875 14.1289L11.4688 3.82616L12.293 4.12499ZM2.10352 15.5371C2.05664 15.5351 2.01758 15.498 2.01758 15.4512L2.01758 4.7578C2.01953 4.71093 2.05664 4.67187 2.10352 4.67187L10.5625 4.67187L6.99414 14.4766C6.96289 14.5644 6.95898 14.6621 6.98438 14.7519L7.21289 15.5371L2.10352 15.5371ZM9.63672 18.4258L8.51953 18.0195L7.56445 14.7305L8.89258 14.4648L9.85352 15.666C9.91992 15.748 10.0254 15.7851 10.127 15.7656L11.6348 15.4648L12.4629 16.5L9.63672 18.4258ZM12.7227 15.9238L12.0449 15.0762L15.5938 5.32421L16.4648 5.64062L12.7227 15.9238ZM17.9883 15.4492C17.9863 15.4961 17.9492 15.5351 17.9023 15.5351L13.459 15.5351L17.4141 4.66991L17.9023 4.66991C17.9492 4.67187 17.9883 4.70898 17.9883 4.75585L17.9883 15.4492Z" fill="#512C56"/>
  <path d="M3.87891 8.45508L7.8418 8.45508C7.99609 8.45508 8.12109 8.33008 8.12109 8.17578C8.12109 8.02148 7.99609 7.89648 7.8418 7.89648L3.87891 7.89648C3.72461 7.89648 3.59961 8.02148 3.59961 8.17578C3.59961 8.33008 3.72461 8.45508 3.87891 8.45508ZM6.67578 10.2266L3.87891 10.2266C3.72461 10.2266 3.59961 10.3516 3.59961 10.5059C3.59961 10.6602 3.72461 10.7852 3.87891 10.7852L6.67578 10.7852C6.83008 10.7852 6.95508 10.6602 6.95508 10.5059C6.95508 10.3516 6.83008 10.2266 6.67578 10.2266Z" fill="#512C56"/>
</svg>
