<?xml version="1.0" encoding="UTF-8"?>
<svg width="41px" height="42px" viewBox="0 0 41 42" version="1.1" xmlns="http://www.w3.org/2000/svg" xmlns:xlink="http://www.w3.org/1999/xlink">
    <title>png</title>
    <g id="产品管理" stroke="none" stroke-width="1" fill="none" fill-rule="evenodd">
        <g id="上传文件状态" transform="translate(-533.000000, -1178.000000)" fill-rule="nonzero">
            <g id="编组-4" transform="translate(368.000000, 1107.000000)">
                <g id="编组" transform="translate(165.000000, 71.000000)">
                    <path d="M36.8831985,38.0003452 C36.8851757,38.5306549 36.6690724,39.0395752 36.2832906,39.4130134 C35.8990012,39.7875109 35.378321,39.9981137 34.8352724,39.9987204 L6.14600881,39.9987204 C5.60238309,40.0009557 5.08062827,39.7899182 4.69799064,39.4130134 C4.31445069,39.0380929 4.09868698,38.5301545 4.09789968,38.0003452 L4.09789968,2.00345215 C4.09594846,1.47280412 4.31210873,0.963553897 4.69799064,0.589734002 C5.08161141,0.213773061 5.60237399,0.00170190135 6.14600881,5.79293919e-06 L23.7453466,5.79293919e-06 C24.2905726,-0.00366661263 24.8148186,0.204933886 25.2019711,0.579654002 L36.2901757,11.4040899 C36.6734348,11.7824088 36.886776,12.2939824 36.8831985,12.825998 L36.8831985,38.0003452 Z" id="路径" fill="#EBECF0"></path>
                    <path d="M36.8831671,38.0003452 L36.8831671,40.0005926 C36.8851744,40.5312102 36.6690935,41.0404561 36.2832906,41.4143108 C35.8990012,41.7888083 35.378321,41.9994111 34.8352724,42 L6.14600881,42 C5.01330567,41.9987253 4.09574462,41.1021469 4.09574462,39.9966026 L4.09574462,37.9982452 C4.09355364,38.5286319 4.30977349,39.0376441 4.69583905,39.4109134 C5.08012841,39.7854109 5.60080858,39.9960137 6.14385722,39.9966026 L34.8309692,39.9966026 C35.962413,39.9949828 36.8791491,39.10004 36.8805712,37.9957252 L36.8831671,38.0003452 Z" id="路径" fill="#C1C7D0"></path>
                    <path d="M0,22.0017261 L40.9791296,22.0017261 L40.9791296,32.003383 C40.9773637,33.1071487 40.0625527,34.0022766 38.9316792,34.0067925 L2.0526142,34.0067925 C1.50898483,34.0086356 0.987273129,33.7977539 0.604165669,33.4213012 C0.217809797,33.0457475 0.000432803208,32.5355848 0,32.003383 L0,22.0017261 Z" id="路径" fill="#85BDFF"></path>
                    <path d="M4.10006454,22.0013061 L4.10006454,17.9999713 L0,22.0013061 L4.10006454,22.0013061 Z M36.8831531,22.0013061 L36.9220968,17.9999713 L41,22.0013061 L36.8831531,22.0013061 Z" id="形状" fill="#4F7199"></path>
                    <path d="M36.8831531,12.822638 L36.8831531,13.1040377 L25.7960243,13.1040377 C24.6623968,13.1040377 23.7434101,12.2070861 23.7434101,11.1006403 L23.7434101,0 C24.2885527,-0.00388048753 24.8128033,0.204495112 25.2000347,0.579024002 L36.3054519,11.3969499 C36.6809216,11.7803746 36.8876027,12.2920757 36.8812166,12.822428 L36.8831531,12.822638 Z" id="路径" fill="#C1C7D0"></path>
                    <g id="PNG备份" transform="translate(8.391201, 24.150000)" fill="#FFFFFF">
                        <path d="M0,0.128173828 L3.95543764,0.128173828 C4.8169141,0.128173828 5.46214596,0.328124999 5.89113322,0.728027341 C6.32012049,1.12792968 6.53461412,1.69702148 6.53461412,2.43530273 C6.53461412,3.19409179 6.30085983,3.78710936 5.83335127,4.21435545 C5.3658427,4.64160155 4.65232307,4.85522459 3.69279238,4.85522459 L2.39007188,4.85522459 L2.39007188,7.64428708 L0,7.64428708 L0,0.128173828 Z M2.39007188,3.33251952 L2.97314436,3.33251952 C3.43189809,3.33251952 3.75407628,3.25476073 3.93967893,3.09924315 C4.12528158,2.94372558 4.21808291,2.7446289 4.21808291,2.50195312 C4.21808291,2.26611327 4.13753836,2.0661621 3.97644927,1.9020996 C3.81536017,1.7380371 3.51244264,1.65600585 3.06769666,1.65600585 L2.39007188,1.65600585 L2.39007188,3.33251952 Z" id="P"></path>
                        <polygon id="N" points="7.79531137 0.128173828 10.0172903 0.128173828 12.916894 4.2861328 12.916894 0.128173828 15.1598845 0.128173828 15.1598845 7.64428708 12.916894 7.64428708 10.033049 3.51708983 10.033049 7.64428708 7.79531137 7.64428708"></polygon>
                        <path d="M20.6124002,4.92187498 L20.6124002,3.35815428 L24.2894338,3.35815428 L24.2894338,6.56249998 C23.5855445,7.03076169 22.9630752,7.34948728 22.422026,7.51867673 C21.8809768,7.68786618 21.2392468,7.77246091 20.4968362,7.77246091 C19.5828307,7.77246091 18.8377937,7.6203613 18.2617251,7.31616208 C17.6856565,7.01196287 17.2391595,6.55908201 16.9222342,5.95751951 C16.6053089,5.35595701 16.4468463,4.66552733 16.4468463,3.88623045 C16.4468463,3.06591796 16.6201922,2.35241698 16.9668839,1.74572753 C17.3135757,1.13903808 17.8213565,0.678466794 18.4902264,0.364013671 C19.012015,0.12133789 19.7141534,0 20.5966414,0 C21.4476121,0 22.0840891,0.0751953122 22.5060725,0.225585937 C22.9280559,0.375976561 23.2782496,0.609252928 23.5566535,0.925415036 C23.8350575,1.24157714 24.0442982,1.64233398 24.1843757,2.12768554 L21.8888561,2.52758788 C21.7943038,2.24389648 21.6340902,2.02685546 21.4082153,1.87646484 C21.1823404,1.72607421 20.8943061,1.6508789 20.5441124,1.6508789 C20.0223238,1.6508789 19.6064688,1.82775878 19.2965474,2.18151855 C18.986626,2.53527831 18.8316653,3.09497069 18.8316653,3.86059569 C18.8316653,4.67407225 18.988377,5.25512693 19.3018003,5.60375975 C19.6152236,5.95239256 20.0520903,6.12670896 20.6124002,6.12670896 C20.8785474,6.12670896 21.1324378,6.08911131 21.3740714,6.01391599 C21.6157051,5.93872068 21.8923581,5.81054685 22.2040304,5.62939451 L22.2040304,4.92187498 L20.6124002,4.92187498 Z" id="G"></path>
                    </g>
                </g>
            </g>
        </g>
    </g>
</svg>