<?xml version="1.0" encoding="UTF-8"?>
<svg width="32px" height="32px" viewBox="0 0 32 32" version="1.1" xmlns="http://www.w3.org/2000/svg" xmlns:xlink="http://www.w3.org/1999/xlink">
    <title>切片</title>
    <g id="页面-1" stroke="none" stroke-width="1" fill="none" fill-rule="evenodd">
        <g id="学员管理-我的学员-上传作业" transform="translate(-1093.000000, -478.000000)" fill-rule="nonzero">
            <g id="编组-4" transform="translate(712.000000, 0.000000)">
                <g id="编组-2备份" transform="translate(20.000000, 74.000000)">
                    <g id="编组-3备份-7" transform="translate(351.000000, 394.000000)">
                        <g id="文件图标/ppt" transform="translate(10.000000, 10.000000)">
                            <path d="M28.7868866,28.952644 C28.7884298,29.3566894 28.6197639,29.7444382 28.3186658,30.0289626 C28.0187326,30.314294 27.6123481,30.4747533 27.1885053,30.4752156 L4.79688492,30.4752156 C4.37259168,30.4769186 3.96536841,30.3161281 3.6667244,30.0289626 C3.36737615,29.7433089 3.1989752,29.3563082 3.19836072,28.952644 L3.19836072,1.52643973 C3.19683782,1.12213648 3.36554828,0.734136303 3.6667244,0.449321144 C3.96613574,0.162874713 4.37258458,0.00129668675 4.79688492,4.41366747e-06 L18.5329534,4.41366747e-06 C18.9584957,-0.00279360963 19.3676633,0.156140103 19.6698311,0.441641144 L28.3240395,8.6888304 C28.6231686,8.97707334 28.7896788,9.36684371 28.7868866,9.77218899 L28.7868866,28.952644 Z" id="路径" fill="#EBECF0"></path>
                            <path d="M28.7868621,28.952644 L28.7868621,30.476642 C28.7884288,30.8809221 28.6197803,31.268919 28.3186658,31.5537606 C28.0187326,31.839092 27.6123481,31.9995513 27.1885053,32 L4.79688492,32 C3.91282394,31.9990288 3.19667873,31.3159215 3.19667873,30.473602 L3.19667873,28.951044 C3.19496869,29.3551481 3.36372565,29.742967 3.66504511,30.0273626 C3.96497827,30.312694 4.37136279,30.4731533 4.79520563,30.473602 L27.1851467,30.473602 C28.0682247,30.4723679 28.7837262,29.7905066 28.784836,28.949124 L28.7868621,28.952644 Z" id="路径" fill="#C1C7D0"></path>
                            <path d="M0,16.7632199 L31.9837109,16.7632199 L31.9837109,24.3835299 C31.9823326,25.2244943 31.2683338,25.9064964 30.3857009,25.9099372 L1.60204035,25.9099372 C1.17774425,25.9113414 0.770554637,25.7506696 0.471543937,25.4638485 C0.169997891,25.1777124 0.000337797626,24.789017 0,24.3835299 L0,16.7632199 Z" id="路径" fill="#F16C41"></path>
                            <g id="PPT" transform="translate(7.388875, 18.400000)" fill="#FFFFFF">
                                <path d="M0,0 L3.08717084,0 C3.75954271,0 4.26313831,0.152343749 4.59795764,0.457031248 C4.93277696,0.761718747 5.10018663,1.1953125 5.10018663,1.75781249 C5.10018663,2.33593749 4.91774426,2.78776041 4.55285953,3.11328124 C4.18797479,3.43880207 3.63108142,3.60156249 2.88217942,3.60156249 L1.86542196,3.60156249 L1.86542196,5.72656248 L0,5.72656248 L0,0 Z M1.86542196,2.44140624 L2.32050292,2.44140624 C2.67855461,2.44140624 2.93001075,2.38216145 3.07487136,2.26367187 C3.21973196,2.14518228 3.29216227,1.99348958 3.29216227,1.80859374 C3.29216227,1.62890624 3.22929823,1.47656249 3.10357016,1.3515625 C2.97784208,1.2265625 2.74141864,1.1640625 2.39429983,1.1640625 L1.86542196,1.1640625 L1.86542196,2.44140624 Z" id="P"></path>
                                <path d="M6.06364632,0 L9.15081716,0 C9.82318903,0 10.3267846,0.152343749 10.661604,0.457031248 C10.9964233,0.761718747 11.1638329,1.1953125 11.1638329,1.75781249 C11.1638329,2.33593749 10.9813906,2.78776041 10.6165058,3.11328124 C10.2516211,3.43880207 9.69472774,3.60156249 8.94582574,3.60156249 L7.92906828,3.60156249 L7.92906828,5.72656248 L6.06364632,5.72656248 L6.06364632,0 Z M7.92906828,2.44140624 L8.38414924,2.44140624 C8.74220093,2.44140624 8.99365707,2.38216145 9.13851768,2.26367187 C9.28337828,2.14518228 9.35580859,1.99348958 9.35580859,1.80859374 C9.35580859,1.62890624 9.29294455,1.47656249 9.16721648,1.3515625 C9.0414884,1.2265625 8.80506496,1.1640625 8.45794615,1.1640625 L7.92906828,1.1640625 L7.92906828,2.44140624 Z" id="P"></path>
                                <polygon id="T" points="11.71321 0 17.3586738 0 17.3586738 1.41406249 15.464553 1.41406249 15.464553 5.72656248 13.6073307 5.72656248 13.6073307 1.41406249 11.71321 1.41406249"></polygon>
                            </g>
                            <path d="M3.20005037,16.7628999 L3.20005037,13.7142638 L0,16.7628999 L3.20005037,16.7628999 Z M28.7868512,16.7628999 L28.8172463,13.7142638 L32,16.7628999 L28.7868512,16.7628999 Z" id="形状" fill="#904027"></path>
                            <path d="M28.7868512,9.76962899 L28.7868512,9.9840287 L20.1334824,9.9840287 C19.2486999,9.9840287 18.531442,9.30063702 18.531442,8.45763068 L18.531442,0 C18.9569192,-0.00295656193 19.3660904,0.1558058 19.6683197,0.441161144 L28.3359625,8.6833904 C28.629012,8.97552351 28.7903241,9.36539102 28.7853398,9.76946899 L28.7868512,9.76962899 Z" id="路径" fill="#C1C7D0"></path>
                        </g>
                    </g>
                </g>
            </g>
        </g>
    </g>
</svg>