<?xml version="1.0" encoding="UTF-8"?>
<svg width="41px" height="42px" viewBox="0 0 41 42" version="1.1" xmlns="http://www.w3.org/2000/svg" xmlns:xlink="http://www.w3.org/1999/xlink">
    <title>pptx</title>
    <g id="产品管理" stroke="none" stroke-width="1" fill="none" fill-rule="evenodd">
        <g id="上传文件状态" transform="translate(-809.000000, -1242.000000)" fill-rule="nonzero">
            <g id="编组-4" transform="translate(368.000000, 1107.000000)">
                <g id="编组-3" transform="translate(165.000000, 71.000000)">
                    <g id="png备份-11" transform="translate(276.000000, 64.000000)">
                        <path d="M36.8698846,38.01 C36.8698846,38.535 36.6547744,39.039 36.2675761,39.417 C35.8803778,39.795 35.3641133,40.005 34.8263379,40.005 L6.1521511,40.005 C5.61437566,40.005 5.07660021,39.795 4.71091291,39.417 C4.32371459,39.039 4.10860441,38.535 4.10860441,38.01 L4.10860441,1.995 C4.10860441,1.47 4.32371459,0.945 4.71091291,0.588 C5.07660021,0.21 5.61437566,0 6.1521511,0 L23.7481637,0 C24.2859391,0 24.8237146,0.21 25.2109129,0.588 L36.2890871,11.403 C36.6762854,11.781 36.8913956,12.285 36.8913956,12.831 L36.8913956,38.01 L36.8698846,38.01 Z" id="路径" fill="#EBECF0"></path>
                        <path d="M36.8698846,38.01 L36.8698846,40.005 C36.8698846,40.53 36.6547744,41.055 36.2675761,41.412 C35.8803778,41.79 35.3641133,42 34.8263379,42 L6.1521511,42 C5.01206716,42 4.10860441,41.097 4.10860441,40.005 L4.10860441,38.01 C4.10860441,38.535 4.32371459,39.039 4.71091291,39.417 C5.09811123,39.795 5.61437566,40.005 6.1521511,40.005 L34.8263379,40.005 C35.9664218,40.005 36.8698846,39.102 36.8698846,38.01 Z" id="路径" fill="#C1C7D0"></path>
                        <path d="M0,22.008 L40.978489,22.008 L40.978489,32.004 C40.978489,33.117 40.0535152,33.999 38.9349423,33.999 L2.06505771,33.999 C1.52728227,33.999 0.989506821,33.789 0.623819517,33.411 C0.236621196,33.033 0.0215110178,32.529 0.0215110178,31.983 L0.0215110178,22.008 L0,22.008 Z" id="路径" fill="#F16C41"></path>
                        <g id="PPTX" transform="translate(4.947534, 24.150000)" fill="#FFFFFF">
                            <path d="M0,0 L3.95454014,0 C4.81582113,0 5.46090659,0.199951172 5.88979651,0.599853516 C6.31868643,0.999755859 6.53313139,1.56884766 6.53313139,2.30712891 C6.53313139,3.06591797 6.29943015,3.65893555 5.83202766,4.08618164 C5.36462518,4.51342773 4.65126745,4.72705078 3.69195448,4.72705078 L2.38952957,4.72705078 L2.38952957,7.51611328 L0,7.51611328 L0,0 Z M2.38952957,3.2043457 L2.97246975,3.2043457 C3.43111938,3.2043457 3.75322447,3.12658691 3.938785,2.97106934 C4.12434554,2.81555176 4.21712581,2.61645508 4.21712581,2.3737793 C4.21712581,2.13793945 4.13659954,1.93798828 3.975547,1.77392578 C3.81449446,1.60986328 3.51164565,1.52783203 3.06700059,1.52783203 L2.38952957,1.52783203 L2.38952957,3.2043457 Z" id="P"></path>
                            <path d="M7.76728403,0 L11.7218242,0 C12.5831052,0 13.2281906,0.199951172 13.6570805,0.599853516 C14.0859705,0.999755859 14.3004154,1.56884766 14.3004154,2.30712891 C14.3004154,3.06591797 14.0667142,3.65893555 13.5993117,4.08618164 C13.1319092,4.51342773 12.4185515,4.72705078 11.4592385,4.72705078 L10.1568136,4.72705078 L10.1568136,7.51611328 L7.76728403,7.51611328 L7.76728403,0 Z M10.1568136,3.2043457 L10.7397538,3.2043457 C11.1984034,3.2043457 11.5205085,3.12658691 11.706069,2.97106934 C11.8916296,2.81555176 11.9844098,2.61645508 11.9844098,2.3737793 C11.9844098,2.13793945 11.9038836,1.93798828 11.742831,1.77392578 C11.5817785,1.60986328 11.2789297,1.52783203 10.8342846,1.52783203 L10.1568136,1.52783203 L10.1568136,3.2043457 Z" id="P"></path>
                            <polygon id="T" points="15.004145 0 22.2357543 0 22.2357543 1.85595703 19.8094627 1.85595703 19.8094627 7.51611328 17.4304366 7.51611328 17.4304366 1.85595703 15.004145 1.85595703"></polygon>
                            <polygon id="X" points="22.7819325 0 25.4025374 0 26.7679829 2.31225586 28.0914147 0 30.685761 0 28.2909798 3.64013672 30.9115847 7.51611328 28.2384626 7.51611328 26.7207175 5.10131836 25.1977206 7.51611328 22.5403537 7.51611328 25.1977206 3.59912109"></polygon>
                        </g>
                        <path d="M4.10860441,22.008 L4.10860441,17.997 L0,22.008 L4.10860441,22.008 Z M36.8698846,22.008 L36.9129066,17.997 L41,22.008 L36.8698846,22.008 Z" id="形状" fill="#904027"></path>
                        <path d="M36.8698846,12.831 L36.8698846,13.104 L25.7917104,13.104 C24.6516264,13.104 23.7481637,12.201 23.7481637,11.109 L23.7481637,0 C24.2859391,0 24.8237146,0.21 25.2109129,0.588 L36.3105981,11.403 C36.6762854,11.781 36.8913956,12.285 36.8698846,12.831 L36.8698846,12.831 Z" id="路径" fill="#C1C7D0"></path>
                    </g>
                </g>
            </g>
        </g>
    </g>
</svg>