<?xml version="1.0" encoding="UTF-8"?>
<svg width="32px" height="32px" viewBox="0 0 32 32" version="1.1" xmlns="http://www.w3.org/2000/svg" xmlns:xlink="http://www.w3.org/1999/xlink">
    <title>切片</title>
    <g id="页面-1" stroke="none" stroke-width="1" fill="none" fill-rule="evenodd">
        <g id="学员管理-我的学员-上传作业" transform="translate(-742.000000, -574.000000)" fill-rule="nonzero">
            <g id="编组-4" transform="translate(712.000000, 0.000000)">
                <g id="编组-2备份" transform="translate(20.000000, 74.000000)">
                    <g id="编组-3备份-8" transform="translate(0.000000, 490.000000)">
                        <g id="文件图标/pptx" transform="translate(10.000000, 10.000000)">
                            <path d="M28.7764953,28.96 C28.7764953,29.36 28.6086044,29.744 28.3064008,30.032 C28.0041973,30.32 27.6012592,30.48 27.181532,30.48 L4.80167891,30.48 C4.38195173,30.48 3.96222455,30.32 3.67681007,30.032 C3.37460651,29.744 3.20671563,29.36 3.20671563,28.96 L3.20671563,1.52 C3.20671563,1.12 3.37460651,0.72 3.67681007,0.448 C3.96222455,0.16 4.38195173,0 4.80167891,0 L18.5351522,0 C18.9548793,0 19.3746065,0.16 19.6768101,0.448 L28.3231899,8.688 C28.6253935,8.976 28.7932844,9.36 28.7932844,9.776 L28.7932844,28.96 L28.7764953,28.96 Z" id="路径" fill="#EBECF0"></path>
                            <path d="M28.7764953,28.96 L28.7764953,30.48 C28.7764953,30.88 28.6086044,31.28 28.3064008,31.552 C28.0041973,31.84 27.6012592,32 27.181532,32 L4.80167891,32 C3.91185729,32 3.20671563,31.312 3.20671563,30.48 L3.20671563,28.96 C3.20671563,29.36 3.37460651,29.744 3.67681007,30.032 C3.97901364,30.32 4.38195173,30.48 4.80167891,30.48 L27.181532,30.48 C28.0713536,30.48 28.7764953,29.792 28.7764953,28.96 Z" id="路径" fill="#C1C7D0"></path>
                            <path d="M0,16.768 L31.9832109,16.768 L31.9832109,24.384 C31.9832109,25.232 31.2612802,25.904 30.3882476,25.904 L1.61175236,25.904 C1.19202518,25.904 0.772298006,25.744 0.486883526,25.456 C0.184679958,25.168 0.0167890871,24.784 0.0167890871,24.368 L0.0167890871,16.768 L0,16.768 Z" id="路径" fill="#F16C41"></path>
                            <g id="PPTX" transform="translate(3.861490, 18.400000)" fill="#FFFFFF">
                                <path d="M0,0 L3.08647036,0 C3.75868966,0 4.262171,0.15234375 4.59691435,0.45703125 C4.9316577,0.76171875 5.09902938,1.1953125 5.09902938,1.7578125 C5.09902938,2.3359375 4.91662841,2.78776042 4.55182647,3.11328125 C4.18702453,3.43880208 3.63025752,3.6015625 2.88152545,3.6015625 L1.86499869,3.6015625 L1.86499869,5.7265625 L0,5.7265625 L0,0 Z M1.86499869,2.44140625 L2.31997639,2.44140625 C2.67794683,2.44140625 2.92934593,2.38216146 3.07417366,2.26367188 C3.2190014,2.14518229 3.29141527,1.99348958 3.29141527,1.80859375 C3.29141527,1.62890625 3.22856549,1.4765625 3.10286595,1.3515625 C2.9771664,1.2265625 2.74079661,1.1640625 2.39375656,1.1640625 L1.86499869,1.1640625 L1.86499869,2.44140625 Z" id="P"></path>
                                <path d="M6.06227046,0 L9.14874082,0 C9.82096013,0 10.3244415,0.15234375 10.6591848,0.45703125 C10.9939282,0.76171875 11.1612998,1.1953125 11.1612998,1.7578125 C11.1612998,2.3359375 10.9788989,2.78776042 10.6140969,3.11328125 C10.249295,3.43880208 9.69252798,3.6015625 8.94379591,3.6015625 L7.92726915,3.6015625 L7.92726915,5.7265625 L6.06227046,5.7265625 L6.06227046,0 Z M7.92726915,2.44140625 L8.38224685,2.44140625 C8.7402173,2.44140625 8.99161639,2.38216146 9.13644412,2.26367188 C9.28127186,2.14518229 9.35368573,1.99348958 9.35368573,1.80859375 C9.35368573,1.62890625 9.29083596,1.4765625 9.16513641,1.3515625 C9.03943687,1.2265625 8.80306707,1.1640625 8.45602702,1.1640625 L7.92726915,1.1640625 L7.92726915,2.44140625 Z" id="P"></path>
                                <polygon id="T" points="11.7105522 0 17.354735 0 17.354735 1.4140625 15.4610441 1.4140625 15.4610441 5.7265625 13.6042432 5.7265625 13.6042432 1.4140625 11.7105522 1.4140625"></polygon>
                                <polygon id="X" points="17.7810205 0 19.8263707 0 20.8920842 1.76171875 21.9250066 0 23.9498623 0 22.0807647 2.7734375 24.1261149 5.7265625 22.0397757 5.7265625 20.8551941 3.88671875 19.6665136 5.7265625 17.5924711 5.7265625 19.6665136 2.7421875"></polygon>
                            </g>
                            <path d="M3.20671563,16.768 L3.20671563,13.712 L0,16.768 L3.20671563,16.768 Z M28.7764953,16.768 L28.8100735,13.712 L32,16.768 L28.7764953,16.768 Z" id="形状" fill="#904027"></path>
                            <path d="M28.7764953,9.776 L28.7764953,9.984 L20.1301154,9.984 C19.2402938,9.984 18.5351522,9.296 18.5351522,8.464 L18.5351522,0 C18.9548793,0 19.3746065,0.16 19.6768101,0.448 L28.339979,8.688 C28.6253935,8.976 28.7932844,9.36 28.7764953,9.776 L28.7764953,9.776 Z" id="路径" fill="#C1C7D0"></path>
                        </g>
                    </g>
                </g>
            </g>
        </g>
    </g>
</svg>