<?xml version="1.0" encoding="UTF-8"?>
<svg width="41px" height="42px" viewBox="0 0 41 42" version="1.1" xmlns="http://www.w3.org/2000/svg" xmlns:xlink="http://www.w3.org/1999/xlink">
    <title>prproj</title>
    <g id="产品管理" stroke="none" stroke-width="1" fill="none" fill-rule="evenodd">
        <g id="上传文件状态" transform="translate(-878.000000, -1242.000000)" fill-rule="nonzero">
            <g id="编组-4" transform="translate(368.000000, 1107.000000)">
                <g id="编组-3" transform="translate(165.000000, 71.000000)">
                    <g id="png备份-12" transform="translate(345.000000, 64.000000)">
                        <path d="M36.8698846,38.01 C36.8698846,38.535 36.6547744,39.039 36.2675761,39.417 C35.8803778,39.795 35.3641133,40.005 34.8263379,40.005 L6.1521511,40.005 C5.61437566,40.005 5.07660021,39.795 4.71091291,39.417 C4.32371459,39.039 4.10860441,38.535 4.10860441,38.01 L4.10860441,1.995 C4.10860441,1.47 4.32371459,0.945 4.71091291,0.588 C5.07660021,0.21 5.61437566,0 6.1521511,0 L23.7481637,0 C24.2859391,0 24.8237146,0.21 25.2109129,0.588 L36.2890871,11.403 C36.6762854,11.781 36.8913956,12.285 36.8913956,12.831 L36.8913956,38.01 L36.8698846,38.01 Z" id="路径" fill="#EBECF0"></path>
                        <path d="M36.8698846,38.01 L36.8698846,40.005 C36.8698846,40.53 36.6547744,41.055 36.2675761,41.412 C35.8803778,41.79 35.3641133,42 34.8263379,42 L6.1521511,42 C5.01206716,42 4.10860441,41.097 4.10860441,40.005 L4.10860441,38.01 C4.10860441,38.535 4.32371459,39.039 4.71091291,39.417 C5.09811123,39.795 5.61437566,40.005 6.1521511,40.005 L34.8263379,40.005 C35.9664218,40.005 36.8698846,39.102 36.8698846,38.01 Z" id="路径" fill="#C1C7D0"></path>
                        <path d="M0,22.008 L40.978489,22.008 L40.978489,32.004 C40.978489,33.117 40.0535152,33.999 38.9349423,33.999 L2.06505771,33.999 C1.52728227,33.999 0.989506821,33.789 0.623819517,33.411 C0.236621196,33.033 0.0215110178,32.529 0.0215110178,31.983 L0.0215110178,22.008 L0,22.008 Z" id="路径" fill="#1B8ADD"></path>
                        <g id="PRPROJ" transform="translate(3.656873, 25.200000)" fill="#FFFFFF">
                            <path d="M0,0.0922851563 L2.8472689,0.0922851563 C3.46739122,0.0922851563 3.93185274,0.23625 4.24065349,0.524179688 C4.54945423,0.812109375 4.7038546,1.22185547 4.7038546,1.75341797 C4.7038546,2.29974609 4.53558971,2.72671875 4.19905992,3.03433594 C3.86253013,3.34195313 3.34891256,3.49576172 2.65820722,3.49576172 L1.72046129,3.49576172 L1.72046129,5.50388672 L0,5.50388672 L0,0.0922851563 Z M1.72046129,2.39941406 L2.14017822,2.39941406 C2.47040595,2.39941406 2.70232162,2.34342773 2.8359252,2.23145508 C2.96952879,2.11948242 3.03633058,1.97613281 3.03633058,1.80140625 C3.03633058,1.63160156 2.97835167,1.48763672 2.86239384,1.36951172 C2.74643601,1.25138672 2.52838487,1.19232422 2.20824042,1.19232422 L1.72046129,1.19232422 L1.72046129,2.39941406 Z" id="P"></path>
                            <path d="M5.62269437,5.50388672 L5.62269437,0.0922851563 L8.47752574,0.0922851563 C9.00689845,0.0922851563 9.41149044,0.136582031 9.69130173,0.225175781 C9.97111301,0.313769531 10.1967266,0.478037109 10.3681425,0.717978516 C10.5395585,0.957919922 10.6252664,1.25015625 10.6252664,1.5946875 C10.6252664,1.89492188 10.559725,2.15393555 10.4286423,2.37172852 C10.2975595,2.58952148 10.1173207,2.76609375 9.88792588,2.90144531 C9.74171818,2.98757813 9.5413128,3.05894531 9.28670973,3.11554688 C9.49089635,3.18199219 9.63962487,3.2484375 9.7328953,3.31488281 C9.79591586,3.35917969 9.88729567,3.45392578 10.0070347,3.59912109 C10.1267738,3.74431641 10.2068099,3.85628906 10.2471431,3.93503906 L11.0752332,5.50388672 L9.13924162,5.50388672 L8.22418309,3.85013672 C8.10822526,3.63603516 8.00487154,3.49699219 7.91412193,3.43300781 C7.79060164,3.34933594 7.65069599,3.3075 7.494405,3.3075 L7.34315566,3.3075 L7.34315566,5.50388672 L5.62269437,5.50388672 Z M7.34315566,2.28498047 L8.06537128,2.28498047 C8.14351677,2.28498047 8.29476612,2.26037109 8.51911931,2.21115234 C8.63255632,2.18900391 8.72519654,2.13240234 8.79703998,2.04134766 C8.86888342,1.95029297 8.90480514,1.84570313 8.90480514,1.72757813 C8.90480514,1.55285156 8.84808663,1.41873047 8.73464963,1.32521484 C8.62121262,1.23169922 8.40820312,1.18494141 8.09562115,1.18494141 L7.34315566,1.18494141 L7.34315566,2.28498047 Z" id="R"></path>
                            <path d="M11.6159496,0.0922851563 L14.4632185,0.0922851563 C15.0833408,0.0922851563 15.5478024,0.23625 15.8566031,0.524179688 C16.1654039,0.812109375 16.3198042,1.22185547 16.3198042,1.75341797 C16.3198042,2.29974609 16.1515393,2.72671875 15.8150096,3.03433594 C15.4784798,3.34195313 14.9648622,3.49576172 14.2741569,3.49576172 L13.3364109,3.49576172 L13.3364109,5.50388672 L11.6159496,5.50388672 L11.6159496,0.0922851563 Z M13.3364109,2.39941406 L13.7561279,2.39941406 C14.0863556,2.39941406 14.3182712,2.34342773 14.4518748,2.23145508 C14.5854784,2.11948242 14.6522802,1.97613281 14.6522802,1.80140625 C14.6522802,1.63160156 14.5943013,1.48763672 14.4783435,1.36951172 C14.3623856,1.25138672 14.1443345,1.19232422 13.8241901,1.19232422 L13.3364109,1.19232422 L13.3364109,2.39941406 Z" id="P"></path>
                            <path d="M17.238644,5.50388672 L17.238644,0.0922851563 L20.0934754,0.0922851563 C20.6228481,0.0922851563 21.0274401,0.136582031 21.3072514,0.225175781 C21.5870626,0.313769531 21.8126763,0.478037109 21.9840922,0.717978516 C22.1555081,0.957919922 22.2412161,1.25015625 22.2412161,1.5946875 C22.2412161,1.89492188 22.1756747,2.15393555 22.0445919,2.37172852 C21.9135091,2.58952148 21.7332703,2.76609375 21.5038755,2.90144531 C21.3576678,2.98757813 21.1572624,3.05894531 20.9026594,3.11554688 C21.106846,3.18199219 21.2555745,3.2484375 21.3488449,3.31488281 C21.4118655,3.35917969 21.5032453,3.45392578 21.6229844,3.59912109 C21.7427234,3.74431641 21.8227595,3.85628906 21.8630927,3.93503906 L22.6911829,5.50388672 L20.7551913,5.50388672 L19.8401327,3.85013672 C19.7241749,3.63603516 19.6208212,3.49699219 19.5300716,3.43300781 C19.4065513,3.34933594 19.2666456,3.3075 19.1103546,3.3075 L18.9591053,3.3075 L18.9591053,5.50388672 L17.238644,5.50388672 Z M18.9591053,2.28498047 L19.6813209,2.28498047 C19.7594664,2.28498047 19.9107157,2.26037109 20.1350689,2.21115234 C20.248506,2.18900391 20.3411462,2.13240234 20.4129896,2.04134766 C20.4848331,1.95029297 20.5207548,1.84570313 20.5207548,1.72757813 C20.5207548,1.55285156 20.4640363,1.41873047 20.3505993,1.32521484 C20.2371623,1.23169922 20.0241528,1.18494141 19.7115708,1.18494141 L18.9591053,1.18494141 L18.9591053,2.28498047 Z" id="R"></path>
                            <path d="M23.0239314,2.80177734 C23.0239314,1.91830078 23.2760137,1.23046875 23.7801781,0.73828125 C24.2843426,0.24609375 24.9863917,0 25.8863253,0 C26.8089463,0 27.5198182,0.241787109 28.018941,0.725361328 C28.5180638,1.20893555 28.7676253,1.88630859 28.7676253,2.75748047 C28.7676253,3.38994141 28.6585997,3.90858398 28.4405486,4.3134082 C28.2224974,4.71823242 27.9073946,5.03323242 27.4952402,5.2584082 C27.0830857,5.48358398 26.5694681,5.59617188 25.9543875,5.59617188 C25.3292235,5.59617188 24.8118247,5.49896484 24.4021911,5.30455078 C23.9925574,5.11013672 23.6604391,4.80251953 23.405836,4.38169922 C23.1512329,3.96087891 23.0239314,3.43423828 23.0239314,2.80177734 Z M24.7368302,2.80916016 C24.7368302,3.35548828 24.8408142,3.74800781 25.048782,3.98671875 C25.2567499,4.22542969 25.5397122,4.34478516 25.897669,4.34478516 C26.265709,4.34478516 26.550562,4.22789063 26.7522278,3.99410156 C26.9538935,3.7603125 27.0547264,3.34072266 27.0547264,2.73533203 C27.0547264,2.22591797 26.9494821,1.85370117 26.7389934,1.61868164 C26.5285048,1.38366211 26.2430216,1.26615234 25.882544,1.26615234 C25.5371914,1.26615234 25.2599009,1.38550781 25.0506726,1.62421875 C24.8414444,1.86292969 24.7368302,2.25791016 24.7368302,2.80916016 Z" id="O"></path>
                            <path d="M31.9967988,0.0922851563 L33.7134788,0.0922851563 L33.7134788,3.03433594 C33.7134788,3.65203125 33.6573905,4.12207031 33.5452139,4.44445313 C33.4330373,4.76683594 33.2074237,5.04 32.8683731,5.26394531 C32.5293225,5.48789063 32.0951108,5.59986328 31.5657381,5.59986328 C31.0061156,5.59986328 30.5725341,5.52603516 30.2649938,5.37837891 C29.9574534,5.23072266 29.7198659,5.01477539 29.5522312,4.73053711 C29.3845965,4.44629883 29.2856543,4.095 29.2554044,3.67664063 L30.8926785,3.45884766 C30.8951994,3.69755859 30.9166264,3.87474609 30.9569595,3.99041016 C30.9972927,4.10607422 31.0653549,4.19958984 31.1611461,4.27095703 C31.2266875,4.31771484 31.3199579,4.34109375 31.4409574,4.34109375 C31.6325399,4.34109375 31.7730758,4.27157227 31.862565,4.1325293 C31.9520542,3.99348633 31.9967988,3.75908203 31.9967988,3.42931641 L31.9967988,0.0922851563 Z" id="J"></path>
                        </g>
                        <path d="M4.10860441,22.008 L4.10860441,17.997 L0,22.008 L4.10860441,22.008 Z M36.8698846,22.008 L36.9129066,17.997 L41,22.008 L36.8698846,22.008 Z" id="形状" fill="#425AE8"></path>
                        <path d="M36.8698846,12.831 L36.8698846,13.104 L25.7917104,13.104 C24.6516264,13.104 23.7481637,12.201 23.7481637,11.109 L23.7481637,0 C24.2859391,0 24.8237146,0.21 25.2109129,0.588 L36.3105981,11.403 C36.6762854,11.781 36.8913956,12.285 36.8698846,12.831 L36.8698846,12.831 Z" id="路径" fill="#C1C7D0"></path>
                    </g>
                </g>
            </g>
        </g>
    </g>
</svg>