<?xml version="1.0" encoding="UTF-8"?>
<svg width="41px" height="42px" viewBox="0 0 41 42" version="1.1" xmlns="http://www.w3.org/2000/svg" xmlns:xlink="http://www.w3.org/1999/xlink">
    <title>psd</title>
    <g id="产品管理" stroke="none" stroke-width="1" fill="none" fill-rule="evenodd">
        <g id="上传文件状态" transform="translate(-947.000000, -1242.000000)" fill-rule="nonzero">
            <g id="编组-4" transform="translate(368.000000, 1107.000000)">
                <g id="编组-3" transform="translate(165.000000, 71.000000)">
                    <g id="png备份-13" transform="translate(414.000000, 64.000000)">
                        <path d="M36.8698846,38.01 C36.8698846,38.535 36.6547744,39.039 36.2675761,39.417 C35.8803778,39.795 35.3641133,40.005 34.8263379,40.005 L6.1521511,40.005 C5.61437566,40.005 5.07660021,39.795 4.71091291,39.417 C4.32371459,39.039 4.10860441,38.535 4.10860441,38.01 L4.10860441,1.995 C4.10860441,1.47 4.32371459,0.945 4.71091291,0.588 C5.07660021,0.21 5.61437566,0 6.1521511,0 L23.7481637,0 C24.2859391,0 24.8237146,0.21 25.2109129,0.588 L36.2890871,11.403 C36.6762854,11.781 36.8913956,12.285 36.8913956,12.831 L36.8913956,38.01 L36.8698846,38.01 Z" id="路径" fill="#EBECF0"></path>
                        <path d="M36.8698846,38.01 L36.8698846,40.005 C36.8698846,40.53 36.6547744,41.055 36.2675761,41.412 C35.8803778,41.79 35.3641133,42 34.8263379,42 L6.1521511,42 C5.01206716,42 4.10860441,41.097 4.10860441,40.005 L4.10860441,38.01 C4.10860441,38.535 4.32371459,39.039 4.71091291,39.417 C5.09811123,39.795 5.61437566,40.005 6.1521511,40.005 L34.8263379,40.005 C35.9664218,40.005 36.8698846,39.102 36.8698846,38.01 Z" id="路径" fill="#C1C7D0"></path>
                        <path d="M0,22.008 L40.978489,22.008 L40.978489,32.004 C40.978489,33.117 40.0535152,33.999 38.9349423,33.999 L2.06505771,33.999 C1.52728227,33.999 0.989506821,33.789 0.623819517,33.411 C0.236621196,33.033 0.0215110178,32.529 0.0215110178,31.983 L0.0215110178,22.008 L0,22.008 Z" id="路径" fill="#31A8FF"></path>
                        <g id="PSD" transform="translate(9.249738, 24.150000)" fill="#FFFFFF">
                            <path d="M0,0.128173828 L3.95454014,0.128173828 C4.81582113,0.128173828 5.46090659,0.328125 5.88979651,0.728027344 C6.31868643,1.12792969 6.53313139,1.69702148 6.53313139,2.43530273 C6.53313139,3.1940918 6.29943015,3.78710938 5.83202766,4.21435547 C5.36462518,4.64160156 4.65126745,4.85522461 3.69195448,4.85522461 L2.38952957,4.85522461 L2.38952957,7.64428711 L0,7.64428711 L0,0.128173828 Z M2.38952957,3.33251953 L2.97246975,3.33251953 C3.43111938,3.33251953 3.75322447,3.25476074 3.938785,3.09924316 C4.12434554,2.94372559 4.21712581,2.74462891 4.21712581,2.50195312 C4.21712581,2.26611328 4.13659954,2.06616211 3.975547,1.90209961 C3.81449446,1.73803711 3.51164565,1.65600586 3.06700059,1.65600586 L2.38952957,1.65600586 L2.38952957,3.33251953 Z" id="P"></path>
                            <path d="M7.3629021,5.15771484 L9.62639055,5.01928711 C9.67540654,5.37817383 9.7751891,5.65161133 9.92573821,5.83959961 C10.1708182,6.14379883 10.5209324,6.29589844 10.9760809,6.29589844 C11.3156917,6.29589844 11.5774021,6.21813965 11.761212,6.06262207 C11.945022,5.90710449 12.036927,5.72680664 12.036927,5.52172852 C12.036927,5.3269043 11.9493984,5.15258789 11.7743413,4.9987793 C11.5992842,4.8449707 11.1931517,4.69970703 10.5559438,4.56298828 C9.51260343,4.33398437 8.76861071,4.02978516 8.32396564,3.65039062 C7.87581944,3.27099609 7.65174634,2.78735352 7.65174634,2.19946289 C7.65174634,1.81323242 7.76640874,1.44836426 7.99573356,1.1048584 C8.22505838,0.761352539 8.56992088,0.491333008 9.03032109,0.294799805 C9.49072129,0.0982666016 10.1218022,0 10.9235637,0 C11.9073847,0 12.6575044,0.178588867 13.1739229,0.535766602 C13.6903414,0.892944336 13.9975666,1.46118164 14.0955986,2.24047852 L11.853117,2.36865234 C11.7935976,2.03027344 11.6684318,1.78417969 11.4776195,1.63037109 C11.2868073,1.4765625 11.0233463,1.3996582 10.6872366,1.3996582 C10.4106464,1.3996582 10.2023284,1.45690918 10.0622828,1.57141113 C9.92223707,1.68591309 9.85221422,1.82519531 9.85221422,1.98925781 C9.85221422,2.10888672 9.90998307,2.21655273 10.0255208,2.31225586 C10.1375573,2.41137695 10.4036441,2.50366211 10.8237812,2.58911133 C11.8636204,2.80786133 12.6084884,3.0291748 13.0583852,3.25305176 C13.508282,3.47692871 13.8356388,3.75463867 14.0404556,4.08618164 C14.2452724,4.41772461 14.3476808,4.78857422 14.3476808,5.19873047 C14.3476808,5.68066406 14.2111363,6.125 13.9380472,6.53173828 C13.6649581,6.93847656 13.2833336,7.24694824 12.7931737,7.45715332 C12.3030138,7.6673584 11.6850622,7.77246094 10.9393189,7.77246094 C9.62989169,7.77246094 8.72309586,7.52636719 8.21893138,7.03417969 C7.7147669,6.54199219 7.4294238,5.91650391 7.3629021,5.15771484 Z" id="S"></path>
                            <path d="M15.5765818,0.128173828 L19.1109848,0.128173828 C19.8077121,0.128173828 20.3705208,0.220458984 20.7994107,0.405029297 C21.2283006,0.589599609 21.5827913,0.854492188 21.8628826,1.19970703 C22.142974,1.54492188 22.3460403,1.9465332 22.4720814,2.40454102 C22.5981225,2.86254883 22.6611431,3.34790039 22.6611431,3.8605957 C22.6611431,4.66381836 22.5674875,5.28674316 22.3801764,5.72937012 C22.1928653,6.17199707 21.9329055,6.54284668 21.600297,6.84191895 C21.2676885,7.14099121 20.9105719,7.34008789 20.5289474,7.43920898 C20.0072773,7.57592773 19.5346231,7.64428711 19.1109848,7.64428711 L15.5765818,7.64428711 L15.5765818,0.128173828 Z M17.9556079,1.83032227 L17.9556079,5.93701172 L18.5385481,5.93701172 C19.0357103,5.93701172 19.3893256,5.88317871 19.5993942,5.7755127 C19.8094627,5.66784668 19.9740164,5.4798584 20.0930552,5.21154785 C20.2120941,4.9432373 20.2716135,4.50830078 20.2716135,3.90673828 C20.2716135,3.11035156 20.1385701,2.56518555 19.8724833,2.27124023 C19.6063965,1.97729492 19.1652525,1.83032227 18.5490515,1.83032227 L17.9556079,1.83032227 Z" id="D"></path>
                        </g>
                        <path d="M4.10860441,22.008 L4.10860441,17.997 L0,22.008 L4.10860441,22.008 Z M36.8698846,22.008 L36.9129066,17.997 L41,22.008 L36.8698846,22.008 Z" id="形状" fill="#1D6499"></path>
                        <path d="M36.8698846,12.831 L36.8698846,13.104 L25.7917104,13.104 C24.6516264,13.104 23.7481637,12.201 23.7481637,11.109 L23.7481637,0 C24.2859391,0 24.8237146,0.21 25.2109129,0.588 L36.3105981,11.403 C36.6762854,11.781 36.8913956,12.285 36.8698846,12.831 L36.8698846,12.831 Z" id="路径" fill="#C1C7D0"></path>
                    </g>
                </g>
            </g>
        </g>
    </g>
</svg>