<svg xmlns="http://www.w3.org/2000/svg" fill="none" viewBox="0 0 14 14" class="design-iconfont">
  <path fill="#333" d="M7 0A7 7 0 1 0 7 14A7 7 0 1 0 7 0Z"/>
  <path d="M6.18911 12.6L7.80744 12.6L7.80744 11.0205L6.18911 11.0205L6.18911 12.6ZM8.67137 7.65973C7.86401 8.18506 7.47891 8.81753 7.47891 9.50045L7.47891 9.97547L6.18911 9.97547L6.18911 9.39357C6.13529 8.44855 6.61828 7.61319 7.47891 6.98282C8.44662 6.30101 8.9372 5.61809 8.82955 4.98772C8.7219 4.04326 8.18465 3.52018 7.16254 3.46765C5.97897 3.41512 5.2287 4.09301 4.96015 5.51025L3.5 5.14211C3.93061 3.0425 5.27838 2.04942 7.43024 2.10195C9.31298 2.20702 10.2818 3.1009 10.4966 4.83334C10.5509 5.88342 9.96202 6.81979 8.67137 7.65973Z" fill="#FFF"/>
</svg>
