<?xml version="1.0" encoding="UTF-8"?>
<svg width="20px" height="20px" viewBox="0 0 20 20" version="1.1" xmlns="http://www.w3.org/2000/svg" xmlns:xlink="http://www.w3.org/1999/xlink">
    <g id="直播列表-原型修改" stroke="none" stroke-width="1" fill="none" fill-rule="evenodd">
        <g id="4-1.2-运营直播间-公共" transform="translate(-965.000000, -627.000000)" fill-rule="nonzero">
            <g id="编组-78" transform="translate(965.000000, 567.000000)">
                <g id="编组-58" transform="translate(0.000000, 50.000000)">
                    <g id="启动互动" transform="translate(0.000000, 10.000000)">
                        <circle id="椭圆形" stroke="#333333" stroke-width="1.4" cx="10" cy="10" r="9.3"></circle>
                        <path d="M10.1751792,6.19487395 L6.3087059,12.6389961 C6.20301338,12.8151503 6.14718253,13.0167174 6.14718253,13.2221467 C6.14718253,13.8481289 6.65464137,14.3555878 7.28062358,14.3555878 L15.0135702,14.3555878 C15.2189995,14.3555878 15.4205666,14.2997569 15.5967208,14.1940644 C16.1334961,13.8719992 16.3075531,13.1757714 15.9854879,12.6389961 L12.1190146,6.19487395 C12.0232957,6.03534257 11.8897789,5.90182571 11.7302475,5.80610688 C11.1934722,5.48404169 10.4972444,5.65809864 10.1751792,6.19487395 Z M11.1470969,7.51187073 L14.3464232,12.8443331 L7.94701499,12.8443331 L11.1470969,7.51187073 Z" id="三角形" fill="#333333" transform="translate(11.147183, 10.000000) rotate(-270.000000) translate(-11.147183, -10.000000) "></path>
                    </g>
                </g>
            </g>
        </g>
    </g>
</svg>