<?xml version="1.0" encoding="UTF-8"?>
<svg width="24px" height="24px" viewBox="0 0 24 24" version="1.1" xmlns="http://www.w3.org/2000/svg" xmlns:xlink="http://www.w3.org/1999/xlink">
    <g id="运营直播间" stroke="none" stroke-width="1" fill="none" fill-rule="evenodd">
        <g id="图标/状态" transform="translate(-452.000000, -172.000000)" stroke="#333333">
            <g id="清屏" transform="translate(452.000000, 172.000000)">
                <g id="清除-(1)" transform="translate(1.500000, 0.000000)">
                    <path d="M11.5557964,1 C11.8307298,1 12.0798733,1.11098705 12.2607093,1.29070612 C12.4415454,1.47042519 12.5540739,1.71887628 12.5557773,1.99380438 L12.5557773,1.99380438 L12.5758565,5.23461346 C12.5792632,5.78446965 12.8043203,6.28137184 13.1659923,6.64080999 C13.5276643,7.00024813 14.0259513,7.22222222 14.5758181,7.22222222 L14.5758181,7.22222222 L19,7.22222222 C19.2761424,7.22222222 19.5261424,7.33415103 19.7071068,7.51511544 C19.8880712,7.69607985 20,7.94607985 20,8.22222222 L20,8.22222222 L20,12 C20,12.2761424 19.8880712,12.5261424 19.7071068,12.7071068 C19.5261424,12.8880712 19.2761424,13 19,13 L19,13 L2,13 C1.72385763,13 1.47385763,12.8880712 1.29289322,12.7071068 C1.11192881,12.5261424 1,12.2761424 1,12 L1,12 L1,8.22222222 C1,7.94607985 1.11192881,7.69607985 1.29289322,7.51511544 C1.47385763,7.33415103 1.72385763,7.22222222 2,7.22222222 L2,7.22222222 L6.53436509,7.22222222 C7.08664984,7.22222222 7.58664984,6.9983646 7.94857865,6.63643578 C8.31050747,6.27450697 8.53436509,5.77450697 8.53431953,5.21267667 L8.53431953,5.21267667 L8.50374263,2.00955982 C8.50110276,1.73343006 8.6106365,1.48237146 8.78986265,1.29968534 C8.9690888,1.11699922 9.21800736,1.00268557 9.48462142,1.00009139 L9.48462142,1.00009139 Z" id="矩形" stroke-width="2"></path>
                    <path d="M18.6172178,13 L19.7267134,21.8759653 C19.7609647,22.1499752 19.6809089,22.4119278 19.5237878,22.6139406 C19.3764657,22.8033547 19.1613912,22.9400724 18.9092635,22.984623 L18.9092635,22.984623 L2.26556444,23 C1.98942206,23 1.73942206,22.8880712 1.55845766,22.7071068 C1.38872312,22.5373722 1.27972193,22.3069044 1.26684727,22.0510964 L1.26684727,22.0510964 L2.38414679,13 L18.6172178,13 Z" id="矩形" stroke-width="2"></path>
                    <g id="编组-56" transform="translate(6.750000, 16.500000)">
                        <rect id="矩形" x="0.5" y="2" width="1" height="4.25" rx="0.5"></rect>
                        <rect id="矩形备份-4" x="3.5" y="0.5" width="1" height="5.75" rx="0.5"></rect>
                        <rect id="矩形备份-7" x="6.5" y="2" width="1" height="4.25" rx="0.5"></rect>
                    </g>
                </g>
            </g>
        </g>
    </g>
</svg>