<?xml version="1.0" encoding="UTF-8"?>
<svg width="16px" height="16px" viewBox="0 0 16 16" version="1.1" xmlns="http://www.w3.org/2000/svg" xmlns:xlink="http://www.w3.org/1999/xlink">
    <title></title>
    <g id="师资管理" stroke="none" stroke-width="1"  fill-rule="evenodd">
        <g id="寻找师资" transform="translate(-317.000000, -117.000000)" >
            <g id="编组-5" transform="translate(251.000000, 88.000000)">
                <g id="编组-12备份" transform="translate(20.000000, 20.000000)">
                    <g id="16px/线性/Input/icon-question-circle" transform="translate(46.000000, 9.000000)">
                        <path d="M8.16658533,1.66634119 C11.7564853,1.66634119 14.6665853,4.57649119 14.6665853,8.16634119 C14.6665853,11.7562412 11.7564853,14.6663412 8.16658533,14.6663412 C4.57673533,14.6663412 1.66658533,11.7562412 1.66658533,8.16634119 C1.66658533,4.57649119 4.57673533,1.66634119 8.16658533,1.66634119 Z M8.16658533,2.84816119 C5.22943533,2.84816119 2.84840533,5.22919119 2.84840533,8.16634119 C2.84840533,11.1034912 5.22943533,13.4845412 8.16658533,13.4845412 C11.1037353,13.4845412 13.4847853,11.1034912 13.4847853,8.16634119 C13.4847853,5.22919119 11.1037353,2.84816119 8.16658533,2.84816119 Z M8.46203533,10.5299812 C8.62521533,10.5299812 8.75749533,10.6622612 8.75749533,10.8254312 L8.75749533,11.4163412 C8.75749533,11.5795112 8.62521533,11.7118412 8.46203533,11.7118412 L7.87113533,11.7118412 C7.70795533,11.7118412 7.57567533,11.5795112 7.57567533,11.4163412 L7.57567533,10.8254312 C7.57567533,10.6622612 7.70795533,10.5299812 7.87113533,10.5299812 L8.46203533,10.5299812 Z M8.08266533,4.62089119 C8.78508533,4.62089119 9.36860533,4.79099119 9.83325533,5.13119119 C10.2979053,5.47140119 10.5302253,5.97540119 10.5302253,6.64321119 C10.5302253,7.05271119 10.4292153,7.39764119 10.2271953,7.67799119 C10.1090853,7.84810119 9.88220533,8.06545119 9.54653533,8.33005119 L9.21553533,8.58993119 C9.03527533,8.73168119 8.91561533,8.89705119 8.85656533,9.08606119 C8.84049533,9.13764119 8.82636533,9.23352119 8.81419533,9.37371119 C8.80094533,9.52641119 8.67311533,9.64361119 8.51984533,9.64361119 L7.85837533,9.64361119 C7.69520533,9.64361119 7.56292533,9.51133119 7.56292533,9.34816119 C7.56292533,9.33907119 7.56334533,9.32999119 7.56418533,9.32094119 C7.60222533,8.90973119 7.64296533,8.64952119 7.68639533,8.54031119 C7.76720533,8.33714119 7.97544533,8.10325119 8.31110533,7.83864119 L8.65143533,7.56932119 C8.76332533,7.48426119 9.33987533,7.07827119 9.33987533,6.71881119 C9.33987533,6.35935119 9.27725533,6.22713119 9.09677533,6.02985119 C8.91629533,5.83257119 8.51002533,5.76907119 8.14327533,5.76907119 C7.78274533,5.76907119 7.47465533,5.86482119 7.32392533,6.10737119 C7.25410533,6.21971119 7.19701533,6.33955119 7.15584533,6.46183119 C7.13964533,6.50993119 7.12528533,6.57046119 7.11278533,6.64339119 C7.08846533,6.78523119 6.96548533,6.88891119 6.82157533,6.88891119 L6.12597533,6.88891119 C5.96280533,6.88892119 5.83051533,6.75663119 5.83051533,6.59345119 C5.83051533,6.58230119 5.83115533,6.57116119 5.83241533,6.56008119 C5.83991533,6.49403119 5.84761533,6.43909119 5.85548533,6.39525119 C5.97067533,5.75377119 6.26240533,5.28202119 6.73068533,4.97999119 C7.09743533,4.74059119 7.54808533,4.62089119 8.08266533,4.62089119 Z" id="Combined-Shape"></path>
                    </g>
                </g>
            </g>
        </g>
    </g>
</svg>