<?xml version="1.0" encoding="UTF-8"?>
<svg width="16px" height="16px" viewBox="0 0 16 16" version="1.1" xmlns="http://www.w3.org/2000/svg" xmlns:xlink="http://www.w3.org/1999/xlink">
    <g id="自媒体运营-1.1.2" stroke="none" stroke-width="1" fill="none" fill-rule="evenodd">
        <g id="任务中心-文件传输" transform="translate(-998.000000, -324.000000)">
            <g id="编组-2" transform="translate(775.000000, 53.000000)">
                <g id="编组-84" transform="translate(20.000000, 123.000000)">
                    <g id="编组-79备份-8" transform="translate(0.000000, 106.000000)">
                        <g id="编组-78" transform="translate(8.000000, 8.000000)">
                            <g id="编组-3" transform="translate(60.000000, 0.000000)">
                                <g id="编组-20" transform="translate(0.000000, 30.000000)">
                                    <g id="help-circle-filled" transform="translate(135.000000, 4.000000)">
                                        <path d="M0,0 L16,0 L16,16 L0,16 L0,0 Z" id="help-circle-filled-(Background)"></path>
                                        <path d="M7.99438477,1 C4.12839389,1 0.994384766,4.13400483 0.994384766,8 C0.994384766,11.8659916 4.1283896,15 7.99438477,15 C11.8603764,15 14.9943848,11.8659954 14.9943848,8 C14.9943848,4.13400912 11.8603802,1 7.99438477,1 Z M7.99423599,4.4400003 C9.20312119,4.4400003 10.1857395,5.42261791 10.1857395,6.63150406 C10.1857395,7.60163212 9.44314575,8.35248089 8.70124245,8.65454769 C8.58029175,8.70487785 8.49427891,8.82451391 8.49427891,8.97008085 L8.49427891,9.76750374 L7.49427891,9.76750374 L7.49427891,8.97008085 C7.49427891,8.41040897 7.83313274,7.93100071 8.32065201,7.72980213 L8.32320404,7.7287488 C8.81796265,7.52775335 9.18573952,7.07184982 9.18573952,6.63150406 C9.18573952,5.97490311 8.65083694,5.44000053 7.99423599,5.44000053 C7.33763504,5.44000053 6.80273247,5.97490311 6.80273247,6.63150406 L5.80273247,6.63150406 C5.80273247,5.42261791 6.78535032,4.4400003 7.99423599,4.4400003 Z M7.99419308,10.6462069 C8.2853694,10.6462069 8.52141476,10.8822517 8.52141476,11.1734285 C8.52141476,11.4646053 8.2853694,11.7006502 7.99419308,11.7006502 C7.70301628,11.7006502 7.46697092,11.4646053 7.46697092,11.1734285 C7.46697092,10.8822517 7.70301628,10.6462069 7.99419308,10.6462069 Z" fill="#F53F3F"></path>
                                    </g>
                                </g>
                            </g>
                        </g>
                    </g>
                </g>
            </g>
        </g>
    </g>
</svg>