<svg xmlns="http://www.w3.org/2000/svg" fill="none" viewBox="0 0 24 24" class="design-iconfont">
  <path fill="rgba(255, 255, 255, 1)" d="M5.33333 13.0278L18.6667 13.0278C19.8173 13.0278 20.75 13.9606 20.75 15.1112L20.75 18.6667C20.75 19.8173 19.8173 20.7501 18.6667 20.7501L5.33333 20.7501C4.18274 20.7501 3.25 19.8173 3.25 18.6667L3.25 15.1112C3.25 13.9606 4.18274 13.0278 5.33333 13.0278ZM5.33333 14.5278C5.01117 14.5278 4.75 14.789 4.75 15.1112L4.75 18.6667C4.75 18.9889 5.01117 19.2501 5.33333 19.2501L18.6667 19.2501C18.9888 19.2501 19.25 18.9889 19.25 18.6667L19.25 15.1112C19.25 14.789 18.9888 14.5278 18.6667 14.5278L5.33333 14.5278Z"/>
  <path stroke="rgba(255, 255, 255, 1)" stroke-width="1.5" stroke-linecap="round" d="M10.2222 4.44458L5.77778 4.44458C4.79594 4.44458 4 5.24052 4 6.22236L4 8.88902C4 9.87085 4.79594 10.6668 5.77778 10.6668L10.2222 10.6668"/>
  <path stroke="rgba(255, 255, 255, 1)" stroke-width="1.5" d="M16.44421387 4A3.55554199 3.55554199 0 1 0 16.44421387 11.11108398A3.55554199 3.55554199 0 1 0 16.44421387 4Z"/>
  <path fill="#FFF" d="M16.44464111 6.22216796A1.33331299 1.33334351 0 1 0 16.44464111 8.88885498A1.33331299 1.33334351 0 1 0 16.44464111 6.22216796Z"/>
</svg>
