<?xml version="1.0" encoding="UTF-8"?>
<svg width="20px" height="20px" viewBox="0 0 20 20" version="1.1" xmlns="http://www.w3.org/2000/svg" xmlns:xlink="http://www.w3.org/1999/xlink">
    <title></title>
    <g id="图标" stroke="none" stroke-width="1" fill="none" fill-rule="evenodd">
        <g id="编组-3">
            <rect id="矩形" x="0" y="0" width="20" height="20"></rect>
            <g id="图形" transform="translate(1.000000, 2.000000)" fill="#CBCFD3">
                <path d="M14.3342601,3.94295604 C14.0458032,3.3509994 13.658125,2.8015294 13.1821309,2.30971983 C11.9793185,1.06752132 10.2953274,0.267415875 8.44051477,0.0568571137 C8.10754238,0.019101134 7.77751982,0 7.45956471,0 C7.15653749,0 6.84054894,0.0175837542 6.52035911,0.0523942319 C4.65723336,0.254652034 2.96394587,1.05056237 1.75228394,2.2935642 C1.27405514,2.78421342 0.884410412,3.33243381 0.593897592,3.92278381 C0.199783431,4.72396035 0,5.5744071 0,6.45047079 C0,7.57841953 0.343699013,8.69056966 0.994000786,9.66686968 C1.36174532,10.2190174 1.99059384,10.9326322 2.52889175,11.3699054 L2.52889175,11.3699054 L2.2307809,12.6012144 L2.14487849,12.9479804 C2.12977183,12.9820768 2.11806193,13.0177798 2.10983818,13.0550003 C2.10474303,13.0776717 2.10322343,13.1015035 2.10098871,13.1251568 C2.09929033,13.1430975 2.09553601,13.1604135 2.09553601,13.1788899 C2.09553601,13.4954867 2.35252812,13.7521024 2.66967873,13.7521024 C2.77328007,13.7521024 2.869194,13.7225581 2.95312985,13.6746268 C2.95572212,13.6731094 2.95858256,13.6717705 2.96108544,13.6702531 C2.97342106,13.6630233 2.98593546,13.6565967 2.99764536,13.6485635 L5.12688085,12.5813992 C5.585176,12.7126972 6.0398956,12.7966887 6.51937584,12.8493507 C6.83098436,12.8836256 7.14733047,12.9009416 7.45956471,12.9009416 C7.77796676,12.9009416 8.10798933,12.8817512 8.44051477,12.8439952 C9.09439208,12.7698221 9.72332999,12.6193337 10.3203562,12.4052939 C10.2558176,12.3839614 10.1924412,12.3560237 10.1311206,12.3209455 C9.76587895,12.1123504 9.57673275,11.7155109 9.61427595,11.3227773 C9.18762435,11.4580919 8.74211177,11.555115 8.28149252,11.6073307 C8.00206388,11.6391064 7.72540629,11.6551728 7.45956471,11.6551728 C7.19828195,11.6551728 6.93351304,11.6406238 6.67267722,11.6119721 C6.61823959,11.6059918 6.56407012,11.5976908 6.50981126,11.590461 C6.15145253,11.5427974 5.79720566,11.4698739 5.45502626,11.3697268 C5.38530318,11.3475017 5.31146823,11.3362552 5.23575612,11.3362552 C5.11776322,11.3362552 5.00325647,11.3674061 4.88714074,11.4275658 C4.87212346,11.4353312 4.85719557,11.4417578 4.8420889,11.4505943 L3.47587415,12.2545378 L3.47444393,12.2553411 C3.44610776,12.2718538 3.43010721,12.2780125 3.41544749,12.2780125 C3.36744583,12.2780125 3.32847242,12.2374896 3.32847242,12.1876838 L3.37897695,11.9839086 C3.39310035,11.9301755 3.41303399,11.8544851 3.43716891,11.7624604 C3.49688046,11.535389 3.57849222,11.2247724 3.63909766,10.99422 C3.65223778,10.9470919 3.66564606,10.8905026 3.66564606,10.8269512 C3.66564606,10.6513814 3.58153143,10.4854515 3.44137017,10.3835192 C3.3700381,10.3308572 3.29879541,10.2756068 3.2238878,10.214733 C3.10920228,10.1215481 2.99952252,10.0244358 2.89395463,9.92446721 C2.59736339,9.64357344 2.33697451,9.33697346 2.1182407,9.00850536 C1.60318382,8.23535572 1.33099566,7.35804243 1.33099566,6.47126782 C1.33099566,5.78309145 1.48858769,5.1138377 1.79930232,4.48225067 C2.03144441,4.01043481 2.34412559,3.57110873 2.72876457,3.17641147 C3.7247319,2.15459006 5.12536125,1.49943902 6.67249844,1.33145615 C6.94182617,1.30217964 7.20659509,1.28736287 7.45956471,1.28736287 C7.72513812,1.28736287 8.00170633,1.30342925 8.28149252,1.33520497 C9.82147863,1.51006067 11.2139736,2.16851425 12.2025217,3.18944308 C12.5853729,3.58494367 12.8963557,4.02525158 13.1268888,4.49822779 C13.4325977,5.12579822 13.5876868,5.78960726 13.5876868,6.47126782 C13.5876868,6.54213838 13.5832174,6.61274117 13.5797312,6.68343322 C13.9792087,6.43931358 14.5071376,6.48724494 14.8528925,6.83249347 C14.8704127,6.84989871 14.8850724,6.86899984 14.9009835,6.88738691 C14.9124253,6.74216474 14.9187719,6.59649628 14.9187719,6.45047079 C14.9187719,5.58252954 14.722117,4.73886637 14.3342601,3.94295604" id="Fill-33"></path>
                <g id="编组" transform="translate(13.866524, 10.500000) rotate(-90.000000) translate(-13.866524, -10.500000) translate(10.366524, 6.500000)" fill-rule="nonzero">
                    <path d="M4.08036856,7.46433818 C4.34907061,7.74989745 3.90839925,8.18813712 3.6048939,7.91247863 C3.29678222,7.63108811 2.98764692,7.35021869 2.67902342,7.06882817 C2.54953463,6.95106103 2.55311732,6.72125877 2.67595254,6.60192834 C2.98048153,6.30386283 3.2844987,6.00579732 3.58902768,5.7082529 C3.88178496,5.42321472 4.3219445,5.84842706 4.07576224,6.14388711 C5.59380084,5.96463093 6.13990576,4.2684714 5.31537434,3.05015467 C4.83836423,2.34876275 5.93978671,1.7218872 6.41167868,2.4175471 C7.84833894,4.53631349 6.49356883,7.19493281 4.08036856,7.46433818 L4.08036856,7.46433818 Z M0.588777426,5.58058498 C-0.848394651,3.46233967 0.505863652,0.80580473 2.91752848,0.535357175 C2.64933825,0.250319 3.0900096,-0.188441773 3.39300314,0.0877378109 C3.70162663,0.368086144 4.00973831,0.64895557 4.31938543,0.930867183 C4.4478506,1.04759214 4.44529153,1.2773944 4.32245631,1.39776701 C4.01792733,1.69531143 3.71442197,1.99233475 3.40938117,2.28987917 C3.11764752,2.57543844 2.67697617,2.14970501 2.92315842,1.85528715 C1.40563164,2.03350115 0.85901491,3.73018176 1.68456995,4.9479774 C2.16055643,5.64832714 1.06015758,6.27572378 0.588777426,5.58058498 L0.588777426,5.58058498 Z" id="形状"></path>
                </g>
            </g>
        </g>
    </g>
</svg>