<?xml version="1.0" encoding="UTF-8"?>
<svg width="20px" height="20px" viewBox="0 0 20 20" version="1.1" xmlns="http://www.w3.org/2000/svg" xmlns:xlink="http://www.w3.org/1999/xlink">
    <title></title>
    <g id="图标" stroke="none" stroke-width="1" fill="none" fill-rule="evenodd">
        <g id="编组-3">
            <rect id="矩形" x="0" y="0" width="20" height="20"></rect>
            <g id="图形" transform="translate(1.000000, 2.000000)">
                <path d="M11.9949793,12.2786016 C12.000432,12.285296 12.0062423,12.2918118 12.0124995,12.2980598 C12.0233155,12.30886 12.034936,12.318232 12.0470929,12.3266223 C12.0712278,12.3492937 12.0952733,12.3723222 12.1188719,12.3958862 C12.5830667,12.8594011 12.8748309,13.4298466 12.9945222,14.0277835 C12.9965782,14.0614337 13.0002431,14.0949945 13.0056064,14.1283769 C13.011506,14.165151 13.0193722,14.2015681 13.029205,14.2376282 C13.0751507,14.4057896 13.1639135,14.5645789 13.2961192,14.6966802 C13.7012282,15.1011066 14.3579659,15.1011066 14.7630749,14.6966802 C15.1680944,14.2921646 15.1680944,13.6363888 14.7630749,13.2318732 C14.620232,13.0893287 14.4461924,12.9972149 14.2629459,12.9551745 C14.2423865,12.9504439 14.2217378,12.9464273 14.201089,12.9429462 C14.1801721,12.9394652 14.1593445,12.9365197 14.1383382,12.9343775 C13.5245964,12.8201277 12.9378499,12.5262023 12.4631072,12.052155 C12.4288714,12.0179693 12.3957083,11.9830696 12.3633496,11.9477236 L12.3631708,11.9478128 C12.266363,11.8511468 12.1093073,11.8511468 12.0124995,11.9478128 C11.9218595,12.0383201 11.9160492,12.1813108 11.9949793,12.2786016" id="Fill-29" fill="#0079DE"></path>
                <path d="M15.2746098,13.0743781 C15.281314,13.0689334 15.2878394,13.0631316 15.2940966,13.0568836 C15.3049126,13.0460834 15.3142984,13.0344799 15.3227009,13.0223409 C15.3454056,12.9982413 15.3684678,12.974231 15.3920664,12.950667 C15.8562612,12.4871521 16.4275435,12.1958152 17.0263575,12.0762992 C17.0600569,12.0742463 17.093667,12.0705867 17.1270984,12.0652313 C17.1639265,12.0593403 17.200397,12.0514856 17.23651,12.0416672 C17.404918,11.9957888 17.5639403,11.907156 17.6962353,11.775144 C18.1012549,11.3706283 18.1012549,10.7148525 17.6962353,10.3103369 C17.2911264,9.90591055 16.6343886,9.90591055 16.2292797,10.3103369 C16.0865261,10.4529706 15.9942771,10.6267552 15.9521751,10.8097334 C15.9474375,10.8302626 15.9434151,10.8508811 15.9399289,10.8714997 C15.9364427,10.8923859 15.9334929,10.913183 15.9313476,10.9341585 C15.8169302,11.5470014 15.5225737,12.1328886 15.0478311,12.6069359 C15.0135953,12.6411215 14.9786443,12.6742361 14.9432465,12.7065474 L14.9433358,12.7067259 C14.846528,12.8033919 14.846528,12.9602176 14.9433358,13.0568836 C15.0339758,13.1473908 15.1771763,13.1531926 15.2746098,13.0743781" id="Fill-30" fill="#0082EF"></path>
                <path d="M16.0715536,9.79955115 C16.0661009,9.79285683 16.0602906,9.78634102 16.0540334,9.78009299 C16.0432174,9.76929281 16.0315969,9.75992076 16.01944,9.75153055 C15.9953051,9.72885911 15.9712596,9.70583064 15.947661,9.68226662 C15.4834662,9.21875172 15.191702,8.64830617 15.0720107,8.05036927 C15.0699547,8.01671915 15.0662898,7.98315827 15.0609265,7.94977592 C15.0550269,7.91300177 15.0471607,7.87658466 15.0373279,7.84052457 C14.9913822,7.67236319 14.9026194,7.51357385 14.7704137,7.38147255 C14.3653047,6.97704621 13.708567,6.97704621 13.303458,7.38147255 C12.8984385,7.78598816 12.8984385,8.441764 13.303458,8.84627961 C13.4463009,8.98882405 13.6203405,9.08093793 13.803587,9.12297828 C13.8241464,9.12770893 13.8447951,9.13172553 13.8654439,9.13520657 C13.8863608,9.13868762 13.9071884,9.14163312 13.9281947,9.14377531 C14.5419365,9.25802508 15.128683,9.55195047 15.6034257,10.0259978 C15.6376615,10.0601834 15.6708246,10.0950832 15.7031833,10.1304292 L15.7033621,10.1303399 C15.8001699,10.227006 15.9572256,10.227006 16.0540334,10.1303399 C16.1446734,10.0398327 16.1504837,9.89684198 16.0715536,9.79955115" id="Fill-31" fill="#0079DE"></path>
                <path d="M12.7919141,9.00377471 C12.78521,9.00921942 12.7786846,9.01502117 12.7724274,9.0212692 C12.7616114,9.03206938 12.7522256,9.04367287 12.7438231,9.05581191 C12.7211184,9.07991147 12.6980561,9.10392177 12.6744575,9.12748579 C12.2102628,9.59100069 11.6389805,9.88233761 11.0401665,10.0018536 C11.006467,10.0039065 10.9728569,10.0075661 10.9394256,10.0129215 C10.9025975,10.0188125 10.866127,10.0266672 10.830014,10.0364855 C10.6616059,10.082364 10.5025837,10.1709968 10.3702886,10.3030088 C9.96526907,10.7075244 9.96526907,11.3633003 10.3702886,11.7678159 C10.7753976,12.1722422 11.4321353,12.1722422 11.8372443,11.7678159 C11.9799978,11.6251822 12.0722468,11.4513976 12.1143488,11.2684194 C12.1190864,11.2478902 12.1231089,11.2272717 12.1265951,11.2066531 C12.1300812,11.1857669 12.133031,11.1649698 12.1351764,11.1439943 C12.2495937,10.5311514 12.5439502,9.94526424 13.0186929,9.47121694 C13.0529287,9.43703127 13.0878796,9.40391668 13.1232775,9.37160542 L13.1231881,9.37142691 C13.2199959,9.27476089 13.2199959,9.11793522 13.1231881,9.0212692 C13.0325481,8.93076196 12.8893476,8.92496021 12.7919141,9.00377471" id="Fill-32" fill="#0079DE"></path>
                <path d="M14.3342601,3.94295604 C14.0458032,3.3509994 13.658125,2.8015294 13.1821309,2.30971983 C11.9793185,1.06752132 10.2953274,0.267415875 8.44051477,0.0568571137 C8.10754238,0.019101134 7.77751982,0 7.45956471,0 C7.15653749,0 6.84054894,0.0175837542 6.52035911,0.0523942319 C4.65723336,0.254652034 2.96394587,1.05056237 1.75228394,2.2935642 C1.27405514,2.78421342 0.884410412,3.33243381 0.593897592,3.92278381 C0.199783431,4.72396035 0,5.5744071 0,6.45047079 C0,7.57841953 0.343699013,8.69056966 0.994000786,9.66686968 C1.36174532,10.2190174 1.99059384,10.9326322 2.52889175,11.3699054 L2.52889175,11.3699054 L2.2307809,12.6012144 L2.14487849,12.9479804 C2.12977183,12.9820768 2.11806193,13.0177798 2.10983818,13.0550003 C2.10474303,13.0776717 2.10322343,13.1015035 2.10098871,13.1251568 C2.09929033,13.1430975 2.09553601,13.1604135 2.09553601,13.1788899 C2.09553601,13.4954867 2.35252812,13.7521024 2.66967873,13.7521024 C2.77328007,13.7521024 2.869194,13.7225581 2.95312985,13.6746268 C2.95572212,13.6731094 2.95858256,13.6717705 2.96108544,13.6702531 C2.97342106,13.6630233 2.98593546,13.6565967 2.99764536,13.6485635 L5.12688085,12.5813992 C5.585176,12.7126972 6.0398956,12.7966887 6.51937584,12.8493507 C6.83098436,12.8836256 7.14733047,12.9009416 7.45956471,12.9009416 C7.77796676,12.9009416 8.10798933,12.8817512 8.44051477,12.8439952 C9.09439208,12.7698221 9.72332999,12.6193337 10.3203562,12.4052939 C10.2558176,12.3839614 10.1924412,12.3560237 10.1311206,12.3209455 C9.76587895,12.1123504 9.57673275,11.7155109 9.61427595,11.3227773 C9.18762435,11.4580919 8.74211177,11.555115 8.28149252,11.6073307 C8.00206388,11.6391064 7.72540629,11.6551728 7.45956471,11.6551728 C7.19828195,11.6551728 6.93351304,11.6406238 6.67267722,11.6119721 C6.61823959,11.6059918 6.56407012,11.5976908 6.50981126,11.590461 C6.15145253,11.5427974 5.79720566,11.4698739 5.45502626,11.3697268 C5.38530318,11.3475017 5.31146823,11.3362552 5.23575612,11.3362552 C5.11776322,11.3362552 5.00325647,11.3674061 4.88714074,11.4275658 C4.87212346,11.4353312 4.85719557,11.4417578 4.8420889,11.4505943 L3.47587415,12.2545378 L3.47444393,12.2553411 C3.44610776,12.2718538 3.43010721,12.2780125 3.41544749,12.2780125 C3.36744583,12.2780125 3.32847242,12.2374896 3.32847242,12.1876838 L3.37897695,11.9839086 C3.39310035,11.9301755 3.41303399,11.8544851 3.43716891,11.7624604 C3.49688046,11.535389 3.57849222,11.2247724 3.63909766,10.99422 C3.65223778,10.9470919 3.66564606,10.8905026 3.66564606,10.8269512 C3.66564606,10.6513814 3.58153143,10.4854515 3.44137017,10.3835192 C3.3700381,10.3308572 3.29879541,10.2756068 3.2238878,10.214733 C3.10920228,10.1215481 2.99952252,10.0244358 2.89395463,9.92446721 C2.59736339,9.64357344 2.33697451,9.33697346 2.1182407,9.00850536 C1.60318382,8.23535572 1.33099566,7.35804243 1.33099566,6.47126782 C1.33099566,5.78309145 1.48858769,5.1138377 1.79930232,4.48225067 C2.03144441,4.01043481 2.34412559,3.57110873 2.72876457,3.17641147 C3.7247319,2.15459006 5.12536125,1.49943902 6.67249844,1.33145615 C6.94182617,1.30217964 7.20659509,1.28736287 7.45956471,1.28736287 C7.72513812,1.28736287 8.00170633,1.30342925 8.28149252,1.33520497 C9.82147863,1.51006067 11.2139736,2.16851425 12.2025217,3.18944308 C12.5853729,3.58494367 12.8963557,4.02525158 13.1268888,4.49822779 C13.4325977,5.12579822 13.5876868,5.78960726 13.5876868,6.47126782 C13.5876868,6.54213838 13.5832174,6.61274117 13.5797312,6.68343322 C13.9792087,6.43931358 14.5071376,6.48724494 14.8528925,6.83249347 C14.8704127,6.84989871 14.8850724,6.86899984 14.9009835,6.88738691 C14.9124253,6.74216474 14.9187719,6.59649628 14.9187719,6.45047079 C14.9187719,5.58252954 14.722117,4.73886637 14.3342601,3.94295604" id="Fill-33" fill="#0079DE"></path>
            </g>
        </g>
    </g>
</svg>