<?xml version="1.0" encoding="UTF-8"?>
<svg width="12px" height="12px" viewBox="0 0 12 12" version="1.1" xmlns="http://www.w3.org/2000/svg" xmlns:xlink="http://www.w3.org/1999/xlink">
    <title>radio_checked</title>
    <g id="ai外呼" stroke="none" stroke-width="1" fill="none" fill-rule="evenodd">
        <g id="企微能力开放-上传弹窗" transform="translate(-302.000000, -326.000000)" fill="#0C6FFF">
            <g id="编组-60" transform="translate(262.000000, 100.000000)">
                <g id="编组-2" transform="translate(20.000000, 210.000000)">
                    <g id="编组" transform="translate(20.000000, 0.000000)">
                        <g id="编组" transform="translate(0.000000, 16.000000)">
                            <path d="M6,0 C9.3137085,0 12,2.6862915 12,6 C12,9.3137085 9.3137085,12 6,12 C2.6862915,12 0,9.3137085 0,6 C0,2.6862915 2.6862915,0 6,0 Z M6,4.28571429 C5.05322614,4.28571429 4.28571429,5.05322614 4.28571429,6 C4.28571429,6.94677386 5.05322614,7.71428571 6,7.71428571 C6.94677386,7.71428571 7.71428571,6.94677386 7.71428571,6 C7.71428571,5.05322614 6.94677386,4.28571429 6,4.28571429 Z" id="radio_checked"></path>
                        </g>
                    </g>
                </g>
            </g>
        </g>
    </g>
</svg>