<?xml version="1.0" encoding="UTF-8"?>
<svg width="41px" height="42px" viewBox="0 0 41 42" version="1.1" xmlns="http://www.w3.org/2000/svg" xmlns:xlink="http://www.w3.org/1999/xlink">
    <title>rar</title>
    <g id="产品管理" stroke="none" stroke-width="1" fill="none" fill-rule="evenodd">
        <g id="上传文件状态" transform="translate(-533.000000, -1306.000000)" fill-rule="nonzero">
            <g id="编组-4" transform="translate(368.000000, 1107.000000)">
                <g id="编组-3" transform="translate(165.000000, 71.000000)">
                    <g id="png备份-20" transform="translate(0.000000, 128.000000)">
                        <path d="M36.8698846,38.01 C36.8698846,38.535 36.6547744,39.039 36.2675761,39.417 C35.8803778,39.795 35.3641133,40.005 34.8263379,40.005 L6.1521511,40.005 C5.61437566,40.005 5.07660021,39.795 4.71091291,39.417 C4.32371459,39.039 4.10860441,38.535 4.10860441,38.01 L4.10860441,1.995 C4.10860441,1.47 4.32371459,0.945 4.71091291,0.588 C5.07660021,0.21 5.61437566,0 6.1521511,0 L23.7481637,0 C24.2859391,0 24.8237146,0.21 25.2109129,0.588 L36.2890871,11.403 C36.6762854,11.781 36.8913956,12.285 36.8913956,12.831 L36.8913956,38.01 L36.8698846,38.01 Z" id="路径" fill="#EBECF0"></path>
                        <path d="M36.8698846,38.01 L36.8698846,40.005 C36.8698846,40.53 36.6547744,41.055 36.2675761,41.412 C35.8803778,41.79 35.3641133,42 34.8263379,42 L6.1521511,42 C5.01206716,42 4.10860441,41.097 4.10860441,40.005 L4.10860441,38.01 C4.10860441,38.535 4.32371459,39.039 4.71091291,39.417 C5.09811123,39.795 5.61437566,40.005 6.1521511,40.005 L34.8263379,40.005 C35.9664218,40.005 36.8698846,39.102 36.8698846,38.01 Z" id="路径" fill="#C1C7D0"></path>
                        <path d="M0,22.008 L40.978489,22.008 L40.978489,32.004 C40.978489,33.117 40.0535152,33.999 38.9349423,33.999 L2.06505771,33.999 C1.52728227,33.999 0.989506821,33.789 0.623819517,33.411 C0.236621196,33.033 0.0215110178,32.529 0.0215110178,31.983 L0.0215110178,22.008 L0,22.008 Z" id="路径" fill="#8C72FE"></path>
                        <g id="RAR" transform="translate(8.389297, 24.150000)" fill="#FFFFFF">
                            <path d="M0,7.51611328 L0,0 L3.96504357,0 C4.70028344,0 5.26221677,0.0615234375 5.65084355,0.184570312 C6.03947034,0.307617188 6.35282257,0.535766602 6.59090024,0.869018555 C6.82897791,1.20227051 6.94801675,1.6081543 6.94801675,2.08666992 C6.94801675,2.50366211 6.85698705,2.86340332 6.67492765,3.16589355 C6.49286826,3.46838379 6.24253659,3.71362305 5.92393265,3.90161133 C5.7208664,4.02124023 5.44252559,4.12036133 5.08891023,4.19897461 C5.37250275,4.29125977 5.57907014,4.38354492 5.7086124,4.47583008 C5.79614096,4.53735352 5.92305736,4.66894531 6.08936162,4.87060547 C6.25566587,5.07226562 6.36682714,5.2277832 6.42284541,5.3371582 L7.57297064,7.51611328 L4.88409341,7.51611328 L3.61317878,5.21923828 C3.45212624,4.921875 3.3085794,4.72875977 3.18253828,4.63989258 C3.01098231,4.52368164 2.81666892,4.46557617 2.5995981,4.46557617 L2.38952957,4.46557617 L2.38952957,7.51611328 L0,7.51611328 Z M2.38952957,3.04541016 L3.39260682,3.04541016 C3.50114223,3.04541016 3.71121076,3.01123047 4.02281242,2.94287109 C4.18036382,2.91210938 4.3090308,2.83349609 4.40881335,2.70703125 C4.5085959,2.58056641 4.55848718,2.43530273 4.55848718,2.27124023 C4.55848718,2.02856445 4.47971148,1.84228516 4.32216008,1.71240234 C4.16460868,1.58251953 3.86876216,1.51757812 3.43462052,1.51757812 L2.38952957,1.51757812 L2.38952957,3.04541016 Z" id="R"></path>
                            <path d="M13.0715145,6.27539062 L10.3616304,6.27539062 L9.98875877,7.51611328 L7.5572155,7.51611328 L10.4509095,0 L13.0452559,0 L15.93895,7.51611328 L13.4496379,7.51611328 L13.0715145,6.27539062 Z M12.5726017,4.65014648 L11.7218242,1.94824219 L10.8762983,4.65014648 L12.5726017,4.65014648 Z" id="A"></path>
                            <path d="M16.7319587,7.51611328 L16.7319587,0 L20.6970023,0 C21.4322421,0 21.9941755,0.0615234375 22.3828023,0.184570312 C22.771429,0.307617188 23.0847813,0.535766602 23.3228589,0.869018555 C23.5609366,1.20227051 23.6799754,1.6081543 23.6799754,2.08666992 C23.6799754,2.50366211 23.5889457,2.86340332 23.4068864,3.16589355 C23.224827,3.46838379 22.9744953,3.71362305 22.6558913,3.90161133 C22.4528251,4.02124023 22.1744843,4.12036133 21.8208689,4.19897461 C22.1044614,4.29125977 22.3110288,4.38354492 22.4405711,4.47583008 C22.5280997,4.53735352 22.6550161,4.66894531 22.8213203,4.87060547 C22.9876246,5.07226562 23.0987858,5.2277832 23.1548041,5.3371582 L24.3049293,7.51611328 L21.6160521,7.51611328 L20.3451375,5.21923828 C20.1840849,4.921875 20.0405381,4.72875977 19.914497,4.63989258 C19.742941,4.52368164 19.5486276,4.46557617 19.3315568,4.46557617 L19.1214883,4.46557617 L19.1214883,7.51611328 L16.7319587,7.51611328 Z M19.1214883,3.04541016 L20.1245655,3.04541016 C20.2331009,3.04541016 20.4431695,3.01123047 20.7547711,2.94287109 C20.9123225,2.91210938 21.0409895,2.83349609 21.140772,2.70703125 C21.2405546,2.58056641 21.2904459,2.43530273 21.2904459,2.27124023 C21.2904459,2.02856445 21.2116702,1.84228516 21.0541188,1.71240234 C20.8965674,1.58251953 20.6007209,1.51757812 20.1665792,1.51757812 L19.1214883,1.51757812 L19.1214883,3.04541016 Z" id="R"></path>
                        </g>
                        <path d="M4.10860441,22.008 L4.10860441,17.997 L0,22.008 L4.10860441,22.008 Z M36.8698846,22.008 L36.9129066,17.997 L41,22.008 L36.8698846,22.008 Z" id="形状" fill="#544498"></path>
                        <path d="M36.8698846,12.831 L36.8698846,13.104 L25.7917104,13.104 C24.6516264,13.104 23.7481637,12.201 23.7481637,11.109 L23.7481637,0 C24.2859391,0 24.8237146,0.21 25.2109129,0.588 L36.3105981,11.403 C36.6762854,11.781 36.8913956,12.285 36.8698846,12.831 L36.8698846,12.831 Z" id="路径" fill="#C1C7D0"></path>
                    </g>
                </g>
            </g>
        </g>
    </g>
</svg>