<?xml version="1.0" encoding="UTF-8"?>
<svg width="20px" height="20px" viewBox="0 0 20 20" version="1.1" xmlns="http://www.w3.org/2000/svg" xmlns:xlink="http://www.w3.org/1999/xlink">
    <g id="直播列表-原型修改" stroke="none" stroke-width="1" fill="none" fill-rule="evenodd">
        <g id="4-1.2-运营直播间-公共" transform="translate(-995.000000, -587.000000)">
            <g id="编组-78" transform="translate(975.000000, 567.000000)">
                <g id="编组-58备份-3" transform="translate(0.000000, 10.000000)">
                    <g id="人数调整" transform="translate(20.000000, 10.000000)">
                        <rect id="矩形" x="0" y="0" width="20" height="20"></rect>
                        <g id="人事信息管理" transform="translate(1.000691, 0.000000)" fill="#333333" fill-rule="nonzero">
                            <path d="M16.1734251,14.0988624 L16.2328115,14.1653872 L17.8774816,16.3157022 C17.9627608,16.4115762 17.999309,16.5622352 17.999309,16.6991979 C17.999309,16.8361607 17.9383953,16.9731234 17.8531161,17.0689973 C17.7556542,17.1648712 17.6338268,17.2059601 17.5119994,17.2059601 C17.4145374,17.195003 17.3170755,17.1577492 17.2383263,17.087186 L17.1830654,17.0279085 L16.5251973,16.1924358 L16.5251973,19.452149 C16.5251973,19.7534671 16.3180907,20 16.0622532,20 C15.834842,20 15.6459343,19.8052085 15.6067624,19.5502963 L15.599309,19.452149 L15.599309,14.4393127 C15.599309,14.1516909 15.7698674,14.055817 15.8185983,14.0284244 C15.9125795,13.9814658 16.0513136,13.98482 16.1734251,14.0988624 Z M13.9363648,14 C14.163776,14 14.3526837,14.1947915 14.3918556,14.4497037 L14.399309,14.547851 L14.399309,19.5606873 C14.399309,19.8483091 14.2287506,19.944183 14.1800197,19.9715756 C14.0860385,20.0185342 13.9473044,20.01518 13.8251929,19.9011376 L13.7658065,19.8346128 L12.1211364,17.6842978 C12.0358572,17.5884238 11.999309,17.4377648 11.999309,17.3008021 C11.999309,17.1638393 12.0602227,17.0268766 12.1455019,16.9310027 C12.2429638,16.8351288 12.3647912,16.7940399 12.4866186,16.7940399 C12.5840806,16.804997 12.6815425,16.8422508 12.7602917,16.912814 L12.8155527,16.9720915 L13.4734207,17.8075642 L13.4734207,14.547851 C13.4734207,14.2465329 13.6805273,14 13.9363648,14 Z M9.13947077,0 C11.9131071,0 14.1685617,2.25156548 14.1685617,5.02041928 C14.1685617,6.7846447 13.252198,8.33650967 11.872198,9.23223523 C13.2358344,9.65695617 14.4931071,10.3947727 15.5403799,11.4157365 C15.9031071,11.766948 16.2303799,12.1481078 16.5249253,12.545603 L16.5249253,12.545603 L14.9158344,12.545603 C13.4649253,11.0073509 11.4031071,10.0435611 9.13947077,10.0435611 C4.86037986,10.0435611 1.30947077,13.4876123 1.22492531,17.7212088 L1.22492531,17.7212088 L1.22492531,17.7320991 C1.21674349,17.9199564 1.24401622,18.2983937 1.33947077,18.5107542 C1.4458344,18.7476178 1.90674349,18.7666757 1.90947077,18.7666757 L1.90947077,18.7666757 L10.9612889,18.7748435 L10.9612889,19.9945549 L1.91765258,19.9863871 C1.45947077,19.9945549 0.578561675,19.7958072 0.22401622,19.0144296 C0.0394008359,18.6060441 0.00486613978,18.1042213 2.08404286e-13,17.8460294 L0.00037985683,17.688538 C0.0494707659,15.3090117 1.02310713,13.0792268 2.73856168,11.4102913 C3.7858344,10.3920501 5.04037986,9.6542336 6.40674349,9.23223523 C5.02674349,8.33650967 4.11037986,6.7846447 4.11037986,5.02041928 C4.11037986,2.25156548 6.3658344,0 9.13947077,0 Z M9.13947077,1.21971141 C7.03947077,1.21971141 5.33219804,2.92404029 5.33219804,5.02041928 C5.33219804,7.11679826 7.03947077,8.82112714 9.13947077,8.82112714 C11.2394708,8.82112714 12.9467435,7.11679826 12.9467435,5.02041928 C12.9467435,2.92404029 11.2394708,1.21971141 9.13947077,1.21971141 Z" id="形状结合"></path>
                        </g>
                    </g>
                </g>
            </g>
        </g>
    </g>
</svg>