<?xml version="1.0" encoding="UTF-8"?>
<svg width="41px" height="42px" viewBox="0 0 41 42" version="1.1" xmlns="http://www.w3.org/2000/svg" xmlns:xlink="http://www.w3.org/1999/xlink">
    <title>rmvb</title>
    <g id="产品管理" stroke="none" stroke-width="1" fill="none" fill-rule="evenodd">
        <g id="上传文件状态" transform="translate(-602.000000, -1306.000000)" fill-rule="nonzero">
            <g id="编组-4" transform="translate(368.000000, 1107.000000)">
                <g id="编组-3" transform="translate(165.000000, 71.000000)">
                    <g id="png备份-19" transform="translate(69.000000, 128.000000)">
                        <path d="M36.8831985,38.0003452 C36.8851757,38.5306549 36.6690724,39.0395752 36.2832906,39.4130134 C35.8990012,39.7875109 35.378321,39.9981137 34.8352724,39.9987204 L6.14600881,39.9987204 C5.60238309,40.0009557 5.08062827,39.7899182 4.69799064,39.4130134 C4.31445069,39.0380929 4.09868698,38.5301545 4.09789968,38.0003452 L4.09789968,2.00345215 C4.09594846,1.47280412 4.31210873,0.963553897 4.69799064,0.589734002 C5.08161141,0.213773061 5.60237399,0.00170190135 6.14600881,5.79293855e-06 L23.7453466,5.79293855e-06 C24.2905726,-0.00366661263 24.8148186,0.204933886 25.2019711,0.579654002 L36.2901757,11.4040899 C36.6734348,11.7824088 36.886776,12.2939824 36.8831985,12.825998 L36.8831985,38.0003452 Z" id="路径" fill="#EBECF0"></path>
                        <path d="M36.8831671,38.0003452 L36.8831671,40.0005926 C36.8851744,40.5312102 36.6690935,41.0404561 36.2832906,41.4143108 C35.8990012,41.7888083 35.378321,41.9994111 34.8352724,42 L6.14600881,42 C5.01330567,41.9987253 4.09574462,41.1021469 4.09574462,39.9966026 L4.09574462,37.9982452 C4.09355364,38.5286319 4.30977349,39.0376441 4.69583905,39.4109134 C5.08012841,39.7854109 5.60080858,39.9960137 6.14385722,39.9966026 L34.8309692,39.9966026 C35.962413,39.9949828 36.8791491,39.10004 36.8805712,37.9957252 L36.8831671,38.0003452 Z" id="路径" fill="#C1C7D0"></path>
                        <path d="M0,22.0017261 L40.9791296,22.0017261 L40.9791296,32.003383 C40.9773637,33.1071487 40.0625527,34.0022766 38.9316792,34.0067925 L2.0526142,34.0067925 C1.50898483,34.0086356 0.987273129,33.7977539 0.604165669,33.4213012 C0.217809797,33.0457475 0.000432803208,32.5355848 0,32.003383 L0,22.0017261 Z" id="路径" fill="#6AE5B9"></path>
                        <g id="RMVB" transform="translate(3.442544, 24.150000)" fill="#FFFFFF">
                            <path d="M0,7.51611325 L0,0 L3.96594345,0 C4.70135019,0 5.26341105,0.0615234373 5.65212604,0.184570312 C6.04084102,0.307617186 6.35426437,0.5357666 6.59239607,0.869018552 C6.83052778,1.2022705 6.94959363,1.60815429 6.94959363,2.08666991 C6.94959363,2.5036621 6.85854327,2.86340331 6.67644256,3.16589354 C6.49434184,3.46838378 6.24395336,3.71362303 5.92527711,3.90161131 C5.72216477,4.02124022 5.44376079,4.12036131 5.09006518,4.19897459 C5.37372206,4.29125975 5.58033633,4.38354491 5.70990799,4.47583006 C5.79745641,4.5373535 5.92440162,4.6689453 6.09074362,4.87060545 C6.25708562,5.07226561 6.36827212,5.22778318 6.42430311,5.33715818 L7.57468935,7.51611325 L4.88520187,7.51611325 L3.6139988,5.21923826 C3.45290971,4.92187498 3.3093303,4.72875975 3.18326057,4.63989256 C3.01166567,4.52368162 2.81730818,4.46557616 2.60018809,4.46557616 L2.39007188,4.46557616 L2.39007188,7.51611325 L0,7.51611325 Z M2.39007188,3.04541015 L3.39337678,3.04541015 C3.50193683,3.04541015 3.71205303,3.01123046 4.02372541,2.94287108 C4.18131257,2.91210936 4.31000875,2.83349608 4.40981395,2.70703124 C4.50961915,2.5805664 4.55952175,2.43530273 4.55952175,2.27124023 C4.55952175,2.02856445 4.48072817,1.84228515 4.32314101,1.71240234 C4.16555385,1.58251953 3.86964019,1.51757812 3.43540003,1.51757812 L2.39007188,1.51757812 L2.39007188,3.04541015 Z" id="R"></path>
                            <polygon id="M" points="8.31009609 0 11.4408276 0 12.6489958 4.57324217 13.8519111 0 16.9721368 0 16.9721368 7.51611325 15.0285619 7.51611325 15.0285619 1.78417968 13.5209781 7.51611325 11.7612548 7.51611325 10.2589239 1.78417968 10.2589239 7.51611325 8.31009609 7.51611325"></polygon>
                            <polygon id="V" points="17.7285552 0 20.2184323 0 21.951891 5.40893553 23.6590852 0 26.0754216 0 23.2178412 7.51611325 20.6386647 7.51611325"></polygon>
                            <path d="M26.8633574,0 L31.317821,0 C32.0602316,0 32.6301719,0.179443359 33.0276417,0.538330076 C33.4251115,0.897216794 33.6238464,1.34155273 33.6238464,1.87133788 C33.6238464,2.31567382 33.482018,2.69677733 33.1983611,3.01464843 C33.0092565,3.22656249 32.7326035,3.39404296 32.3684021,3.51708983 C32.9217081,3.64697264 33.3288083,3.8699951 33.5897025,4.18615721 C33.8505968,4.50231932 33.981044,4.89965819 33.981044,5.37817381 C33.981044,5.76782224 33.8882427,6.11816404 33.70264,6.4291992 C33.5170374,6.74023435 33.2631469,6.9863281 32.9409687,7.16748044 C32.7413583,7.28027341 32.4401918,7.36230466 32.037469,7.41357419 C31.5016727,7.48193357 31.1462261,7.51611325 30.9711293,7.51611325 L26.8633574,7.51611325 L26.8633574,0 Z M29.2639351,2.94799804 L30.2987574,2.94799804 C30.6699627,2.94799804 30.9282306,2.88562011 31.0735609,2.76086425 C31.2188913,2.63610839 31.2915565,2.45581054 31.2915565,2.2199707 C31.2915565,2.0012207 31.2188913,1.83032226 31.0735609,1.70727538 C30.9282306,1.58422851 30.6752156,1.52270507 30.3145161,1.52270507 L29.2639351,1.52270507 L29.2639351,2.94799804 Z M29.2639351,5.90112303 L30.4773562,5.90112303 C30.8870828,5.90112303 31.1759926,5.83020017 31.3440856,5.68835447 C31.5121785,5.54650877 31.596225,5.35595701 31.596225,5.1166992 C31.596225,4.89453123 31.513054,4.71594237 31.346712,4.5809326 C31.18037,4.44592284 30.8888338,4.37841795 30.4721033,4.37841795 L29.2639351,4.37841795 L29.2639351,5.90112303 Z" id="B"></path>
                        </g>
                        <path d="M4.10006454,22.0013061 L4.10006454,17.9999713 L0,22.0013061 L4.10006454,22.0013061 Z M36.8831531,22.0013061 L36.9220968,17.9999713 L41,22.0013061 L36.8831531,22.0013061 Z" id="形状" fill="#3F896F"></path>
                        <path d="M36.8831531,12.822638 L36.8831531,13.1040377 L25.7960243,13.1040377 C24.6623968,13.1040377 23.7434101,12.2070861 23.7434101,11.1006403 L23.7434101,0 C24.2885527,-0.00388048753 24.8128033,0.204495112 25.2000347,0.579024002 L36.3054519,11.3969499 C36.6809216,11.7803746 36.8876027,12.2920757 36.8812166,12.822428 L36.8831531,12.822638 Z" id="路径" fill="#C1C7D0"></path>
                    </g>
                </g>
            </g>
        </g>
    </g>
</svg>