<?xml version="1.0" encoding="UTF-8"?>
<svg width="24px" height="24px" viewBox="0 0 24 24" version="1.1" xmlns="http://www.w3.org/2000/svg" xmlns:xlink="http://www.w3.org/1999/xlink">
    <g id="直播列表-原型修改" stroke="none" stroke-width="1" fill="none" fill-rule="evenodd">
        <g id="4-1.2-运营直播间-公共" transform="translate(-600.000000, -763.000000)" fill="#333333">
            <g id="编组-59" transform="translate(340.000000, 69.000000)">
                <g id="编组-60" transform="translate(0.000000, 84.000000)">
                    <g id="操作栏1" transform="translate(0.000000, 540.000000)">
                        <g id="编组-29" transform="translate(260.000000, 70.000000)">
                            <path d="M22,13.2 L2,13.2 C0.8954305,13.2 0,14.0058875 0,15 L0,22 C0,22.9941125 0.8954305,23.8 2,23.8 L22,23.8 C23.1045695,23.8 24,22.9941125 24,22 L24,15 C24,14.0058875 23.1045695,13.2 22,13.2 Z M2,14.8 L22,14.8 C22.1227299,14.8 22.2222222,14.8895431 22.2222222,15 L22.2222222,22 C22.2222222,22.1104569 22.1227299,22.2 22,22.2 L2,22.2 C1.87727006,22.2 1.77777778,22.1104569 1.77777778,22 L1.77777778,15 C1.77777778,14.8895431 1.87727006,14.8 2,14.8 Z" id="矩形" fill-rule="nonzero"></path>
                            <path d="M7.788,21.254 C8.478,20.984 9.06,20.684 9.534,20.354 C10.026,20.666 10.638,20.96 11.364,21.224 L11.658,20.684 C11.016,20.468 10.464,20.234 10.008,19.982 C10.452,19.586 10.746,19.142 10.902,18.65 L10.902,18.17 L8.502,18.17 C8.562,17.99 8.628,17.804 8.688,17.606 L11.58,17.606 L11.58,17.06 L8.832,17.06 C8.934,16.646 9.024,16.202 9.096,15.728 L8.514,15.656 C8.442,16.148 8.352,16.616 8.238,17.06 L7.35,17.06 L7.662,15.95 L7.092,15.854 L6.618,17.606 L8.082,17.606 C7.674,18.866 7.056,19.862 6.228,20.594 L6.522,21.122 C7.176,20.594 7.722,19.886 8.154,18.998 C8.346,19.352 8.64,19.688 9.03,20 C8.604,20.258 8.088,20.498 7.488,20.714 L7.788,21.254 Z M10.74,17.018 L11.148,16.61 C10.866,16.292 10.518,15.974 10.104,15.662 L9.72,16.04 C10.164,16.382 10.5,16.706 10.74,17.018 Z M9.504,19.67 C9.078,19.37 8.766,19.04 8.568,18.686 L10.326,18.686 C10.158,19.034 9.882,19.364 9.504,19.67 Z M14.424,20.288 C15.288,19.82 15.81,19.232 15.99,18.536 L17.592,18.536 L17.592,17.996 L16.098,17.996 C16.122,17.774 16.14,17.522 16.146,17.24 L17.388,17.24 L17.388,16.712 L16.704,16.712 C16.854,16.448 16.992,16.154 17.118,15.824 L16.578,15.638 C16.446,16.022 16.296,16.376 16.128,16.712 L15.216,16.712 L15.552,16.544 C15.39,16.232 15.216,15.95 15.036,15.692 L14.526,15.938 C14.706,16.166 14.874,16.424 15.03,16.712 L14.322,16.712 L14.322,17.24 L15.588,17.24 C15.582,17.522 15.564,17.774 15.528,17.996 L14.118,17.996 L14.118,18.536 L15.39,18.536 C15.192,19.064 14.748,19.496 14.064,19.832 L14.424,20.288 Z M13.422,17.084 L13.836,16.676 C13.56,16.364 13.218,16.052 12.816,15.74 L12.42,16.118 C12.852,16.466 13.188,16.784 13.422,17.084 Z M12.72,21.242 C13.026,20.702 13.242,20.432 13.368,20.432 C13.44,20.432 13.512,20.48 13.596,20.582 C13.776,20.786 13.986,20.93 14.226,21.002 C14.478,21.062 14.796,21.098 15.186,21.104 C15.57,21.11 15.93,21.116 16.26,21.116 L17.628,21.116 L17.766,20.552 C17.604,20.564 17.37,20.576 17.07,20.582 C16.77,20.588 16.47,20.594 16.176,20.594 C15.708,20.594 15.306,20.588 14.964,20.582 C14.61,20.57 14.346,20.516 14.166,20.432 C14.016,20.354 13.872,20.234 13.734,20.072 C13.704,20.036 13.674,20.006 13.644,19.982 L13.644,17.714 L12.306,17.714 L12.306,18.242 L13.11,18.242 L13.11,19.94 C12.87,20.06 12.6,20.366 12.3,20.852 L12.72,21.242 Z M17.196,20.306 L17.592,19.874 C17.202,19.496 16.77,19.142 16.29,18.818 L15.954,19.196 C16.386,19.508 16.8,19.88 17.196,20.306 Z" id="发送" fill-rule="nonzero"></path>
                            <g id="编组-52" transform="translate(3.000000, 0.000000)">
                                <path d="M14,2.4 L4,2.4 C3.00588745,2.4 2.2,3.20588745 2.2,4.2 L2.2,10.2 C2.2,11.1941125 3.00588745,12 4,12 L14,12 C14.9941125,12 15.8,11.1941125 15.8,10.2 L15.8,4.2 C15.8,3.20588745 14.9941125,2.4 14,2.4 Z M4,4 L14,4 C14.1104569,4 14.2,4.08954305 14.2,4.2 L14.2,10.2 C14.2,10.3104569 14.1104569,10.4 14,10.4 L4,10.4 C3.88954305,10.4 3.8,10.3104569 3.8,10.2 L3.8,4.2 C3.8,4.08954305 3.88954305,4 4,4 Z" id="矩形" fill-rule="nonzero"></path>
                                <g id="编组-35" transform="translate(8.000000, 0.000000)">
                                    <rect id="矩形" x="0.6" y="1.8" width="1" height="1"></rect>
                                    <circle id="椭圆形" cx="1" cy="1" r="1"></circle>
                                </g>
                                <rect id="矩形备份-3" x="0" y="5.7" width="1.2" height="3" rx="0.4"></rect>
                                <rect id="矩形备份-4" x="16.8" y="5.7" width="1.2" height="3" rx="0.4"></rect>
                                <circle id="椭圆形备份" cx="6.6" cy="7.2" r="1"></circle>
                                <circle id="椭圆形备份-2" cx="11.4" cy="7.2" r="1"></circle>
                            </g>
                        </g>
                    </g>
                </g>
            </g>
        </g>
    </g>
</svg>