<svg xmlns="http://www.w3.org/2000/svg" xmlns:xlink="http://www.w3.org/1999/xlink" version="1.1" width="24" height="24" viewBox="0 0 24 24"><g><g><g><path d="M13,11.44727L13,7.72364C13,5.68727,14.68727,4,16.75273,4C18.818179999999998,4,20.50545,5.68727,20.50545,7.72364C20.50545,9.76,18.818179999999998,11.44727,16.75273,11.44727L13,11.44727ZM19.34224,7.7237C19.34224,6.32733,18.17861,5.1637,16.75315,5.1637C15.35679,5.1637,14.19315,6.32733,14.16406,7.7237L14.16406,10.2837L16.75315,10.2837C18.17861,10.2837,19.34224,9.120059999999999,19.34224,7.7237Z" fill-rule="evenodd"  fill-opacity="1"/></g><g transform="matrix(1,0,0,-1,0,40.89453125)"><path d="M13,27.894535625L13,24.170905625C13,22.134535625,14.68727,20.447265625,16.75273,20.447265625C18.818179999999998,20.447265625,20.50545,22.134535625,20.50545,24.170905625C20.50545,26.207265624999998,18.818179999999998,27.894535625,16.75273,27.894535625L13,27.894535625ZM19.34224,24.170965625C19.34224,22.774595625,18.17861,21.610965625,16.75315,21.610965625C15.35679,21.610965625,14.19315,22.774595625,14.16406,24.170965625L14.16406,26.730965625L16.75315,26.730965625C18.17861,26.730965625,19.34224,25.567325625,19.34224,24.170965625Z" fill-rule="evenodd" fill-opacity="1"/></g><g transform="matrix(-1,0,0,1,23.01090908050537,0)"><path d="M11.505454540252686,11.44727L11.505454540252686,7.72364C11.505454540252686,5.68727,13.192724540252685,4,15.258184540252685,4C17.323634540252684,4,19.010904540252685,5.68727,19.010904540252685,7.72364C19.010904540252685,9.76,17.323634540252684,11.44727,15.258184540252685,11.44727L11.505454540252686,11.44727ZM17.847694540252686,7.7237C17.847694540252686,6.32733,16.684064540252685,5.1637,15.258604540252685,5.1637C13.862244540252686,5.1637,12.698604540252685,6.32733,12.669514540252685,7.7237L12.669514540252685,10.2837L15.258604540252685,10.2837C16.684064540252685,10.2837,17.847694540252686,9.120059999999999,17.847694540252686,7.7237Z" fill-rule="evenodd" fill-opacity="1"/></g><g transform="matrix(-1,0,0,-1,23.01090908050537,40.89454650878906)"><path d="M11.505454540252686,27.89454325439453L11.505454540252686,24.17091325439453C11.505454540252686,22.134543254394533,13.192724540252685,20.44727325439453,15.258184540252685,20.44727325439453C17.323634540252684,20.44727325439453,19.010904540252685,22.134543254394533,19.010904540252685,24.17091325439453C19.010904540252685,26.20727325439453,17.323634540252684,27.89454325439453,15.258184540252685,27.89454325439453L11.505454540252686,27.89454325439453ZM17.847694540252686,24.170973254394532C17.847694540252686,22.77460325439453,16.684064540252685,21.61097325439453,15.258604540252685,21.61097325439453C13.862244540252686,21.61097325439453,12.698604540252685,22.77460325439453,12.669514540252685,24.170973254394532L12.669514540252685,26.73097325439453L15.258604540252685,26.73097325439453C16.684064540252685,26.73097325439453,17.847694540252686,25.56733325439453,17.847694540252686,24.170973254394532Z" fill-rule="evenodd"  fill-opacity="1"/></g></g><g></g></g></svg>
