<?xml version="1.0" encoding="UTF-8"?>
<svg width="40px" height="40px" viewBox="0 0 40 40" version="1.1" xmlns="http://www.w3.org/2000/svg" xmlns:xlink="http://www.w3.org/1999/xlink">
    <title>编组 12</title>
    <g id="直播1.7.1" stroke="none" stroke-width="1" fill="none" fill-rule="evenodd">
        <g id="3-1签到设置" transform="translate(-1154.000000, -548.000000)">
            <g id="编组-12" transform="translate(1154.000000, 548.000000)">
                <g id="系统消息备份" fill="#FF9B29">
                    <rect id="矩形" x="0" y="0" width="40" height="40" rx="20"></rect>
                </g>
                <g id="编组-72" transform="translate(8.000000, 8.000000)">
                    <rect id="矩形" x="0" y="0" width="24" height="24"></rect>
                    <g id="编组-5" transform="translate(2.000000, 1.250000)">
                        <rect id="矩形" stroke="#FFFFFF" stroke-width="1.5" x="0" y="4" width="20" height="17" rx="2"></rect>
                        <path d="M5.75,0 C6.16421356,-7.6089797e-17 6.5,0.335786438 6.5,0.75 L6.5,7.25 C6.5,7.66421356 6.16421356,8 5.75,8 C5.33578644,8 5,7.66421356 5,7.25 L5,0.75 C5,0.335786438 5.33578644,7.6089797e-17 5.75,0 Z M14.25,0 C14.6642136,-7.6089797e-17 15,0.335786438 15,0.75 L15,7.25 C15,7.66421356 14.6642136,8 14.25,8 C13.8357864,8 13.5,7.66421356 13.5,7.25 L13.5,0.75 C13.5,0.335786438 13.8357864,7.6089797e-17 14.25,0 Z" id="形状结合" fill="#FFFFFF"></path>
                        <rect id="矩形" stroke="#FFFFFF" x="0.5" y="10.5" width="19" height="1"></rect>
                        <path d="M14,16 L7,16 C6.44771525,16 6,15.5522847 6,15 L6,12 L6,12" id="路径" stroke="#FFFFFF" stroke-width="1.5" stroke-linecap="round" stroke-linejoin="round" transform="translate(10.000000, 14.000000) rotate(-45.000000) translate(-10.000000, -14.000000) "></path>
                    </g>
                </g>
            </g>
        </g>
    </g>
</svg>