<?xml version="1.0" encoding="UTF-8"?>
<svg width="20px" height="20px" viewBox="0 0 20 20" version="1.1" xmlns="http://www.w3.org/2000/svg" xmlns:xlink="http://www.w3.org/1999/xlink">
    <title>编组</title>
    <g id="自媒体运营" stroke="none" stroke-width="1" fill="none" fill-rule="evenodd" fill-opacity="0.899999976">
        <g id="剪辑工作台-我的工程" transform="translate(-510.000000, -202.000000)" fill="#000000">
            <g id="编组-69" transform="translate(252.000000, 90.000000)">
                <g id="编组-5" transform="translate(16.000000, 106.000000)">
                    <g id="search" transform="translate(242.000000, 6.000000)">
                        <path d="M8.14279556,14.0980256 C4.8537764,14.0980256 2.1875,11.4317635 2.1875,8.14276281 C2.1875,4.85376213 4.8537764,2.1875 8.14279556,2.1875 C11.4318147,2.1875 14.0980911,4.85376213 14.0980911,8.14276281 C14.0980911,9.5617709 13.6017884,10.8648618 12.7732956,11.8879226 L17.1875,16.3021038 L16.3021326,17.1874771 L11.8879169,12.7732851 C10.8648591,13.6017443 9.56178412,14.0980256 8.14279556,14.0980256 Z M8.14279556,3.43960243 C5.54528743,3.43960243 3.43960255,5.54528532 3.43960255,8.14276281 C3.43960255,10.74024 5.54528743,12.8459229 8.14279556,12.8459229 C10.7403034,12.8459229 12.8459883,10.74024 12.8459883,8.14276281 C12.8459883,5.54528532 10.7403034,3.43960243 8.14279556,3.43960243 Z"></path>
                    </g>
                </g>
            </g>
        </g>
    </g>
</svg>