<?xml version="1.0" encoding="UTF-8"?>
<svg width="20px" height="20px" viewBox="0 0 20 20" version="1.1" xmlns="http://www.w3.org/2000/svg" xmlns:xlink="http://www.w3.org/1999/xlink">
    <title>分享</title>
    <g id="运营直播间" stroke="none" stroke-width="1" fill="none" fill-rule="evenodd">
        <g id="图标/状态" transform="translate(-348.000000, -221.000000)" fill="#0C6FFF" fill-rule="nonzero">
            <g id="分享" transform="translate(348.000000, 221.000000)">
                <path d="M10,0 C10.4360143,0 10.7894737,0.353459409 10.7894737,0.789473687 C10.7894737,1.22548796 10.4360143,1.57894737 10,1.57894737 L3.94736841,1.57894737 C2.64052639,1.58184184 1.58184184,2.64052639 1.57894737,3.94736841 L1.57894737,16.0526316 C1.58184184,17.3594736 2.64052639,18.4181582 3.94736841,18.4210526 L16.0526316,18.4210526 C17.3594736,18.4181582 18.4181582,17.3594736 18.4210526,16.0526316 L18.4210526,10 C18.4210526,9.56398572 18.774512,9.21052631 19.2105263,9.21052631 C19.6465406,9.21052631 20,9.56398572 20,10 L20,16.0526316 C19.9971006,18.2315009 18.2315009,19.9971006 16.0526316,20 L3.94736841,20 C1.76849913,19.9971006 0.00289937323,18.2315009 0,16.0526316 L0,3.94736841 C0.00289937323,1.76849913 1.76849913,0.00289937323 3.94736841,0 L10,0 Z M19.2105263,0 C19.6465406,0 20,0.353459409 20,0.789473687 L20,5 C20,5.43601428 19.6465406,5.78947369 19.2105263,5.78947369 C18.774512,5.78947369 18.4210526,5.43601428 18.4210526,5 L18.421,2.694 L10.2947368,10.8210526 C10.146499,10.9686639 9.94603808,11.0518741 9.7368421,11.0526316 C9.52764612,11.0518741 9.32718517,10.9686639 9.17894736,10.8210526 C9.02980417,10.673719 8.9458626,10.4728026 8.9458626,10.2631579 C8.9458626,10.0535132 9.02980417,9.85259679 9.17894736,9.70526316 L17.305,1.578 L15,1.57894737 C14.5639857,1.57894737 14.2105263,1.22548796 14.2105263,0.789473687 C14.2105263,0.353459414 14.5639857,0 15,0 L19.2105263,0 L19.2105263,0 Z" id="形状结合"></path>
            </g>
        </g>
    </g>
</svg>