<svg xmlns="http://www.w3.org/2000/svg" xmlns:xlink="http://www.w3.org/1999/xlink" version="1.1" width="24" height="24" viewBox="0 0 24 24"><g><g><g><g></g></g><g><path d="M7.170730113983154,10.34688150604248C7.170730113983154,7.50201150604248,9.448990113983154,5.1858015060424805,12.248820113983154,5.1858015060424805C15.048650113983154,5.1858015060424805,17.326930113983153,7.50201150604248,17.324530113983155,10.34688150604248C17.324530113983155,13.19173150604248,15.048670113983153,15.505601506042481,12.248820113983154,15.505601506042481C9.448980113983154,15.505601506042481,7.170730113983154,13.19175150604248,7.170730113983154,10.34688150604248ZM8.042803113983155,10.34686150604248C8.042803113983155,12.70574150604248,9.927530113983154,14.623661506042481,12.248480113983154,14.623661506042481C14.567050113983154,14.623661506042481,16.456510113983157,12.70574150604248,16.454130113983155,10.34688150604248C16.454130113983155,7.9880015060424805,14.569420113983155,6.0700785060424804,12.248480113983154,6.0700785060424804C9.927530113983154,6.0700785060424804,8.040427113983155,7.99038150604248,8.042803113983155,10.34686150604248Z" fill-rule="evenodd" fill-opacity="1"/></g><g><path d="M6.44482,8.516670000000001L6.44482,12.41178L6.4448,12.41178C5.30448,12.41178,4.415462,11.43742,4.413086,10.28998C4.413086,9.4626,4.887234,8.74663,5.57712,8.41474C6.26937,5.24508,8.9957,3,12.2602,3C15.5271,3,18.2558,5.24982,18.943199999999997,8.421859999999999C19.6284,8.76087,20.0954,9.46735,20.0954,10.28999C20.0954,11.43743,19.211199999999998,12.36911,18.0519,12.36911L18.0519,8.42897C17.3881,5.75716,15.0505,3.881921,12.26018,3.881921C9.43902,3.881921,7.07779,5.79985,6.44482,8.516670000000001ZM16.895400000000002,14.6284L17.1633,14.773C19.384700000000002,15.9655,20.3164,17.4045,20.4989,19.9033C20.5155,20.1475,20.3354,20.3608,20.0959,20.3774C19.8565,20.3964,19.6478,20.2115,19.6313,19.9673C19.4795,17.866799999999998,18.7849,16.7218,17.014,15.7024C15.7836,16.709899999999998,14.0672,17.2813,12.25118,17.2813C10.43758,17.2813,8.72117,16.709899999999998,7.4884,15.7024C5.71511,16.7194,5.02284,17.866799999999998,4.871118,19.9673C4.85452,20.1996,4.662488,20.3774,4.437277,20.3774C4.425431,20.3774,4.415944,20.375,4.404081,20.375C4.164648,20.3561,3.9844625,20.1451,4.00106055,19.9009C4.181246,17.4045,5.1152999999999995,15.9679,7.336679999999999,14.773L7.60457,14.6284L7.83216,14.8347C8.91794,15.8233,10.5277,16.392200000000003,12.2512,16.392200000000003C13.9747,16.392200000000003,15.5844,15.8256,16.6702,14.8347L16.895400000000002,14.6284Z" fill-rule="evenodd" fill-opacity="1"/></g></g></g></svg>
