<?xml version="1.0" encoding="UTF-8"?>
<svg width="80px" height="92px" viewBox="0 0 80 92" version="1.1" xmlns="http://www.w3.org/2000/svg" xmlns:xlink="http://www.w3.org/1999/xlink">
    <defs>
        <filter x="-62.5%" y="-62.5%" width="225.0%" height="225.0%" filterUnits="objectBoundingBox" id="filter-1">
            <feGaussianBlur stdDeviation="10" in="SourceGraphic"></feGaussianBlur>
        </filter>
    </defs>
    <g id="自媒体运营2.0" stroke="none" stroke-width="1" fill="none" fill-rule="evenodd">
        <g id="云桌面管理" transform="translate(-1127.000000, -148.000000)">
            <g id="编组-43" transform="translate(272.000000, 108.000000)">
                <g id="编组-25" transform="translate(0.000000, 40.000000)">
                    <g id="编组-15" transform="translate(855.000000, 0.000000)">
                        <g id="编组-13" transform="translate(16.000000, 22.000000)">
                            <circle id="椭圆形" fill-opacity="0.2" fill="#F53F3F" filter="url(#filter-1)" cx="24" cy="24" r="24"></circle>
                            <circle id="椭圆形" fill-opacity="0.2" fill="#F53F3F" cx="24" cy="24" r="24"></circle>
                            <g id="编组" transform="translate(8.000000, 11.000000)" fill-rule="nonzero">
                                <path d="M27.4179511,20.9301389 L4.50806416,20.9301389 C1.99544297,20.9301389 0,18.9745406 0,16.5123781 L0,4.41776071 C0,1.95524668 1.99544297,0 4.50806416,0 L27.4919358,0 C30.0049144,0 32,1.95559822 32,4.41776071 L32,16.5123781 C32,18.9748922 29.9305723,20.9301389 27.4179511,20.9301389 Z" id="路径" fill="#F53F3F"></path>
                                <g transform="translate(10.000000, 3.500000)" fill="#FFFFFF" id="形状">
                                    <path d="M11.2053845,9.09999836 L11.9912196,13.3784005 C12.0178887,13.5238638 11.9831784,13.6740614 11.8956333,13.7920194 C11.8080881,13.9099774 11.6758401,13.9847389 11.5314444,13.9979 L11.4858333,14 L8.2286737,14 L8.2286737,10.4999918 L8.22626297,10.4495918 C8.19973725,10.1709072 7.96363666,9.96251488 7.68966821,9.97597074 C7.41569975,9.98942661 7.20028794,10.2199948 7.20009362,10.4999918 L7.20009362,14 L4.80006271,14 L4.80006271,10.4999918 L4.79766805,10.4495918 C4.77114233,10.1709072 4.53504174,9.96251488 4.26107329,9.97597074 C3.98710483,9.98942661 3.77169302,10.2199948 3.7714987,10.4999918 L3.7714987,14 L0.514307011,14 C0.36925601,14 0.230947755,13.9374799 0.13346413,13.827834 C0.0359805048,13.7181881 -0.0116129863,13.5716173 0.00241163244,13.4242395 L0.00892061578,13.3784005 L0.794771871,9.09999836 L11.2053845,9.09999836 Z M7.02865825,0 C7.59672734,0 8.05723833,0.470100645 8.05723833,1.04999918 L8.05723833,4.55000738 L10.8001239,4.55000738 C11.368193,4.55000738 11.828704,5.02010803 11.828704,5.60000656 L11.828704,7.34999426 C11.828704,7.83440482 11.5070959,8.24249356 11.0699494,8.3636044 L11.076812,8.39999344 L0.923344381,8.39999344 L0.930206939,8.3636044 C0.48225062,8.23916114 0.171468412,7.82390909 0.171468412,7.34999426 L0.171468412,5.60000656 C0.171468412,5.02010803 0.631979401,4.55000738 1.20004849,4.55000738 L3.942918,4.55000738 L3.942918,1.04999918 C3.942918,0.470100645 4.40342899,0 4.97149808,0 L7.02865825,0 Z"></path>
                                </g>
                                <path d="M23.7226467,26 L8.20336863,26 C7.61220569,26 7.09467006,25.4930842 7.09467006,24.9137518 C7.09467006,24.3344195 7.61184828,23.8275037 8.20336863,23.8275037 L23.7969888,23.8275037 C24.3881517,23.8275037 24.9056874,24.3344195 24.9056874,24.9137518 C24.9053299,25.4927327 24.3881517,26 23.7226467,26 Z" id="路径" fill="#F57171"></path>
                            </g>
                        </g>
                    </g>
                </g>
            </g>
        </g>
    </g>
</svg>