<?xml version="1.0" encoding="UTF-8"?>
<svg width="38px" height="38px" viewBox="0 0 38 38" version="1.1" xmlns="http://www.w3.org/2000/svg" xmlns:xlink="http://www.w3.org/1999/xlink">
    <title>shipinshengcheng_icon</title>
    <g id="自媒体运营-1.1.2" stroke="none" stroke-width="1" fill="none" fill-rule="evenodd">
        <g id="任务中心-视频生成、" transform="translate(-810.000000, -194.000000)">
            <g id="编组-83" transform="translate(775.000000, 53.000000)">
                <g id="编组-2备份" transform="translate(0.000000, 30.000000)">
                    <g id="编组-79备份-3" transform="translate(20.000000, 96.000000)">
                        <g id="编组-78" transform="translate(8.000000, 8.000000)">
                            <g id="编组-102" transform="translate(7.000000, 7.000000)">
                                <rect id="矩形" x="0" y="0" width="38" height="38"></rect>
                                <g id="编组" transform="translate(2.000000, 3.000000)" fill="#6BB3FB">
                                    <path d="M14.8565217,5.8181818 L9.8304348,0 L4.13913044,0 L9.16521741,5.8181818 L14.8565217,5.8181818 Z M29.6391304,5.8181818 L24.6130435,0 L18.9217391,0 L23.9478261,5.8181818 L29.6391304,5.8181818 Z M22.2478261,5.8181818 L17.2217391,0 L11.5304348,0 L16.5565217,5.8181818 L22.2478261,5.8181818 Z M31.7826087,0 L26.3130435,0 L31.3391304,5.8181818 L34,5.8181818 L34,2.18181818 C34,0.945454535 33.0391304,0 31.7826087,0 Z M2.43913043,0 L2.2173913,0 C0.960869588,0 0,0.945454535 0,2.18181818 L0,5.8181818 L7.4652174,5.8181818 L2.43913043,0 Z M0,29.8181818 C0,31.0545455 0.960869553,32 2.2173913,32 L31.7826087,32 C33.0391304,32 34,31.0545455 34,29.8181818 L34,7.27272727 L0,7.27272727 L0,29.8181818 Z M11.826087,13.8181818 C11.826087,12.5818182 12.8608696,12 14.0434783,12 C14.4130435,12 14.8565218,12.0727273 15.226087,12.2909091 L23.6521739,17.0909091 C25.1304348,17.8909091 25.1304348,19.9272727 23.6521739,20.7272727 L15.226087,25.5272727 C14.8565217,25.7454546 14.4869565,25.8181818 14.0434783,25.8181818 C12.8608696,25.8181818 11.826087,25.2363636 11.826087,24 L11.826087,13.8181818 Z" id="形状"></path>
                                </g>
                            </g>
                        </g>
                    </g>
                </g>
            </g>
        </g>
    </g>
</svg>