<?xml version="1.0" encoding="UTF-8"?>
<svg width="20px" height="20px" viewBox="0 0 20 20" version="1.1" xmlns="http://www.w3.org/2000/svg" xmlns:xlink="http://www.w3.org/1999/xlink">
    <defs>
        <polygon id="path-1" points="0 0 14 0 14 12 0 12"></polygon>
    </defs>
    <g id="订单机构入驻" stroke="none" stroke-width="1" fill="none" fill-rule="evenodd">
        <g id="直播排班管理" transform="translate(-790.000000, -507.000000)">
            <g id="编组-136" transform="translate(247.000000, 89.000000)">
                <g id="编组-10备份" transform="translate(20.000000, 196.000000)">
                    <g id="编组-4备份-2" transform="translate(0.000000, 195.000000)">
                        <g id="编组-7" transform="translate(523.000000, 26.000000)">
                            <g id="编组-2" transform="translate(0.000000, 1.000000)">
                                <circle id="椭圆形" stroke="#FFFFFF" stroke-width="0.5" fill="#FA9D3B" cx="10" cy="10" r="9.75"></circle>
                                <g id="编组" transform="translate(3.000000, 4.000000)">
                                    <mask id="mask-2" fill="white">
                                        <use xlink:href="#path-1"></use>
                                    </mask>
                                    <g id="Clip-2"></g>
                                    <path d="M6.17385705,7.40120753 C5.97365164,7.77909374 5.62583127,8.40067519 5.20580338,9.00639645 C4.53548396,9.97276459 4.07163071,10.3427897 3.80492205,10.4838764 C3.68374143,10.5478688 3.53501344,10.5088389 3.45918859,10.3953352 C3.15686312,9.94352668 2.57753351,8.75359885 2.04244665,6.64529719 C1.47174298,4.39673631 1.28099828,2.3284299 1.5785934,1.61541103 C1.62547958,1.50301056 1.76085127,1.45694706 1.86644954,1.51859492 C2.26964292,1.75373945 3.27136559,2.6103275 5.16559535,5.72747502 C5.59202313,6.42932281 5.95932144,7.04207771 6.17385705,7.40120753 M11.9575534,6.64529719 C11.4331794,8.71208653 10.8659539,9.89622194 10.560985,10.3666489 C10.468743,10.5088389 10.2782766,10.5481446 10.1334442,10.4589138 C9.56649697,10.1095759 8.63433837,8.96984906 7.82405603,7.4046554 C8.03817425,7.04607724 8.40658559,6.43166736 8.83440465,5.72747502 C10.7346169,2.60053556 11.7371744,1.74849869 12.1367504,1.51638829 C12.244853,1.45377503 12.3722944,1.49776981 12.4204327,1.61223899 L12.4216849,1.61554894 C12.7190017,2.3284299 12.528257,4.39673631 11.9575534,6.64529719 M13.7543934,1.06913099 C13.3916863,0.199441043 12.7852267,0.0284268444 12.455493,0.00387803203 C11.2256002,-0.0867319104 9.77685874,1.4056428 7.59880756,4.98990733 C7.37968072,5.35041629 7.17613624,5.68775559 7,5.98041054 C6.82483766,5.68927265 6.62157143,5.35248501 6.40119244,4.98990733 C4.22272388,1.4046774 2.76772169,-0.0861802517 1.54436787,0.00387803203 C1.21491241,0.0284268444 0.60845281,0.199441043 0.245606596,1.06913099 C-0.254837358,2.26843702 0.12122603,4.61477941 0.390021615,5.90662618 C0.795858427,7.85742928 1.44934335,9.80023333 2.05496818,10.8565218 C2.45774417,11.5589213 2.86038104,11.9172236 3.32200824,11.9839743 C3.39602441,11.9947317 3.47143187,12.0001103 3.54614369,12.0001103 C4.90973868,12.0001103 6.2082217,10.2349404 6.99986087,8.88985855 C7.79150004,10.2349404 9.08984393,12.0001103 10.4538563,12.0001103 C10.5285681,12.0001103 10.6041147,11.9947317 10.67827,11.9839743 C11.139619,11.9172236 11.5422558,11.5589213 11.9450318,10.8565218 C12.5506567,9.80037124 13.2041416,7.85742928 13.6099784,5.90662618 C13.878774,4.61477941 14.2548374,2.26857493 13.7543934,1.06913099" id="Fill-1" fill="#FFFFFF" mask="url(#mask-2)"></path>
                                </g>
                            </g>
                        </g>
                    </g>
                </g>
            </g>
        </g>
    </g>
</svg>