<svg xmlns="http://www.w3.org/2000/svg" fill="none" viewBox="0 0 20 20" class="design-iconfont">
  <path stroke="currentColor" d="M13.7759 17.7772C14.0386 17.8974 14.3287 17.9429 14.6155 17.9106C15.4833 17.8103 16.1041 17.0262 16.0038 16.1592L15.5637 12.3482L18.1597 9.52425C18.3545 9.31123 18.4887 9.04931 18.5459 8.76667C18.7183 7.91129 18.1646 7.07829 17.3093 6.90589L13.5487 6.14749L11.6648 2.80471C11.523 2.55356 11.315 2.34552 11.0647 2.20379C10.3038 1.77527 9.33981 2.04464 8.91129 2.80471L7.0273 6.14749L3.2676 6.90589C2.98414 6.96225 2.72305 7.0957 2.51086 7.29131C1.86849 7.88145 1.82622 8.88106 2.41637 9.52425L5.01318 12.3482L4.57223 16.1592C4.53907 16.4452 4.58549 16.7353 4.70567 16.9972C5.06871 17.7913 6.00615 18.1402 6.80019 17.7772L10.288 16.1808L13.7759 17.7772Z" stroke="rgba(151, 151, 151, 1)" stroke-width="2"/>
</svg>
