<?xml version="1.0" encoding="UTF-8"?>
<svg width="20px" height="20px" viewBox="0 0 20 20" version="1.1" xmlns="http://www.w3.org/2000/svg" xmlns:xlink="http://www.w3.org/1999/xlink">
    <title></title>
    <g id="讲师管理" stroke="none" stroke-width="1" fill="none" fill-rule="evenodd">
        <g id="师资评估-左滑" transform="translate(-28.000000, -687.000000)">
            <g id="编组-144备份" transform="translate(0.000000, 69.000000)">
                <g id="Group-13备份-6" transform="translate(8.000000, 609.000000)">
                    <g id="编组" transform="translate(20.000000, 9.000000)">
                        <rect id="矩形" x="0" y="0" width="20" height="20"></rect>
                        <g id="编组-10" transform="translate(-1.035632, 1.035583)" stroke-linejoin="round" stroke-width="1.09633251">
                            <line x1="13.170625" y1="15.6416658" x2="11.5210811" y2="13.983953" id="路径" stroke="#0C6FFF" stroke-linecap="round"></line>
                            <line x1="15.3700169" y1="13.431382" x2="13.720473" y2="11.7736691" id="路径" stroke="#0C6FFF" stroke-linecap="round"></line>
                            <path d="M13.9619029,16.6277166 L6.21771932,16.6880246 C5.00678059,16.6974548 4.01747609,15.7234397 4.00804588,14.512501 C4.00798749,14.5050042 4.00796756,14.4975072 4.00798608,14.4900102 L4.02838275,6.23229575 L4.02838275,6.23229575 C4.03515015,3.49247451 6.26170016,1.2659245 9.00152139,1.25914164 C11.7413426,1.25238971 13.9569205,3.4679676 13.9501531,6.20778883 L13.9469041,7.52317627" id="路径" stroke="#333333" transform="translate(8.982209, 8.982209) rotate(-45.000000) translate(-8.982209, -8.982209) "></path>
                            <path d="M8.25451967,7.32041402 L12.0709291,3.48510472 C13.8839863,1.66306883 16.8308114,1.65579013 18.6528473,3.46884729 C18.6582798,3.47425304 18.663699,3.4796722 18.6691047,3.48510472 C20.493771,5.31880719 20.493771,8.28225378 18.6691047,10.1159562 L17.5694088,11.2210982 L17.5694088,11.2210982 L13.170625,6.80053048 L11.0037595,8.9781269 C10.3390221,9.64615631 9.3039685,9.77372856 8.4969173,9.2870998 C7.90131871,8.92797091 7.70962214,8.15401136 8.06875103,7.55841276 C8.12090544,7.47191709 8.18327646,7.39201004 8.25451967,7.32041402 Z" id="形状" stroke="#333333" stroke-linecap="round"></path>
                        </g>
                    </g>
                </g>
            </g>
        </g>
    </g>
</svg>