<?xml version="1.0" encoding="UTF-8"?>
<svg width="20px" height="20px" viewBox="0 0 20 20" version="1.1" xmlns="http://www.w3.org/2000/svg" xmlns:xlink="http://www.w3.org/1999/xlink">
    <g id="运营直播间" stroke="none" stroke-width="1" fill="none" fill-rule="evenodd">
        <g id="图标/状态" transform="translate(-241.000000, -49.000000)">
            <rect fill="#FFFFFF" x="0" y="0" width="655" height="468"></rect>
            <g id="编组-2" transform="translate(225.000000, 43.000000)">
                <rect id="input" fill="#1778FF" x="0" y="0" width="116" height="32" rx="4"></rect>
                <g id="电脑" transform="translate(16.000000, 6.000000)">
                    <rect id="矩形" x="0" y="0" width="20" height="20"></rect>
                    <path d="M10.6174292,14.9049107 L10.6174292,18.1319652 L13.7599536,18.1319652 C14.1557515,18.1319652 14.4766092,18.2149443 14.4766092,18.6276786 C14.4766092,19.0404128 14.1557515,19.375 13.7599536,19.375 L6.25331785,19.375 C5.85751989,19.375 5.6422164,19.1684787 5.6422164,18.7557445 C5.6422164,18.3430103 5.85751989,18.1319652 6.25331785,18.1319652 L9.37993011,18.1319652 L9.37993011,14.9049107 L2.85335103,14.9049107 C2.09659528,14.9049107 1.37083429,14.5914271 0.835727167,14.0334226 C0.300620049,13.4754182 0,12.7186017 0,11.9294643 L0,2.97544643 C0,1.33215274 1.27748877,0 2.85335103,0 L17.146649,0 C18.7225112,0 20,1.33215274 20,2.97544643 L20,11.9294643 C20,12.7186017 19.69938,13.4754182 19.1642728,14.0334226 C18.6291657,14.5914271 17.9034047,14.9049107 17.146649,14.9049107 L10.6174292,14.9049107 Z M5,18.125 L15,18.125 C15.345178,18.125 15.625,18.404822 15.625,18.75 C15.625,19.095178 15.345178,19.375 15,19.375 L5,19.375 C4.65482203,19.375 4.375,19.095178 4.375,18.75 C4.375,18.404822 4.65482203,18.125 5,18.125 Z M2.69930341,1.26448436 C1.90493616,1.27993297 1.2644466,1.96484648 1.25,2.81431054 L1.25,12.1856895 C1.25735064,13.0463574 1.90800389,13.7421395 2.7128483,13.75 L17.2871517,13.75 C18.0919961,13.7421395 18.7426494,13.0463574 18.75,12.1856895 L18.75,2.81431054 C18.7426494,1.95364263 18.0919961,1.25786047 17.2871517,1.25 L2.69930341,1.26448436 Z" id="形状" fill="#FFFFFF" fill-rule="nonzero"></path>
                    <path d="M10.1804687,9.63117187 L8.39125,7.68210937 L6.28726562,9.86320312 C6.01763848,10.1426678 5.57251159,10.1506428 5.29304688,9.88101562 C5.01358217,9.61138848 5.00560725,9.16626159 5.27523439,8.88679688 L7.89789063,6.16804687 C8.03250666,6.02843576 8.21881002,5.95062643 8.41273525,5.95302276 C8.60666048,5.95541909 8.79098427,6.03780825 8.92210938,6.18070312 L10.7192969,8.13867188 L13.7209375,5.12859376 C13.8972194,4.9455794 14.1585314,4.87191788 14.4044448,4.93591918 C14.6503582,4.99992049 14.8426061,5.19162532 14.9073028,5.43735666 C14.9719995,5.683088 14.8990775,5.94460737 14.7165625,6.12140626 L11.19625,9.65203124 C11.0607539,9.78792915 10.8755989,9.86254016 10.6837355,9.85855684 C10.4918721,9.85457351 10.3099734,9.77234201 10.1802344,9.63093749 L10.1804687,9.63117187 Z" id="路径" fill="#FFFFFF" fill-rule="nonzero"></path>
                </g>
            </g>
        </g>
    </g>
</svg>