<?xml version="1.0" encoding="UTF-8"?>
<svg width="20px" height="20px" viewBox="0 0 20 20" version="1.1" xmlns="http://www.w3.org/2000/svg" xmlns:xlink="http://www.w3.org/1999/xlink">
    <title></title>
    <g id="讲师管理" stroke="none" stroke-width="1" fill="none" fill-rule="evenodd">
        <g id="师资评估-左滑" transform="translate(-28.000000, -641.000000)">
            <g id="编组-144备份" transform="translate(0.000000, 69.000000)">
                <g id="Group-13备份-5" transform="translate(8.000000, 563.000000)">
                    <g id="编组" transform="translate(20.000000, 9.000000)">
                        <rect id="矩形" x="0" y="0" width="20" height="20"></rect>
                        <g transform="translate(1.000000, 3.000000)" stroke-linejoin="round">
                            <rect id="矩形" stroke="#333333" x="0" y="0" width="18" height="14" rx="0.9"></rect>
                            <path d="M5.85,7.4375 C6.844095,7.4375 7.65,6.65398125 7.65,5.6875 C7.65,4.72101875 6.844095,3.9375 5.85,3.9375 C4.855905,3.9375 4.05,4.72101875 4.05,5.6875 C4.05,6.65398125 4.855905,7.4375 5.85,7.4375 Z" id="路径" stroke="#0C6FFF"></path>
                            <path d="M8.55,10.0625 C8.55,8.61275625 7.341165,7.4375 5.85,7.4375 C4.358835,7.4375 3.15,8.61275625 3.15,10.0625" id="路径" stroke="#0C6FFF" stroke-linecap="round"></path>
                            <line x1="10.8" y1="5.25" x2="14.4" y2="5.25" id="路径" stroke="#0C6FFF" stroke-linecap="round"></line>
                            <line x1="11.7" y1="8.75" x2="14.4" y2="8.75" id="路径" stroke="#0C6FFF" stroke-linecap="round"></line>
                        </g>
                    </g>
                </g>
            </g>
        </g>
    </g>
</svg>