<?xml version="1.0" encoding="UTF-8"?>
<svg width="24px" height="24px" viewBox="0 0 24 24" version="1.1" xmlns="http://www.w3.org/2000/svg" xmlns:xlink="http://www.w3.org/1999/xlink">
    <title>送花</title>
    <g id="直播列表-原型修改" stroke="none" stroke-width="1" fill="none" fill-rule="evenodd">
        <g id="3-6.2-脚本预览-1920" transform="translate(-1476.000000, -910.000000)">
            <g id="编组-24" transform="translate(1400.000000, 20.000000)">
                <g id="编组-12" transform="translate(0.000000, 880.000000)">
                    <g id="编组-13" transform="translate(1.000000, 0.000000)">
                        <g id="编组-9" transform="translate(23.000000, 10.000000)">
                            <g id="送花" transform="translate(52.000000, 0.000000)">
                                <rect id="矩形" x="0" y="0" width="24" height="24"></rect>
                                <g id="鲜花" fill="#777777" fill-rule="nonzero">
                                    <path d="M20.7602283,3.50528227 C20.7602283,3.50528227 20.5725946,2.91396777 19.6632929,3.0909855 C18.7539911,3.26800324 16.9389959,3.8028227 16.9389959,3.8028227 C16.9389959,3.8028227 14.6116163,0.89897891 12.8507461,0.18714169 C12.8507461,0.18714169 11.6780355,-0.325079771 10.6532668,0.345327736 C9.62849817,1.01573524 8.01917834,2.33771862 6.90059282,3.74256135 C6.90059282,3.74256135 6.44594192,4.1982878 6.86450941,4.92895665 C6.86450941,4.92895665 3.79742005,3.94217705 3.30668574,3.9798404 C2.81595146,4.01750375 2.66440116,4.04010175 2.47315913,4.25478281 C2.28552542,4.4732302 -0.803213976,9.59167861 0.199904654,14.9059764 C1.20302328,20.2202742 5.29127299,22.3746174 6.39181682,22.8491756 C7.4887523,23.3237337 11.8620609,24.9244258 16.5384701,23.2634723 C21.2148792,21.6025189 23.9030928,17.7307272 23.9969097,13.7195811 C24.0907265,9.70843499 22.0267558,5.3620851 20.7602283,3.50528227 Z M8.43413749,4.78960229 C8.79497153,4.37530551 11.0104925,2.02511287 11.8620609,1.88575848 C11.8620609,1.88575848 12.6378541,1.72757244 15.138434,4.5937529 C15.138434,4.5937529 12.5620789,6.05509064 11.9017526,7.08329992 C11.9017526,7.08329992 11.6166937,7.61811941 11.8837109,7.99098651 C11.8837109,7.99098651 9.68623161,6.07392232 7.67997013,5.26416043 C7.67638599,5.26416043 8.07691178,5.20389908 8.43413749,4.78960229 L8.43413749,4.78960229 Z M19.1184335,19.7231181 C13.1105467,24.38584 6.648009,20.8530184 6.64800898,20.8530184 C-1.98314131,16.005746 3.606178,5.93456794 3.606178,5.93456794 C14.6982164,8.42411496 14.2435655,17.5725411 14.2435656,17.5725411 C14.2435656,17.5725411 14.3951159,18.4011347 15.2647259,18.3220417 C16.1343359,18.2429487 16.0982525,17.3917571 16.0982525,17.3917571 C15.9467022,11.6819942 12.3239285,8.43918031 12.3239285,8.43918029 C12.9806464,8.65009501 13.3847805,8.22826557 13.3847805,8.22826557 C15.2033841,5.8554749 19.5442176,5.0419467 19.5442176,5.0419467 C21.1354957,7.33564433 21.8679889,10.5219632 21.8679889,10.5219632 C23.4087502,16.8494049 19.1184334,19.723118 19.1184335,19.7231181 Z" id="形状"></path>
                                </g>
                            </g>
                        </g>
                    </g>
                </g>
            </g>
        </g>
    </g>
</svg>