<?xml version="1.0" encoding="UTF-8"?>
<svg width="24px" height="24px" viewBox="0 0 24 24" version="1.1" xmlns="http://www.w3.org/2000/svg" xmlns:xlink="http://www.w3.org/1999/xlink">
    <g id="直播列表-原型修改" stroke="none" stroke-width="1" fill="none" fill-rule="evenodd">
        <g id="4-1.2-运营直播间-公共" transform="translate(-548.000000, -763.000000)">
            <g id="编组-59" transform="translate(340.000000, 69.000000)">
                <g id="编组-60" transform="translate(0.000000, 84.000000)">
                    <g id="操作栏1" transform="translate(0.000000, 540.000000)">
                        <g id="图片备份" transform="translate(208.000000, 70.000000)">
                            <rect id="矩形" x="0" y="0" width="24" height="24"></rect>
                            <path d="M20.25,0 L3.75,0 C2.23121694,0 1,1.23982685 1,2.76923077 L1,21.2307692 C1,22.7601732 2.23121694,24 3.75,24 L20.25,24 C21.7687831,24 23,22.7601732 23,21.2307692 L23,2.76923077 C23,1.23982685 21.7687831,0 20.25,0 Z M3.75,1.84615385 L20.25,1.84615385 C20.756261,1.84615385 21.1666667,2.25942946 21.1666667,2.76923077 L21.1666667,21.2307692 C21.1666667,21.7405705 20.756261,22.1538462 20.25,22.1538462 L3.75,22.1538462 C3.24373898,22.1538462 2.83333333,21.7405705 2.83333333,21.2307692 L2.83333333,2.76923077 C2.83333333,2.25942946 3.24373898,1.84615385 3.75,1.84615385 Z" id="矩形" fill="#333333" fill-rule="nonzero"></path>
                            <g id="编组-54" transform="translate(5.000000, 3.600000)" fill="#333333">
                                <rect id="矩形" x="0" y="0" width="12" height="1.3" rx="0.6"></rect>
                                <rect id="矩形备份-14" x="0" y="3.3" width="7" height="1.3" rx="0.6"></rect>
                            </g>
                            <path d="M14,10.2 C16.209139,10.2 18,11.990861 18,14.2 C18,15.2832693 17.5693855,16.2659631 16.8699939,16.9862442 L18.8497598,19.7121787 C19.0445347,19.9802633 18.9851054,20.3554851 18.7170208,20.55026 L18.6361191,20.6090385 C18.3680344,20.8038134 17.9928126,20.7443841 17.7980377,20.4762995 L15.8251116,17.7602965 C15.2779138,18.0413707 14.6574818,18.2 14,18.2 C11.790861,18.2 10,16.409139 10,14.2 C10,11.990861 11.790861,10.2 14,10.2 Z M14,11.5 C12.5088312,11.5 11.3,12.7088312 11.3,14.2 C11.3,15.6911688 12.5088312,16.9 14,16.9 C15.4911688,16.9 16.7,15.6911688 16.7,14.2 C16.7,12.7088312 15.4911688,11.5 14,11.5 Z" id="形状结合" fill="#333333"></path>
                        </g>
                    </g>
                </g>
            </g>
        </g>
    </g>
</svg>