<?xml version="1.0" encoding="UTF-8"?>
<svg width="14px" height="14px" viewBox="0 0 14 14" version="1.1" xmlns="http://www.w3.org/2000/svg" xmlns:xlink="http://www.w3.org/1999/xlink">
    <title></title>
    <g id="师资管理" stroke="none" stroke-width="1" fill="none" fill-rule="evenodd">
        <g id="师资授权" transform="translate(-428.000000, -237.000000)" fill-rule="nonzero">
            <g id="编组-6" transform="translate(272.000000, 232.000000)">
                <g id="编组-5" transform="translate(156.000000, 1.000000)">
                    <g id="24px/面性/提示/Error_强" transform="translate(0.000000, 4.000000)">
                        <path d="M14,0 L0,0 L0,14 L14,14 L14,0 Z" id="矩形" fill="#FFFFFF" opacity="0"></path>
                        <g id="编组" transform="translate(0.583333, 2.916667)" fill="#00B42A">
                            <path d="M0.813461335,3.87068329 L3.91125024,6.1883876 C3.91125024,6.1883876 4.08212288,6.27114134 4.29571368,6.1883876 L11.9230721,0.0184368551 C11.9230721,0.0184368551 13.010012,-0.206037655 12.8083905,0.911537575 C12.0726889,1.63573272 4.5734849,8.6304224 4.5734849,8.6304224 C4.5734849,8.6304224 4.08212288,8.89947199 3.61201675,8.6304224 C3.14232335,8.17507696 0.00222902805,4.84333954 0.00222902805,4.84333954 C0.00222902805,4.84333954 -0.0838263961,4.03639066 0.813461335,3.87068329 Z" id="路径"></path>
                        </g>
                    </g>
                </g>
            </g>
        </g>
    </g>
</svg>