<svg xmlns="http://www.w3.org/2000/svg" xmlns:xlink="http://www.w3.org/1999/xlink" version="1.1" width="24" height="24" viewBox="0 0 24 24"><g><g><g></g></g><g><g><path d="M12.70165,3.262995L20.6496,10.27618C20.883,10.393,21,10.626619999999999,21,10.86047C21,11.09432,20.883,11.32816,20.7662,11.56179C20.5324,11.79556,20.2986,11.91245,20.0648,11.91245L19.0129,11.91245L19.0129,18.9256C19.0129,20.2112,17.960900000000002,21.2632,16.6753,21.2632L7.32473,21.2632C6.0391200000000005,21.2632,4.98714,20.2112,4.98714,18.9256L4.98714,11.91245L3.935166,11.91245C3.467472,11.91245,3,11.44497,3,10.9775C3,10.742989999999999,3.116589,10.51003,3.233847,10.27618L11.18287,3.262995C11.53286,2.9123351,12.23418,2.9123351,12.70165,3.262995ZM17.844099999999997,10.74294L17.844099999999997,18.9254C17.844099999999997,19.6267,17.3767,20.0942,16.6754,20.0942L14.3378,20.0942L14.3378,15.419C14.3378,14.7177,13.8703,14.2502,13.169,14.2502L10.83118,14.2502C10.12986,14.2502,9.66239,14.7177,9.66239,15.419L9.66239,20.0942L7.32481,20.0942C6.62349,20.0942,6.15602,19.6267,6.15602,18.9254L6.15602,10.74294L4.51953,10.74294L11.99997,4.0813L19.4806,10.74294L17.844099999999997,10.74294ZM13.1689,20.0942L10.831050000000001,20.0942L10.831050000000001,15.4191L13.1689,15.4191L13.1689,20.0942Z" fill-rule="evenodd"  fill-opacity="1"/></g></g></g></svg>
