<svg xmlns="http://www.w3.org/2000/svg" xmlns:xlink="http://www.w3.org/1999/xlink"  version="1.1" width="24" height="24" viewBox="0 0 24 24"><g><g></g><g><g><ellipse cx="12" cy="7.666666746139526" rx="4.25" ry="4.25" fill-opacity="0" stroke-opacity="1" stroke="currentColor"  stroke-width="1.5"/></g><g><path d="M3.9379263,17.260546746139525Q3.25,18.886986746139527,3.25,20.666666746139526Q3.25,20.740536746139526,3.264411,20.812986746139526Q3.278822,20.885436746139526,3.30709,20.95367674613953Q3.335359,21.021926746139528,3.376398,21.083346746139526Q3.417437,21.144766746139524,3.46967,21.196996746139526Q3.521903,21.249226746139527,3.583322,21.290266746139526Q3.644742,21.331306746139525,3.712987,21.359576746139524Q3.781233,21.387846746139527,3.853682,21.40225674613953Q3.9261315,21.416666746139526,4,21.416666746139526Q4.0738685,21.416666746139526,4.146318,21.40225674613953Q4.218767,21.387846746139527,4.287013,21.359576746139524Q4.355258,21.331306746139525,4.416678,21.290266746139526Q4.478097,21.249226746139527,4.53033,21.196996746139526Q4.582563,21.144766746139524,4.623602,21.083346746139526Q4.664641,21.021926746139528,4.69291,20.95367674613953Q4.721178,20.885436746139526,4.735589,20.812986746139526Q4.75,20.740536746139526,4.75,20.666666746139526Q4.75,17.663616746139525,6.87348,15.540146746139527Q8.99695,13.416666746139526,12,13.416666746139526Q15.0031,13.416666746139526,17.1265,15.540146746139527Q19.25,17.663616746139525,19.25,20.666666746139526Q19.25,20.740536746139526,19.264400000000002,20.812986746139526Q19.2788,20.885436746139526,19.3071,20.95367674613953Q19.3354,21.021926746139528,19.3764,21.083346746139526Q19.4174,21.144766746139524,19.4697,21.196996746139526Q19.521900000000002,21.249226746139527,19.5833,21.290266746139526Q19.6447,21.331306746139525,19.713,21.359576746139524Q19.7812,21.387846746139527,19.8537,21.40225674613953Q19.926099999999998,21.416666746139526,20,21.416666746139526Q20.0739,21.416666746139526,20.1463,21.40225674613953Q20.2188,21.387846746139527,20.287,21.359576746139524Q20.3553,21.331306746139525,20.4167,21.290266746139526Q20.4781,21.249226746139527,20.5303,21.196996746139526Q20.5826,21.144766746139524,20.6236,21.083346746139526Q20.6646,21.021926746139528,20.6929,20.95367674613953Q20.7212,20.885436746139526,20.7356,20.812986746139526Q20.75,20.740536746139526,20.75,20.666666746139526Q20.75,18.886976746139524,20.0621,17.260546746139525Q19.3979,15.690156746139525,18.1872,14.479486746139527Q16.9765,13.268812746139526,15.4061,12.604593046139527Q13.77969,11.916666746139526,12,11.916666746139526Q10.220320000000001,11.916666746139526,8.59388,12.604593646139527Q7.02349,13.268811746139527,5.81282,14.479486746139527Q4.602144,15.690156746139525,3.9379263,17.260546746139525Z" fill-rule="evenodd" fill-opacity="1"/></g></g></g></svg>
