<?xml version="1.0" encoding="UTF-8"?>
<svg width="38px" height="38px" viewBox="0 0 38 38" version="1.1" xmlns="http://www.w3.org/2000/svg" xmlns:xlink="http://www.w3.org/1999/xlink">
    <title>shengcheng_icon</title>
    <g id="自媒体运营" stroke="none" stroke-width="1" fill="none" fill-rule="evenodd">
        <g id="任务中心-剪辑导出" transform="translate(-810.000000, -194.000000)">
            <g id="编组-83" transform="translate(775.000000, 53.000000)">
                <g id="编组-2备份" transform="translate(0.000000, 30.000000)">
                    <g id="编组-79备份-3" transform="translate(20.000000, 96.000000)">
                        <g id="编组-78" transform="translate(8.000000, 8.000000)">
                            <g id="编组-82" transform="translate(7.000000, 7.000000)">
                                <rect id="矩形" x="0" y="0" width="38" height="38"></rect>
                                <g id="编组" transform="translate(1.500000, 1.700000)" fill="#47A0FB">
                                    <path d="M4.18181818,31.4039683 L30.8181818,31.4039683 C31.3704666,31.4039683 31.8181818,30.956253 31.8181818,30.4039683 L31.8181818,22.6766955 C31.8181818,21.7980607 32.5304561,21.0857864 33.4090909,21.0857864 C34.2877257,21.0857864 35,21.7980607 35,22.6766955 L35,32.5857864 C35,33.6903559 34.1045695,34.5857864 33,34.5857864 L2,34.5857864 C0.8954305,34.5857864 1.02344917e-15,33.6903559 0,32.5857864 L0,22.6766955 C-1.07601733e-16,21.7980607 0.712274261,21.0857864 1.59090909,21.0857864 C2.46954392,21.0857864 3.18181818,21.7980607 3.18181818,22.6766955 L3.18181818,30.4039683 C3.18181818,30.956253 3.62953343,31.4039683 4.18181818,31.4039683 Z M23.0681818,13.3130592 L23.0681818,23.0403319 C23.0681818,24.1449014 22.1727513,25.0403319 21.0681818,25.0403319 L13.9318182,25.0403319 C12.8272487,25.0403319 11.9318182,24.1449014 11.9318182,23.0403319 L11.9318182,13.3130592 C11.9318182,12.7607744 11.4841029,12.3130592 10.9318182,12.3130592 L7.18694085,12.3130592 C6.6346561,12.3130592 6.18694085,11.8653439 6.18694085,11.3130592 C6.18694085,11.0478427 6.29229769,10.7934887 6.47983407,10.6059524 L16.7928932,0.292893219 C17.1834175,-0.0976310729 17.8165825,-0.0976310729 18.2071068,0.292893219 L28.5201659,10.6059524 C28.9106902,10.9964767 28.9106902,11.6296416 28.5201659,12.0201659 C28.3326296,12.2077023 28.0782756,12.3130592 27.8130592,12.3130592 L24.0681818,12.3130592 C23.5158971,12.3130592 23.0681818,12.7607744 23.0681818,13.3130592 Z M13.5227273,26.631241 L21.4772727,26.631241 C22.3559076,26.631241 23.0681818,27.3435152 23.0681818,28.2221501 C23.0681818,29.1007849 22.3559076,29.8130592 21.4772727,29.8130592 L13.5227273,29.8130592 C12.6440924,29.8130592 11.9318182,29.1007849 11.9318182,28.2221501 C11.9318182,27.3435152 12.6440924,26.631241 13.5227273,26.631241 Z" id="形状"></path>
                                </g>
                            </g>
                        </g>
                    </g>
                </g>
            </g>
        </g>
    </g>
</svg>