<?xml version="1.0" encoding="UTF-8"?>
<svg width="28px" height="36px" viewBox="0 0 28 36" version="1.1" xmlns="http://www.w3.org/2000/svg" xmlns:xlink="http://www.w3.org/1999/xlink">
    <title>形状</title>
    <g id="自媒体运营" stroke="none" stroke-width="1" fill="none" fill-rule="evenodd">
        <g id="任务中心-文件传输其他状态" transform="translate(-815.000000, -192.000000)" fill="#6BB3FB">
            <g id="编组-2" transform="translate(775.000000, 53.000000)">
                <g id="编组-84" transform="translate(20.000000, 123.000000)">
                    <g id="编组-78" transform="translate(8.000000, 8.000000)">
                        <g id="编组-75" transform="translate(7.000000, 7.000000)">
                            <g id="编组" transform="translate(5.000000, 1.500000)">
                                <path d="M25.0133333,2.5 C25.6853333,3.12189055 26.2204444,3.6380597 26.6186667,4.04850746 C27.0168889,4.45895522 27.3217778,4.80721393 27.5333333,5.09328358 C27.7448889,5.37935323 27.8755556,5.62189055 27.9253333,5.82089552 C27.9751111,6.0199005 28,6.19402985 28,6.34328358 L28,6.94029851 L22.4746667,6.94029851 C22.2257778,6.94029851 22.008,6.84701493 21.8213333,6.66044776 C21.6346667,6.4738806 21.4791111,6.25621891 21.3546667,6.00746269 C21.2302222,5.75870647 21.1368889,5.50373134 21.0746667,5.24253731 C21.0124444,4.98134328 20.9813333,4.7761194 20.9813333,4.62686567 L20.9813333,3.55271368e-15 L21.0933333,3.55271368e-15 C21.2924444,3.55271368e-15 21.4977778,0.0310945274 21.7093333,0.0932835821 C21.9208889,0.155472637 22.1635556,0.273631841 22.4373333,0.447761194 C22.7111111,0.621890547 23.0533333,0.870646766 23.464,1.19402985 C23.8746667,1.51741294 24.3911111,1.95273632 25.0133333,2.5 Z M18.6293333,4.6641791 C18.6293333,5.16169154 18.704,5.6778607 18.8533333,6.21268657 C19.0026667,6.74751244 19.2391111,7.24502488 19.5626667,7.70522388 C19.8862222,8.16542289 20.2968889,8.54477612 20.7946667,8.84328358 C21.2924444,9.14179104 21.8773333,9.29104478 22.5493333,9.29104478 L28,9.29104478 L28,30.3358209 C28,31.0572139 27.8568889,31.7039801 27.5706667,32.2761194 C27.2844444,32.8482587 26.9048889,33.3333333 26.432,33.7313433 C25.9591111,34.1293532 25.4364444,34.4402985 24.864,34.6641791 C24.2915556,34.8880597 23.7315556,35 23.184,35 L4.816,35 C4.34311111,35 3.82666667,34.8631841 3.26666667,34.5895522 C2.70666667,34.3159204 2.184,33.9552239 1.69866667,33.5074627 C1.21333333,33.0597015 0.808888889,32.5497512 0.485333333,31.9776119 C0.161777778,31.4054726 0,30.8084577 0,30.1865672 L0,4.81343284 C0,4.29104478 0.118222222,3.75 0.354666667,3.19029851 C0.591111111,2.63059701 0.914666667,2.11442786 1.32533333,1.64179104 C1.736,1.16915423 2.20266667,0.777363184 2.72533333,0.46641791 C3.248,0.155472637 3.79555556,0 4.368,0 L18.6293333,0 L18.6293333,4.6641791 Z M20.9813333,27.9477612 C21.6284444,27.9477612 22.176,27.7176617 22.624,27.2574627 C23.072,26.7972637 23.296,26.2437811 23.296,25.5970149 C23.296,24.9502488 23.072,24.4029851 22.624,23.9552239 C22.176,23.5074627 21.6284444,23.2835821 20.9813333,23.2835821 L6.98133333,23.2835821 C6.33422222,23.2835821 5.78666667,23.5074627 5.33866667,23.9552239 C4.89066667,24.4029851 4.66666667,24.9502488 4.66666667,25.5970149 C4.66666667,26.2437811 4.89066667,26.7972637 5.33866667,27.2574627 C5.78666667,27.7176617 6.33422222,27.9477612 6.98133333,27.9477612 L20.9813333,27.9477612 Z M23.296,16.3059701 C23.296,15.659204 23.072,15.1057214 22.624,14.6455224 C22.176,14.1853234 21.6284444,13.9552239 20.9813333,13.9552239 L6.98133333,13.9552239 C6.33422222,13.9552239 5.78666667,14.1853234 5.33866667,14.6455224 C4.89066667,15.1057214 4.66666667,15.659204 4.66666667,16.3059701 C4.66666667,16.9527363 4.89066667,17.5 5.33866667,17.9477612 C5.78666667,18.3955224 6.33422222,18.619403 6.98133333,18.619403 L20.9813333,18.619403 C21.6284444,18.619403 22.176,18.3955224 22.624,17.9477612 C23.072,17.5 23.296,16.9527363 23.296,16.3059701 Z" id="形状"></path>
                            </g>
                        </g>
                    </g>
                </g>
            </g>
        </g>
    </g>
</svg>