<?xml version="1.0" encoding="UTF-8"?>
<svg width="175px" height="102px" viewBox="0 0 175 102" version="1.1" xmlns="http://www.w3.org/2000/svg" xmlns:xlink="http://www.w3.org/1999/xlink">
    <title>空页面</title>
    <g id="自媒体运营" stroke="none" stroke-width="1" fill="none" fill-rule="evenodd">
        <g id="任务中心-空页面" transform="translate(-927.000000, -304.000000)" fill-rule="nonzero">
            <g id="编组-83" transform="translate(775.000000, 53.000000)">
                <g id="编组" transform="translate(152.000000, 251.000000)">
                    <path d="M0,30.6640625 L44.3433594,0.799609375 C45.1171305,0.278457409 46.0288087,0 46.9617188,0 L128.444922,0 C129.38472,0 130.302826,0.282443738 131.080078,0.810742187 L175,30.6640625 L175,96.875 C175,99.4638672 172.901367,101.5625 170.3125,101.5625 L4.6875,101.5625 C2.09863281,101.5625 0,99.4638672 0,96.875 L0,30.6640625 Z" id="路径" fill="#E2E2E2"></path>
                    <path d="M0,30.6640625 L55.3,30.6640625 C57.8888672,30.6640625 59.9875,32.7626953 59.9875,35.3515625 L59.9875,44.078125 C59.9875,46.6667969 62.0861328,48.765625 64.675,48.765625 L110.209375,48.765625 C112.798242,48.765625 114.896875,46.6667969 114.896875,44.078125 L114.896875,35.3515625 C114.896875,32.7626953 116.995508,30.6640625 119.584375,30.6640625 L175,30.6640625 L175,100 C175,100.862945 174.300445,101.5625 173.4375,101.5625 L1.5625,101.5625 C0.699555078,101.5625 0,100.862945 0,100 L0,30.6640625 Z" id="路径" fill="#EEEEEE"></path>
                </g>
            </g>
        </g>
    </g>
</svg>