<?xml version="1.0" encoding="UTF-8"?>
<svg width="32px" height="32px" viewBox="0 0 32 32" version="1.1" xmlns="http://www.w3.org/2000/svg" xmlns:xlink="http://www.w3.org/1999/xlink">
    <title>编组 21</title>
    <g id="自媒体运营" stroke="none" stroke-width="1" fill="none" fill-rule="evenodd">
        <g id="任务中心-文件传输" transform="translate(-813.000000, -300.000000)">
            <g id="编组-2备份" transform="translate(775.000000, 53.000000)">
                <g id="编组-79备份-4" transform="translate(20.000000, 229.000000)">
                    <g id="编组-78" transform="translate(8.000000, 8.000000)">
                        <g id="编组-21" transform="translate(10.000000, 10.000000)">
                            <rect id="矩形" x="0" y="0" width="32" height="32"></rect>
                            <path d="M10,4 C11.6568542,4 13,5.34314575 13,7 L13,25 C13,26.6568542 11.6568542,28 10,28 C8.34314575,28 7,26.6568542 7,25 L7,7 C7,5.34314575 8.34314575,4 10,4 Z M22,4 C23.6568542,4 25,5.34314575 25,7 L25,25 C25,26.6568542 23.6568542,28 22,28 C20.3431458,28 19,26.6568542 19,25 L19,7 C19,5.34314575 20.3431458,4 22,4 Z" id="形状结合" fill="#FFFFFF"></path>
                        </g>
                    </g>
                </g>
            </g>
        </g>
    </g>
</svg>