<?xml version="1.0" encoding="UTF-8"?>
<svg width="36px" height="26px" viewBox="0 0 36 26" version="1.1" xmlns="http://www.w3.org/2000/svg" xmlns:xlink="http://www.w3.org/1999/xlink">
    <title>形状</title>
    <g id="自媒体运营" stroke="none" stroke-width="1" fill="none" fill-rule="evenodd">
        <g id="任务中心-文件传输其他状态" transform="translate(-811.000000, -471.000000)" fill="#6BB3FB">
            <g id="编组-2" transform="translate(775.000000, 53.000000)">
                <g id="编组-84" transform="translate(20.000000, 123.000000)">
                    <g id="编组-79备份-6" transform="translate(0.000000, 274.000000)">
                        <g id="编组-78" transform="translate(8.000000, 8.000000)">
                            <g id="编组" transform="translate(7.000000, 7.000000)">
                                <path d="M25.3333333,6.33333333 C26.2077842,6.33333333 26.9166667,7.04221581 26.9166667,7.91666667 L26.9166667,14.5666667 L35.1705833,8.7875 C35.4125136,8.61791176 35.7287475,8.59715224 35.9907717,8.73365784 C36.2527959,8.87016344 36.4166672,9.1412173 36.4166672,9.43666667 L36.4166672,28.5633333 C36.4166672,28.8587827 36.2527959,29.1298366 35.9907717,29.2663422 C35.7287475,29.4028478 35.4125136,29.3820882 35.1705833,29.2125 L26.9166667,23.4333333 L26.9166667,30.0833333 C26.9166667,30.9577842 26.2077842,31.6666667 25.3333333,31.6666667 L3.16666667,31.6666667 C2.29221581,31.6666667 1.58333333,30.9577842 1.58333333,30.0833333 L1.58333333,7.91666667 C1.58333333,7.04221581 2.29221581,6.33333333 3.16666667,6.33333333 L25.3333333,6.33333333 Z M11.7166667,13.97925 C11.4156632,13.97925 11.1562007,14.1909947 11.096,14.4859167 L11.0833333,14.611 L11.0833333,23.3858333 C11.0833333,23.5940325 11.185606,23.7889472 11.3569676,23.9071931 C11.5283292,24.0254389 11.7468616,24.0519107 11.9415,23.978 L12.0570833,23.921 L18.9525,19.532 C19.1154975,19.4277196 19.22188,19.2546461 19.2413173,19.062124 C19.2607547,18.8696019 19.1911139,18.6787568 19.05225,18.544 L18.9525,18.4648333 L12.0570833,14.0758333 C11.9549246,14.0125059 11.8368546,13.9795561 11.7166667,13.9808333 L11.7166667,13.97925 Z" id="形状"></path>
                            </g>
                        </g>
                    </g>
                </g>
            </g>
        </g>
    </g>
</svg>