<?xml version="1.0" encoding="UTF-8"?>
<svg width="39px" height="39px" viewBox="0 0 39 39" version="1.1" xmlns="http://www.w3.org/2000/svg" xmlns:xlink="http://www.w3.org/1999/xlink">
    <title>hezuoguojiangshi_icon</title>
    <defs>
        <linearGradient x1="8.67768595%" y1="-1.40507102e-12%" x2="91.322314%" y2="100%" id="linearGradient-1">
            <stop stop-color="#8AD9FF" offset="0%"></stop>
            <stop stop-color="#3CBFFF" offset="100%"></stop>
        </linearGradient>
    </defs>
    <g id="讲师管理1.1" stroke="none" stroke-width="1" fill="none" fill-rule="evenodd">
        <g id="数据看板" transform="translate(-805.000000, -844.000000)">
            <g id="编组-30备份" transform="translate(252.000000, 751.000000)">
                <g id="编组-45" transform="translate(524.000000, 64.000000)">
                    <g id="编组-52" transform="translate(16.000000, 16.000000)">
                        <g id="编组-54" transform="translate(13.000000, 13.000000)">
                            <g id="编组" transform="translate(0.780220, 0.780220)">
                                <polygon id="路径" points="0 0 37.7142857 0 37.7142857 37.7142857 0 37.7142857"></polygon>
                                <path d="M22.4022857,34.1691429 L18.8571429,37.7142857 L15.312,34.1691429 C8.34428571,32.56 3.14285714,26.312 3.14285714,18.8571429 C3.14285714,10.1828571 10.1828571,3.14285714 18.8571429,3.14285714 C27.5314286,3.14285714 34.5714286,10.1828571 34.5714286,18.8571429 C34.5714286,26.312 29.37,32.56 22.4022857,34.1691429 Z M9.46471429,24.2251429 C11.7715714,27.6665714 15.235,29.8571429 19.1085714,29.8571429 C22.9805714,29.8571429 26.4455714,27.6681429 28.7508571,24.2251429 C26.1355904,21.7809376 22.6881991,20.4235554 19.1085714,20.4285553 C15.5284012,20.423156 12.0803773,21.7805661 9.46471429,24.2251429 L9.46471429,24.2251429 Z M18.8571429,17.2857143 C21.460771,17.2857143 23.5714286,15.1750567 23.5714286,12.5714286 C23.5714286,9.96780047 21.460771,7.85714286 18.8571429,7.85714286 C16.2535148,7.85714286 14.1428571,9.96780047 14.1428571,12.5714286 C14.1428571,15.1750567 16.2535148,17.2857143 18.8571429,17.2857143 Z" id="形状" fill="url(#linearGradient-1)"></path>
                            </g>
                        </g>
                    </g>
                </g>
            </g>
        </g>
    </g>
</svg>