<?xml version="1.0" encoding="UTF-8"?>
<svg width="39px" height="39px" viewBox="0 0 39 39" version="1.1" xmlns="http://www.w3.org/2000/svg" xmlns:xlink="http://www.w3.org/1999/xlink">
    <title>qiantanzhongjiangshi_icon</title>
    <defs>
        <linearGradient x1="2.08727256e-14%" y1="2.9850931%" x2="100%" y2="97.0149069%" id="linearGradient-1">
            <stop stop-color="#3AC08F" stop-opacity="0.5" offset="0%"></stop>
            <stop stop-color="#00C07A" offset="100%"></stop>
        </linearGradient>
    </defs>
    <g id="师资管理1.3" stroke="none" stroke-width="1" fill="none" fill-rule="evenodd">
        <g id="数据看板" transform="translate(-553.000000, -489.000000)">
            <g id="编组-76备份-2" transform="translate(252.000000, 395.000000)">
                <g id="编组-25" transform="translate(272.000000, 64.000000)">
                    <g id="编组-15" transform="translate(16.000000, 16.000000)">
                        <g id="编组-78" transform="translate(13.000000, 14.000000)">
                            <rect id="矩形" x="0" y="0" width="39" height="39"></rect>
                            <g id="编组" transform="translate(3.000000, 3.000239)" fill="url(#linearGradient-1)">
                                <path d="M28.6077004,13.1781207 C30.6172138,15.1704004 31.8627867,17.9381107 31.8627867,20.9977776 C31.8627867,22.3730255 31.6129615,23.6835558 31.1536056,24.8889201 C31.0327225,25.1154315 30.9360159,25.3500326 30.8554272,25.6008131 C30.7023085,26.078105 30.6136609,26.5877557 30.6136609,27.1216754 C30.6136609,28.4483851 31.1455467,29.6456597 32.0078464,30.5274363 C32.3221426,30.8591137 32.620321,31.1341633 32.878205,31.3606747 C33.1088129,31.5697622 32.9892172,31.9373885 32.7095739,31.9927092 L32.6364388,31.9997605 L20.9107743,31.9997605 C17.9043841,31.9997605 15.1813966,30.7859521 13.2039029,28.8166051 L14.7650756,28.8156572 C15.9658481,28.8156572 17.1343851,28.661953 18.24651,28.3788138 C18.4721585,28.3221859 18.6897481,28.2574684 18.9073378,28.1927508 C19.5601067,27.9905085 20.1967579,27.739728 20.8092325,27.4404094 C21.0107044,27.343333 21.2121763,27.238167 21.4136482,27.133001 C21.6151201,27.027835 21.8085331,26.9145793 21.9938872,26.7932339 C22.2840068,26.6152606 22.5580086,26.4291977 22.8320103,26.2350451 C23.0173645,26.10561 23.1946598,25.9680852 23.371955,25.8305604 C23.4606027,25.7577531 23.5492503,25.6930356 23.6298391,25.6202284 C23.8877231,25.4098963 24.1375482,25.1833849 24.3793145,24.9487838 C24.8628471,24.4876713 25.3141441,23.9861103 25.7251468,23.4602802 C25.9346776,23.1933204 26.1280906,22.9263605 26.3215036,22.6432212 C26.5713288,22.2710953 26.8050362,21.8827901 27.0226258,21.4863951 C27.3449808,20.8877578 27.6270415,20.2729411 27.8607489,19.6257656 C27.981632,19.3021779 28.0863974,18.9785902 28.1750451,18.6469127 C28.2717516,18.3152353 28.3523403,17.9754682 28.4168113,17.6357011 C28.4651646,17.4091897 28.505459,17.1745885 28.5376945,16.9480771 C28.56993,16.713476 28.6021655,16.4788749 28.6263421,16.2442738 C28.6746954,15.7750716 28.698872,15.2977797 28.698872,14.8123981 C28.7069309,14.7153218 28.698872,14.6101558 28.698872,14.5049898 L28.698872,14.4483619 C28.698872,14.3593753 28.6908131,14.262299 28.6908131,14.1733123 C28.6908131,14.1328639 28.6908131,14.0924154 28.6827542,14.0519669 C28.6827542,13.9791597 28.6746954,13.9063524 28.6666365,13.8335452 C28.6585776,13.7769174 28.6585776,13.7202895 28.6505187,13.655572 L28.6505187,13.6393926 L28.6182832,13.2672667 L28.6077004,13.1781207 Z M14.0240865,-2.19355784e-15 L14.3266727,0.00502346624 C21.21416,0.196189142 26.8594093,5.40667923 27.7545854,12.1229666 L27.7930543,12.4388821 L27.8252898,12.811008 L27.8252898,12.8271874 C27.8333487,12.8919049 27.8333487,12.9485328 27.8414076,13.0051606 C27.8494665,13.0779679 27.8575254,13.1507751 27.8575254,13.2235823 C27.8655842,13.2640308 27.8655842,13.3044793 27.8655842,13.3449277 L27.8696137,13.4824525 L27.8696137,13.4824525 L27.8736431,13.6199773 L27.8736431,13.6766052 C27.8736431,13.7817712 27.881702,13.8869372 27.8736431,13.9840135 C27.8736431,14.4693951 27.8494665,14.946687 27.8011132,15.4158892 C27.7769366,15.6504903 27.7447011,15.8850914 27.7124656,16.1196925 C27.6802301,16.346204 27.6399357,16.5808051 27.5915824,16.8073165 C27.5271114,17.1470836 27.4465227,17.4868507 27.3498162,17.8185281 C27.2611685,18.1502056 27.1564031,18.4737933 27.03552,18.797381 C26.8018126,19.4445565 26.519752,20.0593732 26.1973969,20.6580105 C25.9798073,21.0544055 25.7460999,21.4427107 25.4962747,21.8148366 C25.3028617,22.0979759 25.1094487,22.3649358 24.8999179,22.6318957 C24.4889152,23.1577257 24.0376182,23.6592867 23.5540856,24.1203992 C23.3123193,24.3550003 23.0624942,24.5815117 22.8046102,24.7918438 C22.7240214,24.864651 22.6353738,24.9293686 22.5467261,25.0021758 C22.3694309,25.1397006 22.1921356,25.2772254 22.0067815,25.4066605 C21.7327797,25.6008131 21.4587779,25.786876 21.1686584,25.9648493 C20.9833042,26.0861947 20.7898912,26.1994504 20.5884193,26.3046164 C20.3869474,26.4097824 20.1854755,26.5149484 19.9840036,26.6120248 C19.371529,26.9113434 18.7348778,27.1621239 18.0821089,27.3643662 C17.8645192,27.4290838 17.6469296,27.4938013 17.4212811,27.5504292 C16.4481718,27.798176 15.431872,27.9468242 14.3885781,27.9801151 L13.9398467,27.9872726 L2.14971124,27.9872726 C1.83541508,27.9872726 1.72259082,27.5666086 2.00465148,27.4129044 C2.08524023,27.3724559 2.15777012,27.3239178 2.21418225,27.2834693 C3.03618759,26.6524732 3.5680734,25.6574409 3.5680734,24.5329736 C3.5680734,23.9019775 3.39883701,23.3033402 3.1006586,22.7936895 C2.92336333,22.5752678 2.74606806,22.3487564 2.58489054,22.122245 C1.02952749,19.9380278 0.0866390119,17.2846084 0.00605025298,14.4127672 C-0.221740505,6.59884032 6.01212992,0.122150974 13.7229293,0.00147461967 L14.0240865,-2.19355784e-15 Z M7.58945247,12.5035996 C6.60582694,12.5035996 5.8084409,13.3040349 5.8084409,14.2914218 C5.8084409,15.2788088 6.60582694,16.0792441 7.58945247,16.0792441 C8.573078,16.0792441 9.37046404,15.2788088 9.37046404,14.2914218 C9.37046404,13.3040349 8.573078,12.5035996 7.58945247,12.5035996 Z M14.1735541,12.5035996 C13.1899285,12.5035996 12.3925425,13.3040349 12.3925425,14.2914218 C12.3925425,15.2788088 13.1899285,16.0792441 14.1735541,16.0792441 C15.1571796,16.0792441 15.9545657,15.2788088 15.9545657,14.2914218 C15.9545657,13.3040349 15.1571796,12.5035996 14.1735541,12.5035996 Z M20.7657146,12.5035996 C19.782089,12.5035996 18.984703,13.3040349 18.984703,14.2914218 C18.984703,15.2788088 19.782089,16.0792441 20.7657146,16.0792441 C21.7493401,16.0792441 22.5467261,15.2788088 22.5467261,14.2914218 C22.5467261,13.3040349 21.7493401,12.5035996 20.7657146,12.5035996 Z" id="形状结合"></path>
                            </g>
                        </g>
                    </g>
                </g>
            </g>
        </g>
    </g>
</svg>