<?xml version="1.0" encoding="UTF-8"?>
<svg width="35px" height="35px" viewBox="0 0 35 35" version="1.1" xmlns="http://www.w3.org/2000/svg" xmlns:xlink="http://www.w3.org/1999/xlink">
    <title>kaifazhongjiangshi_icon</title>
    <defs>
        <linearGradient x1="1.80411242e-14%" y1="-3.90334427e-14%" x2="100%" y2="100%" id="linearGradient-1">
            <stop stop-color="#FF8F49" stop-opacity="0.5" offset="0%"></stop>
            <stop stop-color="#FF8F49" offset="100%"></stop>
        </linearGradient>
    </defs>
    <g id="app-1.5同步修改师资" stroke="none" stroke-width="1" fill="none" fill-rule="evenodd">
        <g id="数据看板" transform="translate(-300.000000, -492.000000)">
            <g id="编组-76备份-2" transform="translate(252.000000, 395.000000)">
                <g id="编组-25备份" transform="translate(20.000000, 64.000000)">
                    <g id="编组-15" transform="translate(16.000000, 20.000000)">
                        <g id="编组-78" transform="translate(12.000000, 13.000000)">
                            <rect id="矩形" x="0" y="0" width="34.2727273" height="34.2727273"></rect>
                            <g id="编组" transform="translate(3.000000, 2.000000)" fill="url(#linearGradient-1)" fill-rule="nonzero">
                                <path d="M14,0 C19.0017181,0 23.6234964,2.66838483 26.1243556,7 C28.6252148,11.331615 28.6252148,16.668385 26.1243556,21 C23.6234964,25.3316152 19.0017181,28 14,28 C6.26801338,28 0,21.7319864 0,14 C0,6.26801358 6.26801338,0 14,0 Z M13.9999998,4.82752935 C13.3556676,4.82752935 12.8333331,5.34986387 12.8333331,5.99419608 L12.8333331,14.8235294 L12.8566665,15.0545294 C12.9185051,15.3587581 13.0990483,15.6257941 13.3583331,15.7965294 L20.1693331,20.2905294 L20.3559998,20.3908627 C20.8744662,20.6111656 21.4762989,20.4295358 21.7863331,19.9591961 L21.8843331,19.7725294 C22.1037811,19.2552489 21.9233228,18.6550291 21.4549998,18.3445294 L15.1666665,14.1935294 L15.1666665,5.99419608 L15.1479998,5.78419608 C15.046573,5.22991756 14.5634818,4.82734156 13.9999998,4.82752935 Z" id="形状"></path>
                            </g>
                        </g>
                    </g>
                </g>
            </g>
        </g>
    </g>
</svg>