<?xml version="1.0" encoding="UTF-8"?>
<svg width="58px" height="58px" viewBox="0 0 58 58" version="1.1" xmlns="http://www.w3.org/2000/svg" xmlns:xlink="http://www.w3.org/1999/xlink">
    <title>wuxupinggu_icon</title>
    <g id="讲师管理1.1" stroke="none" stroke-width="1" fill="none" fill-rule="evenodd">
        <g id="数据看板" transform="translate(-847.000000, -169.000000)">
            <g id="编组-31备份-3" transform="translate(252.000000, 89.000000)">
                <g id="编组-4备份-3" transform="translate(579.000000, 64.000000)">
                    <g id="编组-9备份-3" transform="translate(16.000000, 16.000000)">
                        <circle id="椭圆形" fill="#FFFFFF" cx="29" cy="29" r="29"></circle>
                        <g id="编组" transform="translate(12.687500, 9.062500)">
                            <path d="M14.5,23.5625 L14.5,38.0625 L0,38.0625 C0,30.0543711 6.49187113,23.5625 14.5,23.5625 L14.5,23.5625 Z" id="路径" fill="#00C07A"></path>
                            <g transform="translate(18.312500, 23.937500)" id="路径" stroke="#00C07A" stroke-linejoin="round" stroke-width="2.5">
                                <path d="M8,16 C12.41828,16 16,12.41828 16,8 C16,3.58172 12.41828,0 8,0 C3.58172,0 0,3.58172 0,8 C0,12.41828 3.58172,16 8,16 Z" stroke-linecap="round"></path>
                                <line x1="2.90883118" y1="8" x2="13.0911688" y2="8"></line>
                            </g>
                            <path d="M14.5,21.75 C8.4915625,21.75 3.625,16.8834375 3.625,10.875 C3.625,4.8665625 8.4915625,0 14.5,0 C20.5084375,0 25.375,4.8665625 25.375,10.875 C25.375,16.8834375 20.5084375,21.75 14.5,21.75 Z" id="路径" fill="#00C07A"></path>
                        </g>
                    </g>
                </g>
            </g>
        </g>
    </g>
</svg>