<?xml version="1.0" encoding="UTF-8"?>
<svg width="58px" height="58px" viewBox="0 0 58 58" version="1.1" xmlns="http://www.w3.org/2000/svg" xmlns:xlink="http://www.w3.org/1999/xlink">
    <title>shizizongshu_icon</title>
    <g id="讲师管理1.1" stroke="none" stroke-width="1" fill="none" fill-rule="evenodd">
        <g id="数据看板" transform="translate(-288.000000, -169.000000)">
            <g id="编组-31备份-3" transform="translate(252.000000, 89.000000)">
                <g id="编组-4" transform="translate(20.000000, 64.000000)">
                    <g id="编组-6" transform="translate(16.000000, 16.000000)">
                        <circle id="椭圆形" fill="#FFFFFF" cx="29" cy="29" r="29"></circle>
                        <g id="编组" transform="translate(10.875000, 9.062500)" fill="#3CBFFF" fill-rule="nonzero">
                            <path d="M18.1250003,16.3125 C23.1300809,16.3125 27.1875003,20.3699195 27.1875003,25.375 L27.1875003,36.25 L9.06250034,36.25 L9.06250034,25.375 C9.06250034,20.3699195 13.1199198,16.3125 18.1250003,16.3125 L18.1250003,16.3125 Z M5.95950034,21.760875 C5.6710548,22.7338002 5.50066472,23.7378846 5.45200034,24.7515 L5.43750034,25.375 L5.43750034,36.25 L1.67995381e-07,36.25 L1.67995381e-07,28.09375 C-0.000738659809,24.8569046 2.43557761,22.1386037 5.65318784,21.78625 L5.96131284,21.760875 L5.95950034,21.760875 Z M30.2905003,21.760875 C33.638558,21.964948 36.2495073,24.7394787 36.2500003,28.09375 L36.2500003,36.25 L30.8125003,36.25 L30.8125003,25.375 C30.8125003,24.1189375 30.6312503,22.906375 30.2905003,21.760875 L30.2905003,21.760875 Z M6.34375034,10.875 C8.84629061,10.875 10.8750003,12.9037097 10.8750003,15.40625 C10.8750003,17.9087903 8.84629061,19.9375 6.34375034,19.9375 C3.84121006,19.9375 1.81250034,17.9087903 1.81250034,15.40625 C1.81250034,12.9037097 3.84121006,10.875 6.34375034,10.875 Z M29.9062503,10.875 C32.4087906,10.875 34.4375003,12.9037097 34.4375003,15.40625 C34.4375003,17.9087903 32.4087906,19.9375 29.9062503,19.9375 C27.4037101,19.9375 25.3750003,17.9087903 25.3750003,15.40625 C25.3750003,12.9037097 27.4037101,10.875 29.9062503,10.875 Z M18.1250003,0 C22.1290648,0 25.3750003,3.24593556 25.3750003,7.25 C25.3750003,11.2540644 22.1290648,14.5 18.1250003,14.5 C14.1209359,14.5 10.8750003,11.2540644 10.8750003,7.25 C10.8750003,3.24593556 14.1209359,0 18.1250003,0 Z" id="形状"></path>
                        </g>
                    </g>
                </g>
            </g>
        </g>
    </g>
</svg>