<?xml version="1.0" encoding="UTF-8"?>
<svg width="39px" height="39px" viewBox="0 0 39 39" version="1.1" xmlns="http://www.w3.org/2000/svg" xmlns:xlink="http://www.w3.org/1999/xlink">
    <title>yiqianhetongjiangshi_icon</title>
    <defs>
        <linearGradient x1="0.120192308%" y1="8.06174034%" x2="98.590472%" y2="92.9085307%" id="linearGradient-1">
            <stop stop-color="#FF7A7A" offset="0%"></stop>
            <stop stop-color="#FF4747" offset="100%"></stop>
        </linearGradient>
    </defs>
    <g id="师资管理1.3" stroke="none" stroke-width="1" fill="none" fill-rule="evenodd">
        <g id="数据看板" transform="translate(-302.000000, -489.000000)">
            <g id="编组-76备份-2" transform="translate(252.000000, 395.000000)">
                <g id="编组-22" transform="translate(20.000000, 64.000000)">
                    <g id="编组-21" transform="translate(16.000000, 16.000000)">
                        <g id="编组-77" transform="translate(14.000000, 14.000000)">
                            <rect id="矩形" x="0" y="0" width="39" height="39"></rect>
                            <g id="编组" transform="translate(3.000000, 4.000000)" fill="url(#linearGradient-1)">
                                <path d="M22.8191568,0 C24.8090524,0 26.4221815,1.60119667 26.4221815,3.57637287 L26.4221815,12.8391786 C26.2540404,13.02515 26.1027133,13.2301954 25.9730044,13.4543147 L19.9271289,23.8472543 C19.5371985,24.5178473 19.3770491,25.2959378 19.4707458,26.0646054 L19.7830079,28.6276727 C19.8963665,29.5620707 20.3762229,30.4144544 21.1185291,31 L3.60302475,30.9952315 C1.61312913,30.9952315 0,29.3940348 0,27.4188586 L0,3.57637287 C0,1.60119667 1.61312913,0 3.60302475,0 L22.8191568,0 Z M29.5736272,13.5902169 L32.2782977,15.1399785 C32.6097286,15.3295307 32.8516494,15.6420885 32.9507687,16.0088003 C33.049888,16.3755121 32.9980743,16.7662939 32.8067414,17.0950623 L26.7608658,27.4880018 C26.6045916,27.755407 26.3652545,27.9653691 26.0786931,28.0864482 L23.6862847,29.1021381 C23.2689624,29.2796019 22.7917913,29.2515009 22.3985369,29.0263016 C22.0052824,28.8011022 21.7419236,28.4051347 21.687807,27.9576988 L21.3755448,25.3922473 C21.339321,25.0853054 21.4042097,24.7749729 21.5605001,24.5076911 L27.6039736,14.1123673 C27.7953402,13.7837928 28.1104049,13.5441672 28.479815,13.4462374 C28.8492251,13.3483077 29.2427,13.4001011 29.5736272,13.5902169 Z M13.9316957,19.7892632 L6.7256462,19.7892632 C6.06234766,19.7892632 5.52463795,20.3229954 5.52463795,20.9813875 C5.52463795,21.6397795 6.06234766,22.1735118 6.7256462,22.1735118 L13.9316957,22.1735118 C14.5949942,22.1735118 15.132704,21.6397795 15.132704,20.9813875 C15.132704,20.3229954 14.5949942,19.7892632 13.9316957,19.7892632 Z M19.4563337,12.8749423 L6.7256462,12.8749423 C6.06234766,12.8749423 5.52463795,13.4086745 5.52463795,14.0670666 C5.52463795,14.7254587 6.06234766,15.2591909 6.7256462,15.2591909 L19.4563337,15.2591909 C20.1196322,15.2591909 20.6573419,14.7254587 20.6573419,14.0670666 C20.6573419,13.4086745 20.1196322,12.8749423 19.4563337,12.8749423 Z M19.4563337,5.96062144 L6.7256462,5.96062144 C6.06234766,5.96062144 5.52463795,6.49435367 5.52463795,7.15274573 C5.52463795,7.8111378 6.06234766,8.34487002 6.7256462,8.34487002 L19.4563337,8.34487002 C20.1196322,8.34487002 20.6573419,7.8111378 20.6573419,7.15274573 C20.6573419,6.49435367 20.1196322,5.96062144 19.4563337,5.96062144 Z" id="形状结合"></path>
                            </g>
                        </g>
                    </g>
                </g>
            </g>
        </g>
    </g>
</svg>