<?xml version="1.0" encoding="UTF-8"?>
<svg width="58px" height="58px" viewBox="0 0 58 58" version="1.1" xmlns="http://www.w3.org/2000/svg" xmlns:xlink="http://www.w3.org/1999/xlink">
    <title>pinguzhong_icon</title>
    <g id="讲师管理1.1" stroke="none" stroke-width="1" fill="none" fill-rule="evenodd">
        <g id="数据看板" transform="translate(-474.000000, -169.000000)">
            <g id="编组-31备份-3" transform="translate(252.000000, 89.000000)">
                <g id="编组-4备份" transform="translate(206.000000, 64.000000)">
                    <g id="编组-9" transform="translate(16.000000, 16.000000)">
                        <circle id="椭圆形" fill="#FFFFFF" cx="29" cy="29" r="29"></circle>
                        <g id="编组" transform="translate(30.387500, 33.000000)"></g>
                        <g id="编组" transform="translate(12.687500, 9.062500)" fill="#FAAB0C">
                            <path d="M14.5,24 L14.5,38.5 L0,38.5 C0,30.4918711 6.49187113,24 14.5,24 L14.5,24 Z" id="路径"></path>
                            <path d="M25.7,39.9375 C21.2816,39.9375 17.7,36.3559 17.7,31.9375 C17.7,27.5191 21.2816,23.9375 25.7,23.9375 C30.1184,23.9375 33.7,27.5191 33.7,31.9375 C33.7,36.3559 30.1184,39.9375 25.7,39.9375 Z M29.556,35.9983 C31.5507186,34.1076456 31.8786074,31.0488777 30.3299484,28.7783861 C28.7812894,26.5078945 25.8138474,25.6968088 23.3256,26.8639 L24.1056,28.2679 C25.3422353,27.7304346 26.766433,27.852179 27.893905,28.5917348 C29.021377,29.3312907 29.700371,30.5891173 29.7,31.9375 L27.3,31.9375 L29.556,35.9983 Z M28.0744,37.0111 L27.2944,35.6071 C26.0577647,36.1445654 24.633567,36.022821 23.506095,35.2832652 C22.378623,34.5437093 21.699629,33.2858827 21.7,31.9375 L24.1,31.9375 L21.844,27.8767 C19.8492814,29.7673544 19.5213926,32.8261223 21.0700516,35.0966139 C22.6187106,37.3671055 25.5861526,38.1781912 28.0744,37.0111 L28.0744,37.0111 Z" id="形状"></path>
                            <path d="M14.5,21.75 C8.4915625,21.75 3.625,16.8834375 3.625,10.875 C3.625,4.8665625 8.4915625,0 14.5,0 C20.5084375,0 25.375,4.8665625 25.375,10.875 C25.375,16.8834375 20.5084375,21.75 14.5,21.75 Z" id="路径"></path>
                        </g>
                    </g>
                </g>
            </g>
        </g>
    </g>
</svg>