<?xml version="1.0" encoding="UTF-8"?>
<svg width="58px" height="58px" viewBox="0 0 58 58" version="1.1" xmlns="http://www.w3.org/2000/svg" xmlns:xlink="http://www.w3.org/1999/xlink">
    <title>weipingu_icon</title>
    <g id="讲师管理1.1" stroke="none" stroke-width="1" fill="none" fill-rule="evenodd">
        <g id="数据看板" transform="translate(-660.000000, -169.000000)">
            <g id="编组-31备份-3" transform="translate(252.000000, 89.000000)">
                <g id="编组-4备份-2" transform="translate(392.000000, 64.000000)">
                    <g id="编组-9" transform="translate(16.000000, 16.000000)">
                        <circle id="椭圆形" fill="#FFFFFF" cx="29" cy="29" r="29"></circle>
                        <g id="编组" transform="translate(12.687500, 9.062500)" fill="#EE2E14">
                            <path d="M14.5,23.5625 L14.5,38.0625 L0,38.0625 C0,30.0543711 6.49187113,23.5625 14.5,23.5625 L14.5,23.5625 Z M14.5,21.75 C8.4915625,21.75 3.625,16.8834375 3.625,10.875 C3.625,4.8665625 8.4915625,0 14.5,0 C20.5084375,0 25.375,4.8665625 25.375,10.875 C25.375,16.8834375 20.5084375,21.75 14.5,21.75 Z M31.620875,34.4955 L34.346875,37.2215 L31.784,39.784375 L29.058,37.058375 C25.9130652,38.9127115 21.879886,38.1392218 19.6441102,35.2529638 C17.4083343,32.3667058 17.6675411,28.2682143 20.2491277,25.6866277 C22.8307143,23.1050411 26.9292058,22.8458343 29.8154638,25.0816102 C32.7017218,27.317386 33.4752115,31.3505652 31.620875,34.4955 L31.620875,34.4955 Z M25.375,34.4375 C27.3770322,34.4375 29,32.8145322 29,30.8125 C29,28.8104678 27.3770322,27.1875 25.375,27.1875 C23.3729678,27.1875 21.75,28.8104678 21.75,30.8125 C21.75,32.8145322 23.3729678,34.4375 25.375,34.4375 Z" id="形状"></path>
                        </g>
                    </g>
                </g>
            </g>
        </g>
    </g>
</svg>