<?xml version="1.0" encoding="UTF-8"?>
<svg width="14px" height="14px" viewBox="0 0 14 14" version="1.1" xmlns="http://www.w3.org/2000/svg" xmlns:xlink="http://www.w3.org/1999/xlink">
    <title>time</title>
    <g id="自媒体运营-1.1.2" stroke="none" stroke-width="1" fill="none" fill-rule="evenodd">
        <g id="在线剪辑-产品" transform="translate(-391.000000, -153.000000)">
            <g id="编组-14" transform="translate(0.000000, 68.000000)">
                <g id="编组-13" transform="translate(10.000000, 10.000000)">
                    <g id="编组-9备份-3" transform="translate(333.000000, 40.000000)">
                        <g id="标签/中标签/普通标签" transform="translate(38.000000, 30.000000)">
                            <g id="编组-57" transform="translate(10.000000, 1.000000)">
                                <g id="time" transform="translate(0.000000, 4.000000)">
                                    <path d="M0,0 L14,0 L14,14 L0,14 L0,0 Z" id="time-(Background)"></path>
                                    <path d="M7,13.125 C3.6172559,13.125 0.875,10.3827443 0.875,7 C0.875,3.6172559 3.6172559,0.875 7,0.875 C10.3827443,0.875 13.125,3.6172559 13.125,7 C13.125,10.3827443 10.3827443,13.125 7,13.125 Z" fill="#FFFFFF"></path>
                                    <polygon fill="#FF7D00" points="6.5625 7.34030902 8.75021362 9.625 9.36893272 9.0062809 7.4375 6.97787249 7.4375 3.5 6.5625 3.5"></polygon>
                                </g>
                            </g>
                        </g>
                    </g>
                </g>
            </g>
        </g>
    </g>
</svg>