<?xml version="1.0" encoding="UTF-8"?>
<svg width="14px" height="14px" viewBox="0 0 14 14" version="1.1" xmlns="http://www.w3.org/2000/svg" xmlns:xlink="http://www.w3.org/1999/xlink">
    <title>开班时间</title>
    <g id="直播列表" stroke="none" stroke-width="1" fill="none" fill-rule="evenodd">
        <g id="直播间详情-直播带货" transform="translate(-543.000000, -524.000000)">
            <g id="编组-4-+-编组-4-+-编组-4备份-+-编组-4备份-2-+-编组-4备份-3-+-编组-3-蒙版" transform="translate(252.000000, 343.000000)">
                <g id="编组-4" transform="translate(105.000000, 131.000000)">
                    <g id="编组-15" transform="translate(186.000000, 47.000000)">
                        <g id="开班时间" transform="translate(0.000000, 3.000000)">
                            <rect id="矩形" x="0" y="0" width="14" height="14"></rect>
                            <path d="M11.4575296,2.54471003 C10.2671169,1.35528651 8.68502109,0.7 7.00126707,0.7 C5.318096,0.7 3.73579333,1.35528651 2.54586955,2.54484162 C1.35551323,3.73477274 0.700000104,5.31702975 0.700000104,7.00003789 C0.699699337,8.68323402 1.35470464,10.2651338 2.54491051,11.4557982 C3.73468386,12.6446013 5.31713696,13.3000006 7.00008237,13.3000006 C8.68383639,13.3000006 10.266816,12.6441876 11.4575296,11.4545573 C13.9139687,8.99844084 13.9143448,5.00176653 11.4575296,2.54471003 L11.4575296,2.54471003 L11.4575296,2.54471003 Z M10.8768029,10.8738518 C9.84135969,11.9089056 8.46459239,12.4795153 7.00010118,12.4795153 C5.53664422,12.4795153 4.16021542,11.9091876 3.1254492,10.8750739 C2.09066417,9.84033971 1.52093818,8.46417223 1.52116378,7.00003789 C1.52116378,5.53611033 2.0911719,4.15979246 3.12631422,3.12530271 C4.16130609,2.09079415 5.53728358,1.52110568 7.00126707,1.52110568 C8.46530698,1.52110568 9.84158535,2.09077535 10.8768029,3.1253779 C13.0132612,5.2618695 13.0132612,8.73809346 10.8768029,10.8738518 L10.8768029,10.8738518 L10.8768029,10.8738518 Z M9.72428163,8.54394216 L7.54609564,7.28454371 L7.54609564,3.85000014 C7.54609564,3.5601362 7.31088645,3.32500011 7.02088037,3.32500011 C6.73109995,3.32500011 6.49589077,3.5601362 6.49589077,3.85000014 L6.49589077,7.5250379 C6.49589077,7.71977202 6.73800128,7.88305313 6.89549063,7.97338886 C6.93904231,8.03896451 7.05879065,8.09831724 7.13179049,8.14029845 L9.29792267,9.45288311 C9.54885259,9.59770228 9.82093779,9.51163423 9.96586561,9.26068704 C10.1107934,9.00966465 9.97585091,8.68889293 9.72426283,8.54399856 L9.72426283,8.54399856 L9.72426282,8.54394216 L9.72428163,8.54394216 Z" id="形状" fill="#686868" fill-rule="nonzero"></path>
                        </g>
                    </g>
                </g>
            </g>
        </g>
    </g>
</svg>