<svg xmlns="http://www.w3.org/2000/svg" fill="none" viewBox="0 0 20 20" class="design-iconfont">
  <path d="M0 10C0 15.525 4.47501 20 10 20C15.525 20 20 15.525 20 10C20 4.47501 15.525 0 10 0C4.47501 0 0 4.47501 0 10ZM11.2629 10.9375L11.2629 4.84999C11.2629 4.125 10.6754 3.55 9.96289 3.55C9.2379 3.55 8.6504 4.125 8.6504 4.84999L8.6504 10.9375C8.6504 11.6625 9.2379 12.2375 9.96289 12.2375C10.6754 12.2375 11.2629 11.6625 11.2629 10.9375ZM9.9998 16.45C9.1623 16.45 8.4873 15.775 8.4873 14.9375C8.48732 14.1 9.16232 13.425 9.9998 13.425C10.8373 13.425 11.5123 14.1 11.5123 14.9375C11.5123 15.775 10.8373 16.45 9.9998 16.45Z" fill-rule="evenodd" fill="#F53F3F"/>
</svg>
