<?xml version="1.0" encoding="UTF-8"?>
<svg width="288px" height="238px" viewBox="0 0 288 238" version="1.1" xmlns="http://www.w3.org/2000/svg" xmlns:xlink="http://www.w3.org/1999/xlink">
    <title>zanwuneirong</title>
    <defs>
        <linearGradient x1="50%" y1="0%" x2="50%" y2="100%" id="linearGradient-1">
            <stop stop-color="#DCDCE4" offset="0%"></stop>
            <stop stop-color="#DEDEE6" stop-opacity="0" offset="100%"></stop>
        </linearGradient>
        <linearGradient x1="85.5049821%" y1="49.9997137%" x2="31.0675919%" y2="73.8494029%" id="linearGradient-2">
            <stop stop-color="#E2E2EA" offset="0%"></stop>
            <stop stop-color="#D9D9E8" offset="100%"></stop>
        </linearGradient>
        <linearGradient x1="68.0169099%" y1="37.9178048%" x2="23.4338044%" y2="82.109995%" id="linearGradient-3">
            <stop stop-color="#F4F4F9" offset="0%"></stop>
            <stop stop-color="#E3E3EA" offset="100%"></stop>
        </linearGradient>
        <linearGradient x1="49.9999451%" y1="40.1930664%" x2="49.9999451%" y2="127.411922%" id="linearGradient-4">
            <stop stop-color="#FCFCFE" offset="0%"></stop>
            <stop stop-color="#EBEBF0" offset="100%"></stop>
        </linearGradient>
        <linearGradient x1="42.7878191%" y1="13.2328734%" x2="67.4922914%" y2="75.9619822%" id="linearGradient-5">
            <stop stop-color="#FFD2C4" offset="0%"></stop>
            <stop stop-color="#FFB8A3" offset="100%"></stop>
        </linearGradient>
        <linearGradient x1="86.3627861%" y1="51.7809035%" x2="21.9412591%" y2="51.3526658%" id="linearGradient-6">
            <stop stop-color="#FFD2C4" offset="0%"></stop>
            <stop stop-color="#FFB8A3" offset="100%"></stop>
        </linearGradient>
        <linearGradient x1="48.3601394%" y1="95.3400235%" x2="47.8469283%" y2="2.99282289%" id="linearGradient-7">
            <stop stop-color="#66BDFF" offset="0%"></stop>
            <stop stop-color="#33A7FF" offset="100%"></stop>
        </linearGradient>
        <linearGradient x1="48.3602406%" y1="95.3400235%" x2="47.8470611%" y2="2.99282289%" id="linearGradient-8">
            <stop stop-color="#66BDFF" offset="0%"></stop>
            <stop stop-color="#33A7FF" offset="100%"></stop>
        </linearGradient>
        <linearGradient x1="41.8328023%" y1="18.6286407%" x2="58.9617763%" y2="64.527672%" id="linearGradient-9">
            <stop stop-color="#FFD2C4" offset="0%"></stop>
            <stop stop-color="#FFB8A3" offset="100%"></stop>
        </linearGradient>
        <linearGradient x1="18.648611%" y1="11.0672112%" x2="18.648611%" y2="97.1933552%" id="linearGradient-10">
            <stop stop-color="#EEEEEE" offset="0%"></stop>
            <stop stop-color="#DEDEE6" stop-opacity="0" offset="100%"></stop>
        </linearGradient>
        <linearGradient x1="50%" y1="0%" x2="50%" y2="100%" id="linearGradient-11">
            <stop stop-color="#DCDCE4" offset="0%"></stop>
            <stop stop-color="#DEDEE6" stop-opacity="0" offset="100%"></stop>
        </linearGradient>
        <linearGradient x1="50%" y1="1.61661506e-13%" x2="50%" y2="100%" id="linearGradient-12">
            <stop stop-color="#DCDCE4" offset="0%"></stop>
            <stop stop-color="#DEDEE6" stop-opacity="0" offset="100%"></stop>
        </linearGradient>
        <linearGradient x1="18.6507588%" y1="11.0672877%" x2="18.6507588%" y2="97.1943664%" id="linearGradient-13">
            <stop stop-color="#EEEEEE" offset="0%"></stop>
            <stop stop-color="#DEDEE6" stop-opacity="0" offset="100%"></stop>
        </linearGradient>
        <linearGradient x1="50%" y1="1.93906896e-14%" x2="50%" y2="100%" id="linearGradient-14">
            <stop stop-color="#DCDCE4" offset="0%"></stop>
            <stop stop-color="#DEDEE6" stop-opacity="0" offset="100%"></stop>
        </linearGradient>
        <linearGradient x1="50%" y1="0%" x2="50%" y2="100%" id="linearGradient-15">
            <stop stop-color="#DCDCE4" offset="0%"></stop>
            <stop stop-color="#DEDEE6" stop-opacity="0" offset="100%"></stop>
        </linearGradient>
    </defs>
    <g id="产品管理" stroke="none" stroke-width="1" fill="none" fill-rule="evenodd">
        <g id="课程产品-暂无内容" transform="translate(-884.000000, -441.000000)">
            <g id="编组-21" transform="translate(666.000000, 178.000000)">
                <g id="编组" transform="translate(218.000000, 263.000000)">
                    <path d="M36.6105395,42.6149854 C45.7596342,42.6149854 53.6023896,47.4102235 56.9054099,54.2285448 L58.6011727,54.2285448 C67.5803371,54.2285448 74.8590183,61.5045666 74.8590183,70.4804502 L74.8590183,72.0941983 C74.8590183,81.0700819 67.5803371,88.3449241 58.6011727,88.3449241 L16.2566656,88.3449241 C7.2775012,88.3449241 0,81.0700819 0,72.0941983 L0,70.4804502 C0,61.5045666 7.2775012,54.2285448 16.2566656,54.2285448 L16.3156691,54.2285448 C19.6175093,47.4102235 27.4602648,42.6149854 36.6105395,42.6149854 L36.6105395,42.6149854 Z" id="路径" fill="url(#linearGradient-1)" fill-rule="nonzero" opacity="0.302"></path>
                    <path d="M68.1927942,25.2506791 L154.162186,0.514800072 C156.577369,-0.180006199 159.132601,1.02891385 160.126268,3.33649984 L186.708559,65.0517452 C187.272628,66.361033 187.249426,67.8489982 186.644809,69.1400757 C186.040191,70.4311532 184.911925,71.4019902 183.544787,71.8075457 L92.6792787,98.7587893 C90.1083654,99.5205523 87.394702,98.1157758 86.5334661,95.5772992 L64.8472914,31.6466892 C64.4092938,30.3554877 64.5190433,28.9413469 65.1510175,27.7331237 C65.7829918,26.5249006 66.8821176,25.6278857 68.1927942,25.2506791 Z" id="路径" fill="url(#linearGradient-2)"></path>
                    <path d="M66.9289376,78.520879 L100.933879,70.5748215 C103.379099,70.0035054 105.460009,68.4077212 106.645425,66.1948168 L110.17974,59.5935492 C111.298248,57.5058606 113.216896,55.9617112 115.495962,55.3149936 L153.305454,44.5897033 C156.975021,43.5493646 159.544551,40.2485967 159.651879,36.4372087 L160.534572,5.12955321 C160.578689,3.55412589 159.875653,2.05046741 158.638286,1.07375995 C157.400919,0.0970524953 155.774685,-0.237882582 154.251872,0.170345083 L61.9195339,24.95223 C59.6333334,25.5663452 58.0930637,27.7012412 58.2318103,30.0636118 L60.8114467,73.9556708 C60.8977889,75.4245599 61.6284256,76.7804248 62.807957,77.6606561 C63.9874884,78.5408873 65.4955897,78.8556918 66.9289376,78.520879 L66.9289376,78.520879 Z" id="路径" fill="url(#linearGradient-3)"></path>
                    <path d="M146.094037,51.6368749 L150.512225,56.0463706 L146.094037,60.4558664 L141.675849,56.0463706 L146.094037,51.6368749 Z M146.094037,73.8023175 L150.512225,78.2118133 L146.094037,82.621309 L141.675849,78.2118133 L146.094037,73.8023175 Z M102.400708,76.6251969 L106.818896,81.0346927 L102.400708,85.4441884 L97.9825202,81.0346927 L102.400708,76.6251969 Z M90.7061991,104.981392 L95.1173065,109.38499 L90.7061991,113.787408 L86.2950916,109.38499 L90.7061991,104.981392 Z M126.143747,68.0468522 L127.911495,69.8104145 L126.143747,71.5739769 L124.37718,69.8104145 L126.143747,68.0468522 Z" id="形状" fill="#ECECF2"></path>
                    <path d="M208.581185,175.024899 C208.581185,180.987981 184.763801,179.527586 177.931187,181.004496 C166.471512,183.480561 191.157429,194.651755 149.545746,195.900994 C114.738356,196.946156 77.2545636,192.070702 78.2009809,179.493376 C79.1473983,166.914871 106.831877,160.058801 141.891802,160.058801 C176.952908,160.058801 208.581185,162.501836 208.581185,175.024899 Z" id="路径" fill="url(#linearGradient-4)" fill-rule="nonzero"></path>
                    <path d="M139.285024,98.5959989 C133.355165,92.3828331 129.519932,88.8840197 127.779327,88.1007385 C127.058303,87.7421278 125.491168,83.6570332 123.076742,75.8466343 C123.029539,73.2809165 122.363978,71.7697972 121.081241,71.3120967 C120.25519,71.0466776 118.808423,71.0395998 118.59837,72.3289467 C118.457942,73.1877249 119.031456,74.4676347 120.318914,76.1663168 C120.166685,83.6558536 121.743261,89.4018818 125.048641,93.4055813 C128.355202,97.4092807 132.078327,101.269064 136.218018,104.982572 L139.285024,99.2636754 L139.285024,98.5959989 L139.285024,98.5959989 Z" id="路径" fill="url(#linearGradient-5)"></path>
                    <path d="M164.671903,109.454589 C165.874396,109.709391 169.614043,114.748815 170.949884,116.617365 C170.932183,117.052652 179.062876,108.375218 179.977431,107.726415 C182.472102,105.955775 184.929011,106.861739 184.73902,109.015762 C184.550208,111.169786 180.772799,110.162373 180.541505,110.503289 C176.504481,116.460473 176.449017,117.096299 173.718332,121.032759 C171.460855,124.469051 166.013645,119.138256 159.946897,113.927785 C153.881329,108.717313 163.46941,109.200966 164.671903,109.454589 L164.671903,109.454589 Z" id="路径" fill="url(#linearGradient-6)"></path>
                    <path d="M137.380389,174.892779 C134.840875,176.738916 133.066047,177.661395 132.057086,177.661395 C130.544234,177.661395 129.726445,179.25273 131.13427,180.111508 C132.540915,180.970286 137.047609,179.731664 138.202899,179.731664 C139.357009,179.731664 142.328429,180.223574 141.18966,176.334299 C140.430874,173.74145 139.733451,172.638486 139.098573,173.024229 L137.380389,173.570402 L137.380389,174.892779 L137.380389,174.892779 Z M158.488328,174.892779 C161.027842,176.738916 162.80267,177.661395 163.811631,177.661395 C165.324483,177.661395 166.142272,179.25273 164.735627,180.111508 C163.327802,180.970286 158.821109,179.731664 157.665818,179.731664 C156.511709,179.731664 153.540288,180.223574 154.679057,176.334299 C155.437843,173.74145 156.135266,172.638486 156.770144,173.024229 L158.488328,173.570402 L158.488328,174.892779 L158.488328,174.892779 Z" id="形状" fill="#3E3E6E"></path>
                    <path d="M137.311945,129.156942 C135.833315,140.050921 135.400229,151.17257 136.013866,162.519531 C136.875318,174.761839 135.973743,174.491701 137.311945,174.491701 C137.817015,174.491701 139.87624,174.766557 140.329387,173.959683 C141.415053,172.030971 143.16864,155.853383 142.492459,152.601115 C142.425195,152.111564 149.241288,136.930772 149.241288,131.026672 C148.987572,129.874163 145.011911,129.251313 137.311945,129.156942 L137.311945,129.156942 Z" id="路径" fill="url(#linearGradient-7)"></path>
                    <path d="M158.3479,129.156942 C159.826529,140.050921 160.259616,151.17257 159.644798,162.519531 C158.784526,174.761839 159.686101,174.491701 158.3479,174.491701 C157.841649,174.491701 155.783604,174.766557 155.329277,173.959683 C154.244791,172.030971 152.491205,155.853383 153.167386,152.601115 C153.23465,152.111564 146.418557,136.930772 146.418557,131.026672 C146.672272,129.874163 150.647933,129.251313 158.3479,129.156942 L158.3479,129.156942 Z" id="路径" fill="url(#linearGradient-8)"></path>
                    <path d="M143.757495,87.0897867 C142.824059,91.7552644 143.263045,94.4991079 145.074455,95.3201376 C147.446399,96.3098559 145.770697,98.3494541 145.291588,98.6007175 C144.971789,98.7682264 145.049674,99.3344538 145.526423,100.301759 C147.026293,101.094477 148.12848,101.410621 148.832983,101.24901 C149.537486,101.087399 150.396578,100.293501 151.410259,98.8673162 C149.520965,97.5083705 148.863665,96.4183828 149.43836,95.5973531 C150.011874,94.7763234 150.883947,93.9199045 152.053398,93.0280963 C153.188627,92.1575217 153.144964,91.4957435 151.92241,91.0415819 C152.217428,90.2193726 152.327175,89.2803789 152.25047,88.2257804 L148.268909,87.0897867 L144.217723,86.2062361 L143.757495,87.0897867 L143.757495,87.0897867 Z" id="路径" fill="url(#linearGradient-9)"></path>
                    <path d="M146.420917,88.1502834 C150.300992,87.0449604 151.331194,88.7436425 151.331194,89.4620435 C151.331194,89.9409775 151.208467,90.7360551 150.964192,91.844917 C151.440941,91.6325818 151.777261,91.470971 151.971973,91.3612645 C153.161485,90.6876898 153.949773,89.4927141 154.23063,88.5619779 C154.754582,86.8243676 153.213409,83.1356322 149.217686,83.6853446 C147.825202,83.4222848 147.604529,81.3697105 145.184202,82.6319257 C142.762695,83.8941409 141.947266,82.9244765 141.947266,84.218542 C141.947266,85.5137872 142.047572,89.5033309 146.420917,88.1502834 Z" id="路径" fill="#353564"></path>
                    <path d="M145.665671,98.218514 C147.314231,100.061112 148.976952,100.061112 150.652653,98.218514 C152.231589,98.4638792 160.444887,99.4429807 164.424088,105.577111 C166.5966,108.777475 167.690526,110.852462 167.707047,111.800893 C164.635321,116.290604 163.098868,118.428113 163.098868,118.215778 C163.098868,118.003442 161.429067,116.462832 158.088284,113.593947 C161.020762,122.428273 161.792529,127.612793 160.405945,129.146325 C158.324298,131.445444 140.813217,131.78754 136.616882,130.130145 C135.402589,129.499038 135.970203,111.707702 137.977505,106.144518 C138.041229,105.850787 134.965962,108.23484 126.303057,97.8398494 C126.0281,97.4588256 128.258436,94.9461916 132.996423,90.3031271 C135.030866,92.5810126 136.691227,94.1157248 137.977505,94.9060838 C139.264963,95.6952632 141.826898,96.8005863 145.665671,98.218514 L145.665671,98.218514 Z" id="路径" fill="#0091FF"></path>
                    <polygon id="路径" fill="url(#linearGradient-10)" fill-rule="nonzero" opacity="0.302" points="8.53309732 131.411235 8.53309732 225.507608 42.4318324 238 42.4318324 140.323418 8.53309732 131.411235"></polygon>
                    <polygon id="路径" fill="url(#linearGradient-11)" fill-rule="nonzero" opacity="0.302" points="42.3775491 140.18658 73.8122949 128.60487 73.8122949 225.946435 42.3775491 237.858443 42.3775491 140.18658"></polygon>
                    <polygon id="路径" fill="url(#linearGradient-12)" fill-rule="nonzero" opacity="0.302" points="8.31714423 131.316864 40.3348453 119.525178 73.8063945 128.678008 42.3610281 140.264436 8.31714423 131.316864"></polygon>
                    <polygon id="路径" fill="url(#linearGradient-13)" fill-rule="nonzero" opacity="0.302" points="191.477228 67.6103852 191.477228 142.069286 218.380499 151.953492 218.380499 74.6622754 191.477228 67.6103852"></polygon>
                    <polygon id="路径" fill="url(#linearGradient-14)" fill-rule="nonzero" opacity="0.302" points="218.338017 74.5537485 243.287089 65.3891224 243.287089 142.417279 218.338017 151.841426"></polygon>
                    <polygon id="路径" fill="url(#linearGradient-15)" fill-rule="nonzero" opacity="0.302" points="191.306118 67.5360679 216.717779 58.2051125 243.281189 65.4481044 218.325036 74.6162694 191.306118 67.5360679"></polygon>
                    <path d="M249.751521,129.91899 C258.900616,129.91899 266.743371,134.714228 270.046392,141.532549 L271.742154,141.532549 C280.721319,141.532549 288,148.808571 288,157.783275 L288,159.398203 C288,168.372907 280.721319,175.648928 271.742154,175.648928 L229.397647,175.648928 C220.418483,175.648928 213.140982,168.372907 213.140982,159.398203 L213.140982,157.783275 C213.140982,148.808571 220.418483,141.532549 229.397647,141.532549 L229.455471,141.532549 C232.758491,134.714228 240.601246,129.91899 249.751521,129.91899 Z" id="路径" fill="url(#linearGradient-1)" fill-rule="nonzero" opacity="0.302"></path>
                </g>
            </g>
        </g>
    </g>
</svg>