<?xml version="1.0" encoding="UTF-8"?>
<svg width="24px" height="24px" viewBox="0 0 24 24" version="1.1" xmlns="http://www.w3.org/2000/svg" xmlns:xlink="http://www.w3.org/1999/xlink">
    <g id="直播列表-原型修改" stroke="none" stroke-width="1" fill="none" fill-rule="evenodd">
        <g id="4-1.2-运营直播间-公共" transform="translate(-652.000000, -763.000000)">
            <g id="编组-59" transform="translate(340.000000, 69.000000)">
                <g id="编组-60" transform="translate(0.000000, 84.000000)">
                    <g id="操作栏1" transform="translate(0.000000, 540.000000)">
                        <g id="推送商品-黑" transform="translate(312.000000, 70.000000)">
                            <rect id="矩形" x="0" y="0" width="24" height="24"></rect>
                            <g id="商品">
                                <rect id="矩形" x="0" y="0" width="24" height="24"></rect>
                                <g id="编组-51" transform="translate(0.000000, 0.500000)">
                                    <path d="M21.0850671,1 C21.3527628,1 21.5967128,1.10541916 21.776646,1.27769908 C21.9565791,1.44997901 22.0724953,1.6891197 22.0841232,1.95656278 L22.0841232,1.95656278 L22.9102102,20.9565628 C22.922205,21.2324445 22.8212412,21.4870704 22.6483082,21.6757246 C22.4791438,21.8602676 22.2411129,21.9816828 21.9725832,21.9981147 L21.9725832,21.9981147 L2.08884599,22 C1.81270361,22 1.56270361,21.8880712 1.38173921,21.7071068 C1.20471811,21.5300857 1.09375674,21.2870049 1.08900498,21.0180142 L1.08900498,21.0180142 L1.91587679,1.95656278 C1.92750475,1.6891197 2.04342092,1.44997901 2.22335404,1.27769908 C2.40328715,1.10541916 2.64723721,1 2.91493294,1 L2.91493294,1 Z" id="矩形备份-5" stroke="#333333" stroke-width="2"></path>
                                    <path d="M6,8.23076924 C6,7.55101539 6.55101551,7 7.23076933,7 C7.91052315,7 8.46153857,7.55101539 8.46153857,8.23076924 C8.46192689,8.5896396 8.30530416,8.9307201 8.03286165,9.16430768 C8.52800011,11.9796923 9.87803089,13.2870154 12.1538463,13.2870154 C14.4227693,13.2870154 15.7849847,11.9872 16.3095386,9.19310768 C16.0164216,8.9597647 15.8457998,8.60542427 15.846154,8.23076924 C15.846154,7.55101539 16.3971693,7 17.0769232,7 C17.756677,7 18.3076924,7.55101539 18.3076924,8.23076924 C18.3076924,8.69846154 18.0467693,9.10535385 17.6625232,9.3136 C17.0369232,12.7963077 15.1762463,14.6408615 12.1538463,14.6408615 C9.13735396,14.6408615 7.29156935,12.8033231 6.68996934,9.33673845 C6.26760601,9.13013912 5.99985509,8.70095436 6,8.23076924 Z" id="路径" fill="#333333"></path>
                                </g>
                            </g>
                        </g>
                    </g>
                </g>
            </g>
        </g>
    </g>
</svg>