<?xml version="1.0" encoding="UTF-8"?>
<svg width="24px" height="24px" viewBox="0 0 24 24" version="1.1" xmlns="http://www.w3.org/2000/svg" xmlns:xlink="http://www.w3.org/1999/xlink">
    <g id="运营直播间" stroke="none" stroke-width="1" fill="none" fill-rule="evenodd">
        <g id="图标/状态" transform="translate(-400.000000, -172.000000)">
            <g id="图片" transform="translate(400.000000, 172.000000)">
                <rect id="矩形" x="0" y="0" width="24" height="24"></rect>
                <g id="编组-46" transform="translate(0.000000, 1.000000)">
                    <path d="M24,18.7733333 C24,20.5553333 22.5225,22 20.7,22 L3.30000002,22 C1.47750002,22 0,20.5553333 0,18.7733333 L0,3.22666665 C0,1.44466666 1.47749999,0 3.30000002,0 L20.7,0 C22.5225,0 24,1.44466666 24,3.22666665 L24,10.6861333 L24,18.7733333 Z M22,9.97195439 L22,3.5 C22,3.10217525 21.8450635,2.72064438 21.5692747,2.43933982 C21.2934859,2.15803525 20.919436,2 20.5294117,2 L3.47058825,2 C3.080564,2 2.70651412,2.15803525 2.43072533,2.43933982 C2.15493653,2.72064438 2,3.10217525 2,3.5 L2,12.9385 C2.38948673,12.879504 2.7827127,12.8499236 3.1764706,12.85 C5.02135077,12.8472506 6.80914951,13.5023253 8.23058824,14.7019 C9.65705882,10.9108 13.2575283,8.74958756 17.3134106,8.74958756 C19.1251753,8.74958756 20.7958823,9.26365439 22,9.97195439 Z M20.7964706,10.6786531 C19.8520588,10.2525714 18.6464706,10 17.2941176,10 C13.9364706,10 10.9761765,11.8969388 9.83735294,14.6932653 C9.76205882,14.878449 9.63323529,15.1986735 9.45147058,15.6528776 C9.23970588,16.1826939 8.50147059,16.3519592 8.03500001,15.9776122 C7.58176473,15.6136122 7.24764706,15.3541429 7.03852942,15.2029184 C5.94395546,14.4090584 4.58096723,13.977325 3.1764706,13.9795918 C2.77764707,13.9795918 2.38441178,14.013551 2,14.0804082 L2,18.6734694 C2,19.0252872 2.15493653,19.3626954 2.43072533,19.6114682 C2.70651412,19.8602409 3.080564,20 3.47058825,20 L20.5294117,20 C20.919436,20 21.2934859,19.8602409 21.5692747,19.6114682 C21.8450635,19.3626954 22,19.0252872 22,18.6734694 L22,11.4971224 C21.8529412,11.290449 21.4173529,10.9588163 20.7964706,10.6786531 Z" id="形状" fill="#333333" fill-rule="nonzero"></path>
                    <circle id="椭圆形" stroke="#333333" stroke-width="1.5" cx="5.625" cy="6.375" r="1.875"></circle>
                </g>
            </g>
        </g>
    </g>
</svg>