<?xml version="1.0" encoding="UTF-8"?>
<svg width="20px" height="20px" viewBox="0 0 20 20" version="1.1" xmlns="http://www.w3.org/2000/svg" xmlns:xlink="http://www.w3.org/1999/xlink">
    <title>gaunbi</title>
    <g id="产品管理" stroke="none" stroke-width="1" fill="none" fill-rule="evenodd">
        <g id="编组-73" fill-rule="nonzero">
            <g id="编组">
                <path d="M0,10 C0,4.477 4.476,0 10,0 C15.523,0 20,4.476 20,10 C20,15.523 15.524,20 10,20 C4.477,20 0,15.524 0,10 Z" id="路径" fill="#FFFFFF"></path>
                <path d="M10,9.29300001 L7.52300001,6.8155 C7.42918141,6.72233942 7.30219646,6.67026532 7.16998222,6.67073417 C7.03776798,6.67120301 6.91115554,6.72417639 6.81800001,6.81800001 C6.7238078,6.91095779 6.67057886,7.03764293 6.67010645,7.16998001 C6.6696403,7.30231708 6.72196943,7.42937654 6.8155,7.52300001 L9.29300001,10 L6.8155,12.477 C6.72233942,12.5708186 6.67026532,12.6978035 6.67073417,12.8300178 C6.67120301,12.962232 6.72417639,13.0888445 6.81800001,13.182 C6.91095779,13.2761922 7.03764293,13.3294211 7.16998001,13.3298935 C7.30231708,13.3303597 7.42937654,13.2780306 7.52300001,13.1845 L10,10.707 L12.477,13.1845 C12.5708186,13.2776606 12.6978035,13.3297347 12.8300178,13.3292658 C12.962232,13.328797 13.0888445,13.2758236 13.182,13.182 C13.2761922,13.0890422 13.3294211,12.9623571 13.3298935,12.83002 C13.3303597,12.6976829 13.2780306,12.5706235 13.1845,12.477 L10.707,10 L13.1845,7.52300001 C13.2776606,7.42918141 13.3297347,7.30219646 13.3292658,7.16998222 C13.328797,7.03776798 13.2758236,6.91115554 13.182,6.81800001 C13.0890422,6.7238078 12.9623571,6.67057886 12.83002,6.67010645 C12.6976829,6.6696403 12.5706235,6.72196943 12.477,6.8155 L10,9.29300001 Z" id="路径" fill="#333333"></path>
            </g>
        </g>
    </g>
</svg>