<?xml version="1.0" encoding="UTF-8"?>
<svg width="18px" height="18px" viewBox="0 0 18 18" version="1.1" xmlns="http://www.w3.org/2000/svg" xmlns:xlink="http://www.w3.org/1999/xlink">
    <g id="视频管理V2.2.7" stroke="none" stroke-width="1" fill="none" fill-rule="evenodd">
        <g id="视频导出修改标题" transform="translate(-615.000000, -303.000000)">
            <g id="编组-73备份-2" transform="translate(615.000000, 303.000000)">
                <rect id="矩形" x="0" y="0" width="18" height="18"></rect>
                <g id="编组-72" transform="translate(1.800000, 3.600000)" fill="#D9D9D9" fill-rule="nonzero">
                    <g id="编组">
                        <path d="M3.53609851,9.99093775 C3.40015981,9.99093775 3.27061822,9.93621934 3.17466149,9.83965744 L0.96765662,7.61873378 C0.767746759,7.41756316 0.767746759,7.09086207 0.96765662,6.88969144 L7.34238227,0.474762667 C7.48471809,0.331529184 7.87814069,0 8.48106884,0 C8.91127486,0 9.31589242,0.168983322 9.6197554,0.474762667 L10.2738605,1.13299294 C10.9007778,1.76386401 10.9007778,2.79224823 10.2738605,3.42472866 L9.58776983,4.1167556 C7.73580487,5.97879087 5.82146804,7.90359138 3.89753554,9.83965744 C3.80157881,9.93621934 3.67203722,9.99093775 3.53609851,9.99093775 Z M2.05356698,7.25501729 L3.53609851,8.74689862 C5.33848582,6.9331443 7.12967818,5.1322649 8.86489577,3.38771327 L9.55098641,2.69729569 C9.77968329,2.4671565 9.77968329,2.0905651 9.55098641,1.86203527 L8.89688135,1.203805 C8.7865311,1.09275882 8.63939745,1.03160295 8.48106884,1.03160295 C8.2491734,1.03160295 8.09404334,1.17483643 8.06525632,1.203805 L2.05356698,7.25501729 Z" id="形状"></path>
                        <path d="M0.531009081,10.8 C0.391470102,10.8 0.255253479,10.74483 0.155582779,10.642849 C0.0210273346,10.5074316 -0.0304691935,10.310157 0.017704978,10.1262568 L0.808425862,7.15877768 C0.858261212,6.97487756 1.00112255,6.82942929 1.18385216,6.78094653 C1.36658178,6.73079195 1.56260082,6.78429017 1.69715627,6.91970753 L3.85668809,9.09140073 C3.99124354,9.22681809 4.04274007,9.42409276 3.9945659,9.60799288 C3.94473055,9.79189299 3.80186921,9.93734127 3.61913959,9.98582403 L0.668886883,10.78161 C0.62237389,10.7933127 0.577522075,10.8 0.531009081,10.8 Z M1.70172563,8.27213596 L1.39946192,9.4051289 L2.52695354,9.10095892 L1.70172563,8.27213596 Z M8.83930731,4.15216163 C8.70656716,4.15216163 8.57382701,4.10066195 8.47467172,3.99766259 L6.53474643,2.01009685 C6.33643585,1.80731686 6.3396344,1.48061577 6.54114354,1.28105452 C6.74265268,1.08149326 7.0673063,1.08471199 7.26561688,1.28749198 L9.20394289,3.27666708 C9.40225347,3.47944707 9.39905492,3.80614816 9.19754578,4.00570942 C9.09839049,4.10227131 8.9688489,4.15216163 8.83930731,4.15216163 L8.83930731,4.15216163 Z M13.8882308,10.494669 L5.55918631,10.494669 C5.27611394,10.494669 5.04741706,10.2645298 5.04741706,9.97967219 C5.04741706,9.69481459 5.27611394,9.4646754 5.55918631,9.4646754 L13.8882308,9.4646754 C14.1713031,9.4646754 14.4,9.69481459 14.4,9.97967219 C14.4,10.2645298 14.1713031,10.494669 13.8882308,10.494669 Z" id="形状"></path>
                        <path d="M13.8882308,8.30593262 L8.71776211,8.30593262 C8.43468975,8.30593262 8.20599287,8.07579343 8.20599287,7.79093583 C8.20599287,7.50607823 8.43468975,7.27593904 8.71776211,7.27593904 L13.8882308,7.27593904 C14.1713031,7.27593904 14.4,7.50607823 14.4,7.79093583 C14.4,8.07579343 14.1713031,8.30593262 13.8882308,8.30593262 L13.8882308,8.30593262 Z" id="路径"></path>
                        <path d="M13.872238,6.15743038 L10.7328535,6.15743038 C10.4497811,6.15743038 10.2210843,5.92729119 10.2210843,5.64243359 C10.2210843,5.35757599 10.4497811,5.1274368 10.7328535,5.1274368 L13.872238,5.1274368 C14.1553103,5.1274368 14.3840072,5.35757599 14.3840072,5.64243359 C14.3840072,5.92729119 14.1553103,6.15743038 13.872238,6.15743038 L13.872238,6.15743038 Z" id="路径"></path>
                    </g>
                </g>
            </g>
        </g>
    </g>
</svg>