<?xml version="1.0" encoding="UTF-8"?>
<svg width="10px" height="9px" viewBox="0 0 10 9" version="1.1" xmlns="http://www.w3.org/2000/svg" xmlns:xlink="http://www.w3.org/1999/xlink">
    <title></title>
    <g id="师资管理" stroke="none" stroke-width="1" fill="none" fill-rule="evenodd">
        <g id="老师行程-新增排期" transform="translate(-851.000000, -617.000000)" fill="#FFFFFF">
            <g id="编组-2" transform="translate(714.000000, 0.000000)">
                <g id="编组-6" transform="translate(49.000000, 607.000000)">
                    <g id="编组-5" transform="translate(83.000000, 4.000000)">
                        <g id="编组-14" transform="translate(5.000000, 4.550253)">
                            <path d="M6.00279129,0.450754162 C5.60919535,0.451345888 5.30009141,0.779738646 5.3330616,1.16226381 L5.87513782,7.45080412 L3.68770645,7.40461202 C3.31021731,7.39664198 2.99984181,7.69300406 3,8.06125405 L3.00028222,8.71743652 C3.00043566,9.07438141 3.2929581,9.36579339 3.65884778,9.37352708 L7.2613936,9.44959042 C7.54623772,9.45560405 7.79287466,9.28833825 7.89669912,9.04764829 C7.97174029,8.93156406 8.01036482,8.79141215 7.99758871,8.64310638 L7.94878637,8.07698405 L7.94853057,7.49459338 L7.89848966,7.49352984 L7.34316613,1.05125967 C7.31381741,0.710812898 7.02164957,0.449222419 6.67134972,0.449747468 L6.00279129,0.450754162 Z" id="Combined-Shape" transform="translate(5.500000, 4.949747) rotate(45.000000) translate(-5.500000, -4.949747) "></path>
                        </g>
                    </g>
                </g>
            </g>
        </g>
    </g>
</svg>