<?xml version="1.0" encoding="UTF-8"?>
<svg width="20px" height="20px" viewBox="0 0 20 20" version="1.1" xmlns="http://www.w3.org/2000/svg" xmlns:xlink="http://www.w3.org/1999/xlink">
    <title>xiaoxiguanli_icon</title>
    <g id="产品管理" stroke="none" stroke-width="1" fill="none" fill-rule="evenodd">
        <g id="编组-141">
            <rect id="矩形" x="0" y="0" width="20" height="20"></rect>
            <g id="编组-140" transform="translate(1.000000, 3.000000)">
                <g id="编组" stroke-linecap="round" stroke-width="1.2">
                    <path d="M8.57142857,12.1008403 L6.21428571,12.1008403 L4.28571429,14.1176471 L2.35714286,12.1008403 L1.71428571,12.1008403 C0.767511857,12.1008403 3.33404898e-13,11.3333285 0,10.3865546 L0,1.71428571 C1.06098248e-16,0.767511857 0.767511857,1.73919536e-16 1.71428571,0 L13.7142857,0 C14.6610596,-3.95964141e-16 15.4285714,0.767511857 15.4285714,1.71428571 L15.4285714,7.04074882 L15.4285714,7.04074882" id="路径" stroke="#333333" stroke-linejoin="round"></path>
                    <g id="编组-139" transform="translate(3.257143, 5.294118)" stroke="#0C6FFF">
                        <line x1="3.85675714" y1="0.5" x2="5.14247143" y2="0.5" id="路径"></line>
                        <line x1="7.71428571" y1="0.5" x2="9" y2="0.5" id="路径"></line>
                        <line x1="-9.52022088e-21" y1="0.5" x2="1.28529" y2="0.5" id="路径"></line>
                    </g>
                </g>
                <g id="编组" transform="translate(11.142857, 8.823529)" stroke-linejoin="round">
                    <path d="M5.4372312,-0.5 L7.42900818,3.08823529 L5.4372312,6.67647059 L1.42000451,6.67647059 L-0.571872058,3.08823529 L1.42000451,-0.5 L5.4372312,-0.5 Z" id="路径" stroke="#333333"></path>
                    <path d="M3.42857143,1.6799308 C3.80648873,1.6799308 4.15012928,1.83981301 4.39830793,2.10280509 C4.6362977,2.35500013 4.78571429,2.70280667 4.78571429,3.08823529 C4.78571429,3.47366391 4.6362977,3.82147045 4.39830793,4.0736655 C4.15012928,4.33665758 3.80648873,4.49653979 3.42857143,4.49653979 C3.05065413,4.49653979 2.70701358,4.33665758 2.45883493,4.0736655 C2.22084516,3.82147045 2.07142857,3.47366391 2.07142857,3.08823529 C2.07142857,2.70280667 2.22084516,2.35500013 2.45883493,2.10280509 C2.70701358,1.83981301 3.05065413,1.6799308 3.42857143,1.6799308 Z" id="路径" stroke="#0C6FFF"></path>
                </g>
            </g>
        </g>
    </g>
</svg>