<?xml version="1.0" encoding="UTF-8"?>
<svg width="24px" height="24px" viewBox="0 0 24 24" version="1.1" xmlns="http://www.w3.org/2000/svg" xmlns:xlink="http://www.w3.org/1999/xlink">
    <title>切片</title>
    <defs>
        <filter x="-50.0%" y="-50.0%" width="200.0%" height="200.0%" filterUnits="objectBoundingBox" id="filter-1">
            <feOffset dx="0" dy="2" in="SourceAlpha" result="shadowOffsetOuter1"></feOffset>
            <feGaussianBlur stdDeviation="2" in="shadowOffsetOuter1" result="shadowBlurOuter1"></feGaussianBlur>
            <feColorMatrix values="0 0 0 0 0.925490196   0 0 0 0 0.250980392   0 0 0 0 0.290196078  0 0 0 0.4 0" type="matrix" in="shadowBlurOuter1" result="shadowMatrixOuter1"></feColorMatrix>
            <feMerge>
                <feMergeNode in="shadowMatrixOuter1"></feMergeNode>
                <feMergeNode in="SourceGraphic"></feMergeNode>
            </feMerge>
        </filter>
    </defs>
    <g id="一键发布" stroke="none" stroke-width="1" fill="none" fill-rule="evenodd">
        <g id="2-选择账号分组" transform="translate(-623.000000, -580.000000)">
            <g id="弹窗" transform="translate(375.000000, 267.000000)">
                <g id="编组备份-3" transform="translate(220.000000, 285.000000)">
                    <g id="小红书" filter="url(#filter-1)" transform="translate(28.000000, 28.000000)">
                        <circle id="椭圆形" stroke="#FFFFFF" fill="#EC404A" cx="12" cy="12" r="11.5"></circle>
                        <g transform="translate(2.400000, 9.000000)" fill="#FFFFFF" fill-rule="nonzero">
                            <path d="M2.71387054,0.0908173562 L3.70303831,0.0908173562 L3.70303831,4.6740666 C3.70303831,5.0716448 3.63804491,5.36478305 3.50805812,5.55348133 C3.37807133,5.74217962 3.21109643,5.85368315 3.00713342,5.88799193 C2.80317041,5.92230071 2.33764861,5.9394551 1.61056803,5.9394551 C1.54715984,5.59636731 1.46895641,5.27749748 1.37595773,4.98284561 C1.71413474,5.01917255 2.01003963,5.03733602 2.26367239,5.03733602 C2.56380449,5.03733602 2.71387054,4.86982846 2.71387054,4.53481332 L2.71387054,0.0908173562 Z M5.1677675,1.39858729 C5.56935271,2.28254289 5.95825627,3.21291625 6.3344782,4.18970737 L5.3326288,4.55903128 C4.98599736,3.5136226 4.6330251,2.55499495 4.27371202,1.68314834 L5.1677675,1.39858729 Z M0.97014531,1.40464178 L1.92126816,1.62260343 C1.61268164,2.70433905 1.28507266,3.69525732 0.938441215,4.59535822 L0,4.25630676 C0.371994716,3.33602422 0.695376486,2.38546922 0.97014531,1.40464178 Z" id="小"></path>
                            <path d="M7.46948481,1.85872856 C7.61109643,1.85671039 7.78229855,1.8506559 7.98309115,1.84056509 C8.12258917,1.61453078 8.25997358,1.37840565 8.39524439,1.13218971 L9.20686922,1.5136226 C8.84755614,2.11907164 8.37199472,2.78102926 7.78018494,3.49949546 C8.15640687,3.45913219 8.52206077,3.41473259 8.87714663,3.36629667 C8.8348745,3.69323915 8.80951123,3.95963673 8.8010568,4.1654894 C7.77807133,4.24621594 7.13976222,4.33097881 6.88612946,4.419778 L6.54372523,3.60847629 C6.75508587,3.54389506 7.07107001,3.20080727 7.49167768,2.57921292 C7.13870542,2.60141271 6.87978864,2.63168517 6.71492734,2.67003027 L6.45495376,1.93743693 C6.69167768,1.7679112 7.07635403,1.12209889 7.60898283,0 L8.48401585,0.339051463 C8.07820343,0.988900101 7.74002642,1.49545913 7.46948481,1.85872856 Z M6.64517834,5.65489405 L6.49299868,4.8012109 C7.28771466,4.70837538 8.06340819,4.60544904 8.82007926,4.49243189 L8.8010568,4.91624622 L10.3101717,4.91624622 L10.3101717,1.30776993 L8.97859974,1.30776993 L8.97859974,0.496468214 L12.54214,0.496468214 L12.54214,1.30776993 L11.2232497,1.30776993 L11.2232497,4.91624622 L12.7133421,4.91624622 L12.7133421,5.72754793 L8.75033025,5.72754793 L8.75033025,5.35216953 C8.00845443,5.44298688 7.30673712,5.54389506 6.64517834,5.65489405 Z" id="红"></path>
                            <path d="M13.4425363,0.992936428 L15.0911493,0.992936428 L15.0911493,0.0484359233 L16.010568,0.0484359233 L16.010568,0.992936428 L17.7574637,0.992936428 C17.5778071,0.865792129 17.390753,0.73864783 17.1963012,0.611503532 L17.7416116,0.0544904137 C18.2700132,0.381432896 18.7561427,0.710393542 19.2,1.04137235 L18.6103038,1.64682139 C18.4813738,1.53985873 18.346103,1.43188698 18.2044914,1.32290616 L18.0935271,2.83350151 L19.0224571,2.83350151 C18.9928666,3.66902119 18.9601057,4.23562059 18.9241744,4.5332997 C18.8882431,4.83097881 18.7725231,5.06609485 18.5770145,5.23864783 C18.3815059,5.41120081 18.0966975,5.4974773 17.7225892,5.4974773 C17.3252312,5.4974773 17.0293263,5.49142281 16.8348745,5.47931382 C16.8010568,5.23309788 16.7376486,4.9445005 16.6446499,4.6135217 C16.9194188,4.64984864 17.1963012,4.66801211 17.4752972,4.66801211 C17.6422721,4.66801211 17.7717305,4.63370333 17.8636724,4.56508577 C17.9556143,4.49646821 18.0116248,4.39959637 18.0317041,4.27447023 C18.0517834,4.1493441 18.067107,3.91927346 18.077675,3.58425832 L16.010568,3.58425832 L16.010568,6 L15.0911493,6 L15.0911493,3.58425832 L12.998679,3.58425832 L12.998679,2.83350151 L15.0911493,2.83350151 L15.0911493,1.73158426 L13.4425363,1.73158426 L13.4425363,0.992936428 Z M17.272391,1.73158426 L16.010568,1.73158426 L16.010568,2.83350151 L17.1899604,2.83350151 L17.272391,1.73158426 Z" id="书"></path>
                        </g>
                    </g>
                </g>
            </g>
        </g>
    </g>
</svg>