<?xml version="1.0" encoding="UTF-8"?>
<svg width="20px" height="20px" viewBox="0 0 20 20" version="1.1" xmlns="http://www.w3.org/2000/svg" xmlns:xlink="http://www.w3.org/1999/xlink">
    <g id="订单机构入驻" stroke="none" stroke-width="1" fill="none" fill-rule="evenodd">
        <g id="直播排班管理" transform="translate(-790.000000, -584.000000)">
            <g id="编组-136" transform="translate(247.000000, 89.000000)">
                <g id="编组-10备份" transform="translate(20.000000, 196.000000)">
                    <g id="编组-4备份-3" transform="translate(0.000000, 272.000000)">
                        <g id="编组-7" transform="translate(523.000000, 26.000000)">
                            <g id="编组" transform="translate(0.000000, 1.000000)">
                                <circle id="椭圆形" fill="#1472FF" cx="10" cy="10" r="10"></circle>
                                <path d="M5.48924502,10.6905344 L11.9467103,10.6905344 C12.5384903,10.5473054 12.9392453,10.1036824 13.1489753,9.35966529 C13.1489753,8.58565649 13.1489753,7.04214296 13.1489753,4.72912468 C13.3252694,4.30182223 13.6266967,4.088171 14.0532573,4.088171 C14.4798179,4.088171 14.7710449,4.30182223 14.9269382,4.72912468 L14.9269382,4.72912468 C14.8693393,5.13268811 14.9039146,5.38356403 15.030664,5.48175246 C15.1574134,5.57994088 15.4364795,5.63075723 15.8678621,5.63420151 C16.106524,5.73339672 16.225855,5.90587558 16.225855,6.15163807 C16.225855,6.39740057 16.106524,6.55467161 15.8678621,6.6234512 L14.9269382,6.6234512 C14.7900149,6.64019569 14.6793741,6.71435365 14.5950158,6.84592508 C14.5106575,6.9774965 14.4481836,7.15863904 14.4075941,7.38935269 L14.4075941,10.5761968 C14.4075975,11.074978 14.3381888,11.5713328 14.2013683,12.0509814 C13.5094332,14.4766826 11.8612819,15.7917576 9.25691446,15.9962065 C6.34294912,16.2249596 4.52296602,14.6759882 3.79696516,11.3492923 L3.79696516,11.3492923 L3.79696516,10.3350713 C3.79700755,10.0992156 3.9882063,9.90801688 4.22406192,9.90801688 C4.34691752,9.90801688 4.46382208,9.96092689 4.54490342,10.053227 C4.54490342,10.053227 4.54490342,10.053227 4.54490342,10.053227 C4.8298777,10.3776317 5.14465824,10.5900674 5.48924502,10.6905344 Z" id="路径-3" fill="#FFFFFF"></path>
                            </g>
                        </g>
                    </g>
                </g>
            </g>
        </g>
    </g>
</svg>