<?xml version="1.0" encoding="UTF-8"?>
<svg width="20px" height="20px" viewBox="0 0 20 20" version="1.1" xmlns="http://www.w3.org/2000/svg" xmlns:xlink="http://www.w3.org/1999/xlink">
    <title>xitongguanli_icon</title>
    <g id="产品管理" stroke="none" stroke-width="1" fill="none" fill-rule="evenodd">
        <g id="编组-147">
            <rect id="矩形" x="0" y="0" width="20" height="20"></rect>
            <g id="编组" transform="translate(2.000000, 2.000000)" stroke-linejoin="round">
                <path d="M6,0 L1,0 C0.447715,0 0,0.447715 0,1 L0,6 C0,6.5523 0.447715,7 1,7 L6,7 C6.5523,7 7,6.5523 7,6 L7,1 C7,0.447715 6.5523,0 6,0 Z" id="路径" stroke="#333333"></path>
                <path d="M6,9 L1,9 C0.447715,9 0,9.4477 0,10 L0,15 C0,15.5523 0.447715,16 1,16 L6,16 C6.5523,16 7,15.5523 7,15 L7,10 C7,9.4477 6.5523,9 6,9 Z" id="路径" stroke="#333333"></path>
                <path d="M12.5,7 C14.433,7 16,5.433 16,3.5 C16,1.567005 14.433,0 12.5,0 C10.567,0 9,1.567005 9,3.5 C9,5.433 10.567,7 12.5,7 Z" id="路径" stroke="#0C6FFF"></path>
                <path d="M15,9 L10,9 C9.4477,9 9,9.4477 9,10 L9,15 C9,15.5523 9.4477,16 10,16 L15,16 C15.5523,16 16,15.5523 16,15 L16,10 C16,9.4477 15.5523,9 15,9 Z" id="路径" stroke="#333333"></path>
            </g>
        </g>
    </g>
</svg>