<?xml version="1.0" encoding="UTF-8"?>
<svg width="40px" height="40px" viewBox="0 0 40 40" version="1.1" xmlns="http://www.w3.org/2000/svg" xmlns:xlink="http://www.w3.org/1999/xlink">
    <title>系统消息</title>
    <g id="直播列表-原型修改" stroke="none" stroke-width="1" fill="none" fill-rule="evenodd">
        <g id="3-3.2-脚本配置-送花" transform="translate(-874.000000, -332.000000)">
            <g id="编组-21" transform="translate(680.000000, 94.000000)">
                <g id="编组-16" transform="translate(184.000000, 110.000000)">
                    <g id="编组-9备份-3" transform="translate(0.000000, 118.000000)">
                        <g id="系统消息" transform="translate(10.000000, 10.000000)">
                            <rect id="矩形" fill="#0C6FFF" x="0" y="0" width="40" height="40" rx="20"></rect>
                            <path d="M20.5,8 C20.9264081,8 21.2720588,8.34476897 21.2720588,8.77008929 L21.272136,9.69440179 C24.8594301,9.89675558 27.7058824,12.8624464 27.7058824,16.4912612 L27.7058824,21.6753739 C27.7058817,21.9408933 27.8430143,22.1876843 28.06875,22.3284096 L29.3277206,23.1132589 C30.3680184,23.7618025 31,24.8991217 31,26.1227679 C31,27.3987031 29.9630221,28.4330357 28.6838235,28.4330357 L23.7560551,28.4330357 C23.4075221,29.9048047 22.0819743,31 20.5,31 C18.9180257,31 17.5924779,29.904779 17.2439449,28.4330357 L12.3161765,28.4330357 C11.0369779,28.4330357 10,27.3987031 10,26.1227679 C10,24.8991217 10.6319816,23.7618025 11.6722794,23.1132589 L12.93125,22.3284096 C13.1569857,22.1876843 13.2941183,21.9408933 13.2941176,21.6753739 L13.2941176,16.4912612 C13.2941176,12.8624464 16.1405699,9.89672991 19.7278897,9.69440179 L19.7279412,8.77008929 C19.7279412,8.34476897 20.0735919,8 20.5,8 Z M22.1281176,28.4330357 L18.8718824,28.4330357 C19.1610184,29.0401228 19.7813676,29.4598214 20.5,29.4598214 C21.2186324,29.4598214 21.8390074,29.0401228 22.1281176,28.4330357 Z M20.880625,11.2235937 L20.119375,11.2235937 C17.2026912,11.2235937 14.8382353,13.5819665 14.8382353,16.4912612 L14.8382353,21.6753739 C14.8382372,22.4719321 14.4268394,23.2123052 13.7496324,23.634481 L12.4906618,24.4193304 C11.9018306,24.7864102 11.5441176,25.4301619 11.5441176,26.1227679 C11.5441176,26.5480882 11.8897684,26.8928571 12.3161765,26.8928571 L28.6838235,26.8928571 C29.1102316,26.8928571 29.4558824,26.5480882 29.4558824,26.1227679 C29.4558824,25.4301752 29.0981618,24.7864062 28.5093382,24.4193304 L27.2503676,23.634481 C26.5731606,23.2123052 26.1617628,22.4719321 26.1617647,21.6753739 L26.1617647,16.4912612 C26.1617647,13.5819922 23.7973088,11.2235937 20.880625,11.2235937 L20.880625,11.2235937 Z" id="形状" fill="#FFFFFF" fill-rule="nonzero"></path>
                        </g>
                    </g>
                </g>
            </g>
        </g>
    </g>
</svg>