<?xml version="1.0" encoding="UTF-8"?>
<svg width="41px" height="42px" viewBox="0 0 41 42" version="1.1" xmlns="http://www.w3.org/2000/svg" xmlns:xlink="http://www.w3.org/1999/xlink">
    <title>xls</title>
    <g id="产品管理" stroke="none" stroke-width="1" fill="none" fill-rule="evenodd">
        <g id="上传文件状态" transform="translate(-740.000000, -1306.000000)" fill-rule="nonzero">
            <g id="编组-4" transform="translate(368.000000, 1107.000000)">
                <g id="编组-3" transform="translate(165.000000, 71.000000)">
                    <g id="png备份-17" transform="translate(207.000000, 128.000000)">
                        <path d="M36.8698846,38.01 C36.8698846,38.535 36.6547744,39.039 36.2675761,39.417 C35.8803778,39.795 35.3641133,40.005 34.8263379,40.005 L6.1521511,40.005 C5.61437566,40.005 5.07660021,39.795 4.71091291,39.417 C4.32371459,39.039 4.10860441,38.535 4.10860441,38.01 L4.10860441,1.995 C4.10860441,1.47 4.32371459,0.945 4.71091291,0.588 C5.07660021,0.21 5.61437566,0 6.1521511,0 L23.7481637,0 C24.2859391,0 24.8237146,0.21 25.2109129,0.588 L36.2890871,11.403 C36.6762854,11.781 36.8913956,12.285 36.8913956,12.831 L36.8913956,38.01 L36.8698846,38.01 Z" id="路径" fill="#EBECF0"></path>
                        <path d="M36.8698846,38.01 L36.8698846,40.005 C36.8698846,40.53 36.6547744,41.055 36.2675761,41.412 C35.8803778,41.79 35.3641133,42 34.8263379,42 L6.1521511,42 C5.01206716,42 4.10860441,41.097 4.10860441,40.005 L4.10860441,38.01 C4.10860441,38.535 4.32371459,39.039 4.71091291,39.417 C5.09811123,39.795 5.61437566,40.005 6.1521511,40.005 L34.8263379,40.005 C35.9664218,40.005 36.8698846,39.102 36.8698846,38.01 Z" id="路径" fill="#C1C7D0"></path>
                        <path d="M0,22.008 L40.978489,22.008 L40.978489,32.004 C40.978489,33.117 40.0535152,33.999 38.9349423,33.999 L2.06505771,33.999 C1.52728227,33.999 0.989506821,33.789 0.623819517,33.411 C0.236621196,33.033 0.0215110178,32.529 0.0215110178,31.983 L0.0215110178,22.008 L0,22.008 Z" id="路径" fill="#47B347"></path>
                        <g id="XLS" transform="translate(9.034627, 24.150000)" fill="#FFFFFF">
                            <polygon id="X" points="0.241578814 0.128173828 2.86218377 0.128173828 4.22762924 2.44042969 5.551061 0.128173828 8.14540739 0.128173828 5.75062611 3.76831055 8.37123106 7.64428711 5.69810897 7.64428711 4.18036382 5.22949219 2.65736695 7.64428711 0 7.64428711 2.65736695 3.72729492"></polygon>
                            <polygon id="L" points="9.13798121 0.128173828 11.5170074 0.128173828 11.5170074 5.79345703 15.2299687 5.79345703 15.2299687 7.64428711 9.13798121 7.64428711"></polygon>
                            <path d="M15.8969363,5.15771484 L18.1604247,5.01928711 C18.2094407,5.37817383 18.3092233,5.65161133 18.4597724,5.83959961 C18.7048523,6.14379883 19.0549666,6.29589844 19.5101151,6.29589844 C19.8497259,6.29589844 20.1114362,6.21813965 20.2952462,6.06262207 C20.4790562,5.90710449 20.5709612,5.72680664 20.5709612,5.52172852 C20.5709612,5.3269043 20.4834326,5.15258789 20.3083755,4.9987793 C20.1333184,4.8449707 19.7271859,4.69970703 19.089978,4.56298828 C18.0466376,4.33398437 17.3026449,4.02978516 16.8579998,3.65039062 C16.4098536,3.27099609 16.1857805,2.78735352 16.1857805,2.19946289 C16.1857805,1.81323242 16.3004429,1.44836426 16.5297677,1.1048584 C16.7590926,0.761352539 17.1039551,0.491333008 17.5643553,0.294799805 C18.0247555,0.0982666016 18.6558364,0 19.4575979,0 C20.4414189,0 21.1915386,0.178588867 21.7079571,0.535766602 C22.2243756,0.892944336 22.5316008,1.46118164 22.6296328,2.24047852 L20.3871512,2.36865234 C20.3276318,2.03027344 20.2024659,1.78417969 20.0116537,1.63037109 C19.8208414,1.4765625 19.5573805,1.3996582 19.2212708,1.3996582 C18.9446806,1.3996582 18.7363626,1.45690918 18.5963169,1.57141113 C18.4562712,1.68591309 18.3862484,1.82519531 18.3862484,1.98925781 C18.3862484,2.10888672 18.4440172,2.21655273 18.5595549,2.31225586 C18.6715915,2.41137695 18.9376783,2.50366211 19.3578154,2.58911133 C20.3976546,2.80786133 21.1425226,3.0291748 21.5924194,3.25305176 C22.0423162,3.47692871 22.369673,3.75463867 22.5744898,4.08618164 C22.7793066,4.41772461 22.881715,4.78857422 22.881715,5.19873047 C22.881715,5.68066406 22.7451705,6.125 22.4720814,6.53173828 C22.1989923,6.93847656 21.8173678,7.24694824 21.3272079,7.45715332 C20.837048,7.6673584 20.2190964,7.77246094 19.4733531,7.77246094 C18.1639259,7.77246094 17.25713,7.52636719 16.7529656,7.03417969 C16.2488011,6.54199219 15.963458,5.91650391 15.8969363,5.15771484 Z" id="S"></path>
                        </g>
                        <path d="M4.10860441,22.008 L4.10860441,17.997 L0,22.008 L4.10860441,22.008 Z M36.8698846,22.008 L36.9129066,17.997 L41,22.008 L36.8698846,22.008 Z" id="形状" fill="#2A932A"></path>
                        <path d="M36.8698846,12.831 L36.8698846,13.104 L25.7917104,13.104 C24.6516264,13.104 23.7481637,12.201 23.7481637,11.109 L23.7481637,0 C24.2859391,0 24.8237146,0.21 25.2109129,0.588 L36.3105981,11.403 C36.6762854,11.781 36.8913956,12.285 36.8698846,12.831 L36.8698846,12.831 Z" id="路径" fill="#C1C7D0"></path>
                    </g>
                </g>
            </g>
        </g>
    </g>
</svg>