<?xml version="1.0" encoding="UTF-8"?>
<svg width="32px" height="32px" viewBox="0 0 32 32" version="1.1" xmlns="http://www.w3.org/2000/svg" xmlns:xlink="http://www.w3.org/1999/xlink">
    <title>切片</title>
    <g id="页面-1" stroke="none" stroke-width="1" fill="none" fill-rule="evenodd">
        <g id="学员管理-我的学员-上传作业" transform="translate(-1094.000000, -574.000000)" fill-rule="nonzero">
            <g id="编组-4" transform="translate(712.000000, 0.000000)">
                <g id="编组-2备份" transform="translate(20.000000, 74.000000)">
                    <g id="编组-3备份-9" transform="translate(352.000000, 490.000000)">
                        <g id="xls" transform="translate(10.000000, 10.000000)">
                            <path d="M28.7764953,28.96 C28.7764953,29.36 28.6086044,29.744 28.3064008,30.032 C28.0041973,30.32 27.6012592,30.48 27.181532,30.48 L4.80167891,30.48 C4.38195173,30.48 3.96222455,30.32 3.67681007,30.032 C3.37460651,29.744 3.20671563,29.36 3.20671563,28.96 L3.20671563,1.52 C3.20671563,1.12 3.37460651,0.72 3.67681007,0.448 C3.96222455,0.16 4.38195173,0 4.80167891,0 L18.5351522,0 C18.9548793,0 19.3746065,0.16 19.6768101,0.448 L28.3231899,8.688 C28.6253935,8.976 28.7932844,9.36 28.7932844,9.776 L28.7932844,28.96 L28.7764953,28.96 Z" id="路径" fill="#EBECF0"></path>
                            <path d="M28.7764953,28.96 L28.7764953,30.48 C28.7764953,30.88 28.6086044,31.28 28.3064008,31.552 C28.0041973,31.84 27.6012592,32 27.181532,32 L4.80167891,32 C3.91185729,32 3.20671563,31.312 3.20671563,30.48 L3.20671563,28.96 C3.20671563,29.36 3.37460651,29.744 3.67681007,30.032 C3.97901364,30.32 4.38195173,30.48 4.80167891,30.48 L27.181532,30.48 C28.0713536,30.48 28.7764953,29.792 28.7764953,28.96 Z" id="路径" fill="#C1C7D0"></path>
                            <path d="M0,16.768 L31.9832109,16.768 L31.9832109,24.384 C31.9832109,25.232 31.2612802,25.904 30.3882476,25.904 L1.61175236,25.904 C1.19202518,25.904 0.772298006,25.744 0.486883526,25.456 C0.184679958,25.168 0.0167890871,24.784 0.0167890871,24.368 L0.0167890871,16.768 L0,16.768 Z" id="路径" fill="#47B347"></path>
                            <g id="XLS" transform="translate(7.051417, 18.400000)" fill="#FFFFFF">
                                <polygon id="X" points="0.188549318 0.09765625 2.23389953 0.09765625 3.29961306 1.859375 4.33253541 0.09765625 6.35739113 0.09765625 4.48829355 2.87109375 6.53364376 5.82421875 4.44730456 5.82421875 3.26272298 3.984375 2.0740425 5.82421875 0 5.82421875 2.0740425 2.83984375"></polygon>
                                <polygon id="L" points="7.1320829 0.09765625 8.98888379 0.09765625 8.98888379 4.4140625 11.8868048 4.4140625 11.8868048 5.82421875 7.1320829 5.82421875"></polygon>
                                <path d="M12.4073649,3.9296875 L14.17399,3.82421875 C14.2122464,4.09765625 14.2901255,4.30598958 14.4076272,4.44921875 C14.5989091,4.68098958 14.872169,4.796875 15.2274069,4.796875 C15.492469,4.796875 15.6967307,4.73763021 15.8401922,4.61914062 C15.9836536,4.50065104 16.0553843,4.36328125 16.0553843,4.20703125 C16.0553843,4.05859375 15.9870693,3.92578125 15.8504394,3.80859375 C15.7138095,3.69140625 15.396828,3.58072917 14.899495,3.4765625 C14.0851806,3.30208333 13.5045033,3.0703125 13.1574633,2.78125 C12.8076906,2.4921875 12.6328043,2.12369792 12.6328043,1.67578125 C12.6328043,1.38151042 12.7222969,1.10351562 12.9012821,0.841796875 C13.0802674,0.580078125 13.3494283,0.374348958 13.7087651,0.224609375 C14.0681018,0.0748697917 14.5606528,0 15.1864179,0 C15.9542782,0 16.5397375,0.136067708 16.9427958,0.408203125 C17.3458541,0.680338542 17.5856396,1.11328125 17.6621524,1.70703125 L15.9119229,1.8046875 C15.8654687,1.546875 15.7677783,1.359375 15.6188517,1.2421875 C15.469925,1.125 15.264297,1.06640625 15.0019675,1.06640625 C14.7860922,1.06640625 14.6235025,1.11002604 14.5141986,1.19726562 C14.4048946,1.28450521 14.3502427,1.390625 14.3502427,1.515625 C14.3502427,1.60677083 14.3953305,1.68880208 14.4855063,1.76171875 C14.5729495,1.83723958 14.780627,1.90755208 15.1085388,1.97265625 C15.9201207,2.13932292 16.5014811,2.30794271 16.85262,2.47851562 C17.203759,2.64908854 17.459257,2.86067708 17.619114,3.11328125 C17.778971,3.36588542 17.8588995,3.6484375 17.8588995,3.9609375 C17.8588995,4.328125 17.7523282,4.66666667 17.5391855,4.9765625 C17.3260428,5.28645833 17.0281895,5.52148438 16.6456257,5.68164062 C16.2630618,5.84179688 15.7807581,5.921875 15.1987146,5.921875 C14.1767226,5.921875 13.4689795,5.734375 13.0754853,5.359375 C12.6819911,4.984375 12.4592843,4.5078125 12.4073649,3.9296875 Z" id="S"></path>
                            </g>
                            <path d="M3.20671563,16.768 L3.20671563,13.712 L0,16.768 L3.20671563,16.768 Z M28.7764953,16.768 L28.8100735,13.712 L32,16.768 L28.7764953,16.768 Z" id="形状" fill="#2A932A"></path>
                            <path d="M28.7764953,9.776 L28.7764953,9.984 L20.1301154,9.984 C19.2402938,9.984 18.5351522,9.296 18.5351522,8.464 L18.5351522,0 C18.9548793,0 19.3746065,0.16 19.6768101,0.448 L28.339979,8.688 C28.6253935,8.976 28.7932844,9.36 28.7764953,9.776 L28.7764953,9.776 Z" id="路径" fill="#C1C7D0"></path>
                        </g>
                    </g>
                </g>
            </g>
        </g>
    </g>
</svg>