<svg xmlns="http://www.w3.org/2000/svg" xmlns:xlink="http://www.w3.org/1999/xlink" fill="none" version="1.1" width="24" height="24" viewBox="0 0 24 24"><g><g></g><g><g><path d="M3.7833333611488342,9.65105L3.7833333611488342,12.77143Q3.7833333611488342,12.8453,3.797744361148834,12.91775Q3.812155361148834,12.99019,3.8404233611488343,13.0584Q3.868692361148834,13.1267,3.9097313611488342,13.1881Q3.9507703611488343,13.2495,4.003003361148834,13.3018Q4.055236361148834,13.354,4.116655361148834,13.395Q4.178075361148834,13.4361,4.246320361148834,13.4643Q4.3145663611488345,13.4926,4.387015361148834,13.507Q4.459464861148835,13.5214,4.533333361148834,13.5214Q4.607201861148834,13.5214,4.679651361148834,13.507Q4.752100361148834,13.4926,4.820346361148834,13.4643Q4.888591361148834,13.4361,4.950011361148834,13.395Q5.011430361148834,13.354,5.063663361148834,13.3018Q5.115896361148835,13.2495,5.156935361148834,13.1881Q5.197974361148834,13.1267,5.226243361148835,13.0584Q5.254511361148834,12.99019,5.268922361148834,12.91775Q5.283333361148834,12.8453,5.283333361148834,12.77143L5.283333361148834,9.65105Q5.283333361148834,9.02986,5.778463361148834,8.654720000000001L11.285873361148834,4.48202Q11.611593361148834,4.23523,12.020193361148834,4.22851Q12.428793361148834,4.2218,12.762453361148834,4.45774L18.721733361148836,8.67179Q19.250033361148834,9.045359999999999,19.250033361148834,9.69239L19.250033361148834,18.4857Q19.250033361148834,19.0035,18.883933361148834,19.3696Q18.517733361148835,19.7357,18.000033361148834,19.7357L14.666633361148834,19.7357Q14.592833361148834,19.7357,14.520353361148834,19.7501Q14.447903361148834,19.7645,14.379653361148835,19.7928Q14.311413361148833,19.8211,14.249993361148833,19.8621Q14.188573361148833,19.9032,14.136333361148834,19.9554Q14.084103361148834,20.0076,14.043063361148834,20.069Q14.002023361148835,20.1305,13.973753361148834,20.1987Q13.945493361148834,20.2669,13.931073361148835,20.3394Q13.916663361148835,20.4118,13.916663361148835,20.4857Q13.916663361148835,20.5596,13.931073361148835,20.632Q13.945493361148834,20.7045,13.973753361148834,20.7727Q14.002023361148835,20.841,14.043063361148834,20.9024Q14.084103361148834,20.9638,14.136333361148834,21.016Q14.188573361148833,21.0683,14.249993361148833,21.1093Q14.311413361148833,21.1504,14.379653361148835,21.1786Q14.447903361148834,21.2069,14.520353361148834,21.2213Q14.592833361148834,21.2357,14.666633361148834,21.2357L18.000033361148834,21.2357Q19.139133361148836,21.2357,19.944533361148835,20.4303Q20.750033361148834,19.6248,20.750033361148834,18.4857L20.750033361148834,9.69239Q20.750033361148834,8.26892,19.587733361148835,7.44706L13.628513361148833,3.233016Q12.894463361148834,2.713937,11.995543361148833,2.7287150000000002Q11.096623361148835,2.743493,10.380023361148833,3.286422L4.872617361148834,7.45913Q3.7833333611488342,8.28443,3.7833333611488342,9.65105Z" fill-rule="evenodd" fill="#FFFFFF" fill-opacity="1"/></g><g><path d="M4,17.63571548461914L12,17.63571548461914Q12.07387,17.63571548461914,12.14632,17.62130448461914Q12.21877,17.60689348461914,12.28701,17.578625484619142Q12.35526,17.55035648461914,12.41668,17.50931748461914Q12.4781,17.46827848461914,12.53033,17.41604548461914Q12.58256,17.36381248461914,12.6236,17.30239348461914Q12.66464,17.24097348461914,12.69291,17.172728484619142Q12.72118,17.10448248461914,12.73559,17.03203348461914Q12.75,16.95958398461914,12.75,16.88571548461914Q12.75,16.81184698461914,12.73559,16.73939748461914Q12.72118,16.66694848461914,12.69291,16.59870248461914Q12.66464,16.53045748461914,12.6236,16.46903748461914Q12.58256,16.407618484619142,12.53033,16.35538548461914Q12.4781,16.30315248461914,12.41668,16.262113484619142Q12.35526,16.22107448461914,12.28701,16.19280548461914Q12.21877,16.164537484619142,12.14632,16.15012648461914Q12.07387,16.13571548461914,12,16.13571548461914L4,16.13571548461914Q3.9261315,16.13571548461914,3.853682,16.15012648461914Q3.781233,16.164537484619142,3.712987,16.19280548461914Q3.644742,16.22107448461914,3.583322,16.262113484619142Q3.521903,16.30315248461914,3.46967,16.35538548461914Q3.417437,16.407618484619142,3.376398,16.46903748461914Q3.335359,16.53045748461914,3.30709,16.59870248461914Q3.278822,16.66694848461914,3.264411,16.73939748461914Q3.25,16.81184698461914,3.25,16.88571548461914Q3.25,16.95958398461914,3.264411,17.03203348461914Q3.278822,17.10448248461914,3.30709,17.172728484619142Q3.335359,17.24097348461914,3.376398,17.30239348461914Q3.417437,17.36381248461914,3.46967,17.41604548461914Q3.521903,17.46827848461914,3.583322,17.50931748461914Q3.644742,17.55035648461914,3.712987,17.578625484619142Q3.781233,17.60689348461914,3.853682,17.62130448461914Q3.9261315,17.63571548461914,4,17.63571548461914Z" fill-rule="evenodd" fill="#FFFFFF" fill-opacity="1"/></g><g><path d="M9.320797190734863,12.746020103149414L12.355600190734863,15.672435103149414Q12.866240190734864,16.164835103149414,12.889890190734864,16.873825103149414Q12.913530190734864,17.582805103149415,12.436840190734863,18.108145103149415L9.355784190734862,21.503595103149415L9.355420190734863,21.503995103149414Q9.255170190734864,21.614475103149417,9.120272190734863,21.678185103149413Q8.985374190734863,21.741885103149414,8.836365190734863,21.749115103149414Q8.818193390734864,21.750005103149412,8.800000078316863,21.750005103149412Q8.660248190734864,21.750005103149412,8.529875190734863,21.699665103149414Q8.399502190734863,21.64933510314941,8.296007190734864,21.555425103149414Q8.185528190734864,21.455175103149415,8.121822190734864,21.320275103149413Q8.058115190734863,21.185375103149415,8.050882190734864,21.036365103149414Q8.050000190734863,21.018195103149413,8.050000190734863,21.000005103149412Q8.050000190734863,20.860245103149413,8.100334190734863,20.729875103149414Q8.150668190734864,20.599505103149415,8.244580190734863,20.496005103149415L11.326000190734863,17.100155103149415Q11.488980190734864,16.920545103149415,11.314390190734864,16.752205103149414L8.279594190734864,13.825787103149414L8.279398190734863,13.825598103149414Q8.182048190734863,13.731725103149413,8.123617190734864,13.609761103149413Q8.065186190734863,13.487797103149415,8.053034190734863,13.353105903149414Q8.050614190734864,13.326279803149413,8.050124190734863,13.299349203149415Q8.050000190734863,13.292532723149414,8.050000190734863,13.285715103149414Q8.050000190734863,13.156598103149413,8.093177190734863,13.034915103149414Q8.136353190734864,12.913231103149414,8.217735190734864,12.812991103149415Q8.237905190734864,12.788148103149414,8.260117190734864,12.765113103149414Q8.353991190734863,12.667763103149413,8.475954190734864,12.609332103149415Q8.597918190734863,12.550901103149414,8.732609390734863,12.538749103149414Q8.759435490734864,12.536329103149415,8.786366190734864,12.535839103149414Q8.793182610734863,12.535715103149414,8.800000190734863,12.535715103149414Q8.929117190734864,12.535715103149414,9.050800190734863,12.578892103149414Q9.172484190734863,12.622068103149415,9.272724190734863,12.703450103149414Q9.297567190734863,12.723620103149415,9.320602190734864,12.745832103149414L9.320797190734863,12.746020103149414Z" fill-rule="evenodd" fill="#FFFFFF" fill-opacity="1"/></g></g></g></svg>