<?xml version="1.0" encoding="UTF-8"?>
<svg width="12px" height="12px" viewBox="0 0 12 12" version="1.1" xmlns="http://www.w3.org/2000/svg" xmlns:xlink="http://www.w3.org/1999/xlink">
    <title>学习-深底</title>
    <g id="运营直播间" stroke="none" stroke-width="1" fill="none" fill-rule="evenodd">
        <g id="图标/状态" transform="translate(-300.000000, -310.000000)" fill-rule="nonzero" stroke="#C3D9FF">
            <g id="编组-21备份-10" transform="translate(44.000000, 270.000000)">
                <g id="编组-20" transform="translate(24.000000, 14.000000)">
                    <g id="编组-3" transform="translate(221.500000, 0.000000)">
                        <g id="编组-24" transform="translate(10.500000, 25.000000)">
                            <g id="学习-深底" transform="translate(0.000000, 1.000000)">
                                <rect id="矩形" x="0.5" y="0.5" width="11" height="11" rx="2"></rect>
                                <path d="M8.77336491,5.33540134 L4.73928798,3.00908366 C4.53126336,2.88898059 4.27496646,2.88898059 4.06694183,3.00908366 C3.86016545,3.12846026 3.7322099,3.34854379 3.73076342,3.58730134 L3.73076342,8.2466602 C3.72981132,8.48782052 3.85808813,8.71102214 4.06694183,8.83160135 C4.170076,8.88801577 4.28556358,8.91804254 4.40311491,8.91900636 C4.5204186,8.91622171 4.6354832,8.88630491 4.73928798,8.83160135 L8.77336491,6.4985602 C8.98071792,6.37827822 9.10834668,6.15669524 9.10834668,5.91698077 C9.10834668,5.6772663 8.98071792,5.45568332 8.77336491,5.33540134 L8.77336491,5.33540134 Z" id="路径"></path>
                            </g>
                        </g>
                    </g>
                </g>
            </g>
        </g>
    </g>
</svg>