<?xml version="1.0" encoding="UTF-8"?>
<svg width="20px" height="20px" viewBox="0 0 20 20" version="1.1" xmlns="http://www.w3.org/2000/svg" xmlns:xlink="http://www.w3.org/1999/xlink">
    <g id="直播列表-原型修改" stroke="none" stroke-width="1" fill="none" fill-rule="evenodd">
        <g id="4-1.2-运营直播间-公共" transform="translate(-995.000000, -667.000000)">
            <g id="编组-78" transform="translate(965.000000, 567.000000)">
                <g id="编组-58备份" transform="translate(10.000000, 90.000000)">
                    <g id="延时互动" transform="translate(20.000000, 10.000000)">
                        <polygon id="路径" fill-rule="nonzero" points="0 0 20 0 20 20 0 20"></polygon>
                        <path d="M15.2885375,17.4 L4.71146245,17.4 C4.31778656,17.4 4,17.1080524 4,16.746386 L4,14.5654939 C4,13.4151332 4.38181818,12.314883 5.1027668,11.3780362 C5.52252964,10.8333579 6.03715415,10.3692919 6.62766798,10.0010894 C6.03952569,9.6328868 5.52252964,9.16882084 5.1027668,8.6241425 C4.38181818,7.68947446 4,6.58704549 4,5.43668482 L4,3.25361401 C4,2.89194759 4.31778656,2.6 4.71146245,2.6 L15.2885375,2.6 C15.6822134,2.6 16,2.89194759 16,3.25361401 L16,5.45193582 C16,6.59793905 15.6205534,7.6960106 14.9019763,8.62849993 C14.484585,9.17099956 13.972332,9.6328868 13.3865613,10.0010894 C13.972332,10.3692919 14.484585,10.8311792 14.9019763,11.3736788 C15.6205534,12.3061681 16,13.4042397 16,14.5502429 L16,16.7485647 C16,17.1080524 15.6822134,17.4 15.2885375,17.4 Z M5.5,16 L14.5,16 L14.5,14.480415 C14.5,13.619746 14.215544,12.7955643 13.676943,12.0958684 C13.15,11.4111966 12.4225389,10.8939367 11.5715026,10.6041853 C11.2963731,10.5097478 11.1145078,10.2693615 11.1145078,10.0010732 C11.1145078,9.73278483 11.2963731,9.49025219 11.5715026,9.39796101 C12.4225389,9.10606332 13.15,8.59094974 13.676943,7.90627795 C14.215544,7.20658201 14.5,6.38240029 14.5,5.52173135 L14.5,4 L5.5,4 L5.5,5.50670721 C5.5,6.37166875 5.78678756,7.20014309 6.3253886,7.90198533 C6.85466321,8.58880343 7.58678756,9.10820962 8.44015544,9.40010732 C8.71528497,9.4945448 8.89715026,9.73493114 8.89715026,10.0032195 C8.89715026,10.2715078 8.71528497,10.5140404 8.44015544,10.6063316 C7.58678756,10.8982293 6.85466321,11.4154892 6.3253886,12.1044536 C5.78445596,12.8062958 5.5,13.6347702 5.5,14.4997317 L5.5,16 L5.5,16 Z" id="形状" fill="#333333" fill-rule="nonzero"></path>
                        <rect id="矩形" stroke="#333333" stroke-width="1.4" x="1.7" y="0.7" width="16.6" height="2.6" rx="1.3"></rect>
                        <rect id="矩形备份-16" stroke="#333333" stroke-width="1.4" x="1.7" y="16.7" width="16.6" height="2.6" rx="1.3"></rect>
                    </g>
                </g>
            </g>
        </g>
    </g>
</svg>