<?xml version="1.0" encoding="UTF-8"?>
<svg width="20px" height="20px" viewBox="0 0 20 20" version="1.1" xmlns="http://www.w3.org/2000/svg" xmlns:xlink="http://www.w3.org/1999/xlink">
    <title>yingxiaoguanli_icon</title>
    <g id="产品管理" stroke="none" stroke-width="1" fill="none" fill-rule="evenodd">
        <g id="编组-143">
            <rect id="矩形" x="0" y="0" width="20" height="20"></rect>
            <g id="编组" transform="translate(1.000000, 2.000000)" stroke-linecap="round">
                <path d="M2.2500585,4.41178391 L12.581684,0.36012736 C13.0908764,0.160442143 13.6660267,0.406889293 13.8726624,0.913300984 L15.30018,4.41178391 L15.30018,4.41178391" id="路径" stroke="#333333" stroke-linejoin="round"></path>
                <path d="M1,4.41173979 L17,4.41173979 C17.5522847,4.41173979 18,4.85945504 18,5.41173979 L18,7.05880484 L18,7.05880484 C16.65,7.05880484 15.3,7.94115986 15.3,9.48528114 C15.3,11.0294024 16.65,12.3529349 18,12.3529349 L18,14 C18,14.5522847 17.5522847,15 17,15 L1,15 C0.44771525,15 2.8967998e-16,14.5522847 0,14 L0,12.3529349 L0,12.3529349 C1.350072,12.3529349 2.7,11.4705799 2.7,9.7058699 C2.7,7.94115986 1.35,7.05880484 0,7.05880484 L0,5.41173979 C-6.76353751e-17,4.85945504 0.44771525,4.41173979 1,4.41173979 Z" id="路径" stroke="#333333" stroke-linejoin="round"></path>
                <line x1="5.85" y1="8.55210248" x2="8.55" y2="8.55210248" id="路径" stroke="#0C6FFF"></line>
                <line x1="5.85" y1="11.1991675" x2="12.15" y2="11.1991675" id="路径" stroke="#0C6FFF"></line>
            </g>
        </g>
    </g>
</svg>