<?xml version="1.0" encoding="UTF-8"?>
<svg width="24px" height="24px" viewBox="0 0 24 24" version="1.1" xmlns="http://www.w3.org/2000/svg" xmlns:xlink="http://www.w3.org/1999/xlink">
    <g id="自媒体运营2.0" stroke="none" stroke-width="1" fill="none" fill-rule="evenodd">
        <g id="在线剪辑-全篇字幕-小段" transform="translate(-849.000000, -730.000000)">
            <g id="编组-21" transform="translate(442.000000, 52.000000)">
                <g id="编组-30" transform="translate(0.500000, 539.000000)">
                    <g id="编组-86" transform="translate(406.500000, 139.000000)">
                        <rect id="矩形" x="0" y="0" width="24" height="24"></rect>
                        <g id="编组" transform="translate(2.000000, 4.500000)" fill="#D9D9D9" fill-rule="nonzero">
                            <path d="M9.24,0.0708849942 C9.58,-0.125912754 10,0.110244544 10,0.494000154 L10,0.494000154 L10,14.5059998 C10,14.8897555 9.57,15.1259128 9.24,14.929115 L9.24,14.929115 L5,12.4199437 L1,12.4199437 C0.45,12.4199437 0,11.9771488 0,11.435955 L0,11.435955 L0,3.5837248 C0,3.03269111 0.46,2.58005629 1.02,2.58005629 L1.02,2.58005629 L5,2.58005629 Z M15.26,0.936795088 C15.63,0.533359703 16.26,0.494000154 16.67,0.858075988 C16.6866667,0.874475801 16.7534648,0.935352422 16.8573085,1.03724309 L16.9988651,1.17897701 C17.839737,2.03752332 19.9835897,4.51927102 20,7.71647752 C20,10.038691 18.88,12.1936263 16.68,14.1320841 C16.49,14.2993622 16.25,14.3780813 16.01,14.3780813 C15.73,14.3780813 15.46,14.2698425 15.26,14.053365 C14.89,13.6499296 14.93,13.0300167 15.34,12.6659409 C17.1,11.1210786 17.99,9.4581376 17.99,7.71647752 C17.99,4.6857922 15.37,2.34389899 15.34,2.32421921 C14.93,1.96014338 14.89,1.34023047 15.26,0.936795088 Z M12.26,3.88876132 C12.63,3.48532593 13.26,3.45580627 13.67,3.8198821 C13.74,3.88876132 15.47,5.44346353 15.47,7.60823876 C15.47,8.91694379 14.87,10.1174101 13.67,11.1801179 C13.48,11.347396 13.24,11.435955 13,11.435955 C12.73,11.435955 12.46,11.3277162 12.26,11.1112387 C11.89,10.7078033 11.92,10.0878904 12.33,9.72381456 C13.09,9.04486233 13.47,8.33639043 13.47,7.60823876 C13.47,6.3290534 12.34,5.28602533 12.33,5.27618544 C11.92,4.91210961 11.89,4.2921967 12.26,3.88876132 Z" id="形状结合"></path>
                        </g>
                    </g>
                </g>
            </g>
        </g>
    </g>
</svg>