<?xml version="1.0" encoding="UTF-8"?>
<svg width="20px" height="20px" viewBox="0 0 20 20" version="1.1" xmlns="http://www.w3.org/2000/svg" xmlns:xlink="http://www.w3.org/1999/xlink">
    <title></title>
    <defs>
        <rect id="path-1" x="0" y="0" width="20" height="20"></rect>
    </defs>
    <g id="我的店铺" stroke="none" stroke-width="1" fill="none" fill-rule="evenodd">
        <g id="菜单栏图标" transform="translate(-559.000000, -178.000000)">
            <g id="编组" transform="translate(559.000000, 178.000000)">
                <mask id="mask-2" fill="white">
                    <use xlink:href="#path-1"></use>
                </mask>
                <g id="用户设置icon-(Background/Mask)"></g>
                <g id="Group-38" mask="url(#mask-2)" fill-rule="nonzero" stroke="#FFFFFF" stroke-dasharray="0,0">
                    <g transform="translate(1.000000, 3.000000)" id="Vector">
                        <path d="M10.3517894,2.13479782 C9.58499013,0.855899084 8.18549177,0 6.58529329,0 C4.16069565,0 2.19509776,1.96559789 2.19509776,4.39019552 C2.19509776,5.95619393 3.0158972,7.33139254 4.25159593,8.1089918 C1.76579832,9.05039087 0,11.4533879 0,14.2685852 L13.1705866,14.2685852 C13.1705866,13.6997858 13.0985864,13.1480869 12.9635865,12.6224874 C12.489287,10.7792893 11.2382889,9.24929084 9.57869051,8.4023917 C9.36449071,8.29259181 9.14489078,8.19539171 8.918991,8.1089918 C9.37259055,7.82369207 9.76949035,7.45919272 10.08989,7.03349314"></path>
                        <path d="M12.9635855,12.6214733 L17.9999809,12.6214733 C17.9999809,10.369676 16.586983,8.44727892 14.598885,7.69307983 C15.587984,7.07208059 16.2440832,5.97228135 16.2440832,4.71858286 C16.2440832,2.7790853 14.6708846,1.20678711 12.7322865,1.20678711 C11.8133874,1.20678711 10.9781881,1.55868662 10.3526887,2.13378591 C10.7486883,2.79348509 10.9763881,3.56478429 10.9763881,4.38918327 C10.9763881,5.3809821 10.6469888,6.29718049 10.0907893,7.0324796 C10.3148891,7.28807928 10.5758889,7.51128006 10.8656886,7.69307983 C10.4012891,7.86857962 9.96928943,8.10797889 9.57958984,8.40137853"></path>
                    </g>
                </g>
                <path d="M6.5,6 C6.77614237,6 7,6.22385763 7,6.5 L7,7.5 C7,7.77614237 6.77614237,8 6.5,8 C6.22385763,8 6,7.77614237 6,7.5 L6,6.5 C6,6.22385763 6.22385763,6 6.5,6 Z" id="Rectangle-261" fill="#FFFFFF" mask="url(#mask-2)"></path>
                <path d="M8.5,6 C8.77614237,6 9,6.22385763 9,6.5 L9,7.5 C9,7.77614237 8.77614237,8 8.5,8 C8.22385763,8 8,7.77614237 8,7.5 L8,6.5 C8,6.22385763 8.22385763,6 8.5,6 Z" id="Rectangle-262" fill="#FFFFFF" mask="url(#mask-2)"></path>
            </g>
        </g>
    </g>
</svg>