<?xml version="1.0" encoding="UTF-8"?>
<svg width="24px" height="24px" viewBox="0 0 24 24" version="1.1" xmlns="http://www.w3.org/2000/svg" xmlns:xlink="http://www.w3.org/1999/xlink">
    <g id="优惠券" stroke="none" stroke-width="1" fill="none" fill-rule="evenodd">
        <g id="运营直播间-公共（优惠券）" transform="translate(-704.000000, -763.000000)">
            <g id="编组-34" transform="translate(704.000000, 763.000000)">
                <rect id="矩形" x="0" y="0" width="24" height="24"></rect>
                <g id="编组-11" transform="translate(1.000000, 0.000000)" fill="#333333" fill-rule="nonzero">
                    <g id="编组">
                        <path d="M22,3.29999999 L22,8.5 C22,8.99705625 21.6306349,9.39999997 21.175,9.39999997 C20.1118519,9.39999997 19.25,10.340202 19.25,11.5 C19.25,12.659798 20.1118519,13.6 21.175,13.6 C21.6306349,13.6 22,14.0029437 22,14.5 L22,20.7 C22,22.5225 20.645625,24 18.975,24 L3.02500001,24 C1.35437502,24 0,22.5225 0,20.7 L0,14.5 C0,14.0029437 0.369365081,13.6 0.824999999,13.6 C1.88814815,13.6 2.75000001,12.659798 2.75000001,11.5 C2.75000001,10.340202 1.88814815,9.39999997 0.824999999,9.39999997 C0.369365081,9.39999997 0,8.99705625 0,8.5 L0,3.29999999 C0,1.47749999 1.35437499,0 3.02500001,0 L18.975,0 C20.645625,0 22,1.47749999 22,3.29999999 Z M3.02500001,1.8 C2.66032734,1.8 2.3105907,1.95803525 2.05272818,2.23933981 C1.79486566,2.52064438 1.65,2.90217525 1.65,3.3 L1.65,7.70439998 C3.226575,8.11059999 4.40000001,9.65589998 4.40000001,11.5 C4.40000001,13.3441 3.226575,14.8894 1.65,15.2956 L1.65,20.7 C1.65,21.0978247 1.79486566,21.4793556 2.05272818,21.7606602 C2.3105907,22.0419647 2.66032734,22.2 3.02500001,22.2 L18.975,22.2 C19.3396727,22.2 19.6894093,22.0419647 19.9472718,21.7606602 C20.2051343,21.4793556 20.35,21.0978247 20.35,20.7 L20.35,15.2956 C18.773425,14.8894 17.6,13.3441 17.6,11.5 C17.6,9.65589998 18.773425,8.11059999 20.35,7.70439998 L20.35,3.3 C20.35,2.90217525 20.2051343,2.52064438 19.9472718,2.23933981 C19.6894093,1.95803525 19.3396727,1.8 18.975,1.8 L3.02500001,1.8 Z" id="形状"></path>
                    </g>
                </g>
                <g id="券" transform="translate(5.000000, 2.000000)" fill="#333333" font-family="PingFangSC-Medium, PingFang SC" font-size="14" font-weight="400">
                    <text>
                        <tspan x="0" y="15">券</tspan>
                    </text>
                </g>
            </g>
        </g>
    </g>
</svg>