<svg xmlns="http://www.w3.org/2000/svg" fill="none" viewBox="0 0 24 24" class="design-iconfont">
  <path d="M8.0226 4.20815C5.96166 4.29961 4.3086 5.94395 4.20623 8.00438L4.00489 12.1993L4.00489 12.2013C3.94433 13.54 4.44833 14.8428 5.39413 15.7922L9.19641 19.5944C11.0561 21.4495 14.0664 21.4495 15.9261 19.5944L19.6096 15.9099C21.4635 14.0501 21.4635 11.0411 19.6096 9.18121L15.8043 5.39202C14.8575 4.44319 13.5533 3.93956 12.2145 4.0058L8.0226 4.20815ZM12.2881 5.51386L8.08922 5.71519C6.80665 5.77133 5.77766 6.79465 5.71444 8.07689L5.5131 12.2688C5.47199 13.1848 5.81668 14.0761 6.46342 14.7261L10.2627 18.5254C11.5332 19.7917 13.5887 19.7917 14.8592 18.5254L18.5407 14.8439C19.8064 13.5735 19.8064 11.5187 18.5407 10.2483L14.7384 6.46115L14.7364 6.45914C14.4173 6.13896 14.0346 5.88929 13.6129 5.72727C13.1912 5.56419 12.7398 5.49148 12.2881 5.51386Z" fill-rule="evenodd" fill="#FFF"/>
  <path d="M11.989 12.767C10.6791 13.6421 8.90778 13.2897 8.03266 11.9798C7.15755 10.6699 7.51001 8.8986 8.8199 8.02349C10.1298 7.14837 11.9011 7.50083 12.7762 8.81072C13.6513 10.1206 13.2989 11.8919 11.989 12.767ZM9.06056 10.3938C9.06056 11.1352 9.66158 11.7362 10.403 11.7362C11.1444 11.7362 11.7454 11.1352 11.7454 10.3938C11.7454 9.6524 11.1444 9.05138 10.403 9.05138C9.66158 9.05138 9.06056 9.6524 9.06056 10.3938ZM16.6943 12.575C16.494 12.575 16.3019 12.6546 16.1603 12.7963L12.805 16.1526C12.519 16.449 12.5233 16.9199 12.8146 17.211C13.106 17.5021 13.5769 17.506 13.8731 17.2197L17.2284 13.8634C17.5228 13.5686 17.5228 13.0911 17.2284 12.7963C17.0868 12.6546 16.8946 12.575 16.6943 12.575Z" fill-rule="evenodd" fill="#FFF"/>
</svg>
