
<?xml version="1.0" encoding="UTF-8"?>
<svg width="21px" height="21px" viewBox="0 0 21 21" version="1.1" xmlns="http://www.w3.org/2000/svg" xmlns:xlink="http://www.w3.org/1999/xlink">
    <title>编组 4</title>
    <g id="页面-1" stroke="none" stroke-width="1" fill="none" fill-rule="evenodd">
        <g id="优惠券" transform="translate(-27.000000, -90.000000)">
            <g id="编组-4" transform="translate(28.000000, 90.000000)">
                <rect id="矩形" x="0" y="0" width="20" height="20"></rect>
                <g id="编组-11">
                    <path d="M11.2375533,16.9820205 L11.2375533,18.8464311 C11.2375533,19.4835296 10.7280623,20 10.0995733,20 L1.13798009,20 C0.509491039,20 0,19.4835296 0,18.8464311 L0,9.76207642 C0,9.12497794 0.509491039,8.60850757 1.13798009,8.60850757 C1.91536108,8.60850757 2.49839683,8.60850757 2.88708733,8.60850757 C2.90567088,8.60850757 2.93354621,8.60850757 2.97071331,8.60850757" id="路径" stroke="#333333"></path>
                    <rect id="矩形" stroke="#333333" x="2.5" y="0.5" width="17" height="17" rx="8.5"></rect>
                    <path d="M10.8844981,7.25854838 C11.3567926,7.25854838 11.784058,7.45313688 12.0934578,7.766775 C12.4053029,8.08289202 12.597615,8.51975963 12.597615,9.00198193 C12.597615,9.48420423 12.4053029,9.92107184 12.0934578,10.2371889 C11.784058,10.550827 11.3567926,10.7454155 10.8844981,10.7454155 C10.4122036,10.7454155 9.98493817,10.550827 9.67553841,10.2371889 C9.36369324,9.92107184 9.1713812,9.48420423 9.1713812,9.00198193 C9.1713812,8.51975963 9.36369324,8.08289202 9.67553841,7.766775 C9.98493817,7.45313688 10.4122036,7.25854838 10.8844981,7.25854838 Z" id="椭圆形-2" stroke="#0C6FFF" fill="#0C6FFF"></path>
                </g>
            </g>
        </g>
    </g>
</svg>
