<svg xmlns="http://www.w3.org/2000/svg" xmlns:xlink="http://www.w3.org/1999/xlink" version="1.1" width="24" height="24" viewBox="0 0 24 24"><g><g><g><g></g></g><g><g><path d="M4.533047,4.008437627926469L10.92969,4.008437627926469L10.92969,4.0084532529264685C11.224070000000001,4.0084532528264685,11.46273,4.247096627926469,11.46273,4.541484627926469L11.46273,10.93813762792647C11.46273,11.232537627926469,11.22408,11.471187627926469,10.92969,11.471187627926469L4.533047,11.471187627926469C4.238653,11.471187627926469,4,11.232537627926469,4,10.93813762792647L4,4.541484627926469C4,4.400111627926469,4.0561601,4.264529627926469,4.156126,4.164563627926469C4.256091,4.0645977279264685,4.391674,4.008437627926469,4.533047,4.008437627926469ZM5.06641,10.405117627926469L10.39692,10.405117627926469L10.39692,5.074597627926469L5.06641,5.074597627926469L5.06641,10.405117627926469Z" fill-rule="evenodd"  fill-opacity="1"/></g><g><path d="M4.533047,12.537281036376953L10.92969,12.537281036376953C11.22408,12.537281036376953,11.46273,12.775934036376952,11.46273,13.070328036376953L11.46273,19.466971036376954C11.46273,19.761361036376954,11.22408,20.000011036376954,10.92969,20.000011036376954L4.533047,20.000011036376954C4.238653,20.000011036376954,4,19.761361036376954,4,19.466971036376954L4,13.070328036376953C4,12.775934036376952,4.238653,12.537281036376953,4.533047,12.537281036376953ZM5.06641,18.933961036376953L10.39692,18.933961036376953L10.39692,13.603441036376953L5.06641,13.603441036376953L5.06641,18.933961036376953Z" fill-rule="evenodd" fill-opacity="1"/></g><g><path d="M16.265538338623045,11.46892C16.123408338623047,11.46892,15.987168338623047,11.41216,15.887078338623047,11.311250000000001L12.688750338623047,8.11294C12.587839238623047,8.01285,12.531078338623047,7.8766099999999994,12.531078338623047,7.73448C12.531078338623047,7.59235,12.587839238623047,7.4561,12.688750338623047,7.35602L15.887078338623047,4.157672C15.987168338623047,4.0567609000000004,16.123408338623047,4,16.265538338623045,4C16.407668338623047,4,16.543908338623048,4.0567609000000004,16.643998338623046,4.157672L19.842328338623048,7.35602C19.943238338623047,7.4561,19.999998338623048,7.59235,19.999998338623048,7.73448C19.999998338623048,7.8766099999999994,19.943238338623047,8.01285,19.842328338623048,8.11294L16.643998338623046,11.311250000000001C16.543908338623048,11.41216,16.407668338623047,11.46892,16.265538338623045,11.46892ZM18.70192833862305,7.73975L16.260538338623046,5.28772L13.819168338623047,7.73977L16.260538338623046,10.18114L18.70192833862305,7.73975Z" fill-rule="evenodd" fill-opacity="1"/></g><g><path d="M12.528827667236328,13.070328036376953C12.528827667236328,12.775934036376952,12.767480667236327,12.537281036376953,13.061874667236328,12.537281036376953L19.45851766723633,12.537281036376953C19.599887667236327,12.537281036376953,19.73546766723633,12.593441136376953,19.835437667236327,12.693407036376954C19.93539766723633,12.793372036376953,19.99155766723633,12.928955036376953,19.99155766723633,13.070328036376953L19.99155766723633,19.466971036376954C19.99155766723633,19.608341036376952,19.93539766723633,19.743921036376953,19.835437667236327,19.843891036376952C19.73546766723633,19.943851036376955,19.599887667236327,20.000011036376954,19.45851766723633,20.000011036376954L13.061874667236328,20.000011036376954C12.767480667236327,20.000011036376954,12.528827667236328,19.761361036376954,12.528827667236328,19.466971036376954L12.528827667236328,13.070328036376953ZM13.595237667236328,18.933961036376953L18.92574766723633,18.933961036376953L18.92574766723633,13.603441036376953L13.595237667236328,13.603441036376953L13.595237667236328,18.933961036376953Z" fill-rule="evenodd"  fill-opacity="1"/></g></g></g></g></svg>
