<svg xmlns="http://www.w3.org/2000/svg" xmlns:xlink="http://www.w3.org/1999/xlink" version="1.1" width="24" height="24" viewBox="0 0 24 24"><g><g></g><g><g><g><g><path d="M19.98561038379669,5.656694667015076C19.915810383796693,5.356050667015076,19.615610383796692,5.1688843670150755,19.314910383796693,5.238608167015076L16.400610383796693,5.913805667015076C16.20441038379669,5.959180667015076,16.04771038379669,6.106616667015076,15.990610383796692,6.299744667015076C15.933410383796692,6.492864667015075,15.984610383796692,6.701804667015075,16.12451038379669,6.846674667015076L16.760610383796692,7.504544667015075L13.362220383796693,10.536224667015077L11.597650383796692,8.865004667015075C11.374080383796692,8.653384667015075,11.021480383796693,8.662374667015076,10.808990383796692,8.885124667015075L7.023300383796692,12.854704667015076C6.560138383796692,12.757944667015074,6.086224383796692,12.963264667015075,5.840041383796692,13.367334667015076C5.593858483796692,13.771404667015076,5.6287348837966915,14.286704667015076,5.927120383796692,14.653914667015076C6.225505383796692,15.021134667015076,6.722760383796691,15.160714667015077,7.168660383796691,15.002424667015076C7.614560383796692,14.844144667015076,7.9125103837966915,14.422264667015076,7.912570383796692,13.949104667015076C7.912570383796692,13.827814667015076,7.888540383796692,13.713794667015076,7.852760383796692,13.604804667015076L11.233230383796691,10.060014667015075L12.966490383796692,11.701054667015075C13.17740038379669,11.900664667015075,13.506030383796691,11.905524667015076,13.722740383796692,11.712234667015075L17.537510383796693,8.309414667015076L18.26241038379669,9.060074667015076C18.402310383796692,9.204894667015076,18.609210383796693,9.263304667015076,18.804210383796693,9.212974667015075C18.99911038379669,9.162654667015076,19.152010383796693,9.011364667015076,19.204210383796692,8.816934667015076L19.980610383796694,5.927779667015075C20.00461038379669,5.839216667015076,20.00631038379669,5.746087667015075,19.98561038379669,5.656694667015076L19.98561038379669,5.656694667015076Z" fill-opacity="1"/></g><g><path d="M18.532400000000003,11.309239999999999C18.532400000000003,11.00055,18.7827,10.7503,19.0913,10.7503C19.4,10.7503,19.6503,11.00055,19.6503,11.309239999999999L19.6503,15.7377C19.6503,16.663800000000002,18.8995,17.4145,17.9735,17.4145L5.67682,17.4145C4.750736,17.4145,4,16.663800000000002,4,15.7377L4,5.67682C4,4.750736,4.750736,4,5.67682,4L14.9457,4C15.2544,4,15.5046,4.250245,15.5046,4.558939C15.5046,4.867632,15.2544,5.1178799999999995,14.9457,5.1178799999999995L5.67682,5.1178799999999995C5.36812,5.1178799999999995,5.1178799999999995,5.36812,5.1178799999999995,5.67682L5.1178799999999995,15.7377C5.1178799999999995,16.0464,5.36812,16.2967,5.67682,16.2967L17.9735,16.2967C18.2822,16.2967,18.532400000000003,16.0464,18.532400000000003,15.7377L18.532400000000003,11.309239999999999ZM4.838236,18.5323L18.811700000000002,18.5323C19.1204,18.5323,19.3706,18.782600000000002,19.3706,19.0913C19.3706,19.4,19.1204,19.650199999999998,18.811700000000002,19.650199999999998L4.838236,19.650199999999998C4.529542,19.650199999999998,4.279297,19.4,4.279297,19.0913C4.279297,18.782600000000002,4.529542,18.5323,4.838236,18.5323Z" fill-rule="evenodd" fill-opacity="1"/></g></g></g></g></g></svg>
