<svg xmlns="http://www.w3.org/2000/svg" xmlns:xlink="http://www.w3.org/1999/xlink" version="1.1" width="24" height="24" viewBox="0 0 24 24"><g><g></g><g><g><g><path d="M11.564499999999999,19.32351673359871C10.58257,19.32351673359871,9.624279999999999,19.138116733598707,8.718720000000001,18.768916733598708C7.78043,18.38891673359871,6.9385200000000005,17.828816733598707,6.21662,17.10691673359871C5.49472,16.38501673359871,4.93647,15.543116733598708,4.554608,14.604816733598708C4.187294,13.69928673359871,4,12.74099673359871,4,11.759066733598708C4,10.77713673359871,4.185476,9.81884673359871,4.554608,8.91328673359871C4.934652,7.97499673359871,5.49472,7.133086733598709,6.21662,6.41118673359871C7.224,5.403796733598709,8.48778,4.703716733598709,9.86976,4.387316733598709L10.11342,5.451076733598709C8.931470000000001,5.722016733598709,7.85135,6.320266733598709,6.9894300000000005,7.182176733598709C5.76747,8.404136733598708,5.09285,10.029776733598709,5.09285,11.759066733598708C5.09285,13.488346733598709,5.7656600000000005,15.114016733598708,6.9894300000000005,16.335916733598708C8.21321,17.55791673359871,9.83703,18.232516733598708,11.56631,18.232516733598708C13.2956,18.232516733598708,14.9212,17.55971673359871,16.1432,16.335916733598708C16.8615,15.617716733598709,17.387,14.768516733598709,17.705199999999998,13.812026733598708L18.7399,14.15751673359871C18.3671,15.27581673359871,17.752499999999998,16.26871673359871,16.9142,17.10691673359871C16.1923,17.828816733598707,15.3504,18.38711673359871,14.4121,18.768916733598708C13.5029,19.138116733598707,12.54643,19.32351673359871,11.564499999999999,19.32351673359871Z" fill-opacity="1"/></g><g><path d="M11.606318950653076,12.64826L15.095808950653076,12.64826C17.23604895065308,12.64826,19.421748950653075,12.64644,19.454478950653076,12.64462L19.999998950653076,12.64462L19.999998950653076,12.0991C19.999998950653076,11.108080000000001,19.781788950653077,10.1116,19.352658950653076,9.13513C18.948968950653075,8.22048,18.379818950653075,7.36584,17.657918950653077,6.59302C16.717808950653076,5.5874500000000005,15.604958950653076,4.854643,14.350268950653076,4.414593C13.251958950653076,4.0290942,12.390043950653077,4,12.151835950653076,4L11.606318950653076,4L11.606318950653076,12.64826ZM17.469178950653077,11.55567C16.020368950653076,11.5561,14.076378950653076,11.55667,12.697138950653077,11.55536L12.697138950653077,5.13281C13.575418950653077,5.25101,15.321068950653077,5.69106,16.859428950653076,7.3367C17.495868950653076,8.02041,17.999558950653075,8.77323,18.352328950653074,9.575140000000001C18.641448950653075,10.23157,18.817838950653076,10.89529,18.881478950653076,11.55536C18.529528950653077,11.55536,18.037448950653076,11.5555,17.469178950653077,11.55567Z" fill-rule="evenodd" fill-opacity="1"/></g></g></g></g></svg>
