<?xml version="1.0" encoding="UTF-8"?>
<svg width="12px" height="12px" viewBox="0 0 12 12" version="1.1" xmlns="http://www.w3.org/2000/svg" xmlns:xlink="http://www.w3.org/1999/xlink">
    <g id="运营直播间" stroke="none" stroke-width="1" fill="none" fill-rule="evenodd">
        <g id="图标/状态" transform="translate(-44.000000, -137.000000)">
            <g id="在线" transform="translate(44.000000, 137.000000)">
                <rect id="矩形" x="0" y="0" width="12" height="12"></rect>
                <path d="M6.65498825,0.0638984642 C8.26482632,0.378260544 9.42642857,1.78874592 9.42642857,3.42892524 C9.42642857,5.32206012 7.89192726,6.85688186 5.99871429,6.85735514 C3.159,6.85735514 0.857142857,9.15997438 0.857142857,12 L0,12 C0,9.34125261 1.72885714,7.08663139 4.12328571,6.29937818 C2.74991359,5.40261013 2.20409847,3.65877449 2.82112226,2.13907015 C3.43814605,0.619365814 5.04515018,-0.250463616 6.65498825,0.0638984642 Z M9.375,6.75 C10.8247475,6.75 12,7.92525253 12,9.375 C12,10.8247475 10.8247475,12 9.375,12 C7.92525253,12 6.75,10.8247475 6.75,9.375 C6.75,7.92525253 7.92525253,6.75 9.375,6.75 Z M10.6175824,8.23680689 L10.5593578,8.28568608 L8.96053977,9.96597583 L8.29553366,9.26606864 L8.25200765,9.22799583 C8.12925803,9.13947592 7.95758564,9.15494936 7.8454594,9.27279506 C7.73733767,9.38643198 7.71967916,9.55837488 7.79393741,9.68633124 L7.83873299,9.7461703 L8.72542867,10.679468 C8.75263469,10.7081038 8.78374581,10.7302275 8.81706667,10.7458661 L8.86849335,10.7644637 L8.92196725,10.773339 C8.98955549,10.7783794 9.05895581,10.7607032 9.11899623,10.7204776 L9.17550292,10.6727415 L11.0027056,8.75233491 L11.0401894,8.7054263 C11.1279682,8.57368694 11.1182561,8.39350324 11.009432,8.27895967 C10.9044945,8.16850694 10.7414588,8.15494052 10.6175824,8.23680689 Z M4.1798596,1.61087728 C3.44446991,2.34635921 3.22457519,3.45240111 3.62271852,4.41322472 C4.02086184,5.37404832 4.95862953,6.00042101 5.99871429,6.0002477 C7.4187077,6.00001101 8.56971429,4.84886006 8.56971429,3.42892524 C8.56971429,2.3888834 7.94315943,1.45125884 6.98222981,1.0532921 C6.02130019,0.655325369 4.9152493,0.87539536 4.1798596,1.61087728 Z" id="形状结合" fill="#00CD43" fill-rule="nonzero"></path>
            </g>
        </g>
    </g>
</svg>