<svg xmlns="http://www.w3.org/2000/svg" xmlns:xlink="http://www.w3.org/1999/xlink" version="1.1" width="24" height="24" viewBox="0 0 24 24"><g><g><g></g></g><g><g><path d="M3,7L3,17Q3,17.098300000000002,3.00963055,17.195999999999998Q3.0192611,17.293799999999997,3.0384294,17.3902Q3.0575978,17.4865,3.0861193,17.5806Q3.114641,17.674599999999998,3.152241,17.7654Q3.189841,17.856099999999998,3.236157,17.9428Q3.282474,18.029400000000003,3.337061,18.1111Q3.391648,18.1928,3.453979,18.2688Q3.516311,18.3447,3.585786,18.4142Q3.655262,18.4837,3.731213,18.546Q3.807164,18.6084,3.888859,18.6629Q3.970554,18.7175,4.0572099999999995,18.7638Q4.14386,18.810200000000002,4.23463,18.8478Q4.32541,18.8854,4.41943,18.913899999999998Q4.51345,18.9424,4.60982,18.9616Q4.70619,18.9807,4.80397,18.9904Q4.90175,19,5,19L15,19Q15.0983,19,15.196,18.9904Q15.2938,18.9807,15.3902,18.9616Q15.4865,18.9424,15.5806,18.913899999999998Q15.6746,18.8854,15.7654,18.8478Q15.8561,18.810200000000002,15.9428,18.7638Q16.029400000000003,18.7175,16.1111,18.6629Q16.1928,18.6084,16.2688,18.546Q16.3447,18.4837,16.4142,18.4142Q16.4837,18.3447,16.546,18.2688Q16.6084,18.1928,16.6629,18.1111Q16.7175,18.029400000000003,16.7638,17.9428Q16.810200000000002,17.856099999999998,16.8478,17.7654Q16.8854,17.674599999999998,16.913899999999998,17.5806Q16.9424,17.4865,16.9616,17.3902Q16.9807,17.293799999999997,16.9904,17.195999999999998Q17,17.098300000000002,17,17L17,7Q17,6.90175,16.9904,6.80397Q16.9807,6.70619,16.9616,6.60982Q16.9424,6.51345,16.913899999999998,6.41943Q16.8854,6.32541,16.8478,6.23463Q16.810200000000002,6.14386,16.7638,6.0572099999999995Q16.7175,5.970554,16.6629,5.888859Q16.6084,5.807164,16.546,5.731213Q16.4837,5.6552620000000005,16.4142,5.585786Q16.3447,5.516311,16.2688,5.453979Q16.1928,5.391648,16.1111,5.337061Q16.029400000000003,5.282474,15.9428,5.236157Q15.8561,5.189841,15.7654,5.152241Q15.6746,5.114641,15.5806,5.0861193Q15.4865,5.0575978,15.3902,5.0384294Q15.2938,5.0192611,15.196,5.00963055Q15.0983,5,15,5L5,5Q4.90175,5,4.80397,5.00963055Q4.70619,5.0192611,4.60982,5.0384294Q4.51345,5.0575978,4.41943,5.0861193Q4.32541,5.114641,4.23463,5.152241Q4.14386,5.189841,4.0572099999999995,5.236157Q3.970554,5.282474,3.888859,5.337061Q3.807164,5.391648,3.731213,5.453979Q3.655262,5.516311,3.585786,5.585786Q3.516311,5.6552620000000005,3.453979,5.731213Q3.391648,5.807164,3.337061,5.888859Q3.282474,5.970554,3.236157,6.0572099999999995Q3.189841,6.14386,3.152241,6.23463Q3.114641,6.32541,3.0861193,6.41943Q3.0575978,6.51345,3.0384294,6.60982Q3.0192611,6.70619,3.00963055,6.80397Q3,6.90175,3,7ZM4.64645,17.3536Q4.5,17.2071,4.5,17L4.5,7Q4.5,6.79289,4.64645,6.64645Q4.79289,6.5,5,6.5L15,6.5Q15.2071,6.5,15.3536,6.64645Q15.5,6.79289,15.5,7L15.5,17Q15.5,17.2071,15.3536,17.3536Q15.2071,17.5,15,17.5L5,17.5Q4.79289,17.5,4.64645,17.3536Z" fill-rule="evenodd"  fill-opacity="1"/></g><g><ellipse cx="7.5" cy="9.5" rx="1.5" ry="1.5" fill-opacity="1"/></g><g><path d="M19.74998950958252,14.816865859375L16.78714750958252,13.588885859375L16.212831509582518,14.974585859375L20.21282950958252,16.632425859374997Q20.28106950958252,16.660705859375,20.35351950958252,16.675135859375Q20.42595950958252,16.689555859374998,20.49982950958252,16.689575859374997Q20.573699509582518,16.689585859375,20.64614950958252,16.675195859375002Q20.71860950958252,16.660795859375,20.78685950958252,16.632545859375Q20.85510950958252,16.604285859375,20.91653950958252,16.563265859375Q20.97795950958252,16.522235859375,21.03020950958252,16.470015859375Q21.08244950958252,16.417795859374998,21.12349950958252,16.356385859375Q21.16455950958252,16.294975859375,21.19283950958252,16.226735859374998Q21.24998950958252,16.088845859375,21.24998950958252,15.939575859375L21.24998950958252,7.812255859375Q21.24998950958252,7.738387359375,21.23557950958252,7.665937859375Q21.22116950958252,7.593488859375,21.19289950958252,7.525242859375Q21.164629509582518,7.456997859375,21.12358950958252,7.395577859375Q21.08254950958252,7.334158859375,21.03031950958252,7.281925859375Q20.97808950958252,7.229692859375,20.91666950958252,7.188653859375Q20.85524950958252,7.147614859375,20.78699950958252,7.119345859375Q20.71875950958252,7.091077859375,20.64630950958252,7.076666859375Q20.57385950958252,7.062255859375,20.49998950958252,7.062255859375Q20.34823950958252,7.062255859375,20.20842950958252,7.121247859375L16.208428509582518,8.808991859375L16.79155050958252,10.191005859375L19.74998950958252,8.942735859375L19.74998950958252,14.816865859375Z" fill-rule="evenodd" fill-opacity="1"/></g></g></g></svg>
