<svg xmlns="http://www.w3.org/2000/svg" fill="none" viewBox="0 0 24 24" class="design-iconfont">
  <path d="M9.75 4.5L5.25 4.5C4.83579 4.5 4.5 4.83579 4.5 5.25L4.5 9.75C4.5 10.1642 4.83579 10.5 5.25 10.5L9.75 10.5C10.1642 10.5 10.5 10.1642 10.5 9.75L10.5 5.25C10.5 4.83579 10.1642 4.5 9.75 4.5Z" stroke="rgba(255, 255, 255, 1)" stroke-width="1.5" stroke-linejoin="round"/>
  <path d="M9.75 13.5L5.25 13.5C4.83579 13.5 4.5 13.8358 4.5 14.25L4.5 18.75C4.5 19.1642 4.83579 19.5 5.25 19.5L9.75 19.5C10.1642 19.5 10.5 19.1642 10.5 18.75L10.5 14.25C10.5 13.8358 10.1642 13.5 9.75 13.5Z" stroke="rgba(255, 255, 255, 1)" stroke-width="1.5" stroke-linejoin="round"/>
  <path d="M18.75 4.5L14.25 4.5C13.8358 4.5 13.5 4.83579 13.5 5.25L13.5 9.75C13.5 10.1642 13.8358 10.5 14.25 10.5L18.75 10.5C19.1642 10.5 19.5 10.1642 19.5 9.75L19.5 5.25C19.5 4.83579 19.1642 4.5 18.75 4.5Z" stroke="rgba(255, 255, 255, 1)" stroke-width="1.5" stroke-linejoin="round"/>
  <path stroke="rgba(255, 255, 255, 1)" stroke-width="1.5" stroke-linejoin="round" stroke-linecap="round" d="M13.5 13.5L19.5 13.5"/>
  <path stroke="rgba(255, 255, 255, 1)" stroke-width="1.5" stroke-linejoin="round" stroke-linecap="round" d="M16.5 16.5L19.5 16.5"/>
  <path stroke="rgba(255, 255, 255, 1)" stroke-width="1.5" stroke-linejoin="round" stroke-linecap="round" d="M13.5 19.5L19.5 19.5"/>
</svg>
