<svg xmlns="http://www.w3.org/2000/svg" fill="none" viewBox="0 0 27.5 27.5" class="design-iconfont">
  <path d="M22.9424 22.9424C25.2949 20.5898 26.75 17.3398 26.75 13.75C26.75 10.1602 25.2949 6.91018 22.9424 4.55761C20.5898 2.20508 17.3398 0.75 13.75 0.75C10.1602 0.75 6.91018 2.20508 4.55761 4.55761C2.20508 6.91018 0.75 10.1602 0.75 13.75C0.75 17.3398 2.20508 20.5898 4.55761 22.9424C6.91018 25.2949 10.1602 26.75 13.75 26.75C17.3398 26.75 20.5898 25.2949 22.9424 22.9424Z" stroke="rgba(245, 63, 63, 1)" stroke-width="1.5" stroke-linejoin="round"/>
  <path d="M15.375 20.5742C15.375 19.6768 14.6475 18.9492 13.75 18.9492C12.8525 18.9492 12.125 19.6768 12.125 20.5742C12.125 21.4717 12.8525 22.1992 13.75 22.1992C14.6475 22.1992 15.375 21.4717 15.375 20.5742Z" fill="#F53F3F"/>
  <path stroke="rgba(245, 63, 63, 1)" stroke-width="2.6" stroke-linejoin="round" stroke-linecap="round" d="M13.75 5.94922L13.75 16.3496"/>
</svg>
