<?xml version="1.0" encoding="UTF-8"?>
<svg width="16px" height="16px" viewBox="0 0 16 16" version="1.1" xmlns="http://www.w3.org/2000/svg" xmlns:xlink="http://www.w3.org/1999/xlink">
    <g id="运营直播间" stroke="none" stroke-width="1" fill="none" fill-rule="evenodd">
        <g id="图标/状态" transform="translate(-126.000000, -51.000000)">
            <rect fill="#FFFFFF" x="0" y="0" width="655" height="468"></rect>
            <g id="编组" transform="translate(126.000000, 51.000000)">
                <circle id="椭圆形" stroke="#FF007B" fill="#FFFFFF" cx="8" cy="8" r="7.5"></circle>
                <g id="礼花" transform="translate(4.000000, 3.500000)" fill="#FF007B" fill-rule="nonzero">
                    <path d="M2.38914309,2.37217195 L6.51227121,6.57692308 C6.58215474,6.64819005 6.61709651,6.79072398 6.61709651,6.93325792 C6.58215474,7.04015837 6.51227121,7.14705882 6.37250416,7.18269231 L0.432404326,9 L0.362520799,9 C0.257695507,9 0.18781198,8.96436652 0.117928453,8.89309955 C0.0131031614,8.7861991 -0.0218386023,8.67929864 0.0131031614,8.53676471 L1.79513311,2.51470588 C1.83007488,2.40780543 1.93490017,2.30090498 2.03972546,2.26527149 C2.14455075,2.22963801 2.2843178,2.26527149 2.38914309,2.37217195 Z M2.2843178,3.29864253 L0.886647255,8.1091629 L5.60378536,6.64819005 L2.2843178,3.29864253 Z M6.89663062,4.22511312 C7.21110649,4.22511312 7.42075707,4.47454751 7.77017471,4.79524887 C7.90994176,4.93778281 7.90994176,5.15158371 7.77017471,5.29411765 C7.63040765,5.43665158 7.42075707,5.43665158 7.28099002,5.29411765 C7.17616473,5.18721719 7.00145591,5.00904977 6.89663062,4.93778281 C6.82674709,4.97341629 6.68698003,5.11595023 6.58215474,5.25848416 L6.47732945,5.36538462 C6.40744592,5.43665158 6.3375624,5.47228507 6.2327371,5.47228507 C6.12791181,5.47228507 6.05802829,5.43665158 5.98814476,5.36538462 C5.8483777,5.22285068 5.8483777,5.00904977 5.98814476,4.86651584 L6.09297005,4.75961538 C6.40744592,4.43891403 6.61709651,4.22511312 6.89663062,4.22511312 Z M8.90559441,2.7739726 C9.03146853,2.89726027 9.03146853,3.08219178 8.90559441,3.20547945 C8.77972028,3.32876712 8.59090909,3.32876712 8.46503497,3.20547945 C7.8041958,2.55821918 7.74125874,2.49657534 7.11188811,3.1130137 L5.79020979,4.40753425 C5.72727273,4.46917808 5.63286713,4.5 5.56993007,4.5 C5.47552448,4.5 5.41258741,4.46917808 5.34965035,4.40753425 C5.22377622,4.28424658 5.22377622,4.09931507 5.34965035,3.9760274 L6.67132867,2.68150685 C7.67832168,1.69520548 8.18181818,2.06506849 8.90559441,2.7739726 Z M5.31818182,0.0924657534 L5.66433566,0.431506849 C6.45104895,1.20205479 6.45104895,2.31164384 5.66433566,3.08219178 L5.03496503,3.69863014 C5.0034965,3.76027397 4.90909091,3.79109589 4.81468531,3.79109589 C4.72027972,3.79109589 4.65734266,3.76027397 4.59440559,3.69863014 C4.46853147,3.57534247 4.46853147,3.39041096 4.59440559,3.26712329 L5.22377622,2.65068493 C5.79020979,2.09589041 5.79020979,1.41780822 5.22377622,0.863013699 L4.87762238,0.523972603 C4.75174825,0.400684932 4.75174825,0.215753425 4.87762238,0.0924657534 C5.0034965,-0.0308219178 5.19230769,-0.0308219178 5.31818182,0.0924657534 Z M4.06634775,1.23190045 C4.6952995,1.87330317 4.6952995,2.30090498 4.06634775,2.94230769 C4.03140599,2.97794118 3.9265807,3.01357466 3.82175541,3.01357466 C3.71693012,3.01357466 3.64704659,2.97794118 3.57716306,2.90667421 C3.43739601,2.76414027 3.43739601,2.55033937 3.57716306,2.40780543 C3.9265807,2.05147059 3.9265807,2.05147059 3.57716306,1.73076923 C3.43739601,1.58823529 3.43739601,1.37443439 3.57716306,1.23190045 C3.71693012,1.08936652 3.9265807,1.08936652 4.06634775,1.23190045 Z" id="形状结合"></path>
                </g>
            </g>
        </g>
    </g>
</svg>