<?xml version="1.0" encoding="UTF-8"?>
<svg width="20px" height="20px" viewBox="0 0 20 20" version="1.1" xmlns="http://www.w3.org/2000/svg" xmlns:xlink="http://www.w3.org/1999/xlink">
    <title></title>
    <g id="讲师管理" stroke="none" stroke-width="1" fill="none" fill-rule="evenodd">
        <g id="师资评估-左滑" transform="translate(-28.000000, -503.000000)">
            <g id="编组-144备份" transform="translate(0.000000, 69.000000)">
                <g id="Group-13备份-4" transform="translate(8.000000, 425.000000)">
                    <g id="编组" transform="translate(20.000000, 9.000000)">
                        <rect id="矩形" x="0" y="0" width="20" height="20"></rect>
                        <g transform="translate(1.000000, 3.000000)">
                            <rect id="矩形" stroke="#333333" stroke-linecap="round" stroke-linejoin="round" x="3.15" y="0" width="11.7" height="15" rx="1"></rect>
                            <path d="M1,1.76470588 L3.15,1.76470588 L3.15,1.76470588 L3.15,13.2352941 L1,13.2352941 C0.44771525,13.2352941 -1.5440923e-16,12.7875789 0,12.2352941 L0,2.76470588 C-2.8967998e-16,2.21242113 0.44771525,1.76470588 1,1.76470588 Z" id="矩形" stroke="#333333" stroke-linecap="round" stroke-linejoin="round"></path>
                            <path d="M14.85,1.76470588 L17,1.76470588 C17.5522847,1.76470588 18,2.21242113 18,2.76470588 L18,12.2352941 C18,12.7875789 17.5522847,13.2352941 17,13.2352941 L14.85,13.2352941 L14.85,13.2352941 L14.85,1.76470588 Z" id="矩形" stroke="#333333" stroke-linecap="round" stroke-linejoin="round"></path>
                            <path d="M7.92770048,4.54115861 L12.0865538,6.96715637 C12.3808352,7.13882052 12.4802361,7.51654404 12.308572,7.81082545 C12.2549539,7.90274207 12.1784704,7.9792256 12.0865538,8.03284363 L7.92770048,10.4588414 C7.63341907,10.6305055 7.25569555,10.5311046 7.08403139,10.2368232 C7.02899831,10.1424808 7,10.0352183 7,9.92599776 L7,5.07400224 C7,4.73331157 7.27618436,4.45712722 7.61687503,4.45712722 C7.72609561,4.45712722 7.83335804,4.48612552 7.92770048,4.54115861 Z" id="路径" fill="#0C6FFF"></path>
                        </g>
                    </g>
                </g>
            </g>
        </g>
    </g>
</svg>