
<?xml version="1.0" encoding="UTF-8"?>
<svg width="12px" height="12px" viewBox="0 0 12 12" version="1.1" xmlns="http://www.w3.org/2000/svg" xmlns:xlink="http://www.w3.org/1999/xlink">
    <g id="运营直播间" stroke="none" stroke-width="1" fill="none" fill-rule="evenodd">
        <g id="图标/状态" transform="translate(-664.000000, -285.000000)">
            <g id="编组-21备份-9" transform="translate(408.000000, 270.000000)">
                <g id="编组-20" transform="translate(24.000000, 14.000000)">
                    <g id="编组-22" transform="translate(232.000000, 0.000000)">
                        <g id="咨询-白底" transform="translate(0.000000, 1.000000)">
                            <rect id="矩形" x="0" y="0" width="12" height="12"></rect>
                            <path d="M10,0.5 C10.4142136,0.5 10.7892136,0.667893219 11.0606602,0.939339828 C11.3321068,1.21078644 11.5,1.58578644 11.5,2 L11.5,2 L11.5,8.00916822 C11.5,8.42085005 11.333133,8.79355799 11.0633455,9.06334548 C10.793558,9.33313297 10.42085,9.5 10.0091682,9.5 L10.0091682,9.5 L8.03959343,9.5 L6.38399059,10.9196567 L4.44517172,9.66666081 L2.01593428,9.49991725 C1.59540905,9.5042836 1.21426299,9.33558333 0.939339828,9.06066017 C0.667893219,8.78921356 0.5,8.41421356 0.5,8 L0.5,8 L0.5,2 C0.5,1.58578644 0.667893219,1.21078644 0.939339828,0.939339828 C1.21078644,0.667893219 1.58578644,0.5 2,0.5 L2,0.5 Z" id="矩形" stroke="#999999"></path>
                            <rect id="矩形" stroke="#999999" fill="#979797" x="3.5" y="3.5" width="5" height="1" rx="0.5"></rect>
                            <rect id="矩形备份-8" stroke="#999999" fill="#979797" x="3.5" y="6.5" width="5" height="1" rx="0.5"></rect>
                        </g>
                    </g>
                </g>
            </g>
        </g>
    </g>
</svg>
