<?xml version="1.0" encoding="UTF-8"?>
<svg width="80px" height="92px" viewBox="0 0 80 92" version="1.1" xmlns="http://www.w3.org/2000/svg" xmlns:xlink="http://www.w3.org/1999/xlink">
    <defs>
        <filter x="-62.5%" y="-62.5%" width="225.0%" height="225.0%" filterUnits="objectBoundingBox" id="filter-1">
            <feGaussianBlur stdDeviation="10" in="SourceGraphic"></feGaussianBlur>
        </filter>
    </defs>
    <g id="自媒体运营2.0" stroke="none" stroke-width="1" fill="none" fill-rule="evenodd">
        <g id="云桌面管理" transform="translate(-272.000000, -148.000000)">
            <g id="编组-43" transform="translate(272.000000, 108.000000)">
                <g id="编组-25" transform="translate(0.000000, 40.000000)">
                    <g id="编组-13" transform="translate(16.000000, 22.000000)">
                        <circle id="椭圆形" fill-opacity="0.2" fill="#0C6FFF" filter="url(#filter-1)" cx="24" cy="24" r="24"></circle>
                        <circle id="椭圆形" fill-opacity="0.2" fill="#0C6FFF" cx="24" cy="24" r="24"></circle>
                        <g id="编组" transform="translate(9.066667, 11.133333)" fill-rule="nonzero">
                            <path d="M0,4.26666666 C0,3.1350763 0.449522522,2.04983293 1.24967774,1.24967772 C2.04983296,0.449522506 3.13507633,0 4.26666669,0 L25.6,0 C26.7315904,0 27.8168337,0.449522506 28.6169889,1.24967772 C29.4171442,2.04983293 29.8666667,3.1350763 29.8666667,4.26666666 L29.8666667,19.2 C29.8666667,20.3315904 29.4171442,21.4168337 28.6169889,22.2169889 C27.8168337,23.0171442 26.7315904,23.4666667 25.6,23.4666667 L4.26666669,23.4666667 C3.13507633,23.4666667 2.04983296,23.0171442 1.24967774,22.2169889 C0.449522522,21.4168337 0,20.3315904 0,19.2 L0,4.26666666 Z" id="路径" fill="#0C6FFF"></path>
                            <path d="M0,19.2 C0,18.9171024 0.112380621,18.6457916 0.31241943,18.4457527 C0.51245824,18.2457139 0.78376909,18.1333333 1.06666669,18.1333333 L28.8,18.1333333 C29.0828976,18.1333333 29.3542084,18.2457139 29.5542473,18.4457527 C29.7542861,18.6457916 29.8666667,18.9171024 29.8666667,19.2 C29.8666667,20.3315904 29.4171442,21.4168337 28.6169889,22.2169889 C27.8168337,23.0171442 26.7315904,23.4666667 25.6,23.4666667 L20.2666667,23.4666667 C19.8855834,23.4666666 19.5334479,23.6699721 19.3429062,24 C19.1523645,24.3300278 19.1523645,24.7366389 19.3429062,25.0666667 C19.5334479,25.3966945 19.8855834,25.6 20.2666667,25.6 L21.3333333,25.6 C21.9224371,25.6 22.4,26.0775629 22.4,26.6666667 C22.4,27.2557704 21.9224371,27.7333333 21.3333333,27.7333333 L8.53333334,27.7333333 C7.94422962,27.7333333 7.46666669,27.2557704 7.46666669,26.6666667 C7.46666669,26.0775629 7.94422962,25.6 8.53333334,25.6 L9.6,25.6 C10.1891037,25.6 10.6666667,25.1224371 10.6666667,24.5333333 C10.6666667,23.9442296 10.1891037,23.4666667 9.6,23.4666667 L4.26666669,23.4666667 C3.13507633,23.4666667 2.04983296,23.0171442 1.24967774,22.2169889 C0.449522522,21.4168337 0,20.3315904 0,19.2 L0,19.2 Z" id="路径" fill="#73ACFF"></path>
                            <path d="M12.2666667,20.8 C12.2666667,19.9163444 12.9830111,19.2 13.8666667,19.2 L16,19.2 C16.8836556,19.2 17.6,19.9163444 17.6,20.8 C17.6,21.6836556 16.8836556,22.4 16,22.4 L13.8666667,22.4 C12.9830111,22.4 12.2666667,21.6836556 12.2666667,20.8 L12.2666667,20.8 Z" id="路径" fill="#FFFFFF"></path>
                        </g>
                    </g>
                </g>
            </g>
        </g>
    </g>
</svg>