<svg xmlns="http://www.w3.org/2000/svg" xmlns:xlink="http://www.w3.org/1999/xlink"  version="1.1" width="24" height="24" viewBox="0 0 24 24"><g><g></g><g><g><path d="M16.1144,13.49166C17.846,13.14534,19.3245,13.97562,19.8395,15.5651C20.3574,17.1147,19.5872,18.8006,18.076900000000002,19.4235C16.0522,20.3515,13.71676,18.7531,13.71676,16.3155C13.6964,15.9712,13.77333,15.6281,13.93876,15.3254C14.1608,14.9657,14.0409,14.7304,13.81888,14.4374C11.53228,11.45369,9.26787,8.46113,6.99014,5.46412C6.89246,5.33536,6.78146,5.20216,6.688219999999999,5.06008C6.58124,4.929883,6.5317,4.761829,6.55095,4.594419C6.5702,4.427008,6.6566,4.274587,6.7903400000000005,4.172076C6.911490000000001,4.0491301,7.08131,3.9868543,7.25322,4.00232634C7.425129999999999,4.0177984,7.5811,4.109394,7.67835,4.251996C8.44647,5.13556,9.20571,5.99692,9.96495,6.88492C10.55547,7.573119999999999,11.172640000000001,8.25245,11.740960000000001,8.94953C11.9674,9.23369,12.0784,9.17153,12.26932,8.94953C13.49476,7.5331600000000005,14.7202,6.12568,15.9545,4.709318L16.2875,4.323037C16.3784,4.161066,16.5383,4.0494889,16.7217,4.0200787C16.905099999999997,3.99066844,17.0918,4.046648,17.2288,4.172076C17.3808,4.284065,17.4768,4.456361,17.4921,4.644506C17.5074,4.83265,17.4406,5.0182199999999995,17.3087,5.15332C16.6827,5.9924800000000005,16.0744,6.7916799999999995,15.4173,7.65305C14.7602,8.51441,14.1208,9.37577,13.4548,10.22381C13.35139,10.30813,13.29139,10.43449,13.29139,10.567910000000001C13.29139,10.70134,13.35139,10.82769,13.4548,10.91201C14.1608,11.6979,14.8578,12.51042,15.5372,13.3185C15.6722,13.4945,15.9048,13.56427,16.1144,13.49166ZM10.23534,14.4019C10.32362,14.2887,10.43208,14.1745,10.541640000000001,14.0592C10.82331,13.76268,11.11215,13.45861,11.08338,13.14533C11.043420000000001,12.71021,10.48842,12.28397,10.19538,11.839970000000001C10.044419999999999,11.61797,9.95118,11.58689,9.751380000000001,11.839970000000001C9.3651,12.31505,8.92998,12.72797,8.55702,13.21637C8.40042,13.48082,8.07782,13.59643,7.7889,13.49165C7.17837,13.34911,6.5385100000000005,13.40192,5.95961,13.64261C4.47778,14.2519,3.686089,15.8734,4.117006,17.416600000000003C4.55725,18.9351,6.03886,19.905900000000003,7.60685,19.703200000000002C9.16749,19.457,10.30573,18.094900000000003,10.270859999999999,16.5153C10.32685,16.1425,10.268,15.7616,10.10214,15.4231C9.84018,14.9791,9.99114,14.726,10.23534,14.4019ZM5.28437,16.550800000000002C5.2953,17.5735,6.1050699999999996,18.4087,7.12698,18.4511L7.16694,18.4511C8.21148,18.4177,9.04288,17.564799999999998,9.0495,16.5197C9.03345,15.4987,8.2186,14.6702,7.19802,14.6372C6.6883,14.6299,6.19733,14.8292,5.83687,15.1897C5.47641,15.5501,5.27712,16.0411,5.28437,16.550800000000002ZM15.1768,17.5242C15.5317,18.1316,16.192,18.4946,16.8951,18.468899999999998C17.9115,18.4227,18.7284,17.6154,18.7865,16.599600000000002C18.7969,15.5573,17.976599999999998,14.6957,16.935000000000002,14.6549C16.2327,14.6144,15.5649,14.9635,15.1973,15.5634C14.8298,16.1633,14.8219,16.9167,15.1768,17.5242Z" fill-rule="evenodd"  fill-opacity="1"/></g></g></g></svg>
