<svg xmlns="http://www.w3.org/2000/svg" xmlns:xlink="http://www.w3.org/1999/xlink" version="1.1" width="24" height="24" viewBox="0 0 24 24"><g><g></g><g><g><path d="M12,2.0000000000000004L19.304000000000002,3.6226700000000003C19.7102,3.7131300000000005,19.999299999999998,4.073180000000001,20,4.489330000000001L20,13.368C20,15.1511,19.1089,16.816200000000002,17.6253,17.805300000000003L12,21.5547L6.37467,17.805300000000003C4.891121,16.816200000000002,4.0000304723,15.1511,4,13.368L4,4.490670000000001C4,4.07333,4.289333,3.7133300000000005,4.696,3.6226700000000003L12,2.0000000000000004ZM12,3.0000000000000004L5,4.508330000000001L5,13.4058C5,14.7005,5.66895,15.9109,6.78187,16.628800000000002L12,20L17.2196,16.628800000000002C18.331699999999998,15.9101,18.9997,14.7008,19,13.4058L19,4.508330000000001L12,3.0000000000000004ZM17.6,7.950000000000001L12.29181,15.0276Q11.812570000000001,15.6666,11.01586,15.7232Q10.219149999999999,15.7798,9.65437,15.215L6.96967,12.5303Q6.86418,12.4248,6.8070900000000005,12.287Q6.75,12.1492,6.75,12Q6.75,11.85082,6.8070900000000005,11.71299Q6.86418,11.57516,6.96967,11.46967Q7.07516,11.36418,7.21299,11.30709Q7.350820000000001,11.25,7.5,11.25Q7.649179999999999,11.25,7.78701,11.30709Q7.92484,11.36418,8.03033,11.46967L10.715029999999999,14.1544Q10.79571,14.2351,10.90953,14.227Q11.023340000000001,14.2189,11.091809999999999,14.1276L16.4,7.050000000000001Q16.450200000000002,6.98306,16.5139,6.92883Q16.5777,6.874600000000001,16.6518,6.835750000000001Q16.7259,6.796900000000001,16.8067,6.77533Q16.8876,6.753770000000001,16.9712,6.7505500000000005Q16.985599999999998,6.75,17,6.75Q17.1217,6.75,17.2372,6.788490000000001Q17.352600000000002,6.826980000000001,17.45,6.9Q17.5693,6.989510000000001,17.645400000000002,7.117880000000001Q17.7214,7.24625,17.7425,7.393930000000001Q17.749499999999998,7.44342,17.75,7.493400000000001L17.75,7.5Q17.75,7.62171,17.7115,7.737170000000001Q17.673000000000002,7.852630000000001,17.6,7.950000000000001Z" fill-rule="evenodd"  fill-opacity="1"/></g></g></g></svg>
