<?xml version="1.0" encoding="UTF-8"?>
<svg width="24px" height="24px" viewBox="0 0 24 24" version="1.1" xmlns="http://www.w3.org/2000/svg" xmlns:xlink="http://www.w3.org/1999/xlink">
    <title>个微-未加</title>
    <g id="页面-1" stroke="none" stroke-width="1" fill="none" fill-rule="evenodd">
        <g id="4-1-线索管理" transform="translate(-698.000000, -473.000000)">
            <rect fill="#EEEEEE" x="0" y="0" width="1440" height="1024"></rect>
            <g id="编组-15" transform="translate(252.000000, 89.000000)" fill="#FFFFFF">
                <rect id="矩形备份" x="0" y="0" width="1159" height="915" rx="10"></rect>
            </g>
            <g id="编组-13" transform="translate(271.000000, 337.000000)">
                <g id="编组-25" transform="translate(1.000000, 0.000000)"></g>
                <g id="编组-6备份-2" transform="translate(0.000000, 116.000000)" fill="#777777" fill-rule="nonzero">
                    <g id="编组-21" transform="translate(21.000000, 0.000000)">
                        <g id="个微-未加" transform="translate(406.000000, 20.000000)">
                            <path d="M12,0 C18.626087,0 24,5.37391303 24,12 C24,18.626087 18.626087,24 12,24 C5.37391303,24 0,18.626087 0,12 C0,5.37391303 5.37391303,0 12,0 Z M15.0956522,9.77391303 C12.4869565,9.77391303 10.4173913,11.5826087 10.4347826,13.8086957 C10.4347826,16.0521739 12.5043478,17.8608696 15.1304348,17.8608696 C15.6869565,17.8608696 16.2434783,17.7217391 16.7826087,17.5826087 L16.7826087,17.5826087 L18.2782609,18.4173913 L17.8608696,17.0260869 C18.9565218,16.1913043 19.7739131,15.0782609 19.7739131,13.826087 C19.7739131,11.6 17.5826087,9.77391303 15.0956522,9.77391303 Z M9.72173914,5.56521738 C6.71304349,5.56521738 4.22608697,7.65217392 4.22608697,10.3130435 C4.22608697,11.826087 5.06086956,13.0956522 6.4347826,14.0695652 L6.4347826,14.0695652 L5.89565217,15.7565217 L7.80869564,14.7826087 C8.46956523,14.9391304 9.02608696,15.0782609 9.72173914,15.0782609 C9.89565219,15.0782609 10.0869565,15.0608696 10.2608696,15.0434783 C10.1565218,14.6608696 10.0869565,14.2782609 10.0869565,13.8782609 C10.0869565,11.4434783 12.1391304,9.47826087 14.7478261,9.44347825 C14.9217391,9.44347825 15.0956522,9.46086957 15.2695652,9.47826087 C14.8,7.2347826 12.4173913,5.56521738 9.72173914,5.56521738 Z M13.5826087,12 C14,12 14.2782609,12.2782608 14.2782609,12.5565217 C14.2782609,12.8347826 14,13.1130435 13.5826087,13.1130435 C13.3217391,13.1130435 13.0434783,12.8521739 13.0434783,12.5565217 C13.0434783,12.2956522 13.3043478,12 13.5826087,12 Z M16.6086957,12 C17.026087,12 17.3043478,12.2782608 17.3043478,12.5565217 C17.3043478,12.8347826 17.0260869,13.1130435 16.6086957,13.1130435 C16.3478261,13.1130435 16.0695652,12.8521739 16.0695652,12.5565217 C16.0695652,12.2956522 16.3304348,12 16.6086957,12 Z M7.93043478,7.96521739 C8.3478261,7.96521739 8.62608696,8.22608694 8.62608696,8.66086955 C8.62608696,9.07826087 8.3478261,9.35652173 7.93043478,9.35652173 C7.51304346,9.35652173 7.09565217,9.07826085 7.09565217,8.66086955 C7.09565217,8.24347826 7.51304349,7.96521739 7.93043478,7.96521739 Z M11.7913043,7.96521739 C12.2086957,7.96521739 12.4869565,8.24347826 12.4869565,8.66086955 C12.4869565,9.06086955 12.2086956,9.35652173 11.7913043,9.35652173 C11.373913,9.35652173 10.9565218,9.07826085 10.9565218,8.66086955 C10.9565218,8.24347826 11.373913,7.96521739 11.7913043,7.96521739 Z"></path>
                        </g>
                    </g>
                </g>
            </g>
        </g>
    </g>
</svg>