<?xml version="1.0" encoding="UTF-8"?>
<svg width="58px" height="58px" viewBox="0 0 58 58" version="1.1" xmlns="http://www.w3.org/2000/svg" xmlns:xlink="http://www.w3.org/1999/xlink">
    <title>加微率</title>
    <g id="页面-1" stroke="none" stroke-width="1" fill="none" fill-rule="evenodd">
        <g id="1-1-私域运营-看板" transform="translate(-1063.000000, -325.000000)">
            <g id="编组-16" transform="translate(251.000000, 89.000000)">
                <g id="编组-15备份-2" transform="translate(776.000000, 191.000000)">
                    <g id="加微率" transform="translate(36.000000, 45.000000)">
                        <circle id="椭圆形备份-2" fill="#E7F0FF" cx="29" cy="29" r="29"></circle>
                        <path d="M39.8673006,24.1787436 C44.0949547,25.6695241 47.125,29.6996156 47.125,34.437488 C47.125,36.2517995 46.6791252,38.0049392 45.839485,39.5709382 C45.76336,39.7127663 45.6274226,39.9502037 45.4275946,40.2914066 L46.0483755,42.566546 C46.3247817,43.5815454 45.3940634,44.5127168 44.3790639,44.2358576 L42.1002994,43.6141704 L41.8356746,43.7700453 C40.1484582,44.7820214 38.2174371,45.315257 36.2500055,45.3124927 C32.9367572,45.3124927 29.9696962,43.830764 27.9745878,41.4939997 C27.1790681,41.6231184 26.3744253,41.6878232 25.5684953,41.6874839 C22.8778404,41.6874839 20.2895917,40.9715469 18.0294054,39.6357351 C17.9514679,39.5895164 17.7570774,39.4771415 17.4503119,39.3004228 L14.0287668,40.220266 C13.012861,40.4935003 12.0848615,39.5587039 12.3657989,38.5450638 L13.2915328,35.1996438 C13.0599842,34.8165557 12.8347508,34.4296859 12.6159238,34.0391913 C11.4709199,31.9371479 10.8722999,29.5811529 10.8750092,27.1875 C10.8750092,19.174887 17.458015,12.6875 25.5684953,12.6875 C32.3617419,12.6875 38.2269889,17.2758412 39.8342224,23.7025095 C39.8745505,23.8624626 39.8840661,24.0233219 39.8673006,24.1782905 L39.8673006,24.1787436 Z M36.9740989,23.5860564 C35.4094591,18.7779497 30.8342583,15.4062485 25.5684953,15.4062485 C18.9506081,15.4062485 13.593767,20.6851518 13.593767,27.187492 C13.593767,29.1531471 14.0822355,31.0463023 15.0038913,32.7396295 C15.126235,32.9643794 15.4361723,33.4918166 15.9223752,34.3006443 C16.114283,34.6199992 16.166701,35.004125 16.0673751,35.3632218 L15.6205941,36.9772522 L17.287187,36.5291118 C17.634524,36.4357179 18.0047174,36.4837844 18.3166865,36.6627836 C18.9229674,37.0107834 19.2841079,37.2192208 19.4127953,37.2953458 C21.2772954,38.3955656 23.4035886,38.9735855 25.5684953,38.9687657 C25.8299483,38.9687657 26.090495,38.9605792 26.3496824,38.9442667 C25.7052035,37.5293375 25.372787,35.9922783 25.375011,34.437488 C25.375011,28.4313194 30.2438367,23.562494 36.2500055,23.562494 C36.4933335,23.562494 36.734849,23.5706502 36.9740989,23.5860564 Z M42.6540179,40.4531721 C42.5572366,40.0982891 42.608407,39.7193337 42.7958459,39.402829 C43.0173488,39.0338241 43.2332123,38.6614634 43.4433612,38.2858765 C44.077811,37.1025148 44.4086631,35.7801963 44.4062645,34.437488 C44.4062645,29.9329749 40.7545188,26.2812425 36.2500055,26.2812425 C31.7454922,26.2812425 28.0937597,29.9329749 28.0937597,34.437488 C28.0937597,38.9420011 31.7454922,42.5937472 36.2500055,42.5937472 C37.7248745,42.5964473 39.1725699,42.1969642 40.4373315,41.4382654 C40.5311283,41.3820779 40.7894094,41.2311873 41.2239561,40.9778906 C41.5388892,40.7946535 41.9141993,40.7455155 42.2656899,40.8415001 L42.7994709,40.9869531 L42.6540179,40.4531721 L42.6540179,40.4531721 Z M21.2968881,24.9218682 C20.2958725,24.9218682 19.484389,24.1103848 19.484389,23.1093692 C19.484389,22.1083537 20.2958725,21.2968702 21.2968881,21.2968702 C22.2979037,21.2968702 23.1093872,22.1083537 23.1093872,23.1093692 C23.1093872,24.1103848 22.2979037,24.9218682 21.2968881,24.9218682 L21.2968881,24.9218682 Z M39.25,35.25 C40.3545695,35.25 41.25,36.1454305 41.25,37.25 C41.25,38.3545695 40.3545695,39.25 39.25,39.25 C38.1454305,39.25 37.25,38.3545695 37.25,37.25 C37.25,36.1454305 38.1454305,35.25 39.25,35.25 Z M40.80875,29.94125 C41.1518569,30.2843569 41.1518569,30.8406431 40.80875,31.18375 L33.18375,38.80875 C33.018621,38.9725382 32.7950776,39.0638447 32.5625,39.0625702 C32.3299224,39.0638447 32.106379,38.9725382 31.94125,38.80875 C31.7756014,38.6444542 31.6824265,38.4208078 31.6824265,38.1875 C31.6824265,37.9541922 31.7756014,37.7305458 31.94125,37.56625 L39.56625,29.94125 C39.9093569,29.5981431 40.4656431,29.5981431 40.80875,29.94125 Z M39.25,36.5833333 C38.8818102,36.5833333 38.5833333,36.8818102 38.5833333,37.25 C38.5833333,37.6181898 38.8818102,37.9166667 39.25,37.9166667 C39.6181898,37.9166667 39.9166667,37.6181898 39.9166667,37.25 C39.9166667,36.8818102 39.6181898,36.5833333 39.25,36.5833333 Z M33.25,30.25 C34.3545695,30.25 35.25,31.1454305 35.25,32.25 C35.25,33.3545695 34.3545695,34.25 33.25,34.25 C32.1454305,34.25 31.25,33.3545695 31.25,32.25 C31.25,31.1454305 32.1454305,30.25 33.25,30.25 Z M33.25,31.5833333 C32.8818102,31.5833333 32.5833333,31.8818102 32.5833333,32.25 C32.5833333,32.6181898 32.8818102,32.9166667 33.25,32.9166667 C33.6181898,32.9166667 33.9166667,32.6181898 33.9166667,32.25 C33.9166667,31.8818102 33.6181898,31.5833333 33.25,31.5833333 Z M29.453134,21.2968702 C30.4541496,21.2968702 31.265633,22.1083537 31.265633,23.1093692 C31.265633,24.1103848 30.4541496,24.9218682 29.453134,24.9218682 C28.4521184,24.9218682 27.6406349,24.1103848 27.6406349,23.1093692 C27.6406349,22.1083537 28.4521184,21.2968702 29.453134,21.2968702 Z" id="形状" fill="#0C6FFF" fill-rule="nonzero"></path>
                    </g>
                </g>
            </g>
        </g>
    </g>
</svg>