<?xml version="1.0" encoding="UTF-8"?>
<svg width="14px" height="14px" viewBox="0 0 14 14" version="1.1" xmlns="http://www.w3.org/2000/svg" xmlns:xlink="http://www.w3.org/1999/xlink">
    <title>未审核</title>
    <g id="页面-1" stroke="none" stroke-width="1" fill="none" fill-rule="evenodd">
        <g id="5-3-工具箱-营销通客服" transform="translate(-844.000000, -332.000000)">
            <g id="编组-13" transform="translate(271.000000, 163.000000)">
                <g transform="translate(0.000000, 110.000000)" id="编组-6备份">
                    <g transform="translate(0.000000, 38.000000)">
                        <g id="编组-21" transform="translate(21.000000, 0.000000)">
                            <g id="标签/中标签/未初始化" transform="translate(542.000000, 16.000000)">
                                <g id="编组-57" transform="translate(10.000000, 2.000000)">
                                    <g id="未审核" transform="translate(0.000000, 3.000000)">
                                        <path d="M0,0 L14,0 L14,14 L0,14 L0,0 Z" id="close-circle-filled-(Background)"></path>
                                        <path d="M7.00000209,0.875 C3.61725798,0.875 0.875,3.61725423 0.875,6.99999833 C0.875,10.3827426 3.61725423,13.125 6.99999833,13.125 C10.3827426,13.125 13.125,10.382746 13.125,7.00000209 C13.125,3.61725798 10.382746,0.875 7.00000209,0.875 Z" id="close-circle-filled" fill="#717F99"></path>
                                        <path d="M6.3,2.6 C6.43333333,2.46666666 6.63333333,2.46666667 6.76666666,2.6 C6.9,2.73333333 6.9,2.93333333 6.76666666,3.06666666 L6.76666666,3.06666666 L6.33333334,3.5 L7,3.5 C8.93333334,3.5 10.5,5.06666666 10.5,7 C10.5,8.93333334 8.93333334,10.5 7,10.5 C5.06666666,10.5 3.5,8.93333334 3.5,7 C3.5,6.36666666 3.66666666,5.73333334 4,5.2 C4.06666667,5.06666666 4.3,5 4.43333334,5.1 C4.6,5.2 4.66666666,5.4 4.56666666,5.56666666 C4.3,6 4.16666666,6.5 4.16666666,7 C4.16666666,8.56666667 5.43333334,9.83333334 7,9.83333334 C8.56666666,9.83333334 9.83333334,8.56666667 9.83333334,7 C9.83333334,5.43333333 8.56666666,4.16666666 7,4.16666666 L7,4.16666666 L6.33333334,4.16666666 L6.76666666,4.6 C6.9,4.73333333 6.9,4.93333333 6.76666666,5.06666666 C6.7,5.13333333 6.60000001,5.16666666 6.53333334,5.16666666 C6.46666666,5.16666666 6.36666666,5.13333333 6.3,5.06666666 L6.3,5.06666666 L5.3,4.06666666 C5.16666666,3.93333334 5.16666666,3.73333334 5.3,3.6 L5.3,3.6 Z M5.76666666,5.76666666 C5.9,5.63333333 6.1,5.63333333 6.23333334,5.76666666 L6.23333334,5.76666666 L7,6.53333334 L7.76666666,5.76666666 C7.9,5.63333333 8.1,5.63333333 8.23333334,5.76666666 C8.36666667,5.9 8.36666667,6.1 8.23333334,6.23333334 L8.23333334,6.23333334 L7.46666666,7 L8.23333334,7.76666666 C8.36666667,7.9 8.36666667,8.1 8.23333334,8.23333334 C8.16666666,8.3 8.06666667,8.33333334 8,8.33333334 C7.93333333,8.33333334 7.83333333,8.3 7.76666666,8.23333334 L7.76666666,8.23333334 L7,7.46666666 L6.23333334,8.23333334 C6.16666666,8.3 6.06666667,8.33333334 6,8.33333334 C5.93333333,8.33333334 5.83333333,8.3 5.76666666,8.23333334 C5.63333333,8.1 5.63333333,7.9 5.76666666,7.76666666 L5.76666666,7.76666666 L6.53333334,7 L5.76666666,6.23333334 C5.63333333,6.1 5.63333333,5.9 5.76666666,5.76666666 Z" id="形状结合" fill="#FFFFFF" fill-rule="nonzero"></path>
                                    </g>
                                </g>
                            </g>
                        </g>
                    </g>
                </g>
            </g>
        </g>
    </g>
</svg>