<?xml version="1.0" encoding="UTF-8"?>
<svg width="20px" height="20px" viewBox="0 0 20 20" version="1.1" xmlns="http://www.w3.org/2000/svg" xmlns:xlink="http://www.w3.org/1999/xlink">
    <title>音频</title>
    <g id="页面-1" stroke="none" stroke-width="1" fill="none" fill-rule="evenodd">
        <g id="4-5-学员详情-学员动态" transform="translate(-762.000000, -616.000000)">
            <g id="编组-5" transform="translate(712.000000, 0.000000)">
                <g id="编组-72备份" transform="translate(20.000000, 546.000000)">
                    <g id="音频" transform="translate(30.000000, 70.000000)">
                        <rect id="矩形" x="0" y="0" width="20" height="20"></rect>
                        <path d="M15.5555804,4.16659226 L15.5555804,15.277753 L13.3332589,15.277753 L13.3332589,4.16659226 L15.5555804,4.16659226 L15.5555804,4.16659226 Z M6.66674107,4.16659226 L6.66674107,15.277753 L4.44441964,15.277753 L4.44441964,4.16659226 L6.66674107,4.16659226 Z M2.22232143,7.49985119 L2.22232143,11.9442708 L0,11.9442708 L0,7.49985119 L2.22232143,7.49985119 Z M20,7.49985119 L20,11.9442708 L17.7776786,11.9442708 L17.7776786,7.49985119 L20,7.49985119 Z M11.1111607,0.833333333 L11.1111607,18.6110119 L8.88883929,18.6110119 L8.88883929,0.833333333 L11.1111607,0.833333333 Z" id="形状" fill="#3C8BFF" fill-rule="nonzero"></path>
                    </g>
                </g>
            </g>
        </g>
    </g>
</svg>