<?xml version="1.0" encoding="UTF-8"?>
<svg width="20px" height="20px" viewBox="0 0 20 20" version="1.1" xmlns="http://www.w3.org/2000/svg" xmlns:xlink="http://www.w3.org/1999/xlink">
    <title>bofang_icon</title>
    <g id="自媒体运营1.1" stroke="none" stroke-width="1" fill="none" fill-rule="evenodd">
        <g id="在线剪辑-运营" transform="translate(-740.000000, -531.000000)">
            <g id="编组-21" transform="translate(444.000000, 68.000000)">
                <g id="编组-67" transform="translate(0.000000, 451.000000)">
                    <g id="编组-15" transform="translate(252.000000, 12.000000)">
                        <g id="编组-11" transform="translate(44.000000, 0.000000)">
                            <rect id="矩形" x="0" y="0" width="20" height="20"></rect>
                            <path d="M4,2.7992478 L4.01312816,2.58773281 C4.08254645,1.98690729 4.44082591,1.46213597 4.9667635,1.19094473 C5.49270109,0.919753488 6.11593563,0.938422928 6.62563194,1.24063733 L6.68689668,1.27813999 L17.2769455,8.5416548 C17.7375076,8.8911058 18.0065277,9.4470351 18,10.0355966 C17.9932316,10.6241582 17.7117269,11.1735109 17.2433958,11.5118653 L6.71169432,18.703375 C6.4330856,18.9013891 6.09904687,19.0123969 5.75042129,18.998896 C4.78768958,18.9628934 4,18.1888386 4,17.1987684 L4,2.7992478 Z" id="路径" fill="#D9D9D9" fill-rule="nonzero"></path>
                            <g id="编组" transform="translate(4.000000, 1.000000)"></g>
                        </g>
                    </g>
                </g>
            </g>
        </g>
    </g>
</svg>