<?xml version="1.0" encoding="UTF-8"?>
<svg width="24px" height="24px" viewBox="0 0 24 24" version="1.1" xmlns="http://www.w3.org/2000/svg" xmlns:xlink="http://www.w3.org/1999/xlink">
    <title>fenge_icon</title>
    <g id="自媒体运营2.0" stroke="none" stroke-width="1" fill="none" fill-rule="evenodd">
        <g id="在线剪辑-运营-2.0（无音轨）" transform="translate(-168.000000, -735.000000)">
            <g id="编组-70" transform="translate(-0.000000, 725.000000)">
                <g id="编组" transform="translate(168.000000, 10.000000)">
                    <rect id="矩形" x="0" y="0" width="24" height="24"></rect>
                    <g id="编组-86" transform="translate(4.500000, 3.000000)" stroke="#D9D9D9" stroke-linecap="round" stroke-width="1.5">
                        <path d="M0,0 L3.70526316,0 C4.75169742,-4.14271461e-16 5.6,0.848302579 5.6,1.89473684 L5.6,16.1052632 C5.6,17.1516974 4.75169742,18 3.70526316,18 L0,18 L0,18" id="路径"></path>
                        <path d="M15,18 L11.2947368,18 C10.2483026,18 9.4,17.1516974 9.4,16.1052632 L9.4,1.89473684 C9.4,0.848302579 10.2483026,-2.98177493e-17 11.2947368,0 L15,0 L15,0" id="路径"></path>
                    </g>
                </g>
            </g>
        </g>
    </g>
</svg>