<?xml version="1.0" encoding="UTF-8"?>
<svg width="20px" height="20px" viewBox="0 0 20 20" version="1.1" xmlns="http://www.w3.org/2000/svg" xmlns:xlink="http://www.w3.org/1999/xlink">
    <title>kuaijin_icon</title>
    <g id="自媒体运营1.1" stroke="none" stroke-width="1" fill="none" fill-rule="evenodd">
        <g id="在线剪辑-运营" transform="translate(-784.000000, -531.000000)">
            <g id="编组-21" transform="translate(444.000000, 68.000000)">
                <g id="编组-67" transform="translate(0.000000, 451.000000)">
                    <g id="编组-15" transform="translate(252.000000, 12.000000)">
                        <g id="编组-12备份" transform="translate(88.000000, 0.000000)">
                            <rect id="矩形" x="0" y="0" width="20" height="20"></rect>
                            <g id="编组" transform="translate(1.000000, 2.000000)" fill="#D9D9D9" fill-rule="nonzero">
                                <path d="M8.95471131,0.150509986 L9.14970502,0.256164389 L9.34169883,0.378187784 L9.52769283,0.51062781 L17.3289413,6.44364335 C17.7909264,6.85435624 18.0129193,7.37369972 17.9994197,8.00018568 C17.9844202,8.62667165 17.7594274,9.10732477 17.3244415,9.43916888 L9.01170947,15.7040285 L8.84671479,15.8022425 C8.27673316,16.1147414 7.52675734,16.2337886 7.49975821,14.7754603 L7.50575802,11.1891629 L1.51195126,15.7040285 L1.34695658,15.8022425 C0.776974951,16.1147414 0.0269991296,16.2337886 0,14.7754603 L0.0194993714,1.99425372 C0.0224992746,-0.077167811 0.73947616,-0.197703115 1.45495309,0.150509986 L1.64994681,0.256164389 L1.84194062,0.378187784 L2.02793462,0.51062781 L7.51775763,4.68620885 L7.51775763,1.99425372 C7.52225749,-0.077167811 8.23773442,-0.197703115 8.95471131,0.150509986 Z" id="路径"></path>
                            </g>
                        </g>
                    </g>
                </g>
            </g>
        </g>
    </g>
</svg>