<?xml version="1.0" encoding="UTF-8"?>
<svg width="16px" height="16px" viewBox="0 0 16 16" version="1.1" xmlns="http://www.w3.org/2000/svg" xmlns:xlink="http://www.w3.org/1999/xlink">
    <title>问号</title>
    <g id="我的数据" stroke="none" stroke-width="1" fill="none" fill-rule="evenodd">
        <g id="1-我的数据-数据概览-1920" transform="translate(-352.000000, -108.000000)" fill="#999999" fill-rule="nonzero">
            <g id="编组-16" transform="translate(252.000000, 83.000000)">
                <g id="编组-7" transform="translate(20.000000, 20.000000)">
                    <g id="问号" transform="translate(80.000000, 5.000000)">
                        <path d="M8,0 C12.4114194,0 16,3.58858064 16,8 C16,12.4114194 12.4114194,16 8,16 C3.58858064,16 0,12.4114194 0,8 C0,3.58858064 3.58858064,0 8,0 Z M8,1.14798702 C4.221706,1.14798702 1.14798702,4.22170598 1.14798702,8 C1.14798702,11.7777104 4.22170598,14.852013 8,14.852013 C11.7777104,14.852013 14.852013,11.7777411 14.852013,8 C14.852013,4.221706 11.7777104,1.14798702 8,1.14798702 Z M8,11.51 C8.47339259,11.51 8.85715054,11.8937579 8.85715054,12.3671505 C8.85715054,12.8405431 8.47339259,13.2243011 8,13.2243011 C7.52660741,13.2243011 7.14284946,12.8405431 7.14284946,12.3671505 C7.14284946,11.8937579 7.52660741,11.51 8,11.51 Z M8,2.87829209 C9.57545645,2.87829209 10.8571582,4.16570737 10.8571582,5.74856682 C10.8571582,6.60399716 10.2085818,7.25198995 9.58172289,7.87884886 C9.08458541,8.37484979 8.57144393,8.88799125 8.57144393,9.34912743 L8.57144393,10.3154184 C8.57144393,10.6308599 8.31544146,10.8874153 8,10.8874153 C7.68455854,10.8874153 7.42855607,10.6314128 7.42855607,10.3160021 L7.42855607,9.34971105 C7.42855607,8.41484439 8.14284179,7.70056252 8.77369018,7.07029393 C9.23596291,6.60743755 9.71427036,6.12971375 9.71427036,5.74856682 C9.71427036,4.79600668 8.94512643,4.02114923 8,4.02114923 C7.03886959,4.02114923 6.28572964,4.76286214 6.28572964,5.70970875 C6.28572964,6.02515021 6.02972718,6.28112196 5.71428571,6.28112196 C5.39884425,6.28112196 5.14284179,6.0251195 5.14284179,5.70970875 C5.14284179,4.14856682 6.42454355,2.87829209 8,2.87829209 Z" id="形状结合"></path>
                    </g>
                </g>
            </g>
        </g>
    </g>
</svg>