<?xml version="1.0" encoding="UTF-8"?>
<svg width="24px" height="24px" viewBox="0 0 24 24" version="1.1" xmlns="http://www.w3.org/2000/svg" xmlns:xlink="http://www.w3.org/1999/xlink">
    <title>biaoqian_icon</title>
    <g id="自媒体运营2.0" stroke="none" stroke-width="1" fill="none" fill-rule="evenodd">
        <g id="在线剪辑-全篇字幕" transform="translate(-120.000000, -776.000000)">
            <g id="编组-70" transform="translate(-0.000000, 766.000000)">
                <g id="编组-2" transform="translate(120.000000, 10.000000)">
                    <rect id="矩形" x="0" y="0" width="24" height="24"></rect>
                    <g id="编组" transform="translate(3.000000, 3.000000)">
                        <path d="M17.4649214,10.8618424 L10.8682515,17.4602081 C10.5231351,17.8058222 10.0547848,18 9.56639818,18 C9.07801153,18 8.60971236,17.8058222 8.2645449,17.4602081 L0.527753198,9.7300427 C0.189854089,9.39243299 -1.49581613e-15,8.93436223 0,8.45670533 L0,1.8 C-1.21743675e-16,0.80588745 0.80588745,1.82615513e-16 1.8,0 L8.45465662,0 C8.93212645,1.66863625e-15 9.39003361,0.189705825 9.72761238,0.52737137 L17.4649214,8.26666932 L17.4649214,8.26666932 C18.1783595,8.98453428 18.1783595,10.1439775 17.4649214,10.8618424 Z" id="路径" stroke="#D9D9D9" stroke-width="1.5" stroke-linejoin="round"></path>
                        <path d="M5.36688631,6.64642442 C6.0726063,6.64642442 6.64471639,6.07416728 6.64471639,5.36826588 C6.64471639,4.66236448 6.0726063,4.09010734 5.36688631,4.09010734 C4.66116632,4.09010734 4.08905624,4.66236448 4.08905624,5.36826588 C4.08905624,6.07416728 4.66116632,6.64642442 5.36688631,6.64642442 Z" id="路径" fill="#D9D9D9"></path>
                    </g>
                </g>
            </g>
        </g>
    </g>
</svg>