<?xml version="1.0" encoding="UTF-8"?>
<svg width="20px" height="20px" viewBox="0 0 20 20" version="1.1" xmlns="http://www.w3.org/2000/svg" xmlns:xlink="http://www.w3.org/1999/xlink">
    <title>houtui_icon</title>
    <g id="自媒体运营1.1" stroke="none" stroke-width="1" fill="none" fill-rule="evenodd">
        <g id="在线剪辑-运营" transform="translate(-696.000000, -531.000000)">
            <g id="编组-21" transform="translate(444.000000, 68.000000)">
                <g id="编组-67" transform="translate(0.000000, 451.000000)">
                    <g id="编组-12" transform="translate(252.000000, 12.000000)">
                        <rect id="矩形" x="0" y="0" width="20" height="20"></rect>
                        <g id="编组" transform="translate(1.000000, 2.000000)" fill="#D9D9D9" fill-rule="nonzero">
                            <path d="M9.04614799,0.150509986 L8.85117298,0.256164389 L8.6591976,0.378187784 L8.47322144,0.51062781 L0.672721553,6.44364335 C0.220369068,6.83293894 -0.026779051,7.40675822 0.00230750812,8.00018568 C0.0173055852,8.62667165 0.242276741,9.10732477 0.677220977,9.43916888 L8.98915529,15.7040285 L9.15413414,15.8022425 C9.72406107,16.1147414 10.4739649,16.2337886 10.5009615,14.7754603 L10.4949622,11.1891629 L16.4881938,15.7040285 L16.6531727,15.8022425 C17.2230996,16.1147414 17.9730035,16.2337886 18,14.7754603 L17.9805025,1.99425372 C17.9775029,-0.077167811 17.2605948,-0.197703115 16.5451865,0.150509986 L16.3502115,0.256164389 L16.1582361,0.378187784 L15.97226,0.51062781 L10.4829638,4.68620885 L10.4829638,1.99425372 C10.4784643,-0.077167811 9.76305607,-0.197703115 9.04614799,0.150509986 Z" id="路径"></path>
                        </g>
                    </g>
                </g>
            </g>
        </g>
    </g>
</svg>