<?xml version="1.0" encoding="UTF-8"?>
<svg width="36px" height="36px" viewBox="0 0 36 36" version="1.1" xmlns="http://www.w3.org/2000/svg" xmlns:xlink="http://www.w3.org/1999/xlink">
    <title>合并</title>
    <defs>
        <rect id="path-1" x="0" y="0" width="24" height="24" rx="4"></rect>
        <filter x="-37.5%" y="-37.5%" width="175.0%" height="175.0%" filterUnits="objectBoundingBox" id="filter-2">
            <feOffset dx="0" dy="0" in="SourceAlpha" result="shadowOffsetOuter1"></feOffset>
            <feGaussianBlur stdDeviation="3" in="shadowOffsetOuter1" result="shadowBlurOuter1"></feGaussianBlur>
            <feColorMatrix values="0 0 0 0 0   0 0 0 0 0   0 0 0 0 0  0 0 0 0.2 0" type="matrix" in="shadowBlurOuter1"></feColorMatrix>
        </filter>
    </defs>
    <g id="自媒体运营-1.1.2" stroke="none" stroke-width="1" fill="none" fill-rule="evenodd">
        <g id="在线剪辑-运营-1.1.2-全篇字幕" transform="translate(-949.000000, -880.000000)">
            <g id="编组-70" transform="translate(-0.000000, 606.000000)">
                <g id="编组-42" transform="translate(0.000000, 0.000000)">
                    <g id="编组-14" transform="translate(69.000000, 76.000000)">
                        <g id="编组-51" transform="translate(880.000000, 198.000000)">
                            <g id="编组-50" transform="translate(6.000000, 6.000000)">
                                <g id="矩形">
                                    <use fill="black" fill-opacity="1" filter="url(#filter-2)" xlink:href="#path-1"></use>
                                    <use fill="#FFFFFF" fill-rule="evenodd" xlink:href="#path-1"></use>
                                </g>
                                <g id="编组" transform="translate(2.000000, 3.500000)" fill="#1778FF" fill-rule="nonzero">
                                    <path d="M9.33333333,8.5 C9.33333333,8.60984615 9.292,8.70661538 9.20933333,8.78769231 L6.04266667,11.6476154 C5.96,11.73 5.86133333,11.7692308 5.74933333,11.7692308 C5.63733333,11.7692308 5.54,11.73 5.456,11.6476154 C5.37333333,11.5678462 5.33333333,11.4697692 5.33333333,11.3612308 L5.33333333,9.15384615 L3.33333333,9.15384615 C2.96533333,9.15384615 2.66666667,8.86092308 2.66666667,8.5 C2.66666667,8.13907692 2.96533333,7.84615385 3.33333333,7.84615385 L5.33333333,7.84615385 L5.33333333,5.63876923 C5.33333333,5.52892308 5.37333333,5.43346154 5.45733333,5.35107692 C5.54,5.27130769 5.63866667,5.23076923 5.74933333,5.23076923 C5.86,5.23076923 5.95866667,5.27130769 6.04266667,5.35238462 L9.20933333,8.21230769 C9.292,8.29469231 9.33333333,8.39015385 9.33333333,8.5 Z M10.6666667,8.5 C10.6666667,8.60984615 10.708,8.70661538 10.7906667,8.78769231 L13.9573333,11.6489231 C14.04,11.73 14.1386667,11.7692308 14.2506667,11.7692308 C14.3626667,11.7692308 14.46,11.73 14.544,11.6476154 C14.6266667,11.5678462 14.6666667,11.4697692 14.6666667,11.3612308 L14.6666667,9.15384615 L16.6666667,9.15384615 C17.0346667,9.15384615 17.3333333,8.86092308 17.3333333,8.5 C17.3333333,8.13907692 17.0346667,7.84615385 16.6666667,7.84615385 L14.6666667,7.84615385 L14.6666667,5.63876923 C14.6666667,5.52892308 14.6266667,5.43346154 14.5426667,5.35107692 C14.46,5.27130769 14.3613333,5.23076923 14.2506667,5.23076923 C14.14,5.23076923 14.0413333,5.27130769 13.9573333,5.35238462 L10.7906667,8.21230769 C10.708,8.29469231 10.6666667,8.39015385 10.6666667,8.5 Z M8,1.30769231 L8,3.92307692 L9.33333333,3.92307692 L9.33333333,1.30769231 C9.33333333,0.584538462 8.736,0 8,0 L8,0 L1.33333333,0 C0.597333333,0 0,0.584538462 0,1.30769231 L0,15.6923077 C0,16.4154615 0.597333333,17 1.33333333,17 L8,17 C8.736,17 9.33333333,16.4154615 9.33333333,15.6923077 L9.33333333,13.0769231 L8,13.0769231 L8,15.6923077 L1.33333333,15.6923077 L1.33333333,1.30769231 L8,1.30769231 M12,1.30769231 L18.6666667,1.30769231 L18.6666667,15.6923077 L12,15.6923077 L12,13.0769231 L10.6666667,13.0769231 L10.6666667,15.6923077 C10.6666667,16.4154615 11.2626667,17 12,17 L18.6666667,17 C19.404,17 20,16.4154615 20,15.6923077 L20,1.30769231 C20,0.584538462 19.404,0 18.6666667,0 L12,0 L12,0 C11.2626667,0 10.6666667,0.584538462 10.6666667,1.30769231 L10.6666667,3.92307692 L12,3.92307692 L12,1.30769231" id="形状"></path>
                                </g>
                            </g>
                        </g>
                    </g>
                </g>
            </g>
        </g>
    </g>
</svg>