<?xml version="1.0" encoding="UTF-8"?>
<svg width="26px" height="26px" viewBox="0 0 26 26" version="1.1" xmlns="http://www.w3.org/2000/svg" xmlns:xlink="http://www.w3.org/1999/xlink">
    <title>qiepian_icon</title>
    <g id="自媒体运营1.1" stroke="none" stroke-width="1" fill="none" fill-rule="evenodd">
        <g id="在线剪辑-运营" transform="translate(-239.000000, -612.000000)">
            <g id="编组-71" transform="translate(-1.000000, 563.000000)">
                <g id="编组-64" transform="translate(73.000000, 40.000000)">
                    <g id="编组-63" transform="translate(24.000000, 8.000000)">
                        <g id="编组-62" transform="translate(0.000000, 1.000000)">
                            <g id="编组-72" transform="translate(143.000000, 0.000000)">
                                <g id="编组-13" transform="translate(1.000000, 1.000000)">
                                    <rect id="矩形" x="0" y="0" width="24" height="24"></rect>
                                    <g id="编组" transform="translate(12.000000, 12.000000) rotate(-315.000000) translate(-12.000000, -12.000000) translate(2.000000, 6.000000)">
                                        <path d="M2,1 L2,2.5 L1,2.5 C0.447715,2.5 0,2.9477 0,3.5 L0,8.5 C0,9.0523 0.447715,9.5 1,9.5 L2,9.5 L2,11 C2,11.5523 2.447715,12 3,12 L16.5,12 C17.0523,12 17.5,11.5523 17.5,11 L17.5,9.5 L19,9.5 C19.5523,9.5 20,9.0523 20,8.5 L20,3.5 C20,2.9477 19.5523,2.5 19,2.5 L17.5,2.5 L17.5,1 C17.5,0.4477 17.0523,0 16.5,0 L3,0 C2.447715,0 2,0.4477 2,1 Z" id="路径" stroke="#DEDEDE" stroke-width="1.8" stroke-linecap="round"></path>
                                        <line x1="4" y1="6" x2="16" y2="6" id="路径" stroke="#DEDEDE" stroke-width="1.8" stroke-linecap="round"></line>
                                        <circle id="椭圆形" fill="#DEDEDE" fill-rule="nonzero" cx="10" cy="6" r="2"></circle>
                                        <line x1="14" y1="8.5" x2="14" y2="3.5" id="路径" stroke="#DEDEDE" stroke-width="1.8" stroke-linecap="round"></line>
                                        <line x1="6" y1="8.5" x2="6" y2="3.5" id="路径" stroke="#DEDEDE" stroke-width="1.8" stroke-linecap="round"></line>
                                    </g>
                                </g>
                            </g>
                        </g>
                    </g>
                </g>
            </g>
        </g>
    </g>
</svg>