<?xml version="1.0" encoding="UTF-8"?>
<svg width="24px" height="24px" viewBox="0 0 24 24" version="1.1" xmlns="http://www.w3.org/2000/svg" xmlns:xlink="http://www.w3.org/1999/xlink">
    <title>xifuzhou_icon_n</title>
    <g id="自媒体运营2.0" stroke="none" stroke-width="1" fill="none" fill-rule="evenodd">
        <g id="在线剪辑-全篇字幕-小段" transform="translate(-1024.000000, -776.000000)">
            <g id="编组-70" transform="translate(0.000000, 766.000000)">
                <g id="编组-2" transform="translate(1024.000000, 10.000000)">
                    <rect id="矩形" x="0" y="0" width="24" height="24"></rect>
                    <g id="编组-80">
                        <rect id="矩形" x="0" y="0" width="24" height="24"></rect>
                        <g id="编组" transform="translate(2.000000, 3.000000)">
                            <path d="M13.0294396,5 L19,5 C19.5522847,5 20,5.44771525 20,6 L20,12 C20,12.5522847 19.5522847,13 19,13 L13.0157745,13 M7.00929082,13 L1,13 C0.44771525,13 0,12.5522847 0,12 L0,6 C0,5.44771525 0.44771525,5 1,5 L7.00854,5" id="形状" stroke="#D9D9D9" stroke-width="1.5" stroke-linecap="round"></path>
                            <rect id="矩形" fill="#D9D9D9" x="9.2" y="0" width="1.5" height="18" rx="0.681818182"></rect>
                        </g>
                    </g>
                </g>
            </g>
        </g>
    </g>
</svg>