<?xml version="1.0" encoding="UTF-8"?>
<svg width="20px" height="20px" viewBox="0 0 20 20" version="1.1" xmlns="http://www.w3.org/2000/svg" xmlns:xlink="http://www.w3.org/1999/xlink">
    <title>zanting_icon</title>
    <g id="自媒体运营1.1" stroke="none" stroke-width="1" fill="none" fill-rule="evenodd">
        <g id="在线剪辑-运营-多种状态" transform="translate(-740.000000, -531.000000)">
            <g id="编组-21" transform="translate(444.000000, 68.000000)">
                <g id="编组-67" transform="translate(0.000000, 451.000000)">
                    <g id="编组-15" transform="translate(252.000000, 12.000000)">
                        <g id="编组-11" transform="translate(44.000000, 0.000000)">
                            <rect id="矩形" x="0" y="0" width="20" height="20"></rect>
                            <path d="M8.14285716,2.12500001 L8.14285716,17.875 C8.14213754,18.4960312 7.62288935,18.9993025 6.98214286,19 L4.6607143,19 C4.0199678,18.9993025 3.50071961,18.4960312 3.5,17.875 L3.5,2.12500001 C3.50071961,1.50396879 4.0199678,1.00069747 4.6607143,1 L6.98214286,1 C7.62288935,1.00069747 8.14213754,1.50396879 8.14285716,2.12500001 L8.14285716,2.12500001 Z M15.3392857,1 L13.0178572,1 C12.3771107,1.00069747 11.8578625,1.50396879 11.8571429,2.12500001 L11.8571429,17.875 C11.8578625,18.4960312 12.3771107,18.9993025 13.0178572,19 L15.3392857,19 C15.9800322,18.9993025 16.4992804,18.4960312 16.5,17.875 L16.5,2.12500001 C16.4992804,1.50396879 15.9800322,1.00069747 15.3392857,1 L15.3392857,1 Z" id="形状" fill="#D9D9D9" fill-rule="nonzero"></path>
                        </g>
                    </g>
                </g>
            </g>
        </g>
    </g>
</svg>