<?xml version="1.0" encoding="UTF-8"?>
<svg width="24px" height="24px" viewBox="0 0 24 24" version="1.1" xmlns="http://www.w3.org/2000/svg" xmlns:xlink="http://www.w3.org/1999/xlink">
    <title>zidongcixi_icon_s</title>
    <g id="自媒体运营2.0" stroke="none" stroke-width="1" fill="none" fill-rule="evenodd">
        <g id="在线剪辑-全篇字幕" transform="translate(-976.000000, -776.000000)">
            <g id="编组-70" transform="translate(-0.000000, 766.000000)">
                <g id="编组-86备份" transform="translate(976.000000, 10.000000)">
                    <rect id="矩形" fill-opacity="0.2" fill="#000000" x="0" y="0" width="24" height="24" rx="4"></rect>
                    <g id="编组-80" transform="translate(2.000000, 3.000000)">
                        <g id="编组-79" transform="translate(0.000000, 4.939556)" fill="#1778FF">
                            <path d="M19,0 C19.5522847,-1.01453063e-16 20,0.44771525 20,1 L20,7.12088808 C20,7.67317283 19.5522847,8.12088808 19,8.12088808 L1,8.12088808 C0.44771525,8.12088808 3.36118167e-16,7.67317283 0,7.12088808 L0,1 C-6.76353751e-17,0.44771525 0.44771525,1.01453063e-16 1,0 L19,0 Z M10,1.01511101 C9.72385763,1.01511101 9.5,1.23896863 9.5,1.51511101 L9.5,1.51511101 L9.5,6.60577707 C9.5,6.88191944 9.72385763,7.10577707 10,7.10577707 C10.2761424,7.10577707 10.5,6.88191944 10.5,6.60577707 L10.5,6.60577707 L10.5,1.51511101 C10.5,1.23896863 10.2761424,1.01511101 10,1.01511101 Z" id="形状结合"></path>
                        </g>
                        <path d="M10,0 L10,2.03022202 M5.5,1.1511101 L6.5,2.90933394 M14.5,1.1511101 L13.5,2.90933394" id="形状结合" stroke="#1778FF" stroke-linecap="round"></path>
                        <path d="M10,15.0906661 L10,17.1208881 M5.5,16.2417762 L6.5,18 M14.5,16.2417762 L13.5,18" id="形状结合备份" stroke="#1778FF" stroke-linecap="round" transform="translate(10.000000, 16.545333) scale(1, -1) translate(-10.000000, -16.545333) "></path>
                    </g>
                </g>
            </g>
        </g>
    </g>
</svg>