<?xml version="1.0" encoding="UTF-8"?>
<svg width="24px" height="24px" viewBox="0 0 24 24" version="1.1" xmlns="http://www.w3.org/2000/svg" xmlns:xlink="http://www.w3.org/1999/xlink">
    <title>zimu_icon_n</title>
    <g id="自媒体运营-1.1.2" stroke="none" stroke-width="1" fill="none" fill-rule="evenodd">
        <g id="在线剪辑-运营-1.1.2-全篇字幕" transform="translate(-960.000000, -570.000000)">
            <g id="编组-21" transform="translate(442.500000, 52.000000)">
                <g id="编组-67" transform="translate(0.500000, 321.000000)">
                    <g id="编组" transform="translate(517.000000, 197.000000)">
                        <rect id="矩形" x="0" y="0" width="24" height="24"></rect>
                        <g id="编组-20" transform="translate(0.000000, 2.400000)" stroke="#D9D9D9">
                            <rect id="矩形" stroke-width="2" x="1" y="1" width="22" height="17.2" rx="2"></rect>
                            <g id="cc" transform="translate(5.333333, 5.485714)" fill="#D9D9D9" fill-rule="nonzero" stroke-width="0.6">
                                <path d="M5.9878528,7.68852702 C5.38287484,8.04855662 4.65404311,8.22857143 3.80135763,8.22857143 C2.65809218,8.22857143 1.73871621,7.86380459 1.04322972,7.13427091 C0.347743242,6.40473723 0,5.45965951 0,4.29903775 C0,3.01051073 0.375133976,1.97187269 1.12540193,1.18312361 C1.87566988,0.394374537 2.87959986,0 4.13719185,0 C4.86125997,0 5.48052876,0.127905255 5.99499821,0.383715766 L5.99499821,1.76225019 C5.43765631,1.35484826 4.81838752,1.1511473 4.13719185,1.1511473 C3.33690604,1.1511473 2.68548291,1.42709104 2.18292247,1.97897853 C1.68036203,2.53086603 1.42908181,3.26632124 1.42908181,4.18534419 C1.42908181,5.09015544 1.66607122,5.79837158 2.14005002,6.3099926 C2.61402882,6.82161362 3.25354293,7.07742413 4.05859235,7.07742413 C4.73978802,7.07742413 5.38287484,6.85477424 5.9878528,6.40947446 L5.9878528,7.68852702 Z" id="c"></path>
                                <path d="M13.3261879,7.68852702 C12.72121,8.04855662 11.9923782,8.22857143 11.1396927,8.22857143 C9.9964273,8.22857143 9.07705133,7.86380459 8.38156484,7.13427091 C7.68607836,6.40473723 7.33833512,5.45965951 7.33833512,4.29903775 C7.33833512,3.01051073 7.7134691,1.97187269 8.46373705,1.18312361 C9.214005,0.394374537 10.217935,0 11.475527,0 C12.1995951,0 12.8188639,0.127905255 13.3333333,0.383715766 L13.3333333,1.76225019 C12.7759914,1.35484826 12.1567226,1.1511473 11.475527,1.1511473 C10.6752412,1.1511473 10.023818,1.42709104 9.52125759,1.97897853 C9.01869715,2.53086603 8.76741693,3.26632124 8.76741693,4.18534419 C8.76741693,5.09015544 9.00440634,5.79837158 9.47838514,6.3099926 C9.95236394,6.82161362 10.5918781,7.07742413 11.3969275,7.07742413 C12.0781231,7.07742413 12.72121,6.85477424 13.3261879,6.40947446 L13.3261879,7.68852702 Z" id="c"></path>
                            </g>
                        </g>
                    </g>
                </g>
            </g>
        </g>
    </g>
</svg>