<?xml version="1.0" encoding="UTF-8"?>
<svg width="24px" height="24px" viewBox="0 0 24 24" version="1.1" xmlns="http://www.w3.org/2000/svg" xmlns:xlink="http://www.w3.org/1999/xlink">
    <title>zimu_icon_s</title>
    <g id="自媒体运营2.0" stroke="none" stroke-width="1" fill="none" fill-rule="evenodd">
        <g id="在线剪辑-运营-2.0（无音轨）" transform="translate(-889.000000, -689.000000)">
            <g id="编组-21" transform="translate(442.500000, 52.000000)">
                <g id="编组-30" transform="translate(0.500000, 498.000000)">
                    <g id="编组" transform="translate(446.000000, 139.000000)">
                        <rect id="矩形" x="0" y="0" width="24" height="24"></rect>
                        <path d="M22,3.4 C22.2761424,3.4 22.5261424,3.51192881 22.7071068,3.69289322 C22.8579105,3.84369689 22.9607727,4.04244195 22.9908712,4.26430592 L23,4.4 L23,19.6 C23,19.8761424 22.8880712,20.1261424 22.7071068,20.3071068 C22.5563031,20.4579105 22.3575581,20.5607727 22.1356941,20.5908712 L22,20.6 L2,20.6 C1.72385763,20.6 1.47385763,20.4880712 1.29289322,20.3071068 C1.14208955,20.1563031 1.03922726,19.9575581 1.00912882,19.7356941 L1,19.6 L1,4.4 C1,4.12385763 1.11192881,3.87385763 1.29289322,3.69289322 C1.44369689,3.54208955 1.64244195,3.43922726 1.86430592,3.40912882 L2,3.4 L22,3.4 Z M16.8088603,6.88571429 C15.2405965,6.88571429 14.0032732,7.40112462 13.0725098,8.37962681 C12.779654,8.68750311 12.5308931,9.02576373 12.3279586,9.39516904 L12.3283315,7.70899712 L12.1407492,7.58146589 C11.4364395,7.13217105 10.5501977,6.88571429 9.47052519,6.88571429 C7.90226137,6.88571429 6.66493813,7.40112462 5.73417465,8.37962681 C4.81795444,9.34283981 4.33333333,10.6034532 4.33333333,12.184752 C4.33333333,13.6342826 4.78802016,14.8029191 5.65276834,15.7100006 C6.5307661,16.6309803 7.68440205,17.1142857 9.13469096,17.1142857 L9.13469096,17.1142857 L9.38335249,17.1099057 C10.3676993,17.0744372 11.2375716,16.8184421 12.3211861,16.1567434 L12.3211861,16.1567434 L12.3204297,14.8149755 C12.50568,15.1375833 12.7296491,15.4357468 12.9911035,15.7100006 C13.8691012,16.6309803 15.0227372,17.1142857 16.4730261,17.1142857 L16.4730261,17.1142857 L16.7216876,17.1099057 C17.7060344,17.0744372 18.5759067,16.8184421 19.6595213,16.1567434 L19.6595213,16.1567434 L19.659,11.713 L19.6666667,11.7195006 L19.6666667,7.70899712 L19.4790843,7.58146589 C18.7747746,7.13217105 17.8885328,6.88571429 16.8088603,6.88571429 Z M9.47052519,10.0368616 L9.59498959,10.0406345 C10.2181725,10.0789383 10.7829759,10.4126486 11.7389204,11.212642 C11.6938871,11.5222781 11.6716685,11.8461637 11.6716685,12.184752 C11.6716685,12.2910856 11.6741153,12.3959076 11.6789912,12.4992256 C10.9909501,13.434686 10.2407904,13.9631384 9.39192569,13.9631384 C8.90322476,13.9631384 8.49970853,13.8320981 8.20696127,13.5161015 C7.88459275,13.1681313 7.76241515,12.6747028 7.76241515,12.0710585 C7.76241515,11.4413308 7.90643279,10.921459 8.25563246,10.5379849 C8.5680546,10.194898 8.97716447,10.0368616 9.47052519,10.0368616 L9.47052519,10.0368616 Z M16.8088603,10.0368616 L16.9333247,10.0406345 C17.6335518,10.0836738 18.2600721,10.499677 19.4505907,11.5310553 L19.4505907,11.5310553 L19.573,11.638 L19.5294861,11.7152186 C18.7017567,13.1341857 17.7934251,13.9631384 16.7302608,13.9631384 C16.2415599,13.9631384 15.8380437,13.8320981 15.5452964,13.5161015 C15.2229279,13.1681313 15.1007503,12.6747028 15.1007503,12.0710585 C15.1007503,11.4413308 15.2447679,10.921459 15.5939676,10.5379849 C15.9063897,10.194898 16.3154996,10.0368616 16.8088603,10.0368616 L16.8088603,10.0368616 Z" id="形状结合" stroke="#1778FF" stroke-width="2" fill="#1778FF"></path>
                        <g id="cc" transform="translate(6.000000, 8.400000)"></g>
                    </g>
                </g>
            </g>
        </g>
    </g>
</svg>