<svg xmlns="http://www.w3.org/2000/svg" xmlns:xlink="http://www.w3.org/1999/xlink" fill="none" version="1.1" width="24" height="24" viewBox="0 0 24 24"><defs><radialGradient cx="0" cy="0" r="1" gradientUnits="userSpaceOnUse" id="master_svg0_105_34163" gradientTransform="translate(12 12) rotate(90) scale(12 12)"><stop offset="0%" stop-color="#0C6FFF" stop-opacity="1"/><stop offset="78.57142686843872%" stop-color="#28176D" stop-opacity="1"/></radialGradient></defs><g><g><path d="M24,12Q24,12.2946,23.9855,12.5888Q23.9711,12.883,23.9422,13.1762Q23.9133,13.4694,23.8701,13.7608Q23.8269,14.0522,23.7694,14.3411Q23.712,14.63,23.6404,14.9158Q23.5688,15.2015,23.4833,15.4834Q23.3978,15.7653,23.2985,16.0427Q23.1993,16.32,23.0866,16.5922Q22.9738,16.8644,22.8479,17.1307Q22.7219,17.397,22.5831,17.6568Q22.4442,17.9166,22.2927,18.1692Q22.1413,18.4219,21.9776,18.6668Q21.814,18.9118,21.6385,19.1484Q21.463,19.385,21.2761,19.6127Q21.0892,19.8404,20.8914,20.0587Q20.6936,20.277,20.4853,20.4853Q20.277,20.6936,20.0587,20.8914Q19.8404,21.0892,19.6127,21.2761Q19.385,21.463,19.1484,21.6385Q18.9118,21.814,18.6668,21.9776Q18.4219,22.1413,18.1692,22.2927Q17.9166,22.4442,17.6568,22.5831Q17.397,22.7219,17.1307,22.8479Q16.8644,22.9738,16.5922,23.0866Q16.32,23.1993,16.0427,23.2985Q15.7653,23.3978,15.4834,23.4833Q15.2015,23.5688,14.9158,23.6404Q14.63,23.712,14.3411,23.7694Q14.0522,23.8269,13.7608,23.8701Q13.4694,23.9133,13.1762,23.9422Q12.883,23.9711,12.5888,23.9855Q12.2946,24,12,24Q11.7054,24,11.4112,23.9855Q11.117,23.9711,10.8238,23.9422Q10.5306,23.9133,10.2392,23.8701Q9.94784,23.8269,9.65892,23.7694Q9.36999,23.712,9.08424,23.6404Q8.79848,23.5688,8.51658,23.4833Q8.23468,23.3978,7.95732,23.2985Q7.67996,23.1993,7.4078,23.0866Q7.13564,22.9738,6.86934,22.8479Q6.60304,22.7219,6.34324,22.5831Q6.08344,22.4442,5.83077,22.2927Q5.57809,22.1413,5.33316,21.9776Q5.08822,21.814,4.85161,21.6385Q4.615,21.463,4.38728,21.2761Q4.15956,21.0892,3.94129,20.8914Q3.72302,20.6936,3.51472,20.4853Q3.30642,20.277,3.10859,20.0587Q2.91076,19.8404,2.72387,19.6127Q2.53699,19.385,2.36151,19.1484Q2.18603,18.9118,2.02236,18.6668Q1.8587,18.4219,1.70726,18.1692Q1.55581,17.9166,1.41694,17.6568Q1.27808,17.397,1.15213,17.1307Q1.02618,16.8644,0.913446,16.5922Q0.800713,16.32,0.701471,16.0427Q0.602229,15.7653,0.516716,15.4834Q0.431203,15.2015,0.359625,14.9158Q0.288047,14.63,0.230577,14.3411Q0.173106,14.0522,0.129882,13.7608Q0.0866575,13.4694,0.0577833,13.1762Q0.028909,12.883,0.0144545,12.5888Q0,12.2946,0,12Q0,11.7054,0.0144545,11.4112Q0.028909,11.117,0.0577833,10.8238Q0.0866575,10.5306,0.129882,10.2392Q0.173106,9.94784,0.230577,9.65892Q0.288047,9.36999,0.359625,9.08424Q0.431203,8.79848,0.516716,8.51658Q0.602229,8.23468,0.701471,7.95732Q0.800713,7.67996,0.913446,7.4078Q1.02618,7.13564,1.15213,6.86934Q1.27808,6.60304,1.41694,6.34324Q1.55581,6.08344,1.70726,5.83077Q1.8587,5.57809,2.02236,5.33316Q2.18603,5.08822,2.36151,4.85161Q2.53699,4.615,2.72387,4.38728Q2.91076,4.15956,3.10859,3.94129Q3.30642,3.72302,3.51472,3.51472Q3.72302,3.30642,3.94129,3.10859Q4.15956,2.91076,4.38728,2.72387Q4.615,2.53699,4.85161,2.36151Q5.08822,2.18603,5.33316,2.02236Q5.57809,1.8587,5.83077,1.70726Q6.08344,1.55581,6.34324,1.41694Q6.60304,1.27808,6.86934,1.15213Q7.13564,1.02618,7.4078,0.913446Q7.67996,0.800713,7.95732,0.701471Q8.23468,0.602229,8.51658,0.516716Q8.79848,0.431203,9.08424,0.359625Q9.36999,0.288047,9.65892,0.230577Q9.94784,0.173106,10.2392,0.129882Q10.5306,0.0866575,10.8238,0.0577833Q11.117,0.028909,11.4112,0.0144545Q11.7054,0,12,0Q12.2946,0,12.5888,0.0144545Q12.883,0.028909,13.1762,0.0577833Q13.4694,0.0866575,13.7608,0.129882Q14.0522,0.173106,14.3411,0.230577Q14.63,0.288047,14.9158,0.359625Q15.2015,0.431203,15.4834,0.516716Q15.7653,0.602229,16.0427,0.701471Q16.32,0.800713,16.5922,0.913446Q16.8644,1.02618,17.1307,1.15213Q17.397,1.27808,17.6568,1.41694Q17.9166,1.55581,18.1692,1.70726Q18.4219,1.8587,18.6668,2.02236Q18.9118,2.18603,19.1484,2.36151Q19.385,2.53699,19.6127,2.72387Q19.8404,2.91076,20.0587,3.10859Q20.277,3.30642,20.4853,3.51472Q20.6936,3.72302,20.8914,3.94129Q21.0892,4.15956,21.2761,4.38728Q21.463,4.615,21.6385,4.85161Q21.814,5.08822,21.9776,5.33316Q22.1413,5.57809,22.2927,5.83077Q22.4442,6.08344,22.5831,6.34324Q22.7219,6.60304,22.8479,6.86934Q22.9738,7.13564,23.0866,7.4078Q23.1993,7.67996,23.2985,7.95732Q23.3978,8.23468,23.4833,8.51658Q23.5688,8.79848,23.6404,9.08424Q23.712,9.36999,23.7694,9.65892Q23.8269,9.94784,23.8701,10.2392Q23.9133,10.5306,23.9422,10.8238Q23.9711,11.117,23.9855,11.4112Q24,11.7054,24,12Z" fill="url(#master_svg0_105_34163)" fill-opacity="1"/></g><g><path d="M14.2627,17L12.47852,17L11.59668,14.5049L7.741210000000001,14.5049L6.89355,17L5.116211,17L8.78711,7.19727L10.61914,7.19727L14.2627,17ZM11.16602,13.1787L9.80566,9.26855Q9.74414,9.07715,9.67578,8.65332L9.64844,8.65332Q9.58691,9.04297,9.51172,9.26855L8.16504,13.1787L11.16602,13.1787ZM17.2773,17L15.6025,17L15.6025,7.19727L17.2773,7.19727L17.2773,17Z" fill="#FFFFFF" fill-opacity="1"/></g></g></svg>