<?xml version="1.0" encoding="UTF-8"?>
<svg width="24px" height="24px" viewBox="0 0 24 24" version="1.1" xmlns="http://www.w3.org/2000/svg" xmlns:xlink="http://www.w3.org/1999/xlink">
    <title>切片</title>
    <defs>
        <filter x="-50.0%" y="-50.0%" width="200.0%" height="200.0%" filterUnits="objectBoundingBox" id="filter-1">
            <feOffset dx="0" dy="2" in="SourceAlpha" result="shadowOffsetOuter1"></feOffset>
            <feGaussianBlur stdDeviation="2" in="shadowOffsetOuter1" result="shadowBlurOuter1"></feGaussianBlur>
            <feColorMatrix values="0 0 0 0 0.93   0 0 0 0 0.366483051   0 0 0 0 0.524110169  0 0 0 0.4 0" type="matrix" in="shadowBlurOuter1" result="shadowMatrixOuter1"></feColorMatrix>
            <feMerge>
                <feMergeNode in="shadowMatrixOuter1"></feMergeNode>
                <feMergeNode in="SourceGraphic"></feMergeNode>
            </feMerge>
        </filter>
    </defs>
    <g id="一键发布" stroke="none" stroke-width="1" fill="none" fill-rule="evenodd">
        <g id="2-选择账号分组" transform="translate(-623.000000, -376.000000)">
            <g id="弹窗" transform="translate(375.000000, 267.000000)">
                <g id="编组" transform="translate(220.000000, 81.000000)">
                    <g id="哔哩哔哩" filter="url(#filter-1)" transform="translate(28.000000, 28.000000)">
                        <circle id="椭圆形" stroke="#FFFFFF" fill="#EC5D85" cx="12" cy="12" r="11.5"></circle>
                        <g id="编组-13" transform="translate(3.000000, 3.600000)" fill-rule="nonzero">
                            <g id="编组-17">
                                <path d="M8.4,2.43178065 L9.48455696,2.43178065 L10.8357873,0.517047295 C11.8665418,-0.483271619 12.6973975,0.525597029 12.1619241,1.42576191 L11.4493063,2.44969438 C16.8,2.54964484 16.8,3.30466781 16.8,8.91125786 C16.8,15.3909386 16.8,15.6 8.4,15.6 C0,15.6 0,15.3909386 0,8.91125786 C0,3.39077585 0,2.57366553 5.25712405,2.4513229 L4.43817722,1.29100181 C3.78893165,0.199485735 5.21352911,-0.506274475 5.78153924,0.448649421 L7.03622278,2.43279847 C7.4139038,2.43178065 7.89153418,2.43178065 8.4,2.43178065 Z" id="路径" fill="#EF85A7"></path>
                                <path d="M8.925,3.12 C15.75,3.12 15.75,3.12 15.75,8.23757439 C15.75,13.3551488 15.75,13.52 8.925,13.52 C2.1,13.52 2.1,13.3551488 2.1,8.23757439 C2.1,3.12 2.1,3.12 8.925,3.12 Z" id="路径" fill="#EC5D85"></path>
                                <path d="M3.75586639,7.95799947 C3.52645863,7.95799947 3.31673812,7.81047464 3.21411638,7.57693705 C3.06447147,7.23637529 3.18569847,6.82221424 3.48489043,6.65186213 L5.90792439,5.27286847 C6.05163098,5.19108859 6.21799409,5.17764113 6.37041184,5.23548468 C6.52282959,5.29332823 6.64881522,5.41772399 6.72065036,5.58130338 C6.7924982,5.74487556 6.80431249,5.93423625 6.75349395,6.10772379 C6.70267541,6.28121134 6.59338733,6.42461287 6.4496744,6.5063783 L4.02664044,7.88537197 C3.94258505,7.93325872 3.84986247,7.95812877 3.75586639,7.95799947 L3.75586639,7.95799947 Z M13.0441632,7.95799896 C12.9566372,7.95794383 12.870169,7.93622055 12.7907543,7.89433542 L10.1658008,6.51534176 C9.8619847,6.35596481 9.72918788,5.94643861 9.86918108,5.6006093 C9.93649486,5.43456544 10.0590023,5.30575982 10.2097524,5.24252907 C10.3605025,5.17929833 10.5271462,5.18682215 10.6730226,5.26344535 L13.2979761,6.64243901 C13.5562947,6.77810964 13.6968623,7.10011003 13.6358414,7.41639277 C13.5748205,7.73267552 13.3286552,7.95799896 13.0441632,7.95799896 Z M7.16830589,10.3999669 C7.07279444,10.399696 6.98299087,10.3481613 6.92600249,10.2609184 C6.82577468,10.1086386 6.85288627,9.8927255 6.98657834,9.77850043 L8.33741978,8.63577435 L9.33025794,9.81688242 C9.44590113,9.95447765 9.44165222,10.1727273 9.32076773,10.3043567 C9.19988323,10.4359861 9.00813966,10.4311498 8.89249647,10.2935546 L8.26957482,9.55234547 L7.34841808,10.3317067 C7.29640535,10.3759437 7.23323484,10.3998845 7.16830589,10.3999669 L7.16830589,10.3999669 Z" id="形状" fill="#EF85A7"></path>
                            </g>
                            <g id="编组-15" transform="translate(0.000000, 3.600000)">
                                <path d="M0,0.640478739 C0.298111419,2.85830908 0.651458742,3.84354099 0.883368307,8.37346838 C1.17355987,8.42093601 4.40750017,8.59208691 4.93000745,6.74931771 C4.96580656,6.67705697 4.97737638,6.59330592 4.96270223,6.51264811 C4.35571651,4.76436846 1.60691803,5.19781702 1.60691803,5.19781702 C1.60691803,5.19781702 1.40140797,2.00946304 1.37886685,0 L0,0.640478739 Z M5.88424829,0.939101394 L6.57469708,7.5371021 L7.26169363,7.5371021 L6.73674948,0.897650786 L5.88424829,0.939101394 Z M4.83862452,4.27431531 L5.74067556,4.27431531 L6.05990659,7.72630406 L5.42875516,7.76664041 L4.83862452,4.27431531 Z M7.56224193,4.420061 L8.47058824,4.420061 L8.47058824,7.95316814 L7.79882218,7.95316814 L7.56224193,4.420061 Z M4.58234617,2.56993765 L5.00656603,2.56993765 L5.11114872,3.85379222 L4.73607256,3.90304267 L4.58234617,2.56993765 Z M5.18506735,2.56993765 L5.60928721,2.56993765 L5.65964936,3.78448502 L5.31442496,3.81969575 L5.18506735,2.56993765 Z M8.03337169,2.61161111 L8.41921072,2.61161111 L8.41921072,3.9670014 L8.03337169,3.9670014 L8.03337169,2.61161111 Z M7.43085358,2.61161111 L7.87111623,2.61161111 L7.87111623,3.9670014 L7.54132539,3.9670014 L7.43085358,2.61161111 Z" id="形状" fill="#FFFFFF"></path>
                                <path d="M2.73352027,7.08007048 C2.59279085,7.17732218 2.44532631,7.26451655 2.29223373,7.34099899 C2.28043666,7.35054198 2.26426459,7.35268029 2.25037899,7.34653311 C2.2364934,7.34038594 2.22724317,7.32699314 2.22643857,7.31187138 C2.19240313,7.16666411 2.16685812,7.01960928 2.14993259,6.87144967 C2.12881693,6.68997397 2.1207073,6.48897819 2.11764706,6.32992007 C2.11764706,6.32534505 2.11764706,6.29255743 2.16263258,6.30155496 C2.33631493,6.33673176 2.50721634,6.38438549 2.67399861,6.44414301 C2.84023775,6.5082051 3.00180087,6.58372292 3.15751646,6.67014889 C3.16532007,6.67396141 3.19515741,6.69226148 3.15889357,6.72642161 C3.02523141,6.85369095 2.88311856,6.9718414 2.73352027,7.08007048 Z" id="路径" fill="#EB5480"></path>
                                <path d="M9.52941176,0.640478739 C9.82752318,2.85830908 10.1808705,3.84354099 10.4127801,8.37346838 C10.7029716,8.42093601 13.9369119,8.59208691 14.4594192,6.74931771 C14.4952183,6.67705697 14.5067881,6.59330592 14.492114,6.51264811 C13.8851283,4.76436846 11.1363298,5.19781702 11.1363298,5.19781702 C11.1363298,5.19781702 10.9308197,2.00946304 10.9082786,0 L9.52941176,0.640478739 Z M15.4136601,0.939101394 L16.1041088,7.5371021 L16.7911054,7.5371021 L16.2661612,0.897650786 L15.4136601,0.939101394 Z M14.3680363,4.27431531 L15.2700873,4.27431531 L15.5893184,7.72630406 L14.9581669,7.76664041 L14.3680363,4.27431531 Z M17.0916537,4.420061 L18,4.420061 L18,7.95316814 L17.3282339,7.95316814 L17.0916537,4.420061 Z M14.1117579,2.56993765 L14.5359778,2.56993765 L14.6405605,3.85379222 L14.2654843,3.90304267 L14.1117579,2.56993765 Z M14.7144791,2.56993765 L15.138699,2.56993765 L15.1890611,3.78448502 L14.8438367,3.81969575 L14.7144791,2.56993765 Z M17.5627835,2.61161111 L17.9486225,2.61161111 L17.9486225,3.9670014 L17.5627835,3.9670014 L17.5627835,2.61161111 Z M16.9602653,2.61161111 L17.400528,2.61161111 L17.400528,3.9670014 L17.0707372,3.9670014 L16.9602653,2.61161111 Z" id="形状" fill="#FFFFFF"></path>
                                <path d="M12.6883053,6.72642161 C12.5546432,6.85369095 12.4125303,6.9718414 12.262932,7.08007048 C12.1222026,7.17732218 11.9747381,7.26451655 11.8216455,7.34099899 C11.8098484,7.35054198 11.7936764,7.35268029 11.7797908,7.34653311 C11.7659052,7.34038594 11.7566549,7.32699314 11.7558503,7.31187138 C11.7218149,7.16666411 11.6962699,7.01960928 11.6793444,6.87144967 C11.6582287,6.68997397 11.6501191,6.48897819 11.6470588,6.32992007 C11.6470588,6.32534505 11.6470588,6.29255743 11.6920443,6.30155496 C11.8657267,6.33673176 12.0366281,6.38438549 12.2034104,6.44414301 C12.3696495,6.5082051 12.5312126,6.58372292 12.6869282,6.67014889 C12.6947318,6.67396141 12.7245692,6.69226148 12.6883053,6.72642161 L12.6883053,6.72642161 Z" id="路径" fill="#EB5480"></path>
                            </g>
                        </g>
                    </g>
                </g>
            </g>
        </g>
    </g>
</svg>