<?xml version="1.0" encoding="UTF-8"?>
<svg width="16px" height="16px" viewBox="0 0 16 16" version="1.1" xmlns="http://www.w3.org/2000/svg" xmlns:xlink="http://www.w3.org/1999/xlink">
    <title>X</title>
    <g id="一键发布" stroke="none" stroke-width="1" fill="none" fill-rule="evenodd">
        <g id="平台图标" transform="translate(-168.000000, -608.000000)">
            <g id="编组-45" transform="translate(40.000000, 608.000000)">
                <g id="X" transform="translate(128.000000, 0.000000)">
                    <circle id="椭圆形" fill="#333333" opacity="0.800000012" cx="8" cy="8" r="8"></circle>
                    <path d="M11.5355339,4.46966991 C11.8284271,4.76256313 11.8284271,5.23743687 11.5355339,5.53033009 L9.06066017,8.00520382 L11.5355339,10.4800776 C11.8284271,10.7729708 11.8284271,11.2478445 11.5355339,11.5407377 C11.2426407,11.8336309 10.767767,11.8336309 10.4748737,11.5407377 L8,9.06586399 L5.52512627,11.5407377 C5.23223305,11.8336309 4.75735931,11.8336309 4.46446609,11.5407377 C4.17157288,11.2478445 4.17157288,10.7729708 4.46446609,10.4800776 L6.93933983,8.00520382 L4.46446609,5.53033009 C4.17157288,5.23743687 4.17157288,4.76256313 4.46446609,4.46966991 C4.75735931,4.1767767 5.23223305,4.1767767 5.52512627,4.46966991 L8,6.94454365 L10.4748737,4.46966991 C10.767767,4.1767767 11.2426407,4.1767767 11.5355339,4.46966991 Z" id="路径" fill="#FFFFFF"></path>
                </g>
            </g>
        </g>
    </g>
</svg>