<?xml version="1.0" encoding="UTF-8"?>
<svg width="12px" height="13px" viewBox="0 0 12 13" version="1.1" xmlns="http://www.w3.org/2000/svg" xmlns:xlink="http://www.w3.org/1999/xlink">
    <title>复制</title>
    <g id="一键发布" stroke="none" stroke-width="1" fill="none" fill-rule="evenodd">
        <g id="9-成品视频-视频号-商品" transform="translate(-754.000000, -476.000000)">
            <g id="编组-59" transform="translate(530.000000, 230.000000)">
                <g id="编组-5" transform="translate(23.000000, 193.000000)">
                    <g id="复制" transform="translate(201.000000, 53.680000)">
                        <rect id="矩形" x="0" y="0" width="12" height="12"></rect>
                        <path d="M8.35714286,1.71428571 C8.94814286,1.71428571 9.42857143,2.19514286 9.42857143,2.78571429 L9.42857143,2.78571429 L9.42857143,10.9285714 C9.42857143,11.5195714 8.94814286,12 8.35714286,12 L8.35714286,12 L1.07142857,12 C0.480857143,12 0,11.5195714 0,10.9285714 L0,10.9285714 L0,2.78571429 C0.0007084535,2.19427432 0.47998861,1.71499417 1.07142857,1.71428571 L1.07142857,1.71428571 Z M8.35714286,2.57142857 L1.07142857,2.57142857 C0.953081839,2.57142857 0.857142857,2.66736755 0.857142857,2.78571429 L0.857142857,2.78571429 L0.857142857,10.9285714 C0.857142857,11.0469182 0.953081839,11.1428571 1.07142857,11.1428571 L1.07142857,11.1428571 L8.35714286,11.1428571 C8.475,11.1428571 8.57142857,11.0464286 8.57142857,10.9285714 L8.57142857,10.9285714 L8.57142857,2.78571429 C8.57142857,2.66736755 8.47548959,2.57142857 8.35714286,2.57142857 L8.35714286,2.57142857 Z M10.0714286,0 C10.6624286,0 11.1428571,0.480857143 11.1428571,1.07142857 L11.1428571,1.07142857 L11.1428571,9.21428571 C11.1428571,9.45097918 10.9509792,9.64285714 10.7142857,9.64285714 C10.4775923,9.64285714 10.2857143,9.45097918 10.2857143,9.21428571 L10.2857143,9.21428571 L10.2857143,1.07142857 C10.2857143,0.953081839 10.1897753,0.857142857 10.0714286,0.857142857 L10.0714286,0.857142857 L2.78571429,0.857142857 C2.54902082,0.857142857 2.35714286,0.665264893 2.35714286,0.428571429 C2.35714286,0.191877964 2.54902082,0 2.78571429,0 L2.78571429,0 Z M5.14285714,8.232 C5.37955061,8.232 5.57142857,8.42387796 5.57142857,8.66057143 C5.57142857,8.89726489 5.37955061,9.08914286 5.14285714,9.08914286 L5.14285714,9.08914286 L2.57142857,9.08914286 C2.33473511,9.08914286 2.14285714,8.89726489 2.14285714,8.66057143 C2.14285714,8.42387796 2.33473511,8.232 2.57142857,8.232 L2.57142857,8.232 Z M6.85714286,6.10714286 C7.09383632,6.10714286 7.28571429,6.29902082 7.28571429,6.53571429 C7.28571429,6.77240775 7.09383632,6.96428571 6.85714286,6.96428571 L6.85714286,6.96428571 L2.57142857,6.96428571 C2.33473511,6.96428571 2.14285714,6.77240775 2.14285714,6.53571429 C2.14285714,6.29902082 2.33473511,6.10714286 2.57142857,6.10714286 L2.57142857,6.10714286 Z M6.85714286,3.96428571 C7.09383632,3.96428571 7.28571429,4.15616368 7.28571429,4.39285714 C7.28571429,4.62955061 7.09383632,4.82142857 6.85714286,4.82142857 L6.85714286,4.82142857 L2.57142857,4.82142857 C2.33473511,4.82142857 2.14285714,4.62955061 2.14285714,4.39285714 C2.14285714,4.15616368 2.33473511,3.96428571 2.57142857,3.96428571 L2.57142857,3.96428571 Z" id="形状结合" fill="#0C6FFF" fill-rule="nonzero"></path>
                    </g>
                </g>
            </g>
        </g>
    </g>
</svg>