<?xml version="1.0" encoding="UTF-8"?>
<svg width="24px" height="24px" viewBox="0 0 24 24" version="1.1" xmlns="http://www.w3.org/2000/svg" xmlns:xlink="http://www.w3.org/1999/xlink">
    <title>icon_zhuyi</title>
    <g id="页面-1" stroke="none" stroke-width="1" fill="none" fill-rule="evenodd">
        <g id="停更" transform="translate(-456.000000, -279.000000)">
            <g id="编组-60" transform="translate(436.000000, 259.000000)">
                <g id="编组-5" transform="translate(20.000000, 20.000000)">
                    <g id="编组" transform="translate(0.857143, 0.857143)">
                        <path d="M11.1428571,22.2857143 C14.2198457,22.2857143 17.00556,21.0384943 19.0220271,19.0220271 C21.0384943,17.00556 22.2857143,14.2198457 22.2857143,11.1428571 C22.2857143,8.06586857 21.0384943,5.28015429 19.0220271,3.26366486 C17.00556,1.24720886 14.2198457,0 11.1428571,0 C8.06586857,0 5.28015429,1.24720886 3.26366486,3.26366486 C1.24720886,5.28015429 0,8.06586857 0,11.1428571 C0,14.2198457 1.24720886,17.00556 3.26366486,19.0220271 C5.28015429,21.0384943 8.06586857,22.2857143 11.1428571,22.2857143 Z" id="路径" stroke="#F53F3F" stroke-width="1.5" stroke-linejoin="round"></path>
                        <path d="M11.1428571,18.3857143 C11.9121043,18.3857143 12.5357143,17.7621043 12.5357143,16.9928571 C12.5357143,16.22361 11.9121043,15.6 11.1428571,15.6 C10.37361,15.6 9.75,16.22361 9.75,16.9928571 C9.75,17.7621043 10.37361,18.3857143 11.1428571,18.3857143 Z" id="路径" fill="#F53F3F"></path>
                        <line x1="11.1428571" y1="4.45714286" x2="11.1428571" y2="13.3714286" id="路径" stroke="#F53F3F" stroke-width="2.6" stroke-linecap="round" stroke-linejoin="round"></line>
                    </g>
                </g>
            </g>
        </g>
    </g>
</svg>