<?xml version="1.0" encoding="UTF-8"?>
<svg width="24px" height="24px" viewBox="0 0 24 24" version="1.1" xmlns="http://www.w3.org/2000/svg" xmlns:xlink="http://www.w3.org/1999/xlink">
    <title>切片</title>
    <defs>
        <filter x="-50.0%" y="-50.0%" width="200.0%" height="200.0%" filterUnits="objectBoundingBox" id="filter-1">
            <feOffset dx="0" dy="2" in="SourceAlpha" result="shadowOffsetOuter1"></feOffset>
            <feGaussianBlur stdDeviation="2" in="shadowOffsetOuter1" result="shadowBlurOuter1"></feGaussianBlur>
            <feColorMatrix values="0 0 0 0 1   0 0 0 0 0.28627451   0 0 0 0 0.0196078431  0 0 0 0.4 0" type="matrix" in="shadowBlurOuter1" result="shadowMatrixOuter1"></feColorMatrix>
            <feMerge>
                <feMergeNode in="shadowMatrixOuter1"></feMergeNode>
                <feMergeNode in="SourceGraphic"></feMergeNode>
            </feMerge>
        </filter>
    </defs>
    <g id="一键发布" stroke="none" stroke-width="1" fill="none" fill-rule="evenodd">
        <g id="2-选择账号分组" transform="translate(-623.000000, -444.000000)">
            <g id="弹窗" transform="translate(375.000000, 267.000000)">
                <g id="编组备份-2" transform="translate(220.000000, 149.000000)">
                    <g id="快手" filter="url(#filter-1)" transform="translate(28.000000, 28.000000)">
                        <circle id="椭圆形" stroke="#FFFFFF" fill="#FF4905" cx="12" cy="12" r="11.5"></circle>
                        <g id="编组" transform="translate(6.000000, 4.800000)" fill="#FFFFFF" fill-rule="nonzero">
                            <path d="M5.08544933,7.90358207 C5.14903953,7.89998177 9.63214838,7.5273496 9.93066902,7.57505372 C10.2283065,7.62365792 11.4223891,7.5876548 11.4815633,8.06109565 C11.5407375,8.52913604 11.4815633,8.98547543 11.4815633,8.98547543 C11.4815633,8.98547543 8.83197174,9.45891629 8.77279753,9.52102165 C8.71362332,9.58132685 8.49812321,9.8009458 8.51048797,10.1285741 C8.52285273,10.4580025 8.52285273,11.7343126 8.53345109,11.7712158 C8.54669905,11.8072189 8.60587326,12.05114 9.05983661,12.0016357 C9.35058058,11.9634496 9.63581108,11.8900236 9.90947229,11.7829169 C9.94449231,11.7699102 9.96633784,11.7342893 9.96246412,11.6965094 L9.9377346,11.367981 C9.93591183,11.3436286 9.92395793,11.3212329 9.90488759,11.3064417 C9.88581725,11.2916506 9.86145081,11.2858761 9.83793332,11.2905744 L9.15522191,11.4291863 L9.15522191,10.1168731 L11.368514,9.70913788 C11.4153235,9.7001371 11.4594833,9.73614021 11.4612497,9.78474441 L11.5336719,12.0097364 C11.5336719,12.0097364 11.6599691,12.5623841 10.7299625,12.757701 C9.79907265,12.9539179 7.56811658,13.5245672 7.35261647,13.5353681 C7.0360524,13.5559724 6.71825784,13.5271369 6.41024509,13.4498607 C6.1565422,13.3774268 5.90682849,13.2911958 5.66217708,13.1915384 C5.63553349,13.1805852 5.61537587,13.1576656 5.60759742,13.1294803 C5.59981898,13.101295 5.60529821,13.0710273 5.62243321,13.047526 L6.4358578,11.9197286 C6.46597571,11.8786976 6.48210384,11.8287563 6.48178406,11.7775164 L6.48178406,10.5354092 C6.48177282,10.4710336 6.45741609,10.4091392 6.41377788,10.3625943 L4.67122985,8.4949331 C4.62454309,8.44464205 4.60306003,8.37531213 4.61293883,8.30681686 C4.63413556,8.15920412 4.72687127,7.92608401 5.08544933,7.90448215 L5.08544933,7.90358207 Z" id="路径"></path>
                            <path d="M3.9054979,8.66774801 C3.87517946,8.63591286 3.83547996,8.61505156 3.79244866,8.60834288 L0.660631477,8.14030249 C0.617144208,8.13134732 0.571989576,8.13670554 0.531684692,8.15560382 C0.394789131,8.22040942 0.0962684801,8.41122588 0,8.88466673 L0,12.6343903 C0,12.6343903 0.0441598653,13.3832549 1.05542062,13.7288848 C2.06756459,14.0745146 3.30227423,14.3859415 3.30227423,14.3859415 C3.30227423,14.3859415 3.99116803,14.5218532 4.26937513,13.9485037 C4.54669904,13.372454 5.87149481,11.7316124 5.87149481,11.7316124 L5.87149481,10.7379267 L3.9054979,8.66774801 L3.9054979,8.66774801 Z M3.08854051,13.1366337 C2.76529035,13.1276329 1.45285934,12.9440171 1.03952307,12.561484 C0.664164274,12.2158542 0.851402073,9.48771878 0.851402073,9.48771878 C0.851402073,9.48771878 0.858467654,9.17089143 1.03952307,9.20509438 L3.1238684,9.5876274 C3.1238684,9.5876274 3.38352838,9.74154067 3.38352837,9.96115962 L3.38352837,12.9080139 C3.38352837,12.908914 3.41090748,13.1465345 3.08854051,13.1366337 L3.08854051,13.1366337 Z M12,4.41578108 C12,2.96035548 10.8977699,1.77855349 9.53676309,1.77855349 C8.76131597,1.77855349 8.06888939,2.16288666 7.61757562,2.76323847 C7.25546478,1.17550144 5.96334732,0 4.42305145,0 C2.60366527,0 1.12872598,1.63994153 1.12872598,3.66241606 C1.12872598,5.68489059 2.60366526,7.32393204 4.42305145,7.32393204 C4.51843674,7.32393204 4.61293883,7.31853157 4.70744093,7.30863073 L9.62949878,7.05030843 L9.69485538,7.0476082 L9.76374476,7.04310781 L9.76197836,7.04130765 C11.0161184,6.91889709 12,5.79019968 12,4.41578108 L12,4.41578108 Z M5.05188783,5.71999362 C4.13159638,5.71999362 3.38529477,4.84511812 3.38529477,3.76502492 C3.38529477,2.68493171 4.13159638,1.81005621 5.05188783,1.81005621 C5.97217928,1.81005621 6.7193641,2.68493171 6.7193641,3.76502492 C6.7193641,4.84511814 5.97217928,5.71999362 5.05188783,5.71999362 Z M9.92713624,5.62998586 C9.32037978,5.62998586 8.82755575,5.05393614 8.82755575,4.34017454 C8.82755575,3.62731302 9.32037977,3.05036325 9.92801943,3.05036325 C10.5347759,3.05036325 11.0275999,3.62641296 11.0275999,4.34017454 C11.0275999,5.05303607 10.5347759,5.62998586 9.92801943,5.62998586 L9.92713624,5.62998586 Z" id="形状"></path>
                        </g>
                    </g>
                </g>
            </g>
        </g>
    </g>
</svg>