<?xml version="1.0" encoding="UTF-8"?>
<svg width="14px" height="14px" viewBox="0 0 14 14" version="1.1" xmlns="http://www.w3.org/2000/svg" xmlns:xlink="http://www.w3.org/1999/xlink">
    <title>未审核</title>
    <g id="页面-1" stroke="none" stroke-width="1" fill="none" fill-rule="evenodd">
        <g id="注销账号管理" transform="translate(-575.000000, -348.000000)">
            <g id="编组-136" transform="translate(245.000000, 89.000000)">
                <g id="编组-10" transform="translate(20.000000, 188.000000)">
                    <g id="编组-3" transform="translate(0.000000, 39.000000)">
                        <g id="标签/中标签/未初始化" transform="translate(300.000000, 27.000000)">
                            <g id="编组-57" transform="translate(10.000000, 2.000000)">
                                <g id="未审核" transform="translate(0.000000, 3.000000)">
                                    <path d="M0,0 L14,0 L14,14 L0,14 L0,0 Z" id="close-circle-filled-(Background)"></path>
                                    <path d="M7.12500209,1 C3.74225798,1 1,3.74225423 1,7.12499833 C1,10.5077426 3.74225423,13.25 7.12499833,13.25 C10.5077426,13.25 13.25,10.507746 13.25,7.12500209 C13.25,3.74225798 10.507746,1 7.12500209,1 Z" id="close-circle-filled" fill="#717F99"></path>
                                    <path d="M10.9786182,8.22800397 C11.0759204,8.2463543 11.1536039,8.31952245 11.1775298,8.41535383 C11.2014558,8.51118521 11.1672446,8.612138 11.0899307,8.67384732 L10.212,9.594 L11.1254252,10.4589167 C11.1731218,10.5055224 11.2,10.569313 11.2,10.6359065 C11.2,10.7025001 11.1731218,10.7662906 11.1254252,10.8128964 C11.0762385,10.8594509 11.0106837,10.8848751 10.9428818,10.8836924 C10.8789887,10.8852028 10.8170636,10.86159 10.7704798,10.8179533 L9.865,9.959 L9.00589372,10.863465 C8.95267266,10.9171307 8.87854911,10.9448514 8.80306774,10.9393178 C8.73856417,10.9389321 8.6767393,10.9135441 8.63066566,10.8685218 C8.58326197,10.8227915 8.55649672,10.7598339 8.55649672,10.6940604 C8.55649672,10.6282868 8.58326197,10.5653292 8.63066566,10.5195989 L9.498,9.611 L8.57488851,8.73452957 C8.52719192,8.68792379 8.50031374,8.62413324 8.50031374,8.55753969 C8.50031374,8.49094614 8.52719192,8.42715559 8.57488851,8.38054981 C8.67347297,8.28418063 8.83124952,8.28418063 8.92983398,8.38054981 L9.846,9.248 L10.7248439,8.32998128 C10.7822063,8.24948016 10.8813161,8.20965365 10.9786182,8.22800397 Z M7.61974875,3.16616624 C8.43306467,3.50324292 8.96230852,4.29615117 8.96026381,5.1745046 C8.95753458,6.34103328 8.0318474,7.29114493 6.87280947,7.33710858 C6.84844021,7.34468814 6.82226463,7.34895167 6.79509052,7.34895167 C5.08352059,7.3517113 3.69514285,8.73179417 3.68678236,10.4386892 L3.68678236,10.6753009 C3.5609163,10.8080388 3.35178861,10.815112 3.21724145,10.6911818 L3.2,10.6753009 L3.2,10.4386892 C3.2,8.85096796 4.23209123,7.50308898 5.66440471,7.02699184 C5.27376364,6.79450408 4.95850136,6.43944597 4.77620244,6.00197601 C4.43820615,5.19087291 4.62399384,4.25655445 5.24677962,3.6354631 C5.86956541,3.01437175 6.80643283,2.82908955 7.61974875,3.16616624 Z M6.79001987,3.50067836 C6.11071884,3.49863935 5.49716426,3.90515194 5.23578374,4.53045027 C4.97440321,5.1557486 5.11674439,5.87651565 5.59635771,6.35627349 C5.90249907,6.6625071 6.30751998,6.83199484 6.72372615,6.8472374 L6.79509052,6.84326631 L6.79509052,6.84326631 L6.8325412,6.84770205 C7.03278912,6.84207778 7.23385529,6.80061718 7.42606269,6.72138921 C8.05385493,6.462613 8.46333422,5.85196053 8.46333422,5.1745046 C8.46333422,4.25205137 7.71498548,3.50347292 6.79001987,3.50067836 Z" id="形状结合" fill="#FFFFFF" fill-rule="nonzero"></path>
                                </g>
                            </g>
                        </g>
                    </g>
                </g>
            </g>
        </g>
    </g>
</svg>