<?xml version="1.0" encoding="UTF-8"?>
<svg width="80px" height="80px" viewBox="0 0 80 80" version="1.1" xmlns="http://www.w3.org/2000/svg" xmlns:xlink="http://www.w3.org/1999/xlink">
    <title>部分成功</title>
    <defs>
        <linearGradient x1="50%" y1="2.23696773e-13%" x2="50%" y2="100%" id="linearGradient-1">
            <stop stop-color="#FF5E00" offset="0%"></stop>
            <stop stop-color="#F53F3F" offset="100%"></stop>
        </linearGradient>
    </defs>
    <g id="页面-1" stroke="none" stroke-width="1" fill="none" fill-rule="evenodd">
        <g id="24-视频发布成功提示语" transform="translate(-680.000000, -375.000000)">
            <g id="弹窗" transform="translate(420.000000, 290.000000)">
                <g id="部分成功" transform="translate(260.000000, 85.000000)">
                    <rect id="矩形" x="0" y="0" width="80" height="80"></rect>
                    <path d="M40,0 C17.90861,0 0,17.90861 0,40 C0,62.09139 17.90861,80 40,80 C62.09139,80 80,62.09139 80,40 C80,17.90861 62.09139,0 40,0 Z M40,6.66666667 C58.4094917,6.66666667 73.3333333,21.5905083 73.3333333,40 C73.3333333,58.4094917 58.4094917,73.3333333 40,73.3333333 C21.5905083,73.3333333 6.66666667,58.4094917 6.66666667,40 C6.66666667,21.5905083 21.5905083,6.66666667 40,6.66666667 Z" id="椭圆形" fill="#E6F7EA" fill-rule="nonzero"></path>
                    <path d="M40,0 C41.8409492,0 43.3333333,1.49238417 43.3333333,3.33333333 C43.3333333,5.1742825 41.8409492,6.66666667 40,6.66666667 C21.5905083,6.66666667 6.66666667,21.5905083 6.66666667,40 C6.66666667,58.4094917 21.5905083,73.3333333 40,73.3333333 C58.4094917,73.3333333 73.3333333,58.4094917 73.3333333,40 C73.3333333,38.1590508 74.8257175,36.6666667 76.6666667,36.6666667 C78.5076158,36.6666667 80,38.1590508 80,40 C80,62.09139 62.09139,80 40,80 C17.90861,80 0,62.09139 0,40 C0,17.90861 17.90861,0 40,0 Z" id="路径" fill="#00B42A" fill-rule="nonzero"></path>
                    <path d="M40,20 C41.8409492,20 43.3333333,21.4923842 43.3333333,23.3333333 L43.333,36.666 L56.6666667,36.6666667 C58.5076158,36.6666667 60,38.1590508 60,40 C60,41.8409492 58.5076158,43.3333333 56.6666667,43.3333333 L43.333,43.333 L43.3333333,56.6666667 C43.3333333,58.5076158 41.8409492,60 40,60 C38.1590508,60 36.6666667,58.5076158 36.6666667,56.6666667 L36.666,43.333 L23.3333333,43.3333333 C21.4923842,43.3333333 20,41.8409492 20,40 C20,38.1590508 21.4923842,36.6666667 23.3333333,36.6666667 L36.666,36.666 L36.6666667,23.3333333 C36.6666667,21.4923842 38.1590508,20 40,20 Z" id="形状结合" fill="url(#linearGradient-1)" transform="translate(40.000000, 40.000000) rotate(-315.000000) translate(-40.000000, -40.000000) "></path>
                </g>
            </g>
        </g>
    </g>
</svg>