<?xml version="1.0" encoding="UTF-8"?>
<svg width="24px" height="24px" viewBox="0 0 24 24" version="1.1" xmlns="http://www.w3.org/2000/svg" xmlns:xlink="http://www.w3.org/1999/xlink">
    <title>切片</title>
    <defs>
        <filter x="-50.0%" y="-50.0%" width="200.0%" height="200.0%" filterUnits="objectBoundingBox" id="filter-1">
            <feOffset dx="0" dy="2" in="SourceAlpha" result="shadowOffsetOuter1"></feOffset>
            <feGaussianBlur stdDeviation="2" in="shadowOffsetOuter1" result="shadowBlurOuter1"></feGaussianBlur>
            <feColorMatrix values="0 0 0 0 0.405287591   0 0 0 0 0.405287591   0 0 0 0 0.405287591  0 0 0 0.4 0" type="matrix" in="shadowBlurOuter1" result="shadowMatrixOuter1"></feColorMatrix>
            <feMerge>
                <feMergeNode in="shadowMatrixOuter1"></feMergeNode>
                <feMergeNode in="SourceGraphic"></feMergeNode>
            </feMerge>
        </filter>
        <linearGradient x1="79.8852203%" y1="92.7783179%" x2="34.5709623%" y2="40.7089673%" id="linearGradient-2">
            <stop stop-color="#8FFFFE" offset="0%"></stop>
            <stop stop-color="#57FEFC" offset="100%"></stop>
        </linearGradient>
    </defs>
    <g id="一键发布" stroke="none" stroke-width="1" fill="none" fill-rule="evenodd">
        <g id="2-选择账号分组" transform="translate(-623.000000, -648.000000)">
            <g id="弹窗" transform="translate(375.000000, 267.000000)">
                <g id="编组备份-4" transform="translate(220.000000, 353.000000)">
                    <g id="抖音" filter="url(#filter-1)" transform="translate(28.000000, 28.000000)">
                        <circle id="椭圆形" stroke="#FFFFFF" fill="#333333" cx="12" cy="12" r="11.5"></circle>
                        <path d="M19.8,8.82421896 L19.8,11.3596877 L19.7814368,11.361094 C18.4820111,11.361094 17.2181648,10.9771877 16.1786242,10.2670315 L16.1786242,15.2212502 C16.1786242,17.751094 14.0345717,19.8000002 11.3893121,19.8000002 C9.095203,19.8000002 7.17806557,18.2589612 6.70950312,16.1996455 L9.52142541,16.1999571 C9.88099542,16.8448786 10.5917571,17.284219 11.4094223,17.284219 C12.5881871,17.284219 13.5457401,16.3687502 13.5457401,15.2409377 L13.5456092,11.7500152 L13.9589582,9.8080541 L16.6172191,6.97374162 C17.2134931,8.07314084 18.4150288,8.82421896 19.8,8.82421896 Z" id="形状结合" fill="#F31E59" fill-rule="nonzero"></path>
                        <path d="M12.345,5.4 L13.5457401,5.4 L14.978,10.131 L14.9786242,14.02125 C14.9786242,16.5510937 12.8345717,18.6 10.1893121,18.6 C7.5440525,18.6 5.4,16.5510937 5.4,14.02125 C5.4,11.4914063 7.5440525,9.4425 10.1893121,9.4425 C10.453838,9.4425 10.7106293,9.46359375 10.9612329,9.50296875 L10.9612329,12.1270313 C10.7214579,12.04125 10.4662135,11.9976562 10.2094222,11.9976562 C9.02911051,11.9976562 8.07155748,12.9117187 8.07155748,14.0409375 C8.07155748,15.16875 9.02911051,16.0842187 10.2094222,16.0842187 C11.388187,16.0842187 12.3457401,15.16875 12.3457401,14.0409375 L12.345,5.4 Z" id="形状结合" fill="url(#linearGradient-2)" fill-rule="nonzero"></path>
                        <path d="M19.1814368,10.7610937 C17.882011,10.7610937 16.6181648,10.3771875 15.5786242,9.66703125 L15.5786242,14.62125 C15.5786242,17.1510937 13.4345717,19.2 10.7893121,19.2 C8.1440525,19.2 6,17.1510937 6,14.62125 C6,12.0914062 8.1440525,10.0425 10.7893121,10.0425 C11.053838,10.0425 11.3106293,10.0635937 11.5612329,10.1029687 L11.5612329,12.7270312 C11.3214579,12.64125 11.0662135,12.5976562 10.8094222,12.5976562 C9.62911051,12.5976562 8.67155748,13.5117187 8.67155748,14.6409375 C8.67155748,15.76875 9.62911051,16.6842187 10.8094222,16.6842187 C11.988187,16.6842187 12.9457401,15.76875 12.9457401,14.6409375 L12.9457401,4.8 L15.6172976,4.8 C15.6172976,6.69140625 17.2214696,8.22421875 19.2,8.22421875 L19.2,10.7596875 L19.1814368,10.7610938" id="路径" fill="#FFFFFF" fill-rule="nonzero"></path>
                    </g>
                </g>
            </g>
        </g>
    </g>
</svg>