<?xml version="1.0" encoding="UTF-8"?>
<svg width="14px" height="14px" viewBox="0 0 14 14" version="1.1" xmlns="http://www.w3.org/2000/svg" xmlns:xlink="http://www.w3.org/1999/xlink">
    <title>未审核</title>
    <g id="页面-1" stroke="none" stroke-width="1" fill="none" fill-rule="evenodd">
        <g id="注销账号管理" transform="translate(-575.000000, -598.000000)">
            <g id="编组-136" transform="translate(245.000000, 89.000000)">
                <g id="编组-10" transform="translate(20.000000, 188.000000)">
                    <g id="编组-3备份-3" transform="translate(0.000000, 289.000000)">
                        <g id="标签/中标签/未初始化" transform="translate(300.000000, 27.000000)">
                            <g id="编组-57" transform="translate(10.000000, 2.000000)">
                                <g id="未审核" transform="translate(0.000000, 3.000000)">
                                    <path d="M0,0 L14,0 L14,14 L0,14 L0,0 Z" id="close-circle-filled-(Background)"></path>
                                    <path d="M7.12500209,1 C3.74225798,1 1,3.74225423 1,7.12499833 C1,10.5077426 3.74225423,13.25 7.12499833,13.25 C10.5077426,13.25 13.25,10.507746 13.25,7.12500209 C13.25,3.74225798 10.507746,1 7.12500209,1 Z" id="close-circle-filled" fill="#860CFF"></path>
                                    <g id="上课，老师，我-(1)" transform="translate(3.200000, 3.000000)" fill="#FFFFFF" fill-rule="nonzero">
                                        <path d="M3.03448276,0 C4.20248276,0 5.14942529,0.95796941 5.14942529,2.13957044 C5.14942529,2.88023392 4.77737931,3.53308198 4.21204598,3.91708836 C5.16502564,4.27491604 5.88714167,5.07827144 6.14896552,6.07191487 L7.05287356,4.48770249 C7.1018009,4.40064501 7.19308686,4.34678297 7.29207861,4.34656282 C7.39107036,4.34634266 7.48258954,4.39979814 7.53189477,4.48663715 C7.58119999,4.57347616 7.58073132,4.68038372 7.53066667,4.7667769 L6.25287356,7.00569783 L6.25287356,7.72105856 C6.2528007,7.86991986 6.13724635,7.99251856 5.99026854,7.99967234 C5.84329073,8.00682612 5.71663583,7.89601635 5.70243678,7.7478497 L5.70114943,7.72105856 L5.70114943,6.88383534 C5.70114943,5.4452998 4.54841379,4.27914089 3.12643678,4.27914089 C1.72358621,4.27914089 0.582988506,5.41404347 0.552275862,6.82560181 L0.551724138,6.88383534 L0.551724138,7.72105856 C0.55165128,7.86991986 0.436096926,7.99251856 0.289119116,7.99967234 C0.142141306,8.00682612 0.0154864057,7.89601635 0.00128735632,7.7478497 L0,7.72105856 L0,6.88383534 C0,5.56697624 0.795402299,4.4382133 1.9268046,3.96229841 C1.30054199,3.57329535 0.919085738,2.88301878 0.91954023,2.13957044 C0.91954023,0.95796941 1.86648276,0 3.03448276,0 Z M3.03448276,0.558148811 C2.17114108,0.558148811 1.47126437,1.26617539 1.47126437,2.13957044 C1.47126437,3.01296549 2.17114108,3.72099208 3.03448276,3.72099208 C3.89782444,3.72099208 4.59770115,3.01296549 4.59770115,2.13957044 C4.59770115,1.26617539 3.89782444,0.558148811 3.03448276,0.558148811 Z M7.72413793,2.13957044 C7.87649234,2.13957044 8,2.26451631 8,2.41864485 C8,2.57277339 7.87649234,2.69771925 7.72413793,2.69771925 L6.8045977,2.69771925 C6.65224329,2.69771925 6.52873563,2.57277339 6.52873563,2.41864485 C6.52873563,2.26451631 6.65224329,2.13957044 6.8045977,2.13957044 L7.72413793,2.13957044 Z M7.72413793,0.837223217 C7.87649234,0.837223217 8,0.962169084 8,1.11629762 C8,1.27042616 7.87649234,1.39537203 7.72413793,1.39537203 L6.06896552,1.39537203 C5.9166111,1.39537203 5.79310345,1.27042616 5.79310345,1.11629762 C5.79310345,0.962169084 5.9166111,0.837223217 6.06896552,0.837223217 L7.72413793,0.837223217 Z" id="形状"></path>
                                    </g>
                                </g>
                            </g>
                        </g>
                    </g>
                </g>
            </g>
        </g>
    </g>
</svg>