<?xml version="1.0" encoding="UTF-8"?>
<svg width="48px" height="48px" viewBox="0 0 48 48" version="1.1" xmlns="http://www.w3.org/2000/svg" xmlns:xlink="http://www.w3.org/1999/xlink">
    <title>今日头条</title>
    <defs>
        <rect id="path-1" x="0" y="0" width="48" height="48" rx="8"></rect>
        <rect id="path-3" x="0" y="0" width="48" height="48" rx="8"></rect>
    </defs>
    <g id="一键发布" stroke="none" stroke-width="1" fill="none" fill-rule="evenodd">
        <g id="4-成品视频-抖音-未编辑" transform="translate(-1468.000000, -1038.000000)">
            <g id="编组-52" transform="translate(1212.000000, 155.000000)">
                <g id="抖音-未编辑" transform="translate(0.000000, 65.000000)">
                    <g id="编组-47" transform="translate(100.000000, 146.000000)">
                        <g id="编组-22备份-9" transform="translate(0.000000, 626.000000)">
                            <g id="长文本输入框" transform="translate(0.000000, 36.000000)">
                                <g id="位图" transform="translate(156.000000, 10.000000)">
                                    <mask id="mask-2" fill="white">
                                        <use xlink:href="#path-1"></use>
                                    </mask>
                                    <use id="蒙版" fill="#FFFFFF" xlink:href="#path-1"></use>
                                    <path d="M47,8 L47,36 L1,39 L1,11 L47,8 Z M17.6163753,14 L14.924563,14 L14.924563,23.7763636 L4,23.7763636 L4,26.4363636 L14.1904324,26.4363636 L4.45446182,30.0809091 L4.45446182,33 L16.4452622,28.2845455 L19.613681,32.8445455 L23,32.8445455 L18.2631095,26.4363636 L22.8601656,26.4363636 L22.8601656,23.7763636 L17.6163753,23.7763636 L17.6163753,14 Z M35.9351251,22.5074627 L33.1881372,22.5074627 L33.1881372,24.3684701 L26.1445783,24.3684701 L26.0917516,26.9384328 L33.1353105,26.9384328 L33.1353105,33 L35.9351251,33 L35.9351251,26.9384328 L42.978684,26.9384328 L42.978684,24.2798507 L35.9351251,24.2798507 L35.9351251,22.5074627 Z M30.8989805,27.9132463 L27.9759036,27.9132463 C27.3287656,29.6008197 26.458053,31.1926451 25.3873957,32.6455224 L25.3873957,32.6455224 L28.5217794,32.6455224 C29.5040731,31.172239 30.3024756,29.5828651 30.8989805,27.9132463 L30.8989805,27.9132463 Z M41.1121409,27.8955224 L38.1890639,27.8955224 C38.7633726,29.561732 39.5380491,31.1509628 40.4958295,32.6277985 L40.4958295,32.6277985 L43.7006487,32.6277985 C42.6299915,31.1749212 41.7592789,29.5830959 41.1121409,27.8955224 L41.1121409,27.8955224 Z M42.115848,14 L29.2261353,14 C28.7942282,14.5764971 28.2845272,15.0895264 27.7117702,15.5242537 C27.0777278,15.9976781 26.3775128,16.3739629 25.6339203,16.6408582 L25.6339203,16.6408582 L25.6339203,19.3703358 C26.9856726,19.1633425 28.2669758,18.6280078 29.3670065,17.8106343 C30.0295307,18.5481762 30.7672938,19.2135284 31.5681186,19.795709 C29.4292837,20.5155791 27.2313311,21.0434481 25,21.3731343 L25,21.3731343 L25,24.1380597 C28.2843376,23.7399058 31.4935167,22.8622168 34.5264133,21.5326493 C37.5441788,22.8528264 40.7345643,23.730241 44,24.1380597 L44,24.1380597 L44,21.3731343 C41.7864622,21.0407451 39.6062859,20.5128999 37.4847081,19.795709 C39.4961551,18.2949743 41.0908364,16.2992868 42.115848,14 L42.115848,14 Z M5.22355106,17.8345455 L5.22355106,20.5463636 L11.149034,22.4290909 L11.149034,19.7172727 L5.22355106,17.8345455 Z M8.07267709,14.2763636 L8.07267709,16.9881818 L13.9981601,18.8709091 L13.9981601,16.1590909 L8.07267709,14.2763636 Z M36.9916589,16.6231343 C36.2589168,17.2987486 35.4560175,17.8929707 34.5968489,18.3955224 L34.5968489,18.3955224 L34.5264133,18.4132463 C33.6257575,17.9264932 32.7912521,17.3248236 32.0435589,16.6231343 L32.0435589,16.6231343 Z" id="形状结合" fill="#FF002E" mask="url(#mask-2)"></path>
                                    <mask id="mask-4" fill="white">
                                        <use xlink:href="#path-3"></use>
                                    </mask>
                                    <rect stroke="#F0F0F0" x="0.5" y="0.5" width="47" height="47" rx="8"></rect>
                                </g>
                            </g>
                        </g>
                    </g>
                </g>
            </g>
        </g>
    </g>
</svg>