<?xml version="1.0" encoding="UTF-8"?>
<svg width="14px" height="14px" viewBox="0 0 14 14" version="1.1" xmlns="http://www.w3.org/2000/svg" xmlns:xlink="http://www.w3.org/1999/xlink">
    <title>未审核</title>
    <g id="页面-1" stroke="none" stroke-width="1" fill="none" fill-rule="evenodd">
        <g id="1-账号管理" transform="translate(-730.000000, -356.000000)">
            <g id="编组-136" transform="translate(245.000000, 89.000000)">
                <g id="编组-10" transform="translate(20.000000, 196.000000)">
                    <g id="编组-3" transform="translate(0.000000, 39.000000)">
                        <g id="标签/中标签/未初始化" transform="translate(455.000000, 27.000000)">
                            <g id="编组-57" transform="translate(10.000000, 2.000000)">
                                <g id="未审核" transform="translate(0.000000, 3.000000)">
                                    <path d="M0,0 L14,0 L14,14 L0,14 L0,0 Z" id="close-circle-filled-(Background)"></path>
                                    <path d="M7.00000209,0.875 C3.61725798,0.875 0.875,3.61725423 0.875,6.99999833 C0.875,10.3827426 3.61725423,13.125 6.99999833,13.125 C10.3827426,13.125 13.125,10.382746 13.125,7.00000209 C13.125,3.61725798 10.382746,0.875 7.00000209,0.875 Z" id="close-circle-filled" fill="#00B42A"></path>
                                    <path d="M7,3.5 L6.33333334,3.5 L6.76666666,3.06666666 C6.9,2.93333333 6.9,2.73333333 6.76666666,2.6 C6.63333333,2.46666667 6.43333333,2.46666666 6.3,2.6 L5.3,3.6 C5.16666666,3.73333334 5.16666666,3.93333334 5.3,4.06666666 L6.3,5.06666666 C6.36666666,5.13333333 6.46666666,5.16666666 6.53333334,5.16666666 C6.60000001,5.16666666 6.7,5.13333333 6.76666666,5.06666666 C6.9,4.93333333 6.9,4.73333333 6.76666666,4.6 L6.33333334,4.16666666 L7,4.16666666 C8.56666666,4.16666666 9.83333334,5.43333333 9.83333334,7 C9.83333334,8.56666667 8.56666666,9.83333334 7,9.83333334 C5.43333334,9.83333334 4.16666666,8.56666667 4.16666666,7 C4.16666666,6.5 4.3,6 4.56666666,5.56666666 C4.66666666,5.4 4.6,5.2 4.43333334,5.1 C4.3,5 4.06666667,5.06666666 4,5.2 C3.66666666,5.73333334 3.5,6.36666666 3.5,7 C3.5,8.93333334 5.06666666,10.5 7,10.5 C8.93333334,10.5 10.5,8.93333334 10.5,7 C10.5,5.06666666 8.93333334,3.5 7,3.5 Z" id="形状结合" fill="#FFFFFF" fill-rule="nonzero"></path>
                                    <g id="编组-22" transform="translate(5.100000, 6.500000)" fill="#FFFFFF" fill-rule="nonzero">
                                        <circle id="椭圆形" cx="0.5" cy="0.5" r="1"></circle>
                                        <circle id="椭圆形备份" cx="1.9" cy="0.5" r="1"></circle>
                                        <circle id="椭圆形备份-2" cx="3.3" cy="0.5" r="1"></circle>
                                    </g>
                                </g>
                            </g>
                        </g>
                    </g>
                </g>
            </g>
        </g>
    </g>
</svg>