<?xml version="1.0" encoding="UTF-8"?>
<svg width="26px" height="24px" viewBox="0 0 26 24" version="1.1" xmlns="http://www.w3.org/2000/svg" xmlns:xlink="http://www.w3.org/1999/xlink">
    <title>警告</title>
    <defs>
        <path d="M17.6357906,14.0950106 C18.4966956,15.5983201 17.7710113,16.875 16.0942748,16.875 L1.95019129,16.875 C0.227630024,16.875 -0.498054311,15.6444014 0.36360194,14.0950106 L7.4356437,2.28760972 C8.29654871,0.737463427 9.70209259,0.737463427 10.5637488,2.28760972 L17.6357906,14.0950106 Z" id="path-1"></path>
        <filter x="-33.3%" y="-38.1%" width="166.7%" height="176.2%" filterUnits="objectBoundingBox" id="filter-2">
            <feOffset dx="0" dy="0" in="SourceAlpha" result="shadowOffsetOuter1"></feOffset>
            <feGaussianBlur stdDeviation="2" in="shadowOffsetOuter1" result="shadowBlurOuter1"></feGaussianBlur>
            <feComposite in="shadowBlurOuter1" in2="SourceAlpha" operator="out" result="shadowBlurOuter1"></feComposite>
            <feColorMatrix values="0 0 0 0 0.960784314   0 0 0 0 0.247058824   0 0 0 0 0.247058824  0 0 0 0.7 0" type="matrix" in="shadowBlurOuter1"></feColorMatrix>
        </filter>
    </defs>
    <g id="一键发布" stroke="none" stroke-width="1" fill="none" fill-rule="evenodd">
        <g id="平台图标" transform="translate(-36.000000, -299.000000)">
            <g id="编组-3" transform="translate(40.000000, 266.000000)">
                <g id="警告" transform="translate(9.000000, 45.000000) scale(-1, 1) translate(-9.000000, -45.000000) translate(0.000000, 36.000000)">
                    <rect id="矩形" x="0" y="0" width="18" height="18"></rect>
                    <g id="路径" fill-rule="nonzero">
                        <use fill="black" fill-opacity="1" filter="url(#filter-2)" xlink:href="#path-1"></use>
                        <path stroke="#FFFFFF" stroke-width="1" d="M8.99941456,1.625 C9.18818334,1.625 9.37399068,1.69770638 9.54962478,1.82823725 C9.76304182,1.98684831 9.95828638,2.22585433 10.1305111,2.53735944 L10.1305111,2.53735944 L17.2019018,14.343487 C17.5176145,14.8947834 17.5951862,15.4170946 17.3816074,15.8022654 C17.285318,15.975915 17.1306171,16.1130597 16.9314018,16.2089664 C16.7029205,16.3189625 16.4205043,16.375 16.0942748,16.375 L16.0942748,16.375 L1.95019129,16.375 C1.60858302,16.375 1.31408453,16.3199393 1.07643454,16.2103493 C0.874171703,16.1170778 0.716803483,15.9842069 0.61916069,15.8131192 C0.401873907,15.4323937 0.483964187,14.9103251 0.796811066,14.3448079 L0.796811066,14.3448079 L7.86893152,2.53727567 C8.04098776,2.22578311 8.2360956,1.98678504 8.44941986,1.82818581 C8.62495221,1.69768356 8.81068793,1.625 8.99941456,1.625 Z" stroke-linejoin="square" fill="#F53F3F" fill-rule="evenodd"></path>
                    </g>
                    <path d="M9,13.5 C9.31066017,13.5 9.5625,13.7518398 9.5625,14.0625 C9.5625,14.3731602 9.31066017,14.625 9,14.625 C8.68933983,14.625 8.4375,14.3731602 8.4375,14.0625 C8.4375,13.7518398 8.68933983,13.5 9,13.5 Z M8.99969627,5.80053 C9.31086428,5.80053 9.56311578,6.0391151 9.56311578,6.33342473 L9.56311578,6.33342473 L9.56311578,12.0176352 C9.56311578,12.2080202 9.45572864,12.3839432 9.28140603,12.4791356 C9.10708343,12.5743281 8.89230911,12.5743281 8.7179865,12.4791356 C8.5436639,12.3839432 8.43627675,12.2080202 8.43627675,12.0176352 L8.43627675,12.0176352 L8.43627675,6.33342473 C8.43627675,6.0391151 8.68852826,5.80053 8.99969627,5.80053 Z" id="形状结合" fill="#FFFFFF" fill-rule="nonzero"></path>
                </g>
            </g>
        </g>
    </g>
</svg>