<?xml version="1.0" encoding="UTF-8"?>
<svg width="24px" height="24px" viewBox="0 0 24 24" version="1.1" xmlns="http://www.w3.org/2000/svg" xmlns:xlink="http://www.w3.org/1999/xlink">
    <title>切片</title>
    <defs>
        <filter x="-50.0%" y="-50.0%" width="200.0%" height="200.0%" filterUnits="objectBoundingBox" id="filter-1">
            <feOffset dx="0" dy="2" in="SourceAlpha" result="shadowOffsetOuter1"></feOffset>
            <feGaussianBlur stdDeviation="2" in="shadowOffsetOuter1" result="shadowBlurOuter1"></feGaussianBlur>
            <feColorMatrix values="0 0 0 0 0.980392157   0 0 0 0 0.615686275   0 0 0 0 0.231372549  0 0 0 0.4 0" type="matrix" in="shadowBlurOuter1" result="shadowMatrixOuter1"></feColorMatrix>
            <feMerge>
                <feMergeNode in="shadowMatrixOuter1"></feMergeNode>
                <feMergeNode in="SourceGraphic"></feMergeNode>
            </feMerge>
        </filter>
        <polygon id="path-2" points="0 0 16.8 0 16.8 14.4 0 14.4"></polygon>
    </defs>
    <g id="一键发布" stroke="none" stroke-width="1" fill="none" fill-rule="evenodd">
        <g id="2-选择账号分组" transform="translate(-623.000000, -512.000000)">
            <g id="弹窗" transform="translate(375.000000, 267.000000)">
                <g id="编组备份" transform="translate(220.000000, 217.000000)">
                    <g id="视频号" filter="url(#filter-1)" transform="translate(28.000000, 28.000000)">
                        <circle id="椭圆形" stroke="#FFFFFF" fill="#FA9D3B" cx="12" cy="12" r="11.5"></circle>
                        <g id="编组" transform="translate(3.600000, 4.800000)">
                            <mask id="mask-3" fill="white">
                                <use xlink:href="#path-2"></use>
                            </mask>
                            <g id="Clip-2"></g>
                            <path d="M7.40862846,8.88144904 C7.16838197,9.33491249 6.75099752,10.0808102 6.24696406,10.8076757 C5.44258075,11.9673175 4.88595685,12.4113476 4.56590645,12.5806517 C4.42048971,12.6574425 4.24201612,12.6106067 4.15102631,12.4744022 C3.78823575,11.932232 3.09304021,10.5043186 2.45093598,7.97435663 C1.76609157,5.27608357 1.53719794,2.79411588 1.89431208,1.93849323 C1.9505755,1.80361268 2.11302153,1.74833648 2.23973945,1.82231391 C2.7235715,2.10448734 3.92563871,3.132393 6.19871442,6.87297002 C6.71042775,7.71518737 7.15118573,8.45049326 7.40862846,8.88144904 M14.349064,7.97435663 C13.7198152,10.4545038 13.0391447,11.8754663 12.673182,12.4399787 C12.5624916,12.6106067 12.3339319,12.6577735 12.160133,12.5506966 C11.4797964,12.1314911 10.361206,10.7638189 9.38886724,8.88558648 C9.6458091,8.45529269 10.0879027,7.71800083 10.6012856,6.87297002 C12.8815403,3.12064267 14.0846092,2.09819843 14.5641005,1.81966595 C14.6938236,1.74453003 14.8467532,1.79732377 14.9045192,1.93468679 L14.9060218,1.93865873 C15.2628021,2.79411588 15.0339084,5.27608357 14.349064,7.97435663 M16.5052721,1.28295719 C16.0700236,0.239329252 15.3422721,0.0341122133 14.9465916,0.00465363844 C13.4707202,-0.104078292 11.7322305,1.68677136 9.11856907,5.98788879 C8.85561686,6.42049955 8.61136348,6.82530671 8.4,7.17649264 C8.18980519,6.82712718 7.94588572,6.42298202 7.68143093,5.98788879 C5.06726865,1.68561288 3.32126603,-0.103416302 1.85324145,0.00465363844 C1.4578949,0.0341122133 0.730143371,0.239329252 0.294727915,1.28295719 C-0.30580483,2.72212442 0.145471236,5.53773529 0.468025938,7.08795142 C0.955030112,9.42891514 1.73921201,11.76028 2.46596182,13.0278262 C2.94929301,13.8707055 3.43245725,14.3006683 3.98640989,14.3807692 C4.0752293,14.393678 4.16571825,14.4001324 4.25537242,14.4001324 C5.89168642,14.4001324 7.44986604,12.2819285 8.39983305,10.6678303 C9.34980005,12.2819285 10.9078127,14.4001324 12.5446276,14.4001324 C12.6342818,14.4001324 12.7249377,14.393678 12.813924,14.3807692 C13.3675428,14.3006683 13.850707,13.8707055 14.3340382,13.0278262 C15.060788,11.7604455 15.8449699,9.42891514 16.3319741,7.08795142 C16.6545288,5.53773529 17.1058048,2.72228992 16.5052721,1.28295719" id="Fill-1" fill="#FFFFFF" mask="url(#mask-3)"></path>
                        </g>
                    </g>
                </g>
            </g>
        </g>
    </g>
</svg>