<?xml version="1.0" encoding="UTF-8"?>
<svg width="48px" height="48px" viewBox="0 0 48 48" version="1.1" xmlns="http://www.w3.org/2000/svg" xmlns:xlink="http://www.w3.org/1999/xlink">
    <title>西瓜视频</title>
    <defs>
        <rect id="path-1" x="0" y="0" width="48" height="48" rx="8"></rect>
        <rect id="path-3" x="0" y="0" width="48" height="48" rx="8"></rect>
        <linearGradient x1="50%" y1="0%" x2="50%" y2="100%" id="linearGradient-5">
            <stop stop-color="#F50061" offset="0%"></stop>
            <stop stop-color="#FF001D" offset="100%"></stop>
        </linearGradient>
    </defs>
    <g id="一键发布" stroke="none" stroke-width="1" fill="none" fill-rule="evenodd">
        <g id="平台图标" transform="translate(-430.000000, -76.000000)">
            <g id="编组-5" transform="translate(40.000000, 40.000000)">
                <g id="西瓜视频" transform="translate(390.000000, 36.000000)">
                    <g id="位图">
                        <mask id="mask-2" fill="white">
                            <use xlink:href="#path-1"></use>
                        </mask>
                        <use id="蒙版" fill="#FFFFFF" xlink:href="#path-1"></use>
                        <mask id="mask-4" fill="white">
                            <use xlink:href="#path-3"></use>
                        </mask>
                        <rect stroke="#F0F0F0" x="0.5" y="0.5" width="47" height="47" rx="8"></rect>
                    </g>
                    <g id="编组-53" transform="translate(5.000000, 5.000000)">
                        <path d="M19.5,39 C30.2695526,39 39,30.2695526 39,19.5 C39,8.73044738 30.2695526,0 19.5,0 C8.73044738,0 0,8.73044738 0,19.5 C0,25.4188499 7.89489483,22.0512806 12.2780731,26.3380495 C18.469795,32.3935824 14.6492973,39 19.5,39 Z" id="椭圆形" fill="url(#linearGradient-5)"></path>
                        <path d="M20.1195574,12.469616 C22.9347918,12.469616 28.3263081,20.8432108 26.7589582,23.9779106 C25.1916083,27.1126104 15.2325071,27.4826116 13.4801567,23.9779106 C11.7278062,20.4732097 17.304323,12.469616 20.1195574,12.469616 Z" id="三角形" fill="#FFFFFF" transform="translate(20.092660, 19.469616) rotate(-270.000000) translate(-20.092660, -19.469616) "></path>
                    </g>
                </g>
            </g>
        </g>
    </g>
</svg>