<?xml version="1.0" encoding="UTF-8"?>
<svg width="20px" height="20px" viewBox="0 0 20 20" version="1.1" xmlns="http://www.w3.org/2000/svg" xmlns:xlink="http://www.w3.org/1999/xlink">
    <title>矩形</title>
    <g id="权限管理" stroke="none" stroke-width="1" fill="none" fill-rule="evenodd">
        <g id="图标" transform="translate(-41.000000, -69.000000)">
            <rect fill="#FFFFFF" x="0" y="0" width="742" height="1080"></rect>
            <g id="编组-2" transform="translate(41.000000, 69.000000)">
                <rect id="矩形" x="0" y="0" width="20" height="20"></rect>
                <g id="编组-4" transform="translate(4.000000, 1.000000)" fill="#0C6FFF" fill-rule="nonzero">
                    <g id="编组" transform="translate(0.000000, 0.000000)">
                        <path d="M10.5520653,13.9655281 L1.55180852,13.9655281 L1.55180852,1.5517101 L10.5520653,1.5517101 L10.5520653,13.9655281 L10.5520653,13.9655281 Z M2.48288303,13.0345096 L9.62100956,13.0345096 L9.62100956,2.48272721 L2.48288303,2.48272721 L2.48288303,13.0345096 L2.48288303,13.0345096 Z M6.87510951,15.4984772 C6.87510951,15.9191066 6.5339757,16.2597795 6.11347822,16.2597795 C5.69296217,16.2597795 5.35182834,15.9191047 5.35182834,15.4984772 C5.35182834,15.0778292 5.69294357,14.7365429 6.11347822,14.7365429 C6.5339757,14.7365244 6.87510951,15.0778124 6.87510951,15.4984772 M10.520974,18 L1.58286291,18 C0.710126602,18 0,17.2895668 0,16.4170516 L0,1.58276254 C0,0.710080121 0.710128471,0 1.58286293,0 L10.5209738,0 C11.3937101,0 12.1038553,0.710098706 12.1038553,1.58276254 L12.1038553,16.4170522 C12.1038553,17.2895668 11.3937103,18 10.520974,18 Z M1.58286219,0.931037551 C1.22339609,0.931037551 0.931090729,1.22332992 0.931090729,1.58276256 L0.931090729,16.4170522 C0.931090729,16.7764848 1.22341468,17.0689444 1.58286219,17.0689444 L10.5209731,17.0689444 C10.8804391,17.0689444 11.1727817,16.7765034 11.1727817,16.4170522 L11.1727817,1.58276254 C11.1727817,1.2233299 10.8804577,0.931037551 10.520973,0.931037551 L1.58286291,0.931037551 L1.58286219,0.931037551 Z" id="形状"></path>
                    </g>
                </g>
            </g>
        </g>
    </g>
</svg>