<svg xmlns="http://www.w3.org/2000/svg" fill="none" viewBox="0 0 20 20" class="design-iconfont">
  <path d="M17.2818 4L2.41656 4C1.63423 4 1 4.63421 1 5.41658L1 14.5834C1 15.3658 1.63421 16 2.41656 16L17.2818 16C18.0641 16 18.6984 15.3658 18.6984 14.5834L18.6984 5.41658C18.6984 4.63421 18.0642 4 17.2818 4L17.2818 4ZM17.5336 5.98263L17.5336 14.0258C17.5336 14.0265 17.5335 14.0273 17.5335 14.0281L13.2601 10.1927L17.5336 5.98261L17.5336 5.98263ZM7.3159 10.9892C8.7199 11.9934 11.1006 12.0696 12.4201 11.004L16.689 14.8352L3.03053 14.8352L7.3159 10.9892L7.3159 10.9892ZM16.6385 5.16478L12.3206 9.41768C10.7823 11.0032 8.77215 10.9088 7.31918 9.3855L3.1404 5.16478L16.6385 5.16478ZM2.16474 5.97424C2.16474 5.93424 2.16776 5.89494 2.17336 5.85652L6.46259 10.1899L2.16529 14.0467C2.16509 14.0397 2.16476 14.0328 2.16476 14.0258L2.16476 5.97424L2.16474 5.97424Z" fill="#0C6FFF"/>
</svg>
