<?xml version="1.0" encoding="UTF-8"?>
<svg width="20px" height="20px" viewBox="0 0 20 20" version="1.1" xmlns="http://www.w3.org/2000/svg" xmlns:xlink="http://www.w3.org/1999/xlink">
    <title>编组 3</title>
    <g id="权限管理" stroke="none" stroke-width="1" fill="none" fill-rule="evenodd">
        <g id="图标" transform="translate(-72.000000, -69.000000)">
            <g id="编组-3" transform="translate(72.000000, 69.000000)">
                <rect id="矩形备份" x="0" y="0" width="20" height="20"></rect>
                <g id="编组" transform="translate(2.000000, 1.000000)" fill="#0C6FFF" fill-rule="nonzero">
                    <path d="M14.2701221,2.48937384 C11.866592,2.48937384 10.2948813,1.96822714 8.47590629,0.562024675 L7.74010267,0 L7.00639049,0.564116106 C5.1893168,1.96613571 3.61760605,2.48937384 1.20390401,2.48937384 L0,2.48937384 L0,9.34442074 C0,10.4439433 0.439485804,11.8112642 1.23860275,13.1949362 L1.31627091,13.1499704 L1.23860275,13.1949362 C1.24269055,13.2011154 1.26312954,13.2379056 1.29374049,13.291047 C1.37140865,13.4238529 1.49813039,13.6487768 1.53900837,13.716178 L1.6064095,13.8245521 C1.72495564,14.0085981 1.85167737,14.1801906 2.04380387,14.4172828 L2.13981959,14.535829 L2.85917695,13.6466854 L2.7610698,13.5281393 C2.63745087,13.3792826 2.52215133,13.2237091 2.41569841,13.0621303 L2.36664484,12.9845572 C2.31958763,12.9028013 2.27262549,12.8210453 2.22566334,12.7412857 C2.1765203,12.6572572 2.12816177,12.5727724 2.08059405,12.4878422 C1.414283,11.3392661 1.03212143,10.1925913 1.03212143,9.3445158 L1.03212143,3.5214002 C2.35656794,3.50504901 3.83226297,3.3333615 4.84812827,2.98799011 C5.83119613,2.65279069 6.75294702,2.14799518 7.7421941,1.39992817 C8.73343755,2.14799518 9.65518844,2.65488212 10.6342636,2.98799011 C11.6479424,3.3333615 13.0246747,3.50295758 14.3428469,3.51940384 L14.3428469,9.34033294 C14.3428469,10.693299 13.5273787,12.4939264 12.2131993,14.0370226 C10.8581418,15.6312637 9.00541871,16.8688208 7.73820137,16.8688208 C6.75712988,16.8688208 5.47565278,16.3639302 4.39647414,15.4115684 L4.2820158,15.3093734 L3.53195243,16.0829179 L3.64641077,16.1851128 C4.98511704,17.3725706 6.39740367,18 7.73411357,18 C8.60690595,18 9.53264957,17.7118578 10.4851065,17.1416575 C11.3475368,16.6245986 12.2039779,15.8867986 12.9622169,15.0058307 C13.7021083,14.1453967 14.3274463,13.178585 14.7649358,12.209872 C15.2247655,11.1960981 15.468037,10.2028583 15.468037,9.34242437 L15.468037,2.48937384 L14.2701221,2.48937384 Z" id="路径"></path>
                    <polygon id="路径" points="12.6432736 6.2070834 11.822767 5.518337 7.09622697 11.3044723 3.66456819 8.16818067 2.88798166 8.9151069 7.25156329 13.0048061 12.6432736 6.2070834"></polygon>
                </g>
            </g>
        </g>
    </g>
</svg>