<?xml version="1.0" encoding="UTF-8"?>
<svg width="14px" height="14px" viewBox="0 0 14 14" version="1.1" xmlns="http://www.w3.org/2000/svg" xmlns:xlink="http://www.w3.org/1999/xlink">
    <title>time</title>
    <g id="页面-2" stroke="none" stroke-width="1" fill="none" fill-rule="evenodd">
        <g id="5-1.1-脱敏审批列表-待审批" transform="translate(-1150.000000, -358.000000)">
            <g id="编组-13" transform="translate(272.000000, 267.000000)">
                <g id="编组-6备份" transform="translate(0.000000, 54.000000)">
                    <g id="标签/中标签/已完成" transform="translate(868.000000, 32.000000)">
                        <g id="编组-57" transform="translate(10.000000, 2.000000)">
                            <g id="time" transform="translate(0.000000, 3.000000)">
                                <path d="M0,0 L14,0 L14,14 L0,14 L0,0 Z" id="time-(Background)"></path>
                                <path d="M7,13 C3.68629149,13 1,10.3137087 1,7 C1,3.68629149 3.68629149,1 7,1 C10.3137087,1 13,3.68629149 13,7 C13,10.3137087 10.3137087,13 7,13 Z" fill="#FF7D00"></path>
                                <g id="等待-(3)" transform="translate(3.000000, 3.000000)" fill="#FFFFFF" fill-rule="nonzero">
                                    <path d="M6.23076924,0 C6.57063677,0 6.84615386,0.275517073 6.84615386,0.61538461 L6.84615386,0.61538461 L6.84615386,1.38630769 C6.84615386,1.91866413 6.64890615,2.4321417 6.29261539,2.82769231 L6.29261539,2.82769231 L5.2363077,4.00046154 L6.2923077,5.172 C6.63521116,5.55256349 6.83129538,6.04285585 6.84538462,6.55492308 L6.84538462,6.55492308 L6.84615386,6.614 L6.84615386,7.38461539 C6.84615386,7.72448293 6.57063677,8 6.23076924,8 L6.23076924,8 L1.61538462,8 C1.27551708,8 1,7.72448293 1,7.38461539 L1,7.38461539 L1,6.61384616 C1.00006982,6.08129797 1.19737518,5.56764635 1.55384615,5.172 L1.55384615,5.172 L2.60969231,4.00046154 L1.55353846,2.82769231 C1.2108475,2.44726592 1.01487852,1.9572071 1.00076924,1.44538461 L1.00076924,1.44538461 L1,0.61538461 C1,0.275517073 1.27551708,0 1.61538462,0 L1.61538462,0 Z M6.23076924,0.61538461 L1.61538462,0.61538461 L1.61538462,1.38615384 C1.61538462,1.76650618 1.75621352,2.13338843 2.01076923,2.416 L2.01076923,2.416 L3.25261539,3.79476923 C3.35803598,3.91181284 3.35803598,4.08957178 3.25261539,4.20661538 L3.25261539,4.20661538 L2.01107693,5.584 C1.75646154,5.86661538 1.61538462,6.23369231 1.61538462,6.614 L1.61538462,6.614 L1.61538462,7.38461539 L6.23076924,7.38461539 L6.23076924,6.614 C6.23070571,6.233562 6.08974185,5.86662847 5.83507693,5.584 L5.83507693,5.584 L4.59353846,4.20661538 C4.48811787,4.08957178 4.48811787,3.91181284 4.59353846,3.79476923 L4.59353846,3.79476923 L5.83538463,2.416 C6.08984616,2.13338461 6.23076924,1.76646153 6.23076924,1.38630769 L6.23076924,1.38630769 L6.23076924,0.61538461 Z M5.46153847,6.15384615 L5.46153847,6.46153847 C5.46153847,6.54314354 5.42912098,6.62140628 5.37141748,6.67910978 C5.31371398,6.73681329 5.23545123,6.76923077 5.15384616,6.76923077 L2.6923077,6.76923077 C2.61070262,6.76923077 2.53243988,6.73681329 2.47473638,6.67910978 C2.41703288,6.62140628 2.38461539,6.54314354 2.38461539,6.46153847 L2.38461539,6.15384615 L5.46153847,6.15384615 Z" id="形状结合"></path>
                                </g>
                            </g>
                        </g>
                    </g>
                </g>
            </g>
        </g>
    </g>
</svg>