<?xml version="1.0" encoding="UTF-8"?>
<svg width="14px" height="14px" viewBox="0 0 14 14" version="1.1" xmlns="http://www.w3.org/2000/svg" xmlns:xlink="http://www.w3.org/1999/xlink">
    <title>编组</title>
    <g id="页面-1" stroke="none" stroke-width="1" fill="none" fill-rule="evenodd">
        <g id="1-2剪辑视频界面（大）-鼠标移入时" transform="translate(-143.000000, -471.000000)">
            <g id="编组" transform="translate(143.000000, 471.000000)">
                <rect id="矩形" x="0" y="0" width="14" height="14"></rect>
                <path d="M13.4183333,7.59095625 C13.2871175,8.31106015 13.0719075,9.01316393 12.7771441,9.68277998 C11.8154826,11.7893452 10.1734603,12.8949603 7.85107719,12.9996252 C6.79059465,13.0520208 5.73020244,12.8944879 4.73032898,12.536004 L4.73032898,12.5219995 L4.29625927,13.6172955 C4.23337403,13.7443245 4.13647609,13.8512655 4.01642752,13.9261307 C3.92929749,13.9767838 3.82991527,14.0022916 3.72925112,13.9998383 C3.63661771,13.9932889 3.5462223,13.968229 3.46337424,13.9261307 C3.40016064,13.8983596 3.33925207,13.8655789 3.28122655,13.8280995 C3.25534243,13.8086632 3.23080374,13.7874849 3.2077799,13.7647108 L1.00511483,10.0233094 C0.95334098,9.93252932 0.920131679,9.83229676 0.907430788,9.72847873 C0.897149534,9.64869948 0.90188313,9.56769234 0.921385652,9.48966587 C0.94064341,9.42246436 0.973943589,9.36015012 1.0190697,9.30687086 C1.06114131,9.25546238 1.10812638,9.20831033 1.1593528,9.1660892 C1.20662142,9.12680794 1.25810738,9.09293883 1.3128563,9.06510968 C1.34853905,9.04536396 1.38589879,9.02883766 1.42449521,9.01572555 C1.44051467,9.01188724 1.45506644,9.00343258 1.4663598,8.99140201 L5.30100946,7.96612829 C5.46036116,7.92190159 5.62687868,7.90987573 5.79089862,7.93074862 C5.89429439,7.95035036 5.99561194,7.9797184 6.09349882,8.01846074 C6.17076688,8.04841344 6.23184503,8.10970865 6.26169165,8.18725131 C6.28961171,8.25272047 6.31077684,8.32088719 6.32485578,8.39068449 C6.33477304,8.45590683 6.33477304,8.52226163 6.32485578,8.58748397 C6.32045011,8.63743012 6.31110077,8.68681207 6.29694605,8.73489932 C6.28945239,8.75041502 6.28472918,8.76712975 6.28299119,8.78428345 L5.83496661,9.87957946 C6.55674387,10.1530714 7.30979464,10.3348222 8.0765584,10.4205938 C8.78066696,10.4908617 9.38023645,10.4744004 9.87526689,10.3712096 C10.3575206,10.2731966 10.8222812,10.1027337 11.2538605,9.86557501 C11.6163243,9.67453948 11.9550531,9.44123782 12.2630175,9.17051166 C12.5103897,8.94170571 12.7331719,8.68749838 12.9277097,8.41205971 C13.061419,8.22997409 13.1840531,8.03995406 13.294943,7.84303649 C13.3463556,7.74058283 13.3860168,7.65655608 13.4139265,7.59021917 L13.4183333,7.59095625 Z M0.585,6.1580791 C0.7625113,5.31663508 1.05437514,4.50365474 1.45240494,3.74194162 C2.52619498,1.80392123 4.22893317,0.858251801 6.56061952,0.904933327 C7.52863214,0.909924738 8.48726833,1.09563479 9.38758113,1.45258133 L9.84956056,0.371289779 C9.90633319,0.278934999 9.97721724,0.196108862 10.059618,0.125843238 C10.1198735,0.0722664952 10.191824,0.0336386967 10.2696754,0.0130704975 C10.3362832,-0.00137411981 10.4049134,-0.00386955952 10.4723882,0.00569972242 C10.5351763,0.0131726689 10.5965399,0.0298096784 10.6545359,0.0550838704 C10.7076439,0.079838234 10.7591571,0.107901937 10.8087738,0.139110616 C10.8408084,0.15770449 10.8712686,0.178905166 10.8998477,0.202499208 L10.9417123,0.244512581 L13.0547724,4.03677231 C13.0974406,4.13587461 13.1256408,4.24063552 13.1385016,4.34781868 C13.1487654,4.42759854 13.144032,4.50860242 13.1245467,4.58663154 C13.1047466,4.65517511 13.0687114,4.71789182 13.019518,4.76942657 C12.9753415,4.81893394 12.9261071,4.86364938 12.8726247,4.90283745 C12.8234424,4.93694415 12.771899,4.96748746 12.7183867,4.99423497 L12.6067478,5.0502528 C12.5940512,5.05808851 12.5797253,5.0628808 12.5648832,5.06425726 L8.70232387,5.98928854 C8.49381638,6.02850773 8.27945669,6.02373841 8.07288607,5.97528408 C7.91497577,5.92884825 7.81141599,5.86545966 7.7651446,5.78585536 C7.71539795,5.6981193 7.69003301,5.5985899 7.69169795,5.49765837 C7.69041645,5.4176844 7.69631602,5.33775715 7.70932514,5.25884551 C7.71635874,5.21902025 7.73054396,5.1808088 7.75118973,5.14607277 L8.22345171,4.06478123 C7.50519716,3.77290108 6.75258756,3.57472875 5.98406332,3.47511985 C5.27456867,3.3910931 4.67499917,3.3910931 4.18535483,3.47511985 C3.70358547,3.5574118 3.23734799,3.71379097 2.80308885,3.9387411 C2.43416715,4.12054344 2.08884131,4.34704065 1.77483574,4.6131663 C1.52277057,4.83851965 1.29303523,5.08783154 1.08884402,5.35761379 C0.946786079,5.53660542 0.815804977,5.72417528 0.696638909,5.91926625 C0.652722349,5.99553752 0.615373789,6.07543185 0.585,6.1580791 Z" id="形状" fill="#0C6FFF" fill-rule="nonzero"></path>
            </g>
        </g>
    </g>
</svg>