<?xml version="1.0" encoding="UTF-8"?>
<svg width="16px" height="16px" viewBox="0 0 16 16" version="1.1" xmlns="http://www.w3.org/2000/svg" xmlns:xlink="http://www.w3.org/1999/xlink">
    <title>修改 </title>
    <g id="页面-1" stroke="none" stroke-width="1" fill="none" fill-rule="evenodd">
        <g id="2-1-背景图管理" transform="translate(-464.000000, -542.000000)" fill="#0C6FFF" fill-rule="nonzero">
            <g id="编组-4" transform="translate(272.000000, 247.000000)">
                <g id="编组-13" transform="translate(0.000000, 253.000000)">
                    <g id="修改-" transform="translate(192.000000, 42.000000)">
                        <path d="M10.1464186,0.0142786298 C10.3650485,0.0142786298 10.5670859,0.130861551 10.6764109,0.320194862 C10.7857359,0.509528172 10.7857359,0.742806477 10.6764109,0.932139788 C10.5670859,1.1214731 10.3650485,1.23809081 10.1464186,1.23805601 L2.03629178,1.23805601 C1.81875447,1.23798588 1.61011834,1.3244253 1.45637037,1.47832153 C1.3026224,1.63221776 1.21638412,1.84093711 1.21666392,2.05847425 L1.21666392,13.9695561 C1.21695389,14.422814 1.58408827,14.7903019 2.03734563,14.7910282 L13.9571217,14.7910282 C14.1746702,14.7915979 14.3833966,14.7050713 14.5367364,14.5507516 C14.6901043,14.3962806 14.7762695,14.1874958 14.7764861,13.9698196 L14.7764861,5.39178564 C14.7764861,5.17322592 14.8930863,4.9712684 15.0823646,4.86198854 C15.2716428,4.75270868 15.5048433,4.75270868 15.6941215,4.86198854 C15.8833998,4.9712684 16,5.17322592 16,5.39178564 L16,14.4469478 C15.9965158,15.307943 15.2970959,16.003828 14.4360942,16.0029506 L1.56469619,16.0029506 C0.700899532,16.0020784 0.000871353695,15.3020503 0,14.4382536 L0,1.57686715 C0.00101624523,0.714294636 0.700015998,0.0152948829 1.56258851,0.0142786298 L10.1464186,0.0142786298 Z M15.0477348,0.0201460236 C15.2606477,0.0762481514 15.4267945,0.242750538 15.4824412,0.455782928 C15.5380879,0.668815319 15.4745949,0.895302449 15.3163181,1.04836394 L6.74776881,9.65353435 C6.63373743,9.76857236 6.47872202,9.83366747 6.31674625,9.834533 C6.06934434,9.83492842 5.84619012,9.68589603 5.75177399,9.45721841 C5.65735785,9.22854079 5.71036972,8.96548529 5.88598716,8.79122578 L14.4547999,0.18500151 C14.6081995,0.0270524051 14.8348219,-0.0359561042 15.0477348,0.0201460236 Z" id="形状结合"></path>
                    </g>
                </g>
            </g>
        </g>
    </g>
</svg>