<svg width="24" height="24" viewBox="0 0 24 24" fill="none" xmlns="http://www.w3.org/2000/svg">
<path fill-rule="evenodd" clip-rule="evenodd" d="M4.31243 7.93517C5.06994 9.90501 6.64196 12.299 8.90745 14.5645C11.1729 16.83 13.567 18.402 15.5368 19.1596C16.5243 19.5393 17.3152 19.6798 17.8805 19.6657C18.4316 19.652 18.6404 19.5015 18.7173 19.4247C18.7942 19.3478 18.9447 19.1389 18.9584 18.5878C18.9724 18.0225 18.832 17.2316 18.4522 16.2441C17.6947 14.2743 16.1227 11.8803 13.8572 9.61478C11.5917 7.34929 9.19768 5.77727 7.22785 5.01976C6.24035 4.64002 5.44946 4.49954 4.88414 4.51358C4.33305 4.52727 4.12422 4.67778 4.04734 4.75466C3.97046 4.83154 3.81994 5.04038 3.80625 5.59147C3.79221 6.15679 3.93269 6.94768 4.31243 7.93517ZM2.63312 3.34045C0.485239 5.48833 2.66119 11.1467 7.49324 15.9787C12.3253 20.8108 17.9836 22.9867 20.1315 20.8389C22.2794 18.691 20.1035 13.0326 15.2714 8.20057C10.4394 3.36852 4.78101 1.19257 2.63312 3.34045Z" fill="black"/>
<path fill-rule="evenodd" clip-rule="evenodd" d="M15.5358 4.84174C13.5649 5.60013 11.1695 7.17345 8.90256 9.4404C6.63561 11.7074 5.06229 14.1027 4.3039 16.0736C3.92371 17.0617 3.78294 17.853 3.79683 18.4186C3.81036 18.97 3.9609 19.1786 4.03751 19.2552C4.11411 19.3318 4.32275 19.4823 4.87413 19.4959C5.43972 19.5098 6.23103 19.369 7.21907 18.9888C9.18997 18.2304 11.5854 16.6571 13.8523 14.3901C16.1193 12.1232 17.6926 9.72781 18.451 7.75691C18.8312 6.76887 18.9719 5.97756 18.958 5.41198C18.9445 4.86059 18.794 4.65195 18.7174 4.57535C18.6408 4.49874 18.4321 4.3482 17.8807 4.33467C17.3151 4.32078 16.5238 4.46155 15.5358 4.84174ZM20.1316 3.16113C17.9837 1.01325 12.3231 3.19141 7.48835 8.02619C2.65357 12.861 0.475408 18.5215 2.62329 20.6694C4.77118 22.8173 10.4317 20.6391 15.2665 15.8044C20.1013 10.9696 22.2795 5.30902 20.1316 3.16113Z" fill="black"/>
<path d="M12.6463 13.3535C11.8988 14.101 10.6868 14.101 9.9392 13.3535C9.19165 12.6059 9.19165 11.3939 9.9392 10.6463C10.6868 9.89879 11.8988 9.89879 12.6463 10.6463C13.3939 11.3939 13.3939 12.6059 12.6463 13.3535Z" fill="black"/>
</svg>
