<svg fill="none" xmlns="http://www.w3.org/2000/svg" viewBox="0 0 18 18" class="design-iconfont">
  <path d="M16.3621 10.9984L13.8241 13.5274V4.46444L16.3621 6.99344L16.3801 7.01144C16.6141 7.23644 16.9921 7.23644 17.2171 6.99344C17.4421 6.75044 17.4421 6.38144 17.1991 6.15644L13.9501 2.82644C13.7611 2.63744 13.5001 2.53844 13.2301 2.54744C12.9691 2.55644 12.7081 2.65544 12.5101 2.82644L9.2161 6.12044L9.1981 6.13844C8.9821 6.37244 8.9911 6.73244 9.2161 6.95744C9.3331 7.07444 9.4861 7.14644 9.6571 7.15544C9.8191 7.14644 9.9721 7.09244 10.0981 6.99344L12.6271 4.46444V13.5274L10.0981 10.9984C9.9721 10.9084 9.8191 10.8454 9.6571 10.8364C9.4861 10.8454 9.3331 10.9174 9.2161 11.0344L9.1981 11.0524C8.9821 11.2864 8.9911 11.6464 9.2161 11.8714L12.5101 15.1564C12.7081 15.3274 12.9691 15.4264 13.2301 15.4354C13.5001 15.4444 13.7611 15.3454 13.9501 15.1564L17.1991 11.8264C17.4241 11.5924 17.4241 11.2324 17.1991 10.9984C16.9741 10.7824 16.5961 10.7734 16.3621 10.9984ZM1.2241 4.69844H7.2001C7.5331 4.69844 7.7941 4.42844 7.7941 4.10444C7.7941 3.77144 7.5241 3.50144 7.2001 3.50144H1.2241C0.891102 3.50144 0.630101 3.77144 0.630101 4.10444C0.621101 4.42844 0.891102 4.69844 1.2241 4.69844ZM7.2001 13.4284H1.2241C0.891102 13.4284 0.630101 13.6984 0.630101 14.0314C0.630101 14.3644 0.900101 14.6254 1.2331 14.6254H7.2001C7.5331 14.6254 7.7941 14.3554 7.7941 14.0224C7.7941 13.6894 7.5331 13.4284 7.2001 13.4284ZM1.2241 9.66644H5.5711C5.9041 9.66644 6.1651 9.39644 6.1651 9.06344C6.1651 8.73044 5.8951 8.46944 5.5621 8.46944H1.2241C0.891102 8.46944 0.630101 8.73944 0.630101 9.07244C0.621101 9.39644 0.891102 9.66644 1.2241 9.66644Z" fill="#fff"/>
</svg>
