<?xml version="1.0" encoding="UTF-8"?>
<svg width="24px" height="24px" viewBox="0 0 24 24" version="1.1" xmlns="http://www.w3.org/2000/svg" xmlns:xlink="http://www.w3.org/1999/xlink">
    <title>多音字-不可用</title>
    <g id="页面-1" stroke="none" stroke-width="1" fill="none" fill-rule="evenodd">
        <g id="3-3.1-新建视频-视频内容" transform="translate(-362.000000, -678.000000)">
            <g id="编组-15" transform="translate(252.000000, 89.000000)">
                <g id="编组-48" transform="translate(0.000000, 65.000000)">
                    <g id="编组-45" transform="translate(20.000000, 494.000000)">
                        <g id="编组-44" transform="translate(0.000000, 30.000000)">
                            <g id="编组-65备份" transform="translate(84.000000, 0.000000)">
                                <g id="多音字-不可用" transform="translate(6.000000, 0.000000)">
                                    <rect id="矩形" stroke="#CCCCCC" fill="#FFFFFF" x="0.5" y="0.5" width="23" height="23" rx="2"></rect>
                                    <g id="魔法字母课" transform="translate(4.000000, 4.000000)" fill="#CCCCCC" fill-rule="nonzero">
                                        <path d="M15.439869,10.884375 C15.7486353,10.884375 16,11.1375 16,11.4484375 L16,14.6921875 C16.0015444,15.4140625 15.4181468,16 14.702864,16 L1.29868049,16 C0.583397685,16 0,15.4140625 0,14.6921875 L0,11.4484375 C0,11.1359375 0.251357513,10.884375 0.560123841,10.884375 C0.868890169,10.884375 1.12024768,11.1375 1.12024768,11.4484375 L1.12024768,14.6921875 C1.12024768,14.7890625 1.20093034,14.871875 1.29868049,14.871875 L14.7013124,14.871875 C14.7975109,14.871875 14.8797452,14.790625 14.8797452,14.6921875 L14.8797452,11.4484375 C14.8797452,11.1359375 15.1311027,10.884375 15.439869,10.884375 Z M4.99,6.36 C6.30043478,6.36 6.93381853,7.15599244 6.98641818,8.50293417 L6.99,8.69 L6.99,12 L6.05,12 L5.95,11.37 L5.92,11.37 C5.42,11.8 4.83,12.13 4.17,12.13 C3.22,12.13 2.55,11.51 2.55,10.54 C2.55,9.36 3.55,8.75 5.84,8.5 C5.83,7.86 5.6,7.3 4.79,7.3 C4.27444444,7.3 3.79049383,7.5054321 3.35921811,7.76178326 L3.2,7.86 L2.77,7.08 C3.34,6.72 4.11,6.36 4.99,6.36 Z M10.99,6.36 C12.3004348,6.36 12.9338185,7.15599244 12.9864182,8.50293417 L12.99,8.69 L12.99,12 L12.05,12 L11.95,11.37 L11.92,11.37 C11.42,11.8 10.83,12.13 10.17,12.13 C9.22,12.13 8.55,11.51 8.55,10.54 C8.55,9.36 9.55,8.75 11.84,8.5 C11.83,7.86 11.6,7.3 10.79,7.3 C10.2744444,7.3 9.79049383,7.5054321 9.35921811,7.76178326 L9.2,7.86 L8.77,7.08 C9.34,6.72 10.11,6.36 10.99,6.36 Z M5.84,9.23 C4.21,9.43 3.66,9.84 3.66,10.46 C3.66,11 4.03,11.22 4.52,11.22 C4.94666667,11.22 5.30222222,11.0382716 5.69201646,10.7099314 L5.84,10.58 L5.84,9.23 Z M11.84,9.23 C10.21,9.43 9.66,9.84 9.66,10.46 C9.66,11 10.03,11.22 10.52,11.22 C10.9466667,11.22 11.3022222,11.0382716 11.6920165,10.7099314 L11.84,10.58 L11.84,9.23 Z M5.53945444,3.85891862 C5.69566416,4.01512834 5.69566416,4.26839433 5.53945444,4.42460405 L4.69092631,5.27313218 C4.53471659,5.4293419 4.2814506,5.4293419 4.12524088,5.27313218 C3.96903116,5.11692247 3.96903116,4.86365648 4.12524088,4.70744676 L4.97376902,3.85891862 C5.12997873,3.70270891 5.38324473,3.70270891 5.53945444,3.85891862 Z M10.6281773,3.80766231 L10.6909263,3.85891862 L11.5394544,4.70744676 C11.6956642,4.86365648 11.6956642,5.11692247 11.5394544,5.27313218 C11.4027709,5.40981569 11.1917787,5.42690112 11.036518,5.3243885 L10.973769,5.27313218 L10.1252409,4.42460405 C9.96903116,4.26839433 9.96903116,4.01512834 10.1252409,3.85891862 C10.2619244,3.72223512 10.4729166,3.70514968 10.6281773,3.80766231 Z M14.7013124,0 C15.4165952,0 16,0.5859375 16,1.3078125 L16,3.6640625 C16.0015444,3.9765625 15.7501869,4.228125 15.439869,4.228125 C15.1311027,4.228125 14.8797452,3.975 14.8797452,3.6640625 L14.8797452,1.3078125 C14.8797452,1.2109375 14.7990625,1.128125 14.7013124,1.128125 L1.29868049,1.128125 C1.20248193,1.128125 1.12024768,1.209375 1.12024768,1.3078125 L1.12024768,3.6640625 C1.12024768,3.9765625 0.868890169,4.228125 0.560123841,4.228125 C0.251357513,4.228125 0,3.975 0,3.6640625 L0,1.3078125 C0,0.5859375 0.583397685,0 1.29868049,0 L14.7013124,0 Z" id="形状结合"></path>
                                    </g>
                                </g>
                            </g>
                        </g>
                    </g>
                </g>
            </g>
        </g>
    </g>
</svg>