<?xml version="1.0" encoding="UTF-8"?>
<svg width="24px" height="24px" viewBox="0 0 24 24" version="1.1" xmlns="http://www.w3.org/2000/svg" xmlns:xlink="http://www.w3.org/1999/xlink">
    <title>停顿</title>
    <g id="页面-1" stroke="none" stroke-width="1" fill="none" fill-rule="evenodd">
        <g id="3-3.1-新建视频-视频内容" transform="translate(-272.000000, -776.000000)">
            <g id="编组-15" transform="translate(252.000000, 89.000000)">
                <g id="编组-48" transform="translate(0.000000, 65.000000)">
                    <g id="编组-45备份" transform="translate(20.000000, 592.000000)">
                        <g id="停顿" transform="translate(0.000000, 30.000000)">
                            <rect id="矩形" stroke="#0091FF" fill="#E7F0FF" x="0.5" y="0.5" width="23" height="23" rx="2"></rect>
                            <g transform="translate(4.000000, 4.000000)" fill="#0C6FFF" fill-rule="nonzero" id="形状结合">
                                <path d="M8,0 C9.30265803,0 10.5302658,0.310922493 11.6167076,0.863077954 C11.8204155,0.952423498 11.9615814,1.15434443 11.9615814,1.38842975 C11.9615814,1.70471298 11.7042662,1.96202814 11.3861961,1.96202814 C11.2843422,1.96202814 11.187849,1.93522448 11.1056511,1.8887648 L11.1056511,1.8887648 C10.1710967,1.42238106 9.1168193,1.15434443 8,1.15434443 C4.21889658,1.15434443 1.15255752,4.21889658 1.15255752,8 C1.15255752,11.7811034 4.22068349,14.8474425 8.00178691,14.8474425 C11.7828903,14.8474425 14.8492294,11.7811034 14.8492294,8 C14.8492294,6.87603306 14.5776189,5.814608 14.0969399,4.8782667 L14.0969399,4.8782667 C14.0469064,4.79070806 14.0165289,4.68885414 14.0165289,4.58163949 C14.0165289,4.26535627 14.2738441,4.0080411 14.5919142,4.0080411 C14.817065,4.0080411 15.0118383,4.13848559 15.1083315,4.32611124 C15.678356,5.42684834 16,6.67589904 16,8 C16,12.4190306 12.4190306,16 8,16 C3.5809694,16 0,12.4172437 0,8 C0,3.58275631 3.5809694,0 8,0 Z M6.28992629,4.62452535 C6.6044226,4.62452535 6.85996011,4.88184052 6.85996011,5.19454992 L6.85996011,5.19454992 L6.85996011,10.9090909 C6.86173777,11.2218003 6.6044226,11.4791155 6.28992629,11.4791155 C5.97542998,11.4791155 5.71990172,11.2218003 5.71990172,10.9090909 L5.71990172,10.9090909 L5.71990172,5.19454992 C5.71990172,4.88005361 5.97721689,4.62452535 6.28992629,4.62452535 Z M9.74759884,4.62452535 C10.0620952,4.62452535 10.3176234,4.88184052 10.3176234,5.19454992 L10.3176234,5.19454992 L10.3176234,10.9090909 C10.3176234,11.2218003 10.0603082,11.4791155 9.74759884,11.4791155 C9.43310252,11.4791155 9.17757427,11.2218003 9.17757427,10.9090909 L9.17757427,10.9090909 L9.17757427,5.19454992 C9.17757427,4.88005361 9.43488943,4.62452535 9.74759884,4.62452535 Z"></path>
                            </g>
                        </g>
                    </g>
                </g>
            </g>
        </g>
    </g>
</svg>