<?xml version="1.0" encoding="UTF-8"?>
<svg width="42px" height="42px" viewBox="0 0 42 42" version="1.1" xmlns="http://www.w3.org/2000/svg" xmlns:xlink="http://www.w3.org/1999/xlink">
    <title>多音字-移进</title>
    <defs>
        <filter x="-50.0%" y="-50.0%" width="200.0%" height="200.0%" filterUnits="objectBoundingBox" id="filter-1">
            <feOffset dx="0" dy="2" in="SourceAlpha" result="shadowOffsetOuter1"></feOffset>
            <feGaussianBlur stdDeviation="2" in="shadowOffsetOuter1" result="shadowBlurOuter1"></feGaussianBlur>
            <feColorMatrix values="0 0 0 0 1   0 0 0 0 0.700465312   0 0 0 0 0.143330793  0 0 0 0.4 0" type="matrix" in="shadowBlurOuter1" result="shadowMatrixOuter1"></feColorMatrix>
            <feMerge>
                <feMergeNode in="shadowMatrixOuter1"></feMergeNode>
                <feMergeNode in="SourceGraphic"></feMergeNode>
            </feMerge>
        </filter>
    </defs>
    <g id="页面-1" stroke="none" stroke-width="1" fill="none" fill-rule="evenodd">
        <g id="3-3.1-新建视频-视频内容" transform="translate(-353.000000, -865.000000)">
            <g id="编组-15" transform="translate(252.000000, 89.000000)">
                <g id="编组-48" transform="translate(0.000000, 65.000000)">
                    <g id="编组-45备份-2" transform="translate(20.000000, 690.000000)">
                        <g id="编组-44" transform="translate(0.000000, 30.000000)">
                            <g id="编组-65备份" transform="translate(84.000000, 0.000000)">
                                <g id="多音字-移进" filter="url(#filter-1)" transform="translate(6.000000, 0.000000)">
                                    <rect id="矩形" stroke="#FFA600" fill="#FEF5EC" x="0.5" y="0.5" width="23" height="23" rx="2"></rect>
                                    <path d="M19.439869,14.884375 C19.7486353,14.884375 20,15.1375 20,15.4484375 L20,18.6921875 C20.0015444,19.4140625 19.4181468,20 18.702864,20 L5.29868049,20 C4.58339769,20 4,19.4140625 4,18.6921875 L4,15.4484375 C4,15.1359375 4.25135751,14.884375 4.56012384,14.884375 C4.86889017,14.884375 5.12024768,15.1375 5.12024768,15.4484375 L5.12024768,18.6921875 C5.12024768,18.7890625 5.20093034,18.871875 5.29868049,18.871875 L18.7013124,18.871875 C18.7975109,18.871875 18.8797452,18.790625 18.8797452,18.6921875 L18.8797452,15.4484375 C18.8797452,15.1359375 19.1311027,14.884375 19.439869,14.884375 Z M14.99,10.36 C16.3004348,10.36 16.9338185,11.1559924 16.9864182,12.5029342 L16.99,12.69 L16.99,16 L16.05,16 L15.95,15.37 L15.92,15.37 C15.42,15.8 14.83,16.13 14.17,16.13 C13.22,16.13 12.55,15.51 12.55,14.54 C12.55,13.36 13.55,12.75 15.84,12.5 C15.83,11.86 15.6,11.3 14.79,11.3 C14.2744444,11.3 13.7904938,11.5054321 13.3592181,11.7617833 L13.2,11.86 L12.77,11.08 C13.34,10.72 14.11,10.36 14.99,10.36 Z M8.99,10.36 C10.3004348,10.36 10.9338185,11.1559924 10.9864182,12.5029342 L10.99,12.69 L10.99,16 L10.05,16 L9.95,15.37 L9.92,15.37 C9.42,15.8 8.83,16.13 8.17,16.13 C7.22,16.13 6.55,15.51 6.55,14.54 C6.55,13.36 7.55,12.75 9.84,12.5 C9.83,11.86 9.6,11.3 8.79,11.3 C8.27444444,11.3 7.79049383,11.5054321 7.35921811,11.7617833 L7.2,11.86 L6.77,11.08 C7.34,10.72 8.11,10.36 8.99,10.36 Z M15.84,13.23 C14.21,13.43 13.66,13.84 13.66,14.46 C13.66,15 14.03,15.22 14.52,15.22 C14.9466667,15.22 15.3022222,15.0382716 15.6920165,14.7099314 L15.84,14.58 L15.84,13.23 Z M9.84,13.23 C8.21,13.43 7.66,13.84 7.66,14.46 C7.66,15 8.03,15.22 8.52,15.22 C8.94666667,15.22 9.30222222,15.0382716 9.69201646,14.7099314 L9.84,14.58 L9.84,13.23 Z M9.53945444,7.85891862 C9.69566416,8.01512834 9.69566416,8.26839433 9.53945444,8.42460405 L8.69092631,9.27313218 C8.53471659,9.4293419 8.2814506,9.4293419 8.12524088,9.27313218 C7.96903116,9.11692247 7.96903116,8.86365648 8.12524088,8.70744676 L8.97376902,7.85891862 C9.12997873,7.70270891 9.38324473,7.70270891 9.53945444,7.85891862 Z M14.6281773,7.80766231 L14.6909263,7.85891862 L15.5394544,8.70744676 C15.6956642,8.86365648 15.6956642,9.11692247 15.5394544,9.27313218 C15.4027709,9.40981569 15.1917787,9.42690112 15.036518,9.3243885 L14.973769,9.27313218 L14.1252409,8.42460405 C13.9690312,8.26839433 13.9690312,8.01512834 14.1252409,7.85891862 C14.2619244,7.72223512 14.4729166,7.70514968 14.6281773,7.80766231 Z M18.7013124,4 C19.4165952,4 20,4.5859375 20,5.3078125 L20,7.6640625 C20.0015444,7.9765625 19.7501869,8.228125 19.439869,8.228125 C19.1311027,8.228125 18.8797452,7.975 18.8797452,7.6640625 L18.8797452,5.3078125 C18.8797452,5.2109375 18.7990625,5.128125 18.7013124,5.128125 L5.29868049,5.128125 C5.20248193,5.128125 5.12024768,5.209375 5.12024768,5.3078125 L5.12024768,7.6640625 C5.12024768,7.9765625 4.86889017,8.228125 4.56012384,8.228125 C4.25135751,8.228125 4,7.975 4,7.6640625 L4,5.3078125 C4,4.5859375 4.58339769,4 5.29868049,4 L18.7013124,4 Z" id="形状结合" fill="#FF9800" fill-rule="nonzero"></path>
                                </g>
                            </g>
                        </g>
                    </g>
                </g>
            </g>
        </g>
    </g>
</svg>