<?xml version="1.0" encoding="UTF-8"?>
<svg width="24px" height="24px" viewBox="0 0 24 24" version="1.1" xmlns="http://www.w3.org/2000/svg" xmlns:xlink="http://www.w3.org/1999/xlink">
    <title>撤销</title>
    <g id="页面-1" stroke="none" stroke-width="1" fill="none" fill-rule="evenodd">
        <g id="3-3.1-新建视频-视频内容" transform="translate(-428.000000, -776.000000)">
            <g id="编组-15" transform="translate(252.000000, 89.000000)">
                <g id="编组-48" transform="translate(0.000000, 65.000000)">
                    <g id="编组-45备份" transform="translate(20.000000, 592.000000)">
                        <g id="编组-44" transform="translate(0.000000, 30.000000)">
                            <g id="撤销" transform="translate(156.000000, 0.000000)">
                                <rect id="矩形" fill="#FFFFFF" x="0" y="0" width="24" height="24" rx="2"></rect>
                                <path d="M20,2.4 C20.8836556,2.4 21.6,3.1163444 21.6,4 L21.6,10.0121198 C21.6,10.3434906 21.3313708,10.6121198 21,10.6121198 C20.6686292,10.6121198 20.4,10.3434906 20.4,10.0121198 L20.4,4 C20.4,3.7790861 20.2209139,3.6 20,3.6 L4,3.6 C3.7790861,3.6 3.6,3.7790861 3.6,4 L3.6,20 C3.6,20.2209139 3.7790861,20.4 4,20.4 L9.04903748,20.4 C9.38040833,20.4 9.64903748,20.6686292 9.64903748,21 C9.64903748,21.3313708 9.38040833,21.6 9.04903748,21.6 L4,21.6 C3.1163444,21.6 2.4,20.8836556 2.4,20 L2.4,4 C2.4,3.1163444 3.1163444,2.4 4,2.4 L20,2.4 Z" id="路径" fill="#333333" fill-rule="nonzero"></path>
                                <path d="M20,13.4 C20.8836556,13.4 21.6,14.1163444 21.6,15 L21.6,20 C21.6,20.8836556 20.8836556,21.6 20,21.6 L13,21.6 C12.6686292,21.6 12.4,21.3313708 12.4,21 C12.4,20.6686292 12.6686292,20.4 13,20.4 L20,20.4 C20.2209139,20.4 20.4,20.2209139 20.4,20 L20.4,15 C20.4,14.7790861 20.2209139,14.6 20,14.6 L10,14.6 C9.66862915,14.6 9.4,14.3313708 9.4,14 C9.4,13.6686292 9.66862915,13.4 10,13.4 L20,13.4 Z" id="路径" fill="#333333" fill-rule="nonzero"></path>
                                <path d="M13.7928932,11.5284271 C14.1242641,11.5284271 14.3928932,11.7970563 14.3928932,12.1284271 C14.3928932,12.459798 14.1242641,12.7284271 13.7928932,12.7284271 L11.1262266,12.7284271 C10.7212177,12.7284271 10.3928932,13.0567516 10.3928932,13.4617605 L10.3928932,16.1284271 C10.3928932,16.459798 10.1242641,16.7284271 9.79289322,16.7284271 C9.46152237,16.7284271 9.19289322,16.459798 9.19289322,16.1284271 L9.19289322,13.4617605 C9.19289322,12.3940099 10.058476,11.5284271 11.1262266,11.5284271 L13.7928932,11.5284271 Z" id="路径" fill="#333333" fill-rule="nonzero" transform="translate(11.792893, 14.128427) rotate(-45.000000) translate(-11.792893, -14.128427) "></path>
                            </g>
                        </g>
                    </g>
                </g>
            </g>
        </g>
    </g>
</svg>