<?xml version="1.0" encoding="UTF-8"?>
<svg width="16px" height="16px" viewBox="0 0 16 16" version="1.1" xmlns="http://www.w3.org/2000/svg" xmlns:xlink="http://www.w3.org/1999/xlink">
    <title>速度-16</title>
    <g id="页面-1" stroke="none" stroke-width="1" fill="none" fill-rule="evenodd">
        <g id="3-3.1-新建视频-视频内容" transform="translate(-272.000000, -612.000000)">
            <g id="编组-15" transform="translate(252.000000, 89.000000)">
                <g id="编组-48" transform="translate(0.000000, 65.000000)">
                    <g id="速度-16" transform="translate(20.000000, 458.000000)">
                        <rect id="矩形" x="0" y="0" width="16" height="16"></rect>
                        <path d="M8,1.00032661 C12.3938467,1.00019098 15.9654769,4.54375838 16,8.93746947 C15.9999309,9.10543413 15.9945036,9.27283909 15.9838136,9.43945628 C15.9945872,9.48121102 16,9.52585099 16,9.57175518 C16,9.65219247 15.9833801,9.72874797 15.9533869,9.79817502 C15.7551929,11.5901058 14.9476239,13.2706012 13.6514286,14.548898 C13.5106007,14.710896 13.2908655,14.780307 13.0825326,14.7286036 C13.0494225,14.7203864 13.0174882,14.7093304 12.9869966,14.6957063 C12.894212,14.6692186 12.8077984,14.6195536 12.7371429,14.548898 L12.1657143,13.9774695 C11.9416445,13.7533997 11.9416445,13.3901107 12.1657143,13.1660409 C12.3897841,12.9419711 12.753073,12.9419711 12.9771429,13.1660409 L13.1899459,13.3774041 C13.9942395,12.4566339 14.5306421,11.337909 14.7480111,10.1436219 L14.2857143,10.1431838 C13.970123,10.1431838 13.7142857,9.88734647 13.7142857,9.57175518 C13.7142857,9.2561639 13.970123,9.00032661 14.2857143,9.00032661 L14.856818,9.00056483 C14.8570243,8.97954369 14.8571327,8.9585117 14.8571429,8.93746947 C14.8571429,7.26644196 14.2594201,5.73502007 13.2661154,4.54534457 L12.9771429,4.83461232 C12.8321951,4.97956008 12.6209291,5.03616862 12.4229268,4.98311406 C12.2249245,4.9300595 12.0702671,4.77540209 12.0172126,4.57739977 C11.964158,4.37939746 12.0207665,4.16813151 12.1657143,4.02318375 L12.4603602,3.72908116 C11.3960786,2.81679837 10.048936,2.22507412 8.56858739,2.10356354 L8.57142857,2.14318375 L8.57142857,2.14318375 L8.57142857,3.2860409 C8.57142857,3.60163218 8.31559129,3.85746947 8,3.85746947 C7.68440871,3.85746947 7.42857143,3.60163218 7.42857143,3.2860409 L7.42857143,2.14318375 L7.43141261,2.10356354 C5.95106401,2.22507412 4.60392136,2.81679837 3.53963976,3.72908116 L3.83428571,4.02318375 C4.05835553,4.24725356 4.05835553,4.61054251 3.83428571,4.83461232 C3.6102159,5.05868214 3.24692696,5.05868214 3.02285714,4.83461232 L2.73388465,4.54534457 C1.7405799,5.73502007 1.14285714,7.26644196 1.14285714,8.93746947 L1.143,9 L1.71428571,9.00032661 C2.029877,9.00032661 2.28571429,9.2561639 2.28571429,9.57175518 C2.28571429,9.88734647 2.029877,10.1431838 1.71428571,10.1431838 L1.25198891,10.1436219 C1.46935793,11.337909 2.00576052,12.4566339 2.81005414,13.3774041 L3.02285714,13.1660409 C3.24692696,12.9419711 3.6102159,12.9419711 3.83428571,13.1660409 C4.05835553,13.3901107 4.05835553,13.7533997 3.83428571,13.9774695 L3.26285714,14.548898 C3.13093059,14.6808246 2.95074299,14.7350762 2.77912408,14.7116528 L2.74285714,14.7122114 L2.74285714,14.7122114 C2.59049284,14.7122114 2.44443806,14.6513624 2.33714286,14.5431838 C1.03071398,13.2428743 0.248997299,11.5641517 0.051900384,9.80898239 C0.0184154144,9.7367957 0,9.65642601 0,9.57175518 C0,9.52334061 0.00602096402,9.47633231 0.0173549563,9.43143821 C-0.0580804949,8.23832896 0.134868406,7.0190263 0.61609306,5.86816612 C1.85910036,2.89548468 4.77803594,0.971176852 8,1.00032661 Z M11.9009995,6.98077336 C12.0295419,7.1864412 12.0142511,7.45084765 11.8628571,7.64032661 C11.8628571,7.66889804 11.8057143,7.72032661 11.7485714,7.78318375 L11.4457143,8.16032661 C11.1257143,8.54889804 10.8057143,8.93746947 10.4971429,9.30318375 L10.36,9.46318375 C9.91753697,10.040085 9.41148855,10.5653019 8.85142857,11.028898 C8.4547607,11.2772736 7.97133409,11.3456775 7.52132876,11.2171045 C7.07132343,11.0885316 6.69700479,10.7750576 6.49142857,10.3546123 C6.04069582,9.49979887 6.30682189,8.44268698 7.10857143,7.90318375 C7.60349551,7.66304342 8.12526803,7.48272497 8.66285714,7.3660409 L9.23428571,7.21175518 C9.68571429,7.09746947 10.1657143,6.98318375 10.6457143,6.87461232 L11.1085714,6.7660409 L11.2914286,6.7260409 C11.5280879,6.67298654 11.7724571,6.77510553 11.9009995,6.98077336 Z M9.92571429,8.22318375 L9.53142857,8.32032661 L8.96,8.47461232 C8.54075554,8.57356707 8.12996032,8.70540368 7.73142857,8.86889804 C7.43233996,9.08908249 7.33991496,9.49526603 7.51428571,9.82318375 C7.57094866,9.96127053 7.68541173,10.0674945 7.82733912,10.1137034 C7.9692665,10.1599123 8.12432817,10.1414406 8.25142857,10.0631838 C8.702709,9.64863939 9.1211101,9.19967017 9.50285714,8.72032661 L9.64,8.5660409 L9.92571429,8.22318375 Z" id="形状结合" fill="#0C6FFF" fill-rule="nonzero"></path>
                    </g>
                </g>
            </g>
        </g>
    </g>
</svg>