<?xml version="1.0" encoding="UTF-8"?>
<svg width="24px" height="24px" viewBox="0 0 24 24" version="1.1" xmlns="http://www.w3.org/2000/svg" xmlns:xlink="http://www.w3.org/1999/xlink">
    <title>数字</title>
    <g id="页面-1" stroke="none" stroke-width="1" fill="none" fill-rule="evenodd">
        <g id="图标状态" transform="translate(-489.000000, -184.000000)">
            <g id="编组-45备份" transform="translate(343.000000, 154.000000)">
                <g id="编组-44" transform="translate(0.000000, 30.000000)">
                    <g id="数字" transform="translate(146.000000, 0.000000)">
                        <rect id="矩形" stroke="#FFA600" fill="#FEF5EC" x="0.5" y="0.5" width="23" height="23" rx="2"></rect>
                        <path d="M6.276,16.736 L6.276,8.168 L5.292,8.168 C5.004,8.48 4.644,8.756 4.212,9.02 C3.78,9.26 3.384,9.428 3,9.524 L3,10.82 C3.792,10.592 4.452,10.232 4.968,9.74 L4.968,16.736 L6.276,16.736 Z M13.956,16.736 L13.956,15.584 L9.672,15.584 C9.852,15.116 10.404,14.576 11.328,13.964 C12.18,13.388 12.768,12.932 13.104,12.584 C13.656,11.972 13.944,11.3 13.944,10.556 C13.944,9.8 13.68,9.188 13.164,8.708 C12.636,8.228 11.952,8 11.136,8 C10.224,8 9.48,8.3 8.928,8.924 C8.388,9.5 8.112,10.268 8.1,11.228 L9.408,11.228 C9.432,10.532 9.576,10.016 9.864,9.656 C10.14,9.284 10.548,9.104 11.088,9.104 C11.592,9.104 11.988,9.224 12.252,9.464 C12.516,9.704 12.648,10.064 12.648,10.544 C12.648,11.048 12.444,11.516 12.06,11.948 C11.82,12.2 11.412,12.524 10.836,12.932 C9.864,13.604 9.216,14.12 8.904,14.492 C8.328,15.14 8.052,15.884 8.052,16.736 L13.956,16.736 Z M18.24,16.904 C19.152,16.904 19.908,16.64 20.484,16.136 C21.024,15.632 21.3,14.984 21.3,14.192 C21.3,13.688 21.156,13.268 20.868,12.944 C20.604,12.632 20.22,12.392 19.716,12.236 C20.652,11.924 21.132,11.288 21.132,10.352 C21.132,9.62 20.868,9.044 20.364,8.624 C19.836,8.204 19.152,8 18.288,8 C17.448,8 16.764,8.228 16.236,8.708 C15.672,9.188 15.36,9.848 15.288,10.7 L16.572,10.7 C16.62,10.172 16.8,9.776 17.088,9.512 C17.376,9.248 17.784,9.116 18.3,9.116 C18.804,9.116 19.2,9.224 19.464,9.464 C19.704,9.692 19.836,10.016 19.836,10.448 C19.836,10.88 19.692,11.216 19.428,11.444 C19.164,11.672 18.768,11.792 18.24,11.792 L17.628,11.792 L17.628,12.776 L18.252,12.776 C18.816,12.776 19.248,12.896 19.536,13.136 C19.848,13.376 20.004,13.748 20.004,14.252 C20.004,14.684 19.848,15.032 19.56,15.32 C19.224,15.632 18.78,15.8 18.228,15.8 C17.724,15.8 17.316,15.656 17.004,15.368 C16.644,15.056 16.464,14.612 16.44,14.036 L15.12,14.036 C15.192,14.996 15.528,15.728 16.128,16.232 C16.656,16.676 17.364,16.904 18.24,16.904 Z" id="123" fill="#FF9800" fill-rule="nonzero"></path>
                    </g>
                </g>
            </g>
        </g>
    </g>
</svg>