<?xml version="1.0" encoding="UTF-8"?>
<svg width="16px" height="16px" viewBox="0 0 16 16" version="1.1" xmlns="http://www.w3.org/2000/svg" xmlns:xlink="http://www.w3.org/1999/xlink">
    <title>音调-16</title>
    <g id="页面-1" stroke="none" stroke-width="1" fill="none" fill-rule="evenodd">
        <g id="3-3.1-新建视频-视频内容" transform="translate(-352.000000, -612.000000)">
            <g id="编组-15" transform="translate(252.000000, 89.000000)">
                <g id="编组-48" transform="translate(0.000000, 65.000000)">
                    <g id="编组-14" transform="translate(20.000000, 458.000000)">
                        <g id="音调-16" transform="translate(80.000000, 0.000000)">
                            <rect id="矩形" x="0" y="0" width="16" height="16"></rect>
                            <path d="M11.25,10.6 C12.1612698,10.6 12.9,11.3387302 12.9,12.25 L12.9,12.25 L12.9,12.672 L14.8728918,12.6729741 C15.2447552,12.6729741 15.5475113,12.940779 15.5475113,13.2729741 C15.5475113,13.6037058 15.2464007,13.8729741 14.8728918,13.8729741 L12.8955208,13.8725085 C12.8328384,14.7265681 12.1200634,15.4 11.25,15.4 C10.3387302,15.4 9.6,14.6612698 9.6,13.75 L9.6,13.75 L9.6,12.25 C9.6,11.3387302 10.3387302,10.6 11.25,10.6 Z M11.25,11.6 C10.8910149,11.6 10.6,11.9329882 10.6,12.34375 L10.6,12.34375 L10.6,13.65625 C10.6,14.0670118 10.8910149,14.4 11.25,14.4 C11.6089851,14.4 11.9,14.0670118 11.9,13.65625 L11.9,13.65625 L11.9,12.34375 C11.9,11.9329882 11.6089851,11.6 11.25,11.6 Z M7.72357055,12.6729741 C8.09543398,12.6729741 8.39819005,12.940779 8.39819005,13.2729741 C8.39819005,13.6037058 8.09707939,13.8729741 7.72357055,13.8729741 L0.674619498,13.8729741 C0.302756067,13.8729741 1.77635684e-14,13.6037058 1.77635684e-14,13.2729741 C1.77635684e-14,12.9422424 0.301110654,12.6729741 0.674619498,12.6729741 L7.72357055,12.6729741 Z M4.25,5.6 C5.16126984,5.6 5.9,6.33873016 5.9,7.25 L5.9,7.25 L5.9,8.75 C5.9,9.66126984 5.16126984,10.4 4.25,10.4 C3.33873016,10.4 2.6,9.66126984 2.6,8.75 L2.6,8.75 L2.6,8.673 L0.674619498,8.67346771 C0.302756067,8.67346771 1.77635684e-14,8.40419942 1.77635684e-14,8.07346771 C1.77635684e-14,7.742736 0.301110654,7.47346771 0.674619498,7.47346771 L2.6,7.473 L2.6,7.25 C2.6,6.38669173 3.26301544,5.67823902 4.10763168,5.60605648 Z M4.25,6.6 C3.89101491,6.6 3.6,6.93298822 3.6,7.34375 L3.6,7.34375 L3.6,8.65625 C3.6,9.06701178 3.89101491,9.4 4.25,9.4 C4.60898509,9.4 4.9,9.06701178 4.9,8.65625 L4.9,8.65625 L4.9,7.34375 C4.9,6.93298822 4.60898509,6.6 4.25,6.6 Z M14.8712464,7.47346771 C15.2431098,7.47346771 15.5458659,7.74127259 15.5458659,8.07346771 C15.5458659,8.40419942 15.2447552,8.67346771 14.8712464,8.67346771 L7.82229535,8.67346771 C7.45043192,8.67346771 7.14767585,8.40419942 7.14767585,8.07346771 C7.14767585,7.742736 7.44878651,7.47346771 7.82229535,7.47346771 L14.8712464,7.47346771 Z M11.25,0.6 C12.1612698,0.6 12.9,1.33873016 12.9,2.25 L12.9,2.25 L12.9,2.273 L14.8728918,2.27396133 C15.2447552,2.27396133 15.5475113,2.54176621 15.5475113,2.87396133 C15.5475113,3.20469304 15.2464007,3.47396133 14.8728918,3.47396133 L12.9,3.473 L12.9,3.75 C12.9,4.61330827 12.2369846,5.32176098 11.3923683,5.39394352 L11.25,5.4 C10.3387302,5.4 9.6,4.66126984 9.6,3.75 L9.6,3.75 L9.6,2.25 C9.6,1.33873016 10.3387302,0.6 11.25,0.6 Z M11.25,1.6 C10.8910149,1.6 10.6,1.93298822 10.6,2.34375 L10.6,2.34375 L10.6,3.65625 C10.6,4.06701178 10.8910149,4.4 11.25,4.4 C11.6089851,4.4 11.9,4.06701178 11.9,3.65625 L11.9,3.65625 L11.9,2.34375 C11.9,1.93298822 11.6089851,1.6 11.25,1.6 Z M7.72357055,2.27396133 C8.09543398,2.27396133 8.39819005,2.54176621 8.39819005,2.87396133 C8.39819005,3.20469304 8.09707939,3.47396133 7.72357055,3.47396133 L0.674619498,3.47396133 C0.302756067,3.47396133 1.77635684e-14,3.20469304 1.77635684e-14,2.87396133 C1.77635684e-14,2.54322963 0.301110654,2.27396133 0.674619498,2.27396133 L7.72357055,2.27396133 Z" id="形状结合" fill="#0C6FFF" fill-rule="nonzero"></path>
                        </g>
                    </g>
                </g>
            </g>
        </g>
    </g>
</svg>