<?xml version="1.0" encoding="UTF-8"?>
<svg width="24px" height="24px" viewBox="0 0 24 24" version="1.1" xmlns="http://www.w3.org/2000/svg" xmlns:xlink="http://www.w3.org/1999/xlink">
    <title>静音-不可用</title>
    <g id="页面-1" stroke="none" stroke-width="1" fill="none" fill-rule="evenodd">
        <g id="3-3.1-新建视频-视频内容" transform="translate(-316.000000, -678.000000)">
            <g id="编组-15" transform="translate(252.000000, 89.000000)">
                <g id="编组-48" transform="translate(0.000000, 65.000000)">
                    <g id="编组-45" transform="translate(20.000000, 494.000000)">
                        <g id="编组-44" transform="translate(0.000000, 30.000000)">
                            <g id="静音-不可用" transform="translate(44.000000, 0.000000)">
                                <rect id="矩形" stroke="#CCCCCC" fill="#FFFFFF" x="0.5" y="0.5" width="23" height="23" rx="2"></rect>
                                <g id="静音-(1)" transform="translate(4.000000, 5.000000)" fill="#CCCCCC" fill-rule="nonzero">
                                    <path d="M10.0935808,0.288356089 C9.61555305,-0.0303885663 9.01359886,-0.0886018759 8.48342918,0.132287277 C8.45360825,0.144787068 8.42485873,0.159608248 8.39753776,0.176929386 L3.12280478,3.51776622 C2.85620211,3.68669196 2.77691772,4.03972176 2.94584346,4.30632443 C3.1147692,4.5729271 3.467799,4.65221149 3.73440167,4.48328575 L8.96109974,1.17298411 C9.12966834,1.11566365 9.30948676,1.13905611 9.45984138,1.23941157 C9.62144581,1.34708834 9.71412283,1.52047829 9.71412283,1.71476074 L9.71412283,12.0003026 C9.71412283,12.194585 9.62144581,12.367975 9.45966281,12.4758303 C9.30930819,12.5760072 9.12966834,12.5993997 8.96092117,12.5422578 L3.83636424,9.2965979 C3.73261598,9.19088538 3.58815412,9.12535077 3.42851394,9.12535077 L1.71425697,9.12535077 C1.39908368,9.12535077 1.14283798,8.8689265 1.14283798,8.55393178 L1.14283798,5.14327468 C1.14283798,4.82774426 0.886949413,4.57185569 0.57141899,4.57185569 C0.255888566,4.57185569 0,4.82774426 0,5.14327468 L0,8.55393178 C0,9.4990945 0.769094247,10.2681887 1.71425697,10.2681887 L3.23458862,10.2681887 L8.39735919,13.5379554 C8.42468016,13.5552765 8.45342968,13.5702762 8.48325061,13.5825975 C8.69234789,13.6698628 8.91666304,13.7149167 9.14323954,13.7149167 C9.47644824,13.7149167 9.80733555,13.6174183 10.0935808,13.4265286 C10.5716085,13.1079626 10.8569608,12.5747572 10.8569608,12.0003026 L10.8569608,1.71476074 C10.8569608,1.14030609 10.5716085,0.607100744 10.0935808,0.288356089 Z M14.524935,6.85485313 L15.8324131,5.54737505 C16.0556236,5.32416451 16.0556236,4.96238486 15.8324131,4.73935288 C15.6092026,4.51614234 15.2474229,4.51614234 15.0242124,4.73935288 L13.7156629,6.04790237 L12.4033635,4.73881718 C12.1799743,4.51596377 11.8181947,4.51632091 11.5953413,4.73988859 C11.3724879,4.9632777 11.372845,5.32505735 11.5964127,5.54791075 L12.9078193,6.85592454 L11.595877,8.16786682 C11.3726664,8.39107737 11.3726664,8.75285701 11.595877,8.97606756 C11.7074823,9.08767283 11.8537298,9.14338618 11.9999774,9.14338618 C12.1462249,9.14338618 12.2924725,9.08767283 12.4040777,8.97606756 L13.7169129,7.66323243 L15.0249266,8.96785341 C15.1365319,9.07910154 15.2824223,9.13463633 15.4284913,9.13463633 C15.5749174,9.13463633 15.7215221,9.07874441 15.8331274,8.966782 C16.0559808,8.74339289 16.0556236,8.38161324 15.832056,8.15875983 L14.524935,6.85485313 L14.524935,6.85485313 Z" id="形状"></path>
                                </g>
                            </g>
                        </g>
                    </g>
                </g>
            </g>
        </g>
    </g>
</svg>