<?xml version="1.0" encoding="UTF-8"?>
<svg width="24px" height="24px" viewBox="0 0 24 24" version="1.1" xmlns="http://www.w3.org/2000/svg" xmlns:xlink="http://www.w3.org/1999/xlink">
    <title>撤销-不可用</title>
    <g id="页面-1" stroke="none" stroke-width="1" fill="none" fill-rule="evenodd">
        <g id="3-3.1-新建视频-视频内容" transform="translate(-428.000000, -678.000000)">
            <g id="编组-15" transform="translate(252.000000, 89.000000)">
                <g id="编组-48" transform="translate(0.000000, 65.000000)">
                    <g id="编组-45" transform="translate(20.000000, 494.000000)">
                        <g id="编组-44" transform="translate(0.000000, 30.000000)">
                            <g id="撤销-不可用" transform="translate(156.000000, 0.000000)">
                                <rect id="矩形" fill="#FFFFFF" x="0" y="0" width="24" height="24" rx="2"></rect>
                                <path d="M20,2.4 C20.8836556,2.4 21.6,3.1163444 21.6,4 L21.6,10.0121198 C21.6,10.3434906 21.3313708,10.6121198 21,10.6121198 C20.6686292,10.6121198 20.4,10.3434906 20.4,10.0121198 L20.4,4 C20.4,3.7790861 20.2209139,3.6 20,3.6 L4,3.6 C3.7790861,3.6 3.6,3.7790861 3.6,4 L3.6,20 C3.6,20.2209139 3.7790861,20.4 4,20.4 L9.04903748,20.4 C9.38040833,20.4 9.64903748,20.6686292 9.64903748,21 C9.64903748,21.3313708 9.38040833,21.6 9.04903748,21.6 L4,21.6 C3.1163444,21.6 2.4,20.8836556 2.4,20 L2.4,4 C2.4,3.1163444 3.1163444,2.4 4,2.4 L20,2.4 Z M10.3315392,14.6469721 L12.2171573,16.5325902 C12.4514719,16.7669048 12.4514719,17.1468037 12.2171573,17.3811183 C11.9828427,17.6154329 11.6029437,17.6154329 11.3686292,17.3811183 L9.48301107,15.4955002 C8.72799744,14.7404866 8.72799744,13.5163676 9.48301107,12.761354 L11.3686292,10.8757359 C11.6029437,10.6414214 11.9828427,10.6414214 12.2171573,10.8757359 C12.4514719,11.1100505 12.4514719,11.4899495 12.2171573,11.7242641 L10.54,13.4 L20,13.4 C20.8836556,13.4 21.6,14.1163444 21.6,15 L21.6,20 C21.6,20.8836556 20.8836556,21.6 20,21.6 L13,21.6 C12.6686292,21.6 12.4,21.3313708 12.4,21 C12.4,20.6686292 12.6686292,20.4 13,20.4 L20,20.4 C20.2209139,20.4 20.4,20.2209139 20.4,20 L20.4,15 C20.4,14.7790861 20.2209139,14.6 20,14.6 L10.2899587,14.6018161 C10.3030741,14.6172994 10.3169342,14.6323671 10.3315392,14.6469721 Z" id="形状结合" fill="#CCCCCC" fill-rule="nonzero"></path>
                            </g>
                        </g>
                    </g>
                </g>
            </g>
        </g>
    </g>
</svg>