<?xml version="1.0" encoding="UTF-8"?>
<svg width="24px" height="24px" viewBox="0 0 24 24" version="1.1" xmlns="http://www.w3.org/2000/svg" xmlns:xlink="http://www.w3.org/1999/xlink">
    <title>重做不可用</title>
    <g id="页面-1" stroke="none" stroke-width="1" fill="none" fill-rule="evenodd">
        <g id="3-3.1-新建视频-视频内容" transform="translate(-476.000000, -678.000000)">
            <g id="编组-15" transform="translate(252.000000, 89.000000)">
                <g id="编组-48" transform="translate(0.000000, 65.000000)">
                    <g id="编组-45" transform="translate(20.000000, 494.000000)">
                        <g id="编组-44" transform="translate(0.000000, 30.000000)">
                            <g id="编组-46" transform="translate(156.000000, 0.000000)">
                                <g id="编组-63备份-2" transform="translate(48.000000, 0.000000)">
                                    <g id="重做不可用" transform="translate(12.000000, 12.000000) scale(-1, 1) translate(-12.000000, -12.000000) ">
                                        <rect id="矩形" fill="#FFFFFF" x="0" y="0" width="24" height="24" rx="2"></rect>
                                        <path d="M20,2.4 C20.8345636,2.4 21.5198898,3.03896152 21.5934613,3.85436739 L21.6,4 L21.6,10.0121198 C21.6,10.3434906 21.3313708,10.6121198 21,10.6121198 C20.7017662,10.6121198 20.4543532,10.3945302 20.407853,10.1094429 L20.4,10.0121198 L20.4,4 C20.4,3.80670034 20.2628872,3.64542508 20.080614,3.60812658 L20,3.6 L4,3.6 C3.80670034,3.6 3.64542508,3.7371128 3.60812658,3.91938605 L3.6,4 L3.6,20 C3.6,20.1932997 3.7371128,20.3545749 3.91938605,20.3918734 L4,20.4 L9.04903748,20.4 C9.38040833,20.4 9.64903748,20.6686292 9.64903748,21 C9.64903748,21.2982338 9.43144787,21.5456468 9.1463606,21.592147 L9.04903748,21.6 L4,21.6 C3.16543638,21.6 2.48011021,20.9610385 2.40653868,20.1456326 L2.4,20 L2.4,4 C2.4,3.16543638 3.03896152,2.48011021 3.85436739,2.40653868 L4,2.4 L20,2.4 Z M10.3315392,14.6469721 L12.2171573,16.5325902 C12.4514719,16.7669048 12.4514719,17.1468037 12.2171573,17.3811183 C12.0062742,17.5920014 11.6774677,17.6130897 11.4429999,17.4443833 L11.3686292,17.3811183 L9.48301107,15.4955002 C8.76395047,14.7764396 8.72970949,13.6318867 9.38028812,12.872303 L9.48301107,12.761354 L11.3686292,10.8757359 C11.6029437,10.6414214 11.9828427,10.6414214 12.2171573,10.8757359 C12.4280404,11.086619 12.4491287,11.4154255 12.2804222,11.6498933 L12.2171573,11.7242641 L10.54,13.4 L20,13.4 C20.8345636,13.4 21.5198898,14.0389615 21.5934613,14.8543674 L21.6,15 L21.6,20 C21.6,20.8345636 20.9610385,21.5198898 20.1456326,21.5934613 L20,21.6 L13,21.6 C12.6686292,21.6 12.4,21.3313708 12.4,21 C12.4,20.7017662 12.6175896,20.4543532 12.9026769,20.407853 L13,20.4 L20,20.4 C20.1932997,20.4 20.3545749,20.2628872 20.3918734,20.080614 L20.4,20 L20.4,15 C20.4,14.8067003 20.2628872,14.6454251 20.080614,14.6081266 L20,14.6 L10.291,14.6 L10.3315392,14.6469721 Z" id="形状结合" fill="#CCCCCC" fill-rule="nonzero"></path>
                                    </g>
                                </g>
                            </g>
                        </g>
                    </g>
                </g>
            </g>
        </g>
    </g>
</svg>