<?xml version="1.0" encoding="UTF-8"?>
<svg width="16px" height="16px" viewBox="0 0 16 16" version="1.1" xmlns="http://www.w3.org/2000/svg" xmlns:xlink="http://www.w3.org/1999/xlink">
    <title>音量-16</title>
    <g id="页面-1" stroke="none" stroke-width="1" fill="none" fill-rule="evenodd">
        <g id="3-3.1-新建视频-视频内容" transform="translate(-312.000000, -612.000000)">
            <g id="编组-15" transform="translate(252.000000, 89.000000)">
                <g id="编组-48" transform="translate(0.000000, 65.000000)">
                    <g id="编组-14" transform="translate(20.000000, 458.000000)">
                        <g id="音量-16" transform="translate(40.000000, 0.000000)">
                            <rect id="矩形" x="0" y="0" width="16" height="16"></rect>
                            <path d="M8,15.5367719 C7.71428571,15.5367719 7.4,15.4224862 7.2,15.1939148 L3.2,11.1939148 L1.71428571,11.1939148 C0.771428571,11.1939148 0,10.4224862 0,9.47962909 L0,6.05105766 C0,5.10820052 0.771428571,4.33677194 1.71428571,4.33677194 L3.2,4.33677194 L7.2,0.336771945 C7.51428571,0.0224862306 8.02857143,-0.0917994836 8.45714286,0.0796290878 C8.85714286,0.279629088 9.14285714,0.679629088 9.14285714,1.13677194 L9.14285714,14.3653434 C9.14285714,14.8224862 8.85714286,15.2510577 8.42857143,15.4224862 C8.28571429,15.5082005 8.14285714,15.5367719 8,15.5367719 Z M1.71428571,5.47962909 C1.4,5.47962909 1.14285714,5.73677194 1.14285714,6.05105766 L1.14285714,9.47962909 C1.14285714,9.7939148 1.4,10.0510577 1.71428571,10.0510577 L3.42857143,10.0510577 C3.57142857,10.0510577 3.71428571,10.1082005 3.82857143,10.2224862 L8,14.3939148 L8,1.13677194 L3.82857143,5.30820052 C3.71428571,5.42248623 3.57142857,5.47962909 3.42857143,5.47962909 L1.71428571,5.47962909 Z M13.1428571,13.1939148 C12.9714286,13.1939148 12.8285714,13.1367719 12.7142857,12.9939148 C12.5142857,12.7367719 12.5428571,12.3939148 12.8,12.1939148 C14.0857143,11.0796291 14.8571429,9.47962909 14.8571429,7.76534337 C14.8571429,6.05105766 14.0857143,4.45105766 12.7714286,3.36534337 C12.5142857,3.16534337 12.4857143,2.7939148 12.6857143,2.56534337 C12.8857143,2.30820052 13.2571429,2.27962909 13.4857143,2.47962909 C15.0857143,3.7939148 16,5.70820052 16,7.76534337 C16,9.82248623 15.0857143,11.7367719 13.5142857,13.0510577 C13.4,13.1367719 13.2571429,13.1939148 13.1428571,13.1939148 Z M10.8571429,10.6224862 C10.6857143,10.6224862 10.5142857,10.5367719 10.4,10.3939148 C10.2,10.1367719 10.2571429,9.7939148 10.5142857,9.5939148 C11.0857143,9.16534337 11.4285714,8.47962909 11.4285714,7.76534337 C11.4285714,7.05105766 11.0857143,6.36534337 10.5142857,5.93677194 C10.2571429,5.73677194 10.2,5.3939148 10.4,5.13677194 C10.6,4.87962909 10.9428571,4.82248623 11.2,5.02248623 C12.0571429,5.67962909 12.5714286,6.67962909 12.5714286,7.76534337 C12.5714286,8.85105766 12.0857143,9.85105766 11.2,10.5082005 C11.0857143,10.5939148 10.9714286,10.6224862 10.8571429,10.6224862 L10.8571429,10.6224862 Z" id="形状" fill="#0C6FFF" fill-rule="nonzero"></path>
                        </g>
                    </g>
                </g>
            </g>
        </g>
    </g>
</svg>