<svg width="12" height="13" viewBox="0 0 12 13" fill="none" xmlns="http://www.w3.org/2000/svg">
<g id="&#233;&#147;&#190;&#230;&#142;&#165;">
<path id="&#229;&#189;&#162;&#231;&#138;&#182;&#231;&#187;&#147;&#229;&#144;&#136;" fill-rule="evenodd" clip-rule="evenodd" d="M4.88731 7.75783C5.38903 8.27622 6.08197 8.56576 6.80369 8.55858L6.80679 8.54851C7.52671 8.54666 8.21628 8.25852 8.72317 7.74775L11.2059 5.26718C12.2609 4.2086 12.2609 2.49716 11.2059 1.43858C10.7042 0.920266 10.0113 0.630735 9.28955 0.637822C8.56963 0.639674 7.88006 0.927808 7.37317 1.43858L5.27834 3.53156C5.06517 3.74112 5.06239 4.08367 5.27214 4.29666C5.48188 4.50965 5.82473 4.51242 6.03791 4.30286L8.13274 2.20988C8.44446 1.91443 8.8568 1.74821 9.28645 1.74478C9.71784 1.73918 10.1335 1.90673 10.4402 2.20988C10.7359 2.52133 10.9022 2.9333 10.9057 3.36257C10.9113 3.79358 10.7436 4.20883 10.4402 4.51526L7.95739 6.99583C7.31556 7.6211 6.29181 7.6211 5.64998 6.99583C5.43937 6.78541 5.09791 6.78541 4.88731 6.99583C4.6767 7.20625 4.6767 7.54741 4.88731 7.75783ZM2.71798 12.6376C1.99626 12.6447 1.30332 12.3552 0.801596 11.8368C0.290372 11.3304 0.0019837 10.6414 0.000130491 9.92212C-0.00705452 9.20104 0.282746 8.50871 0.801596 8.00743L3.28436 5.52686C3.79125 5.01609 4.48081 4.72796 5.20074 4.7261C5.92244 4.71902 6.61534 5.00855 7.11711 5.52686C7.2185 5.63022 7.27436 5.76975 7.27229 5.91445C7.26695 6.05768 7.21211 6.19464 7.11711 6.30204C7.01703 6.40505 6.87947 6.46318 6.73578 6.46318C6.59209 6.46318 6.45453 6.40505 6.35444 6.30204C5.71261 5.67677 4.68886 5.67677 4.04703 6.30204L1.56427 8.78261C1.26085 9.08904 1.09315 9.50428 1.09875 9.9353C1.10218 10.3646 1.26856 10.7765 1.56427 11.088C1.87097 11.3911 2.28658 11.5587 2.71798 11.5531C3.14763 11.5497 3.55996 11.3834 3.87168 11.088L5.96651 8.99501C6.17712 8.78458 6.51858 8.78458 6.72918 8.99501C6.93979 9.20543 6.93979 9.54659 6.72918 9.757L4.63436 11.85C4.12435 12.3545 3.43567 12.6375 2.71798 12.6376Z" fill="white"/>
</g>
</svg>
