<?xml version="1.0" encoding="UTF-8"?>
<svg width="22px" height="19px" viewBox="0 0 22 19" version="1.1" xmlns="http://www.w3.org/2000/svg" xmlns:xlink="http://www.w3.org/1999/xlink">
    <title>勾选</title>
    <g id="页面-1" stroke="none" stroke-width="1" fill="none" fill-rule="evenodd">
        <g id="素材看板" transform="translate(-455.000000, -335.000000)">
            <g id="勾选" transform="translate(455.770468, 335.000000)">
                <path d="M13.2295318,0 C17.6478098,-8.11624501e-16 21.2295318,3.581722 21.2295318,8 L21.2296447,18.378583 C11.3999911,16.3107274 3.40350879,9.26476534 -1.02555677e-14,0.000498933276 L13.2295318,0 Z" id="形状结合" fill="#00A3FF"></path>
                <g transform="translate(7.229532, 3.000000)">
                    <rect id="矩形" x="0" y="0" width="10" height="8"></rect>
                    <path d="M0.292893219,2.70710678 C0.683417511,2.31658249 1.31658249,2.31658249 1.70710678,2.70710678 L3.82842712,4.82842712 L7.36396103,1.29289322 C7.72659073,0.930263519 8.29843612,0.904361398 8.69095378,1.21518685 L8.77817459,1.29289322 C9.16869888,1.68341751 9.16869888,2.31658249 8.77817459,2.70710678 L4.53553391,6.94974747 C4.14500961,7.34027176 3.51184464,7.34027176 3.12132034,6.94974747 L0.292893219,4.12132034 C-0.0976310729,3.73079605 -0.0976310729,3.09763107 0.292893219,2.70710678 Z" id="路径" fill="#FFFFFF" fill-rule="nonzero"></path>
                </g>
            </g>
        </g>
    </g>
</svg>