<?xml version="1.0" encoding="UTF-8"?>
<svg width="392px" height="238px" viewBox="0 0 392 238" version="1.1" xmlns="http://www.w3.org/2000/svg" xmlns:xlink="http://www.w3.org/1999/xlink">
    <title>缺省图</title>
    <defs>
        <linearGradient x1="52.8076724%" y1="28.7578116%" x2="48.3829261%" y2="69.9911693%" id="linearGradient-1">
            <stop stop-color="#DCDCE4" offset="0%"></stop>
            <stop stop-color="#DEDEE6" stop-opacity="0" offset="100%"></stop>
        </linearGradient>
        <linearGradient x1="54.2399413%" y1="28.6646144%" x2="47.6877961%" y2="69.4425292%" id="linearGradient-2">
            <stop stop-color="#DCDCE4" offset="0%"></stop>
            <stop stop-color="#DEDEE6" stop-opacity="0" offset="100%"></stop>
        </linearGradient>
        <linearGradient x1="51.9773551%" y1="32.1204554%" x2="48.9217714%" y2="66.872232%" id="linearGradient-3">
            <stop stop-color="#DCDCE4" offset="0%"></stop>
            <stop stop-color="#DEDEE6" stop-opacity="0" offset="100%"></stop>
        </linearGradient>
        <linearGradient x1="52.6751359%" y1="30.1803354%" x2="48.451991%" y2="68.2498076%" id="linearGradient-4">
            <stop stop-color="#DCDCE4" offset="0%"></stop>
            <stop stop-color="#DEDEE6" stop-opacity="0" offset="100%"></stop>
        </linearGradient>
        <linearGradient x1="50.0005288%" y1="2.7880989%" x2="50.0005288%" y2="97.9038041%" id="linearGradient-5">
            <stop stop-color="#ECECF3" offset="0%"></stop>
            <stop stop-color="#FFFFFF" offset="51.2%"></stop>
            <stop stop-color="#F4F4F7" offset="100%"></stop>
        </linearGradient>
        <linearGradient x1="56.2907725%" y1="100%" x2="56.2907725%" y2="14.3434773%" id="linearGradient-6">
            <stop stop-color="#CBCBD6" offset="0%"></stop>
            <stop stop-color="#F8F8FC" offset="100%"></stop>
        </linearGradient>
        <linearGradient x1="49.9990182%" y1="2.59421869%" x2="49.9990182%" y2="107.566338%" id="linearGradient-7">
            <stop stop-color="#D0D0DA" offset="0%"></stop>
            <stop stop-color="#F8F8FA" stop-opacity="0" offset="100%"></stop>
        </linearGradient>
        <linearGradient x1="52.9822961%" y1="100%" x2="52.9822961%" y2="9.13669575%" id="linearGradient-8">
            <stop stop-color="#CBCBD7" offset="0%"></stop>
            <stop stop-color="#F8F8FB" offset="100%"></stop>
        </linearGradient>
        <linearGradient x1="38.7241116%" y1="95.3400235%" x2="35.195207%" y2="2.99282289%" id="linearGradient-9">
            <stop stop-color="#66BDFF" offset="0%"></stop>
            <stop stop-color="#33A7FF" offset="100%"></stop>
        </linearGradient>
        <linearGradient x1="51.9160421%" y1="27.80417%" x2="50.4972989%" y2="47.6104031%" id="linearGradient-10">
            <stop stop-color="#FFD2C4" offset="0%"></stop>
            <stop stop-color="#FFB8A3" offset="100%"></stop>
        </linearGradient>
        <linearGradient x1="4.21219451%" y1="18.9265719%" x2="86.4667612%" y2="85.9531294%" id="linearGradient-11">
            <stop stop-color="#FFC552" offset="0%"></stop>
            <stop stop-color="#F5B32F" offset="100%"></stop>
        </linearGradient>
        <linearGradient x1="12.7727026%" y1="47.1688771%" x2="65.6905686%" y2="64.3114964%" id="linearGradient-12">
            <stop stop-color="#FED686" offset="0%"></stop>
            <stop stop-color="#FFD786" offset="100%"></stop>
        </linearGradient>
        <linearGradient x1="50.0002725%" y1="2.83536568%" x2="50.0002725%" y2="97.0445969%" id="linearGradient-13">
            <stop stop-color="#FFD685" stop-opacity="0.039" offset="0%"></stop>
            <stop stop-color="#DEAA43" offset="100%"></stop>
        </linearGradient>
        <linearGradient x1="49.9993605%" y1="2.44656189e-13%" x2="49.9993605%" y2="96.987174%" id="linearGradient-14">
            <stop stop-color="#EFEFF3" offset="0%"></stop>
            <stop stop-color="#CBCBD6" offset="100%"></stop>
        </linearGradient>
    </defs>
    <g id="自媒体运营" stroke="none" stroke-width="1" fill="none" fill-rule="evenodd">
        <g id="保护期设置" transform="translate(-636.000000, -507.000000)">
            <g id="编组-4" transform="translate(636.000000, 507.000000)">
                <g id="编组" transform="translate(0.000000, 0.000000)">
                    <path d="M49.4960099,161.292613 C61.5942455,162.138214 71.4413769,169.462893 74.7374986,178.99746 C85.6914981,180.314126 93.7990812,190.000567 93.0207945,201.115648 L92.9189987,202.567456 C92.1162294,214.037767 82.1569938,222.685547 70.6733986,221.88242 L19.3889405,218.300522 C7.90663381,217.498681 -0.751162018,207.550966 0.0516072627,196.081943 L0.154691601,194.630135 C0.948441002,183.278234 10.7118164,174.690945 22.0446507,175.293291 C26.6447893,166.322458 37.4093713,160.448299 49.4960099,161.292613 Z" id="路径" fill="url(#linearGradient-1)" fill-rule="nonzero" opacity="0.34"></path>
                    <path d="M136.777519,97.8661182 C145.446912,98.7760722 152.250478,104.454597 153.881788,111.427908 C161.11702,112.655766 166.245465,119.308598 165.468467,126.701491 C164.657967,134.395558 157.757759,139.977553 150.054782,139.16799 L114.721336,135.458672 C107.018359,134.650396 101.429899,127.756884 102.2404,120.064104 C103.035438,112.509041 109.701129,106.991399 117.234017,107.558994 C120.28789,101.088925 128.118434,96.9574513 136.777519,97.8661182 L136.777519,97.8661182 Z" id="路径" fill="url(#linearGradient-2)" fill-rule="nonzero" opacity="0.34"></path>
                    <path d="M287.856636,61.2684643 C297.15742,61.7562614 304.743139,67.1426227 306.844771,74.0760344 C313.648337,75.3463661 318.627311,81.4830855 318.254918,88.576093 C317.850312,96.3023359 311.250338,102.236986 303.516435,101.831561 L263.501672,99.7375087 C255.76777,99.3320837 249.826246,92.7410309 250.230852,85.0160751 C250.636747,77.2898322 257.235433,71.3551819 264.970624,71.7606069 L267.683031,71.9021839 C270.54491,65.2918252 278.611259,60.7845284 287.856636,61.2684643 Z" id="路径" fill="url(#linearGradient-3)" fill-rule="nonzero" opacity="0.34"></path>
                    <path d="M335.375938,164.278601 C349.633791,165.273501 361.331286,173.600802 365.734276,184.58589 L368.355195,184.76994 C382.357914,185.748109 392.916327,197.878683 391.937026,211.866491 L391.761783,214.381413 C390.782482,228.36922 378.636569,238.914133 364.633851,237.937251 L298.693377,233.330851 C284.690658,232.352682 274.132245,220.220821 275.111546,206.2343 L275.286789,203.718091 C276.266091,189.731571 288.412003,179.185371 302.414721,180.16354 L302.484303,180.167401 C308.374285,169.901782 321.119375,163.282413 335.375938,164.278601 L335.375938,164.278601 Z" id="路径" fill="url(#linearGradient-4)" fill-rule="nonzero" opacity="0.302"></path>
                    <path d="M134.326689,76.4274996 C132.74821,85.1010213 132.535598,92.3845143 133.688854,98.2754044 C135.418094,107.112383 144.587446,118.016386 153.247819,126.888116 C161.908192,135.759845 172.891828,143.600637 172.891828,145.590437 C172.891828,147.57895 157.098019,159.087873 147.543389,170.065239 C137.990048,181.042604 132.048525,189.546234 132.048525,198.724284 C132.048525,204.842985 133.039423,210.148261 135.022508,214.638826 L231.242717,214.638826 C233.532478,211.153458 234.447352,205.848181 233.988627,198.724284 C233.300539,188.039082 226.22251,176.546891 214.76984,165.044404 C203.31717,153.540629 193.752232,148.401384 193.752232,145.590437 C193.752232,142.778203 208.565452,131.910238 215.737544,123.885396 C222.908349,115.860555 233.47707,104.499644 233.988627,92.2892716 C234.330093,84.1498813 233.692259,78.8626239 232.076412,76.4274996 L134.326689,76.4274996 L134.326689,76.4274996 Z" id="路径" fill="url(#linearGradient-5)" fill-rule="nonzero"></path>
                    <path d="M240.414646,58.2348554 L128.020504,58.2348554 C125.512445,58.2355661 123.479639,60.2665969 123.479639,62.7717546 L123.479639,71.842979 C123.479639,74.3479284 125.512654,76.3785912 128.020504,76.3785912 L240.414646,76.3785912 C242.922497,76.3785912 244.955511,74.3479284 244.955511,71.842979 L244.955511,62.7717546 C244.955511,60.2665969 242.922705,58.2355661 240.414646,58.2348554 L240.414646,58.2348554 Z" id="路径" fill="url(#linearGradient-6)" fill-rule="nonzero"></path>
                    <path d="M150.115344,123.360274 C164.25336,127.646196 174.693227,129.78787 181.432365,129.78787 C188.171504,129.78787 199.606134,127.646196 215.734967,123.360274 C215.128058,124.263793 212.472348,126.957617 207.766548,131.441747 C200.709137,138.169228 197.279005,140.61851 193.982884,144.206844 C190.68805,147.795177 188.590284,148.437422 188.35319,152.580479 C188.2282,154.773636 185.883032,174.311262 185.883032,185.574355 C185.883032,193.083084 190.072121,199.119413 198.447724,203.68334 L164.052346,203.155644 C175.112007,199.497809 180.642482,193.636522 180.642482,185.574355 C180.642482,173.479818 179.118122,154.581863 178.919685,152.580479 C178.543427,148.802948 177.066744,148.182583 173.461369,144.964924 C171.596831,143.300751 166.772484,139.547673 161.274223,134.317047 C159.097855,132.247449 155.377799,128.594762 150.115344,123.360274 L150.115344,123.360274 Z" id="路径" fill="url(#linearGradient-7)" fill-rule="nonzero"></path>
                    <path d="M240.414646,213.589869 L128.020504,213.589869 C125.512654,213.589869 123.479639,215.620532 123.479639,218.125481 L123.479639,227.197993 C123.479639,229.702942 125.512654,231.733605 128.020504,231.733605 L240.414646,231.733605 C242.922497,231.733605 244.955511,229.702942 244.955511,227.197993 L244.955511,218.125481 C244.955511,215.620532 242.922497,213.589869 240.414646,213.589869 L240.414646,213.589869 Z" id="路径" fill="url(#linearGradient-8)" fill-rule="nonzero"></path>
                    <path d="M186.389433,82.0970148 L185.612435,83.4175421 L187.562018,84.4433318 L188.556782,82.3093803 L186.389433,82.0970148 Z M190.693205,79.4868498 L190.012848,80.7185697 L192.00753,81.8280185 L193.002294,79.694067 L190.693205,79.4868498 L190.693205,79.4868498 Z" id="形状" fill="#FFB8A3" fill-rule="nonzero"></path>
                    <path d="M188.201141,84.001869 C188.255894,83.9992406 188.310059,84.0141189 188.355767,84.0443421 C189.0838,84.6055018 189.635302,85.216857 190.033465,85.5115946 C190.689339,85.9981046 191.261457,86.4974853 191.685391,86.7793522 C192.109326,87.0612192 192.906941,87.4550606 193.249696,87.8360315 C193.502558,88.0975237 193.607108,88.4683435 193.528024,88.8232092 C193.500964,88.9647862 193.519004,89.2247731 193.392726,89.5568355 C193.343761,89.6842548 193.245831,89.8065259 193.137592,89.7859328 C191.136467,89.4088232 189.131477,88.6172791 188.007858,88.1719551 C186.898412,87.7317793 185.215561,87.1062664 183.75434,86.5373843 C183.603579,86.4794664 183.548171,86.2748233 183.611311,86.1023568 C183.983703,85.1010213 184.188583,84.5656028 184.4231,84.1949285 C184.64602,83.840986 184.856054,83.3930879 185.295451,82.9979593 C185.370187,82.9323191 185.473271,82.8641047 185.538988,82.9361803 L186.076315,83.5333778 C186.402319,83.8937556 187.024691,84.0211749 187.29271,84.0597868 C187.471819,84.084241 187.774629,84.0649351 188.201141,84.001869 L188.201141,84.001869 Z M192.753603,81.0068719 C192.802501,81.0061232 192.850358,81.021005 192.89019,81.049345 C193.526735,81.575754 194.000923,82.140775 194.348833,82.4187807 C194.92224,82.8744012 195.419621,83.3403183 195.790725,83.6067404 C196.161829,83.8718755 196.865379,84.2502722 197.160458,84.6029277 C197.456826,84.954296 197.4259,85.2915067 197.379512,85.4961498 C197.349876,85.622282 197.358896,85.8565276 197.233906,86.1499781 C197.186229,86.2632397 197.096031,86.370066 196.9981,86.3481859 C195.21603,85.9466221 193.442979,85.175671 192.449504,84.7406435 C191.468914,84.3107642 189.978057,83.6968349 188.685637,83.1421105 C188.552916,83.0841926 188.509105,82.8988554 188.572244,82.7469819 C188.936905,81.8601951 189.13792,81.3865557 189.359551,81.0622157 C189.570874,80.7507463 189.773177,80.3569048 190.18036,80.0158329 C190.248653,79.9592021 190.342718,79.9012843 190.399414,79.9682116 L190.863294,80.5203619 C191.14291,80.8537114 191.698277,80.987566 191.936659,81.0300391 C192.09644,81.0583545 192.368325,81.0506321 192.753603,81.0068719 L192.753603,81.0068719 Z" id="形状" fill="#3E3E6E"></path>
                    <path d="M195.557497,50.9565107 C198.693838,52.0595242 201.256772,53.1908531 203.247588,54.3479233 C206.233169,56.0841721 208.553855,59.1602541 207.743354,61.6185456 C206.931565,64.0768371 202.567232,69.5339869 199.597114,73.1815251 C197.540152,75.694419 195.395094,78.1340631 193.16594,80.4959077 C193.015211,80.6563522 192.785085,80.7150717 192.575782,80.6464941 L190.514096,79.9746469 C191.959972,77.6959791 193.428135,75.4314968 194.918374,73.1815251 C198.603639,67.6432904 201.057046,63.9030836 200.603475,62.3470236 C200.142173,60.7626483 197.553467,59.0238254 193.632397,56.0326896 C192.441773,55.1240226 190.292464,53.5229155 187.183183,51.2306552 L195.557497,50.9565107 L195.557497,50.9565107 Z" id="路径" fill="#0082E5" fill-rule="nonzero"></path>
                    <path d="M174.610759,54.6001878 C176.449526,58.0598147 178.436477,60.2413876 180.571611,61.1449062 C183.773668,62.5001842 190.903239,61.7845768 191.342636,64.5697825 C191.780744,67.3549882 190.903239,71.7940706 188.552916,76.8046092 C187.148392,79.7996063 186.237384,81.696738 185.819893,82.4985786 C185.789326,82.5572926 185.785994,82.6264216 185.810771,82.6877973 C185.835548,82.7491731 185.885956,82.7966573 185.948748,82.8177704 L188.073574,83.538526 C188.171512,83.5719182 188.27966,83.5348516 188.336439,83.4484316 L198.74538,67.6664576 C200.77743,64.1656445 201.515772,61.7922992 200.960405,60.5425605 C200.33159,59.1267905 198.74538,57.559147 195.677332,55.5590501 C193.337318,54.0325927 189.911052,52.3658453 188.552916,51.7969632 C185.203964,50.3953509 178.924839,49.5214347 178.924839,49.5366781 C178.924839,49.547176 177.486812,51.2358035 174.610759,54.6001878 L174.610759,54.6001878 Z" id="路径" fill="url(#linearGradient-9)"></path>
                    <path d="M223.839973,4.87062383 C222.480549,1.84345021 219.695983,3.12665264 219.091651,4.4510411 C218.487319,5.77671662 219.119999,6.84884061 218.225743,7.47821472 C217.330198,8.10887589 210.275363,13.270001 206.800132,14.2031221 C204.483312,14.8247738 198.617813,15.53652 189.206213,16.3396477 C188.813204,14.5686482 189.262909,13.6831484 190.554041,13.6831484 C192.583514,13.6831484 193.27289,10.7229021 193.084761,8.05224509 C192.700772,2.62083664 192.061649,1.29773524 189.506446,1.29773524 C186.951243,1.29773524 184.259453,1.42386748 183.769803,4.4510411 C183.280152,7.47821472 183.135834,9.28653909 183.769803,11.3625727 C184.403771,13.4373192 184.403771,14.7089381 183.769803,15.2713849 C183.135834,15.8364058 177.778026,17.2470275 175.841329,19.2355408 C173.904632,21.2227671 170.215501,26.1843973 169.175638,30.5848678 C168.134486,34.9866253 166.440037,40.9791935 165.115403,45.3552098 C163.79077,49.7312261 162.940324,54.6568186 161.839898,55.4213343 C160.739473,56.1845631 156.875099,55.5654855 155.038909,56.9413565 C153.202719,58.3172275 153.053247,60.0766434 154.78893,60.0766434 L159.426436,60.0766434 C158.345339,61.3109374 158.172673,61.928728 158.907149,61.928728 C160.01144,61.928728 162.196828,60.9492726 163.518885,59.3932127 C164.28944,58.4871199 164.417007,58.308218 164.766205,57.6273614 C165.115403,56.9465047 164.896349,56.5835528 165.254567,55.5654855 C165.773854,54.0905106 168.242724,50.3194142 170.922917,44.7760312 C171.367468,43.8583548 171.957626,42.4979286 172.692102,40.6960395 C173.051609,50.1829854 173.541259,54.8099791 174.162342,54.5757335 C175.095256,54.2256522 177.646593,50.6373189 183.769803,50.8278043 C189.893012,51.0195768 190.431628,52.6000909 194.0486,51.3400556 C197.66686,50.0800203 196.337072,49.1185838 195.44797,47.2368968 C194.558867,45.3552098 192.852821,41.2443286 192.852821,33.5682812 L192.852821,23.7891719 C197.374358,24.0839095 200.714291,23.7209575 202.872619,22.699029 C206.110756,21.1674233 214.566249,15.3202933 216.395996,13.6831484 C217.614968,12.5917185 218.948622,10.9043781 220.394379,8.62112721 C223.599014,8.13976541 224.747116,6.89002664 223.839973,4.8719109 L223.839973,4.87062383 Z" id="路径" fill="url(#linearGradient-10)"></path>
                    <path d="M181.012297,16.304897 C177.686538,17.4156329 175.030828,19.2728657 173.047743,21.8778824 C170.072471,25.7841205 168.638311,27.6387792 168.849633,28.9824736 C169.060956,30.3274551 173.047743,32.0830098 173.047743,32.5399174 C173.047743,32.9981121 172.100656,39.7268806 172.100656,44.5791105 C172.100656,49.4313403 173.453638,54.8974994 174.133994,54.8974994 C174.814351,54.8974994 176.843824,50.9874002 184.109981,51.3606486 C191.37485,51.7338971 192.475275,52.723649 194.540828,51.7390453 C196.60638,50.7544417 197.303488,49.9410175 196.1425,47.8340943 C194.980225,45.7271712 192.894055,42.1349767 192.894055,33.9518262 C192.894055,28.4972506 193.151766,25.3375094 193.665899,24.4751768 C197.038046,24.53953 198.960568,24.4713156 199.436045,24.2692466 C200.148615,23.9680737 198.378142,15.293265 197.875606,14.9998145 C197.374358,14.707651 194.641335,15.293265 192.894055,15.293265 C191.730491,15.293265 190.51023,15.6304756 189.23585,16.304897 C189.976768,17.8403639 190.157166,19.1724747 189.773177,20.3025166 C189.390476,21.4325584 188.216603,21.7903621 186.251558,21.3746406 C184.504279,21.0503005 183.23763,20.4196394 182.451612,19.482657 C181.682124,18.5797277 181.183249,17.4782965 181.012297,16.304897 L181.012297,16.304897 Z" id="路径" fill="#0091FF"></path>
                    <path d="M183.615176,12.7950745 C183.180933,9.43069022 181.023894,5.25802998 181.539315,3.82424112 C181.884648,2.86795285 182.575313,2.31837669 183.613888,2.17937382 C184.357383,0.289964432 186.138165,-0.371586266 188.956234,0.197295852 C189.585048,0.323428086 190.383952,1.03903546 191.038537,1.06091554 C192.209833,1.09952745 192.604131,1.03646133 193.38886,1.18704777 C194.422281,1.38525557 194.732822,1.8228572 194.826887,2.38401693 C194.991821,3.38535242 194.753439,4.39827149 193.38886,5.12417537 C192.162156,5.77671662 191.048846,5.01606202 190.1984,5.21555688 C189.628859,5.3494115 188.688214,6.68152234 187.380332,9.2118894 L187.304307,8.52717156 C187.056905,7.15001349 186.546637,6.57727019 185.773505,6.81151576 C185.001661,7.04576134 184.751681,7.60563401 185.020989,8.49370791 C185.205252,10.1733259 185.223292,11.2454499 185.075108,11.7087928 C184.926924,12.1721357 184.439851,12.5350877 183.615176,12.7950745 L183.615176,12.7950745 Z" id="路径" fill="#353564"></path>
                    <polygon id="路径" fill="#DB9710" fill-rule="nonzero" points="75.7979787 129.675895 111.729313 147.644591 104.442539 157.476469 75.7979787 129.675895"></polygon>
                    <polygon id="路径" fill="url(#linearGradient-11)" fill-rule="nonzero" points="75.7979787 129.675895 104.438673 157.473895 106.694932 145.955963"></polygon>
                    <polygon id="路径" fill="url(#linearGradient-12)" fill-rule="nonzero" points="75.7979787 129.675895 93.4112264 143.377975 106.688489 145.953389 75.7979787 129.675895"></polygon>
                    <polygon id="路径" fill="#FFD580" fill-rule="nonzero" points="80.699639 132.122603 122.380502 147.905864 111.733179 147.644591"></polygon>
                    <path d="M221.738342,1.77780997 C243.69144,5.20912156 262.219561,9.70226064 277.321416,15.2559401 C333.340023,35.8592545 347.22806,69.0770793 347.22806,90.1836355 C344.67028,121.047421 331.162366,135.629852 317.658318,143.773103 C296.162656,156.735121 271.307734,150.283071 265.160042,143.773103 C255.150553,133.172847 273.775315,117.034357 292.227412,129.081272 C310.679508,141.128187 259.798368,183.581981 206.658391,176.064242 C171.23217,171.052416 139.274737,161.699325 110.78738,148.003681" id="路径" stroke="url(#linearGradient-13)" stroke-width="1.13390304" opacity="0.398" stroke-linecap="round" stroke-dasharray="3.397848076011655"></path>
                    <path d="M178.812735,198.702404 C200.58157,198.702404 224.557698,202.781109 233.590463,207.359194 C233.188434,209.816198 232.499058,211.890945 231.519757,213.582147 C231.024952,213.629768 230.523704,213.654222 230.027611,213.654222 L134.893653,213.652935 L134.696504,213.652935 C133.888967,211.700739 133.269801,209.676018 132.847428,207.60631 C143.320797,202.954862 156.656045,198.702404 178.812735,198.702404 L178.812735,198.702404 Z" id="路径" fill="url(#linearGradient-14)" fill-rule="nonzero"></path>
                </g>
            </g>
        </g>
    </g>
</svg>